<svg xmlns="http://www.w3.org/2000/svg" xmlns:svg="http://www.w3.org/2000/svg" id="svg2" version="1.1" viewBox="0 0 16 16.018"><metadata id="metadata14"/><path id="rect4149" fill="#bebebe" fill-opacity="1" stroke="none" stroke-dasharray="none" stroke-dashoffset="0" stroke-linecap="butt" stroke-linejoin="miter" stroke-miterlimit="4" stroke-opacity="1" stroke-width="3.567" d="M 10.5 5.0175781 A 3.5 3.5 0 0 0 8.0546875 6.0175781 L 4.5 6.0175781 C 3.115 6.0175781 2 7.1325781 2 8.5175781 C 2 9.9025781 3.115 11.017578 4.5 11.017578 L 8.0507812 11.017578 A 3.5 3.5 0 0 0 10.5 12.017578 A 3.5 3.5 0 0 0 14 8.5175781 A 3.5 3.5 0 0 0 10.5 5.0175781 z M 10.5 6.0175781 A 2.5 2.5 0 0 1 12.109375 6.6054688 A 2.5 2.5 0 0 1 12.111328 6.6054688 A 2.5 2.5 0 0 1 12.603516 7.1679688 A 2.5 2.5 0 0 1 12.830078 7.6132812 A 2.5 2.5 0 0 1 12.908203 7.8496094 A 2.5 2.5 0 0 1 12.962891 8.0917969 A 2.5 2.5 0 0 1 12.962891 8.09375 A 2.5 2.5 0 0 1 12.998047 8.4511719 A 2.5 2.5 0 0 1 13 8.5175781 A 2.5 2.5 0 0 1 12.996094 8.6074219 A 2.5 2.5 0 0 1 12.933594 9.0761719 A 2.5 2.5 0 0 1 12.919922 9.1328125 A 2.5 2.5 0 0 1 12.859375 9.3378906 A 2.5 2.5 0 0 1 12.851562 9.359375 A 2.5 2.5 0 0 1 12.773438 9.5507812 A 2.5 2.5 0 0 1 12.748047 9.6015625 A 2.5 2.5 0 0 1 12.648438 9.7910156 A 2.5 2.5 0 0 1 12.636719 9.8085938 A 2.5 2.5 0 0 1 12.527344 9.9765625 A 2.5 2.5 0 0 1 12.482422 10.037109 A 2.5 2.5 0 0 1 12.353516 10.193359 A 2.5 2.5 0 0 1 12.330078 10.216797 A 2.5 2.5 0 0 1 11.775391 10.666016 A 2.5 2.5 0 0 1 11.753906 10.677734 A 2.5 2.5 0 0 1 11.572266 10.773438 A 2.5 2.5 0 0 1 11.517578 10.798828 A 2.5 2.5 0 0 1 11.345703 10.867188 A 2.5 2.5 0 0 1 11.269531 10.892578 A 2.5 2.5 0 0 1 11.121094 10.9375 A 2.5 2.5 0 0 1 11.011719 10.960938 A 2.5 2.5 0 0 1 10.878906 10.986328 A 2.5 2.5 0 0 1 10.773438 11 A 2.5 2.5 0 0 1 10.5 11.017578 A 2.5 2.5 0 0 1 10.25 11.005859 A 2.5 2.5 0 0 1 8.5019531 10.017578 A 2.5 2.5 0 0 1 8 8.5175781 A 2.5 2.5 0 0 1 8.5039062 7.0175781 A 2.5 2.5 0 0 1 9.6738281 6.1621094 A 2.5 2.5 0 0 1 9.7441406 6.1386719 A 2.5 2.5 0 0 1 9.8964844 6.0957031 A 2.5 2.5 0 0 1 10.001953 6.0703125 A 2.5 2.5 0 0 1 10.128906 6.046875 A 2.5 2.5 0 0 1 10.257812 6.03125 A 2.5 2.5 0 0 1 10.388672 6.0214844 A 2.5 2.5 0 0 1 10.5 6.0175781 z M 4.4550781 7.0175781 L 7.3417969 7.0175781 A 3.5 3.5 0 0 0 7 8.5175781 A 3.5 3.5 0 0 0 7.3417969 10.017578 L 4.4550781 10.017578 C 3.6490101 10.017578 3 9.368568 3 8.5625 L 3 8.4726562 C 3 7.6665885 3.6490101 7.0175781 4.4550781 7.0175781 z M 10.5 7.0175781 C 10.223 7.0175781 10 7.2405781 10 7.5175781 L 10 9.5175781 C 10 9.7945781 10.223 10.017578 10.5 10.017578 C 10.777 10.017578 11 9.7945781 11 9.5175781 L 11 7.5175781 C 11 7.2405781 10.777 7.0175781 10.5 7.0175781 z" opacity="1"/></svg>