<svg xmlns="http://www.w3.org/2000/svg" xmlns:svg="http://www.w3.org/2000/svg" id="svg3813" width="22" height="22" version="1.1" viewBox="0 0 22 22"><metadata id="metadata3818"/><g id="layer1" transform="translate(-378.85714,-540.07647)"><path id="path4185" fill="#424854" fill-opacity="1" stroke="none" d="M 4 3 L 4 14 L 4.8046875 14.804688 L 4.8007812 14.806641 L 8.09375 18.099609 L 8.0976562 18.097656 L 9 19 L 17 19 L 18 19 L 18 3 L 17 3 L 5 3 L 4 3 z M 5 4 L 17 4 L 17 18 L 10 18 L 10 14 L 10 13 L 5 13 L 5 4 z M 7 5 L 7 10 L 15 10 L 15 5 L 7 5 z M 8 6 L 14 6 L 14 9 L 8 9 L 8 6 z M 7 11 L 7 12 L 8 12 L 10 12 L 14 12 L 14 15 L 11 15 L 11 16 L 15 16 L 15 11 L 7 11 z M 5.5 14 L 6 14 L 6.5 14 L 9 14 L 9 15 L 9 16 L 9 17 L 8.5 17 L 8 16.5 L 7.5 16 L 7 15.5 L 6.5 15 L 6 14.5 L 5.5 14 z" opacity="1" transform="translate(378.85714,540.07647)"/></g></svg>