<svg xmlns="http://www.w3.org/2000/svg" xmlns:svg="http://www.w3.org/2000/svg" id="svg4359" width="22" height="22" version="1.1"><metadata id="metadata4364"/><g id="layer1" transform="translate(0,-26)"><path id="rect4163" fill="#f92d36" fill-opacity="1" stroke="none" d="M 11 3 C 6.568 3 3 6.568 3 11 C 3 15.432 6.568 19 11 19 C 15.432 19 19 15.432 19 11 C 19 6.568 15.432 3 11 3 z M 11 4 C 14.878 4 18 7.122 18 11 C 18 12.758463 17.354271 14.357001 16.291016 15.583984 L 6.4160156 5.7089844 C 7.6429988 4.6457291 9.2415375 4 11 4 z M 5.7089844 6.4160156 L 15.583984 16.291016 C 14.357001 17.354271 12.758463 18 11 18 C 7.122 18 4 14.878 4 11 C 4 9.2415375 4.6457291 7.6429988 5.7089844 6.4160156 z" opacity="1" transform="translate(0,26)"/></g></svg>