<svg xmlns="http://www.w3.org/2000/svg" xmlns:svg="http://www.w3.org/2000/svg" id="svg4359" width="22" height="22" version="1.1"><metadata id="metadata4364"/><g id="layer1" transform="translate(0,-26)"><path id="rect4123" fill="#424854" fill-opacity="1" stroke="none" d="M 9 3 C 5.676 3 3 5.676 3 9 C 3 12.324 5.676 15 9 15 C 10.481203 15 11.830584 14.465318 12.875 13.582031 L 18.292969 19 L 19 18.292969 L 13.582031 12.875 C 14.465318 11.830584 15 10.481203 15 9 C 15 5.676 12.324 3 9 3 z M 9 4 C 11.77 4 14 6.23 14 9 C 14 10.203564 13.560795 11.289349 12.857422 12.150391 C 12.645356 12.409993 12.409993 12.645356 12.150391 12.857422 C 11.289349 13.560795 10.203564 14 9 14 C 6.23 14 4 11.77 4 9 C 4 6.23 6.23 4 9 4 z M 9 6 L 9 7 C 10.108 7 11 7.892 11 9 C 11 9.222046 10.956832 9.4316044 10.890625 9.6308594 L 11.833984 9.9453125 C 11.93321 9.6465475 12 9.332915 12 9 C 12 7.338 10.662 6 9 6 z M 3 18 L 3 19 L 4 19 L 4 18 L 3 18 z M 6 18 L 6 19 L 7 19 L 7 18 L 6 18 z M 9 18 L 9 19 L 10 19 L 10 18 L 9 18 z" opacity="1" transform="translate(0,26)"/></g></svg>