<svg xmlns="http://www.w3.org/2000/svg" xmlns:svg="http://www.w3.org/2000/svg" id="svg3049" width="22" height="22" version="1.1"><metadata id="metadata3054"/><g id="layer1" transform="translate(-421.71429,-525.79074)"><path id="rect4108" fill="#424854" fill-opacity="1" stroke="none" d="M 3 3 L 3 7 L 7 7 L 7 3 L 3 3 z M 8 4 L 8 5 L 19 5 L 19 4 L 8 4 z M 3 9 L 3 13 L 7 13 L 7 9 L 3 9 z M 4 10 L 6 10 L 6 12 L 4 12 L 4 10 z M 8 10 L 8 11 L 19 11 L 19 10 L 8 10 z M 3 15 L 3 19 L 7 19 L 7 15 L 3 15 z M 4 16 L 6 16 L 6 18 L 4 18 L 4 16 z M 8 16 L 8 17 L 19 17 L 19 16 L 8 16 z" opacity="1" transform="translate(421.71429,525.79074)"/></g></svg>