<svg xmlns="http://www.w3.org/2000/svg" xmlns:svg="http://www.w3.org/2000/svg" id="svg3760" width="22" height="22" version="1.1"><metadata id="metadata3765"/><g id="layer1" transform="translate(-553.72253,-583.11926)"><path id="rect4179" fill="#424854" fill-opacity="1" stroke="none" d="M 3 3 L 3 4 L 3 12 L 4 12 L 4 4 L 8 4 L 8 7 L 16 7 L 18 7 L 18 12 L 18 18 L 10 18 L 10 19 L 18 19 L 19 19 L 19 12 L 19 6 L 18 6 L 16 6 L 16 3 L 8 3 L 4 3 L 3 3 z M 9 4 L 15 4 L 15 6 L 9 6 L 9 4 z M 6 12 L 6 15 L 3 15 L 3 16 L 6 16 L 6 19 L 7 19 L 7 16 L 10 16 L 10 15 L 7 15 L 7 12 L 6 12 z" opacity="1" transform="translate(553.72253,583.11926)"/></g></svg>