<svg xmlns="http://www.w3.org/2000/svg" xmlns:svg="http://www.w3.org/2000/svg" id="svg4359" width="22" height="22" version="1.1"><metadata id="metadata4364"/><g id="layer1" transform="translate(0,-26)"><path id="rect4141" fill="#424854" fill-opacity="1" stroke="none" d="M 5 3 L 5 5.0507812 C 3.8559283 5.2809777 3 6.2861397 3 7.5 C 3 8.7138603 3.8559283 9.7190223 5 9.9492188 L 5 19 L 6 19 L 6 9.9492188 C 7.1440717 9.7190223 8 8.7138603 8 7.5 C 8 6.2861397 7.1440717 5.2809777 6 5.0507812 L 6 3 L 5 3 z M 12 3 L 12 4.0507812 C 10.855928 4.2809777 10 5.2861397 10 6.5 C 10 7.7138603 10.855928 8.7190223 12 8.9492188 L 12 12 L 13 12 L 13 8.9492188 C 14.144072 8.7190223 15 7.7138603 15 6.5 C 15 5.2861397 14.144072 4.2809777 13 4.0507812 L 13 3 L 12 3 z M 16 3 L 16 11.050781 C 14.855928 11.280978 14 12.28614 14 13.5 C 14 14.71386 14.855928 15.719022 16 15.949219 L 16 19 L 17 19 L 17 15.949219 C 18.144072 15.719022 19 14.71386 19 13.5 C 19 12.28614 18.144072 11.280978 17 11.050781 L 17 3 L 16 3 z M 12.5 5 C 13.331 5 14 5.669 14 6.5 C 14 7.331 13.331 8 12.5 8 C 11.669 8 11 7.331 11 6.5 C 11 5.669 11.669 5 12.5 5 z M 5.5 6 C 6.331 6 7 6.669 7 7.5 C 7 8.331 6.331 9 5.5 9 C 4.669 9 4 8.331 4 7.5 C 4 6.669 4.669 6 5.5 6 z M 9 10 L 9 13.050781 C 7.8559283 13.280978 7 14.28614 7 15.5 C 7 16.71386 7.8559283 17.719022 9 17.949219 L 9 19 L 10 19 L 10 17.949219 C 11.144072 17.719022 12 16.71386 12 15.5 C 12 14.28614 11.144072 13.280978 10 13.050781 L 10 10 L 9 10 z M 16.5 12 C 17.331 12 18 12.669 18 13.5 C 18 14.331 17.331 15 16.5 15 C 15.669 15 15 14.331 15 13.5 C 15 12.669 15.669 12 16.5 12 z M 9.5 14 C 10.331 14 11 14.669 11 15.5 C 11 16.331 10.331 17 9.5 17 C 8.669 17 8 16.331 8 15.5 C 8 14.669 8.669 14 9.5 14 z" opacity="1" transform="translate(0,26)"/></g></svg>