<svg xmlns="http://www.w3.org/2000/svg" xmlns:svg="http://www.w3.org/2000/svg" id="svg2" version="1.1" viewBox="0 0 16 16"><metadata id="metadata14"/><path id="rect4165" fill="#fff" fill-opacity="1" fill-rule="nonzero" stroke="none" stroke-dasharray="none" stroke-dashoffset="0" stroke-linecap="butt" stroke-linejoin="miter" stroke-miterlimit="4" stroke-opacity="1" stroke-width="1" d="m 5.9999998,2 0,1 0,4 1,0 0,-4 2.0000005,0 0,4 L 10,7 10,3 10,2 5.9999998,2 Z M 3.2929688,8 7.2929687,12 7.9999998,12.707031 8.7070315,12 12.707031,8 11.292969,8 7.9999998,11.292969 4.7070318,8 3.2929688,8 Z m -1.292969,4 0,1 0,1 L 13,14 l 1,0 0,-1 0,-1 -1,0 0,1 -10.0000002,0 0,-1 -1,0 z" clip-rule="nonzero" color="#000" color-interpolation="sRGB" color-interpolation-filters="linearRGB" color-rendering="auto" display="inline" enable-background="accumulate" image-rendering="auto" opacity="1" overflow="visible" shape-rendering="auto" text-decoration="none" text-rendering="auto" visibility="visible" style="text-decoration-line:none;text-decoration-style:solid;text-decoration-color:#000;isolation:auto;mix-blend-mode:normal;solid-color:#000;solid-opacity:1"/></svg>