<svg xmlns="http://www.w3.org/2000/svg" xmlns:svg="http://www.w3.org/2000/svg" id="svg2" width="22" height="22" version="1.1" viewBox="0 0 22 22"><metadata id="metadata7"/><g id="layer1" transform="translate(0,-1030.3622)"><path id="path4173" fill="#fff" fill-opacity="1" stroke="none" stroke-dasharray="none" stroke-miterlimit="4" stroke-opacity=".55" stroke-width="2.8" d="M 5 5 L 5 5.4082031 L 5 16.591797 L 5 17 L 5.9980469 17 L 6.0058594 17 L 12 11 L 6.0058594 5 L 5 5 z M 13 5 L 13 6 L 13 17 L 14 17 L 17 17 L 17 16 L 17 5 L 14 5 L 13 5 z M 14 6 L 16 6 L 16 16 L 14 16 L 14 6 z M 5.9980469 6.4082031 L 10.587891 11 L 5.9980469 15.591797 L 5.9980469 6.4082031 z" opacity="1" transform="translate(0,1030.3622)"/></g></svg>