<svg xmlns="http://www.w3.org/2000/svg" xmlns:svg="http://www.w3.org/2000/svg" id="svg2" width="22" height="22" version="1.1" viewBox="0 0 22 22"><metadata id="metadata7"/><g id="layer1" transform="translate(0,-1030.3622)"><path id="rect4162" fill="#fff" fill-opacity="1" stroke="none" stroke-dasharray="none" stroke-miterlimit="4" stroke-opacity=".55" stroke-width="2.8" d="M 0 3 L 0 14 L 0.8046875 14.804688 L 0.80078125 14.804688 L 4.09375 18.097656 L 4.0976562 18.097656 L 5 19 L 13 19 L 14 19 L 14 3 L 13 3 L 1 3 L 0 3 z M 1 4 L 13 4 L 13 18 L 6 18 L 6 14 L 6 13 L 1 13 L 1 4 z M 21.292969 7.5 L 18.5 10.292969 L 17.792969 11 L 18.5 11.707031 L 21.292969 14.5 L 22 13.792969 L 19.207031 11 L 22 8.2070312 L 21.292969 7.5 z M 1.5 14 L 2 14 L 2.5 14 L 5 14 L 5 15 L 5 16 L 5 17 L 4.5 17 L 4 16.5 L 3.5 16 L 3 15.5 L 2.5 15 L 2 14.5 L 1.5 14 z" opacity="1" transform="translate(0,1030.3622)"/></g></svg>