<svg xmlns="http://www.w3.org/2000/svg" xmlns:svg="http://www.w3.org/2000/svg" id="svg2" width="22" height="22" version="1.1" viewBox="0 0 22 22"><metadata id="metadata7"/><g id="layer1" transform="translate(0,-1030.3622)"><path id="rect4110" fill="#fff" fill-opacity="1" stroke="none" d="M 3 3 L 3 4 L 19 4 L 19 3 L 3 3 z M 3 6 L 3 7 L 19 7 L 19 6 L 3 6 z M 3 9 L 3 10 L 19 10 L 19 9 L 3 9 z M 3.7070312 12 L 3 12.707031 L 5.7929688 15.5 L 3 18.292969 L 3.7070312 19 L 6.5 16.207031 L 7.2070312 15.5 L 6.5 14.792969 L 3.7070312 12 z M 10 12 L 10 13 L 19 13 L 19 12 L 10 12 z M 10 15 L 10 16 L 19 16 L 19 15 L 10 15 z M 10 18 L 10 19 L 19 19 L 19 18 L 10 18 z" opacity="1" transform="translate(0,1030.3622)"/></g></svg>