<svg xmlns="http://www.w3.org/2000/svg" xmlns:svg="http://www.w3.org/2000/svg" id="svg2" width="22" height="22" version="1.1" viewBox="0 0 22 22"><metadata id="metadata7"/><g id="layer1" transform="translate(0,-1030.3622)"><path id="rect4110-8" fill="#fff" fill-opacity="1" stroke="none" d="m 19,1033.3622 0,1 -16,0 0,-1 16,0 z m 0,3 0,1 -16,0 0,-1 16,0 z m 0,3 0,1 -16,0 0,-1 16,0 z m -0.707031,3 0.707031,0.707 -2.792969,2.793 2.792969,2.793 -0.707031,0.707 -2.792969,-2.793 -0.707031,-0.707 0.707031,-0.707 2.792969,-2.793 z m -6.292969,0 0,1 -9,0 0,-1 9,0 z m 0,3 0,1 -9,0 0,-1 9,0 z m 0,3 0,1 -9,0 0,-1 9,0 z" opacity="1"/></g></svg>