<svg xmlns="http://www.w3.org/2000/svg" xmlns:svg="http://www.w3.org/2000/svg" id="svg4359" width="22" height="22" version="1.1"><metadata id="metadata4364"/><g id="layer1" transform="translate(0,-26)"><path id="rect8613" fill="#fff" fill-opacity="1" stroke="none" d="M 4 3 L 4 4 L 4 8 L 5 8 L 5 4 L 17 4 L 17 8 L 18 8 L 18 4 L 18 3 L 17 3 L 5 3 L 4 3 z M 6.2929688 8.6992188 L 4 10.992188 L 4.0078125 11 L 4 11 L 4 13 L 4 14 L 4.8046875 14.804688 L 4.8007812 14.806641 L 8.09375 18.099609 L 8.0976562 18.097656 L 9 19 L 10 19 L 18 19 L 18 18 L 18 13 L 18 11 L 16.998047 11 L 16.998047 11.007812 L 16.990234 11 L 15.40625 12.585938 L 14.111328 11.292969 L 11.814453 9 L 11.8125 9.0019531 L 11.511719 8.7011719 L 9.21875 10.992188 L 8.9042969 11.306641 L 8.5898438 10.992188 L 7.0039062 9.40625 L 6.2929688 8.6992188 z M 6.2949219 10.113281 L 7.8808594 11.699219 L 8.9042969 12.720703 L 9.9257812 11.699219 L 11.513672 10.113281 L 13.402344 12 L 15.40625 14 L 16.113281 13.292969 L 16.998047 12.40625 L 16.998047 13 L 16.998047 14 L 17 14 L 17 18 L 10 18 L 10 13 L 5 13 L 5 11.408203 L 6.2949219 10.113281 z M 5.5 14 L 9 14 L 9 17 L 8.5 17 L 8 16.5 L 7.5 16 L 7 15.5 L 6.5 15 L 6 14.5 L 5.5 14 z" opacity="1" transform="translate(0,26)"/></g></svg>