<svg xmlns="http://www.w3.org/2000/svg" xmlns:svg="http://www.w3.org/2000/svg" id="svg2" width="22" height="22" version="1.1" viewBox="0 0 22 22"><metadata id="metadata7"/><g id="layer1" transform="translate(0,-1030.3622)"><rect id="rect4146" width="16" height="1" x="3" y="1048.362" fill="#fff" fill-opacity="1" stroke="none" opacity="1"/><g id="text4148" fill="#fff" fill-opacity="1" stroke="none" stroke-linecap="butt" stroke-linejoin="miter" stroke-opacity="1" stroke-width="1" font-family="serif" font-size="20.184" font-stretch="normal" font-style="normal" font-variant="normal" font-weight="normal" letter-spacing="0" transform="translate(0,-0.50001738)" word-spacing="0" style="line-height:125%;-inkscape-font-specification:serif"><path id="path4153" fill="#fff" fill-opacity="1" d="m 5.3035483,1034.9168 -1.8823915,0 0,-1.0546 5.7555845,0 0,1.0546 -1.8823915,0 0,6.6079 c 0,1.8791 0.305519,3.1899 0.9165571,3.9323 0.6176084,0.7425 1.6787121,1.1137 3.1833111,1.1137 1.504599,0 2.562418,-0.3712 3.173456,-1.1137 0.617609,-0.7424 0.926413,-2.0532 0.926413,-3.9323 l 0,-6.6079 -1.882392,0 0,-1.0546 4.967148,0 0,1.0546 -1.872536,0 0,6.805 c 0,2.2405 -0.430355,3.8239 -1.291064,4.7503 -0.860709,0.9264 -2.322602,1.3896 -4.385677,1.3896 -2.0630745,0 -3.534822,-0.4665 -4.4152425,-1.3995 -0.8738501,-0.9329 -1.3107752,-2.513 -1.3107752,-4.7404 z"/></g></g></svg>