<svg xmlns="http://www.w3.org/2000/svg" xmlns:svg="http://www.w3.org/2000/svg" id="svg4355" width="22" height="22" version="1.1"><metadata id="metadata4360"/><g id="layer1" transform="translate(-544.57141,-742.93359)"><path id="path4162" fill="#fff" fill-opacity="1" stroke="none" d="M 3 3 L 3 4 L 3 7 L 4 7 L 4 4 L 7 4 L 7 3 L 3 3 z M 11 3 L 9 5 L 13 5 L 11 3 z M 15 3 L 15 4 L 18 4 L 18 7 L 19 7 L 19 4 L 19 3 L 15 3 z M 7 7 L 7 14 L 7 15 L 8 15 L 15 15 L 15 14 L 15 7 L 8 7 L 7 7 z M 8 8 L 14 8 L 14 14 L 8 14 L 8 8 z M 5 9 L 3 11 L 5 13 L 5 9 z M 17 9 L 17 13 L 19 11 L 17 9 z M 3 15 L 3 18 L 3 19 L 4 19 L 7 19 L 7 18 L 4 18 L 4 15 L 3 15 z M 18 15 L 18 18 L 15 18 L 15 19 L 18 19 L 19 19 L 19 18 L 19 15 L 18 15 z M 9 17 L 11 19 L 13 17 L 9 17 z" opacity="1" transform="translate(544.57141,742.93359)"/></g></svg>