<svg xmlns="http://www.w3.org/2000/svg" xmlns:svg="http://www.w3.org/2000/svg" id="svg2" width="22" height="22" version="1.1" viewBox="0 0 22 22"><metadata id="metadata7"/><g id="layer1" transform="translate(0,-1030.3622)"><path id="rect3379" fill="#fff" fill-opacity="1" stroke="none" stroke-dasharray="none" stroke-miterlimit="4" stroke-opacity=".55" stroke-width="2.8" d="M 15.994141 5 L 11 10 L 11 12 L 15.994141 17 L 16.001953 17 L 17 17 L 17 16.591797 L 17 5.4082031 L 17 5 L 15.994141 5 z M 16.001953 6.4082031 L 16.001953 15.591797 L 11.412109 11 L 16.001953 6.4082031 z" opacity="1" transform="translate(0,1030.3622)"/><g id="g4171" transform="matrix(-1,0,0,1,19.999996,0)"><path id="path4173" fill="#fff" fill-opacity="1" stroke="none" stroke-dasharray="none" stroke-miterlimit="4" stroke-opacity=".55" stroke-width="2.8" d="m 8,1035.3622 0,0.4082 0,11.1836 0,0.4082 0.9988853,0 0.0078,0 5.9933107,-6 -5.9933107,-6 -1.0066891,0 z m 0.9988853,1.4082 4.5886297,4.5918 -4.5886297,4.5918 0,-9.1836 z" opacity="1"/></g></g></svg>