<svg xmlns="http://www.w3.org/2000/svg" xmlns:svg="http://www.w3.org/2000/svg" id="svg3760" width="22" height="22" version="1.1"><metadata id="metadata3765"/><g id="layer1" transform="translate(-553.72253,-583.11926)"><path id="rect4123" fill="#fff" fill-opacity="1" stroke="none" d="M 3 3 L 3 4 L 3 6 L 3 7 L 3 19 L 4 19 L 9 19 L 10 19 L 18 19 L 19 19 L 19 18 L 19 7 L 19 6 L 19 4 L 19 3 L 18 3 L 4 3 L 3 3 z M 4 4 L 18 4 L 18 6 L 4 6 L 4 4 z M 4 7 L 9 7 L 10 7 L 18 7 L 18 18 L 10 18 L 9 18 L 4 18 L 4 7 z M 8 8 C 6.892 8 6 8.892 6 10 C 6 11.108 6.892 12 8 12 C 9.108 12 10 11.108 10 10 C 10 8.892 9.108 8 8 8 z M 14 8 C 12.892 8 12 8.892 12 10 C 12 11.108 12.892 12 14 12 C 15.108 12 16 11.108 16 10 C 16 8.892 15.108 8 14 8 z M 8 9 C 8.554 9 9 9.446 9 10 C 9 10.554 8.554 11 8 11 C 7.446 11 7 10.554 7 10 C 7 9.446 7.446 9 8 9 z M 14 9 C 14.554 9 15 9.446 15 10 C 15 10.554 14.554 11 14 11 C 13.446 11 13 10.554 13 10 C 13 9.446 13.446 9 14 9 z M 8 13 C 6.892 13 6 13.892 6 15 C 6 16.108 6.892 17 8 17 C 9.108 17 10 16.108 10 15 C 10 13.892 9.108 13 8 13 z M 14 13 C 12.892 13 12 13.892 12 15 C 12 16.108 12.892 17 14 17 C 15.108 17 16 16.108 16 15 C 16 13.892 15.108 13 14 13 z M 8 14 C 8.554 14 9 14.446 9 15 C 9 15.554 8.554 16 8 16 C 7.446 16 7 15.554 7 15 C 7 14.446 7.446 14 8 14 z M 14 14 C 14.554 14 15 14.446 15 15 C 15 15.554 14.554 16 14 16 C 13.446 16 13 15.554 13 15 C 13 14.446 13.446 14 14 14 z" opacity="1" transform="translate(553.72253,583.11926)"/></g></svg>