<svg xmlns="http://www.w3.org/2000/svg" xmlns:svg="http://www.w3.org/2000/svg" id="svg4359" width="22" height="22" version="1.1"><metadata id="metadata4364"/><g id="layer1" transform="translate(0,-26)"><path id="path4165" fill="#fff" fill-opacity="1" d="M 11 3 A 8.0000019 8 0 0 0 5.6699219 5.0585938 A 1 1 0 0 1 6 5 A 1 1 0 0 1 6.8027344 5.4042969 A 7.0000019 7 0 0 1 11 4 A 7.0000019 7 0 0 1 18 11 A 7.0000019 7 0 0 1 16.591797 15.197266 L 17.585938 15.529297 A 8.0000019 8 0 0 0 19 11 A 8.0000019 8 0 0 0 11 3 z M 5.0644531 5.6523438 A 8.0000019 8 0 0 0 5.0273438 5.6914062 L 5.0449219 5.7070312 A 1 1 0 0 1 5.0644531 5.6523438 z" opacity=".3" transform="translate(0,26)"/><path id="path4164" fill="#fff" fill-opacity="1" d="M 6 4 C 4.892 4 4 4.892 4 6 C 4 6.3001943 4.0699898 6.5808983 4.1875 6.8359375 A 8.000001 8.000001 0 0 0 3 11 A 8.000001 8.000001 0 0 0 11 19 A 8.000001 8.000001 0 0 0 17 16.271484 L 17 18 L 18 18 L 18 15 L 18 14 L 17 14 L 14 14 L 14 15 L 16.722656 15 A 7.000001 7.000001 0 0 1 11 18 A 7.000001 7.000001 0 0 1 4 11 A 7.000001 7.000001 0 0 1 4.8671875 7.6484375 C 5.1891685 7.869863 5.5780129 8 6 8 C 7.108 8 8 7.108 8 6 C 8 4.892 7.108 4 6 4 z M 6 5 C 6.554 5 7 5.446 7 6 C 7 6.554 6.554 7 6 7 C 5.7255501 7 5.4791739 6.8887566 5.2988281 6.7109375 C 5.2954767 6.707633 5.292367 6.7045233 5.2890625 6.7011719 C 5.2042835 6.6151883 5.1351838 6.5146057 5.0859375 6.4023438 A 1 1 0 0 1 5.0761719 6.3769531 C 5.0289663 6.2605805 5 6.1337058 5 6 C 5 5.446 5.446 5 6 5 z" opacity="1" transform="translate(0,26)"/></g></svg>