<svg xmlns="http://www.w3.org/2000/svg" xmlns:svg="http://www.w3.org/2000/svg" id="svg4359" width="22" height="22" version="1.1"><metadata id="metadata4364"/><g id="layer1" transform="translate(0,-26)"><path id="rect4204" fill="#fff" fill-opacity="1" stroke="none" stroke-dasharray="none" stroke-miterlimit="4" stroke-opacity=".55" stroke-width="2.8" d="M 2 3 L 2 4 L 2 6 L 2 7 L 2 12 L 3 12 L 3 7 L 13 7 L 19 7 L 19 18 L 9 18 L 9 19 L 20 19 L 20 18 L 20 7 L 20 6 L 13 6 L 10 3 L 2 3 z M 3 4 L 9.4003906 4 L 9.5 4 L 10 4.5 L 10.5 5 L 11 5.5 L 11.5 6 L 11.400391 6 L 10.5 6 L 10.400391 6 L 3 6 L 3 5 L 3 4 z M 5 10 L 5 13 L 6 13 L 6 11 L 10 11 L 10 16 L 8 16 L 8 17 L 10 17 L 11 17 L 11 11 L 11 10 L 6 10 L 5 10 z M 3 14 L 3 19 L 7 19 L 7 14 L 3 14 z M 4 15 L 6 15 L 6 18 L 4 18 L 4 15 z" opacity="1" transform="translate(0,26)"/></g></svg>