<svg xmlns="http://www.w3.org/2000/svg" xmlns:svg="http://www.w3.org/2000/svg" id="svg4359" width="22" height="22" version="1.1"><metadata id="metadata4364"/><g id="layer1" transform="translate(0,-26)"><path id="rect4163" fill="#f92d36" fill-opacity="1" stroke="none" d="M 11 3 C 6.568 3 3 6.568 3 11 C 3 15.432 6.568 19 11 19 C 15.432 19 19 15.432 19 11 C 19 6.568 15.432 3 11 3 z M 11 4 C 14.878 4 18 7.122 18 11 C 18 14.878 14.878 18 11 18 C 7.122 18 4 14.878 4 11 C 4 7.122 7.122 4 11 4 z M 8.7070312 8 L 8 8.7070312 L 10.292969 11 L 8 13.292969 L 8.7070312 14 L 11 11.707031 L 13.292969 14 L 14 13.292969 L 11.707031 11 L 14 8.7070312 L 13.292969 8 L 11 10.292969 L 8.7070312 8 z" opacity="1" transform="translate(0,26)"/></g></svg>