<svg xmlns="http://www.w3.org/2000/svg" xmlns:svg="http://www.w3.org/2000/svg" id="svg4359" width="22" height="22" version="1.1"><metadata id="metadata4364"/><g id="layer1" transform="translate(0,-26)"><path id="rect8602" fill="#fff" fill-opacity=".941" stroke="none" d="M 14 3 L 14 8.0917969 C 13.418077 8.2978026 13 8.8457598 13 9.5 C 13 10.15424 13.418077 10.702197 14 10.908203 L 14 13 L 15 13 L 15 10.908203 C 15.581923 10.702197 16 10.15424 16 9.5 C 16 8.8457598 15.581923 8.2978026 15 8.0917969 L 15 3 L 14 3 z M 17 3 L 17 5.0917969 C 16.418077 5.2978026 16 5.8457596 16 6.5 C 16 7.1542404 16.418077 7.7021974 17 7.9082031 L 17 13 L 18 13 L 18 7.9082031 C 18.581923 7.7021974 19 7.1542404 19 6.5 C 19 5.8457596 18.581923 5.2978026 18 5.0917969 L 18 3 L 17 3 z M 9 6 C 7.338 6 6 7.338 6 9 C 6 10.662 7.338 12 9 12 C 10.662 12 12 10.662 12 9 C 12 7.338 10.662 6 9 6 z M 17.5 6 C 17.777 6 18 6.2229998 18 6.5 C 18 6.7770002 17.777 7 17.5 7 C 17.223 7 17 6.7770002 17 6.5 C 17 6.2229998 17.223 6 17.5 6 z M 9 7 C 10.108 7 11 7.892 11 9 C 11 10.108 10.108 11 9 11 C 7.892 11 7 10.108 7 9 C 7 7.892 7.892 7 9 7 z M 14.5 9 C 14.777 9 15 9.223 15 9.5 C 15 9.777 14.777 10 14.5 10 C 14.223 10 14 9.777 14 9.5 C 14 9.223 14.223 9 14.5 9 z M 9 13 C 5.676 13 3 15.676 3 19 L 4 19 C 4 16.23 6.23 14 9 14 C 11.77 14 14 16.23 14 19 L 15 19 C 15 15.676 12.324 13 9 13 z" opacity="1" transform="translate(0,26)"/></g></svg>