<svg xmlns="http://www.w3.org/2000/svg" xmlns:svg="http://www.w3.org/2000/svg" id="svg3760" width="22" height="22" version="1.1"><metadata id="metadata3765"/><g id="layer1" transform="translate(-551.28571,-607.64788)"><path id="rect4138" fill="#fff" fill-opacity="1" stroke="none" d="M 3 3 L 3 7 L 3 11 L 4 11 L 4 7 L 18 7 L 18 18 L 11 18 L 11 19 L 19 19 L 19 18 L 19 7 L 19 3 L 3 3 z M 3.9394531 3.9394531 L 17.939453 3.9394531 L 17.939453 5.9394531 L 3.9394531 5.9394531 L 3.9394531 3.9394531 z M 6 12 L 6 15 L 3 15 L 3 16 L 6 16 L 6 19 L 7 19 L 7 16 L 10 16 L 10 15 L 7 15 L 7 12 L 6 12 z" opacity="1" transform="translate(551.28571,607.64788)"/></g></svg>