<svg xmlns="http://www.w3.org/2000/svg" xmlns:svg="http://www.w3.org/2000/svg" id="svg2" width="24" height="24" version="1.1" viewBox="0 0 24 24"><metadata id="metadata12"/><path color="#000" style="text-decoration-line:none;text-decoration-style:solid;text-decoration-color:#000;isolation:auto;mix-blend-mode:normal;solid-color:#000;solid-opacity:1" id="rect4169" fill="#fff" fill-opacity="1" fill-rule="nonzero" stroke="none" stroke-dasharray="none" stroke-dashoffset="0" stroke-linecap="butt" stroke-linejoin="miter" stroke-miterlimit="4" stroke-opacity="1" stroke-width="1" d="m 12,4 c -1.108,0 -2,0.892 -2,2 l 0,1.4199219 C 8.2328358,8.1893874 7,9.9431801 7,12 l 0,4 -2,0 0,1 2,0 1,0 2,0 0,1 c 0,1.108 0.892,2 2,2 1.108,0 2,-0.892 2,-2 l 0,-1 2,0 1,0 2,0 0,-1 -2,0 0,-4 C 17,9.9431801 15.767164,8.1893874 14,7.4199219 L 14,6 C 14,4.892 13.108,4 12,4 Z m 0,1 c 0.554,0 1,0.446 1,1 l 0,1.0996094 C 12.676916,7.0344951 12.342832,7 12,7 11.657168,7 11.323084,7.0344951 11,7.0996094 L 11,6 c 0,-0.554 0.446,-1 1,-1 z m 0,3 c 0.34745,0 0.679001,0.056169 1,0.1386719 0.0074,0.00191 0.01408,0.00586 0.02148,0.00781 0.344961,0.090899 0.669231,0.2265976 0.970704,0.4003906 0.0025,0.00145 0.0053,0.00245 0.0078,0.00391 C 15.192708,9.2416195 16,10.517029 16,12 l 0,4 -8,0 0,-4 c 0,-1.482971 0.8072919,-2.7583805 2,-3.4492188 0.0025,-0.00146 0.0053,-0.00245 0.0078,-0.00391 0.301476,-0.1737892 0.625745,-0.3094873 0.970706,-0.4003868 0.0074,-0.00196 0.01403,-0.0059 0.02148,-0.00781 C 11.320999,8.0561689 11.65255,8 12,8 Z m -1,9 2,0 0,1 c 0,0.554 -0.446,1 -1,1 -0.554,0 -1,-0.446 -1,-1 l 0,-1 z" clip-rule="nonzero" color-interpolation="sRGB" color-interpolation-filters="linearRGB" color-rendering="auto" display="inline" enable-background="accumulate" image-rendering="auto" opacity="1" overflow="visible" shape-rendering="auto" text-decoration="none" text-rendering="auto" visibility="visible"/></svg>