<svg xmlns="http://www.w3.org/2000/svg" xmlns:svg="http://www.w3.org/2000/svg" id="svg2" width="24" height="24" version="1.1" viewBox="0 0 24 24"><metadata id="metadata46"/><defs id="defs4"><clipPath id="clipPath6"><rect id="rect8" width="3.825" height="6.375" x="26.85" y="220.75" fill="#bebebe" color="#bebebe"/></clipPath><clipPath id="clipPath10"><rect id="rect12" width="2.898" height="5.216" x="26.966" y="221.33" fill="#bebebe" color="#bebebe"/></clipPath><clipPath id="clipPath14"><rect id="rect16" width="1.876" height="4.874" x="26.999" y="221.5" fill="#bebebe" color="#bebebe"/></clipPath><clipPath id="clipPath3025"><rect id="rect3027" width="1.876" height="4.874" x="26.999" y="221.5" fill="#bebebe" color="#bebebe"/></clipPath><clipPath id="clipPath3021"><rect id="rect3023" width="2.898" height="5.216" x="26.966" y="221.33" fill="#bebebe" color="#bebebe"/></clipPath><clipPath id="clipPath3017"><rect id="rect3019" width="3.825" height="6.375" x="26.85" y="220.75" fill="#bebebe" color="#bebebe"/></clipPath></defs><g id="g3091" transform="matrix(1.0001112,0,0,1,0.99911003,1)"><path id="rect4120" fill="#f92d36" fill-opacity="1" stroke="none" d="M 11.593351,3 6.5939067,8 4.0004451,8 3.0005563,8 l 0,1 0,4 0,1 0.9998888,0 2.5934616,0 4.9994443,5 0.0059,-0.0059 0,0.0059 2.400083,0 0,-1 0,-15 -2.400124,0 0,0.00586 L 11.593351,3 Z m 0.414016,1 0.992077,0 0,14 -0.992077,0 -4.9994439,-5 -0.00781,0.0078 0,-0.0078 0,-4.0078125 L 7.0079231,9 12.007367,4 Z m -8.0069219,5 0.9998888,0 0,4 -0.9998888,0 0,-4 z" opacity="1"/><rect id="rect4239" width="4" height="2" x="14.999" y="10" fill="#f92d36" fill-opacity="1" stroke="none" opacity="1" ry="0"/></g></svg>