<svg xmlns="http://www.w3.org/2000/svg" xmlns:svg="http://www.w3.org/2000/svg" id="svg2" width="24" height="24" version="1.1" viewBox="0 0 6.773 6.773"><metadata id="metadata12"/><path id="path4188" fill="#fff" fill-opacity="1" fill-rule="evenodd" stroke="none" stroke-linecap="butt" stroke-linejoin="miter" stroke-opacity="1" stroke-width=".282" d="M 5.6444446,1.1288889 4.2333335,2.6237848 4.7977779,3.1044445 5.6444446,1.1288889 Z m -3.668889,1.128889 -0.8466667,0.8466666 0,0.2822223 L 1.9755556,3.1044445 2.5400001,5.3622224 3.1044445,4.9653474 5.6367275,5.6444446 4.7977779,3.668889 4.5155557,3.3866668 3.1044445,4.5155557 2.2577779,2.4722006 1.9755556,2.2577779 Z M 3.3866668,2.8222223 2.8222223,3.1044445 3.3866668,3.9511112 4.3204255,3.1044445 3.3866668,2.8222223 Z" opacity=".5"/><path id="path4154" fill="#fff" fill-opacity="1" fill-rule="evenodd" stroke="none" stroke-linecap="butt" stroke-linejoin="miter" stroke-opacity="1" stroke-width=".282" d="m 5.3622223,1.4276476 -1.1288889,1.1961372 0.5644445,0.4806597 0.5644444,-1.3168533 0,-0.3599436 z m -3.3866667,0.8301303 -0.8466667,0.8466666 0,0.2822223 L 1.9755556,3.1044445 2.54,5.3622224 l 0.5644445,-0.396875 2.2577778,0.6052343 0,-0.5727127 L 4.7977779,3.668889 4.5155556,3.3866668 3.1044445,4.5155557 2.2577778,2.4722006 1.9755556,2.2577779 Z M 3.3866667,2.8222223 2.8222223,3.1044445 3.3866667,3.9511112 4.3204255,3.1044445 3.3866667,2.8222223 Z" opacity="1"/></svg>