<svg xmlns="http://www.w3.org/2000/svg" xmlns:svg="http://www.w3.org/2000/svg" id="svg2" width="24" height="24" version="1.1" viewBox="0 0 6.773 6.773"><metadata id="metadata12"/><path id="path4188" fill="#fff" fill-opacity="1" fill-rule="evenodd" stroke="none" stroke-linecap="butt" stroke-linejoin="miter" stroke-opacity="1" stroke-width=".282" d="M 5.6444446,1.1288889 4.2333335,2.6237848 4.7977779,3.1044445 5.6444446,1.1288889 Z m -3.668889,1.128889 -0.8466667,0.8466666 0,0.2822223 0.8466667,-0.2822223 0.5644445,2.2577779 0.5644444,-0.396875 0.9056467,0.2430859 A 1.6933335,1.6933335 0 0 1 4.976923,4.0905688 L 4.7977779,3.668889 4.5155557,3.3866668 3.1044445,4.5155557 2.2577779,2.4722006 1.9755556,2.2577779 Z M 3.3866668,2.8222223 2.8222223,3.1044445 3.3866668,3.9511112 4.3204255,3.1044445 3.3866668,2.8222223 Z"/><path id="rect4154" fill="#fff" fill-opacity="1" stroke="none" stroke-dasharray="none" stroke-dashoffset="0" stroke-linecap="butt" stroke-linejoin="miter" stroke-miterlimit="4" stroke-opacity="1" stroke-width="1.007" d="M 5.2211113,4.5155557 A 0.141111,0.14111112 0 0 0 5.0800002,4.6566668 0.141111,0.14111112 0 0 0 5.2211113,4.7977779 0.141111,0.14111112 0 0 0 5.3622224,4.6566668 0.141111,0.14111112 0 0 0 5.2211113,4.5155557 Z m -0.1411111,0.5644445 0,0.5644444 0.2822222,0 0,-0.5644444 -0.2822222,0 z" opacity="1"/></svg>