<svg xmlns="http://www.w3.org/2000/svg" xmlns:svg="http://www.w3.org/2000/svg" id="svg4359" width="24" height="24" version="1.1" viewBox="0 0 24 24"><metadata id="metadata4364"/><g id="layer1" transform="translate(1,-25)"><path id="rect4161" fill="#fff" fill-opacity="1" stroke="none" stroke-dasharray="none" stroke-miterlimit="4" stroke-opacity="1" stroke-width=".1" d="m 3,3 0,8 0,1 0,1 2,0 0,2 0,1 0,1 5,0 1,0 2,0 6,0 0,-2 0,-2 L 19,7 17,7 17,3 4,3 3,3 Z M 4,4 16,4 16,7 6,7 5,7 5,11 4,11 4,4 Z m 2,4 10,0 1,0 1,0 0,5 0,2 -5,0 -7,0 0,-2 0,-2 0,-3 z m 5,10 c -0.554,0 -1,0.446 -1,1 l 4.099609,0 c 0,-0.554 -0.446,-1 -1,-1 L 11,18 Z" opacity="1" transform="translate(0,26)"/></g></svg>