<svg xmlns="http://www.w3.org/2000/svg" xmlns:svg="http://www.w3.org/2000/svg" id="svg2" width="24" height="24" version="1.1" viewBox="0 0 24 24"><metadata id="metadata12"/><defs id="defs10"><clipPath id="clipPath6"><rect id="rect8" width="3.825" height="6.375" x="26.85" y="220.75" fill="#bebebe" color="#bebebe"/></clipPath><clipPath id="clipPath10"><rect id="rect12" width="2.898" height="5.216" x="26.966" y="221.33" fill="#bebebe" color="#bebebe"/></clipPath><clipPath id="clipPath14"><rect id="rect16" width="1.876" height="4.874" x="26.999" y="221.5" fill="#bebebe" color="#bebebe"/></clipPath><clipPath id="clipPath3025"><rect id="rect3027" width="1.876" height="4.874" x="26.999" y="221.5" fill="#bebebe" color="#bebebe"/></clipPath><clipPath id="clipPath3021"><rect id="rect3023" width="2.898" height="5.216" x="26.966" y="221.33" fill="#bebebe" color="#bebebe"/></clipPath><clipPath id="clipPath3017"><rect id="rect3019" width="3.825" height="6.375" x="26.85" y="220.75" fill="#bebebe" color="#bebebe"/></clipPath></defs><path id="rect4236" fill="#f92d36" fill-opacity="1" stroke="none" stroke-dasharray="none" stroke-miterlimit="4" stroke-opacity="1" stroke-width=".1" d="m 4,7.9999961 0,8.0000079 1,0 13,0 0,-0.999999 0,-1 1,0 1,0 0,-4.0000089 -1,0 -1,0 0,-1 0,-1 -1,0 -12,0 z m 1,1 12,0 0,6.0000089 -12,0 z m 13,1.9999999 1,0 0,2.000009 -1,0 z" opacity="1"/><path color="#000" style="text-decoration-line:none;text-decoration-style:solid;text-decoration-color:#000;isolation:auto;mix-blend-mode:normal;solid-color:#000;solid-opacity:1" id="rect4164" fill="#f92d36" fill-opacity="1" fill-rule="nonzero" stroke="none" stroke-dasharray="none" stroke-dashoffset="0" stroke-linecap="butt" stroke-linejoin="miter" stroke-miterlimit="4" stroke-opacity="1" stroke-width="1" d="m 11.000283,8.9990421 -0.544921,1 -1.455078,2.6660159 1.999999,0 0,1.333984 0,1 0.544922,-1 1.455078,-2.666015 -2,0 0,-1.3339849 0,-1 z" clip-rule="nonzero" color-interpolation="sRGB" color-interpolation-filters="linearRGB" color-rendering="auto" display="inline" enable-background="accumulate" image-rendering="auto" opacity="1" overflow="visible" shape-rendering="auto" text-decoration="none" text-rendering="auto" visibility="visible"/></svg>