<svg xmlns="http://www.w3.org/2000/svg" xmlns:svg="http://www.w3.org/2000/svg" id="svg2" width="24" height="24" version="1.1" viewBox="0 0 24 24"><metadata id="metadata12"/><path id="path4211" fill="#fff" fill-opacity="1" fill-rule="evenodd" stroke="none" stroke-linecap="butt" stroke-linejoin="miter" stroke-opacity="1" stroke-width="1" d="M 9,4 8.8398438,4.2597656 12,9 l 2.666016,3.996094 -0.002,0 L 15.333984,14 21,14 21,13.998047 21,13.75 15,4 12,4 9,4 Z M 8.2636719,5.1972656 3,13.75 l 0,0.248047 2.4238281,4.847656 4.8671879,-7.289062 0.0039,0.002 1.105465,-1.6582504 -3.1367191,-4.703125 z M 9.1933594,15 5.9375,19.875 6,20 l 6,0 6,0 2.5,-5 -4.5,0 -4,0 -2.8066406,0 z"/></svg>