<svg xmlns="http://www.w3.org/2000/svg" xmlns:svg="http://www.w3.org/2000/svg" id="svg2" width="24" height="24" version="1.1" viewBox="0 0 24 24"><metadata id="metadata7"/><g id="layer1" transform="translate(1,-1029.3622)"><path id="rect4150" fill="#fff" fill-opacity="1" stroke="none" stroke-dasharray="none" stroke-dashoffset="0" stroke-linecap="butt" stroke-linejoin="miter" stroke-miterlimit="4" stroke-opacity="1" stroke-width="3.567" d="m 5,3 0,9 -1,0 0,7 13,0 0,-7 -1,0 0,-9 z m 1,1 9,0 0,8 -9,0 z m 1,1 0,3 3,0 0,-3 z m 4,0 0,3 3,0 0,-3 z M 8,6 9,6 9,7 8,7 Z m 4,0 1,0 0,1 -1,0 z m -7,7 1,0 9,0 1,0 0,5 -11,0 z" opacity="1" transform="translate(0,1030.3622)"/></g></svg>