<svg xmlns="http://www.w3.org/2000/svg" xmlns:svg="http://www.w3.org/2000/svg" id="svg2" width="24" height="24" version="1.1" viewBox="0 0 24 24"><metadata id="metadata7"/><g id="layer1" transform="translate(1,-1029.3622)"><path color="#000" style="text-decoration-line:none;text-decoration-style:solid;text-decoration-color:#000;isolation:auto;mix-blend-mode:normal;solid-color:#000;solid-opacity:1" id="rect4146" fill="#fff" fill-opacity="1" fill-rule="nonzero" stroke="none" stroke-dasharray="none" stroke-dashoffset="0" stroke-linecap="butt" stroke-linejoin="miter" stroke-miterlimit="4" stroke-opacity="1" stroke-width="1" d="m 2,3 0,13 7,0 0,2 -1,0 c -0.7410731,0 -1.379047,0.404199 -1.7246094,1 l 9.4492184,0 C 15.379047,18.404199 14.741073,18 14,18 l -1,0 0,-2 7,0 0,-13 z m 1,1 16,0 0,11 -16,0 z m 7,12 2,0 0,2 -2,0 z" clip-rule="nonzero" color-interpolation="sRGB" color-interpolation-filters="linearRGB" color-rendering="auto" display="inline" enable-background="accumulate" image-rendering="auto" opacity="1" overflow="visible" shape-rendering="auto" text-decoration="none" text-rendering="auto" transform="translate(0,1030.3622)" visibility="visible"/><path id="rect4151" fill="#fff" fill-opacity="1" stroke="none" stroke-dasharray="none" stroke-dashoffset="0" stroke-linecap="butt" stroke-linejoin="miter" stroke-miterlimit="4" stroke-opacity="1" stroke-width="3.567" d="m 10.5,7 c -1.108,0 -2,0.892 -2,2 l 0,2 c 0,1.108 0.892005,2 2,2 l 0.5,0 c 1.107995,0 2,-0.892005 2,-2 C 13,9.8920048 12.107995,9 11,9 L 10.5,9 C 10.326166,9 10.16059,9.029011 10,9.070312 l 0,-0.00586 C 9.975815,9.070622 9.955519,9.084887 9.931641,9.091796 9.8137048,9.126737 9.7013748,9.1696773 9.59375,9.2246094 9.5637908,9.2394561 9.5290007,9.245262 9.5,9.2617188 L 9.5,9 c 0,-0.5540096 0.4459904,-1 1,-1 l 2.224609,0 C 12.379048,7.4042011 11.74107,7 11,7 l -0.5,0 z m 0,3 0.5,0 c 0.554,0 1,0.446 1,1 0,0.554 -0.446,1 -1,1 l -0.5,0 c -0.554,0 -1,-0.446 -1,-1 0,-0.137168 0.028572,-0.267922 0.078125,-0.386719 0.00176,-0.0042 0.00405,-0.0075 0.00586,-0.01172 0.043867,-0.101216 0.1085749,-0.189129 0.1816406,-0.269531 0.016201,-0.01705 0.029529,-0.03682 0.046875,-0.05273 6.776e-4,-6.22e-4 0.00127,-0.0013 0.00195,-0.002 C 9.9935205,10.107558 10.232615,10 10.5,10 Z" opacity="1" transform="translate(0,1030.3622)"/></g></svg>