<svg xmlns="http://www.w3.org/2000/svg" xmlns:svg="http://www.w3.org/2000/svg" id="svg2" width="24" height="24" version="1.1" viewBox="0 0 24 24"><metadata id="metadata7"/><g id="layer1" transform="translate(1,-1029.3622)"><path color="#000" style="text-decoration-line:none;text-decoration-style:solid;text-decoration-color:#000;isolation:auto;mix-blend-mode:normal;solid-color:#000;solid-opacity:1" id="rect4146" fill="#fff" fill-opacity="1" fill-rule="nonzero" stroke="none" stroke-dasharray="none" stroke-dashoffset="0" stroke-linecap="butt" stroke-linejoin="miter" stroke-miterlimit="4" stroke-opacity="1" stroke-width="1" d="m 2,3 0,13 7,0 0,2 -1,0 c -0.7410731,0 -1.379047,0.404199 -1.7246094,1 l 9.4492184,0 C 15.379047,18.404199 14.741073,18 14,18 l -1,0 0,-2 7,0 0,-13 z m 1,1 16,0 0,11 -16,0 z m 7,12 2,0 0,2 -2,0 z" clip-rule="nonzero" color-interpolation="sRGB" color-interpolation-filters="linearRGB" color-rendering="auto" display="inline" enable-background="accumulate" image-rendering="auto" opacity="1" overflow="visible" shape-rendering="auto" text-decoration="none" text-rendering="auto" transform="translate(0,1030.3622)" visibility="visible"/><path id="rect4151" fill="#fff" fill-opacity="1" stroke="none" stroke-dasharray="none" stroke-dashoffset="0" stroke-linecap="butt" stroke-linejoin="miter" stroke-miterlimit="4" stroke-opacity="1" stroke-width="3.567" d="m 8.5,7 0,1 0,1.96875 C 8.49321,9.9799533 8.4831418,9.9886564 8.4765625,10 L 11,10 c 0.554,0 1,0.446 1,1 0,0.554 -0.446,1 -1,1 L 9,12 8.4589844,12.541016 C 8.8001508,12.819489 9.2239398,13 9.7011719,13 L 11,13 c 1.107995,0 2,-0.892005 2,-2 0,-1.1079952 -0.892005,-2 -2,-2 l -1,0 -0.5,0 0,-1 3,0 0,-1 -4,0 z M 7.9765625,12 C 7.9831418,12.011344 7.99321,12.020047 8,12.03125 L 8,12 7.9765625,12 Z" opacity="1" transform="translate(0,1030.3622)"/></g></svg>