<svg xmlns="http://www.w3.org/2000/svg" xmlns:svg="http://www.w3.org/2000/svg" id="svg2" width="24" height="24" version="1.1" viewBox="0 0 24 24"><metadata id="metadata7"/><g id="layer1" transform="translate(1,-1029.3622)"><path id="path4168" fill="#fff" fill-opacity="1" stroke="none" stroke-dasharray="none" stroke-dashoffset="0" stroke-linecap="butt" stroke-linejoin="miter" stroke-miterlimit="4" stroke-opacity="1" stroke-width="3.567" d="M 15.5,3 A 9.5,9.5 0 0 0 6,12.5 9.5,9.5 0 0 0 6.0253906,13 l 0.9921875,0 A 8.5,8.5 0 0 1 7,12.5 8.5,8.5 0 0 1 15.5,4 8.5,8.5 0 0 1 16,4.0253906 L 16,3.0175781 A 9.5,9.5 0 0 0 15.5,3 Z m 0,3 A 6.5,6.5 0 0 0 9,12.5 6.5,6.5 0 0 0 9.0253906,13 l 1.0019534,0 A 5.5,5.5 0 0 1 10,12.5 5.5,5.5 0 0 1 15.5,7 5.5,5.5 0 0 1 16,7.0253906 L 16,6.0214844 A 6.5,6.5 0 0 0 15.5,6 Z m -1,4 A 1.5,1.5 0 0 0 13,11.5 1.5,1.5 0 0 0 14.5,13 1.5,1.5 0 0 0 16,11.5 1.5,1.5 0 0 0 14.5,10 Z m 0,1 A 0.5,0.5 0 0 1 15,11.5 0.5,0.5 0 0 1 14.5,12 0.5,0.5 0 0 1 14,11.5 0.5,0.5 0 0 1 14.5,11 Z m -0.5,3 0,5 1,0 0,-5 -1,0 z" opacity=".5" transform="translate(0,1030.3622)"/></g></svg>