<svg xmlns="http://www.w3.org/2000/svg" xmlns:svg="http://www.w3.org/2000/svg" id="svg2" width="24" height="24" version="1.1" viewBox="0 0 24 24"><metadata id="metadata10"/><defs id="defs8"><linearGradient id="linearGradient3257"><stop id="stop3259" offset="0" stop-color="#a50000" stop-opacity="1"/><stop id="stop3261" offset="1" stop-color="#e73800" stop-opacity="1"/></linearGradient></defs><path color="#000" style="text-decoration-line:none;text-decoration-style:solid;text-decoration-color:#000;isolation:auto;mix-blend-mode:normal;solid-color:#000;solid-opacity:1" id="rect4177" fill="#fff" fill-opacity="1" fill-rule="nonzero" stroke="none" stroke-dasharray="none" stroke-dashoffset="0" stroke-linecap="butt" stroke-linejoin="miter" stroke-miterlimit="4" stroke-opacity="1" stroke-width="1" d="M 8,4 8,4.0039062 5,7 4,8 11,8 11,7 11,4 Z m 5,0 0,4 7,0 L 16,4.0039062 16,4 14,4 Z M 8.4160156,5 10,5 10,7 6.4140625,7 Z M 14,5 15.583984,5 17.585938,7 14,7 Z m -10,4 0,1 0,3 1,0 0,-3 14,0 0,9 -7,0 0,1 8,0 0,-1 0,-9 0,-1 z" clip-rule="nonzero" color-interpolation="sRGB" color-interpolation-filters="linearRGB" color-rendering="auto" display="inline" enable-background="accumulate" image-rendering="auto" opacity="1" overflow="visible" shape-rendering="auto" text-decoration="none" text-rendering="auto" visibility="visible"/><path id="path4151" fill="#fff" fill-opacity="1" stroke="none" stroke-dasharray="none" stroke-dashoffset="0" stroke-linecap="butt" stroke-linejoin="miter" stroke-miterlimit="4" stroke-opacity="1" stroke-width="3.567" d="M 7.5,20 A 3.5,3.5 0 0 0 11,16.5 3.5,3.5 0 0 0 9.9453125,14 L 11,14 11,13 8,13 8,13.039062 8,14.050781 8,16 9,16 9,14.503906 A 2.5,2.5 0 0 1 10,16.5 2.5,2.5 0 0 1 7.5,19 2.5,2.5 0 0 1 5.4433594,17.917969 L 4.6425781,18.517578 A 3.5,3.5 0 0 0 7.5,20 Z" opacity="1"/></svg>