<svg xmlns="http://www.w3.org/2000/svg" xmlns:svg="http://www.w3.org/2000/svg" id="svg2" width="24" height="24" version="1.1" viewBox="0 0 24 24"><metadata id="metadata14"/><path id="rect4162" fill="#fff" fill-opacity="1" stroke="none" d="m 4,4 0,1 0,9 0,1 0,1 8,0 0,3 0,1 0.04687,0 0.652344,0 0.01172,0 4,-4 L 20,16 20,15 20,13.492188 20,4 5,4 4,4 Z m 1,1 14,0 0,9 0,1 -14,0 0,-1 0,-9 z m 8,11 2.292969,0 L 13,18.292969 13,16 Z" opacity="1"/><path id="rect4147" fill="#fff" fill-opacity="1" stroke="none" stroke-dasharray="none" stroke-dashoffset="0" stroke-linecap="butt" stroke-linejoin="miter" stroke-miterlimit="4" stroke-opacity="1" stroke-width="3.549" d="m 16,6 c -0.548433,0 -1.080399,0.4535385 -0.990234,1 l 0.496093,3 c 0.09016,0.546462 0.239862,1 0.494141,1 0.254279,0 0.403976,-0.453538 0.494141,-1 L 16.990234,7 C 17.080399,6.4535385 16.548433,6 16,6 Z m 0,6 a 1,1 0 0 0 -1,1 1,1 0 0 0 1,1 1,1 0 0 0 1,-1 1,1 0 0 0 -1,-1 z" opacity="1"/></svg>