<svg xmlns="http://www.w3.org/2000/svg" xmlns:svg="http://www.w3.org/2000/svg" id="svg2" width="24" height="24" version="1.1" viewBox="0 0 24 24"><metadata id="metadata10"/><path id="path4171" fill="#fff" fill-opacity="1" stroke="none" stroke-linecap="butt" stroke-linejoin="miter" stroke-opacity="1" stroke-width="1" d="m 12,4 c -4.432,0 -8,3.568 -8,8 0,4.432 3.568,8 8,8 4.432,0 8,-3.568 8,-8 0,-4.432 -3.568,-8 -8,-8 z m 0,1 c 3.878,0 7,3.122 7,7 0,3.878 -3.122,7 -7,7 C 8.122,19 5,15.878 5,12 5,8.122 8.122,5 12,5 Z m -1.523437,1.6660156 c -0.6095244,0 -1.142467,0.228404 -1.5996099,0.6855469 -0.4571429,0.4571429 -0.6855469,0.9920386 -0.6855469,1.6015625 0,0.2031745 0.076135,0.3808221 0.2285157,0.5332031 0.1523809,0.152381 0.3300285,0.2285157 0.5332031,0.2285157 0.2031746,-1e-7 0.3808221,-0.076135 0.5332031,-0.2285157 0.152381,-0.152381 0.2285157,-0.3300286 0.2285157,-0.5332031 0,-0.2031746 0.076135,-0.3808221 0.2285156,-0.5332031 C 10.09574,8.2675409 10.273388,8.1914062 10.476563,8.1914062 l 3.046875,0 c 0.203174,0 0.380821,0.076135 0.533203,0.2285157 0.15238,0.152381 0.228515,0.3300285 0.228515,0.5332031 l 0,1.1875 -2.818359,2.849609 c -0.152381,0.152381 -0.228516,0.330029 -0.228516,0.533204 0,0.203174 0.07613,0.380822 0.228516,0.533203 0.152381,0.152381 0.330028,0.228515 0.533203,0.228515 0.203175,0 0.380822,-0.07613 0.533203,-0.228515 l 3.046875,-3.046875 c 0.152381,-0.152381 0.228516,-0.330029 0.228516,-0.533203 l 0,-1.523438 c 0,-0.6095239 -0.228404,-1.1444196 -0.685547,-1.6015625 C 14.665904,6.8944196 14.132962,6.6660156 13.523438,6.6660156 l -3.046875,0 z M 12,15.808594 c -0.203175,0 -0.380822,0.07809 -0.533203,0.230468 -0.152381,0.152382 -0.228516,0.330029 -0.228516,0.533204 0,0.203174 0.07613,0.380822 0.228516,0.533203 0.152381,0.152381 0.330028,0.228515 0.533203,0.228515 0.203175,0 0.380822,-0.07613 0.533203,-0.228515 0.152381,-0.152381 0.228516,-0.330029 0.228516,-0.533203 0,-0.203175 -0.07613,-0.380822 -0.228516,-0.533204 C 12.380822,15.886682 12.203175,15.808594 12,15.808594 Z" font-family="White Rabbit" font-size="medium" font-stretch="normal" font-style="normal" font-variant="normal" font-weight="normal" letter-spacing="0" word-spacing="0" style="line-height:125%;-inkscape-font-specification:'White Rabbit'"/></svg>