<svg xmlns="http://www.w3.org/2000/svg" xmlns:svg="http://www.w3.org/2000/svg" id="svg2" width="24" height="24" enable-background="new" version="1.1" viewBox="0 0 24 24"><metadata id="metadata10"/><path id="path4179" fill="#fff" fill-opacity="1" stroke="none" stroke-dasharray="none" stroke-dashoffset="0" stroke-linecap="butt" stroke-linejoin="miter" stroke-miterlimit="4" stroke-opacity="1" stroke-width="3.567" d="m 12,4 a 8,8 0 0 0 -8,8 8,8 0 0 0 8,8 8,8 0 0 0 6.916016,-4.001953 8,8 0 0 0 0.0059,0 8,8 0 0 0 0.05273,-0.101563 8,8 0 0 0 0.273438,-0.533203 8,8 0 0 0 0.115234,-0.255859 8,8 0 0 0 0.05859,-0.128906 A 7,7 0 0 1 19,15 a 7,7 0 0 1 -0.666016,-0.03906 7,7 0 0 1 -0.002,0.0059 A 7,7 0 0 1 12,8 7,7 0 0 1 12.708984,4.9570312 7,7 0 0 1 12.978516,4.4492188 7,7 0 0 1 13.066406,4.3046875 7,7 0 0 1 13.197266,4.0976562 8,8 0 0 0 12,4 Z M 11.595703,5.0136719 A 8,8 0 0 0 11,8 8,8 0 0 0 17.792969,15.900391 7,7 0 0 1 12,19 7,7 0 0 1 5,12 7,7 0 0 1 11.595703,5.0136719 Z" opacity="1"/></svg>