<svg xmlns="http://www.w3.org/2000/svg" xmlns:svg="http://www.w3.org/2000/svg" id="svg2" width="24" height="24" enable-background="new" version="1.1" viewBox="0 0 24 24"><metadata id="metadata10"/><path id="path4179" fill="#fff" fill-opacity="1" stroke="none" stroke-dasharray="none" stroke-dashoffset="0" stroke-linecap="butt" stroke-linejoin="miter" stroke-miterlimit="4" stroke-opacity="1" stroke-width="3.567" d="m 12,4 c -4.418278,0 -8,3.581722 -8,8 0.00378,0.675205 0.093036,1.347214 0.265625,2 H 5.2988281 C 5.1029409,13.351311 5.0022814,12.677616 5,12 5.0010525,8.2918204 7.8937134,5.227844 11.595703,5.0136719 11.207764,5.9617926 11.005533,6.9755983 11,8 c 0.004,3.94914 2.889035,7.304551 6.792969,7.900391 C 16.496904,17.831904 14.326044,18.993453 12,19 v 1 c 2.854172,-0.0048 5.489629,-1.529759 6.916016,-4.001953 h 0.0059 c 0.01782,-0.03373 0.0354,-0.06758 0.05273,-0.101563 0.09777,-0.174257 0.188983,-0.352116 0.273438,-0.533203 0.0399,-0.08461 0.07832,-0.169906 0.115234,-0.255859 0.01991,-0.04279 0.03944,-0.08577 0.05859,-0.128906 C 19.281498,14.98992 19.140809,14.997084 19,15 18.7775,14.9976 18.555242,14.98454 18.333984,14.96094 l -0.002,0.0059 C 14.741723,14.622624 12.000649,11.606766 12,8 c 0.004,-1.0547844 0.24641,-2.0950173 0.708984,-3.0429688 0.08285,-0.1728904 0.172772,-0.342304 0.269532,-0.5078124 0.02871,-0.048529 0.05801,-0.09671 0.08789,-0.1445313 0.04241,-0.069768 0.08604,-0.1387893 0.13086,-0.2070313 C 12.801189,4.0351452 12.400972,4.0025011 12,4 Z m 4.5,0 C 15.863366,4.000648 15.29649,4.4030982 15.085938,5.0039062 15.057322,5.0019883 15.028671,5.000686 15,5 c -1.104569,0 -2,0.895431 -2,2 0,1.104569 0.895431,2 2,2 h 5 C 20.552285,9 21,8.552285 21,8 21,7.447715 20.552285,7 20,7 H 19.91211 C 19.969601,6.839538 19.999324,6.67045 20,6.5 20,5.671573 19.328427,5 18.5,5 18.310752,4.999974 18.123207,5.0357587 17.947266,5.1054688 17.769329,4.4527767 17.176512,3.999964 16.5,4 Z M 6.5,15 C 5.8633658,15.000648 5.2964909,15.403098 5.0859375,16.003906 5.057323,16.001988 5.0286705,16.000686 5,16 c -1.1045695,0 -2,0.895431 -2,2 0,1.104569 0.8954305,2 2,2 h 5 c 0.552285,0 1,-0.447715 1,-1 0,-0.552285 -0.447715,-1 -1,-1 H 9.9121094 C 9.969602,17.839538 9.9993244,17.67045 10,17.5 10,16.671573 9.3284271,16 8.5,16 8.3107516,15.999974 8.1232074,16.035759 7.9472656,16.105469 7.7693289,15.452777 7.1765123,14.999964 6.5,15 Z" opacity="1"/></svg>