<svg xmlns="http://www.w3.org/2000/svg" xmlns:svg="http://www.w3.org/2000/svg" id="svg4359" width="24" height="24" version="1.1"><metadata id="metadata4364"/><g id="layer1" transform="translate(1,-25)"><path id="rect4120" fill="#fff" fill-opacity="1" stroke="none" d="m 11.59375,3 -5,5 L 4,8 3,8 l 0,1 0,4 0,1 1,0 2.59375,0 5,5 0.0059,-0.0059 0,0.0059 2.40035,0 0,-1 0,-15 -2.400391,0 0,0.00586 L 11.59375,3 Z M 12.007812,4 13,4 13,18 12.007812,18 7.0078125,13 7,13.007812 7,13 7,8.9921875 7.0078125,9 12.007812,4 Z M 4,9 5,9 5,13 4,13 4,9 Z" opacity="1" transform="translate(0,26)"/><rect id="rect4239" width="4" height="2" x="15" y="36" fill="#f92d36" fill-opacity="1" stroke="none" opacity="1" ry="0"/></g></svg>