<svg xmlns="http://www.w3.org/2000/svg" xmlns:svg="http://www.w3.org/2000/svg" id="svg4359" width="22" height="22" version="1.1"><metadata id="metadata4364"/><g id="layer1" transform="translate(0,-26)"><path id="rect4120" fill="#424854" fill-opacity="1" stroke="none" d="M 11.59375 3 L 6.59375 8 L 4 8 L 3 8 L 3 9 L 3 13 L 3 14 L 4 14 L 6.59375 14 L 11.59375 19 L 11.599609 18.994141 L 11.599609 19 L 14 19 L 14 18 L 14 3 L 11.599609 3 L 11.599609 3.0058594 L 11.59375 3 z M 12.007812 4 L 13 4 L 13 18 L 12.007812 18 L 7.0078125 13 L 7 13.007812 L 7 13 L 7 8.9921875 L 7.0078125 9 L 12.007812 4 z M 4 9 L 5 9 L 5 13 L 4 13 L 4 9 z" opacity="1" transform="translate(0,26)"/><rect id="rect4239" width="4" height="2" x="15" y="36" fill="#f92d36" fill-opacity="1" stroke="none" opacity="1" ry="0"/></g></svg>