<svg xmlns="http://www.w3.org/2000/svg" xmlns:svg="http://www.w3.org/2000/svg" id="svg2" width="22" height="22" version="1.1" viewBox="0 0 22 22"><metadata id="metadata14"/><g id="g4181"><path id="rect4236" fill="#424854" fill-opacity="1" stroke="none" stroke-dasharray="none" stroke-miterlimit="4" stroke-opacity="1" stroke-width=".1" d="m 3,6.999996 0,8.000008 1,0 13,0 0,-0.999999 0,-1 1,0 1,0 0,-4.000009 -1,0 -1,0 0,-1 0,-1 -1,0 -12,0 z m 1,1 12,0 0,6.000009 -12,0 z m 13,2 1,0 0,2.000009 -1,0 z" opacity="1"/><path color="#000" style="text-decoration-line:none;text-decoration-style:solid;text-decoration-color:#000;isolation:auto;mix-blend-mode:normal;solid-color:#000;solid-opacity:1" id="rect4164" fill="#424854" fill-opacity="1" fill-rule="nonzero" stroke="none" stroke-dasharray="none" stroke-dashoffset="0" stroke-linecap="butt" stroke-linejoin="miter" stroke-miterlimit="4" stroke-opacity="1" stroke-width="1" d="m 5,9 0,4 5,0 0,-1.333984 -2,0 L 9.4550781,9 Z m 5,0 0,1.333984 2,0 L 10.544922,13 8,13 8,9 Z" clip-rule="nonzero" color-interpolation="sRGB" color-interpolation-filters="linearRGB" color-rendering="auto" display="inline" enable-background="accumulate" image-rendering="auto" opacity="1" overflow="visible" shape-rendering="auto" text-decoration="none" text-rendering="auto" visibility="visible"/><path id="path4397" fill="#424854" fill-opacity="1" fill-rule="evenodd" stroke="none" stroke-linecap="butt" stroke-linejoin="miter" stroke-opacity="1" stroke-width="1" d="M 10,8 9.4550781,9 10,9 10,8 Z m 0,5 0,1 0.544922,-1 L 10,13 Z"/></g></svg>