<svg xmlns="http://www.w3.org/2000/svg" xmlns:svg="http://www.w3.org/2000/svg" id="svg2" width="22" height="22" version="1.1" viewBox="0 0 6.209 6.209"><metadata id="metadata12"/><path id="path4188" fill="#424854" fill-opacity="1" fill-rule="evenodd" stroke="none" stroke-linecap="butt" stroke-linejoin="miter" stroke-opacity="1" stroke-width="1" d="M 19 3 L 14 8.296875 L 16 10 L 19 3 z M 6 7 L 3 10 L 3 11 L 6 10 L 8 18 L 10 16.59375 L 18.972656 19 L 16 12 L 15 11 L 10 15 L 7 7.7597656 L 6 7 z M 11 9 L 9 10 L 11 13 L 14.308594 10 L 11 9 z" opacity=".5" transform="scale(0.28222223)"/><path id="path4154" fill="#424854" fill-opacity="1" fill-rule="evenodd" stroke="none" stroke-linecap="butt" stroke-linejoin="miter" stroke-opacity="1" stroke-width=".282" d="M 5.0800001,1.1454254 3.9511112,2.3415626 4.5155557,2.8222223 5.0800001,1.505369 l 0,-0.3599436 z m -3.3866667,0.8301303 -0.84666671,0.8466666 0,0.2822223 0.84666671,-0.2822223 0.5644444,2.2577779 0.5644445,-0.396875 2.2577778,0.6052343 0,-0.5727127 L 4.5155557,3.3866668 4.2333334,3.1044446 2.8222223,4.2333335 1.9755556,2.1899784 1.6933334,1.9755557 Z M 3.1044445,2.5400001 2.5400001,2.8222223 3.1044445,3.668889 4.0382033,2.8222223 3.1044445,2.5400001 Z" opacity="1"/></svg>