<svg xmlns="http://www.w3.org/2000/svg" xmlns:svg="http://www.w3.org/2000/svg" id="svg2" width="22" height="22" version="1.1" viewBox="0 0 22 22"><metadata id="metadata12"/><path id="path4147" fill="#424854" fill-opacity="1" stroke="none" stroke-dasharray="none" stroke-dashoffset="0" stroke-linecap="butt" stroke-linejoin="miter" stroke-miterlimit="4" stroke-opacity="1" stroke-width="3.842" d="M 11 3 A 6.9999981 6.9999981 0 0 0 4 10 A 6.9999981 6.9999981 0 0 0 11 17 A 6.9999981 6.9999981 0 0 0 12.140625 16.904297 A 3 3 0 0 0 15 19 A 3 3 0 0 0 15.009766 19 A 3 3 0 0 1 14 16.757812 A 3 3 0 0 1 14.041016 16.298828 A 6.9999981 6.9999981 0 0 0 18 10 A 6.9999981 6.9999981 0 0 0 11 3 z M 11 4 A 6 6 0 0 1 17 10 A 6 6 0 0 1 11 16 A 6 6 0 0 1 5 10 A 6 6 0 0 1 11 4 z M 11 5 L 11 6 A 4 4 0 0 1 14.326172 7.7832031 L 15.158203 7.2285156 A 5 5 0 0 0 11 5 z" opacity="1"/></svg>