<svg xmlns="http://www.w3.org/2000/svg" xmlns:svg="http://www.w3.org/2000/svg" id="svg2" width="22" height="22" version="1.1" viewBox="0 0 22 22"><metadata id="metadata7"/><g id="layer1" transform="translate(0,-1030.3622)"><path id="path4168" fill="#424854" fill-opacity="1" stroke="none" stroke-dasharray="none" stroke-dashoffset="0" stroke-linecap="butt" stroke-linejoin="miter" stroke-miterlimit="4" stroke-opacity="1" stroke-width="3.567" d="M 15.5 3 A 9.5 9.5 0 0 0 6 12.5 A 9.5 9.5 0 0 0 6.0253906 13 L 7.0175781 13 A 8.5 8.5 0 0 1 7 12.5 A 8.5 8.5 0 0 1 15.5 4 A 8.5 8.5 0 0 1 16 4.0253906 L 16 3.0175781 A 9.5 9.5 0 0 0 15.5 3 z M 15.5 6 A 6.5 6.5 0 0 0 9 12.5 A 6.5 6.5 0 0 0 9.0253906 13 L 10.027344 13 A 5.5 5.5 0 0 1 10 12.5 A 5.5 5.5 0 0 1 15.5 7 A 5.5 5.5 0 0 1 16 7.0253906 L 16 6.0214844 A 6.5 6.5 0 0 0 15.5 6 z M 14.5 10 A 1.5 1.5 0 0 0 13 11.5 A 1.5 1.5 0 0 0 14.5 13 A 1.5 1.5 0 0 0 16 11.5 A 1.5 1.5 0 0 0 14.5 10 z M 14.5 11 A 0.5 0.5 0 0 1 15 11.5 A 0.5 0.5 0 0 1 14.5 12 A 0.5 0.5 0 0 1 14 11.5 A 0.5 0.5 0 0 1 14.5 11 z M 14 14 L 14 19 L 15 19 L 15 14 L 14 14 z" opacity="1" transform="translate(0,1030.3622)"/><path id="rect4150" fill="#424854" fill-opacity="1" stroke="none" stroke-dasharray="none" stroke-dashoffset="0" stroke-linecap="butt" stroke-linejoin="miter" stroke-miterlimit="4" stroke-opacity="1" stroke-width="3.567" d="M 3 15 L 3 19 L 4 19 L 4 15 L 3 15 z M 5 15 L 5 19 L 6 19 L 6 15 L 5 15 z" opacity="1" transform="translate(0,1030.3622)"/></g></svg>