<svg xmlns="http://www.w3.org/2000/svg" xmlns:svg="http://www.w3.org/2000/svg" id="svg2" width="22" height="22" version="1.1" viewBox="0 0 22 22"><metadata id="metadata28"/><path id="path4159" fill="#424854" fill-opacity="1" stroke="none" stroke-dasharray="none" stroke-dashoffset="0" stroke-linecap="butt" stroke-linejoin="miter" stroke-miterlimit="4" stroke-opacity="1" stroke-width="3.567" d="M 10 6 A 3 3 0 0 0 7.484375 7.3691406 A 1.5 1.5 0 0 0 6.5 7 A 1.5 1.5 0 0 0 5 8.5 A 1.5 1.5 0 0 0 5.3691406 9.4824219 A 3 3 0 0 0 4.1660156 11.025391 A 2.5 2.5 0 0 0 2 13.5 A 2.5 2.5 0 0 0 4.5 16 A 2.5 2.5 0 0 0 6.2324219 15.300781 A 1.5 1.5 0 0 0 7.5 16 A 1.5 1.5 0 0 0 8.8691406 15.109375 A 3 3 0 0 0 11 16 A 3 3 0 0 0 13 15.232422 A 3 3 0 0 0 15 16 A 3 3 0 0 0 17.130859 15.107422 A 1.5 1.5 0 0 0 18.5 16 A 1.5 1.5 0 0 0 20 14.5 A 1.5 1.5 0 0 0 18.5 13 A 1.5 1.5 0 0 0 17.996094 13.089844 A 3 3 0 0 0 18 13 A 3 3 0 0 0 15.869141 10.130859 A 3 3 0 0 0 13 8 A 3 3 0 0 0 12.828125 8.0058594 A 3 3 0 0 0 10 6 z" opacity="1"/></svg>