<svg xmlns="http://www.w3.org/2000/svg" xmlns:svg="http://www.w3.org/2000/svg" id="svg2" width="22" height="22" version="1.1" viewBox="0 0 22 22"><metadata id="metadata10"/><defs id="defs8"><linearGradient id="linearGradient3257"><stop id="stop3259" offset="0" stop-color="#a50000" stop-opacity="1"/><stop id="stop3261" offset="1" stop-color="#e73800" stop-opacity="1"/></linearGradient></defs><path color="#000" style="text-decoration-line:none;text-decoration-style:solid;text-decoration-color:#000;isolation:auto;mix-blend-mode:normal;solid-color:#000;solid-opacity:1" id="rect4177" fill="#424854" fill-opacity="1" fill-rule="nonzero" stroke="none" stroke-dasharray="none" stroke-dashoffset="0" stroke-linecap="butt" stroke-linejoin="miter" stroke-miterlimit="4" stroke-opacity="1" stroke-width="1" d="M 7,3 7,3.0039062 4,6 3,7 10,7 10,6 10,3 Z m 5,0 0,4 7,0 L 15,3.0039062 15,3 13,3 Z M 7.4160156,4 9,4 9,6 5.4140625,6 Z M 13,4 14.583984,4 16.585938,6 13,6 Z m -10,4 0,1 0,3 1,0 0,-3 14,0 0,9 -7,0 0,1 8,0 0,-1 0,-9 0,-1 z" clip-rule="nonzero" color-interpolation="sRGB" color-interpolation-filters="linearRGB" color-rendering="auto" display="inline" enable-background="accumulate" image-rendering="auto" opacity="1" overflow="visible" shape-rendering="auto" text-decoration="none" text-rendering="auto" visibility="visible"/><path id="rect4113" fill="#2ecc71" fill-opacity="1" stroke="none" d="M 9.6875 13.6875 L 5.8535156 17.566406 L 4.1542969 15.845703 L 3.4433594 16.556641 L 5.1464844 18.28125 L 5.1445312 18.285156 L 5.8515625 19 L 5.8535156 18.998047 L 5.8554688 19 L 6.5625 18.285156 L 6.5605469 18.28125 L 10.398438 14.398438 L 9.6875 13.6875 z" opacity="1"/></svg>