<svg xmlns="http://www.w3.org/2000/svg" xmlns:svg="http://www.w3.org/2000/svg" id="svg2" width="22" height="22" version="1.1" viewBox="0 0 22 22"><metadata id="metadata10"/><defs id="defs8"><linearGradient id="linearGradient3257"><stop id="stop3259" offset="0" stop-color="#a50000" stop-opacity="1"/><stop id="stop3261" offset="1" stop-color="#e73800" stop-opacity="1"/></linearGradient></defs><path color="#000" style="text-decoration-line:none;text-decoration-style:solid;text-decoration-color:#000;isolation:auto;mix-blend-mode:normal;solid-color:#000;solid-opacity:1" id="rect4177" fill="#424854" fill-opacity="1" fill-rule="nonzero" stroke="none" stroke-dasharray="none" stroke-dashoffset="0" stroke-linecap="butt" stroke-linejoin="miter" stroke-miterlimit="4" stroke-opacity="1" stroke-width="1" d="M 7,3 7,3.0039062 4,6 3,7 10,7 10,6 10,3 Z m 5,0 0,4 7,0 L 15,3.0039062 15,3 13,3 Z M 7.4160156,4 9,4 9,6 5.4140625,6 Z M 13,4 14.583984,4 16.585938,6 13,6 Z m -10,4 0,1 0,3 1,0 0,-3 14,0 0,9 -7,0 0,1 8,0 0,-1 0,-9 0,-1 z" clip-rule="nonzero" color-interpolation="sRGB" color-interpolation-filters="linearRGB" color-rendering="auto" display="inline" enable-background="accumulate" image-rendering="auto" opacity="1" overflow="visible" shape-rendering="auto" text-decoration="none" text-rendering="auto" visibility="visible"/><path id="path4151" fill="#424854" fill-opacity="1" stroke="none" stroke-dasharray="none" stroke-dashoffset="0" stroke-linecap="butt" stroke-linejoin="miter" stroke-miterlimit="4" stroke-opacity="1" stroke-width="3.567" d="M 7.5 12 A 2.5 2.5 0 0 0 5 14.5 A 2.5 2.5 0 0 0 5.4160156 15.876953 L 3 18.292969 L 3.7070312 19 L 6.1230469 16.583984 A 2.5 2.5 0 0 0 7.5 17 A 2.5 2.5 0 0 0 10 14.5 A 2.5 2.5 0 0 0 7.5 12 z M 7.5 13 A 1.5 1.5 0 0 1 9 14.5 A 1.5 1.5 0 0 1 7.5 16 A 1.5 1.5 0 0 1 6 14.5 A 1.5 1.5 0 0 1 7.5 13 z" opacity="1"/></svg>