<svg xmlns="http://www.w3.org/2000/svg" xmlns:svg="http://www.w3.org/2000/svg" id="svg2" width="22" height="22" version="1.1" viewBox="0 0 22 22"><metadata id="metadata10"/><path id="path4151" fill="#f92d36" fill-opacity="1" stroke="none" stroke-dasharray="none" stroke-dashoffset="0" stroke-linecap="butt" stroke-linejoin="miter" stroke-miterlimit="4" stroke-opacity="1" stroke-width="3.567" d="M 10 3 C 9.446 3 9 3.446 9 4 L 9 13.767578 A 3 3 0 0 0 8 16 A 3 3 0 0 0 11 19 A 3 3 0 0 0 14 16 A 3 3 0 0 0 13 13.769531 L 13 13 L 13 12 L 12 12 L 12 11 L 12 10 L 13 10 L 13 9 L 12 9 L 12 8 L 12 7 L 13 7 L 13 6 L 12 6 L 12 5 L 11 5 L 11 6 L 11 7 L 11 8 L 11 9 L 11 10 L 11 11 L 11 12 L 11 13 A 3 3 0 0 0 10 13.175781 L 10 4 L 12 4 L 12 5 L 13 5 L 13 4 C 13 3.446 12.554 3 12 3 L 10 3 z M 10.951172 14 A 2 2 0 0 1 11 14 A 2 2 0 0 1 12 14.269531 L 12 14.271484 C 12.326586 14.459789 12.590641 14.734169 12.765625 15.0625 A 2 2 0 0 1 12.765625 15.064453 C 12.819911 15.166533 12.864205 15.275441 12.900391 15.386719 A 2 2 0 0 1 13 16 A 2 2 0 0 1 11 18 A 2 2 0 0 1 9 16 A 2 2 0 0 1 9.1582031 15.220703 A 2 2 0 0 1 10 14.271484 A 2 2 0 0 1 10.951172 14 z M 11 15 A 1 1 0 0 0 10 16 L 11 16 L 11 15 z" opacity="1"/></svg>