<svg xmlns="http://www.w3.org/2000/svg" xmlns:svg="http://www.w3.org/2000/svg" id="svg2" width="22" height="22" version="1.1" viewBox="0 0 22 22"><metadata id="metadata7"/><g id="layer1" transform="translate(0,-1030.3622)"><path id="rect4158" fill="#424854" fill-opacity="1" stroke="none" stroke-dasharray="none" stroke-dashoffset="0" stroke-linecap="butt" stroke-linejoin="miter" stroke-miterlimit="4" stroke-opacity="1" stroke-width="3.567" d="M 11,3 C 8.2385763,3 6,5.2385763 6,8 c 0.00409,1.9843675 1.1812914,3.778522 3,4.572266 L 9,13 c 0,1.108 0.8920048,2 2,2 1.107995,0 2,-0.892 2,-2 l 0,-0.421875 C 14.820654,11.783527 15.998231,9.9864951 16,8 16,5.2385763 13.761424,3 11,3 Z m 0,1 c 2.209139,0 4,1.790861 4,4 -0.0024,1.6401218 -1.005693,3.112613 -2.53125,3.714844 -0.153314,0.06005 -0.309187,0.11358 -0.46875,0.154297 L 12,12.898438 12,13 c 0,0.554 -0.446,1 -1,1 -0.554,0 -1,-0.446 -1,-1 l 0,-0.105469 0,-1.027343 C 9.8559333,11.830738 9.7152546,11.78269 9.5761719,11.730469 8.0276411,11.140629 7.0031248,9.6570605 7,8 7,5.790861 8.790861,4 11,4 Z M 10.113281,5.1347656 C 9.1668525,5.428271 8.4264036,6.1701819 8.1347656,7.1171875 8.3022156,7.4879133 8.6168278,7.7743849 9.0039062,7.9101562 9.0512715,6.8776189 9.8776187,6.0512716 10.910156,6.0039062 10.774372,5.615728 10.487097,5.3022121 10.115234,5.1347656 c -6.51e-4,-2e-7 -0.0013,-2e-7 -0.002,0 z M 9,15.8 9,18 c 0,0.553995 0.4460048,1 1,1 l 2,0 c 0.553995,0 1,-0.446005 1,-1 l 0,-2.2 z" opacity=".5" transform="translate(0,1030.3622)"/></g></svg>