<svg xmlns="http://www.w3.org/2000/svg" xmlns:svg="http://www.w3.org/2000/svg" id="svg2" width="22" height="22" version="1.1" viewBox="0 0 22 22"><defs id="defs4"><clipPath id="clipPath6"><rect id="rect8" width="477.143" height="208.571" x="-830" y="1580.934" fill="#ff0"/></clipPath><clipPath id="clipPath10"><rect id="rect12" width="477.143" height="208.571" x="-830" y="1580.934" fill="#ff0"/></clipPath><clipPath id="clipPath14"><rect id="rect16" width="477.143" height="208.571" x="-830" y="1580.934" fill="#ff0"/></clipPath><clipPath id="clipPath18"><rect id="rect20" width="477.143" height="208.571" x="-830" y="1580.934" fill="#ff0"/></clipPath><clipPath id="clipPath22"><rect id="rect24" width="477.143" height="208.571" x="-830" y="1580.934" fill="#ff0"/></clipPath><clipPath id="clipPath26"><rect id="rect28" width="477.143" height="208.571" x="-830" y="1580.934" fill="#ff0"/></clipPath></defs><metadata id="metadata7"/><g id="layer1" transform="translate(0,-1030.3622)"><path id="path4209" fill="#424854" fill-opacity="1" stroke="none" stroke-dasharray="none" stroke-dashoffset="0" stroke-linecap="butt" stroke-linejoin="miter" stroke-miterlimit="4" stroke-opacity="1" stroke-width="3.567" d="M 10.5 3 L 10.5 5 L 11.5 5 L 11.5 3 L 10.5 3 z M 5.6972656 4.9902344 L 4.9902344 5.6972656 L 6.4042969 7.1113281 L 7.1113281 6.4042969 L 5.6972656 4.9902344 z M 16.302734 4.9902344 L 14.888672 6.4042969 L 15.595703 7.1113281 L 17.009766 5.6972656 L 16.302734 4.9902344 z M 11 6 A 5 5 0 0 0 6 11 A 5 5 0 0 0 11 16 A 5 5 0 0 0 16 11 A 5 5 0 0 0 11 6 z M 11 7 A 4 4 0 0 1 15 11 A 4 4 0 0 1 11 15 A 4 4 0 0 1 7 11 A 4 4 0 0 1 11 7 z M 11 8 A 3 3 0 0 0 8 11 L 9 11 A 2 2 0 0 1 11 9 L 11 8 z M 3 10.5 L 3 11.5 L 5 11.5 L 5 10.5 L 3 10.5 z M 17 10.5 L 17 11.5 L 19 11.5 L 19 10.5 L 17 10.5 z M 6.4042969 14.888672 L 4.9902344 16.302734 L 5.6972656 17.009766 L 7.1113281 15.595703 L 6.4042969 14.888672 z M 15.595703 14.888672 L 14.888672 15.595703 L 16.302734 17.009766 L 17.009766 16.302734 L 15.595703 14.888672 z M 10.5 17 L 10.5 19 L 11.5 19 L 11.5 17 L 10.5 17 z" opacity="1" transform="translate(0,1030.3622)"/></g></svg>