<svg xmlns="http://www.w3.org/2000/svg" xmlns:svg="http://www.w3.org/2000/svg" id="svg2" version="1.1" viewBox="0 0 16 16"><metadata id="metadata16"/><path color="#000" style="text-decoration-line:none;text-decoration-style:solid;text-decoration-color:#000;isolation:auto;mix-blend-mode:normal;solid-color:#000;solid-opacity:1" id="rect4167" fill="#bebebe" fill-opacity="1" fill-rule="nonzero" stroke="none" stroke-dasharray="none" stroke-dashoffset="0" stroke-linecap="butt" stroke-linejoin="miter" stroke-miterlimit="4" stroke-opacity="1" stroke-width="1" d="M 3 6 C 1.892 6 1 6.892 1 8 C 1 9.108 1.892 10 3 10 C 4.108 10 5 9.108 5 8 C 5 6.892 4.108 6 3 6 z M 8 6 C 6.892 6 6 6.892 6 8 C 6 9.108 6.892 10 8 10 C 9.108 10 10 9.108 10 8 C 10 6.892 9.108 6 8 6 z M 13 6 C 11.892 6 11 6.892 11 8 C 11 9.108 11.892 10 13 10 C 14.108 10 15 9.108 15 8 C 15 6.892 14.108 6 13 6 z M 3 7 C 3.554 7 4 7.446 4 8 C 4 8.554 3.554 9 3 9 C 2.446 9 2 8.554 2 8 C 2 7.446 2.446 7 3 7 z M 8 7 C 8.554 7 9 7.446 9 8 C 9 8.554 8.554 9 8 9 C 7.446 9 7 8.554 7 8 C 7 7.446 7.446 7 8 7 z M 13 7 C 13.554 7 14 7.446 14 8 C 14 8.554 13.554 9 13 9 C 12.446 9 12 8.554 12 8 C 12 7.446 12.446 7 13 7 z" clip-rule="nonzero" color-interpolation="sRGB" color-interpolation-filters="linearRGB" color-rendering="auto" display="inline" enable-background="accumulate" image-rendering="auto" opacity="1" overflow="visible" shape-rendering="auto" text-decoration="none" text-rendering="auto" visibility="visible"/></svg>