<svg xmlns="http://www.w3.org/2000/svg" xmlns:svg="http://www.w3.org/2000/svg" id="svg4062" width="24" height="24" version="1.1"><defs id="defs4064"><linearGradient id="linearGradient3257"><stop id="stop3259" offset="0" stop-color="#a50000" stop-opacity="1"/><stop id="stop3261" offset="1" stop-color="#e73800" stop-opacity="1"/></linearGradient></defs><metadata id="metadata4067"/><g id="layer1" transform="translate(1,-1029.3622)"><path color="#000" style="text-decoration-line:none;text-decoration-style:solid;text-decoration-color:#000;isolation:auto;mix-blend-mode:normal;solid-color:#000;solid-opacity:1" id="rect4160" fill="#424854" fill-opacity="1" fill-rule="nonzero" stroke="none" stroke-dasharray="none" stroke-dashoffset="0" stroke-linecap="butt" stroke-linejoin="miter" stroke-miterlimit="4" stroke-opacity="1" stroke-width="1" d="M 11,3 C 6.5680095,3 3,6.5680095 3,11 l 1,0 c 0,-3.8779913 3.1220085,-7 7,-7 3.877992,0 7,3.1220087 7,7 0,3.877991 -3.122008,7 -7,7 l 0,1 c 4.43199,0 8,-3.56801 8,-8 0,-4.4319905 -3.56801,-8 -8,-8 z m 0,6 C 9.892,9 9,9.892 9,11 l 1,0 c 0,-0.554005 0.445995,-1 1,-1 0.554005,0 1,0.445995 1,1 0,0.554005 -0.445995,1 -1,1 l 0,1 c 1.108,0 2,-0.892 2,-2 C 13,9.892 12.108,9 11,9 Z M 6.5,12 C 4.561,12 3,13.561 3,15.5 3,17.439 4.561,19 6.5,19 8.439,19 10,17.439 10,15.5 10,13.561 8.439,12 6.5,12 Z m 0,1 C 7.885,13 9,14.115 9,15.5 9,16.885 7.885,18 6.5,18 5.115,18 4,16.885 4,15.5 4,14.115 5.115,13 6.5,13 Z m 0,2 C 6.223,15 6,15.223 6,15.5 6,15.777 6.223,16 6.5,16 6.777,16 7,15.777 7,15.5 7,15.223 6.777,15 6.5,15 Z" clip-rule="nonzero" color-interpolation="sRGB" color-interpolation-filters="linearRGB" color-rendering="auto" display="inline" enable-background="accumulate" image-rendering="auto" opacity="1" overflow="visible" shape-rendering="auto" text-decoration="none" text-rendering="auto" transform="translate(0,1030.3622)" visibility="visible"/></g></svg>