<svg xmlns="http://www.w3.org/2000/svg" xmlns:svg="http://www.w3.org/2000/svg" id="svg3815" width="24" height="24" version="1.1"><metadata id="metadata3820"/><g id="layer1" transform="translate(-460.71429,-524.79077)"><path id="rect4108" fill="#424854" fill-opacity="1" stroke="none" d="M 3,3 3,4 3,7 4,7 4,4 7,4 7,3 4,3 3,3 Z m 12,0 0,1 3,0 0,3 1,0 0,-4 -4,0 z m -10,2 0,5 5,0 0,-5 -5,0 z m 7,0 0,5 5,0 0,-5 -5,0 z M 6,6 9,6 9,9 6,9 6,6 Z m 7,0 3,0 0,3 -3,0 0,-3 z m -8,6 0,5 5,0 0,-5 -5,0 z m 7,0 0,5 5,0 0,-5 -5,0 z m -6,1 3,0 0,3 -3,0 0,-3 z m 7,0 3,0 0,3 -3,0 0,-3 z m -10,2 0,4 1,0 3,0 0,-1 -3,0 0,-3 -1,0 z m 15,0 0,3 -3,0 0,1 4,0 0,-1 0,-3 -1,0 z" opacity="1" transform="translate(461.71429,525.79075)"/></g></svg>