<svg xmlns="http://www.w3.org/2000/svg" xmlns:svg="http://www.w3.org/2000/svg" id="svg2" width="24" height="24" version="1.1" viewBox="0 0 24 24"><metadata id="metadata7"/><g id="layer1" transform="translate(1,-1029.3622)"><path id="rect4110" fill="#424854" fill-opacity="1" stroke="none" d="M 3,3 3,4 19,4 19,3 3,3 Z M 3,6 3,7 19,7 19,6 3,6 Z M 3,9 3,10 19,10 19,9 3,9 Z M 3.7070312,12 3,12.707031 5.7929688,15.5 3,18.292969 3.7070312,19 6.5,16.207031 7.2070312,15.5 6.5,14.792969 3.7070312,12 Z M 10,12 l 0,1 9,0 0,-1 -9,0 z m 0,3 0,1 9,0 0,-1 -9,0 z m 0,3 0,1 9,0 0,-1 -9,0 z" opacity="1" transform="translate(0,1030.3622)"/></g></svg>