<svg xmlns="http://www.w3.org/2000/svg" xmlns:svg="http://www.w3.org/2000/svg" id="svg3760" width="24" height="24" version="1.1"><metadata id="metadata3765"/><g id="layer1" transform="translate(-552.72253,-582.11926)"><path id="rect4112" fill="#424854" fill-opacity="1" stroke="none" d="m 7.5664062,3 0,3.3007812 1.1523438,0 0,-2.1855468 4.117188,0 0,11.8906246 -1.791016,0 0,0.994141 5.476562,0 0,-0.994141 -1.791015,0 0,-11.8906246 4.115234,0 0,2.1855468 1.154297,0 L 20,3 7.5664062,3 Z M 5,12 l 0,3 -3,0 0,1 3,0 0,3 1,0 0,-3 3,0 0,-1 -3,0 0,-3 -1,0 z" opacity="1" transform="translate(553.72253,583.11926)"/></g></svg>