<svg xmlns="http://www.w3.org/2000/svg" xmlns:svg="http://www.w3.org/2000/svg" id="svg2" width="24" height="24" version="1.1"><metadata id="metadata7"/><g id="layer1" transform="translate(1,-1029.3622)"><path id="rect4132" fill="#424854" fill-opacity="1" stroke="none" d="M 14.996094,3 3.0039062,14.992188 3,14.992188 3,19 l 1,0 2,0 1.0078125,0 0,-0.0039 L 19,7.0039062 18.998047,7.0019531 19,7 15,3 14.998,3.00195 14.996094,3 Z m 0.002,1.4121094 2.589844,2.5898437 -1.292969,1.2929688 -2.589844,-2.5898438 1.292969,-1.2929687 z m -2,2 2.589844,2.5898437 L 15.052734,9.5371094 8,16.589844 8,15 7,15 6,15 6,14 6,13.410156 12.478516,6.9316406 12.998047,6.4121094 Z M 5,14.410156 5,16 6,16 7,16 7,17 7,17.589844 6.5898438,18 5,18 4,17 l 0,-1.589844 1,-1 z" opacity="1" transform="translate(0,1030.3622)"/></g></svg>