<svg xmlns="http://www.w3.org/2000/svg" xmlns:svg="http://www.w3.org/2000/svg" id="svg2" width="24" height="24" version="1.1" viewBox="0 0 24 24"><metadata id="metadata7"/><g id="layer1" transform="translate(1,-1029.3622)"><path id="path4173" fill="#424854" fill-opacity="1" stroke="none" stroke-dasharray="none" stroke-miterlimit="4" stroke-opacity=".55" stroke-width="2.8" d="M 5,5 5,5.4082031 5,16.591797 5,17 5.9980469,17 6.0058594,17 12,11 6.0058594,5 5,5 Z m 8,0 0,1 0,11 1,0 3,0 0,-1 0,-11 -3,0 -1,0 z m 1,1 2,0 0,10 -2,0 0,-10 z M 5.9980469,6.4082031 10.587891,11 l -4.5898441,4.591797 0,-9.1835939 z" opacity="1" transform="translate(0,1030.3622)"/></g></svg>