<svg xmlns="http://www.w3.org/2000/svg" xmlns:svg="http://www.w3.org/2000/svg" id="svg2" width="24" height="24" version="1.1" viewBox="0 0 24 24"><metadata id="metadata7"/><g id="layer1" transform="translate(1,-1029.3622)"><path id="rect4162" fill="#424854" fill-opacity="1" stroke="none" stroke-dasharray="none" stroke-miterlimit="4" stroke-opacity=".55" stroke-width="2.8" d="M 18.5,3 17.792969,3.7070312 20.085938,6 16,6 16,6.021484 c -1.156791,0 -2.205819,0.4057371 -3.050781,1.0605468 L 13.46875,7.9453125 C 14.158869,7.3767771 15.031729,7.0214844 16,7.0214844 L 16,7 20.085938,7 17.792969,9.2929688 18.5,10 21.292969,7.2070312 22,6.5 21.292969,5.7929688 18.5,3 Z M 0,6 0,7 7,7 7,7.0214844 c 2.208646,0 3.98626,1.7727422 3.998047,3.9785156 L 11,11 c 0,2.77 2.23,5 5,5 l 4.085938,0 -2.292969,2.292969 L 18.5,19 21.292969,16.207031 22,15.5 21.292969,14.792969 18.5,12 17.792969,12.707031 20.085938,15 16,15 c -2.216,0 -4,-1.784 -4,-4 l -0.002,0 C 11.986362,8.2401274 9.7627165,6.0214844 7,6.0214844 L 7,6 0,6 Z m 8.5996094,8.666016 C 8.1098056,14.879049 7.5699656,15 7,15 l -7,0 0,1 7,0 c 0.7586197,0 1.4684288,-0.180663 2.1113281,-0.480469 L 8.5996094,14.666016 Z" opacity="1" transform="translate(0,1030.3622)"/></g></svg>