<svg xmlns="http://www.w3.org/2000/svg" xmlns:svg="http://www.w3.org/2000/svg" id="svg4359" width="24" height="24" version="1.1"><metadata id="metadata4364"/><g id="layer1" transform="translate(1,-25)"><path id="rect4123" fill="#424854" fill-opacity="1" stroke="none" d="M 9,3 C 5.676,3 3,5.676 3,9 c 0,3.324 2.676,6 6,6 1.481203,0 2.830584,-0.534682 3.875,-1.417969 L 18.292969,19 19,18.292969 13.582031,12.875 C 14.465318,11.830584 15,10.481203 15,9 15,5.676 12.324,3 9,3 Z m 0,1 c 2.77,0 5,2.23 5,5 0,1.203564 -0.439205,2.289349 -1.142578,3.150391 -0.212066,0.259602 -0.447429,0.494965 -0.707031,0.707031 C 11.289349,13.560795 10.203564,14 9,14 6.23,14 4,11.77 4,9 4,6.23 6.23,4 9,4 Z m 0,2 0,1 c 1.108,0 2,0.892 2,2 0,0.222046 -0.04317,0.4316044 -0.109375,0.6308594 l 0.943359,0.3144531 C 11.93321,9.6465475 12,9.332915 12,9 12,7.338 10.662,6 9,6 Z" opacity="1" transform="translate(0,26)"/></g></svg>