<svg xmlns="http://www.w3.org/2000/svg" xmlns:svg="http://www.w3.org/2000/svg" id="svg4359" width="24" height="24" version="1.1"><metadata id="metadata4364"/><g id="layer1" transform="translate(1,-25)"><path id="rect4156" fill="#424854" fill-opacity="1" stroke="none" stroke-dasharray="none" stroke-miterlimit="4" stroke-opacity="1" stroke-width=".1" d="m 11,29 -3,3 0,-1 -1,0 -1,0 -1,0 0,1 0,3 -1,1 0,0.002 -1,0.998 1,0 0,8 1,0 5,0 0,-1 0,-3 2,0 0,4 6,0 0,-1 0,-7 1,0 -1,-0.998047 0,-0.002 -0.002,0 L 11,29 Z m 0,1.416016 6,6 L 17,37 l 0,7 -4,0 0,-4 -3,0 -1,0 0,1 0,3 -4,0 0,-7.583984 6,-6 z M 6,32 7,32 7,33 6,34.001953 6,32 Z" opacity="1"/></g></svg>