<svg xmlns="http://www.w3.org/2000/svg" xmlns:svg="http://www.w3.org/2000/svg" id="svg2" width="24" height="24" version="1.1" viewBox="0 0 24 24"><metadata id="metadata7"/><g id="layer1" transform="translate(1,-1029.3622)"><path id="rect3379" fill="#424854" fill-opacity="1" stroke="none" stroke-dasharray="none" stroke-miterlimit="4" stroke-opacity=".55" stroke-width="2.8" d="m 6.005859,1035.3622 4.994141,5 0,2 -4.994141,5 -0.00781,0 -0.998047,0 0,-0.4082 0,-11.1836 0,-0.4082 1.005859,0 z m -0.00781,1.4082 0,9.1836 4.589844,-4.5918 -4.589844,-4.5918 z" opacity="1"/><g id="g4171" transform="translate(2.000004,0)"><path id="path4173" fill="#424854" fill-opacity="1" stroke="none" stroke-dasharray="none" stroke-miterlimit="4" stroke-opacity=".55" stroke-width="2.8" d="m 8,1035.3622 0,0.4082 0,11.1836 0,0.4082 0.9988853,0 0.0078,0 5.9933107,-6 -5.9933107,-6 -1.0066891,0 z m 0.9988853,1.4082 4.5886297,4.5918 -4.5886297,4.5918 0,-9.1836 z" opacity="1"/></g></g></svg>