<svg xmlns="http://www.w3.org/2000/svg" xmlns:svg="http://www.w3.org/2000/svg" id="svg4359" width="24" height="24" version="1.1"><metadata id="metadata4364"/><g id="layer1" transform="translate(1,-25)"><path id="rect4163" fill="#f92d36" fill-opacity="1" stroke="none" d="m 11,3 c -4.432,0 -8,3.568 -8,8 0,4.432 3.568,8 8,8 4.432,0 8,-3.568 8,-8 0,-4.432 -3.568,-8 -8,-8 z m 0,1 c 3.878,0 7,3.122 7,7 0,3.878 -3.122,7 -7,7 C 7.122,18 4,14.878 4,11 4,7.122 7.122,4 11,4 Z M 8.7070312,8 8,8.7070312 10.292969,11 8,13.292969 8.7070312,14 11,11.707031 13.292969,14 14,13.292969 11.707031,11 14,8.7070312 13.292969,8 11,10.292969 8.7070312,8 Z" opacity="1" transform="translate(0,26)"/></g></svg>