<svg xmlns="http://www.w3.org/2000/svg" xmlns:svg="http://www.w3.org/2000/svg" id="svg4359" width="24" height="24" version="1.1"><metadata id="metadata4364"/><g id="layer1" transform="translate(1,-25)"><path id="rect4141" fill="#424854" fill-opacity="1" stroke="none" d="M 5,3 5,5.0507812 C 3.8559283,5.2809777 3,6.2861397 3,7.5 3,8.7138603 3.8559283,9.7190223 5,9.9492188 L 5,19 6,19 6,9.9492188 C 7.1440717,9.7190223 8,8.7138603 8,7.5 8,6.2861397 7.1440717,5.2809777 6,5.0507812 L 6,3 5,3 Z m 7,0 0,1.0507812 C 10.855928,4.2809777 10,5.2861397 10,6.5 c 0,1.2138603 0.855928,2.2190223 2,2.4492188 L 12,12 13,12 13,8.9492188 C 14.144072,8.7190223 15,7.7138603 15,6.5 15,5.2861397 14.144072,4.2809777 13,4.0507812 L 13,3 12,3 Z m 4,0 0,8.050781 C 14.855928,11.280978 14,12.28614 14,13.5 c 0,1.21386 0.855928,2.219022 2,2.449219 L 16,19 l 1,0 0,-3.050781 C 18.144072,15.719022 19,14.71386 19,13.5 19,12.28614 18.144072,11.280978 17,11.050781 L 17,3 16,3 Z M 12.5,5 C 13.331,5 14,5.669 14,6.5 14,7.331 13.331,8 12.5,8 11.669,8 11,7.331 11,6.5 11,5.669 11.669,5 12.5,5 Z m -7,1 C 6.331,6 7,6.669 7,7.5 7,8.331 6.331,9 5.5,9 4.669,9 4,8.331 4,7.5 4,6.669 4.669,6 5.5,6 Z M 9,10 9,13.050781 C 7.8559283,13.280978 7,14.28614 7,15.5 c 0,1.21386 0.8559283,2.219022 2,2.449219 L 9,19 l 1,0 0,-1.050781 C 11.144072,17.719022 12,16.71386 12,15.5 12,14.28614 11.144072,13.280978 10,13.050781 L 10,10 9,10 Z m 7.5,2 C 17.331,12 18,12.669 18,13.5 18,14.331 17.331,15 16.5,15 15.669,15 15,14.331 15,13.5 15,12.669 15.669,12 16.5,12 Z m -7,2 C 10.331,14 11,14.669 11,15.5 11,16.331 10.331,17 9.5,17 8.669,17 8,16.331 8,15.5 8,14.669 8.669,14 9.5,14 Z" opacity="1" transform="translate(0,26)"/></g></svg>