<svg xmlns="http://www.w3.org/2000/svg" xmlns:svg="http://www.w3.org/2000/svg" xmlns:xlink="http://www.w3.org/1999/xlink" id="svg4359" width="16" height="16" version="1.1" viewBox="0 0 16 16"><defs id="defs4361"><linearGradient id="linearGradient4103"><stop id="stop4105" offset="0" stop-color="#bdecfb" stop-opacity="1"/><stop id="stop4107" offset="1" stop-color="#f5feff" stop-opacity="1"/></linearGradient><linearGradient id="linearGradient4314"><stop id="stop4316" offset="0" stop-color="#ff4b00" stop-opacity="1"/><stop id="stop4318" offset="1" stop-color="#f50" stop-opacity="1"/></linearGradient><linearGradient id="linearGradient5020-1"><stop id="stop5022-6" offset="0" stop-color="#0da8db" stop-opacity="1"/><stop id="stop5024-0" offset="1" stop-color="#1fe1fb" stop-opacity="1"/></linearGradient><linearGradient id="linearGradient3880"><stop id="stop3882" offset="0" stop-color="#da0000" stop-opacity="1"/><stop id="stop3884" offset="1" stop-color="#ff4200" stop-opacity="1"/></linearGradient><linearGradient id="linearGradient3965" x1="272" x2="272" y1="284" y2="28" gradientTransform="translate(-0.25,-31.5)" gradientUnits="userSpaceOnUse" xlink:href="#linearGradient3880"/><linearGradient id="linearGradient3006" x2="0" y1="279.096" y2="268.33" gradientTransform="matrix(1.10525,0,0,1.10525,-134.27874,-295.76183)" gradientUnits="userSpaceOnUse" xlink:href="#linearGradient4460"/><linearGradient id="linearGradient4460"><stop id="stop7" offset="0" stop-color="#dadada" stop-opacity="1"/><stop id="stop9" offset="1" stop-color="#f7f7f7" stop-opacity="1"/></linearGradient></defs><metadata id="metadata4364"/><g id="layer1" transform="translate(-3,-29)"><path id="rect4168" fill="#424854" fill-opacity="1" fill-rule="nonzero" stroke="none" stroke-dasharray="none" stroke-dashoffset="0" stroke-linecap="butt" stroke-linejoin="miter" stroke-miterlimit="4" stroke-opacity="1" stroke-width="1" d="m 6,31 0,7 -1,0 0,5 12,0 0,-5 -1,0 0,-7 -10,0 z m 1,1 8,0 0,6 -8,0 0,-6 z m 1,1 0,2 2,0 0,-2 -2,0 z m 4,0 0,2 2,0 0,-2 -2,0 z m -6,6 10,0 0,3 -10,0 0,-3 z" clip-rule="nonzero" color="#000" color-interpolation="sRGB" color-interpolation-filters="linearRGB" color-rendering="auto" display="inline" enable-background="accumulate" image-rendering="auto" opacity="1" overflow="visible" shape-rendering="auto" text-decoration="none" text-rendering="auto" visibility="visible" style="text-decoration-line:none;text-decoration-style:solid;text-decoration-color:#000;isolation:auto;mix-blend-mode:normal;solid-color:#000;solid-opacity:1"/></g></svg>