<svg xmlns="http://www.w3.org/2000/svg" xmlns:svg="http://www.w3.org/2000/svg" xmlns:xlink="http://www.w3.org/1999/xlink" id="svg2" width="24" height="24" version="1.1"><defs id="defs4"><linearGradient id="linearGradient836" x1="-3.34" x2="-3.34" y1="1038.553" y2="1030.243" gradientTransform="matrix(2.1715905,0,0,2.1715905,19.342067,-1205.8388)" gradientUnits="userSpaceOnUse" xlink:href="#linearGradient830"/><linearGradient id="linearGradient830"><stop id="stop832" offset="0" stop-color="#ff7703" stop-opacity="1"/><stop id="stop834" offset="1" stop-color="#ff9a00" stop-opacity="1"/></linearGradient></defs><metadata id="metadata7"/><g id="layer1" transform="translate(0,-1028.3622)"><rect id="rect846" width="20" height="20" x="2" y="1030.362" fill="#000" fill-opacity=".094" stroke="none" ry="1.641"/><rect id="rect844" width="19.349" height="19.349" x="2.326" y="1030.688" fill="#000" fill-opacity=".176" stroke="none" ry="1.587"/><rect id="rect838" width="18.697" height="18.697" x="2.651" y="1031.014" fill="#000" fill-opacity=".353" stroke="none" ry="1.534"/><rect id="rect848" width="18.469" height="18.469" x="2.765" y="1031.128" fill="#000" fill-opacity=".427" stroke="none" ry="1.515"/><rect id="rect828" width="18.046" height="18.046" x="2.977" y="1031.339" fill="url(#linearGradient836)" fill-opacity="1" stroke="none" ry="1.481"/><path id="path942" fill="#000" fill-opacity=".067" fill-rule="nonzero" stroke="none" d="m 12.841042,1044.1846 -1.682514,0 0,-4.5883 1.682514,0 L 12.841042,1044.1846 z m 0,2.6782 -1.682514,0 0,-1.5296 1.682514,0 L 12.841042,1046.8628 z m 6.432315,0.7489 -6.811515,-11.9538 c -0.09326,-0.1647 -0.270797,-0.266 -0.462065,-0.266 -0.191252,0 -0.368311,0.1013 -0.462048,0.266 l -6.8101094,11.9538 c -0.09326,0.1624 -0.09184,0.3598 0.0029,0.5203 0.09658,0.1605 0.269374,0.2599 0.457323,0.2599 l 13.6239954,0 c 0.187949,0 0.360742,-0.099 0.457323,-0.2599 0.09469,-0.1605 0.09657,-0.3579 0.0043,-0.5203"/><path id="path944" fill="#000" fill-opacity=".137" fill-rule="nonzero" stroke="none" d="m 12.841042,1043.6523 -1.682514,0 0,-4.5883 1.682514,0 L 12.841042,1043.6523 z m 0,2.6782 -1.682514,0 0,-1.5296 1.682514,0 L 12.841042,1046.3305 z m 6.432315,0.7489 -6.811515,-11.9538 c -0.09326,-0.1647 -0.270797,-0.266 -0.462065,-0.266 -0.191252,0 -0.368311,0.1013 -0.462048,0.266 l -6.8101094,11.9538 c -0.09326,0.1624 -0.09184,0.3598 0.0029,0.5203 0.09658,0.1605 0.269374,0.2599 0.457323,0.2599 l 13.6239954,0 c 0.187949,0 0.360742,-0.099 0.457323,-0.2599 0.09469,-0.1605 0.09657,-0.3579 0.0043,-0.5203"/><path id="path946" fill="#000" fill-opacity=".275" fill-rule="nonzero" stroke="none" d="m 12.841042,1043.1199 -1.682514,0 0,-4.5883 1.682514,0 L 12.841042,1043.1199 z m 0,2.6782 -1.682514,0 0,-1.5296 1.682514,0 L 12.841042,1045.7981 z m 6.432315,0.7489 -6.811515,-11.9538 c -0.09326,-0.1647 -0.270797,-0.266 -0.462065,-0.266 -0.191252,0 -0.368311,0.1013 -0.462048,0.266 l -6.8101094,11.9538 c -0.09326,0.1624 -0.09184,0.3598 0.0029,0.5203 0.09658,0.1605 0.269374,0.2599 0.457323,0.2599 l 13.6239954,0 c 0.187949,0 0.360742,-0.099 0.457323,-0.2599 0.09469,-0.1605 0.09657,-0.3579 0.0043,-0.5203"/><path id="path558" fill="#fff" fill-opacity="1" fill-rule="nonzero" stroke="none" d="m 12.841042,1042.6549 -1.682514,0 0,-4.5883 1.682514,0 L 12.841042,1042.6549 z m 0,2.6782 -1.682514,0 0,-1.5296 1.682514,0 L 12.841042,1045.3331 z m 6.432315,0.7489 -6.811515,-11.9538 c -0.09326,-0.1647 -0.270797,-0.266 -0.462065,-0.266 -0.191252,0 -0.368311,0.1013 -0.462048,0.266 l -6.8101094,11.9538 c -0.09326,0.1624 -0.09184,0.3598 0.0029,0.5203 0.09658,0.1605 0.269374,0.2599 0.457323,0.2599 l 13.6239954,0 c 0.187949,0 0.360742,-0.099 0.457323,-0.2599 0.09469,-0.1605 0.09657,-0.3579 0.0043,-0.5203"/></g></svg>