<svg xmlns="http://www.w3.org/2000/svg" xmlns:svg="http://www.w3.org/2000/svg" xmlns:xlink="http://www.w3.org/1999/xlink" id="svg2" width="24" height="24" version="1.1"><defs id="defs4"><linearGradient id="linearGradient836" x1="-3.34" x2="-3.34" y1="1038.553" y2="1030.243" gradientTransform="matrix(2.1715905,0,0,2.1715905,19.342067,-1205.8388)" gradientUnits="userSpaceOnUse" xlink:href="#linearGradient830"/><linearGradient id="linearGradient830"><stop id="stop832" offset="0" stop-color="#007fc6" stop-opacity="1"/><stop id="stop834" offset="1" stop-color="#079af2" stop-opacity="1"/></linearGradient></defs><metadata id="metadata7"/><g id="layer1" transform="translate(0,-1028.3622)"><rect id="rect846" width="20" height="20" x="2" y="1030.362" fill="#000" fill-opacity=".094" stroke="none" ry="1.641"/><rect id="rect844" width="19.349" height="19.349" x="2.326" y="1030.688" fill="#000" fill-opacity=".176" stroke="none" ry="1.587"/><rect id="rect838" width="18.697" height="18.697" x="2.651" y="1031.014" fill="#000" fill-opacity=".353" stroke="none" ry="1.534"/><rect id="rect848" width="18.469" height="18.469" x="2.765" y="1031.128" fill="#000" fill-opacity=".427" stroke="none" ry="1.515"/><rect id="rect828" width="18.046" height="18.046" x="2.977" y="1031.339" fill="url(#linearGradient836)" fill-opacity="1" stroke="none" ry="1.481"/><g id="g1261" fill="#000" fill-opacity=".067" transform="matrix(0.40625,0,0,0.40625,5.5,1035.3919)"><g id="g1265" fill="#000" fill-opacity=".067"><path id="path1267" fill="#000" fill-opacity=".067" d="m 32,17.969 0,-4 -4.781,-1.992 C 27.086,11.602 26.946,11.239 26.774,10.883 L 28.704,6.078 25.875,3.25 21.113,5.211 C 20.75,5.035 20.379,4.887 19.996,4.75 L 17.969,0 l -4,0 -1.977,4.734 c -0.398,0.141 -0.781,0.289 -1.16,0.469 L 6.078,3.293 3.25,6.121 5.188,10.832 C 5,11.219 4.848,11.613 4.703,12.02 L 0,14.031 l 0,4 4.707,1.961 c 0.145,0.406 0.301,0.801 0.488,1.188 l -1.902,4.742 2.828,2.828 4.723,-1.945 c 0.379,0.18 0.766,0.324 1.164,0.461 l 2.023,4.734 4,0 1.98,-4.758 c 0.379,-0.141 0.754,-0.289 1.113,-0.461 l 4.797,1.922 2.828,-2.828 -1.969,-4.773 c 0.168,-0.359 0.305,-0.723 0.438,-1.094 L 32,17.969 Z M 15.969,22 c -3.312,0 -6,-2.688 -6,-6 0,-3.312 2.688,-6 6,-6 3.312,0 6,2.688 6,6 C 21.969,19.312 19.281,22 15.969,22 Z"/></g></g><g id="g1269" fill="#000" fill-opacity=".137" transform="matrix(0.40625,0,0,0.40625,5.5,1034.8596)"><g id="g1273" fill="#000" fill-opacity=".137"><path id="path1275" fill="#000" fill-opacity=".137" d="m 32,17.969 0,-4 -4.781,-1.992 C 27.086,11.602 26.946,11.239 26.774,10.883 L 28.704,6.078 25.875,3.25 21.113,5.211 C 20.75,5.035 20.379,4.887 19.996,4.75 L 17.969,0 l -4,0 -1.977,4.734 c -0.398,0.141 -0.781,0.289 -1.16,0.469 L 6.078,3.293 3.25,6.121 5.188,10.832 C 5,11.219 4.848,11.613 4.703,12.02 L 0,14.031 l 0,4 4.707,1.961 c 0.145,0.406 0.301,0.801 0.488,1.188 l -1.902,4.742 2.828,2.828 4.723,-1.945 c 0.379,0.18 0.766,0.324 1.164,0.461 l 2.023,4.734 4,0 1.98,-4.758 c 0.379,-0.141 0.754,-0.289 1.113,-0.461 l 4.797,1.922 2.828,-2.828 -1.969,-4.773 c 0.168,-0.359 0.305,-0.723 0.438,-1.094 L 32,17.969 Z M 15.969,22 c -3.312,0 -6,-2.688 -6,-6 0,-3.312 2.688,-6 6,-6 3.312,0 6,2.688 6,6 C 21.969,19.312 19.281,22 15.969,22 Z"/></g></g><g id="g1277" fill="#000" fill-opacity=".275" transform="matrix(0.40625,0,0,0.40625,5.5,1034.3272)"><g id="g1281" fill="#000" fill-opacity=".275"><path id="path1283" fill="#000" fill-opacity=".275" d="m 32,17.969 0,-4 -4.781,-1.992 C 27.086,11.602 26.946,11.239 26.774,10.883 L 28.704,6.078 25.875,3.25 21.113,5.211 C 20.75,5.035 20.379,4.887 19.996,4.75 L 17.969,0 l -4,0 -1.977,4.734 c -0.398,0.141 -0.781,0.289 -1.16,0.469 L 6.078,3.293 3.25,6.121 5.188,10.832 C 5,11.219 4.848,11.613 4.703,12.02 L 0,14.031 l 0,4 4.707,1.961 c 0.145,0.406 0.301,0.801 0.488,1.188 l -1.902,4.742 2.828,2.828 4.723,-1.945 c 0.379,0.18 0.766,0.324 1.164,0.461 l 2.023,4.734 4,0 1.98,-4.758 c 0.379,-0.141 0.754,-0.289 1.113,-0.461 l 4.797,1.922 2.828,-2.828 -1.969,-4.773 c 0.168,-0.359 0.305,-0.723 0.438,-1.094 L 32,17.969 Z M 15.969,22 c -3.312,0 -6,-2.688 -6,-6 0,-3.312 2.688,-6 6,-6 3.312,0 6,2.688 6,6 C 21.969,19.312 19.281,22 15.969,22 Z"/></g></g><g id="g1256" fill="#fff" transform="matrix(0.40625,0,0,0.40625,5.5,1033.8622)"><g id="cog" fill="#fff"><path id="path1248" fill="#fff" d="m 32,17.969 0,-4 -4.781,-1.992 C 27.086,11.602 26.946,11.239 26.774,10.883 L 28.704,6.078 25.875,3.25 21.113,5.211 C 20.75,5.035 20.379,4.887 19.996,4.75 L 17.969,0 l -4,0 -1.977,4.734 c -0.398,0.141 -0.781,0.289 -1.16,0.469 L 6.078,3.293 3.25,6.121 5.188,10.832 C 5,11.219 4.848,11.613 4.703,12.02 L 0,14.031 l 0,4 4.707,1.961 c 0.145,0.406 0.301,0.801 0.488,1.188 l -1.902,4.742 2.828,2.828 4.723,-1.945 c 0.379,0.18 0.766,0.324 1.164,0.461 l 2.023,4.734 4,0 1.98,-4.758 c 0.379,-0.141 0.754,-0.289 1.113,-0.461 l 4.797,1.922 2.828,-2.828 -1.969,-4.773 c 0.168,-0.359 0.305,-0.723 0.438,-1.094 L 32,17.969 Z M 15.969,22 c -3.312,0 -6,-2.688 -6,-6 0,-3.312 2.688,-6 6,-6 3.312,0 6,2.688 6,6 C 21.969,19.312 19.281,22 15.969,22 Z"/></g></g></g></svg>