<svg xmlns="http://www.w3.org/2000/svg" xmlns:svg="http://www.w3.org/2000/svg" xmlns:xlink="http://www.w3.org/1999/xlink" id="svg2" width="24" height="24" version="1.1"><defs id="defs4"><linearGradient id="linearGradient836" x1="-3.34" x2="-3.34" y1="1038.553" y2="1030.243" gradientTransform="matrix(2.1715905,0,0,2.1715905,19.342067,-1205.8388)" gradientUnits="userSpaceOnUse" xlink:href="#linearGradient830"/><linearGradient id="linearGradient830"><stop id="stop832" offset="0" stop-color="#80b22e" stop-opacity="1"/><stop id="stop834" offset="1" stop-color="#aee063" stop-opacity="1"/></linearGradient></defs><metadata id="metadata7"/><g id="layer1" transform="translate(0,-1028.3622)"><rect id="rect846" width="20" height="20" x="2" y="1030.362" fill="#000" fill-opacity=".094" stroke="none" ry="1.641"/><rect id="rect844" width="19.349" height="19.349" x="2.326" y="1030.688" fill="#000" fill-opacity=".176" stroke="none" ry="1.587"/><rect id="rect838" width="18.697" height="18.697" x="2.651" y="1031.014" fill="#000" fill-opacity=".353" stroke="none" ry="1.534"/><rect id="rect848" width="18.469" height="18.469" x="2.765" y="1031.128" fill="#000" fill-opacity=".427" stroke="none" ry="1.515"/><rect id="rect828" width="18.046" height="18.046" x="2.977" y="1031.339" fill="url(#linearGradient836)" fill-opacity="1" stroke="none" ry="1.481"/><g id="g871" fill="#000" fill-opacity=".067" transform="matrix(0.50477596,0,0,0.50477596,3.9235846,1035.3919)"><g id="g875" fill="#000" fill-opacity=".067"><g id="g877" fill="#000" fill-opacity=".067"><polygon id="polygon879" fill="#000" fill-opacity=".067" points="5.695 8.117 11.941 14.363 26.305 0 32 5.695 11.941 25.754 11.941 25.754 0 13.812"/></g></g></g><g id="g881" fill="#000" fill-opacity=".137" transform="matrix(0.50477596,0,0,0.50477596,3.9235846,1034.8596)"><g id="g885" fill="#000" fill-opacity=".137"><g id="g887" fill="#000" fill-opacity=".137"><polygon id="polygon889" fill="#000" fill-opacity=".137" points="11.941 14.363 26.305 0 32 5.695 11.941 25.754 11.941 25.754 0 13.812 5.695 8.117"/></g></g></g><g id="g891" fill="#000" fill-opacity=".275" transform="matrix(0.50477596,0,0,0.50477596,3.9235846,1034.3272)"><g id="g895" fill="#000" fill-opacity=".275"><g id="g897" fill="#000" fill-opacity=".275"><polygon id="polygon899" fill="#000" fill-opacity=".275" points="26.305 0 32 5.695 11.941 25.754 11.941 25.754 0 13.812 5.695 8.117 11.941 14.363"/></g></g></g><g id="g824" fill="#fff" transform="matrix(0.50477596,0,0,0.50477596,3.9235846,1033.8622)"><g id="check" fill="#fff"><g id="g814" fill="#fff"><polygon id="polygon816" fill="#fff" points="11.941 25.754 0 13.812 5.695 8.117 11.941 14.363 26.305 0 32 5.695 11.941 25.754"/></g></g></g></g></svg>