<svg xmlns="http://www.w3.org/2000/svg" xmlns:svg="http://www.w3.org/2000/svg" id="svg4359" width="24" height="24" version="1.1"><metadata id="metadata4364"/><g id="layer1" transform="translate(1,-25)"><path id="rect4162" fill="#fff" fill-opacity="1" stroke="none" stroke-dasharray="none" stroke-miterlimit="4" stroke-opacity=".55" stroke-width="2.8" d="m 5,3 0,3 -1,0 -1,0 0,3 1,0 1,0 0,3 0,1 -1,0 -1,0 0,3 1,0 1,0 0,3 1,0 6,0 6,0 1,0 0,-1 L 19,4 19,3 18,3 6,3 5,3 Z M 6,4 8,4 8,18 6,18 6,12 6,4 Z m 3,0 9,0 0,14 -6,0 L 9,18 9,4 Z M 4,7 5,7 5,8 4,8 4,7 Z m 0,7 1,0 0,1 -1,0 0,-1 z" opacity="1" transform="translate(0,26)"/></g></svg>