<svg xmlns="http://www.w3.org/2000/svg" xmlns:svg="http://www.w3.org/2000/svg" id="svg4359" width="24" height="24" version="1.1"><metadata id="metadata4364"/><g id="layer1" transform="translate(1,-25)"><path id="path4165" fill="#fff" fill-opacity="1" d="M 11,29 A 8.0000019,8 0 0 0 5.6699219,31.058594 1,1 0 0 1 6,31 1,1 0 0 1 6.8027344,31.404297 7.0000019,7 0 0 1 11,30 a 7.0000019,7 0 0 1 7,7 7.0000019,7 0 0 1 -1.408203,4.197266 l 0.994141,0.332031 A 8.0000019,8 0 0 0 19,37 8.0000019,8 0 0 0 11,29 Z m -5.9355469,2.652344 a 8.0000019,8 0 0 0 -0.037109,0.03906 l 0.017578,0.01563 a 1,1 0 0 1 0.019531,-0.05469 z" opacity=".3"/><path id="path4164" fill="#fff" fill-opacity="1" d="m 6,30 c -1.108,0 -2,0.892 -2,2 0,0.300194 0.06999,0.580898 0.1875,0.835937 A 8.000001,8.000001 0 0 0 3,37 a 8.000001,8.000001 0 0 0 8,8 8.000001,8.000001 0 0 0 6,-2.728516 L 17,44 l 1,0 0,-3 0,-1 -1,0 -3,0 0,1 2.722656,0 A 7.000001,7.000001 0 0 1 11,44 7.000001,7.000001 0 0 1 4,37 7.000001,7.000001 0 0 1 4.8671875,33.648437 C 5.1891685,33.869863 5.5780129,34 6,34 7.108,34 8,33.108 8,32 8,30.892 7.108,30 6,30 Z m 0,1 c 0.554,0 1,0.446 1,1 0,0.554 -0.446,1 -1,1 -0.2744499,0 -0.5208261,-0.111243 -0.7011719,-0.289063 -0.00335,-0.0033 -0.00646,-0.0064 -0.00977,-0.0098 -0.084775,-0.08598 -0.1538743,-0.186561 -0.2031206,-0.298823 a 1,1 0 0 1 -0.00977,-0.02539 C 5.0289663,32.260581 5,32.133706 5,32 5,31.446 5.446,31 6,31 Z" opacity="1"/></g></svg>