<svg xmlns="http://www.w3.org/2000/svg" xmlns:svg="http://www.w3.org/2000/svg" id="svg4359" width="24" height="24" version="1.1"><metadata id="metadata4364"/><g id="layer1" transform="translate(1,-25)"><path id="rect4204" fill="#fff" fill-opacity="1" stroke="none" stroke-dasharray="none" stroke-miterlimit="4" stroke-opacity=".55" stroke-width="2.8" d="m 10,29 3,3 7,0 0,1 0,11 0,1 -18,0 0,-1 0,-11 0,-1 0,-2 0,-1 8,0 z M 9.5,30 9.400391,30 3,30 3,31 3,32 10.400391,32 10.5,32 11.400391,32 11.5,32 11,31.5 10.5,31 10,30.5 9.5,30 Z m 9.5,3 -6,0 -10,0 0,11 16,0 0,-11 z" opacity="1"/></g></svg>