<svg xmlns="http://www.w3.org/2000/svg" xmlns:svg="http://www.w3.org/2000/svg" id="svg4359" width="24" height="24" version="1.1"><metadata id="metadata4364"/><g id="layer1" transform="translate(1,-25)"><path id="rect4162" fill="#fff" fill-opacity="1" stroke="none" stroke-dasharray="none" stroke-miterlimit="4" stroke-opacity=".55" stroke-width="2.8" d="m 8,3 0,2 -3,0 -1,0 0,6 1,0 0,-5 3,0 0,1 6,0 0,-1 3,0 0,4 0,2 0,2.005859 L 17,18 l -6,0 0,1 6,0 1,0 0,-1 0,-5 0,-8 -1,0 -3,0 0,-2 -6,0 z m 1,1 4,0 0,1 0,1 L 9,6 9,5 9,4 Z m -5,8 0,7 6,0 0,-1 0,-6 -5,0 -1,0 z m 1,1 4,0 0,5 -4,0 0,-5 z" opacity="1" transform="translate(0,26)"/></g></svg>