<svg xmlns="http://www.w3.org/2000/svg" xmlns:svg="http://www.w3.org/2000/svg" id="svg4359" width="24" height="24" version="1.1"><metadata id="metadata4364"/><g id="layer1" transform="translate(1,-25)"><path id="rect4154" fill="#fff" fill-opacity="1" stroke="none" d="M 3,3 3,4 3,18 3,18.40625 3,19 l 1,0 15,0 0,-1 0,-3.59375 0,-1.414062 L 19,3 4,3 3,3 Z M 4,4 18,4 18,11.992188 14.007812,8 14,8.0078125 13.994141,8 9,12.992188 8.0078125,12 8,12.007812 7.9941406,12 4,15.992188 4,4 Z M 7.5,5 C 6.115,5 5,6.115 5,7.5 5,8.885 6.115,10 7.5,10 8.885,10 10,8.885 10,7.5 10,6.115 8.885,5 7.5,5 Z m 0,1 C 8.331,6 9,6.669 9,7.5 9,8.331 8.331,9 7.5,9 6.669,9 6,8.331 6,7.5 6,6.669 6.669,6 7.5,6 Z m 6.5,3.40625 4,4 L 18,18 14.007812,18 9.7070312,13.699219 14,9.40625 Z m -6,4 L 12.59375,18 4,18 l 0,-0.59375 4,-4 z" opacity="1" transform="translate(0,26)"/></g></svg>