<svg xmlns="http://www.w3.org/2000/svg" xmlns:svg="http://www.w3.org/2000/svg" id="svg3049" width="24" height="24" version="1.1"><metadata id="metadata3054"/><g id="layer1" transform="translate(-420.71429,-524.79071)"><path id="rect4108-9" fill="#fff" fill-opacity="1" stroke="none" d="m 424.71429,544.79074 0,-4 4,0 0,4 -4,0 z m 5,-1 0,-1 11,0 0,1 -11,0 z m -5,-5 0,-4 4,0 0,4 -4,0 z m 1,-1 2,0 0,-2 -2,0 0,2 z m 4,0 0,-1 11,0 0,1 -11,0 z m -5,-5 0,-4 4,0 0,4 -4,0 z m 1,-1 2,0 0,-2 -2,0 0,2 z m 4,0 0,-1 11,0 0,1 -11,0 z" opacity="1"/></g></svg>