<svg xmlns="http://www.w3.org/2000/svg" xmlns:svg="http://www.w3.org/2000/svg" id="svg4359" width="24" height="24" version="1.1"><metadata id="metadata4364"/><g id="layer1" transform="translate(1,-25)"><g id="layer1-0" transform="matrix(0,1,1,0,-25.124554,18.170985)"><path id="rect4156" fill="#fff" fill-opacity="1" stroke="none" stroke-dasharray="none" stroke-miterlimit="4" stroke-opacity=".55" stroke-width="2.8" d="m 15.829022,30.124554 0,1 0,5 -2.300781,0 0.0039,0.0039 -0.703125,0.703125 5.292968,5.292968 0.707031,0.707031 0.707031,-0.707031 5.292969,-5.292968 -0.703125,-0.703125 0.0039,-0.0039 -0.0078,0 -2.292969,0 0,-5 0,-1 z m 1,1 3.999999,0 0,6 1,0 1.292969,0 -4.292969,4.292969 -4.292968,-4.292969 1.292969,0 0.999999,0 z" opacity="1"/></g></g></svg>