<svg xmlns="http://www.w3.org/2000/svg" xmlns:svg="http://www.w3.org/2000/svg" id="svg3049" width="24" height="24" version="1.1"><metadata id="metadata3054"/><g id="layer1" transform="translate(-420.71429,-524.79071)"><path id="rect4108" fill="#fff" fill-opacity="1" stroke="none" d="M 3,3 3,7 7,7 7,3 3,3 Z M 8,4 8,5 19,5 19,4 8,4 Z M 3,9 3,13 7,13 7,9 3,9 Z m 1,1 2,0 0,2 -2,0 0,-2 z m 4,0 0,1 11,0 0,-1 -11,0 z m -5,5 0,4 4,0 0,-4 -4,0 z m 1,1 2,0 0,2 -2,0 0,-2 z m 4,0 0,1 11,0 0,-1 -11,0 z" opacity="1" transform="translate(421.71429,525.79074)"/></g></svg>