<svg xmlns="http://www.w3.org/2000/svg" xmlns:svg="http://www.w3.org/2000/svg" id="svg4359" width="24" height="24" version="1.1"><metadata id="metadata4364"/><g id="layer1" transform="translate(1,-25)"><path id="rect8613" fill="#fff" fill-opacity="1" stroke="none" d="M 4,3 4,4 4,8 5,8 5,4 17,4 17,8 18,8 18,4 18,3 17,3 5,3 4,3 Z M 6.2929688,8.6992188 4,10.992188 4.0078125,11 4,11 l 0,2 0,1 0.8046875,0.804688 -0.00391,0.002 3.2929688,3.292968 0.00391,-0.002 L 9,19 l 1,0 8,0 0,-1 0,-5 0,-2 -1.001953,0 0,0.0078 L 16.990234,11 15.40625,12.585938 14.111328,11.292969 11.814453,9 11.8125,9.0019531 11.511719,8.7011719 9.21875,10.992188 8.9042969,11.306641 8.5898438,10.992188 7.0039062,9.40625 6.2929688,8.6992188 Z m 0.00195,1.4140622 1.5859375,1.585938 1.0234375,1.021484 L 9.9257812,11.699219 11.513672,10.113281 13.402344,12 l 2.003906,2 0.707031,-0.707031 0.884766,-0.886719 0,0.59375 0,1 0.002,0 0,4 -7,0 0,-5 -5,0 0,-1.591797 1.2949219,-1.294922 z M 5.5,14 9,14 9,17 8.5,17 8,16.5 7.5,16 7,15.5 6.5,15 6,14.5 5.5,14 Z" opacity="1" transform="translate(0,26)"/></g></svg>