<svg xmlns="http://www.w3.org/2000/svg" xmlns:svg="http://www.w3.org/2000/svg" id="svg3754" width="24" height="24" version="1.1"><defs id="defs3756"><linearGradient id="linearGradient3257"><stop id="stop3259" offset="0" stop-color="#a50000" stop-opacity="1"/><stop id="stop3261" offset="1" stop-color="#e73800" stop-opacity="1"/></linearGradient></defs><metadata id="metadata3759"/><g id="layer1" transform="translate(-767.57141,-675.07648)"><path id="rect4160" fill="#fff" fill-opacity="1" stroke="none" d="M 8,3 0.70703125,10.292969 0,11 0.70703125,11.707031 8,19 22,19 22,18 22,3 8,3 Z M 8.4140625,4 21,4 l 0,14 -12.5859375,0 -7,-7 7,-7 z M 11.707031,7 11,7.7070312 14.292969,11 11,14.292969 11.707031,15 15,11.707031 18.292969,15 19,14.292969 15.707031,11 19,7.7070312 18.292969,7 15,10.292969 11.707031,7 Z" opacity="1" transform="translate(768.57143,676.07647)"/></g></svg>