<svg xmlns="http://www.w3.org/2000/svg" xmlns:svg="http://www.w3.org/2000/svg" id="svg4062" width="24" height="24" version="1.1"><defs id="defs4064"><linearGradient id="linearGradient3257"><stop id="stop3259" offset="0" stop-color="#a50000" stop-opacity="1"/><stop id="stop3261" offset="1" stop-color="#e73800" stop-opacity="1"/></linearGradient></defs><metadata id="metadata4067"/><g id="layer1" transform="translate(1,-1029.3622)"><path color="#000" style="text-decoration-line:none;text-decoration-style:solid;text-decoration-color:#000;isolation:auto;mix-blend-mode:normal;solid-color:#000;solid-opacity:1" id="rect4160" fill="#fff" fill-opacity="1" fill-rule="nonzero" stroke="none" stroke-dasharray="none" stroke-dashoffset="0" stroke-linecap="butt" stroke-linejoin="miter" stroke-miterlimit="4" stroke-opacity="1" stroke-width="1" d="M 11,3 C 6.5680095,3 3,6.5680095 3,11 l 1,0 c 0,-3.8779913 3.1220085,-7 7,-7 3.877992,0 7,3.1220087 7,7 0,3.877991 -3.122008,7 -7,7 l 0,1 c 4.43199,0 8,-3.56801 8,-8 0,-4.4319905 -3.56801,-8 -8,-8 z m 0,6 C 9.892,9 9,9.892 9,11 l 1,0 c 0,-0.554005 0.445995,-1 1,-1 0.554005,0 1,0.445995 1,1 0,0.554005 -0.445995,1 -1,1 l 0,1 c 1.108,0 2,-0.892 2,-2 0,-1.108 -0.892,-2 -2,-2 z m -6,3.900391 0,3.191406 C 4.842779,16.036139 4.6767587,16 4.5,16 3.6690048,16 3,16.669005 3,17.5 3,18.330995 3.6690048,19 4.5,19 5.3309952,19 6,18.330995 6,17.5 l 0,-3.599609 3,0 0,2.191406 C 8.842779,16.036139 8.6767587,16 8.5,16 7.6690048,16 7,16.669005 7,17.5 7,18.330995 7.6690048,19 8.5,19 9.3309952,19 10,18.330995 10,17.5 l 0,-4.599609 -1,0 -3,0 -1,0 z M 4.5,17 C 4.7769952,17 5,17.223005 5,17.5 5,17.776995 4.7769952,18 4.5,18 4.2230048,18 4,17.776995 4,17.5 4,17.223005 4.2230048,17 4.5,17 Z m 4,0 C 8.7769952,17 9,17.223005 9,17.5 9,17.776995 8.7769952,18 8.5,18 8.2230048,18 8,17.776995 8,17.5 8,17.223005 8.2230048,17 8.5,17 Z" clip-rule="nonzero" color-interpolation="sRGB" color-interpolation-filters="linearRGB" color-rendering="auto" display="inline" enable-background="accumulate" image-rendering="auto" opacity="1" overflow="visible" shape-rendering="auto" text-decoration="none" text-rendering="auto" transform="translate(0,1030.3622)" visibility="visible"/></g></svg>