<svg xmlns="http://www.w3.org/2000/svg" xmlns:svg="http://www.w3.org/2000/svg" id="svg3760" width="24" height="24" version="1.1"><metadata id="metadata3765"/><g id="layer1" transform="translate(-550.28571,-606.64789)"><path id="rect4138" fill="#fff" fill-opacity="1" stroke="none" d="m 3,3 0,4 0,4 1,0 0,-4 14,0 0,11 -7,0 0,1 8,0 0,-1 L 19,7 19,3 3,3 Z m 0.9394531,0.9394531 13.9999999,0 0,2 -13.9999999,0 0,-2 z M 6,12 l 0,3 -3,0 0,1 3,0 0,3 1,0 0,-3 3,0 0,-1 -3,0 0,-3 -1,0 z" opacity="1" transform="translate(551.28571,607.64788)"/></g></svg>