<svg xmlns="http://www.w3.org/2000/svg" xmlns:svg="http://www.w3.org/2000/svg" id="svg4359" width="24" height="24" version="1.1"><metadata id="metadata4364"/><g id="layer1" transform="translate(1,-25)"><path id="rect4163" fill="#f92d36" fill-opacity="1" stroke="none" d="m 11,3 c -4.432,0 -8,3.568 -8,8 0,4.432 3.568,8 8,8 4.432,0 8,-3.568 8,-8 0,-4.432 -3.568,-8 -8,-8 z m 0,1 c 3.878,0 7,3.122 7,7 0,1.758463 -0.645729,3.357001 -1.708984,4.583984 L 6.4160156,5.7089844 C 7.6429988,4.6457291 9.2415375,4 11,4 Z M 5.7089844,6.4160156 15.583984,16.291016 C 14.357001,17.354271 12.758463,18 11,18 7.122,18 4,14.878 4,11 4,9.2415375 4.6457291,7.6429988 5.7089844,6.4160156 Z" opacity="1" transform="translate(0,26)"/></g></svg>