<svg xmlns="http://www.w3.org/2000/svg" xmlns:svg="http://www.w3.org/2000/svg" id="svg3760" width="24" height="24" version="1.1"><metadata id="metadata3765"/><g id="layer1" transform="translate(-550.28571,-606.64789)"><g id="layer1-7" transform="translate(551.28571,581.64788)"><path id="rect4123" fill="#fff" fill-opacity="1" stroke="none" d="m 3,3 0,1 0,2 0,1 0,12 1,0 5,0 1,0 8,0 1,0 0,-1 L 19,7 19,6 19,4 19,3 18,3 4,3 3,3 Z M 4,4 18,4 18,6 4,6 4,4 Z m 0,3 5,0 1,0 8,0 0,11 -8,0 -1,0 -5,0 0,-11 z" opacity="1" transform="translate(0,26)"/></g><path color="#000" style="text-decoration-line:none;text-decoration-style:solid;text-decoration-color:#000;isolation:auto;mix-blend-mode:normal;solid-color:#000;solid-opacity:1" id="rect4175" fill="#fff" fill-opacity="1" fill-rule="nonzero" stroke="none" stroke-dasharray="none" stroke-dashoffset="0" stroke-linecap="butt" stroke-linejoin="miter" stroke-miterlimit="4" stroke-opacity="1" stroke-width="1" d="M 9,10 9,11.162109 9,14.833984 9,15 9,15.998047 10.195312,15.283203 13.037109,13.578125 14,13 13.035156,12.421875 9,10 Z m 1,1.759766 2.070312,1.238281 L 10,14.236328 10,11.759766 Z" clip-rule="nonzero" color-interpolation="sRGB" color-interpolation-filters="linearRGB" color-rendering="auto" display="inline" enable-background="accumulate" image-rendering="auto" opacity="1" overflow="visible" shape-rendering="auto" text-decoration="none" text-rendering="auto" transform="translate(551.28571,607.64788)" visibility="visible"/></g></svg>