<svg xmlns="http://www.w3.org/2000/svg" xmlns:svg="http://www.w3.org/2000/svg" id="svg3760" width="24" height="24" version="1.1"><metadata id="metadata3765"/><g id="layer1" transform="translate(-552.72253,-582.11926)"><path id="rect4179" fill="#fff" fill-opacity="1" stroke="none" d="m 3,3 0,1 0,8 1,0 0,-8 4,0 0,3 8,0 2,0 0,5 0,6 -8,0 0,1 8,0 1,0 0,-7 L 19,6 18,6 16,6 16,3 8,3 4,3 3,3 Z m 6,1 6,0 0,2 -6,0 0,-2 z m -3,8 0,3 -3,0 0,1 3,0 0,3 1,0 0,-3 3,0 0,-1 -3,0 0,-3 -1,0 z" opacity="1" transform="translate(553.72253,583.11926)"/></g></svg>