<svg xmlns="http://www.w3.org/2000/svg" xmlns:svg="http://www.w3.org/2000/svg" id="svg2" width="24" height="24" version="1.1" viewBox="0 0 24 24"><metadata id="metadata7"/><g id="layer1" transform="translate(1,-1029.3622)"><path font-family="serif" style="line-height:125%;-inkscape-font-specification:serif" id="path4151" fill="#fff" fill-opacity="1" stroke="none" stroke-linecap="butt" stroke-linejoin="miter" stroke-opacity="1" stroke-width="1" d="M 10.726562,3 C 9.0463393,3 7.7401789,3.3609844 6.8105469,4.0839844 5.8809149,4.807051 5.4179688,5.8224594 5.4179688,7.1308594 5.4179687,8.2945927 5.7173101,9.210973 6.3164062,9.8789062 6.3545706,9.9209766 6.409566,9.958804 6.4511719,10 l 5.3691401,0 -1.03125,-0.3066406 C 9.4049439,9.280226 8.4992078,8.863426 8.0722656,8.4433594 7.6453236,8.0232927 7.4316406,7.4438312 7.4316406,6.7070312 c 0,-0.8469999 0.2810377,-1.4909072 0.8457032,-1.9316406 0.5715514,-0.4476 1.4022207,-0.6699218 2.4902342,-0.6699218 1.246395,0 2.173314,0.2434885 2.779297,0.7324218 0.612869,0.482 0.976685,1.2674688 1.09375,2.3554688 l 1.167969,0 0,-3.2851563 C 14.844531,3.6121365 13.935915,3.3878615 13.082031,3.2363281 12.228147,3.0779948 11.442725,3 10.726562,3 Z M 3,11 l 0,1 16,0 0,-1 -16,0 z m 10.501953,2 c 0.173031,0.108886 0.319124,0.217658 0.425781,0.328125 0.392512,0.3994 0.589844,0.97111 0.589844,1.714844 0,0.9296 -0.323404,1.639973 -0.970703,2.128906 -0.640413,0.482 -1.575045,0.722656 -2.800781,0.722656 -1.315258,0 -2.2960603,-0.278204 -2.9433596,-0.835937 C 7.162321,16.493927 6.8254463,15.625745 6.7910156,14.455078 l -1.1875,-0.0098 0,3.511719 c 0.9089736,0.3512 1.7992854,0.613023 2.6738282,0.785157 C 9.1587726,18.914387 10.024095,19 10.871094,19 c 1.893694,0 3.318214,-0.379252 4.27539,-1.136719 0.957177,-0.757533 1.435547,-1.882686 1.435547,-3.376953 0,-0.552799 -0.07776,-1.047636 -0.230469,-1.486328 l -2.849609,0 z" font-size="medium" font-stretch="normal" font-style="normal" font-variant="normal" font-weight="normal" letter-spacing="0" transform="translate(0,1030.3622)" word-spacing="0"/></g></svg>