<svg xmlns="http://www.w3.org/2000/svg" xmlns:svg="http://www.w3.org/2000/svg" id="svg4062" width="24" height="24" version="1.1"><defs id="defs4064"><linearGradient id="linearGradient3257"><stop id="stop3259" offset="0" stop-color="#a50000" stop-opacity="1"/><stop id="stop3261" offset="1" stop-color="#e73800" stop-opacity="1"/></linearGradient></defs><metadata id="metadata4067"/><g id="layer1" transform="translate(1,-1029.3622)"><path id="rect4119" fill="#fff" fill-opacity="1" stroke="none" d="M 11,3 C 6.568,3 3,6.568 3,11 l 1,0 c 0,-3.878 3.122,-7 7,-7 3.878,0 7,3.122 7,7 0,3.878 -3.122,7 -7,7 l 0,1 c 4.432,0 8,-3.568 8,-8 0,-4.432 -3.568,-8 -8,-8 z m 0,6 C 9.8920013,9 9,9.8920013 9,11 l 1,0 c 0,-0.553999 0.446001,-1 1,-1 0.553999,0 1,0.446001 1,1 0,0.553999 -0.446001,1 -1,1 l 0,1 c 1.107999,0 2,-0.892001 2,-2 0,-1.1079987 -0.892001,-2 -2,-2 z" opacity="1" transform="translate(0,1030.3622)"/><path color="#000" style="text-decoration-line:none;text-decoration-style:solid;text-decoration-color:#000;isolation:auto;mix-blend-mode:normal;solid-color:#000;solid-opacity:1" id="path4250" fill="#fff" fill-opacity="1" fill-rule="nonzero" stroke="none" stroke-dasharray="none" stroke-dashoffset="0" stroke-linecap="butt" stroke-linejoin="miter" stroke-miterlimit="4" stroke-opacity="1" stroke-width="1" d="m 5.9609375,1042.3622 c 0.9950966,5.0543 1.9941406,1 1.9941406,1 -0.1571419,1.9991 1,1.7849 1,3.5 0,1.5 -1.1150048,2.5 -2.5,2.5 -1.229276,0 -2.2420239,-0.879 -2.4550781,-2.0449 0.147692,0.027 0.2993589,0.045 0.4550781,0.045 1.3849952,0 1.2979716,-0.2743 0.5253906,-1.0469 -1.0253906,-1.0254 1.0074576,-3.8054 0.9804688,-3.9531 z" clip-rule="nonzero" color-interpolation="sRGB" color-interpolation-filters="linearRGB" color-rendering="auto" display="inline" enable-background="accumulate" image-rendering="auto" opacity="1" overflow="visible" shape-rendering="auto" text-decoration="none" text-rendering="auto" visibility="visible"/></g></svg>