<svg xmlns="http://www.w3.org/2000/svg" xmlns:svg="http://www.w3.org/2000/svg" id="svg4355" width="24" height="24" version="1.1"><metadata id="metadata4360"/><g id="layer1" transform="translate(-543.57141,-741.93359)"><path id="path4162" fill="#fff" fill-opacity="1" stroke="none" d="M 3,3 3,4 3,7 4,7 4,4 7,4 7,3 3,3 Z m 8,0 -2,2 4,0 -2,-2 z m 4,0 0,1 3,0 0,3 1,0 0,-3 0,-1 -4,0 z m -8,4 0,7 0,1 1,0 7,0 0,-1 0,-7 -7,0 -1,0 z m 1,1 6,0 0,6 -6,0 0,-6 z M 5,9 3,11 5,13 5,9 Z m 12,0 0,4 2,-2 -2,-2 z m -14,6 0,3 0,1 1,0 3,0 0,-1 -3,0 0,-3 -1,0 z m 15,0 0,3 -3,0 0,1 3,0 1,0 0,-1 0,-3 -1,0 z m -9,2 2,2 2,-2 -4,0 z" opacity="1" transform="translate(544.57141,742.93359)"/></g></svg>