<svg xmlns="http://www.w3.org/2000/svg" xmlns:svg="http://www.w3.org/2000/svg" id="svg4359" width="24" height="24" version="1.1" viewBox="0 0 24 24"><metadata id="metadata4364"/><g id="layer1" transform="translate(1,-25)"><path id="path4286" fill="#fff" fill-opacity="1" stroke="none" stroke-dasharray="none" stroke-dashoffset="0" stroke-linecap="butt" stroke-linejoin="miter" stroke-miterlimit="4" stroke-opacity="1" stroke-width="3.567" d="m 11,3 a 8,8 0 0 0 -8,8 8,8 0 0 0 8,8 8,8 0 0 0 8,-8 8,8 0 0 0 -8,-8 z m 0,1 A 7,7 0 0 1 17.316406,8 7,7 0 0 1 17.701172,9 7,7 0 0 1 18,11 7,7 0 0 1 11,18 7,7 0 0 1 10.439453,17.972656 L 13.597656,12.5 A 3,3 0 0 0 13.996094,11 L 14,11 A 3,3 0 0 0 13.230469,9 l 4.470703,0 A 7,7 0 0 0 17.316406,8 L 11,8 11,7.9980469 A 3,3 0 0 0 9.4980469,8.3984375 3,3 0 0 0 8.1503906,10.064453 L 5.9179688,6.1992188 A 7,7 0 0 0 5.5078125,6.671875 7,7 0 0 1 5.9179688,6.1992188 7,7 0 0 1 11,4 Z M 5.2402344,7.0234375 8.4003906,12.496094 A 3,3 0 0 0 11,13.994141 l 0,0.002 a 3,3 0 0 0 0.617188,-0.06445 L 11,15 9.3808594,17.802734 A 7,7 0 0 0 10.025391,17.923828 7,7 0 0 1 9.3808594,17.802734 7,7 0 0 1 4,11 7,7 0 0 1 5.2402344,7.0234375 Z M 11,9 a 2,2 0 0 1 2,2 2,2 0 0 1 -2,2 2,2 0 0 1 -2,-2 2,2 0 0 1 2,-2 z m -0.890625,8.935547 a 7,7 0 0 0 0.316406,0.03516 7,7 0 0 1 -0.316406,-0.03516 z" opacity="1" transform="translate(0,26)"/></g></svg>