<svg xmlns="http://www.w3.org/2000/svg" xmlns:svg="http://www.w3.org/2000/svg" id="svg2" width="24" height="24" version="1.1" viewBox="0 0 24 24"><metadata id="metadata28"/><path id="rect31" fill="#fff" fill-opacity="1" fill-rule="evenodd" d="m 12,3.9999998 c -4.4319998,0 -7.9999998,3.5679999 -7.9999998,8.0000002 0,4.432 3.568,8 7.9999998,8 4.432,0 8,-3.568 8,-8 C 20,7.5679997 16.432,3.9999998 12,3.9999998 Z M 9.8750002,8.9062499 C 12.249109,8.8358519 15.08711,9.3645657 17,10.65625 c 0.305873,0.20745 0.39363,0.630857 0.1875,0.9375 -0.206091,0.305957 -0.601646,0.393508 -0.90625,0.1875 C 14.064222,10.284439 10.260178,9.9609286 8.0312502,10.5 c -0.359793,0.0862 -0.726902,-0.141609 -0.8125,-0.5000001 -0.087,-0.3577946 0.141568,-0.6949694 0.5,-0.78125 0.640261,-0.1546742 1.36488,-0.2890337 2.15625,-0.3125 z M 10.03125,11.40625 c 2.108486,-0.03873 4.316352,0.547596 5.90625,1.65625 0.251751,0.17633 0.299287,0.498138 0.125,0.75 -0.17701,0.251702 -0.498819,0.361756 -0.75,0.1875 -1.845634,-1.289634 -4.790199,-1.836452 -7.0937498,-1.28125 -0.298965,0.07268 -0.583556,-0.107283 -0.65625,-0.40625 -0.07201,-0.298924 0.108041,-0.584888 0.40625,-0.65625 0.658237,-0.158747 1.359671,-0.237102 2.0624998,-0.25 z m 0.0625,2.3125 c 1.894675,-0.02308 3.516471,0.463532 4.875,1.40625 0.202763,0.138692 0.232447,0.390993 0.09375,0.59375 -0.140693,0.201951 -0.39311,0.264929 -0.59375,0.125 -1.613331,-1.119229 -3.737893,-1.48482 -6.2499998,-1.0625 -0.241793,0.03984 -0.460173,-0.132532 -0.5,-0.375 -0.04052,-0.241831 0.132489,-0.459539 0.375,-0.5 0.687125,-0.115788 1.368441,-0.179811 1.9999998,-0.1875 z"/></svg>