<svg xmlns="http://www.w3.org/2000/svg" xmlns:svg="http://www.w3.org/2000/svg" id="svg4359" width="24" height="24" version="1.1" viewBox="0 0 24 24"><metadata id="metadata4364"/><g id="layer1" transform="translate(1,-25)"><path color="#000" style="text-decoration-line:none;text-decoration-style:solid;text-decoration-color:#000;white-space:normal;isolation:auto;mix-blend-mode:normal;solid-color:#000;solid-opacity:1" id="rect3423" fill="#fff" fill-opacity="1" fill-rule="nonzero" stroke="none" stroke-dasharray="none" stroke-dashoffset="0" stroke-linecap="butt" stroke-linejoin="miter" stroke-miterlimit="4" stroke-opacity="1" stroke-width="1" d="m 11,3 c -4.432,0 -8,3.568 -8,8 0,4.432 3.568,8 8,8 4.432,0 8,-3.568 8,-8 0,-4.432 -3.568,-8 -8,-8 z m 0,1 c 3.878,0 7,3.122 7,7 0,3.878 -3.122,7 -7,7 C 7.122,18 4,14.878 4,11 4,7.122 7.122,4 11,4 Z M 10.951172,6 7,9.9511719 V 11 h 2 v 3 h 1 3 V 13 11 H 14.634766 15 V 10 9.9511719 L 11.048828,6 H 11 Z M 11,7.3652344 13.634766,10 H 12 v 1 2 H 10 V 11 10 H 8.3652344 Z M 9,15 v 1 h 4 v -1 z" clip-rule="nonzero" color-interpolation="sRGB" color-interpolation-filters="linearRGB" color-rendering="auto" display="inline" enable-background="accumulate" image-rendering="auto" opacity="1" overflow="visible" shape-rendering="auto" text-decoration="none" text-rendering="auto" transform="translate(0,26)" visibility="visible"/></g></svg>