<svg xmlns="http://www.w3.org/2000/svg" xmlns:svg="http://www.w3.org/2000/svg" id="svg4359" width="24" height="24" version="1.1" viewBox="0 0 24 24"><metadata id="metadata4364"/><g id="layer1" transform="translate(1,-25)"><path id="rect3379" fill="#424854" fill-opacity="1" stroke="none" stroke-dasharray="none" stroke-miterlimit="4" stroke-opacity=".55" stroke-width="2.8" d="m 11,3 c -4.418278,0 -8,3.581722 -8,8 0,4.418278 3.581722,8 8,8 4.418278,0 8,-3.581722 8,-8 0,-4.418278 -3.581722,-8 -8,-8 z m 0,1 c 3.865993,0 7,3.1340068 7,7 0,3.865993 -3.134007,7 -7,7 C 7.1340068,18 4,14.865993 4,11 4,7.1340068 7.1340068,4 11,4 Z M 9,6 9,6.3261719 9,15.673828 9,16 10.087891,16 15,11.087891 15,11 15,10.912109 10.087891,6 10,6 9,6 Z M 10,7.3261719 13.673828,11 10,14.673828 10,7.3261719 Z" opacity="1" transform="translate(0,26)"/></g></svg>