<svg xmlns="http://www.w3.org/2000/svg" xmlns:svg="http://www.w3.org/2000/svg" id="svg2" width="24" height="24" version="1.1" viewBox="0 0 24 24"><metadata id="metadata7"/><g id="layer1" transform="translate(1,-1029.3622)"><path id="rect4151" fill="#424854" fill-opacity="1" stroke="none" stroke-dasharray="none" stroke-dashoffset="0" stroke-linecap="butt" stroke-linejoin="miter" stroke-miterlimit="4" stroke-opacity="1" stroke-width="3.677" d="m 12,3 0,8.5 A 3.4999995,3.5 0 0 0 15.5,15 3.4999995,3.5 0 0 0 19,11.5 3.4999995,3.5 0 0 0 15.5,8 3.4999995,3.5 0 0 0 13,9.0507812 L 13,3 12,3 Z M 6.5,7 A 3.4999995,3.5 0 0 0 3,10.5 3.4999995,3.5 0 0 0 6.5,14 3.4999995,3.5 0 0 0 9,12.949219 L 9,19 l 1,0 0,-8.5 A 3.4999995,3.5 0 0 0 6.5,7 Z m 0,1 A 2.4999998,2.5 0 0 1 9,10.5 2.4999998,2.5 0 0 1 6.5,13 2.4999998,2.5 0 0 1 4,10.5 2.4999998,2.5 0 0 1 6.5,8 Z m 9,1 A 2.4999998,2.5 0 0 1 18,11.5 2.4999998,2.5 0 0 1 15.5,14 2.4999998,2.5 0 0 1 13,11.5 2.4999998,2.5 0 0 1 15.5,9 Z" opacity="1" transform="translate(0,1030.3622)"/></g></svg>