<svg xmlns="http://www.w3.org/2000/svg" xmlns:svg="http://www.w3.org/2000/svg" id="svg2" width="16" height="16" version="1.1" viewBox="0 0 16 16"><metadata id="metadata20"/><path id="rect4171" fill="#bebebe" fill-opacity="1" stroke="none" stroke-dasharray="none" stroke-dashoffset="0" stroke-linecap="butt" stroke-linejoin="miter" stroke-miterlimit="4" stroke-opacity="1" stroke-width="3.567" d="M 2 2 L 2 3 L 2 13 L 2 14 L 14 14 L 14 13 L 14 6 L 14 4.7929688 L 11.205078 2 L 10 2 L 2 2 z M 3 3 L 5 3 L 5 7 L 11 7 L 11 3.2089844 L 13 5.2070312 L 13 13 L 11 13 L 11 9 L 5 9 L 5 13 L 3 13 L 3 3 z M 6 3 L 9 3 L 9 6 L 6 6 L 6 3 z M 6 10 L 10 10 L 10 13 L 6 13 L 6 10 z" opacity="1"/></svg>