<svg xmlns="http://www.w3.org/2000/svg" xmlns:svg="http://www.w3.org/2000/svg" xmlns:xlink="http://www.w3.org/1999/xlink" id="svg6391" width="48" height="48" version="1.1"><defs id="defs6393"><linearGradient id="linearGradient4269"><stop id="stop4271" offset="0" stop-color="#b9d9ff" stop-opacity="1"/><stop id="stop4273" offset="1" stop-color="#f6fbfe" stop-opacity="1"/></linearGradient><style id="style874" type="text/css"><![CDATA[
    .fil0 {fill:#1F1A17}
   ]]></style><linearGradient id="linearGradient4788"><stop id="stop4790" offset="0" stop-color="#000" stop-opacity="1"/><stop id="stop4792" offset="1" stop-color="#000" stop-opacity="0"/></linearGradient><linearGradient id="linearGradient4433"><stop id="stop4435" offset="0" stop-color="#2b3141" stop-opacity="1"/><stop id="stop4437" offset="1" stop-color="#394056" stop-opacity="1"/></linearGradient><linearGradient id="linearGradient4117-2" x1="93.261" x2="93.261" y1="-1047.751" y2="-1001.088" gradientTransform="translate(416.82086,469.8687)" gradientUnits="userSpaceOnUse" xlink:href="#linearGradient943-9"/><linearGradient id="linearGradient4439" x1="42.957" x2="42.957" y1="48" y2="33.999" gradientTransform="translate(481.7143,531.2193)" gradientUnits="userSpaceOnUse" xlink:href="#linearGradient4433"/><linearGradient id="linearGradient4786" x1="458.571" x2="472.509" y1="871.361" y2="862.361" gradientTransform="matrix(-1,0,0,-1,974.2857,1441.5807)" gradientUnits="userSpaceOnUse" xlink:href="#linearGradient4788"/><linearGradient id="linearGradient4219" x1="465.571" x2="458.571" y1="869.362" y2="862.363" gradientTransform="translate(57.14286,-297.14288)" gradientUnits="userSpaceOnUse" xlink:href="#linearGradient4266"/><linearGradient id="linearGradient4266"><stop id="stop4268" offset="0" stop-color="#2d8eff" stop-opacity="1"/><stop id="stop4270" offset="1" stop-color="#9cd3f4" stop-opacity="1"/></linearGradient><linearGradient id="linearGradient943-9"><stop id="stop945-30" offset="0" stop-color="#0059c1" stop-opacity="1"/><stop id="stop947-4" offset="1" stop-color="#118de7" stop-opacity="1"/></linearGradient><linearGradient id="linearGradient4267" x1="20.181" x2="20.181" y1="39" y2="9" gradientUnits="userSpaceOnUse" xlink:href="#linearGradient4269"/></defs><metadata id="metadata6396"/><g id="layer1" transform="translate(-481.71429,-531.2193)"><flowRoot id="flowRoot1042" fill="#000" fill-opacity="1" stroke="none" font-family="Impact" font-size="40" font-stretch="normal" font-style="normal" font-variant="normal" font-weight="bold" letter-spacing="0" transform="translate(481.71429,531.21931)" word-spacing="0" xml:space="preserve" style="line-height:125%;-inkscape-font-specification:Impact Bold"><flowRegion id="flowRegion1044"><rect id="rect1046" width="70.179" height="63.571" x="-79.821" y="2.107"/></flowRegion><flowPara id="flowPara1048">\documentclass[12pt]{article}</flowPara><flowPara id="flowPara1050"/></flowRoot><rect id="rect2991-1-7-3-1" width="48" height="48" x="481.714" y="-579.219" fill="url(#linearGradient4117-2)" fill-opacity="1" stroke="none" ry="1.945" transform="scale(1,-1)"/><path font-stretch="normal" style="line-height:125%;-inkscape-font-specification:Bebas Neue" id="path4281" fill="#000" fill-opacity=".059" stroke="none" d="m 513.88421,541.4193 c -4.48314,0 -6.78711,2.68236 -6.78711,7.375 0,8.3797 9.00781,9.51153 9.00781,15.54492 0,2.09492 -0.92222,2.84766 -2.38867,2.84766 -1.46644,0 -2.38867,-0.75274 -2.38867,-2.84766 l 0,-2.0957 -4.35742,0 0,1.80078 c 0,4.69263 2.34801,7.375 6.87305,7.375 4.52504,0 6.87109,-2.68237 6.87109,-7.375 0,-8.37971 -9.00977,-9.51153 -9.00977,-15.54492 0,-2.09493 0.83825,-2.89063 2.30469,-2.89063 1.46645,0 2.30469,0.7957 2.30469,2.89063 l 0,1.21484 4.35742,0 0,-0.91992 c 0,-4.69264 -2.30396,-7.375 -6.78711,-7.375 z m -23.16992,0.33594 0,29.66406 4.60937,0 0,-11.35352 2.17774,0 c 4.60884,0 6.87305,-2.55736 6.87305,-7.25 l 0,-3.8125 c 0,-4.69263 -2.26421,-7.24804 -6.87305,-7.24804 z m 4.60937,4.18945 2.17774,0 c 1.46645,0 2.26367,0.6707 2.26367,2.76563 l 0,4.39843 c 0,2.09493 -0.79722,2.76563 -2.26367,2.76563 l -2.17774,0 z" font-family="Bebas Neue" font-size="40" font-style="normal" font-variant="normal" font-weight="normal" letter-spacing="0" word-spacing="0"/><path font-stretch="normal" style="line-height:125%;-inkscape-font-specification:Bebas Neue" id="path4279" fill="#000" fill-opacity=".118" stroke="none" d="m 513.88421,541.0193 c -4.48314,0 -6.78711,2.68236 -6.78711,7.375 0,8.3797 9.00781,9.51153 9.00781,15.54492 0,2.09492 -0.92222,2.84766 -2.38867,2.84766 -1.46644,0 -2.38867,-0.75274 -2.38867,-2.84766 l 0,-2.0957 -4.35742,0 0,1.80078 c 0,4.69263 2.34801,7.375 6.87305,7.375 4.52504,0 6.87109,-2.68237 6.87109,-7.375 0,-8.37971 -9.00977,-9.51153 -9.00977,-15.54492 0,-2.09493 0.83825,-2.89063 2.30469,-2.89063 1.46645,0 2.30469,0.7957 2.30469,2.89063 l 0,1.21484 4.35742,0 0,-0.91992 c 0,-4.69264 -2.30396,-7.375 -6.78711,-7.375 z m -23.16992,0.33594 0,29.66406 4.60937,0 0,-11.35352 2.17774,0 c 4.60884,0 6.87305,-2.55736 6.87305,-7.25 l 0,-3.8125 c 0,-4.69263 -2.26421,-7.24804 -6.87305,-7.24804 z m 4.60937,4.18945 2.17774,0 c 1.46645,0 2.26367,0.6707 2.26367,2.76563 l 0,4.39843 c 0,2.09493 -0.79722,2.76563 -2.26367,2.76563 l -2.17774,0 z" font-family="Bebas Neue" font-size="40" font-style="normal" font-variant="normal" font-weight="normal" letter-spacing="0" word-spacing="0"/><path font-stretch="normal" style="line-height:125%;-inkscape-font-specification:Bebas Neue" id="path4275" fill="#000" fill-opacity=".235" stroke="none" d="m 513.88421,540.6193 c -4.48314,0 -6.78711,2.68236 -6.78711,7.375 0,8.3797 9.00781,9.51153 9.00781,15.54492 0,2.09492 -0.92222,2.84766 -2.38867,2.84766 -1.46644,0 -2.38867,-0.75274 -2.38867,-2.84766 l 0,-2.0957 -4.35742,0 0,1.80078 c 0,4.69263 2.34801,7.375 6.87305,7.375 4.52504,0 6.87109,-2.68237 6.87109,-7.375 0,-8.37971 -9.00977,-9.51153 -9.00977,-15.54492 0,-2.09493 0.83825,-2.89063 2.30469,-2.89063 1.46645,0 2.30469,0.7957 2.30469,2.89063 l 0,1.21484 4.35742,0 0,-0.91992 c 0,-4.69264 -2.30396,-7.375 -6.78711,-7.375 z m -23.16992,0.33594 0,29.66406 4.60937,0 0,-11.35352 2.17774,0 c 4.60884,0 6.87305,-2.55736 6.87305,-7.25 l 0,-3.8125 c 0,-4.69263 -2.26421,-7.24804 -6.87305,-7.24804 z m 4.60937,4.18945 2.17774,0 c 1.46645,0 2.26367,0.6707 2.26367,2.76563 l 0,4.39843 c 0,2.09493 -0.79722,2.76563 -2.26367,2.76563 l -2.17774,0 z" font-family="Bebas Neue" font-size="40" font-style="normal" font-variant="normal" font-weight="normal" letter-spacing="0" word-spacing="0"/><path id="path4255" fill="url(#linearGradient4267)" fill-opacity="1" stroke="none" d="m 32.169922,9 c -4.48314,0 -6.78711,2.68236 -6.78711,7.375 0,8.3797 9.007813,9.511532 9.007813,15.544922 0,2.09492 -0.922222,2.847656 -2.388672,2.847656 -1.46644,0 -2.388672,-0.752736 -2.388672,-2.847656 l 0,-2.095703 -4.357422,0 0,1.800781 c 0,4.69263 2.348007,7.375 6.873047,7.375 C 36.653946,39 39,36.31763 39,31.625 c 0,-8.37971 -9.009766,-9.511532 -9.009766,-15.544922 0,-2.09493 0.838248,-2.890625 2.304688,-2.890625 1.46645,0 2.304687,0.795695 2.304687,2.890625 l 0,1.214844 4.357422,0 0,-0.919922 C 38.957031,11.68236 36.653072,9 32.169922,9 Z M 9,9.3359375 9,39 l 4.609375,0 0,-11.353516 2.177734,0 c 4.60884,0 6.873047,-2.55736 6.873047,-7.25 l 0,-3.8125 c 0,-4.69263 -2.264207,-7.2480465 -6.873047,-7.2480465 z m 4.609375,4.1894535 2.177734,0 c 1.46645,0 2.263672,0.670695 2.263672,2.765625 l 0,4.398437 c 0,2.09493 -0.797222,2.765625 -2.263672,2.765625 l -2.177734,0 z" font-family="Bebas Neue" font-size="40" font-stretch="normal" font-style="normal" font-variant="normal" font-weight="normal" letter-spacing="0" transform="translate(481.71429,531.2193)" word-spacing="0" style="line-height:125%;-inkscape-font-specification:Bebas Neue"/><path id="path7515-3-4" fill="#fff" fill-opacity=".537" stroke="none" d="m 484.24553,531.87562 c -0.91709,0 -1.67115,0.6395 -1.84375,1.5 0.33561,-0.2799 0.77451,-0.4375 1.25,-0.4375 l 44.125,0 c 0.47549,0 0.91439,0.1576 1.25,0.4375 -0.1726,-0.8605 -0.92666,-1.5 -1.84375,-1.5 l -42.9375,0 z"/><path id="path4283" fill="#0462c4" fill-opacity=".314" stroke="none" d="M 32.294922 12.388672 C 30.828482 12.388672 29.990234 13.184367 29.990234 15.279297 C 29.990234 15.426529 29.999297 15.569366 30.009766 15.710938 C 30.108677 13.901681 30.921608 13.189453 32.294922 13.189453 C 33.761372 13.189453 34.599609 13.985148 34.599609 16.080078 L 34.599609 15.279297 C 34.599609 13.184367 33.761372 12.388672 32.294922 12.388672 z M 13.609375 12.724609 L 13.609375 13.525391 L 15.787109 13.525391 C 17.253559 13.525391 18.050781 14.196086 18.050781 16.291016 L 18.050781 15.490234 C 18.050781 13.395304 17.253559 12.724609 15.787109 12.724609 L 13.609375 12.724609 z M 25.396484 15.966797 C 25.392389 16.103158 25.382812 16.235044 25.382812 16.375 C 25.382812 24.540178 33.931249 25.826594 34.369141 31.46875 C 34.375768 31.352026 34.390625 31.245501 34.390625 31.119141 C 34.390625 25.182433 25.675997 23.986722 25.396484 15.966797 z M 34.599609 16.494141 L 34.599609 17.294922 L 38.957031 17.294922 L 38.957031 16.494141 L 34.599609 16.494141 z M 22.660156 19.595703 C 22.660156 24.288343 20.395949 26.845703 15.787109 26.845703 L 13.609375 26.845703 L 13.609375 27.646484 L 15.787109 27.646484 C 20.395949 27.646484 22.660156 25.089124 22.660156 20.396484 L 22.660156 19.595703 z M 25.255859 30.824219 L 25.255859 31.625 C 25.255859 36.31763 27.603866 39 32.128906 39 C 36.653946 39 39 36.31763 39 31.625 C 39 31.49072 38.990881 31.36303 38.986328 31.232422 C 38.851005 35.66876 36.519296 38.199219 32.128906 38.199219 C 27.603866 38.199219 25.255859 35.516849 25.255859 30.824219 z M 9 38.199219 L 9 39 L 13.609375 39 L 13.609375 38.199219 L 9 38.199219 z" font-family="Bebas Neue" font-size="40" font-stretch="normal" font-style="normal" font-variant="normal" font-weight="normal" letter-spacing="0" transform="translate(481.71429,531.2193)" word-spacing="0" style="line-height:125%;-inkscape-font-specification:Bebas Neue"/><path id="path4109" fill="#fff" fill-opacity=".235" stroke="none" d="M 32.169922 9 C 27.686782 9 25.382812 11.68236 25.382812 16.375 C 25.382812 16.441795 25.387536 16.504432 25.388672 16.570312 C 25.456491 12.00716 27.753792 9.4003906 32.169922 9.4003906 C 36.653072 9.4003906 38.957031 12.082751 38.957031 16.775391 L 38.957031 16.375 C 38.957031 11.68236 36.653072 9 32.169922 9 z M 9 9.3359375 L 9 9.7363281 L 15.787109 9.7363281 C 20.395949 9.7363281 22.660156 12.291745 22.660156 16.984375 L 22.660156 16.583984 C 22.660156 11.891354 20.395949 9.3359375 15.787109 9.3359375 L 9 9.3359375 z M 30 16.294922 C 29.998299 16.359161 29.990234 16.413598 29.990234 16.480469 C 29.990234 22.465286 38.851397 23.630859 38.994141 31.828125 C 38.995173 31.75938 39 31.694633 39 31.625 C 39 23.347433 30.214324 22.138515 30 16.294922 z M 18.050781 20.689453 C 18.050781 22.784383 17.253559 23.455078 15.787109 23.455078 L 13.609375 23.455078 L 13.609375 23.855469 L 15.787109 23.855469 C 17.253559 23.855469 18.050781 23.184774 18.050781 21.089844 L 18.050781 20.689453 z M 25.255859 29.824219 L 25.255859 30.224609 L 29.613281 30.224609 L 29.613281 29.824219 L 25.255859 29.824219 z M 29.613281 31.919922 L 29.613281 32.320312 C 29.613281 34.415233 30.535513 35.167969 32.001953 35.167969 C 33.468403 35.167969 34.390625 34.415233 34.390625 32.320312 C 34.390625 32.24304 34.383777 32.16944 34.380859 32.09375 C 34.327549 34.048309 33.424437 34.767578 32.001953 34.767578 C 30.535513 34.767578 29.613281 34.014842 29.613281 31.919922 z" font-family="Bebas Neue" font-size="40" font-stretch="normal" font-style="normal" font-variant="normal" font-weight="normal" letter-spacing="0" transform="translate(481.71429,531.2193)" word-spacing="0" style="line-height:125%;-inkscape-font-specification:Bebas Neue"/><path id="path4784" fill="url(#linearGradient4786)" fill-opacity="1" stroke="none" d="m 515.7143,579.2193 0,-14.00073 -14,14 z" opacity=".1"/><path id="path4130" fill="url(#linearGradient4219)" fill-opacity="1" stroke="none" d="m 515.7143,565.21857 0,14.00073 14,-14 z"/><path id="path4303" fill="url(#linearGradient4439)" fill-opacity="1" stroke="none" d="m 529.7143,565.2193 -14,14 12.05469,0 c 1.07727,0 1.94531,-0.86804 1.94531,-1.94531 l 0,-12.05469 z"/><path id="rect846-0-2" fill="#000" fill-opacity="1" stroke="none" d="m 481.71428,576.21932 0,1.0625 c 0,1.0773 0.86022,1.9375 1.9375,1.9375 l 44.125,0 c 1.07728,0 1.9375,-0.8602 1.9375,-1.9375 l 0,-1.0625 c 0,1.0773 -0.86022,1.9375 -1.9375,1.9375 l -44.125,0 c -1.07728,0 -1.9375,-0.8602 -1.9375,-1.9375 z"/><path id="rect4280-1-6" fill="#000" fill-opacity=".392" stroke="none" d="m 483.65178,531.21932 c -1.07728,0 -1.9375,0.8602 -1.9375,1.9375 l 0,43.0625 c 0,0.7934 0.48002,1.449 1.15625,1.75 -0.30934,-0.3333 -0.5,-0.7824 -0.5,-1.2812 l 0,-42.9375 c 0,-1.0482 0.8269,-1.875 1.875,-1.875 l 42.9375,0 c 1.0481,0 1.875,0.8268 1.875,1.875 l 0,42.9375 c 0,0.4988 -0.19066,0.9479 -0.5,1.2812 0.67623,-0.301 1.15625,-0.9566 1.15625,-1.75 l 0,-43.0625 c 0,-1.0773 -0.86022,-1.9375 -1.9375,-1.9375 l -44.125,0 z"/></g></svg>