<svg xmlns="http://www.w3.org/2000/svg" xmlns:svg="http://www.w3.org/2000/svg" id="svg2" width="22" height="22" version="1.1" viewBox="0 0 6.209 6.209"><metadata id="metadata12"/><path id="path4157" fill="#fff" fill-opacity="1" stroke="none" stroke-dasharray="none" stroke-dashoffset="0" stroke-linecap="butt" stroke-linejoin="miter" stroke-miterlimit="4" stroke-opacity="1" stroke-width="3.567" d="M 10.285156 3.0371094 A 8.0000008 8.0000008 0 0 0 9.2128906 3.2128906 A 8.000001 8.000001 0 0 0 9.109375 3.7734375 A 8.0000008 7.9999999 0 0 1 9.2109375 3.2109375 A 8.0000009 8.0000009 0 0 0 8.8007812 3.3261719 A 6.9999996 6.9999996 0 0 1 8.8203125 3.3046875 A 8.0000007 8.0000007 0 0 0 8.5566406 3.3945312 A 8.0000009 8.0000009 0 0 0 8.3046875 3.4824219 A 8.0000007 8.0000007 0 0 0 7.8554688 3.6601562 A 8.0000009 8.0000009 0 0 0 7.5273438 3.8085938 A 8.0000007 8.0000007 0 0 0 7.0527344 4.0527344 A 7.9999999 7.9999999 0 0 0 7.0527344 4.0546875 A 8.0000009 8.0000009 0 0 0 3 11 A 8.0000009 8.0000009 0 0 0 11 19 A 8.0000009 8.0000009 0 0 0 17.927734 14.964844 A 7.9999999 7.9999999 0 0 0 17.951172 14.951172 A 8.0000007 8.0000007 0 0 0 18.068359 14.716797 A 8.0000009 8.0000009 0 0 0 18.177734 14.501953 A 8.0000007 8.0000007 0 0 0 18.408203 13.982422 A 8.0000009 8.0000009 0 0 0 18.488281 13.771484 A 8.0000007 8.0000007 0 0 0 18.6875 13.1875 A 6.9999996 6.9999996 0 0 1 18.679688 13.193359 A 8.0000009 8.0000009 0 0 0 18.787109 12.789062 A 8.000001 8.000001 0 0 0 18.789062 12.789062 A 8.0000008 8.0000008 0 0 0 18.964844 11.712891 A 7.0000008 7.0000008 0 0 1 17 12 A 7.0000008 7.0000008 0 0 1 10 5 A 7.0000008 7.0000008 0 0 1 10.285156 3.0371094 z M 9.0566406 4.1328125 A 8.000001 8.000001 0 0 0 9 5 A 8.000001 8.000001 0 0 0 10.619141 9.8085938 L 7 8 A 6.9999996 6.9999996 0 0 1 7.796875 4.7851562 A 7.0000007 7.0000007 0 0 1 9.0351562 4.2871094 A 8.0000008 7.9999999 0 0 1 9.0566406 4.1328125 z M 6.3203125 5.8105469 A 7.9999999 7.9999999 0 0 0 6 8 A 7.9999999 7.9999999 0 0 0 14 16 A 7.9999999 7.9999999 0 0 0 16.183594 15.6875 A 7.0000007 7.0000007 0 0 1 11 18 A 7.0000007 7.0000007 0 0 1 4 11 A 7.0000007 7.0000007 0 0 1 6.3203125 5.8105469 z M 7.2988281 10 L 10.763672 10 A 8.000001 8.000001 0 0 0 11.951172 11.193359 L 11.154297 14.386719 A 6.9999996 6.9999996 0 0 1 7.2988281 10 z M 12.070312 11.285156 A 8.000001 8.000001 0 0 0 17 13 A 8.000001 8.000001 0 0 0 17.714844 12.962891 A 7.0000007 7.0000007 0 0 1 17.216797 14.201172 A 6.9999996 6.9999996 0 0 1 14 15 A 6.9999996 6.9999996 0 0 1 12.978516 14.916016 L 12.070312 11.285156 z" opacity="1" transform="scale(0.28222223)"/></svg>