<svg xmlns="http://www.w3.org/2000/svg" xmlns:svg="http://www.w3.org/2000/svg" id="svg2" width="22" height="22" version="1.1" viewBox="0 0 6.209 6.209"><metadata id="metadata12"/><path id="path4188" fill="#fff" fill-opacity="1" fill-rule="evenodd" stroke="none" stroke-linecap="butt" stroke-linejoin="miter" stroke-opacity="1" stroke-width="1" d="M 19 3 L 14 8.296875 L 16 10 L 19 3 z M 6 7 L 3 10 L 3 11 L 6 10 L 8 18 L 10 16.59375 L 18.972656 19 L 16 12 L 15 11 L 10 15 L 7 7.7597656 L 6 7 z M 11 9 L 9 10 L 11 13 L 14.308594 10 L 11 9 z" opacity=".5" transform="scale(0.28222223)"/><path id="path4152" fill="#fff" fill-opacity="1" fill-rule="evenodd" stroke="none" stroke-linecap="butt" stroke-linejoin="miter" stroke-opacity="1" stroke-width="1" d="M 6 7 L 3 10 L 3 11 L 6 10 L 8 18 L 10 16.59375 L 14 17.666016 L 14 11.800781 L 10 15 L 7 7.7597656 L 6 7 z M 11 9 L 9 10 L 11 13 L 14 10.279297 L 14 9.90625 L 11 9 z" opacity="1" transform="scale(0.28222223)"/></svg>