<svg xmlns="http://www.w3.org/2000/svg" xmlns:svg="http://www.w3.org/2000/svg" id="svg4359" width="22" height="22" version="1.1" viewBox="0 0 22 22"><metadata id="metadata4364"/><g id="layer1" transform="translate(0,-26)"><path id="rect4161" fill="#fff" fill-opacity="1" stroke="none" stroke-dasharray="none" stroke-miterlimit="4" stroke-opacity="1" stroke-width=".1" d="M 3 3 L 3 11 L 3 12 L 3 13 L 5 13 L 5 15 L 5 16 L 5 17 L 10 17 L 11 17 L 13 17 L 19 17 L 19 15 L 19 13 L 19 7 L 17 7 L 17 3 L 4 3 L 3 3 z M 4 4 L 16 4 L 16 7 L 6 7 L 5 7 L 5 11 L 4 11 L 4 4 z M 6 8 L 16 8 L 17 8 L 18 8 L 18 13 L 18 15 L 13 15 L 6 15 L 6 13 L 6 11 L 6 8 z M 11 18 C 10.446 18 10 18.446 10 19 L 14.099609 19 C 14.099609 18.446 13.653609 18 13.099609 18 L 11 18 z" opacity="1" transform="translate(0,26)"/></g></svg>