<svg xmlns="http://www.w3.org/2000/svg" xmlns:svg="http://www.w3.org/2000/svg" id="svg2" width="22" height="22" version="1.1" viewBox="0 0 22 22"><metadata id="metadata12"/><path id="path4153" fill="#fff" fill-opacity="1" fill-rule="evenodd" stroke="none" stroke-linecap="butt" stroke-linejoin="miter" stroke-opacity="1" stroke-width="1" d="M 8,3 7.8398438,3.2597656 11,8 l 2.666016,3.996094 -0.002,0 L 14.333984,13 20,13 20,12.998047 20,12.75 14,3 11,3 8,3 Z" opacity=".5"/><path id="path4151" fill="#fff" fill-opacity="1" fill-rule="evenodd" stroke="none" stroke-linecap="butt" stroke-linejoin="miter" stroke-opacity="1" stroke-width="1" d="M 7.2636719,4.1972656 2,12.75 l 0,0.248047 2.4238281,4.847656 4.8671875,-7.289062 0.00391,0.002 1.1054691,-1.6582034 -3.1367191,-4.703125 z" opacity=".5"/><path id="path4211" fill="#fff" fill-opacity="1" fill-rule="evenodd" stroke="none" stroke-linecap="butt" stroke-linejoin="miter" stroke-opacity="1" stroke-width="1" d="M 8.1933594,14 4.9375,18.875 5,19 l 6,0 6,0 2.5,-5 -4.5,0 -4,0 -2.8066406,0 z" opacity=".5"/></svg>