<svg xmlns="http://www.w3.org/2000/svg" xmlns:svg="http://www.w3.org/2000/svg" id="svg2" width="22" height="22" version="1.1" viewBox="0 0 22 22"><metadata id="metadata12"/><path id="path4211" fill="#fff" fill-opacity="1" fill-rule="evenodd" stroke="none" stroke-linecap="butt" stroke-linejoin="miter" stroke-opacity="1" stroke-width="1" d="M 8 3 L 7.8398438 3.2597656 L 11 8 L 13.666016 11.996094 L 13.664062 11.996094 L 14.333984 13 L 20 13 L 20 12.998047 L 20 12.75 L 14 3 L 11 3 L 8 3 z M 7.2636719 4.1972656 L 2 12.75 L 2 12.998047 L 4.4238281 17.845703 L 9.2910156 10.556641 L 9.2949219 10.558594 L 10.400391 8.9003906 L 7.2636719 4.1972656 z M 8.1933594 14 L 4.9375 18.875 L 5 19 L 11 19 L 17 19 L 19.5 14 L 15 14 L 11 14 L 8.1933594 14 z"/></svg>