<svg xmlns="http://www.w3.org/2000/svg" xmlns:svg="http://www.w3.org/2000/svg" id="svg4359" width="22" height="22" version="1.1" viewBox="0 0 22 22"><defs id="defs4361"><linearGradient id="linearGradient3257"><stop id="stop3259" offset="0" stop-color="#a50000" stop-opacity="1"/><stop id="stop3261" offset="1" stop-color="#e73800" stop-opacity="1"/></linearGradient></defs><metadata id="metadata4364"/><g id="layer1" transform="translate(0,-26)"><path id="rect4163" fill="#fff" fill-opacity="1" stroke="none" d="M 11,3.1054688 3,17.996094 3,19 3.5957031,19 18.404297,19 19,19 l 0,-1 0,-0.0039 z M 11,5.2167969 17.867188,18 4.1328125,18 Z" opacity="1" transform="translate(0,26)"/><path id="rect4147" fill="#fff" fill-opacity="1" stroke="none" stroke-dasharray="none" stroke-dashoffset="0" stroke-linecap="butt" stroke-linejoin="miter" stroke-miterlimit="4" stroke-opacity="1" stroke-width="3.549" d="m 11,35 c -0.54828,0 -1.0800985,0.453539 -0.989959,1 l 0.495955,3 c 0.09014,0.546462 0.239796,1 0.494004,1 0.254208,0 0.403864,-0.453538 0.494004,-1 l 0.495955,-3 C 12.080099,35.453539 11.54828,35 11,35 Z m 0,6 A 0.99972182,1 0 0 0 10.000278,42 0.99972182,1 0 0 0 11,43 0.99972182,1 0 0 0 11.999722,42 0.99972182,1 0 0 0 11,41 Z" opacity="1"/></g></svg>