<svg xmlns="http://www.w3.org/2000/svg" xmlns:svg="http://www.w3.org/2000/svg" id="svg2" width="22" height="22" version="1.1" viewBox="0 0 22 22"><metadata id="metadata7"/><g id="layer1" transform="translate(0,-1030.3622)"><path color="#000" style="text-decoration-line:none;text-decoration-style:solid;text-decoration-color:#000;isolation:auto;mix-blend-mode:normal;solid-color:#000;solid-opacity:1" id="rect4148" fill="#fff" fill-opacity="1" fill-rule="nonzero" stroke="none" stroke-dasharray="none" stroke-dashoffset="0" stroke-linecap="butt" stroke-linejoin="miter" stroke-miterlimit="4" stroke-opacity="1" stroke-width="1" d="M 3 3 L 3 19 L 19 19 L 19 3 L 3 3 z M 4 4 L 18 4 L 18 16 L 4 16 L 4 4 z M 10.236328 5 L 6.4179688 15 L 7.8457031 15 L 8.7558594 12.435547 L 13.263672 12.435547 L 14.175781 15 L 15.582031 15 L 11.769531 5 L 10.236328 5 z M 11 6.3339844 L 12.841797 11.310547 L 9.1640625 11.310547 L 11 6.3339844 z M 4 17 L 18 17 L 18 18 L 4 18 L 4 17 z" clip-rule="nonzero" color-interpolation="sRGB" color-interpolation-filters="linearRGB" color-rendering="auto" display="inline" enable-background="accumulate" image-rendering="auto" opacity="1" overflow="visible" shape-rendering="auto" text-decoration="none" text-rendering="auto" transform="translate(0,1030.3622)" visibility="visible"/></g></svg>