<svg xmlns="http://www.w3.org/2000/svg" xmlns:svg="http://www.w3.org/2000/svg" id="svg2" width="22" height="22" version="1.1" viewBox="0 0 22 22"><metadata id="metadata12"/><path color="#000" style="text-decoration-line:none;text-decoration-style:solid;text-decoration-color:#000;isolation:auto;mix-blend-mode:normal;solid-color:#000;solid-opacity:1" id="rect4192" fill="#fff" fill-opacity="1" fill-rule="nonzero" stroke="none" stroke-dasharray="none" stroke-dashoffset="0" stroke-linecap="butt" stroke-linejoin="miter" stroke-miterlimit="4" stroke-opacity="1" stroke-width="1" d="M 3 3 L 3 9 L 4 9 L 4 4 L 18 4 L 18 9 L 19 9 L 19 3 L 3 3 z M 7 5 C 5.892 5 5 5.892 5 7 C 5 8.108 5.892 9 7 9 C 8.108 9 9 8.108 9 7 C 9 5.892 8.108 5 7 5 z M 7 6 C 7.554 6 8 6.446 8 7 C 8 7.554 7.554 8 7 8 C 6.446 8 6 7.554 6 7 C 6 6.446 6.446 6 7 6 z M 5.2929688 9.0996094 L 3 11.392578 L 3.0078125 11.400391 L 3 11.400391 L 3 12.400391 L 3 13.400391 L 3 19 L 19 19 L 19 13.21875 L 19 11.802734 L 18.003906 10.806641 L 17.292969 10.099609 L 15.990234 11.400391 L 14.40625 12.986328 L 13.111328 11.693359 L 10.814453 9.4003906 L 10.8125 9.4023438 L 10.511719 9.1015625 L 8.21875 11.392578 L 7.9042969 11.707031 L 7.5898438 11.392578 L 6.0039062 9.8066406 L 5.2929688 9.0996094 z M 5.2949219 10.513672 L 6.8808594 12.099609 L 7.9042969 13.121094 L 8.9257812 12.099609 L 10.513672 10.513672 L 12.402344 12.400391 L 14.40625 14.400391 L 15.113281 13.693359 L 15.992188 12.8125 L 15.998047 12.818359 L 15.998047 13.400391 L 15.998047 14.400391 L 16 14.400391 L 16 12.820312 L 16 12.808594 L 17.294922 11.513672 L 18 12.21875 L 18 15 L 4 15 L 4 12 L 4 11.808594 L 5.2949219 10.513672 z M 4 16 L 18 16 L 18 18 L 4 18 L 4 16 z" clip-rule="nonzero" color-interpolation="sRGB" color-interpolation-filters="linearRGB" color-rendering="auto" display="inline" enable-background="accumulate" image-rendering="auto" opacity="1" overflow="visible" shape-rendering="auto" text-decoration="none" text-rendering="auto" visibility="visible"/></svg>