<svg xmlns="http://www.w3.org/2000/svg" xmlns:svg="http://www.w3.org/2000/svg" id="svg2" width="22" height="22" version="1.1" viewBox="0 0 22 22"><metadata id="metadata7"/><g id="layer1" transform="translate(0,-1030.3622)"><path color="#000" style="text-decoration-line:none;text-decoration-style:solid;text-decoration-color:#000;isolation:auto;mix-blend-mode:normal;solid-color:#000;solid-opacity:1" id="rect4146" fill="#fff" fill-opacity="1" fill-rule="nonzero" stroke="none" stroke-dasharray="none" stroke-dashoffset="0" stroke-linecap="butt" stroke-linejoin="miter" stroke-miterlimit="4" stroke-opacity="1" stroke-width="1" d="m 2,3 0,13 7,0 0,2 -1,0 c -0.7410731,0 -1.379047,0.404199 -1.7246094,1 l 9.4492184,0 C 15.379047,18.404199 14.741073,18 14,18 l -1,0 0,-2 7,0 0,-13 z m 1,1 16,0 0,11 -16,0 z m 7,12 2,0 0,2 -2,0 z" clip-rule="nonzero" color-interpolation="sRGB" color-interpolation-filters="linearRGB" color-rendering="auto" display="inline" enable-background="accumulate" image-rendering="auto" opacity="1" overflow="visible" shape-rendering="auto" text-decoration="none" text-rendering="auto" transform="translate(0,1030.3622)" visibility="visible"/><path id="rect4151" fill="#fff" fill-opacity="1" stroke="none" stroke-dasharray="none" stroke-dashoffset="0" stroke-linecap="butt" stroke-linejoin="miter" stroke-miterlimit="4" stroke-opacity="1" stroke-width="3.567" d="M 8.5 7 L 8.5 8 L 8.5 9.96875 C 8.49321 9.9799533 8.4831418 9.9886564 8.4765625 10 L 11 10 C 11.554 10 12 10.446 12 11 C 12 11.554 11.554 12 11 12 L 9 12 L 8.4589844 12.541016 C 8.8001508 12.819489 9.2239398 13 9.7011719 13 L 11 13 C 12.107995 13 13 12.107995 13 11 C 13 9.8920048 12.107995 9 11 9 L 10 9 L 9.5 9 L 9.5 8 L 12.5 8 L 12.5 7 L 8.5 7 z M 7.9765625 12 C 7.9831418 12.011344 7.99321 12.020047 8 12.03125 L 8 12 L 7.9765625 12 z" opacity="1" transform="translate(0,1030.3622)"/></g></svg>