<svg xmlns="http://www.w3.org/2000/svg" xmlns:svg="http://www.w3.org/2000/svg" id="svg2" width="22" height="22" version="1.1" viewBox="0 0 22 22"><metadata id="metadata7"/><g id="layer1" transform="translate(0,-1030.3622)"><path color="#000" style="text-decoration-line:none;text-decoration-style:solid;text-decoration-color:#000;isolation:auto;mix-blend-mode:normal;solid-color:#000;solid-opacity:1" id="rect4146" fill="#fff" fill-opacity="1" fill-rule="nonzero" stroke="none" stroke-dasharray="none" stroke-dashoffset="0" stroke-linecap="butt" stroke-linejoin="miter" stroke-miterlimit="4" stroke-opacity="1" stroke-width="1" d="m 2,3 0,13 7,0 0,2 -1,0 c -0.7410731,0 -1.379047,0.404199 -1.7246094,1 l 9.4492184,0 C 15.379047,18.404199 14.741073,18 14,18 l -1,0 0,-2 7,0 0,-13 z m 1,1 16,0 0,11 -16,0 z m 7,12 2,0 0,2 -2,0 z" clip-rule="nonzero" color-interpolation="sRGB" color-interpolation-filters="linearRGB" color-rendering="auto" display="inline" enable-background="accumulate" image-rendering="auto" opacity="1" overflow="visible" shape-rendering="auto" text-decoration="none" text-rendering="auto" transform="translate(0,1030.3622)" visibility="visible"/><path id="rect4151" fill="#fff" fill-opacity="1" stroke="none" stroke-dasharray="none" stroke-dashoffset="0" stroke-linecap="butt" stroke-linejoin="miter" stroke-miterlimit="4" stroke-opacity="1" stroke-width="3.567" d="M 10.5 7 C 9.392 7 8.5 7.892 8.5 9 L 8.5 11 C 8.5 12.108 9.392005 13 10.5 13 L 11 13 C 12.107995 13 13 12.107995 13 11 C 13 9.8920048 12.107995 9 11 9 L 10.5 9 C 10.326166 9 10.16059 9.0290105 10 9.0703125 L 10 9.0644531 C 9.9758148 9.0706219 9.9555188 9.0848881 9.9316406 9.0917969 C 9.8137048 9.126737 9.7013748 9.1696773 9.59375 9.2246094 C 9.5637908 9.2394561 9.5290007 9.245262 9.5 9.2617188 L 9.5 9 C 9.5 8.4459904 9.9459904 8 10.5 8 L 12.724609 8 C 12.379048 7.4042011 11.74107 7 11 7 L 10.5 7 z M 10.5 10 L 11 10 C 11.554 10 12 10.446 12 11 C 12 11.554 11.554 12 11 12 L 10.5 12 C 9.946 12 9.5 11.554 9.5 11 C 9.5 10.862832 9.5285723 10.732078 9.578125 10.613281 C 9.5798823 10.609068 9.5821715 10.605746 9.5839844 10.601562 C 9.6278509 10.500346 9.6925593 10.412433 9.765625 10.332031 C 9.7818264 10.314983 9.7951541 10.29521 9.8125 10.279297 C 9.8131776 10.278675 9.8137739 10.277964 9.8144531 10.277344 C 9.9935205 10.107558 10.232615 10 10.5 10 z" opacity="1" transform="translate(0,1030.3622)"/></g></svg>