<svg xmlns="http://www.w3.org/2000/svg" xmlns:svg="http://www.w3.org/2000/svg" id="svg2" width="22" height="22" version="1.1" viewBox="0 0 22 22"><metadata id="metadata7"/><g id="layer1" transform="translate(0,-1030.3622)"><path id="path4158" fill="#fff" fill-opacity="1" stroke="none" stroke-dasharray="none" stroke-dashoffset="0" stroke-linecap="butt" stroke-linejoin="miter" stroke-miterlimit="4" stroke-opacity="1" stroke-width="3.567" d="m 15.5,1033.3622 a 9.5,9.5 0 0 0 -9.5,9.5 9.5,9.5 0 0 0 0.025391,0.5 l 0.9921875,0 A 8.5,8.5 0 0 1 7,1042.8622 a 8.5,8.5 0 0 1 8.5,-8.5 8.5,8.5 0 0 1 0.5,0.025 l 0,-1.0078 a 9.5,9.5 0 0 0 -0.5,-0.018 z" opacity=".5"/><path id="path4156" fill="#fff" fill-opacity="1" stroke="none" stroke-dasharray="none" stroke-dashoffset="0" stroke-linecap="butt" stroke-linejoin="miter" stroke-miterlimit="4" stroke-opacity="1" stroke-width="3.567" d="m 15.5,1036.3622 a 6.5,6.5 0 0 0 -6.5,6.5 6.5,6.5 0 0 0 0.025391,0.5 l 1.0019534,0 a 5.5,5.5 0 0 1 -0.02734,-0.5 5.5,5.5 0 0 1 5.5,-5.5 5.5,5.5 0 0 1 0.5,0.025 l 0,-1.0039 a 6.5,6.5 0 0 0 -0.5,-0.022 z" opacity="1"/><path id="path4154" fill="#fff" fill-opacity="1" stroke="none" stroke-dasharray="none" stroke-dashoffset="0" stroke-linecap="butt" stroke-linejoin="miter" stroke-miterlimit="4" stroke-opacity="1" stroke-width="3.567" d="M 14.5 10 A 1.5 1.5 0 0 0 13 11.5 A 1.5 1.5 0 0 0 14.5 13 A 1.5 1.5 0 0 0 16 11.5 A 1.5 1.5 0 0 0 14.5 10 z M 14.5 11 A 0.5 0.5 0 0 1 15 11.5 A 0.5 0.5 0 0 1 14.5 12 A 0.5 0.5 0 0 1 14 11.5 A 0.5 0.5 0 0 1 14.5 11 z M 14 14 L 14 19 L 15 19 L 15 14 L 14 14 z" opacity="1" transform="translate(0,1030.3622)"/></g></svg>