<svg xmlns="http://www.w3.org/2000/svg" xmlns:svg="http://www.w3.org/2000/svg" id="svg2" width="22" height="22" version="1.1" viewBox="0 0 22 22"><metadata id="metadata12"/><path color="#000" style="text-decoration-line:none;text-decoration-style:solid;text-decoration-color:#000;isolation:auto;mix-blend-mode:normal;solid-color:#000;solid-opacity:1" id="rect4169" fill="#fff" fill-opacity="1" fill-rule="nonzero" stroke="none" stroke-dasharray="none" stroke-dashoffset="0" stroke-linecap="butt" stroke-linejoin="miter" stroke-miterlimit="4" stroke-opacity="1" stroke-width="1" d="M 11 3 C 9.892 3 9 3.892 9 5 L 9 6.4199219 C 7.2328358 7.1893874 6 8.9431801 6 11 L 6 15 L 4 15 L 4 16 L 6 16 L 7 16 L 9 16 L 9 17 C 9 18.108 9.892 19 11 19 C 12.108 19 13 18.108 13 17 L 13 16 L 15 16 L 16 16 L 18 16 L 18 15 L 16 15 L 16 11 C 16 8.9431801 14.767164 7.1893874 13 6.4199219 L 13 5 C 13 3.892 12.108 3 11 3 z M 11 4 C 11.554 4 12 4.446 12 5 L 12 6.0996094 C 11.676916 6.0344951 11.342832 6 11 6 C 10.657168 6 10.323084 6.0344951 10 6.0996094 L 10 5 C 10 4.446 10.446 4 11 4 z M 11 7 C 11.34745 7 11.679001 7.0561689 12 7.1386719 C 12.007424 7.1405801 12.014077 7.1445349 12.021484 7.1464844 C 12.366445 7.2373839 12.690715 7.373082 12.992188 7.546875 C 12.994705 7.5483261 12.997486 7.5493248 13 7.5507812 C 14.192708 8.2416195 15 9.5170286 15 11 L 15 15 L 7 15 L 7 11 C 7 9.5170286 7.8072919 8.2416195 9 7.5507812 C 9.0025171 7.5493233 9.0052923 7.5483278 9.0078125 7.546875 C 9.3092855 7.373082 9.6335551 7.2373839 9.9785156 7.1464844 C 9.9859512 7.144525 9.9925447 7.140588 10 7.1386719 C 10.320999 7.0561689 10.65255 7 11 7 z M 10 16 L 12 16 L 12 17 C 12 17.554 11.554 18 11 18 C 10.446 18 10 17.554 10 17 L 10 16 z" clip-rule="nonzero" color-interpolation="sRGB" color-interpolation-filters="linearRGB" color-rendering="auto" display="inline" enable-background="accumulate" image-rendering="auto" opacity="1" overflow="visible" shape-rendering="auto" text-decoration="none" text-rendering="auto" visibility="visible"/><path color="#000" style="text-decoration-line:none;text-decoration-style:solid;text-decoration-color:#000;isolation:auto;mix-blend-mode:normal;solid-color:#000;solid-opacity:1" id="rect4225" fill="#229df0" fill-opacity="1" fill-rule="nonzero" stroke="none" stroke-dasharray="none" stroke-dashoffset="0" stroke-linecap="butt" stroke-linejoin="miter" stroke-miterlimit="4" stroke-opacity="1" stroke-width="1" d="M 14 3 L 14 4 L 14 7 L 14 8 L 15 8 L 18 8 L 19 8 L 19 7 L 19 4 L 19 3 L 18 3 L 15 3 L 14 3 z M 16 3.5292969 L 17 3.5292969 L 17 5.9335938 L 16 5.9335938 L 16 3.5292969 z M 16.5 6.5 C 16.777 6.5 17 6.723 17 7 C 17 7.277 16.777 7.5 16.5 7.5 C 16.223 7.5 16 7.277 16 7 C 16 6.723 16.223 6.5 16.5 6.5 z" clip-rule="nonzero" color-interpolation="sRGB" color-interpolation-filters="linearRGB" color-rendering="auto" display="inline" enable-background="accumulate" image-rendering="auto" opacity="1" overflow="visible" shape-rendering="auto" text-decoration="none" text-rendering="auto" visibility="visible"/></svg>