<svg xmlns="http://www.w3.org/2000/svg" xmlns:svg="http://www.w3.org/2000/svg" id="svg4359" width="22" height="22" version="1.1" viewBox="0 0 22 22"><metadata id="metadata4364"/><g id="layer1" transform="translate(0,-26)"><path id="rect4186" fill="#fff" fill-opacity="1" stroke="none" d="m 11,3 -0.707031,0.7070312 -0.002,0 L 3,11 4.4160156,11 8,11 8,17 9,17 9,11 9,10 5.4160156,10 11,4.4160156 16.583984,10 13,10 l 0,1 0,6 1,0 0,-6 3.583984,0 L 18,11 l 1,0 -1,-1 -6.291016,-6.2929688 -0.002,0 z m -5,15 0,1 10,0 0,-1 z" opacity="1" transform="translate(0,26)"/></g></svg>