<svg xmlns="http://www.w3.org/2000/svg" xmlns:svg="http://www.w3.org/2000/svg" id="svg2" width="22" height="22" version="1.1" viewBox="0 0 22 22"><metadata id="metadata28"/><path id="path3022" fill="#fff" fill-opacity="1" stroke="none" stroke-dasharray="none" stroke-miterlimit="4" stroke-opacity="1" stroke-width="0" d="M 2 3 L 2 9.6972656 C 2 9.6972656 5.3435623 6.3547497 9.25 6.0039062 C 9.3359999 5.9977963 9.414 6.0059463 9.5 6.0039062 C 9.670431 5.9980856 9.8342076 6.0083222 10 6.0136719 L 10 3 L 2 3 z M 10 6.0136719 L 10 6.9726562 C 12.935103 7.1620329 14.875 9.7597656 14.875 9.7597656 C 14.875 9.7597656 12.566999 13.007812 10.125 13.007812 C 10.081697 13.007812 10.042425 12.993948 10 12.990234 L 10 13.830078 C 10.021972 13.830326 10.040321 13.835937 10.0625 13.835938 C 13.548498 13.835938 16.875 9.6972656 16.875 9.6972656 C 16.875 9.6972656 14.186435 6.1487558 10 6.0136719 z M 10 13.830078 C 9.7366615 13.827103 9.4844391 13.81097 9.25 13.771484 C 6.2500018 13.225486 5.4375 10.078125 5.4375 10.078125 C 5.4375 10.078125 6.8560014 8.4306976 9.25 8.1699219 C 9.4339998 8.1515859 9.6205001 8.1075087 9.8125 8.1054688 C 9.878296 8.1054688 9.9358708 8.1197836 10 8.1230469 L 10 6.9726562 C 9.8357945 6.9620615 9.6702819 6.9535874 9.5 6.9589844 C 9.4120001 6.9630644 9.336 6.9528744 9.25 6.9589844 C 5.7414802 7.2637976 4 9.9511719 4 9.9511719 C 4 9.9511719 5.3425032 14.410679 9.3125 14.917969 C 9.5054878 14.939419 9.7318781 14.982369 9.9375 14.980469 C 9.9590492 14.980469 9.9785287 14.976717 10 14.976562 L 10 13.830078 z M 10 14.976562 L 10 16 C 12.853998 16 17.836002 14.472841 20 12.625 C 19.682001 12.299031 18.188499 11.532243 17.8125 11.224609 C 15.555592 13.209934 13.210803 14.953432 10 14.976562 z M 10 16 C 9.7761944 16 9.5277538 15.954287 9.3125 15.935547 C 3.9025043 15.416034 2 9.6972656 2 9.6972656 L 2 19 L 10 19 L 10 16 z M 10 8.1230469 L 10 9.4160156 C 10.595543 9.7244016 10.894327 10.302431 11.4375 11.224609 L 13.125 9.7597656 C 13.125 9.7597656 11.945634 8.2220512 10 8.1230469 z M 10 9.4160156 C 9.7929689 9.3088102 9.5523276 9.2316455 9.25 9.1875 C 9.0920001 9.16916 8.9605 9.171197 8.8125 9.1875 C 7.7825009 9.3158505 7 10.207031 7 10.207031 C 7 10.207031 7.5560012 12.235773 9.25 12.816406 C 9.4763223 12.886802 9.7308753 12.966675 10 12.990234 L 10 9.4160156 z M 13.763672 9.7011719 L 13.763672 9.7363281 L 13.833984 9.7363281 L 13.833984 9.7011719 L 13.763672 9.7011719 z"/></svg>