<svg xmlns="http://www.w3.org/2000/svg" xmlns:svg="http://www.w3.org/2000/svg" id="svg2" width="22" height="22" version="1.1" viewBox="0 0 22 22"><metadata id="metadata10"/><defs id="defs8"><linearGradient id="linearGradient3257"><stop id="stop3259" offset="0" stop-color="#a50000" stop-opacity="1"/><stop id="stop3261" offset="1" stop-color="#e73800" stop-opacity="1"/></linearGradient></defs><path color="#000" style="text-decoration-line:none;text-decoration-style:solid;text-decoration-color:#000;isolation:auto;mix-blend-mode:normal;solid-color:#000;solid-opacity:1" id="rect4177" fill="#f92d36" fill-opacity="1" fill-rule="nonzero" stroke="none" stroke-dasharray="none" stroke-dashoffset="0" stroke-linecap="butt" stroke-linejoin="miter" stroke-miterlimit="4" stroke-opacity="1" stroke-width="1" d="M 7 3 L 7 3.0039062 L 4 6 L 3 7 L 10 7 L 10 6 L 10 3 L 7 3 z M 12 3 L 12 7 L 19 7 L 15 3.0039062 L 15 3 L 13 3 L 12 3 z M 7.4160156 4 L 9 4 L 9 6 L 5.4140625 6 L 7.4160156 4 z M 13 4 L 14.583984 4 L 16.585938 6 L 13 6 L 13 4 z M 3 8 L 3 9 L 3 12 L 4 12 L 4 9 L 18 9 L 18 18 L 11 18 L 11 19 L 19 19 L 19 18 L 19 9 L 19 8 L 3 8 z M 3.7070312 13 L 3 13.707031 L 5.2929688 16 L 3 18.292969 L 3.7070312 19 L 6 16.707031 L 8.2929688 19 L 9 18.292969 L 6.7070312 16 L 9 13.707031 L 8.2929688 13 L 6 15.292969 L 3.7070312 13 z" clip-rule="nonzero" color-interpolation="sRGB" color-interpolation-filters="linearRGB" color-rendering="auto" display="inline" enable-background="accumulate" image-rendering="auto" opacity="1" overflow="visible" shape-rendering="auto" text-decoration="none" text-rendering="auto" visibility="visible"/></svg>