<svg xmlns="http://www.w3.org/2000/svg" xmlns:svg="http://www.w3.org/2000/svg" id="svg2" width="22" height="22" version="1.1" viewBox="0 0 22 22"><metadata id="metadata14"/><path id="rect4162" fill="#fff" fill-opacity="1" stroke="none" d="M 3 3 L 3 4 L 3 13 L 3 14 L 3 15 L 11 15 L 11 18 L 11 19 L 11.046875 19 L 11.699219 19 L 11.710938 19 L 15.710938 15 L 19 15 L 19 14 L 19 12.492188 L 19 3 L 4 3 L 3 3 z M 4 4 L 18 4 L 18 13 L 18 14 L 4 14 L 4 13 L 4 4 z M 12 15 L 14.292969 15 L 12 17.292969 L 12 15 z" opacity="1"/><path id="rect4147" fill="#fff" fill-opacity="1" stroke="none" stroke-dasharray="none" stroke-dashoffset="0" stroke-linecap="butt" stroke-linejoin="miter" stroke-miterlimit="4" stroke-opacity="1" stroke-width="3.549" d="M 15 5 C 14.451567 5 13.919601 5.4535385 14.009766 6 L 14.505859 9 C 14.596019 9.5464623 14.745721 10 15 10 C 15.254279 10 15.403976 9.546462 15.494141 9 L 15.990234 6 C 16.080399 5.4535385 15.548433 5 15 5 z M 15 11 A 1 1 0 0 0 14 12 A 1 1 0 0 0 15 13 A 1 1 0 0 0 16 12 A 1 1 0 0 0 15 11 z" opacity="1"/></svg>