<svg xmlns="http://www.w3.org/2000/svg" xmlns:svg="http://www.w3.org/2000/svg" id="svg2" version="1.1" viewBox="0 0 22 22"><metadata id="metadata8"/><path color="#000" style="text-decoration-line:none;text-decoration-style:solid;text-decoration-color:#000;isolation:auto;mix-blend-mode:normal;solid-color:#000;solid-opacity:1" id="rect4173" fill="#fff" fill-opacity="1" fill-rule="nonzero" stroke="none" stroke-dasharray="none" stroke-dashoffset="0" stroke-linecap="butt" stroke-linejoin="miter" stroke-miterlimit="4" stroke-opacity="1" stroke-width="1" d="M 11 3 C 6.568 3 3 6.568 3 11 C 3 13.216 3.8918906 15.216109 5.3378906 16.662109 L 6.0449219 15.955078 C 4.7796719 14.689828 4 12.939 4 11 C 4 7.122 7.122 4 11 4 C 14.878 4 18 7.122 18 11 C 18 12.939 17.220328 14.689828 15.955078 15.955078 L 16.662109 16.662109 C 18.108109 15.216109 19 13.216 19 11 C 19 6.568 15.432 3 11 3 z M 11 5 C 7.676 5 5 7.676 5 11 C 5 12.662 5.6694063 14.161594 6.7539062 15.246094 L 7.4609375 14.539062 C 6.5571875 13.635314 6 12.385 6 11 C 6 8.23 8.23 6 11 6 C 13.77 6 16 8.23 16 11 C 16 12.385 15.442813 13.635313 14.539062 14.539062 L 15.246094 15.246094 C 16.330594 14.161594 17 12.662 17 11 C 17 7.676 14.324 5 11 5 z M 11 7 C 8.7840004 7 7 8.7840004 7 11 C 7 12.108 7.4469218 13.107078 8.1699219 13.830078 L 8.8769531 13.123047 C 8.3347031 12.580797 8 11.831 8 11 C 8 9.3380003 9.3380003 8 11 8 C 12.662 8 14 9.3380003 14 11 C 14 11.831 13.665297 12.580797 13.123047 13.123047 L 13.830078 13.830078 C 14.553078 13.107078 15 12.108 15 11 C 15 8.7840004 13.216 7 11 7 z M 11 10 C 10.446 10 10 10.446 10 11 C 10 11.024903 10.0119 11.045876 10.013672 11.070312 L 7.8554688 19 L 8.890625 19 L 9 18.597656 L 9.0234375 18.621094 L 11 16.644531 L 12.976562 18.621094 L 13 18.597656 L 13.109375 19 L 14.144531 19 L 11.986328 11.070312 C 11.9881 11.045876 12 11.024903 12 11 C 12 10.446 11.554 10 11 10 z M 10.808594 11.960938 C 10.872643 11.973721 10.932082 12 11 12 C 11.067918 12 11.127357 11.973721 11.191406 11.960938 L 11.851562 14.378906 L 11 15.230469 L 10.150391 14.380859 L 10.808594 11.960938 z M 12.154297 15.490234 L 12.488281 16.71875 L 11.707031 15.9375 L 12.154297 15.490234 z M 9.8476562 15.492188 L 10.292969 15.9375 L 9.5136719 16.716797 L 9.8476562 15.492188 z" clip-rule="nonzero" color-interpolation="sRGB" color-interpolation-filters="linearRGB" color-rendering="auto" display="inline" enable-background="accumulate" image-rendering="auto" opacity=".5" overflow="visible" shape-rendering="auto" text-decoration="none" text-rendering="auto" visibility="visible"/></svg>