<svg xmlns="http://www.w3.org/2000/svg" xmlns:svg="http://www.w3.org/2000/svg" id="svg2" width="22" height="22" version="1.1" viewBox="0 0 22 22"><defs id="defs4"><clipPath id="clipPath6"><rect id="rect8" width="477.143" height="208.571" x="-830" y="1580.934" fill="#ff0"/></clipPath><clipPath id="clipPath10"><rect id="rect12" width="477.143" height="208.571" x="-830" y="1580.934" fill="#ff0"/></clipPath><clipPath id="clipPath14"><rect id="rect16" width="477.143" height="208.571" x="-830" y="1580.934" fill="#ff0"/></clipPath><clipPath id="clipPath18"><rect id="rect20" width="477.143" height="208.571" x="-830" y="1580.934" fill="#ff0"/></clipPath><clipPath id="clipPath22"><rect id="rect24" width="477.143" height="208.571" x="-830" y="1580.934" fill="#ff0"/></clipPath><clipPath id="clipPath26"><rect id="rect28" width="477.143" height="208.571" x="-830" y="1580.934" fill="#ff0"/></clipPath><clipPath id="clipPath6-8"><rect id="rect8-8" width="477.143" height="208.571" x="-830" y="1580.934" fill="#ff0"/></clipPath><clipPath id="clipPath10-3"><rect id="rect12-5" width="477.143" height="208.571" x="-830" y="1580.934" fill="#ff0"/></clipPath><clipPath id="clipPath14-9"><rect id="rect16-4" width="477.143" height="208.571" x="-830" y="1580.934" fill="#ff0"/></clipPath><clipPath id="clipPath18-4"><rect id="rect20-9" width="477.143" height="208.571" x="-830" y="1580.934" fill="#ff0"/></clipPath><clipPath id="clipPath22-5"><rect id="rect24-5" width="477.143" height="208.571" x="-830" y="1580.934" fill="#ff0"/></clipPath><clipPath id="clipPath26-2"><rect id="rect28-7" width="477.143" height="208.571" x="-830" y="1580.934" fill="#ff0"/></clipPath></defs><metadata id="metadata7"/><g id="layer1" transform="translate(0,-1030.3622)"><path id="path4180" fill="#fff" fill-opacity="1" stroke="none" stroke-dasharray="none" stroke-dashoffset="0" stroke-linecap="butt" stroke-linejoin="miter" stroke-miterlimit="4" stroke-opacity="1" stroke-width="3.567" d="M 9.5 3 C 7.2811689 3 5.4479648 4.6097531 5.078125 6.7226562 C 3.8792744 7.4910319 3.1000206 8.7950826 3.0195312 10.257812 C 1.7323406 10.706938 0.71815116 11.715382 0.26171875 13 L 1.3457031 13 C 1.7080581 12.2389 2.3329256 11.634145 3.1054688 11.296875 C 3.404269 11.166098 3.7195976 11.076597 4.0429688 11.033203 C 4.0150645 10.856825 4.0006998 10.67857 4 10.5 C 4.0001634 10.35193 4.0148061 10.206948 4.0332031 10.0625 C 4.0344431 10.05012 4.0357394 10.037751 4.0371094 10.025391 L 4.0351562 10.025391 C 4.1448846 9.2309273 4.5253277 8.505716 5.0996094 7.9628906 C 5.1902056 7.8774575 5.2877916 7.7997354 5.3867188 7.7246094 C 5.4348517 7.6879948 5.481032 7.6494612 5.53125 7.6152344 C 5.6834234 7.5116691 5.8406366 7.4165101 6.0078125 7.3378906 C 6.0180683 7.1166978 6.0504652 6.9016171 6.0996094 6.6933594 C 6.1125145 6.63814 6.1348097 6.5858033 6.1503906 6.53125 C 6.5728577 5.0671505 7.9122953 4.0018401 9.5 4 C 10.379129 4.0007704 11.210983 4.3349696 11.845703 4.9101562 C 11.934313 4.9901992 12.01589 5.0775369 12.095703 5.1660156 C 12.127823 5.2017596 12.162629 5.2343106 12.193359 5.2714844 C 12.29407 5.3928023 12.387058 5.5201613 12.470703 5.6542969 C 12.61202 5.553104 12.760698 5.4632797 12.914062 5.3847656 C 12.993332 5.3443216 13.077964 5.3155616 13.160156 5.28125 C 13.58344 5.1039704 14.035978 5.0011078 14.5 5 C 16.432997 5 18 6.5670034 18 8.5 C 17.999474 9.0283465 17.870308 9.5392482 17.646484 10.005859 C 17.597691 10.003111 17.548857 10.001157 17.5 10 C 15.998246 10.0011 14.596026 10.751322 13.761719 12 L 15.050781 12 C 15.554564 11.506016 16.195883 11.175825 16.890625 11.052734 L 16.888672 11.054688 C 17.0905 11.018545 17.295016 11.000292 17.5 11 C 17.731513 10.999928 17.962462 11.022829 18.189453 11.068359 C 19.270823 11.287147 20.185731 12.003004 20.658203 13 L 20.662109 13 A 3.5 3.5 0 0 1 21 14.5 A 3.5 3.5 0 0 1 17.5 18 L 14.673828 18 L 14 18 L 14 19 L 17.5 19 A 4.5 4.5 0 0 0 22 14.5 A 4.5 4.5 0 0 0 21.736328 13 C 21.242735 11.604905 20.094784 10.541663 18.666016 10.15625 C 18.875967 9.6306389 18.998974 9.0721676 19 8.5 C 19 6.0147186 16.985281 4 14.5 4 C 13.885178 4.0012372 13.286265 4.1416724 12.728516 4.3828125 C 11.891731 3.5147981 10.734419 3.0015503 9.5 3 z M 2.5 14 C 2.223 14 2 14.223 2 14.5 C 2 14.777 2.223 15 2.5 15 L 12.5 15 C 12.777 15 13 14.777 13 14.5 C 13 14.223 12.777 14 12.5 14 L 2.5 14 z M 0.5 16 C 0.223 16 0 16.223 0 16.5 C 0 16.777 0.223 17 0.5 17 L 8.5 17 C 8.777 17 9 16.777 9 16.5 C 9 16.223 8.777 16 8.5 16 L 0.5 16 z M 3.5 18 C 3.2230048 18 3 18.223005 3 18.5 C 3 18.776995 3.2230048 19 3.5 19 L 12.400391 19 C 12.677386 19 12.900391 18.776995 12.900391 18.5 C 12.900391 18.223005 12.677386 18 12.400391 18 L 3.5 18 z" opacity="1" transform="translate(0,1030.3622)"/></g></svg>