<svg xmlns="http://www.w3.org/2000/svg" xmlns:svg="http://www.w3.org/2000/svg" id="svg2" width="22" height="22" enable-background="new" version="1.1" viewBox="0 0 22 22"><metadata id="metadata10"/><path id="path4179" fill="#fff" fill-opacity="1" stroke="none" stroke-dasharray="none" stroke-dashoffset="0" stroke-linecap="butt" stroke-linejoin="miter" stroke-miterlimit="4" stroke-opacity="1" stroke-width="3.567" d="M 11 3 A 8 8 0 0 0 3 11 A 8 8 0 0 0 11 19 A 8 8 0 0 0 17.916016 14.998047 A 8 8 0 0 0 17.921875 14.998047 A 8 8 0 0 0 17.974609 14.896484 A 8 8 0 0 0 18.248047 14.363281 A 8 8 0 0 0 18.363281 14.107422 A 8 8 0 0 0 18.421875 13.978516 A 7 7 0 0 1 18 14 A 7 7 0 0 1 17.333984 13.960938 A 7 7 0 0 1 17.332031 13.966797 A 7 7 0 0 1 11 7 A 7 7 0 0 1 11.708984 3.9570312 A 7 7 0 0 1 11.978516 3.4492188 A 7 7 0 0 1 12.066406 3.3046875 A 7 7 0 0 1 12.197266 3.0976562 A 8 8 0 0 0 11 3 z M 10.595703 4.0136719 A 8 8 0 0 0 10 7 A 8 8 0 0 0 16.792969 14.900391 A 7 7 0 0 1 11 18 A 7 7 0 0 1 4 11 A 7 7 0 0 1 10.595703 4.0136719 z" opacity="1"/></svg>