<svg xmlns="http://www.w3.org/2000/svg" xmlns:svg="http://www.w3.org/2000/svg" id="svg3760" width="22" height="22" version="1.1" viewBox="0 0 22 22"><metadata id="metadata3765"/><g id="layer1" transform="translate(-553.72253,-583.11926)"><path id="rect4136" fill="#fff" fill-opacity="1" stroke="none" d="M 11 3 C 8.7839989 3 7 4.7839989 7 7 L 7 8 L 8 8 L 8 7 C 8 5.338 9.338 4 11 4 C 12.662 4 14 5.338 14 7 L 14 11 L 9 11 L 8 11 L 7 11 L 6 11 L 5 11 L 5 12 L 5 19 L 6 19 L 16 19 L 17 19 L 17 11 L 16 11 L 15 11 L 15 7 C 15 4.7839989 13.216001 3 11 3 z M 6 12 L 7 12 L 8 12 L 14 12 L 15 12 L 16 12 L 16 18 L 6 18 L 6 12 z" opacity="1" transform="translate(553.72253,583.11926)"/></g></svg>