<svg xmlns="http://www.w3.org/2000/svg" xmlns:svg="http://www.w3.org/2000/svg" id="svg2" width="22" height="22" version="1.1" viewBox="0 0 22 22"><metadata id="metadata12"/><path id="rect4147" fill="#f92d36" fill-opacity="1" stroke="none" stroke-dasharray="none" stroke-dashoffset="0" stroke-linecap="butt" stroke-linejoin="miter" stroke-miterlimit="4" stroke-opacity="1" stroke-width="3.567" d="M 2 2 L 2 20 L 20 20 L 20 2 L 2 2 z M 3 3 L 19 3 L 19 14.650391 L 3 14.650391 L 3 3 z M 3 16 L 10 16 L 10 19 L 3 19 L 3 16 z M 12 16 L 19 16 L 19 19 L 12 19 L 12 16 z" opacity="1"/><path id="rect4162" fill="#f92d36" fill-opacity="1" stroke="none" d="M 8.7070311,6.0000001 8.0000001,6.7070313 10.292969,9.0000001 8.0000001,11.292969 8.7070311,12 11,9.7070313 13.292969,12 14,11.292969 11.707031,9.0000001 14,6.7070313 13.292969,6.0000001 11,8.2929689 Z" opacity="1"/></svg>