<svg xmlns="http://www.w3.org/2000/svg" xmlns:svg="http://www.w3.org/2000/svg" xmlns:xlink="http://www.w3.org/1999/xlink" id="svg2" width="22" height="22" version="1.1" viewBox="0 0 22 22"><metadata id="metadata20"/><defs id="defs18"><linearGradient id="linearGradient3881-9"><stop id="stop3871" offset="0" stop-color="#474845"/><stop id="stop3873" offset="1" stop-color="#838681"/></linearGradient><linearGradient id="linearGradient3058" x2="0" y1="1053.158" y2="1004.847" gradientTransform="translate(0,-4e-5)" gradientUnits="userSpaceOnUse" xlink:href="#linearGradient3881-9"/><linearGradient id="linearGradient3838" x2="0" y1="279.096" y2="268.33" gradientTransform="matrix(1.10525,0,0,1.10525,-134.27874,-295.76183)" gradientUnits="userSpaceOnUse" xlink:href="#linearGradient4460"/><linearGradient id="linearGradient3784-0-9-8"><stop id="stop2994" offset="0" stop-color="#cbdef9"/><stop id="stop2996" offset="1" stop-color="#0068ff"/></linearGradient><radialGradient id="radialGradient4432" cx="148.004" cy="160" r="128" gradientTransform="matrix(0.97656,0,0,0.97656,-16.5349,-236.25)" gradientUnits="userSpaceOnUse" xlink:href="#linearGradient3784-0-9-8"/><linearGradient id="linearGradient3919" x2="0" y1="279.096" y2="268.33" gradientTransform="matrix(1.10525,0,0,1.10525,-134.27874,-295.76183)" gradientUnits="userSpaceOnUse" xlink:href="#linearGradient4460"/><linearGradient id="linearGradient4460"><stop id="stop7" offset="0" stop-color="#234d89" stop-opacity="1"/><stop id="stop9" offset="1" stop-color="#6c99ca" stop-opacity="1"/></linearGradient><linearGradient id="linearGradient3042" x2="0" y1="279.096" y2="268.33" gradientTransform="matrix(1.10525,0,0,1.10525,-125.81522,-299.97849)" gradientUnits="userSpaceOnUse" xlink:href="#linearGradient4460"/></defs><path id="path4339" fill="#229df0" fill-opacity="1" fill-rule="evenodd" stroke="none" stroke-linecap="butt" stroke-linejoin="miter" stroke-opacity="1" stroke-width="1" d="M 7.0175781 3 L 2.4003906 11 L 7.0175781 19 L 11.017578 19 L 15 19 L 19.617188 11 L 15 3 L 11.017578 3 L 7.0175781 3 z M 7.5957031 4 L 11.017578 4 L 14.419922 4 L 15.472656 5.8203125 L 11 10.292969 L 6.5390625 5.8320312 L 7.5957031 4 z M 15.990234 6.7167969 L 18.462891 11 L 15.990234 15.283203 L 11.707031 11 L 15.990234 6.7167969 z M 6.0214844 6.7285156 L 10.292969 11 L 6.0214844 15.271484 L 3.5546875 11 L 6.0214844 6.7285156 z M 11 11.707031 L 15.472656 16.179688 L 14.419922 18 L 11.017578 18 L 7.5957031 18 L 6.5390625 16.167969 L 11 11.707031 z"/></svg>