<svg xmlns="http://www.w3.org/2000/svg" xmlns:svg="http://www.w3.org/2000/svg" id="svg2" width="22" height="22" version="1.1" viewBox="0 0 22 22"><metadata id="metadata16"/><path id="rect4162" fill="#fff" fill-opacity="1" stroke="none" d="m 3.0000002,3.0000002 0,1 0,8.9999998 0,1 0,1 L 11,15 l 0,3 0,1 0.04687,0 0.652344,0 0.01172,0 4,-4 L 19,15 l 0,-1 0,-1.507812 0,-9.4921878 -14.9999998,0 -1,0 z m 1,1 L 18,4.0000002 18,13 l 0,1 -13.9999998,0 0,-1 0,-8.9999998 z M 12,15 14.292969,15 12,17.292969 12,15 Z" opacity=".5"/></svg>