<svg xmlns="http://www.w3.org/2000/svg" xmlns:svg="http://www.w3.org/2000/svg" id="svg2" width="22" height="22" version="1.1" viewBox="0 0 22 22"><metadata id="metadata10"/><path id="path4171" fill="#fff" fill-opacity="1" stroke="none" stroke-linecap="butt" stroke-linejoin="miter" stroke-opacity="1" stroke-width="1" d="M 11 3 C 6.568 3 3 6.568 3 11 C 3 15.432 6.568 19 11 19 C 15.432 19 19 15.432 19 11 C 19 6.568 15.432 3 11 3 z M 11 4 C 14.878 4 18 7.122 18 11 C 18 14.878 14.878 18 11 18 C 7.122 18 4 14.878 4 11 C 4 7.122 7.122 4 11 4 z M 9.4765625 5.6660156 C 8.8670386 5.6660156 8.334096 5.8944196 7.8769531 6.3515625 C 7.4198102 6.8087054 7.1914062 7.3436011 7.1914062 7.953125 C 7.1914062 8.1562995 7.2675409 8.3339471 7.4199219 8.4863281 C 7.5723028 8.6387091 7.7499504 8.7148438 7.953125 8.7148438 C 8.1562996 8.7148437 8.3339471 8.6387091 8.4863281 8.4863281 C 8.6387091 8.3339471 8.7148438 8.1562995 8.7148438 7.953125 C 8.7148438 7.7499504 8.7909784 7.5723029 8.9433594 7.4199219 C 9.0957403 7.2675409 9.2733878 7.1914062 9.4765625 7.1914062 L 12.523438 7.1914062 C 12.726612 7.1914062 12.904259 7.2675409 13.056641 7.4199219 C 13.209021 7.5723029 13.285156 7.7499504 13.285156 7.953125 L 13.285156 9.140625 L 10.466797 11.990234 C 10.314416 12.142615 10.238281 12.320263 10.238281 12.523438 C 10.238281 12.726612 10.314416 12.90426 10.466797 13.056641 C 10.619178 13.209022 10.796825 13.285156 11 13.285156 C 11.203175 13.285156 11.380822 13.209022 11.533203 13.056641 L 14.580078 10.009766 C 14.732459 9.8573849 14.808594 9.6797371 14.808594 9.4765625 L 14.808594 7.953125 C 14.808594 7.3436011 14.58019 6.8087054 14.123047 6.3515625 C 13.665904 5.8944196 13.132962 5.6660156 12.523438 5.6660156 L 9.4765625 5.6660156 z M 11 14.808594 C 10.796825 14.808594 10.619178 14.886682 10.466797 15.039062 C 10.314416 15.191444 10.238281 15.369091 10.238281 15.572266 C 10.238281 15.77544 10.314416 15.953088 10.466797 16.105469 C 10.619178 16.25785 10.796825 16.333984 11 16.333984 C 11.203175 16.333984 11.380822 16.25785 11.533203 16.105469 C 11.685584 15.953088 11.761719 15.77544 11.761719 15.572266 C 11.761719 15.369091 11.685584 15.191444 11.533203 15.039062 C 11.380822 14.886682 11.203175 14.808594 11 14.808594 z" font-family="White Rabbit" font-size="medium" font-stretch="normal" font-style="normal" font-variant="normal" font-weight="normal" letter-spacing="0" word-spacing="0" style="line-height:125%;-inkscape-font-specification:'White Rabbit'"/></svg>