<svg xmlns="http://www.w3.org/2000/svg" xmlns:svg="http://www.w3.org/2000/svg" id="svg2" width="22" height="22" enable-background="new" version="1.1" viewBox="0 0 22 22"><metadata id="metadata16"/><defs id="defs14"><mask id="XMLID_23_" width="576.609" height="587.491" x="122.963" y="97.149" maskUnits="userSpaceOnUse"><g id="g37" filter="url(#Adobe_OpacityMaskFilter)"><radialGradient id="XMLID_24_" cx="88.978" cy="-20.899" r="673.116" fx="88.978" fy="-20.899" gradientUnits="userSpaceOnUse"><stop id="stop40" offset=".309" stop-color="#FFF"/><stop id="stop42" offset="1" stop-color="#000"/></radialGradient><ellipse id="ellipse44" cx="295.895" cy="286.172" fill="url(#XMLID_24_)" rx="512.934" ry="349.106"/></g></mask><filter id="Adobe_OpacityMaskFilter" width="576.609" height="587.491" x="122.963" y="97.149" color-interpolation-filters="sRGB" filterUnits="userSpaceOnUse"><feColorMatrix id="feColorMatrix34" type="matrix" values="1 0 0 0 0 0 1 0 0 0 0 0 1 0 0 0 0 0 1 0"/></filter><mask id="XMLID_26_" width="93.126" height="44.813" x="155.705" y="461.543" maskUnits="userSpaceOnUse"><g id="g75" filter="url(#Adobe_OpacityMaskFilter_1_)"><linearGradient id="XMLID_1_" x1="211.722" x2="200.073" y1="562.858" y2="466.754" gradientUnits="userSpaceOnUse"><stop id="stop78" offset="0" stop-color="#FFF"/><stop id="stop80" offset="1" stop-color="#000"/></linearGradient><ellipse id="ellipse82" cx="203.617" cy="495.988" fill="url(#XMLID_1_)" rx="80.542" ry="59.683"/></g></mask><filter id="Adobe_OpacityMaskFilter_1_" width="93.126" height="44.813" x="155.705" y="461.543" color-interpolation-filters="sRGB" filterUnits="userSpaceOnUse"><feColorMatrix id="feColorMatrix72" type="matrix" values="1 0 0 0 0 0 1 0 0 0 0 0 1 0 0 0 0 0 1 0"/></filter><mask id="XMLID_2_" width="156.907" height="127.553" x="101.57" y="425.034" maskUnits="userSpaceOnUse"><g id="g92" filter="url(#Adobe_OpacityMaskFilter_2_)"><linearGradient id="XMLID_3_" x1="206.091" x2="186.922" y1="397.621" y2="563.473" gradientUnits="userSpaceOnUse"><stop id="stop95" offset="0" stop-color="#FFF"/><stop id="stop97" offset=".111" stop-color="#CBCBCB"/><stop id="stop99" offset=".24" stop-color="#969696"/><stop id="stop101" offset=".37" stop-color="#686868"/><stop id="stop103" offset=".499" stop-color="#424242"/><stop id="stop105" offset=".627" stop-color="#252525"/><stop id="stop107" offset=".754" stop-color="#111"/><stop id="stop109" offset=".879" stop-color="#040404"/><stop id="stop111" offset="1" stop-color="#000"/></linearGradient><ellipse id="ellipse113" cx="194.764" cy="495.623" fill="url(#XMLID_3_)" rx="160.94" ry="123.604"/></g></mask><filter id="Adobe_OpacityMaskFilter_2_" width="156.907" height="127.553" x="101.57" y="425.034" color-interpolation-filters="sRGB" filterUnits="userSpaceOnUse"><feColorMatrix id="feColorMatrix89" type="matrix" values="1 0 0 0 0 0 1 0 0 0 0 0 1 0 0 0 0 0 1 0"/></filter><mask id="XMLID_10_" width="447.197" height="527.73" x="191.541" y="217.631" maskUnits="userSpaceOnUse"><g id="g165" filter="url(#Adobe_OpacityMaskFilter_3_)"><radialGradient id="XMLID_11_" cx="657.212" cy="155.233" r="606.953" fx="657.212" fy="155.233" gradientTransform="matrix(0.931,0,0,0.9299,28.7459,21.6629)" gradientUnits="userSpaceOnUse"><stop id="stop168" offset="0" stop-color="#C9C9C8"/><stop id="stop170" offset=".088" stop-color="#C4C4C4"/><stop id="stop172" offset=".219" stop-color="#B8B8B7"/><stop id="stop174" offset=".377" stop-color="#A1A0A0"/><stop id="stop176" offset=".556" stop-color="#7F7F7E"/><stop id="stop178" offset=".752" stop-color="#4F4F4E"/><stop id="stop180" offset=".96" stop-color="#121212"/><stop id="stop182" offset="1" stop-color="#000"/></radialGradient><circle id="circle184" cx="408.427" cy="444.226" r="302.954" fill="url(#XMLID_11_)"/></g></mask><filter id="Adobe_OpacityMaskFilter_3_" width="447.197" height="527.73" x="191.541" y="217.631" color-interpolation-filters="sRGB" filterUnits="userSpaceOnUse"><feColorMatrix id="feColorMatrix162" type="matrix" values="1 0 0 0 0 0 1 0 0 0 0 0 1 0 0 0 0 0 1 0"/></filter><mask id="XMLID_13_" width="252.506" height="187.183" x="243.061" y="279.317" maskUnits="userSpaceOnUse"><g id="g199" filter="url(#Adobe_OpacityMaskFilter_4_)"><linearGradient id="XMLID_14_" x1="340.049" x2="372.381" y1="266.934" y2="417.815" gradientUnits="userSpaceOnUse"><stop id="stop202" offset="0" stop-color="#FFF"/><stop id="stop204" offset=".087" stop-color="#F8F8F8"/><stop id="stop206" offset=".216" stop-color="#E4E4E4"/><stop id="stop208" offset=".371" stop-color="#C2C2C2"/><stop id="stop210" offset=".546" stop-color="#949494"/><stop id="stop212" offset=".739" stop-color="#595959"/><stop id="stop214" offset=".944" stop-color="#151515"/><stop id="stop216" offset=".994" stop-color="#000"/></linearGradient><ellipse id="ellipse218" cx="363.052" cy="374.282" fill="url(#XMLID_14_)" rx="215.324" ry="183.322"/></g></mask><filter id="Adobe_OpacityMaskFilter_4_" width="252.506" height="187.183" x="243.061" y="279.317" color-interpolation-filters="sRGB" filterUnits="userSpaceOnUse"><feColorMatrix id="feColorMatrix196" type="matrix" values="1 0 0 0 0 0 1 0 0 0 0 0 1 0 0 0 0 0 1 0"/></filter></defs><path id="path4283" fill="#424854" fill-opacity="1" stroke="none" stroke-dasharray="none" stroke-dashoffset="0" stroke-linecap="butt" stroke-linejoin="miter" stroke-miterlimit="4" stroke-opacity="1" stroke-width="3.567" d="M 3 3 L 3 4 L 3 7 A 12 12 0 0 1 15 19 L 16 19 L 17 19 L 18 19 L 19 19 A 16 16 0 0 0 3 3 z M 4 4.0488281 A 15 15 0 0 1 17.964844 18 L 17 18 L 16 18 L 15.951172 18 A 13 13 0 0 0 4 6.0429688 L 4 4.0488281 z M 3 8 L 3 9 L 3 12 A 7 7 0 0 1 10 19 L 13 19 L 14 19 A 11 11 0 0 0 3 8 z M 4 9.0507812 A 10 10 0 0 1 12.939453 18 L 10.929688 18 A 8 8 0 0 0 4 11.072266 L 4 9.0507812 z M 5 15 A 2 2 0 0 0 3 17 A 2 2 0 0 0 5 19 A 2 2 0 0 0 7 17 A 2 2 0 0 0 5 15 z M 5 16 A 1 1 0 0 1 6 17 A 1 1 0 0 1 5 18 A 1 1 0 0 1 4 17 A 1 1 0 0 1 5 16 z" opacity="1"/></svg>