<svg xmlns="http://www.w3.org/2000/svg" xmlns:svg="http://www.w3.org/2000/svg" xmlns:xlink="http://www.w3.org/1999/xlink" id="svg6391" width="48" height="48" version="1.1"><defs id="defs6393"><linearGradient id="linearGradient4257"><stop id="stop4259" offset="0" stop-color="#dadcde" stop-opacity="1"/><stop id="stop4261" offset="1" stop-color="#fafafa" stop-opacity="1"/></linearGradient><linearGradient id="linearGradient4503"><stop id="stop4505" offset="0" stop-color="#90959c" stop-opacity="1"/><stop id="stop4507" offset="1" stop-color="#c4c8cc" stop-opacity="1"/></linearGradient><linearGradient id="linearGradient4461"><stop id="stop4463" offset="0" stop-color="#45484d" stop-opacity="1"/><stop id="stop4465" offset="1" stop-color="#5e656b" stop-opacity="1"/></linearGradient><linearGradient id="linearGradient4788-0"><stop id="stop4790-5" offset="0" stop-color="#000" stop-opacity="1"/><stop id="stop4792-9" offset="1" stop-color="#000" stop-opacity="0"/></linearGradient><linearGradient id="linearGradient4433-1"><stop id="stop4435-3" offset="0" stop-color="#2b3141" stop-opacity="1"/><stop id="stop4437-1" offset="1" stop-color="#394056" stop-opacity="1"/></linearGradient><linearGradient id="linearGradient4117-99" x1="92.143" x2="92.143" y1="-1049.092" y2="-1001.09" gradientTransform="translate(416.82086,469.8687)" gradientUnits="userSpaceOnUse" xlink:href="#linearGradient4461"/><linearGradient id="linearGradient4439-9" x1="42.957" x2="42.957" y1="48" y2="33.999" gradientTransform="translate(481.7143,531.21931)" gradientUnits="userSpaceOnUse" xlink:href="#linearGradient4433-1"/><linearGradient id="linearGradient4786-8" x1="458.571" x2="472.509" y1="871.361" y2="862.361" gradientTransform="matrix(-1,0,0,-1,974.28574,1441.5807)" gradientUnits="userSpaceOnUse" xlink:href="#linearGradient4788-0"/><linearGradient id="linearGradient4219-1" x1="465.571" x2="458.571" y1="869.362" y2="862.363" gradientTransform="translate(57.14286,-297.14288)" gradientUnits="userSpaceOnUse" xlink:href="#linearGradient4503"/><style id="style1115" type="text/css"><![CDATA[ .fil0 {fill:#1F1A17} ]]></style><style id="style1246" type="text/css"><![CDATA[ .fil0 {fill:#1F1A17} ]]></style><linearGradient id="linearGradient4255" x1="506.803" x2="506.803" y1="565.752" y2="538.037" gradientUnits="userSpaceOnUse" xlink:href="#linearGradient4257"/></defs><metadata id="metadata6396"/><g id="layer1" transform="translate(-481.71429,-531.2193)"><rect id="rect2991-1-7-3-2" width="48" height="48" x="481.714" y="-579.219" fill="url(#linearGradient4117-99)" fill-opacity="1" stroke="none" ry="1.945" transform="scale(1,-1)"/><g id="g4275" fill="#000" fill-opacity=".059" stroke="none" font-family="Georgia" font-size="40" font-stretch="normal" font-style="normal" font-variant="normal" font-weight="normal" letter-spacing="0" transform="matrix(1.0824537,0,0,1.0824537,-43.278197,-40.981155)" word-spacing="0" style="line-height:125%;-inkscape-font-specification:Georgia"><path id="path4277" fill="#000" fill-opacity=".059" d="m 519.24442,545.55682 -1.34766,0 q -0.17578,-0.70312 -0.64453,-1.66015 -0.44922,-0.97657 -1.01563,-1.83594 -0.58593,-0.89844 -1.28906,-1.5625 -0.68359,-0.68359 -1.32812,-0.78125 -0.60547,-0.0781 -1.52344,-0.11719 -0.91797,-0.0391 -1.69922,-0.0391 l -1.13281,0 0,22.16797 q 0,0.64453 0.27343,1.1914 0.27344,0.52735 0.95704,0.82032 0.35156,0.13672 1.46484,0.37109 1.13281,0.23438 1.75781,0.25391 l 0,1.38672 -13.08594,0 0,-1.38672 q 0.54688,-0.0391 1.66016,-0.15625 1.13281,-0.11719 1.5625,-0.29297 0.64453,-0.25391 0.9375,-0.72266 0.3125,-0.48828 0.3125,-1.28906 l 0,-22.34375 -1.13281,0 q -0.60547,0 -1.50391,0.0391 -0.89844,0.0195 -1.71875,0.11719 -0.64453,0.0781 -1.34765,0.78125 -0.6836,0.68359 -1.26954,1.5625 -0.58593,0.87891 -1.03515,1.875 -0.44922,0.97656 -0.625,1.62109 l -1.36719,0 0,-7.51953 24.14063,0 0,7.51953 z"/></g><g id="g4271" fill="#000" fill-opacity=".118" stroke="none" font-family="Georgia" font-size="40" font-stretch="normal" font-style="normal" font-variant="normal" font-weight="normal" letter-spacing="0" transform="matrix(1.0824537,0,0,1.0824537,-43.278197,-41.381155)" word-spacing="0" style="line-height:125%;-inkscape-font-specification:Georgia"><path id="path4273" fill="#000" fill-opacity=".118" d="m 519.24442,545.55682 -1.34766,0 q -0.17578,-0.70312 -0.64453,-1.66015 -0.44922,-0.97657 -1.01563,-1.83594 -0.58593,-0.89844 -1.28906,-1.5625 -0.68359,-0.68359 -1.32812,-0.78125 -0.60547,-0.0781 -1.52344,-0.11719 -0.91797,-0.0391 -1.69922,-0.0391 l -1.13281,0 0,22.16797 q 0,0.64453 0.27343,1.1914 0.27344,0.52735 0.95704,0.82032 0.35156,0.13672 1.46484,0.37109 1.13281,0.23438 1.75781,0.25391 l 0,1.38672 -13.08594,0 0,-1.38672 q 0.54688,-0.0391 1.66016,-0.15625 1.13281,-0.11719 1.5625,-0.29297 0.64453,-0.25391 0.9375,-0.72266 0.3125,-0.48828 0.3125,-1.28906 l 0,-22.34375 -1.13281,0 q -0.60547,0 -1.50391,0.0391 -0.89844,0.0195 -1.71875,0.11719 -0.64453,0.0781 -1.34765,0.78125 -0.6836,0.68359 -1.26954,1.5625 -0.58593,0.87891 -1.03515,1.875 -0.44922,0.97656 -0.625,1.62109 l -1.36719,0 0,-7.51953 24.14063,0 0,7.51953 z"/></g><g id="g4263" fill="#000" fill-opacity=".235" stroke="none" font-family="Georgia" font-size="40" font-stretch="normal" font-style="normal" font-variant="normal" font-weight="normal" letter-spacing="0" transform="matrix(1.0824537,0,0,1.0824537,-43.278197,-41.781155)" word-spacing="0" style="line-height:125%;-inkscape-font-specification:Georgia"><path id="path4265" fill="#000" fill-opacity=".235" d="m 519.24442,545.55682 -1.34766,0 q -0.17578,-0.70312 -0.64453,-1.66015 -0.44922,-0.97657 -1.01563,-1.83594 -0.58593,-0.89844 -1.28906,-1.5625 -0.68359,-0.68359 -1.32812,-0.78125 -0.60547,-0.0781 -1.52344,-0.11719 -0.91797,-0.0391 -1.69922,-0.0391 l -1.13281,0 0,22.16797 q 0,0.64453 0.27343,1.1914 0.27344,0.52735 0.95704,0.82032 0.35156,0.13672 1.46484,0.37109 1.13281,0.23438 1.75781,0.25391 l 0,1.38672 -13.08594,0 0,-1.38672 q 0.54688,-0.0391 1.66016,-0.15625 1.13281,-0.11719 1.5625,-0.29297 0.64453,-0.25391 0.9375,-0.72266 0.3125,-0.48828 0.3125,-1.28906 l 0,-22.34375 -1.13281,0 q -0.60547,0 -1.50391,0.0391 -0.89844,0.0195 -1.71875,0.11719 -0.64453,0.0781 -1.34765,0.78125 -0.6836,0.68359 -1.26954,1.5625 -0.58593,0.87891 -1.03515,1.875 -0.44922,0.97656 -0.625,1.62109 l -1.36719,0 0,-7.51953 24.14063,0 0,7.51953 z"/></g><path id="path7515-3-1" fill="#fff" fill-opacity=".537" stroke="none" d="m 484.24553,531.87561 c -0.91709,0 -1.67115,0.6395 -1.84375,1.5 0.33561,-0.2799 0.77451,-0.4375 1.25,-0.4375 l 44.125,0 c 0.47549,0 0.91439,0.1576 1.25,0.4375 -0.1726,-0.8605 -0.92666,-1.5 -1.84375,-1.5 l -42.9375,0 z"/><g id="text4242" fill="url(#linearGradient4255)" fill-opacity="1" stroke="none" font-family="Georgia" font-size="40" font-stretch="normal" font-style="normal" font-variant="normal" font-weight="normal" letter-spacing="0" transform="matrix(1.0824537,0,0,1.0824537,-43.278197,-42.181155)" word-spacing="0" style="line-height:125%;-inkscape-font-specification:Georgia"><path id="path4247" fill="url(#linearGradient4255)" fill-opacity="1" d="m 519.24442,545.55682 -1.34766,0 q -0.17578,-0.70312 -0.64453,-1.66015 -0.44922,-0.97657 -1.01563,-1.83594 -0.58593,-0.89844 -1.28906,-1.5625 -0.68359,-0.68359 -1.32812,-0.78125 -0.60547,-0.0781 -1.52344,-0.11719 -0.91797,-0.0391 -1.69922,-0.0391 l -1.13281,0 0,22.16797 q 0,0.64453 0.27343,1.1914 0.27344,0.52735 0.95704,0.82032 0.35156,0.13672 1.46484,0.37109 1.13281,0.23438 1.75781,0.25391 l 0,1.38672 -13.08594,0 0,-1.38672 q 0.54688,-0.0391 1.66016,-0.15625 1.13281,-0.11719 1.5625,-0.29297 0.64453,-0.25391 0.9375,-0.72266 0.3125,-0.48828 0.3125,-1.28906 l 0,-22.34375 -1.13281,0 q -0.60547,0 -1.50391,0.0391 -0.89844,0.0195 -1.71875,0.11719 -0.64453,0.0781 -1.34765,0.78125 -0.6836,0.68359 -1.26954,1.5625 -0.58593,0.87891 -1.03515,1.875 -0.44922,0.97656 -0.625,1.62109 l -1.36719,0 0,-7.51953 24.14063,0 0,7.51953 z"/></g><path id="path4281" fill="#4b4f54" fill-opacity=".314" stroke="none" d="M 20.533203 9.8496094 C 20.096276 9.8496094 19.552644 9.862425 18.904297 9.890625 C 18.25595 9.9046917 17.636889 9.9470781 17.044922 10.017578 C 16.579809 10.073911 16.093331 10.355841 15.585938 10.863281 C 15.092624 11.356588 14.633771 11.920434 14.210938 12.554688 C 13.788111 13.188941 13.41597 13.865171 13.091797 14.583984 C 12.767624 15.288704 12.540916 15.87473 12.414062 16.339844 L 10.933594 16.339844 L 10.933594 17.138672 L 12.414062 17.138672 C 12.540916 16.673559 12.767624 16.089486 13.091797 15.384766 C 13.41597 14.665952 13.788111 13.989722 14.210938 13.355469 C 14.633771 12.721215 15.092624 12.157369 15.585938 11.664062 C 16.093331 11.156623 16.579809 10.874693 17.044922 10.818359 C 17.636889 10.747853 18.25595 10.705473 18.904297 10.691406 C 19.552644 10.663206 20.096276 10.648438 20.533203 10.648438 L 21.759766 10.648438 L 21.759766 9.8496094 L 20.533203 9.8496094 z M 26.261719 9.8496094 L 26.261719 10.648438 L 27.488281 10.648438 C 28.052061 10.648438 28.665685 10.663206 29.328125 10.691406 C 29.990565 10.719646 30.539636 10.762026 30.976562 10.818359 C 31.441682 10.888833 31.920762 11.170762 32.414062 11.664062 C 32.921469 12.143276 33.38772 12.707122 33.810547 13.355469 C 34.219287 13.975622 34.58403 14.63707 34.908203 15.341797 C 35.24647 16.032424 35.480569 16.631279 35.607422 17.138672 L 37.066406 17.138672 L 37.066406 16.339844 L 35.607422 16.339844 C 35.480569 15.83245 35.24647 15.233595 34.908203 14.542969 C 34.58403 13.838242 34.219287 13.174841 33.810547 12.554688 C 33.38772 11.906341 32.921469 11.342495 32.414062 10.863281 C 31.920762 10.369981 31.441682 10.088051 30.976562 10.017578 C 30.539636 9.9612448 29.990565 9.9188583 29.328125 9.890625 C 28.665685 9.862425 28.052061 9.8496094 27.488281 9.8496094 L 26.261719 9.8496094 z M 16.917969 38.199219 L 16.917969 39 L 31.082031 39 L 31.082031 38.199219 L 16.917969 38.199219 z" font-family="Georgia" font-size="40" font-stretch="normal" font-style="normal" font-variant="normal" font-weight="normal" letter-spacing="0" transform="translate(481.71429,531.2193)" word-spacing="0" style="line-height:125%;-inkscape-font-specification:Georgia"/><path id="path4292" fill="#fff" fill-opacity=".235" stroke="none" d="M 10.933594 9 L 10.933594 9.4003906 L 37.066406 9.4003906 L 37.066406 9 L 10.933594 9 z M 26.261719 34.644531 L 26.261719 35.044922 C 26.261719 35.510042 26.361274 35.939344 26.558594 36.333984 C 26.755914 36.714538 27.100437 37.011236 27.59375 37.222656 C 27.847443 37.321316 28.376301 37.455873 29.179688 37.625 C 29.997161 37.79414 30.631005 37.884344 31.082031 37.898438 L 31.082031 37.498047 C 30.631005 37.483954 29.997161 37.393749 29.179688 37.224609 C 28.376301 37.055483 27.847443 36.920926 27.59375 36.822266 C 27.100437 36.610846 26.755914 36.314147 26.558594 35.933594 C 26.361274 35.538954 26.261719 35.109651 26.261719 34.644531 z M 21.759766 34.835938 C 21.759766 35.413804 21.645435 35.878109 21.419922 36.230469 C 21.208509 36.568735 20.87137 36.830439 20.40625 37.013672 C 20.09617 37.140519 19.532317 37.245505 18.714844 37.330078 C 17.911457 37.414631 17.312615 37.469847 16.917969 37.498047 L 16.917969 37.898438 C 17.312615 37.870238 17.911457 37.815022 18.714844 37.730469 C 19.532317 37.645895 20.09617 37.538956 20.40625 37.412109 C 20.87137 37.228876 21.208509 36.969126 21.419922 36.630859 C 21.645435 36.278499 21.759766 35.812242 21.759766 35.234375 L 21.759766 34.835938 z" font-family="Georgia" font-size="40" font-stretch="normal" font-style="normal" font-variant="normal" font-weight="normal" letter-spacing="0" transform="translate(481.71429,531.2193)" word-spacing="0" style="line-height:125%;-inkscape-font-specification:Georgia"/><path id="path4130-6" fill="url(#linearGradient4219-1)" fill-opacity="1" stroke="none" d="m 515.7143,565.21861 0,14.0007 14,-14 z"/><path id="path4303-7" fill="url(#linearGradient4439-9)" fill-opacity="1" stroke="none" d="m 529.7143,565.21931 -14,14 12.05469,0 c 1.07728,0 1.94531,-0.868 1.94531,-1.9453 l 0,-12.0547 z"/><path id="path4784-3" fill="url(#linearGradient4786-8)" fill-opacity="1" stroke="none" d="m 515.7143,579.21931 0,-14.0007 -14,14 z" opacity=".1"/><path id="rect846-0-3" fill="#000" fill-opacity="1" stroke="none" d="m 481.71428,576.21931 0,1.0625 c 0,1.0773 0.86022,1.9375 1.9375,1.9375 l 44.125,0 c 1.07728,0 1.9375,-0.8602 1.9375,-1.9375 l 0,-1.0625 c 0,1.0773 -0.86022,1.9375 -1.9375,1.9375 l -44.125,0 c -1.07728,0 -1.9375,-0.8602 -1.9375,-1.9375 z"/><path id="rect4280-1-7" fill="#000" fill-opacity=".392" stroke="none" d="m 483.65178,531.21931 c -1.07728,0 -1.9375,0.8602 -1.9375,1.9375 l 0,43.0625 c 0,0.7934 0.48002,1.449 1.15625,1.75 -0.30934,-0.3333 -0.5,-0.7824 -0.5,-1.2812 l 0,-42.9375 c 0,-1.0482 0.8269,-1.875 1.875,-1.875 l 42.9375,0 c 1.0481,0 1.875,0.8268 1.875,1.875 l 0,42.9375 c 0,0.4988 -0.19066,0.9479 -0.5,1.2812 0.67623,-0.301 1.15625,-0.9566 1.15625,-1.75 l 0,-43.0625 c 0,-1.0773 -0.86022,-1.9375 -1.9375,-1.9375 l -44.125,0 z"/></g></svg>