<svg xmlns="http://www.w3.org/2000/svg" xmlns:svg="http://www.w3.org/2000/svg" xmlns:xlink="http://www.w3.org/1999/xlink" id="svg6389" width="48" height="48" version="1.1"><defs id="defs6391"><linearGradient id="linearGradient4312"><stop id="stop4314" offset="0" stop-color="#dadcde" stop-opacity="1"/><stop id="stop4316" offset="1" stop-color="#fafafa" stop-opacity="1"/></linearGradient><linearGradient id="linearGradient4503"><stop id="stop4505" offset="0" stop-color="#90959c" stop-opacity="1"/><stop id="stop4507" offset="1" stop-color="#c4c8cc" stop-opacity="1"/></linearGradient><linearGradient id="linearGradient4461"><stop id="stop4463" offset="0" stop-color="#45484d" stop-opacity="1"/><stop id="stop4465" offset="1" stop-color="#5e656b" stop-opacity="1"/></linearGradient><linearGradient id="linearGradient4788"><stop id="stop4790" offset="0" stop-color="#000" stop-opacity="1"/><stop id="stop4792" offset="1" stop-color="#000" stop-opacity="0"/></linearGradient><linearGradient id="linearGradient4433"><stop id="stop4435" offset="0" stop-color="#2b3141" stop-opacity="1"/><stop id="stop4437" offset="1" stop-color="#394056" stop-opacity="1"/></linearGradient><linearGradient id="linearGradient4117-8" x1="92.143" x2="92.143" y1="-1049.092" y2="-1001.09" gradientTransform="translate(262.63966,700.03565)" gradientUnits="userSpaceOnUse" xlink:href="#linearGradient4461"/><linearGradient id="linearGradient4439" x1="42.957" x2="42.957" y1="48" y2="33.999" gradientTransform="translate(327.5331,301.05236)" gradientUnits="userSpaceOnUse" xlink:href="#linearGradient4433"/><linearGradient id="linearGradient4786" x1="458.571" x2="472.509" y1="871.361" y2="862.361" gradientTransform="matrix(-1,0,0,-1,820.10454,1211.4138)" gradientUnits="userSpaceOnUse" xlink:href="#linearGradient4788"/><linearGradient id="linearGradient4219" x1="465.571" x2="458.571" y1="869.362" y2="862.363" gradientTransform="translate(-97.03834,-527.30983)" gradientUnits="userSpaceOnUse" xlink:href="#linearGradient4503"/><linearGradient id="linearGradient4310" x1="24.926" x2="24.926" y1="39" y2="9" gradientUnits="userSpaceOnUse" xlink:href="#linearGradient4312"/></defs><metadata id="metadata6394"/><g id="layer1" transform="translate(-327.53309,-301.05235)"><rect id="rect2991-1-7-3-6" width="48" height="48" x="327.533" y="-349.052" fill="url(#linearGradient4117-8)" fill-opacity="1" stroke="none" ry="1.945" transform="scale(1,-1)"/><path id="path4324" fill="#000" fill-opacity=".235" stroke="none" d="m 342.03309,311.25235 c -2.14445,0 -3.99048,1.21801 -4.89844,3 l 7.39844,0 0,16.60156 c -0.001,0.83008 -0.66966,1.49805 -1.5,1.49805 -0.831,0 -1.5,-0.669 -1.5,-1.5 l 0,-0.57617 c -2.81081,0.25117 -5,2.59824 -5,5.47656 0,3.047 2.453,5.5 5.5,5.5 3.047,0 5.5,-2.453 5.5,-5.5 l 0,-21.5 8,0 0,2.5 0,1.5 0,6 0,4 0,7.5 c 0,3.047 2.453,5.5 5.5,5.5 3.047,0 5.5,-2.453 5.5,-5.5 l 0,-5.5 -3,0 0,5.5 c 0,1.385 -1.115,2.5 -2.5,2.5 -1.385,0 -2.5,-1.115 -2.5,-2.5 l 0,-5.5 0,-2 0,-4 0,-6 0,-1.5 0,-2.5 8,0 0,-3 -24.5,0 z"/><path id="path4322" fill="#000" fill-opacity=".118" stroke="none" d="m 342.03309,310.85235 c -2.14445,0 -3.99048,1.21801 -4.89844,3 l 7.39844,0 0,16.60156 c -0.001,0.83008 -0.66966,1.49805 -1.5,1.49805 -0.831,0 -1.5,-0.669 -1.5,-1.5 l 0,-0.57617 c -2.81081,0.25117 -5,2.59824 -5,5.47656 0,3.047 2.453,5.5 5.5,5.5 3.047,0 5.5,-2.453 5.5,-5.5 l 0,-21.5 8,0 0,2.5 0,1.5 0,6 0,4 0,7.5 c 0,3.047 2.453,5.5 5.5,5.5 3.047,0 5.5,-2.453 5.5,-5.5 l 0,-5.5 -3,0 0,5.5 c 0,1.385 -1.115,2.5 -2.5,2.5 -1.385,0 -2.5,-1.115 -2.5,-2.5 l 0,-5.5 0,-2 0,-4 0,-6 0,-1.5 0,-2.5 8,0 0,-3 -24.5,0 z"/><path id="path4318" fill="#000" fill-opacity=".235" stroke="none" d="m 342.03309,310.45235 c -2.14445,0 -3.99048,1.21801 -4.89844,3 l 7.39844,0 0,16.60156 c -0.001,0.83008 -0.66966,1.49805 -1.5,1.49805 -0.831,0 -1.5,-0.669 -1.5,-1.5 l 0,-0.57617 c -2.81081,0.25117 -5,2.59824 -5,5.47656 0,3.047 2.453,5.5 5.5,5.5 3.047,0 5.5,-2.453 5.5,-5.5 l 0,-21.5 8,0 0,2.5 0,1.5 0,6 0,4 0,7.5 c 0,3.047 2.453,5.5 5.5,5.5 3.047,0 5.5,-2.453 5.5,-5.5 l 0,-5.5 -3,0 0,5.5 c 0,1.385 -1.115,2.5 -2.5,2.5 -1.385,0 -2.5,-1.115 -2.5,-2.5 l 0,-5.5 0,-2 0,-4 0,-6 0,-1.5 0,-2.5 8,0 0,-3 -24.5,0 z"/><path id="rect4234" fill="url(#linearGradient4310)" fill-opacity="1" stroke="none" d="M 14.5 9 C 12.355552 9 10.50952 10.218009 9.6015625 12 L 17 12 L 17 28.601562 C 16.998934 29.431641 16.330337 30.099609 15.5 30.099609 C 14.669 30.099609 14 29.430609 14 28.599609 L 14 28.023438 C 11.189187 28.274612 9 30.621679 9 33.5 C 9 36.547 11.453 39 14.5 39 C 17.547 39 20 36.547 20 33.5 L 20 12 L 28 12 L 28 14.5 L 28 16 L 28 22 L 28 26 L 28 33.5 C 28 36.547001 30.452999 39 33.5 39 C 36.547001 39 39 36.547001 39 33.5 L 39 28 L 36 28 L 36 33.5 C 36 34.885 34.885 36 33.5 36 C 32.115 36 31 34.885 31 33.5 L 31 28 L 31 26 L 31 22 L 31 16 L 31 14.5 L 31 12 L 39 12 L 39 9 L 14.5 9 z" transform="translate(327.53309,301.05235)"/><path id="path7515-3-7" fill="#fff" fill-opacity=".537" stroke="none" d="m 330.06433,301.70866 c -0.91709,0 -1.67115,0.6395 -1.84375,1.5 0.33561,-0.2799 0.77451,-0.4375 1.25,-0.4375 l 44.125,0 c 0.47549,0 0.91439,0.1576 1.25,0.4375 -0.1726,-0.8605 -0.92666,-1.5 -1.84375,-1.5 l -42.9375,0 z"/><path id="path4108" fill="#4c5055" fill-opacity=".314" stroke="none" d="M 10.113281 11.199219 C 9.923224 11.452195 9.7464464 11.715645 9.6015625 12 L 17 12 L 17 11.199219 L 10.113281 11.199219 z M 20 11.199219 L 20 12 L 28 12 L 28 11.199219 L 20 11.199219 z M 31 11.199219 L 31 12 L 39 12 L 39 11.199219 L 31 11.199219 z M 20 32.699219 C 20 35.746219 17.547 38.199219 14.5 38.199219 C 11.586773 38.199219 9.2220378 35.955637 9.0195312 33.095703 C 9.0098644 33.229559 9 33.363592 9 33.5 C 9 36.547 11.453 39 14.5 39 C 17.547 39 20 36.547 20 33.5 L 20 32.699219 z M 28 32.699219 L 28 33.5 C 28 36.547001 30.452999 39 33.5 39 C 36.547001 39 39 36.547001 39 33.5 L 39 32.699219 C 39 35.746219 36.547 38.199219 33.5 38.199219 C 30.453 38.199219 28 35.746219 28 32.699219 z" transform="translate(327.53309,301.05235)"/><path id="path4113" fill="#fff" fill-opacity=".235" stroke="none" d="M 14.5 9 C 12.355552 9 10.50952 10.218009 9.6015625 12 L 9.8398438 12 C 10.808343 10.441908 12.522905 9.4003906 14.5 9.4003906 L 39 9.4003906 L 39 9 L 14.5 9 z M 36 28 L 36 28.400391 L 39 28.400391 L 39 28 L 36 28 z M 14 28.023438 C 11.189187 28.274612 9 30.621679 9 33.5 C 9 33.567215 9.0073982 33.632602 9.0097656 33.699219 C 9.109729 30.914088 11.255473 28.669075 14 28.423828 L 14 28.023438 z M 14 28.599609 L 14 29 C 14 29.831 14.669 30.5 15.5 30.5 C 16.33034 30.5 16.999 29.832033 17 29.001953 L 17 28.601562 C 16.998934 29.431641 16.330337 30.099609 15.5 30.099609 C 14.669 30.099609 14 29.430609 14 28.599609 z M 31 33.5 L 31 33.900391 C 31 35.285391 32.115 36.400391 33.5 36.400391 C 34.885 36.400391 36 35.285391 36 33.900391 L 36 33.5 C 36 34.885 34.885 36 33.5 36 C 32.115 36 31 34.885 31 33.5 z" transform="translate(327.53309,301.05235)"/><path id="path4130" fill="url(#linearGradient4219)" fill-opacity="1" stroke="none" d="m 361.5331,335.05166 0,14.0007 14,-14 z"/><path id="path4303" fill="url(#linearGradient4439)" fill-opacity="1" stroke="none" d="m 375.5331,335.05236 -14,14 12.05469,0 c 1.07727,0 1.94531,-0.868 1.94531,-1.9453 l 0,-12.0547 z"/><path id="path4784" fill="url(#linearGradient4786)" fill-opacity="1" stroke="none" d="m 361.5331,349.05236 0,-14.0007 -14,14 z" opacity=".1"/><path id="rect846-0-2" fill="#000" fill-opacity="1" stroke="none" d="m 327.53308,346.05236 0,1.0625 c 0,1.0773 0.86022,1.9375 1.9375,1.9375 l 44.125,0 c 1.07728,0 1.9375,-0.8602 1.9375,-1.9375 l 0,-1.0625 c 0,1.0773 -0.86022,1.9375 -1.9375,1.9375 l -44.125,0 c -1.07728,0 -1.9375,-0.8602 -1.9375,-1.9375 z"/><path id="rect4280-1-0" fill="#000" fill-opacity=".392" stroke="none" d="m 329.47058,301.05236 c -1.07728,0 -1.9375,0.8602 -1.9375,1.9375 l 0,43.0625 c 0,0.7934 0.48002,1.449 1.15625,1.75 -0.30934,-0.3333 -0.5,-0.7824 -0.5,-1.2812 l 0,-42.9375 c 0,-1.0482 0.8269,-1.875 1.875,-1.875 l 42.9375,0 c 1.0481,0 1.875,0.8268 1.875,1.875 l 0,42.9375 c 0,0.4988 -0.19066,0.9479 -0.5,1.2812 0.67623,-0.301 1.15625,-0.9566 1.15625,-1.75 l 0,-43.0625 c 0,-1.0773 -0.86022,-1.9375 -1.9375,-1.9375 l -44.125,0 z"/></g></svg>