<svg xmlns="http://www.w3.org/2000/svg" xmlns:svg="http://www.w3.org/2000/svg" xmlns:xlink="http://www.w3.org/1999/xlink" id="svg6388" width="48" height="48" version="1.1"><defs id="defs6390"><linearGradient id="linearGradient4250"><stop id="stop4252" offset="0" stop-color="#cdeeff" stop-opacity="1"/><stop id="stop4254" offset="1" stop-color="#f5fcff" stop-opacity="1"/></linearGradient><linearGradient id="linearGradient4227"><stop id="stop4229" offset="0" stop-color="#2db7ff" stop-opacity="1"/><stop id="stop4231" offset="1" stop-color="#91ddff" stop-opacity="1"/></linearGradient><linearGradient id="linearGradient4788"><stop id="stop4790" offset="0" stop-color="#000" stop-opacity="1"/><stop id="stop4792" offset="1" stop-color="#000" stop-opacity="0"/></linearGradient><linearGradient id="linearGradient4433"><stop id="stop4435" offset="0" stop-color="#2b3141" stop-opacity="1"/><stop id="stop4437" offset="1" stop-color="#394056" stop-opacity="1"/></linearGradient><linearGradient id="linearGradient943"><stop id="stop945" offset="0" stop-color="#00a6fc" stop-opacity="1"/><stop id="stop947" offset="1" stop-color="#68cfff" stop-opacity="1"/></linearGradient><linearGradient id="linearGradient4117" x1="92.143" x2="92.143" y1="-1049.092" y2="-1001.09" gradientTransform="translate(359.678,172.72582)" gradientUnits="userSpaceOnUse" xlink:href="#linearGradient943"/><linearGradient id="linearGradient4439" x1="42.957" x2="42.957" y1="48" y2="33.999" gradientUnits="userSpaceOnUse" xlink:href="#linearGradient4433"/><linearGradient id="linearGradient4786" x1="458.571" x2="472.509" y1="871.361" y2="862.361" gradientTransform="matrix(-1,0,0,-1,917.14288,1738.7236)" gradientUnits="userSpaceOnUse" xlink:href="#linearGradient4788"/><linearGradient id="linearGradient4219" x1="465.571" x2="458.571" y1="869.362" y2="862.363" gradientUnits="userSpaceOnUse" xlink:href="#linearGradient4227"/><linearGradient id="linearGradient4248" x1="449.658" x2="449.658" y1="867.362" y2="837.358" gradientUnits="userSpaceOnUse" xlink:href="#linearGradient4250"/></defs><metadata id="metadata6393"/><g id="layer1" transform="translate(-424.57144,-828.36218)"><rect id="rect2991-1-7-3" width="48" height="48" x="424.571" y="-876.362" fill="url(#linearGradient4117)" fill-opacity="1" stroke="none" ry="1.945" transform="scale(1,-1)"/><path id="path4262" fill="#000" fill-opacity=".059" fill-rule="nonzero" stroke="none" d="m 455.53277,839.72278 c 1.5e-4,0 -1.13021,-1.1606 -1.74032,-1.1606 -0.61055,-10e-5 -1.74035,1.1606 -1.74035,1.1606 l -1.74034,1.7402 10.35913,10.359 1.74028,-1.7402 c 0,0 1.16015,-1.1306 1.16023,-1.7408 4e-5,-0.6106 -1.11875,-1.6985 -1.11875,-1.6985 z m -6.38122,2.9001 -14.41988,14.4196 3.7098,1.4699 1.46974,3.7104 3.70978,1.4692 1.46985,3.7103 14.3784,-14.3787 z m -15.58007,15.5802 0,10.3591 10.35909,0 -1.5297,-3.6497 -3.64987,-1.5298 -1.52967,-3.6497 z" display="inline"/><path id="path4260" fill="#000" fill-opacity=".118" fill-rule="nonzero" stroke="none" d="m 455.53277,839.32278 c 1.5e-4,0 -1.13021,-1.1606 -1.74032,-1.1606 -0.61055,-1e-4 -1.74035,1.1606 -1.74035,1.1606 l -1.74034,1.7402 10.35913,10.359 1.74028,-1.7402 c 0,0 1.16015,-1.1306 1.16023,-1.7408 4e-5,-0.6106 -1.11875,-1.6985 -1.11875,-1.6985 z m -6.38122,2.9001 -14.41988,14.4196 3.7098,1.4699 1.46974,3.7104 3.70978,1.4692 1.46985,3.7103 14.3784,-14.3787 z m -15.58007,15.5802 0,10.3591 10.35909,0 -1.5297,-3.6497 -3.64987,-1.5298 -1.52967,-3.6497 z" display="inline"/><path id="path4130" fill="url(#linearGradient4219)" fill-opacity="1" stroke="none" stroke-linecap="butt" stroke-linejoin="miter" stroke-opacity="1" stroke-width="1" d="m 458.57144,862.36145 0,14.00073 14,-14 z"/><path id="path4303" fill="url(#linearGradient4439)" fill-opacity="1" stroke="none" stroke-linecap="butt" stroke-linejoin="miter" stroke-opacity="1" stroke-width="1" d="M 48 34 L 34 48 L 46.054688 48 C 47.131965 48 48 47.131965 48 46.054688 L 48 34 z" transform="translate(424.57144,828.36218)"/><path id="path4784" fill="url(#linearGradient4786)" fill-opacity="1" stroke="none" d="m 458.57144,876.36218 0,-14.00073 -14,14 z" opacity=".1"/><path id="rect846-0" fill="#000" fill-opacity="1" stroke="none" d="m 424.57142,873.3622 0,1.0625 c 0,1.0773 0.86022,1.9375 1.9375,1.9375 l 44.125,0 c 1.07728,0 1.9375,-0.8602 1.9375,-1.9375 l 0,-1.0625 c 0,1.0773 -0.86022,1.9375 -1.9375,1.9375 l -44.125,0 C 425.43164,875.2997 424.57142,874.4395 424.57142,873.3622 Z"/><path id="path7515-3" fill="#fff" fill-opacity=".537" stroke="none" d="m 427.10267,829.0185 c -0.91709,0 -1.67115,0.6395 -1.84375,1.5 0.33561,-0.2799 0.77451,-0.4375 1.25,-0.4375 l 44.125,0 c 0.47549,0 0.91439,0.1576 1.25,0.4375 -0.1726,-0.8605 -0.92666,-1.5 -1.84375,-1.5 L 427.10267,829.0185 Z"/><path id="rect4280-1" fill="#000" fill-opacity=".392" stroke="none" d="m 426.50892,828.3622 c -1.07728,0 -1.9375,0.8602 -1.9375,1.9375 l 0,43.0625 c 0,0.7934 0.48002,1.449 1.15625,1.75 -0.30934,-0.3333 -0.5,-0.7824 -0.5,-1.2812 l 0,-42.9375 c 0,-1.0482 0.8269,-1.875 1.875,-1.875 l 42.9375,0 c 1.0481,0 1.875,0.8268 1.875,1.875 l 0,42.9375 c 0,0.4988 -0.19066,0.9479 -0.5,1.2812 0.67623,-0.301 1.15625,-0.9566 1.15625,-1.75 l 0,-43.0625 c 0,-1.0773 -0.86022,-1.9375 -1.9375,-1.9375 L 426.50892,828.3622 Z"/><path id="path4256" fill="#000" fill-opacity=".235" fill-rule="nonzero" stroke="none" d="m 455.53277,838.92278 c 1.5e-4,0 -1.13021,-1.1606 -1.74032,-1.1606 -0.61055,-10e-5 -1.74035,1.1606 -1.74035,1.1606 l -1.74034,1.7402 10.35913,10.359 1.74028,-1.7402 c 0,0 1.16015,-1.1306 1.16023,-1.7408 4e-5,-0.6106 -1.11875,-1.6985 -1.11875,-1.6985 z m -6.38122,2.9001 -14.41988,14.4196 3.7098,1.4699 1.46974,3.7104 3.70978,1.4692 1.46985,3.7103 14.3784,-14.3787 z m -15.58007,15.5802 0,10.3591 10.35909,0 -1.5297,-3.6497 -3.64987,-1.5298 -1.52967,-3.6497 z" display="inline"/><path id="path314" fill="url(#linearGradient4248)" fill-opacity="1" fill-rule="nonzero" stroke="none" d="m 455.53277,838.52278 c 1.5e-4,0 -1.13021,-1.1606 -1.74032,-1.1606 -0.61055,-10e-5 -1.74035,1.1606 -1.74035,1.1606 l -1.74034,1.7402 10.35913,10.359 1.74028,-1.7402 c 0,0 1.16015,-1.1306 1.16023,-1.7408 4e-5,-0.6106 -1.11875,-1.6985 -1.11875,-1.6985 z m -6.38122,2.9001 -14.41988,14.4196 3.7098,1.4699 1.46974,3.7104 3.70978,1.4692 1.46985,3.7103 14.3784,-14.3787 z m -15.58007,15.5802 0,10.3591 10.35909,0 -1.5297,-3.6497 -3.64987,-1.5298 -1.52967,-3.6497 z" display="inline"/><path id="path4264" fill="#08a9fc" fill-opacity=".314" fill-rule="nonzero" stroke="none" d="M 26.140625 11.5 L 25.740234 11.900391 L 36.099609 22.259766 L 37.839844 20.519531 C 37.839844 20.519531 38.99992 19.389497 39 18.779297 C 39.000008 18.660089 38.947537 18.520899 38.878906 18.376953 C 38.588361 18.982466 37.839844 19.71875 37.839844 19.71875 L 36.099609 21.458984 L 26.140625 11.5 z M 34.5 23.060547 L 20.519531 37.041016 L 19.048828 33.330078 L 15.339844 31.861328 L 13.869141 28.150391 L 10.734375 26.90625 L 10.160156 27.480469 L 13.869141 28.951172 L 15.339844 32.660156 L 19.048828 34.128906 L 20.519531 37.839844 L 34.898438 23.460938 L 34.5 23.060547 z M 9 38.199219 L 9 39 L 19.359375 39 L 19.023438 38.199219 L 9 38.199219 z" display="inline" transform="translate(424.57144,828.36218)"/><path id="path4269" fill="#fff" fill-opacity=".235" fill-rule="nonzero" stroke="none" d="M 29.220703 9 C 28.610153 8.9999 27.480469 10.160156 27.480469 10.160156 L 25.740234 11.900391 L 25.941406 12.101562 L 27.480469 10.560547 C 27.480469 10.560547 28.610153 9.4002906 29.220703 9.4003906 C 29.830813 9.4003906 30.961088 10.560547 30.960938 10.560547 L 37.880859 17.480469 C 37.880859 17.480469 38.776297 18.353531 38.960938 18.974609 C 38.980888 18.906677 38.999992 18.83885 39 18.779297 C 39.00004 18.168697 37.880859 17.080078 37.880859 17.080078 L 30.960938 10.160156 C 30.961088 10.160156 29.830813 9 29.220703 9 z M 24.580078 13.060547 L 10.160156 27.480469 L 10.447266 27.59375 L 24.580078 13.460938 L 34.699219 23.660156 L 34.898438 23.460938 L 24.580078 13.060547 z M 9 28.640625 L 9 29.041016 L 12.650391 30.570312 L 14.179688 34.220703 L 17.830078 35.75 L 19.191406 39 L 19.359375 39 L 17.830078 35.349609 L 14.179688 33.820312 L 12.650391 30.169922 L 9 28.640625 z" display="inline" transform="translate(424.57144,828.36218)"/></g></svg>