<svg xmlns="http://www.w3.org/2000/svg" xmlns:svg="http://www.w3.org/2000/svg" xmlns:xlink="http://www.w3.org/1999/xlink" id="svg2" width="48" height="48" version="1.1"><defs id="defs4"><linearGradient id="linearGradient4127"><stop id="stop4129" offset="0" stop-color="#dadcde" stop-opacity="1"/><stop id="stop4131" offset="1" stop-color="#fafafa" stop-opacity="1"/></linearGradient><linearGradient id="linearGradient4503"><stop id="stop4505" offset="0" stop-color="#90959c" stop-opacity="1"/><stop id="stop4507" offset="1" stop-color="#c4c8cc" stop-opacity="1"/></linearGradient><linearGradient id="linearGradient4461"><stop id="stop4463" offset="0" stop-color="#45484d" stop-opacity="1"/><stop id="stop4465" offset="1" stop-color="#5e656b" stop-opacity="1"/></linearGradient><linearGradient id="linearGradient4788"><stop id="stop4790" offset="0" stop-color="#000" stop-opacity="1"/><stop id="stop4792" offset="1" stop-color="#000" stop-opacity="0"/></linearGradient><linearGradient id="linearGradient4433"><stop id="stop4435" offset="0" stop-color="#2b3141" stop-opacity="1"/><stop id="stop4437" offset="1" stop-color="#394056" stop-opacity="1"/></linearGradient><linearGradient id="linearGradient4117" x1="92.143" x2="92.143" y1="-1049.092" y2="-1001.09" gradientTransform="translate(-64.89343,-3.27419)" gradientUnits="userSpaceOnUse" xlink:href="#linearGradient4461"/><linearGradient id="linearGradient4439" x1="42.957" x2="42.957" y1="48" y2="33.999" gradientTransform="translate(1e-5,1004.3622)" gradientUnits="userSpaceOnUse" xlink:href="#linearGradient4433"/><linearGradient id="linearGradient4786" x1="458.571" x2="472.509" y1="871.361" y2="862.361" gradientTransform="matrix(-1,0,0,-1,492.57145,1914.7236)" gradientUnits="userSpaceOnUse" xlink:href="#linearGradient4788"/><linearGradient id="linearGradient4219" x1="465.571" x2="458.571" y1="869.362" y2="862.363" gradientTransform="translate(-424.57143,176.00001)" gradientUnits="userSpaceOnUse" xlink:href="#linearGradient4503"/><linearGradient id="linearGradient4192" x1="26.165" x2="26.165" y1="39" y2="9" gradientUnits="userSpaceOnUse" xlink:href="#linearGradient4127"/></defs><metadata id="metadata7"/><g id="layer1" transform="translate(0,-1004.3622)"><rect id="rect2991-1-7-3" width="48" height="48" x="0" y="-1052.362" fill="url(#linearGradient4117)" fill-opacity="1" stroke="none" ry="1.945" transform="scale(1,-1)"/><path id="path4200" fill="#000" fill-opacity=".059" stroke="none" d="m 9,1014.5622 0,30 30,0 0,-30 -30,0 z m 2,2 4,0 0,4 -4,0 0,-4 z m 5,0 16,0 0,11 -16,0 0,-11 z m 17,0 4,0 0,4 -4,0 0,-4 z m -22,5.5 4,0 0,4 -4,0 0,-4 z m 22,0 4,0 0,4 -4,0 0,-4 z m -22,5.5 4,0 0,4 -4,0 0,-4 z m 22,0 4,0 0,4 -4,0 0,-4 z m -17,4 16,0 0,11 -16,0 0,-11 z m -5,1.5 4,0 0,4 -4,0 0,-4 z m 22,0 4,0 0,4 -4,0 0,-4 z m -22,5.5 4,0 0,4 -4,0 0,-4 z m 22,0 4,0 0,4 -4,0 0,-4 z"/><path id="path4198" fill="#000" fill-opacity=".118" stroke="none" d="m 9,1014.1622 0,30 30,0 0,-30 -30,0 z m 2,2 4,0 0,4 -4,0 0,-4 z m 5,0 16,0 0,11 -16,0 0,-11 z m 17,0 4,0 0,4 -4,0 0,-4 z m -22,5.5 4,0 0,4 -4,0 0,-4 z m 22,0 4,0 0,4 -4,0 0,-4 z m -22,5.5 4,0 0,4 -4,0 0,-4 z m 22,0 4,0 0,4 -4,0 0,-4 z m -17,4 16,0 0,11 -16,0 0,-11 z m -5,1.5 4,0 0,4 -4,0 0,-4 z m 22,0 4,0 0,4 -4,0 0,-4 z m -22,5.5 4,0 0,4 -4,0 0,-4 z m 22,0 4,0 0,4 -4,0 0,-4 z"/><path id="path4194" fill="#000" fill-opacity=".235" stroke="none" d="m 9,1013.7622 0,30 30,0 0,-30 -30,0 z m 2,2 4,0 0,4 -4,0 0,-4 z m 5,0 16,0 0,11 -16,0 0,-11 z m 17,0 4,0 0,4 -4,0 0,-4 z m -22,5.5 4,0 0,4 -4,0 0,-4 z m 22,0 4,0 0,4 -4,0 0,-4 z m -22,5.5 4,0 0,4 -4,0 0,-4 z m 22,0 4,0 0,4 -4,0 0,-4 z m -17,4 16,0 0,11 -16,0 0,-11 z m -5,1.5 4,0 0,4 -4,0 0,-4 z m 22,0 4,0 0,4 -4,0 0,-4 z m -22,5.5 4,0 0,4 -4,0 0,-4 z m 22,0 4,0 0,4 -4,0 0,-4 z"/><path id="rect4123" fill="url(#linearGradient4192)" fill-opacity="1" stroke="none" d="M 9 9 L 9 39 L 39 39 L 39 9 L 9 9 z M 11 11 L 15 11 L 15 15 L 11 15 L 11 11 z M 16 11 L 32 11 L 32 22 L 16 22 L 16 11 z M 33 11 L 37 11 L 37 15 L 33 15 L 33 11 z M 11 16.5 L 15 16.5 L 15 20.5 L 11 20.5 L 11 16.5 z M 33 16.5 L 37 16.5 L 37 20.5 L 33 20.5 L 33 16.5 z M 11 22 L 15 22 L 15 26 L 11 26 L 11 22 z M 33 22 L 37 22 L 37 26 L 33 26 L 33 22 z M 16 26 L 32 26 L 32 37 L 16 37 L 16 26 z M 11 27.5 L 15 27.5 L 15 31.5 L 11 31.5 L 11 27.5 z M 33 27.5 L 37 27.5 L 37 31.5 L 33 31.5 L 33 27.5 z M 11 33 L 15 33 L 15 37 L 11 37 L 11 33 z M 33 33 L 37 33 L 37 37 L 33 37 L 33 33 z" transform="translate(0,1004.3622)"/><path id="path7515-3" fill="#fff" fill-opacity=".537" stroke="none" d="m 2.53124,1005.0185 c -0.91709,0 -1.67115,0.6395 -1.84375,1.5 0.33561,-0.2799 0.77451,-0.4375 1.25,-0.4375 l 44.125,0 c 0.47549,0 0.91439,0.1576 1.25,0.4375 -0.1726,-0.8605 -0.92666,-1.5 -1.84375,-1.5 l -42.9375,0 z"/><path id="path4202" fill="#4c5055" fill-opacity=".314" stroke="none" d="M 11 10.199219 L 11 11 L 15 11 L 15 10.199219 L 11 10.199219 z M 16 10.199219 L 16 11 L 32 11 L 32 10.199219 L 16 10.199219 z M 33 10.199219 L 33 11 L 37 11 L 37 10.199219 L 33 10.199219 z M 11 15.699219 L 11 16.5 L 15 16.5 L 15 15.699219 L 11 15.699219 z M 33 15.699219 L 33 16.5 L 37 16.5 L 37 15.699219 L 33 15.699219 z M 11 21.199219 L 11 22 L 15 22 L 15 21.199219 L 11 21.199219 z M 33 21.199219 L 33 22 L 37 22 L 37 21.199219 L 33 21.199219 z M 16 25.199219 L 16 26 L 32 26 L 32 25.199219 L 16 25.199219 z M 11 26.699219 L 11 27.5 L 15 27.5 L 15 26.699219 L 11 26.699219 z M 33 26.699219 L 33 27.5 L 37 27.5 L 37 26.699219 L 33 26.699219 z M 11 32.199219 L 11 33 L 15 33 L 15 32.199219 L 11 32.199219 z M 33 32.199219 L 33 33 L 37 33 L 37 32.199219 L 33 32.199219 z M 9 38.199219 L 9 39 L 39 39 L 39 38.199219 L 9 38.199219 z" transform="translate(0,1004.3622)"/><path id="path4207" fill="#fff" fill-opacity=".235" stroke="none" d="M 9 9 L 9 9.4003906 L 39 9.4003906 L 39 9 L 9 9 z M 11 15 L 11 15.400391 L 15 15.400391 L 15 15 L 11 15 z M 33 15 L 33 15.400391 L 37 15.400391 L 37 15 L 33 15 z M 11 20.5 L 11 20.900391 L 15 20.900391 L 15 20.5 L 11 20.5 z M 33 20.5 L 33 20.900391 L 37 20.900391 L 37 20.5 L 33 20.5 z M 16 22 L 16 22.400391 L 32 22.400391 L 32 22 L 16 22 z M 11 26 L 11 26.400391 L 15 26.400391 L 15 26 L 11 26 z M 33 26 L 33 26.400391 L 37 26.400391 L 37 26 L 33 26 z M 11 31.5 L 11 31.900391 L 15 31.900391 L 15 31.5 L 11 31.5 z M 33 31.5 L 33 31.900391 L 37 31.900391 L 37 31.5 L 33 31.5 z M 11 37 L 11 37.400391 L 15 37.400391 L 15 37 L 11 37 z M 16 37 L 16 37.400391 L 32 37.400391 L 32 37 L 16 37 z M 33 37 L 33 37.400391 L 37 37.400391 L 37 37 L 33 37 z" transform="translate(0,1004.3622)"/><path id="path4130" fill="url(#linearGradient4219)" fill-opacity="1" stroke="none" d="m 34.00001,1038.3615 0,14.0007 14,-14 z"/><path id="path4303" fill="url(#linearGradient4439)" fill-opacity="1" stroke="none" d="m 48.00001,1038.3622 -14,14 12.05469,0 c 1.07727,0 1.94531,-0.868 1.94531,-1.9453 l 0,-12.0547 z"/><path id="path4784" fill="url(#linearGradient4786)" fill-opacity="1" stroke="none" d="m 34.00001,1052.3622 0,-14.0007 -14,14 z" opacity=".1"/><path id="rect846-0-2" fill="#000" fill-opacity="1" stroke="none" d="m -1e-5,1049.3622 0,1.0625 c 0,1.0773 0.86022,1.9375 1.9375,1.9375 l 44.125,0 c 1.07728,0 1.9375,-0.8602 1.9375,-1.9375 l 0,-1.0625 c 0,1.0773 -0.86022,1.9375 -1.9375,1.9375 l -44.125,0 c -1.07728,0 -1.9375,-0.8602 -1.9375,-1.9375 z"/><path id="rect4280-1" fill="#000" fill-opacity=".392" stroke="none" d="m 1.93749,1004.3622 c -1.07728,0 -1.9375,0.8602 -1.9375,1.9375 l 0,43.0625 c 0,0.7934 0.48002,1.449 1.15625,1.75 -0.30934,-0.3333 -0.5,-0.7824 -0.5,-1.2812 l 0,-42.9375 c 0,-1.0482 0.8269,-1.875 1.875,-1.875 l 42.9375,0 c 1.0481,0 1.875,0.8268 1.875,1.875 l 0,42.9375 c 0,0.4988 -0.19066,0.9479 -0.5,1.2812 0.67623,-0.301 1.15625,-0.9566 1.15625,-1.75 l 0,-43.0625 c 0,-1.0773 -0.86022,-1.9375 -1.9375,-1.9375 l -44.125,0 z"/></g></svg>