<svg xmlns="http://www.w3.org/2000/svg" xmlns:svg="http://www.w3.org/2000/svg" xmlns:xlink="http://www.w3.org/1999/xlink" id="svg2" width="48" height="48" version="1.1"><defs id="defs4"><linearGradient id="linearGradient4372"><stop id="stop4374" offset="0" stop-color="#cdd1eb" stop-opacity="1"/><stop id="stop4376" offset="1" stop-color="#f7f8fd" stop-opacity="1"/></linearGradient><linearGradient id="linearGradient4349"><stop id="stop4351" offset="0" stop-color="#6a76c2" stop-opacity="1"/><stop id="stop4353" offset="1" stop-color="#a6b0ea" stop-opacity="1"/></linearGradient><linearGradient id="linearGradient4117-2" x1="92.143" x2="92.143" y1="-1049.092" y2="-1001.09" gradientTransform="translate(311.10656,587.01152)" gradientUnits="userSpaceOnUse" xlink:href="#linearGradient943"/><linearGradient id="linearGradient943"><stop id="stop945" offset="0" stop-color="#4e5db7" stop-opacity="1"/><stop id="stop947" offset="1" stop-color="#6475da" stop-opacity="1"/></linearGradient><linearGradient id="linearGradient4219" x1="465.571" x2="458.571" y1="869.362" y2="862.363" gradientTransform="translate(-48.57144,-414.2857)" gradientUnits="userSpaceOnUse" xlink:href="#linearGradient4349"/><linearGradient id="linearGradient4439" x1="42.957" x2="42.957" y1="48" y2="33.999" gradientTransform="translate(376,414.07648)" gradientUnits="userSpaceOnUse" xlink:href="#linearGradient4433"/><linearGradient id="linearGradient4433"><stop id="stop4435" offset="0" stop-color="#2b3141" stop-opacity="1"/><stop id="stop4437" offset="1" stop-color="#394056" stop-opacity="1"/></linearGradient><linearGradient id="linearGradient4786" x1="458.571" x2="472.509" y1="871.361" y2="862.361" gradientTransform="matrix(-1,0,0,-1,868.57144,1324.4379)" gradientUnits="userSpaceOnUse" xlink:href="#linearGradient4788"/><linearGradient id="linearGradient4788"><stop id="stop4790" offset="0" stop-color="#000" stop-opacity="1"/><stop id="stop4792-7" offset="1" stop-color="#000" stop-opacity="0"/></linearGradient><linearGradient id="linearGradient4179" x1="395.675" x2="395.675" y1="453.076" y2="423.076" gradientUnits="userSpaceOnUse" xlink:href="#linearGradient4372"/></defs><metadata id="metadata7"/><g id="layer1" transform="translate(-376,-414.07648)"><flowRoot id="flowRoot4913" fill="#000" fill-opacity="1" stroke="none" stroke-linecap="butt" stroke-linejoin="miter" stroke-opacity="1" stroke-width="1" font-family="sans-serif" font-size="40" font-style="normal" font-weight="normal" letter-spacing="0" word-spacing="0" xml:space="preserve" style="line-height:125%"><flowRegion id="flowRegion4915"><rect id="rect4917" width="199.404" height="189.505" x="134.35" y="-275.855"/></flowRegion><flowPara id="flowPara4919"/></flowRoot><rect id="rect2991-1-7-3" width="48" height="48" x="376" y="-462.076" fill="url(#linearGradient4117-2)" fill-opacity="1" stroke="none" ry="1.945" transform="scale(1,-1)"/><path id="path4187" fill="#000" fill-opacity=".059" stroke="none" d="m 385,424.27648 0,30 30,0 0,-30 -30,0 z m 3,3 24,0 0,24 -24,0 0,-24 z m 16.75391,9.96289 -7.11133,9.48242 -4.83985,-2.41992 -3.80273,4.3457 0,0.73828 c 0,0.49375 0.39689,0.89063 0.89062,0.89063 l 5.08399,0 9.7793,0 5.35546,0 c 0.49372,0 0.89063,-0.39688 0.89063,-0.89063 l 0,-5.08398 -6.24609,-7.0625 z"/><path id="path4185" fill="#000" fill-opacity=".118" stroke="none" d="m 385,423.87648 0,30 30,0 0,-30 -30,0 z m 3,3 24,0 0,24 -24,0 0,-24 z m 16.75391,9.96289 -7.11133,9.48242 -4.83985,-2.41992 -3.80273,4.3457 0,0.73828 c 0,0.49375 0.39689,0.89063 0.89062,0.89063 l 5.08399,0 9.7793,0 5.35546,0 c 0.49372,0 0.89063,-0.39688 0.89063,-0.89063 l 0,-5.08398 -6.24609,-7.0625 z"/><path id="path4181" fill="#000" fill-opacity=".235" stroke="none" d="m 385,423.47648 0,30 30,0 0,-30 -30,0 z m 3,3 24,0 0,24 -24,0 0,-24 z m 16.75391,9.96289 -7.11133,9.48242 -4.83985,-2.41992 -3.80273,4.3457 0,0.73828 c 0,0.49375 0.39689,0.89063 0.89062,0.89063 l 5.08399,0 9.7793,0 5.35546,0 c 0.49372,0 0.89063,-0.39688 0.89063,-0.89063 l 0,-5.08398 -6.24609,-7.0625 z"/><path id="rect4195" fill="url(#linearGradient4179)" fill-opacity="1" stroke="none" d="m 385,423.07648 0,30 30,0 0,-30 -30,0 z m 3,3 24,0 0,24 -24,0 0,-24 z m 16.75391,9.96289 -7.11133,9.48242 -4.83985,-2.41992 -3.80273,4.3457 0,0.73828 c 0,0.49375 0.39689,0.89063 0.89062,0.89063 l 5.08399,0 9.7793,0 5.35546,0 c 0.49372,0 0.89063,-0.39688 0.89063,-0.89063 l 0,-5.08398 -6.24609,-7.0625 z"/><path id="path7515-3-3" fill="#fff" fill-opacity=".537" stroke="none" d="m 378.53123,414.7328 c -0.91709,0 -1.67115,0.6395 -1.84375,1.5 0.33561,-0.2799 0.77451,-0.4375 1.25,-0.4375 l 44.125,0 c 0.47549,0 0.91439,0.1576 1.25,0.4375 -0.1726,-0.8605 -0.92666,-1.5 -1.84375,-1.5 l -42.9375,0 z"/><path id="path4189" fill="#4d5cb7" fill-opacity=".314" stroke="none" d="M 12 11.199219 L 12 12 L 36 12 L 36 11.199219 L 12 11.199219 z M 35 33.308594 C 35 33.802344 34.603095 34.199219 34.109375 34.199219 L 28.753906 34.199219 L 18.974609 34.199219 L 13.890625 34.199219 C 13.41489 34.199219 13.037258 33.827942 13.009766 33.359375 L 13 33.371094 L 13 34.109375 C 13 34.603125 13.396895 35 13.890625 35 L 18.974609 35 L 28.753906 35 L 34.109375 35 C 34.603095 35 35 34.603125 35 34.109375 L 35 33.308594 z M 9 38.199219 L 9 39 L 39 39 L 39 38.199219 L 9 38.199219 z" transform="translate(376,414.07648)"/><path id="path4194" fill="#fff" fill-opacity=".235" stroke="none" d="M 9 9 L 9 9.5 L 39 9.5 L 39 9 L 9 9 z M 28.753906 21.962891 L 21.642578 31.445312 L 16.802734 29.025391 L 13 33.371094 L 13 33.871094 L 16.802734 29.525391 L 21.642578 31.945312 L 28.753906 22.462891 L 35 29.525391 L 35 29.025391 L 28.753906 21.962891 z M 12 36 L 12 36.5 L 36 36.5 L 36 36 L 12 36 z" transform="translate(376,414.07648)"/><path id="path4130" fill="url(#linearGradient4219)" fill-opacity="1" stroke="none" d="m 410,448.07575 0,14.00073 14,-14 z"/><path id="path4303" fill="url(#linearGradient4439)" fill-opacity="1" stroke="none" d="m 424,448.07648 -14,14 12.05469,0 c 1.07727,0 1.94531,-0.86804 1.94531,-1.94532 l 0,-12.05468 z"/><path id="path4784" fill="url(#linearGradient4786)" fill-opacity="1" stroke="none" d="m 410,462.07648 0,-14.00073 -14,14 z" opacity=".1"/><path id="rect846-0-5" fill="#000" fill-opacity="1" stroke="none" d="m 375.99998,459.0765 0,1.0625 c 0,1.0773 0.86022,1.9375 1.9375,1.9375 l 44.125,0 c 1.07728,0 1.9375,-0.8602 1.9375,-1.9375 l 0,-1.0625 c 0,1.0773 -0.86022,1.9375 -1.9375,1.9375 l -44.125,0 c -1.07728,0 -1.9375,-0.8602 -1.9375,-1.9375 z"/><path id="rect4280-1-9" fill="#000" fill-opacity=".392" stroke="none" d="m 377.93748,414.0765 c -1.07728,0 -1.9375,0.8602 -1.9375,1.9375 l 0,43.0625 c 0,0.7934 0.48002,1.449 1.15625,1.75 -0.30934,-0.3333 -0.5,-0.7824 -0.5,-1.2812 l 0,-42.9375 c 0,-1.0482 0.8269,-1.875 1.875,-1.875 l 42.9375,0 c 1.0481,0 1.875,0.8268 1.875,1.875 l 0,42.9375 c 0,0.4988 -0.19066,0.9479 -0.5,1.2812 0.67623,-0.301 1.15625,-0.9566 1.15625,-1.75 l 0,-43.0625 c 0,-1.0773 -0.86022,-1.9375 -1.9375,-1.9375 l -44.125,0 z"/></g></svg>