<svg xmlns="http://www.w3.org/2000/svg" xmlns:svg="http://www.w3.org/2000/svg" xmlns:xlink="http://www.w3.org/1999/xlink" id="svg6389" width="48" height="48" version="1.1"><defs id="defs6391"><linearGradient id="linearGradient4268"><stop id="stop4270" offset="0" stop-color="#3bf16c" stop-opacity="1"/><stop id="stop4272" offset="1" stop-color="#9bf5bd" stop-opacity="1"/></linearGradient><linearGradient id="linearGradient4788"><stop id="stop4790" offset="0" stop-color="#000" stop-opacity="1"/><stop id="stop4792" offset="1" stop-color="#000" stop-opacity="0"/></linearGradient><linearGradient id="linearGradient4433"><stop id="stop4435" offset="0" stop-color="#2b3141" stop-opacity="1"/><stop id="stop4437" offset="1" stop-color="#394056" stop-opacity="1"/></linearGradient><linearGradient id="linearGradient943"><stop id="stop945" offset="0" stop-color="#10d547" stop-opacity="1"/><stop id="stop947" offset="1" stop-color="#1ce969" stop-opacity="1"/></linearGradient><linearGradient id="linearGradient4117" x1="92.143" x2="92.143" y1="-1049.092" y2="-1001.09" gradientTransform="translate(262.63966,700.03566)" gradientUnits="userSpaceOnUse" xlink:href="#linearGradient943"/><linearGradient id="linearGradient4439" x1="42.957" x2="42.957" y1="48" y2="33.999" gradientTransform="translate(327.5331,301.05234)" gradientUnits="userSpaceOnUse" xlink:href="#linearGradient4433"/><linearGradient id="linearGradient4786" x1="458.571" x2="472.509" y1="871.361" y2="862.361" gradientTransform="matrix(-1,0,0,-1,820.10454,1211.4138)" gradientUnits="userSpaceOnUse" xlink:href="#linearGradient4788"/><linearGradient id="linearGradient4219" x1="465.571" x2="458.571" y1="869.362" y2="862.363" gradientTransform="translate(-97.038341,-527.30984)" gradientUnits="userSpaceOnUse" xlink:href="#linearGradient4268"/><linearGradient id="linearGradient4451"><stop id="stop4453" offset="0" stop-color="#befacf" stop-opacity="1"/><stop id="stop4455" offset="1" stop-color="#f6fef9" stop-opacity="1"/></linearGradient><linearGradient id="linearGradient4262" x1="24.71" x2="24.71" y1="39" y2="9" gradientUnits="userSpaceOnUse" xlink:href="#linearGradient4451"/></defs><metadata id="metadata6394"/><g id="layer1" transform="translate(-327.53309,-301.05235)"><rect id="rect2991-1-7-3" width="48" height="48" x="327.533" y="-349.052" fill="url(#linearGradient4117)" fill-opacity="1" stroke="none" ry="1.945" transform="scale(1,-1)"/><path id="path4270" fill="#000" fill-opacity=".059" stroke="none" d="m 336.53309,311.25235 0,30 30,0 0,-30 -30,0 z m 3,3 4,0 0,6 -4,0 0,-6 z m 7,0 17,0 0,6 -17,0 0,-6 z m -7,9 4,0 0,15 -4,0 0,-15 z m 7,0 17,0 0,15 -17,0 0,-15 z"/><path id="path4268" fill="#000" fill-opacity=".118" stroke="none" d="m 336.53309,310.85235 0,30 30,0 0,-30 -30,0 z m 3,3 4,0 0,6 -4,0 0,-6 z m 7,0 17,0 0,6 -17,0 0,-6 z m -7,9 4,0 0,15 -4,0 0,-15 z m 7,0 17,0 0,15 -17,0 0,-15 z"/><path id="path4264" fill="#000" fill-opacity=".235" stroke="none" d="m 336.53309,310.45235 0,30 30,0 0,-30 -30,0 z m 3,3 4,0 0,6 -4,0 0,-6 z m 7,0 17,0 0,6 -17,0 0,-6 z m -7,9 4,0 0,15 -4,0 0,-15 z m 7,0 17,0 0,15 -17,0 0,-15 z"/><path id="rect4230" fill="url(#linearGradient4262)" fill-opacity="1" stroke="none" d="M 9 9 L 9 39 L 39 39 L 39 9 L 9 9 z M 12 12 L 16 12 L 16 18 L 12 18 L 12 12 z M 19 12 L 36 12 L 36 18 L 19 18 L 19 12 z M 12 21 L 16 21 L 16 36 L 12 36 L 12 21 z M 19 21 L 36 21 L 36 36 L 19 36 L 19 21 z" transform="translate(327.53309,301.05235)"/><path id="path7515-3" fill="#fff" fill-opacity=".537" stroke="none" d="m 330.06433,301.70866 c -0.91709,0 -1.67115,0.6395 -1.84375,1.5 0.33561,-0.2799 0.77451,-0.4375 1.25,-0.4375 l 44.125,0 c 0.47549,0 0.91439,0.1576 1.25,0.4375 -0.1726,-0.8605 -0.92666,-1.5 -1.84375,-1.5 l -42.9375,0 z"/><path id="path4272" fill="#14db52" fill-opacity=".314" stroke="none" d="M 12 11.199219 L 12 12 L 16 12 L 16 11.199219 L 12 11.199219 z M 19 11.199219 L 19 12 L 36 12 L 36 11.199219 L 19 11.199219 z M 12 20.199219 L 12 21 L 16 21 L 16 20.199219 L 12 20.199219 z M 19 20.199219 L 19 21 L 36 21 L 36 20.199219 L 19 20.199219 z M 9 38.199219 L 9 39 L 39 39 L 39 38.199219 L 9 38.199219 z" transform="translate(327.53309,301.05235)"/><path id="path4277" fill="#fff" fill-opacity=".235" stroke="none" d="M 9 9 L 9 9.4003906 L 39 9.4003906 L 39 9 L 9 9 z M 12 18 L 12 18.400391 L 16 18.400391 L 16 18 L 12 18 z M 19 18 L 19 18.400391 L 36 18.400391 L 36 18 L 19 18 z M 12 36 L 12 36.400391 L 16 36.400391 L 16 36 L 12 36 z M 19 36 L 19 36.400391 L 36 36.400391 L 36 36 L 19 36 z" transform="translate(327.53309,301.05235)"/><path id="path4784" fill="url(#linearGradient4786)" fill-opacity="1" stroke="none" d="m 361.5331,349.05234 0,-14.00073 -14,14 z" opacity=".1"/><path id="path4130" fill="url(#linearGradient4219)" fill-opacity="1" stroke="none" d="m 361.5331,335.05161 0,14.00073 14,-14 z"/><path id="path4303" fill="url(#linearGradient4439)" fill-opacity="1" stroke="none" d="m 375.5331,335.05234 -14,14 12.05469,0 c 1.07728,0 1.94531,-0.86803 1.94531,-1.94531 l 0,-12.05469 z"/><path id="rect846-0-6" fill="#000" fill-opacity="1" stroke="none" d="m 327.53308,346.05236 0,1.0625 c 0,1.0773 0.86022,1.9375 1.9375,1.9375 l 44.125,0 c 1.07728,0 1.9375,-0.8602 1.9375,-1.9375 l 0,-1.0625 c 0,1.0773 -0.86022,1.9375 -1.9375,1.9375 l -44.125,0 c -1.07728,0 -1.9375,-0.8602 -1.9375,-1.9375 z"/><path id="rect4280-1" fill="#000" fill-opacity=".392" stroke="none" d="m 329.47058,301.05236 c -1.07728,0 -1.9375,0.8602 -1.9375,1.9375 l 0,43.0625 c 0,0.7934 0.48002,1.449 1.15625,1.75 -0.30934,-0.3333 -0.5,-0.7824 -0.5,-1.2812 l 0,-42.9375 c 0,-1.0482 0.8269,-1.875 1.875,-1.875 l 42.9375,0 c 1.0481,0 1.875,0.8268 1.875,1.875 l 0,42.9375 c 0,0.4988 -0.19066,0.9479 -0.5,1.2812 0.67623,-0.301 1.15625,-0.9566 1.15625,-1.75 l 0,-43.0625 c 0,-1.0773 -0.86022,-1.9375 -1.9375,-1.9375 l -44.125,0 z"/></g></svg>