<svg xmlns="http://www.w3.org/2000/svg" xmlns:svg="http://www.w3.org/2000/svg" xmlns:xlink="http://www.w3.org/1999/xlink" id="svg4214" width="48" height="48" version="1.1"><defs id="defs4216"><linearGradient id="linearGradient4788"><stop id="stop4790" offset="0" stop-color="#000" stop-opacity="1"/><stop id="stop4792" offset="1" stop-color="#000" stop-opacity="0"/></linearGradient><linearGradient id="linearGradient4433"><stop id="stop4435" offset="0" stop-color="#2b3141" stop-opacity="1"/><stop id="stop4437" offset="1" stop-color="#394056" stop-opacity="1"/></linearGradient><linearGradient id="linearGradient4117" x1="92.143" x2="92.143" y1="-1049.092" y2="-1001.09" gradientTransform="translate(-64.893433,-3.2741987)" gradientUnits="userSpaceOnUse" xlink:href="#linearGradient943-2"/><linearGradient id="linearGradient4439" x1="42.957" x2="42.957" y1="48" y2="33.999" gradientTransform="translate(7.3608402e-6,1004.3622)" gradientUnits="userSpaceOnUse" xlink:href="#linearGradient4433"/><linearGradient id="linearGradient4786" x1="458.571" x2="472.509" y1="871.361" y2="862.361" gradientTransform="matrix(-1,0,0,-1,492.57145,1914.7236)" gradientUnits="userSpaceOnUse" xlink:href="#linearGradient4788"/><linearGradient id="linearGradient4219" x1="465.571" x2="458.571" y1="869.362" y2="862.363" gradientTransform="translate(-424.57143,176.00002)" gradientUnits="userSpaceOnUse" xlink:href="#linearGradient4273"/><linearGradient id="linearGradient4273"><stop id="stop4275" offset="0" stop-color="#e14b4b" stop-opacity="1"/><stop id="stop4277" offset="1" stop-color="#f19fa0" stop-opacity="1"/></linearGradient><linearGradient id="linearGradient943-2"><stop id="stop945-8" offset="0" stop-color="#db2425" stop-opacity="1"/><stop id="stop947-0" offset="1" stop-color="#e53b3c" stop-opacity="1"/></linearGradient><linearGradient id="linearGradient4053"><stop id="stop4055" offset="0" stop-color="#ffcdcd" stop-opacity="1"/><stop id="stop4057" offset="1" stop-color="#fff5f5" stop-opacity="1"/></linearGradient><linearGradient id="linearGradient4091" x1="32" x2="32" y1="1043.852" y2="1012.986" gradientTransform="matrix(0.97402757,0,0,0.97402757,0.623338,26.709015)" gradientUnits="userSpaceOnUse" xlink:href="#linearGradient4053"/></defs><metadata id="metadata4219"/><g id="layer1" transform="translate(0,-1004.3622)"><rect id="rect2991-1-7-3" width="48" height="48" x="0" y="-1052.362" fill="url(#linearGradient4117)" fill-opacity="1" stroke="none" ry="1.945" transform="scale(1,-1)"/><path id="path4169" fill="#000" fill-opacity=".059" stroke="none" d="m 35.999887,1014.5721 0,6.0353 c -6.025477,0.1055 -7.506313,5.9819 -7.506313,5.9819 l 4.544638,0 0,6.0352 -7.046741,0 c -4.238256,13.0755 -13.991357,11.9111 -13.991357,11.9111 l 0,-6.0352 c 0,0 6.188943,1.1483 9.344592,-10.3759 3.947428,-14.4154 14.655181,-13.5524 14.655181,-13.5524 z"/><path id="path4167" fill="#000" fill-opacity=".118" stroke="none" d="m 35.999887,1014.1721 0,6.0353 c -6.025477,0.1055 -7.506313,5.9819 -7.506313,5.9819 l 4.544638,0 0,6.0352 -7.046741,0 c -4.238256,13.0755 -13.991357,11.9111 -13.991357,11.9111 l 0,-6.0352 c 0,0 6.188943,1.1483 9.344592,-10.3759 3.947428,-14.4154 14.655181,-13.5524 14.655181,-13.5524 z"/><path id="path4163" fill="#000" fill-opacity=".235" stroke="none" d="m 35.999887,1013.7721 0,6.0353 c -6.025477,0.1055 -7.506313,5.9819 -7.506313,5.9819 l 4.544638,0 0,6.0352 -7.046741,0 c -4.238256,13.0755 -13.991357,11.9111 -13.991357,11.9111 l 0,-6.0352 c 0,0 6.188943,1.1483 9.344592,-10.3759 3.947428,-14.4154 14.655181,-13.5524 14.655181,-13.5524 z"/><path id="path7515-3" fill="#fff" fill-opacity=".537" stroke="none" d="m 2.5312374,1005.0185 c -0.91709,0 -1.67115004,0.6395 -1.84375004,1.5 0.33561004,-0.2799 0.77451004,-0.4375 1.25000004,-0.4375 l 44.1249996,0 c 0.47549,0 0.91439,0.1576 1.25,0.4375 -0.1726,-0.8605 -0.92666,-1.5 -1.84375,-1.5 l -42.9374996,0 z"/><path id="path4130" fill="url(#linearGradient4219)" fill-opacity="1" stroke="none" d="m 34.000007,1038.3615 0,14.0007 14,-14 z"/><path id="path4303" fill="url(#linearGradient4439)" fill-opacity="1" stroke="none" d="m 48.000007,1038.3622 -14,14 12.05469,0 c 1.07727,0 1.94531,-0.868 1.94531,-1.9453 l 0,-12.0547 z"/><path id="path4784" fill="url(#linearGradient4786)" fill-opacity="1" stroke="none" d="m 34.000007,1052.3622 0,-14.0007 -14,14 z" opacity=".1"/><path id="rect846-0-2" fill="#000" fill-opacity="1" stroke="none" d="m -1.263916e-5,1049.3622 0,1.0625 c 0,1.0773 0.86021999916,1.9375 1.93750003916,1.9375 l 44.1249996,0 c 1.07728,0 1.9375,-0.8602 1.9375,-1.9375 l 0,-1.0625 c 0,1.0773 -0.86022,1.9375 -1.9375,1.9375 l -44.1249996,0 c -1.07728004,0 -1.93750003916,-0.8602 -1.93750003916,-1.9375 z"/><path id="rect4280-1" fill="#000" fill-opacity=".392" stroke="none" d="m 1.9374874,1004.3622 c -1.07728004,0 -1.93750003916,0.8602 -1.93750003916,1.9375 l 0,43.0625 c 0,0.7934 0.48001999916,1.449 1.15625003916,1.75 -0.30934004,-0.3333 -0.50000004,-0.7824 -0.50000004,-1.2812 l 0,-42.9375 c 0,-1.0482 0.82690004,-1.875 1.87500004,-1.875 l 42.9374996,0 c 1.0481,0 1.875,0.8268 1.875,1.875 l 0,42.9375 c 0,0.4988 -0.19066,0.9479 -0.5,1.2812 0.67623,-0.301 1.15625,-0.9566 1.15625,-1.75 l 0,-43.0625 c 0,-1.0773 -0.86022,-1.9375 -1.9375,-1.9375 l -44.1249996,0 z"/><path id="path3727" fill="url(#linearGradient4091)" fill-opacity="1" stroke="none" d="m 35.999887,1013.3721 0,6.0353 c -6.025477,0.1055 -7.506313,5.9819 -7.506313,5.9819 l 4.544638,0 0,6.0352 -7.046741,0 c -4.238256,13.0755 -13.991357,11.9111 -13.991357,11.9111 l 0,-6.0352 c 0,0 6.188943,1.1483 9.344592,-10.3759 3.947428,-14.4154 14.655181,-13.5524 14.655181,-13.5524 z"/><path id="path4171" fill="#dd2728" fill-opacity=".314" stroke="none" d="M 36 14.246094 C 29.974523 14.351594 28.494141 20.226562 28.494141 20.226562 L 28.773438 20.226562 C 29.41675 18.626391 31.346084 15.126407 36 15.044922 L 36 14.246094 z M 25.992188 26.261719 C 21.753932 39.337219 12 38.173828 12 38.173828 L 12 38.972656 C 12 38.972656 21.753932 40.138 25.992188 27.0625 L 33.039062 27.0625 L 33.039062 26.261719 L 25.992188 26.261719 z" transform="translate(0,1004.3622)"/><path id="path4176" fill="#fff" fill-opacity=".235" stroke="none" d="m 35.53125,1013.3631 c -2.1035,0.032 -10.733501,0.9491 -14.1875,13.5625 C 18.188101,1038.4498 12,1037.3006 12,1037.3006 l 0,0.4004 c 0,0 6.188101,1.1492 9.34375,-10.375 C 25.291178,1012.9106 36,1013.7733 36,1013.7733 l 0,-0.4004 c 0,0 -0.16825,-0.014 -0.46875,-0.01 z m -6.908203,12.0274 c -0.07972,0.2319 -0.128906,0.4004 -0.128906,0.4004 l 4.544921,0 0,-0.4004 -4.416015,0 z"/></g></svg>