<svg xmlns="http://www.w3.org/2000/svg" xmlns:svg="http://www.w3.org/2000/svg" xmlns:xlink="http://www.w3.org/1999/xlink" id="svg6654" width="48" height="48" version="1.1"><defs id="defs6656"><linearGradient id="linearGradient4244"><stop id="stop4246" offset="0" stop-color="#b9d9ff" stop-opacity="1"/><stop id="stop4248" offset="1" stop-color="#f6fbfe" stop-opacity="1"/></linearGradient><linearGradient id="linearGradient4788-9"><stop id="stop4790-6" offset="0" stop-color="#000" stop-opacity="1"/><stop id="stop4792-9" offset="1" stop-color="#000" stop-opacity="0"/></linearGradient><linearGradient id="linearGradient4433-8"><stop id="stop4435-4" offset="0" stop-color="#2b3141" stop-opacity="1"/><stop id="stop4437-5" offset="1" stop-color="#394056" stop-opacity="1"/></linearGradient><linearGradient id="linearGradient4117-4" x1="92.143" x2="92.143" y1="-1049.092" y2="-1001.09" gradientTransform="translate(102.53514,189.8687)" gradientUnits="userSpaceOnUse" xlink:href="#linearGradient943-9-8"/><linearGradient id="linearGradient4439-3" x1="42.957" x2="42.957" y1="48" y2="33.999" gradientTransform="translate(167.42858,811.21931)" gradientUnits="userSpaceOnUse" xlink:href="#linearGradient4433-8"/><linearGradient id="linearGradient4786-8" x1="458.571" x2="472.509" y1="871.361" y2="862.361" gradientTransform="matrix(-1,0,0,-1,660.00002,1721.5807)" gradientUnits="userSpaceOnUse" xlink:href="#linearGradient4788-9"/><linearGradient id="linearGradient4219-0" x1="465.571" x2="458.571" y1="869.362" y2="862.363" gradientTransform="translate(-257.14286,-17.142885)" gradientUnits="userSpaceOnUse" xlink:href="#linearGradient4266"/><linearGradient id="linearGradient4266"><stop id="stop4268" offset="0" stop-color="#2d8eff" stop-opacity="1"/><stop id="stop4270" offset="1" stop-color="#9cd3f4" stop-opacity="1"/></linearGradient><linearGradient id="linearGradient943-9-8"><stop id="stop945-30" offset="0" stop-color="#0059c1" stop-opacity="1"/><stop id="stop947-4" offset="1" stop-color="#118de7" stop-opacity="1"/></linearGradient><linearGradient id="linearGradient4242" x1="191.192" x2="191.192" y1="850.219" y2="820.219" gradientUnits="userSpaceOnUse" xlink:href="#linearGradient4244"/></defs><metadata id="metadata6659"/><g id="layer1" transform="translate(-167.42857,-811.2193)"><rect id="rect2991-1-7-3-7" width="48" height="48" x="167.429" y="-859.219" fill="url(#linearGradient4117-4)" fill-opacity="1" stroke="none" ry="1.945" transform="scale(1,-1)"/><path id="path4256" fill="#000" fill-opacity=".059" fill-rule="evenodd" stroke="none" d="m 191.43184,821.4193 0,21.3932 c -0.90792,-0.84619 -2.09186,-1.39327 -3.3366,-1.39322 -2.6182,1.5e-4 -4.99676,2.38225 -4.99676,5.00004 0,2.61779 2.37856,4.99982 4.99676,4.99998 2.61815,1.5e-4 5.00326,-2.38196 5.00326,-4.99998 l 0,-17.69206 c 3.48738,2.09181 5.66076,5.93165 5.66076,10.02603 0,1.05269 -0.17377,2.08503 -0.47851,3.07939 0.93342,-1.64863 1.4779,-3.50434 1.4779,-5.41338 0,-3.05745 -1.04682,-5.97374 -3.20639,-8.12501 -0.99633,-0.99254 -3.41741,-2.82981 -3.45375,-6.79037 l 0,-0.0844 -0.004,0 -1.66014,0 z"/><path id="path4254" fill="#000" fill-opacity=".118" fill-rule="evenodd" stroke="none" d="m 191.43184,821.0193 0,21.3932 c -0.90792,-0.84619 -2.09186,-1.39327 -3.3366,-1.39322 -2.6182,1.5e-4 -4.99676,2.38225 -4.99676,5.00004 0,2.61779 2.37856,4.99982 4.99676,4.99998 2.61815,1.5e-4 5.00326,-2.38196 5.00326,-4.99998 l 0,-17.69206 c 3.48738,2.09181 5.66076,5.93165 5.66076,10.02603 0,1.05269 -0.17377,2.08503 -0.47851,3.07939 0.93342,-1.64863 1.4779,-3.50434 1.4779,-5.41338 0,-3.05745 -1.04682,-5.97374 -3.20639,-8.12501 -0.99633,-0.99254 -3.41741,-2.82981 -3.45375,-6.79037 l 0,-0.0844 -0.004,0 -1.66014,0 z"/><path id="path4250" fill="#000" fill-opacity=".235" fill-rule="evenodd" stroke="none" d="m 191.43184,820.6193 0,21.3932 c -0.90792,-0.84619 -2.09186,-1.39327 -3.3366,-1.39322 -2.6182,1.5e-4 -4.99676,2.38225 -4.99676,5.00004 0,2.61779 2.37856,4.99982 4.99676,4.99998 2.61815,1.5e-4 5.00326,-2.38196 5.00326,-4.99998 l 0,-17.69206 c 3.48738,2.09181 5.66076,5.93165 5.66076,10.02603 0,1.05269 -0.17377,2.08503 -0.47851,3.07939 0.93342,-1.64863 1.4779,-3.50434 1.4779,-5.41338 0,-3.05745 -1.04682,-5.97374 -3.20639,-8.12501 -0.99633,-0.99254 -3.41741,-2.82981 -3.45375,-6.79037 l 0,-0.0844 -0.004,0 -1.66014,0 z"/><path id="path7515-3-6" fill="#fff" fill-opacity=".537" stroke="none" d="m 169.95981,811.87561 c -0.91709,0 -1.67115,0.6395 -1.84375,1.5 0.33561,-0.2799 0.77451,-0.4375 1.25,-0.4375 l 44.125,0 c 0.47549,0 0.91439,0.1576 1.25,0.4375 -0.1726,-0.8605 -0.92666,-1.5 -1.84375,-1.5 l -42.9375,0 z"/><path id="path4130-6" fill="url(#linearGradient4219-0)" fill-opacity="1" stroke="none" d="m 201.42858,845.21861 0,14.0007 14,-14 z"/><path id="path4303-8" fill="url(#linearGradient4439-3)" fill-opacity="1" stroke="none" d="m 215.42858,845.21931 -14,14 12.05469,0 c 1.07728,0 1.94531,-0.868 1.94531,-1.9453 l 0,-12.0547 z"/><path id="path4784-0" fill="url(#linearGradient4786-8)" fill-opacity="1" stroke="none" d="m 201.42858,859.21931 0,-14.0007 -14,14 z" opacity=".1"/><path id="rect846-0-6" fill="#000" fill-opacity="1" stroke="none" d="m 167.42856,856.21931 0,1.0625 c 0,1.0773 0.86022,1.9375 1.9375,1.9375 l 44.125,0 c 1.07728,0 1.9375,-0.8602 1.9375,-1.9375 l 0,-1.0625 c 0,1.0773 -0.86022,1.9375 -1.9375,1.9375 l -44.125,0 c -1.07728,0 -1.9375,-0.8602 -1.9375,-1.9375 z"/><path id="rect4280-1-8" fill="#000" fill-opacity=".392" stroke="none" d="m 169.36606,811.21931 c -1.07728,0 -1.9375,0.8602 -1.9375,1.9375 l 0,43.0625 c 0,0.7934 0.48002,1.449 1.15625,1.75 -0.30934,-0.3333 -0.5,-0.7824 -0.5,-1.2812 l 0,-42.9375 c 0,-1.0482 0.8269,-1.875 1.875,-1.875 l 42.9375,0 c 1.0481,0 1.875,0.8268 1.875,1.875 l 0,42.9375 c 0,0.4988 -0.19066,0.9479 -0.5,1.2812 0.67623,-0.301 1.15625,-0.9566 1.15625,-1.75 l 0,-43.0625 c 0,-1.0773 -0.86022,-1.9375 -1.9375,-1.9375 l -44.125,0 z"/><path id="path4112" fill="url(#linearGradient4242)" fill-opacity="1" fill-rule="evenodd" stroke="none" d="m 191.43184,820.2193 0,21.3932 c -0.90792,-0.84619 -2.09186,-1.39327 -3.3366,-1.39322 -2.6182,1.5e-4 -4.99676,2.38225 -4.99676,5.00004 0,2.61779 2.37856,4.99982 4.99676,4.99998 2.61815,1.5e-4 5.00326,-2.38196 5.00326,-4.99998 l 0,-17.69206 c 3.48738,2.09181 5.66076,5.93165 5.66076,10.02603 0,1.05269 -0.17377,2.08503 -0.47851,3.07939 0.93342,-1.64863 1.4779,-3.50434 1.4779,-5.41338 0,-3.05745 -1.04682,-5.97374 -3.20639,-8.12501 -0.99633,-0.99254 -3.41741,-2.82981 -3.45375,-6.79037 l 0,-0.0844 -0.004,0 -1.66014,0 z"/><path id="path4258" fill="#0462c4" fill-opacity=".314" fill-rule="evenodd" stroke="none" d="M 25.669922 15.507812 L 25.669922 16.308594 C 29.032999 18.325844 31.168047 21.969324 31.316406 25.898438 C 31.321016 25.776906 31.330078 25.655309 31.330078 25.533203 C 31.330078 21.438823 29.157302 17.599623 25.669922 15.507812 z M 32.314453 23.636719 C 32.250015 25.122551 31.846541 26.559895 31.205078 27.892578 C 31.12353 28.407853 31.00431 28.915651 30.851562 29.414062 C 31.784983 27.765432 32.330078 25.90904 32.330078 24 C 32.330078 23.878068 32.317787 23.758162 32.314453 23.636719 z M 25.669922 33.199219 C 25.669922 35.817239 23.284166 38.199369 20.666016 38.199219 C 18.181981 38.199067 15.917356 36.054984 15.691406 33.599609 C 15.679202 33.732227 15.669922 33.865856 15.669922 34 C 15.669922 36.61779 18.047816 38.99984 20.666016 39 C 23.284166 39.00015 25.669922 36.61802 25.669922 34 L 25.669922 33.199219 z" transform="translate(167.42857,811.2193)"/><path id="path4263" fill="#fff" fill-opacity=".235" fill-rule="evenodd" stroke="none" d="M 24.003906 9 L 24.003906 9.4003906 L 24.005859 9.4003906 L 25.666016 9.4003906 L 25.669922 9.4003906 L 25.669922 9.484375 C 25.706262 13.444935 28.126717 15.282851 29.123047 16.275391 C 31.239555 18.383764 32.281325 21.228026 32.322266 24.21875 C 32.323859 24.145692 32.330078 24.073224 32.330078 24 C 32.330078 20.94255 31.282617 18.02627 29.123047 15.875 C 28.126717 14.88246 25.706262 13.044544 25.669922 9.0839844 L 25.669922 9 L 25.666016 9 L 24.005859 9 L 24.003906 9 z M 31.322266 26.515625 C 31.303461 27.50515 31.138675 28.477219 30.851562 29.414062 C 30.934904 29.266862 30.997189 29.109377 31.074219 28.958984 C 31.23705 28.23176 31.330078 27.489009 31.330078 26.734375 C 31.330078 26.661255 31.323647 26.588574 31.322266 26.515625 z M 20.666016 29 C 18.047816 29.00015 15.669922 31.38221 15.669922 34 C 15.669922 34.066764 15.678582 34.132797 15.681641 34.199219 C 15.799615 31.662059 18.115243 29.400537 20.666016 29.400391 C 21.910756 29.400341 23.095986 29.946779 24.003906 30.792969 L 24.003906 30.392578 C 23.095986 29.546388 21.910756 28.99995 20.666016 29 z" transform="translate(167.42857,811.2193)"/></g></svg>