<svg xmlns="http://www.w3.org/2000/svg" xmlns:svg="http://www.w3.org/2000/svg" id="svg2" width="16" height="16" version="1.1" viewBox="0 0 16 16"><metadata id="metadata7"/><g id="layer1" transform="translate(0,-1036.3622)"><path id="rect4177" fill="#424854" fill-opacity="1" stroke="none" stroke-dasharray="none" stroke-miterlimit="4" stroke-opacity="1" stroke-width=".1" d="M 6.5 2 C 4.007 2 2 4.007 2 6.5 C 2 8.993 4.007 11 6.5 11 C 7.5651803 11 8.5297347 10.620008 9.2988281 10.005859 L 13.292969 14 L 14 13.292969 L 10.005859 9.2988281 C 10.620008 8.5297347 11 7.5651803 11 6.5 C 11 4.007 8.993 2 6.5 2 z M 6.5 3 C 8.439 3 10 4.561 10 6.5 C 10 7.2882386 9.7333334 8.0060133 9.296875 8.5898438 C 9.2921772 8.5961278 9.285989 8.6011709 9.28125 8.6074219 C 9.0882807 8.8619589 8.8619589 9.0882807 8.6074219 9.28125 C 8.6011568 9.2859997 8.5961427 9.292166 8.5898438 9.296875 C 8.0060133 9.7333334 7.2882386 10 6.5 10 C 4.561 10 3 8.439 3 6.5 C 3 4.561 4.561 3 6.5 3 z M 6.5 4 C 6.3288597 4 6.1613007 4.0183264 6 4.0507812 L 6 5.0917969 C 6.1572216 5.0361394 6.3232392 5 6.5 5 C 7.3310048 5 8 5.6689952 8 6.5 C 8 6.7049106 7.9585177 6.8985636 7.8847656 7.0761719 L 8.7519531 7.5722656 C 8.906825 7.2465426 9 6.8859376 9 6.5 C 9 5.1149952 7.8850048 4 6.5 4 z" opacity="1" transform="translate(0,1036.3622)"/></g></svg>