<svg xmlns="http://www.w3.org/2000/svg" xmlns:svg="http://www.w3.org/2000/svg" xmlns:xlink="http://www.w3.org/1999/xlink" id="svg2" width="48" height="48" version="1.1"><defs id="defs4"><linearGradient id="linearGradient4540"><stop id="stop4542" offset="0" stop-color="#e6e6e6" stop-opacity="1"/><stop id="stop4544" offset="1" stop-color="#f2f2f2" stop-opacity="1"/></linearGradient><linearGradient id="linearGradient4357"><stop id="stop4359" offset="0" stop-color="#fa3240" stop-opacity="1"/><stop id="stop4361" offset="1" stop-color="#ff83ba" stop-opacity="1"/></linearGradient><linearGradient id="linearGradient4349"><stop id="stop4351" offset="0" stop-color="#5c13eb" stop-opacity="1"/><stop id="stop4353" offset="1" stop-color="#f740fb" stop-opacity="1"/></linearGradient><linearGradient id="linearGradient4341"><stop id="stop4343" offset="0" stop-color="#e8161b" stop-opacity="1"/><stop id="stop4345" offset="1" stop-color="#f24c19" stop-opacity="1"/></linearGradient><linearGradient id="linearGradient4333"><stop id="stop4335" offset="0" stop-color="#fd9e48" stop-opacity="1"/><stop id="stop4337" offset="1" stop-color="#fdf44e" stop-opacity="1"/></linearGradient><linearGradient id="linearGradient4325"><stop id="stop4327" offset="0" stop-color="#8bd907" stop-opacity="1"/><stop id="stop4329" offset="1" stop-color="#caed13" stop-opacity="1"/></linearGradient><linearGradient id="linearGradient4317"><stop id="stop4319" offset="0" stop-color="#2046f5" stop-opacity="1"/><stop id="stop4321" offset="1" stop-color="#2198f5" stop-opacity="1"/></linearGradient><linearGradient id="linearGradient4309"><stop id="stop4311" offset="0" stop-color="#3ad22b" stop-opacity="1"/><stop id="stop4313" offset="1" stop-color="#52fd96" stop-opacity="1"/></linearGradient><linearGradient id="linearGradient4293"><stop id="stop4295" offset="0" stop-color="#298ac9" stop-opacity="1"/><stop id="stop4297" offset="1" stop-color="#1aaee4" stop-opacity="1"/></linearGradient><linearGradient id="linearGradient4285"><stop id="stop4287" offset="0" stop-color="#11aebd" stop-opacity="1"/><stop id="stop4289" offset="1" stop-color="#46fdf5" stop-opacity="1"/></linearGradient><linearGradient id="linearGradient1469" x1="25.456" x2="25.456" y1="-1052.716" y2="-1004.633" gradientUnits="userSpaceOnUse" xlink:href="#linearGradient1373"/><linearGradient id="linearGradient1373"><stop id="stop1375" offset="0" stop-color="#282827" stop-opacity="1"/><stop id="stop1377" offset="1" stop-color="#292929" stop-opacity="1"/></linearGradient><linearGradient id="linearGradient4291" x1="14.054" x2="14.054" y1="1044.362" y2="1035.362" gradientUnits="userSpaceOnUse" xlink:href="#linearGradient4285"/><linearGradient id="linearGradient4299" x1="23.865" x2="23.865" y1="1044.362" y2="1035.362" gradientUnits="userSpaceOnUse" xlink:href="#linearGradient4293"/><linearGradient id="linearGradient4307" x1="35.267" x2="35.267" y1="1044.362" y2="1035.362" gradientUnits="userSpaceOnUse" xlink:href="#linearGradient4317"/><linearGradient id="linearGradient4315" x1="35.886" x2="35.886" y1="1032.862" y2="1023.862" gradientUnits="userSpaceOnUse" xlink:href="#linearGradient4309"/><linearGradient id="linearGradient4323" x1="35.261" x2="35.261" y1="1021.362" y2="1012.362" gradientTransform="translate(-11.499998,0)" gradientUnits="userSpaceOnUse" xlink:href="#linearGradient4357"/><linearGradient id="linearGradient4331" x1="24.218" x2="24.218" y1="1032.862" y2="1023.862" gradientUnits="userSpaceOnUse" xlink:href="#linearGradient4325"/><linearGradient id="linearGradient4339" x1="13.523" x2="13.523" y1="1032.862" y2="1023.862" gradientUnits="userSpaceOnUse" xlink:href="#linearGradient4333"/><linearGradient id="linearGradient4347" x1="13.347" x2="13.347" y1="1021.362" y2="1012.362" gradientUnits="userSpaceOnUse" xlink:href="#linearGradient4341"/><linearGradient id="linearGradient4355" x1="24.484" x2="24.484" y1="1021.362" y2="1012.362" gradientTransform="translate(11.500002,0)" gradientUnits="userSpaceOnUse" xlink:href="#linearGradient4349"/><linearGradient id="linearGradient4538" x1="29" x2="29" y1="28" y2="8" gradientTransform="translate(0,1004.3622)" gradientUnits="userSpaceOnUse" xlink:href="#linearGradient4540"/></defs><metadata id="metadata7"/><g id="layer1" transform="translate(0,-1004.3622)"><rect id="rect2991-1" width="48" height="48" x="0" y="-1052.362" fill="url(#linearGradient1469)" fill-opacity="1" stroke="none" ry="1.945" transform="scale(1,-1)"/><rect id="rect4546" width="11" height="11" x="18.5" y="1011.362" fill="#000" fill-opacity="1" stroke="none" ry="0"/><path id="rect846" fill="#000" fill-opacity="1" stroke="none" d="m 1.871521e-6,1049.3622 0,1.0625 c 0,1.0773 0.860199998479,1.9375 1.937500028479,1.9375 l 44.1250001,0 c 1.0773,0 1.9375,-0.8602 1.9375,-1.9375 l 0,-1.0625 c 0,1.0773 -0.8602,1.9375 -1.9375,1.9375 l -44.1250001,0 C 0.86020187,1051.2997 1.871521e-6,1050.4395 1.871521e-6,1049.3622 Z"/><path id="path7515" fill="#fff" fill-opacity=".537" stroke="none" d="m 2.5312019,1005.0185 c -0.917,0 -1.67110003,0.6395 -1.84370003,1.5 0.33560003,-0.2799 0.77450003,-0.4375 1.25000003,-0.4375 l 44.1250001,0 c 0.4755,0 0.9144,0.1576 1.25,0.4375 -0.1726,-0.8605 -0.9267,-1.5 -1.8437,-1.5 L 2.5312019,1005.0185 Z"/><path id="rect4280-7" fill="#000" fill-opacity=".392" stroke="none" d="m 1.9375019,1004.3622 c -1.07730003,0 -1.937500028479,0.8602 -1.937500028479,1.9375 l 0,43.0625 c 0,0.7934 0.479999998479,1.449 1.156200028479,1.75 -0.30930003,-0.3333 -0.50000003,-0.7824 -0.50000003,-1.2812 l 0,-42.9375 c 0,-1.0482 0.82690003,-1.875 1.87500003,-1.875 l 42.9376001,0 c 1.0481,0 1.875,0.8268 1.875,1.875 l 0,42.9375 c 0,0.4988 -0.1907,0.9479 -0.5,1.2812 0.6762,-0.301 1.1562,-0.9566 1.1562,-1.75 l 0,-43.0625 c 0,-1.0773 -0.8602,-1.9375 -1.9375,-1.9375 L 1.9375019,1004.3622 Z"/><rect id="rect1526" width="48" height="48" x="0" y="1004.362" fill="none" stroke="none" ry="0"/><rect id="rect1471" width="9" height="9" x="8" y="1012.362" fill="url(#linearGradient4347)" fill-opacity="1" stroke="none" ry="0"/><rect id="rect4179" width="9" height="9" x="8" y="1035.362" fill="url(#linearGradient4291)" fill-opacity="1" stroke="none" ry="0"/><rect id="rect4181" width="9" height="9" x="19.5" y="1012.362" fill="url(#linearGradient4323)" fill-opacity="1" stroke="none" ry="0"/><rect id="rect4183" width="9" height="9" x="31" y="1035.362" fill="url(#linearGradient4307)" fill-opacity="1" stroke="none" ry="0"/><rect id="rect4185" width="9" height="9" x="19.5" y="1023.862" fill="url(#linearGradient4331)" fill-opacity="1" stroke="none" ry="0"/><rect id="rect4187" width="9" height="9" x="8" y="1023.862" fill="url(#linearGradient4339)" fill-opacity="1" stroke="none" ry="0"/><rect id="rect4189" width="9" height="9" x="31" y="1012.362" fill="url(#linearGradient4355)" fill-opacity="1" stroke="none" ry="0"/><rect id="rect4191" width="9" height="9" x="31" y="1023.862" fill="url(#linearGradient4315)" fill-opacity="1" stroke="none" ry="0"/><rect id="rect4193" width="9" height="9" x="19.5" y="1035.362" fill="url(#linearGradient4299)" fill-opacity="1" stroke="none" ry="0"/><g id="g4610"><rect id="rect4550" width="9" height="1" x="8" y="1020.362" fill="#000" fill-opacity=".235" stroke="none" ry="0"/><rect id="rect4554" width="9" height="1" x="8" y="1012.362" fill="#fff" fill-opacity=".235" stroke="none" ry="0"/></g><g id="g4606"><rect id="rect4556" width="9" height="1" x="19.5" y="1020.362" fill="#000" fill-opacity=".235" stroke="none" ry="0"/><rect id="rect4558" width="9" height="1" x="19.5" y="1012.362" fill="#fff" fill-opacity=".235" stroke="none" ry="0"/></g><g id="g4602"><rect id="rect4560" width="9" height="1" x="31" y="1020.362" fill="#000" fill-opacity=".235" stroke="none" ry="0"/><rect id="rect4562" width="9" height="1" x="31" y="1012.362" fill="#fff" fill-opacity=".235" stroke="none" ry="0"/></g><g id="g4568" transform="translate(-1.9073486e-6,11.5)"><rect id="rect4564" width="9" height="1" x="31" y="1020.362" fill="#000" fill-opacity=".235" stroke="none" ry="0"/><rect id="rect4566" width="9" height="1" x="31" y="1012.362" fill="#fff" fill-opacity=".235" stroke="none" ry="0"/></g><g id="g4572" transform="translate(-11.5,11.5)"><rect id="rect4574" width="9" height="1" x="31" y="1020.362" fill="#000" fill-opacity=".235" stroke="none" ry="0"/><rect id="rect4576" width="9" height="1" x="31" y="1012.362" fill="#fff" fill-opacity=".235" stroke="none" ry="0"/></g><g id="g4578" transform="translate(-23,11.5)"><rect id="rect4580" width="9" height="1" x="31" y="1020.362" fill="#000" fill-opacity=".235" stroke="none" ry="0"/><rect id="rect4582" width="9" height="1" x="31" y="1012.362" fill="#fff" fill-opacity=".235" stroke="none" ry="0"/></g><g id="g4584" transform="translate(-1.9073486e-6,23.000244)"><rect id="rect4586" width="9" height="1" x="31" y="1020.362" fill="#000" fill-opacity=".235" stroke="none" ry="0"/><rect id="rect4588" width="9" height="1" x="31" y="1012.362" fill="#fff" fill-opacity=".235" stroke="none" ry="0"/></g><g id="g4590" transform="translate(-11.5,23.000244)"><rect id="rect4592" width="9" height="1" x="31" y="1020.362" fill="#000" fill-opacity=".235" stroke="none" ry="0"/><rect id="rect4594" width="9" height="1" x="31" y="1012.362" fill="#fff" fill-opacity=".235" stroke="none" ry="0"/></g><g id="g4596" transform="translate(-23,23.000244)"><rect id="rect4598" width="9" height="1" x="31" y="1020.362" fill="#000" fill-opacity=".235" stroke="none" ry="0"/><rect id="rect4600" width="9" height="1" x="31" y="1012.362" fill="#fff" fill-opacity=".235" stroke="none" ry="0"/></g><path id="path4620" fill="#000" fill-opacity=".059" stroke="none" d="m 25,1013.5622 0,1 -1,0 0,9 -1,0 0,-1 -4,0 0,1 0,2 1,0 0,1 1,0 0,2 1,0 0,2 1,0 0,2 1,0 0,2 1,0 7,0 1,0 0,-2 1,0 0,-2 1,0 0,-2 1,0 0,-6 -1,0 0,-1 -1,0 0,-1 -2,0 0,-1 -3,0 0,-1 -1,0 0,-4 -1,0 0,-1 -2,0 z"/><path id="path4618" fill="#000" fill-opacity=".118" stroke="none" d="m 25,1013.1622 0,1 -1,0 0,9 -1,0 0,-1 -4,0 0,1 0,2 1,0 0,1 1,0 0,2 1,0 0,2 1,0 0,2 1,0 0,2 1,0 7,0 1,0 0,-2 1,0 0,-2 1,0 0,-2 1,0 0,-6 -1,0 0,-1 -1,0 0,-1 -2,0 0,-1 -3,0 0,-1 -1,0 0,-4 -1,0 0,-1 -2,0 z"/><path id="path4614" fill="#000" fill-opacity=".235" stroke="none" d="m 25,1012.7622 0,1 -1,0 0,9 -1,0 0,-1 -4,0 0,1 0,2 1,0 0,1 1,0 0,2 1,0 0,2 1,0 0,2 1,0 0,2 1,0 7,0 1,0 0,-2 1,0 0,-2 1,0 0,-2 1,0 0,-6 -1,0 0,-1 -1,0 0,-1 -2,0 0,-1 -3,0 0,-1 -1,0 0,-4 -1,0 0,-1 -2,0 z"/><path id="rect4369" fill="url(#linearGradient4538)" fill-opacity="1" stroke="none" d="m 25,1012.3622 0,1 -1,0 0,9 -1,0 0,-1 -4,0 0,1 0,2 1,0 0,1 1,0 0,2 1,0 0,2 1,0 0,2 1,0 0,2 1,0 7,0 1,0 0,-2 1,0 0,-2 1,0 0,-2 1,0 0,-6 -1,0 0,-1 -1,0 0,-1 -2,0 0,-1 -3,0 0,-1 -1,0 0,-4 -1,0 0,-1 -2,0 z"/><path id="path4469" fill="#000" fill-opacity="1" stroke="none" d="m 25,1012.3622 0,1 2,0 0,-1 -2,0 z m 2,1 0,9 1,0 0,-4 1,0 0,-1 -1,0 0,-4 -1,0 z m 2,5 0,1 0,3 1,0 0,-3 2,0 0,-1 -3,0 z m 3,1 0,1 0,3 1,0 0,-3 1,0 0,-1 -2,0 z m 2,1 0,1 1,0 0,-1 -1,0 z m 1,1 0,6 1,0 0,-6 -1,0 z m 0,6 -1,0 0,2 1,0 0,-2 z m -1,2 -1,0 0,2 1,0 0,-2 z m -1,2 -1,0 0,1 -7,0 0,-1 -1,0 0,2 1,0 7,0 1,0 0,-2 z m -9,0 0,-2 -1,0 0,2 1,0 z m -1,-2 0,-2 -1,0 0,2 1,0 z m -1,-2 0,-2 -1,0 0,2 1,0 z m -1,-2 0,-1 -1,0 0,1 1,0 z m -1,-1 0,-2 3,0 0,-1 -4,0 0,1 0,2 1,0 z m 3,-2 0,1 1,0 0,2 1,0 0,-12 -1,0 0,9 -1,0 z"/></g></svg>