<svg xmlns="http://www.w3.org/2000/svg" xmlns:svg="http://www.w3.org/2000/svg" xmlns:xlink="http://www.w3.org/1999/xlink" id="svg2" width="48" height="48" version="1.1"><defs id="defs4"><linearGradient id="linearGradient985"><stop id="stop987" offset="0" stop-color="#461718" stop-opacity="1"/><stop id="stop989" offset="1" stop-color="#7a2f2e" stop-opacity="1"/></linearGradient><linearGradient id="linearGradient934"><stop id="stop936" offset="0" stop-color="#6a2123" stop-opacity="1"/><stop id="stop938" offset="1" stop-color="#8f3c41" stop-opacity="1"/></linearGradient><linearGradient id="linearGradient881"><stop id="stop883" offset="0" stop-color="#a43436" stop-opacity="1"/><stop id="stop885" offset="1" stop-color="#e3585f" stop-opacity="1"/></linearGradient><linearGradient id="linearGradient879" x1="85.206" x2="85.206" y1="-1059.745" y2="-1011.88" gradientTransform="matrix(1,0,0,-1,-61.559919,-1011.3916)" gradientUnits="userSpaceOnUse" xlink:href="#linearGradient881"/><linearGradient id="linearGradient940" x1="4.5" x2="4.5" y1="48.125" y2=".5" gradientUnits="userSpaceOnUse" xlink:href="#linearGradient934"/><linearGradient id="linearGradient991" x1="4.125" x2="4.125" y1="48" y2=".375" gradientUnits="userSpaceOnUse" xlink:href="#linearGradient985"/></defs><metadata id="metadata7"/><g id="layer1" transform="translate(0,-1004.3622)"><path id="rect2991-1" fill="url(#linearGradient879)" fill-opacity="1" stroke="none" d="M 1.9375,0 C 0.86022285,0 0,0.86022285 0,1.9375 l 0,44.125 C 0,47.139777 0.86022285,48 1.9375,48 l 44.125,0 C 47.139777,48 48,47.139777 48,46.0625 L 48,1.9375 C 48,0.86022285 47.139777,0 46.0625,0 Z" transform="translate(0,1004.3622)"/><g id="g4081" fill="#000" fill-opacity=".059" transform="matrix(1.0271862,0,0,1.0271862,3.3635321,-27.10938)"><path font-stretch="normal" style="line-height:125%;-inkscape-font-specification:Rekha Italic" id="path4083" fill="#000" fill-opacity=".059" stroke="none" d="m 24.523303,1035.3872 0,0.4058 -5.444109,0 0,-0.4058 q 0.76858,0 1.046122,-0.1067 0.44834,-0.1707 0.44834,-0.7044 0,-0.1923 -0.106743,-0.5124 -0.0854,-0.3202 -0.298893,-0.8327 l -0.875329,-2.0496 -5.593554,0 -0.982076,2.498 q -0.170795,0.4482 -0.170795,0.8112 0,0.5764 0.555086,0.7899 0.277542,0.1067 0.896677,0.1067 l 0,0.4058 -4.227193,0 0,-0.4058 q 0.384292,0 0.619136,-0.1279 0.256194,-0.1283 0.469687,-0.3417 0.320243,-0.3415 0.811278,-1.3664 0.256194,-0.5337 0.747232,-1.6651 l 4.440685,-10.4826 0.42699,0 5.316012,12.1265 q 0.533737,1.1956 0.853979,1.537 0.341587,0.3202 1.067468,0.3202 z m -10.461231,-5.0811 4.931723,0 -2.476536,-5.871 -2.455187,5.871 z" font-family="Rekha" font-size="20.079" font-style="normal" font-variant="normal" font-weight="500" letter-spacing="0" word-spacing="0"/><path font-stretch="normal" style="line-height:125%;-inkscape-font-specification:Rekha Italic" id="path4085" fill="#000" fill-opacity=".059" stroke="none" d="m 30.992186,1033.167 0,-3.0956 q -2.113596,0.7043 -2.924874,1.6225 -0.533735,0.5977 -0.533735,1.3664 0,0.7684 0.405638,1.2381 0.405639,0.4697 1.003424,0.4697 0.320242,0 0.704534,-0.128 0.384288,-0.128 0.619132,-0.2563 0.46969,-0.2134 0.597785,-0.4484 0.128096,-0.256 0.128096,-0.7684 z m 3.309165,1.2168 0,0.5553 q -0.576433,0.6831 -1.15287,0.9178 -0.362941,0.1496 -0.747229,0.1496 -0.533737,0 -0.832629,-0.1923 -0.555086,-0.3629 -0.555086,-1.3663 -0.789931,0.7047 -1.387715,1.0461 -0.896676,0.5125 -1.707957,0.5125 -0.918025,0 -1.601208,-0.5977 -0.661833,-0.598 -0.661833,-1.6226 0,-1.4519 1.366364,-2.3913 0.939378,-0.6404 3.970998,-1.8361 l 0,-1.3023 q 0,-1.0034 -0.576433,-1.4516 -0.42699,-0.3202 -1.067473,-0.3202 -0.576437,0 -1.046124,0.2987 -0.469687,0.2777 -0.469687,0.7474 0,0.2135 0.02135,0.4482 0.0427,0.2135 0.08539,0.3842 0,0.363 -0.277544,0.6407 -0.277543,0.2775 -0.683181,0.2775 -0.448339,0 -0.683184,-0.299 -0.234844,-0.3202 -0.234844,-0.6404 0,-0.7899 0.811281,-1.4944 1.003424,-0.8753 2.668679,-0.8753 2.070899,0 2.77543,1.2168 0.405639,0.7047 0.405639,2.1991 l 0,4.163 q 0,0.662 0.08539,0.9609 0.106743,0.2775 0.533736,0.2775 0.298892,0 0.512387,-0.1067 0.21351,-0.1068 0.448353,-0.2991 z" font-family="Rekha" font-size="20.079" font-style="normal" font-variant="normal" font-weight="500" letter-spacing="0" word-spacing="0"/></g><g id="g4075" fill="#000" fill-opacity=".118" transform="matrix(1.0271862,0,0,1.0271862,3.3635321,-27.50938)"><path font-stretch="normal" style="line-height:125%;-inkscape-font-specification:Rekha Italic" id="path4077" fill="#000" fill-opacity=".118" stroke="none" d="m 24.523303,1035.3872 0,0.4058 -5.444109,0 0,-0.4058 q 0.76858,0 1.046122,-0.1067 0.44834,-0.1707 0.44834,-0.7044 0,-0.1923 -0.106743,-0.5124 -0.0854,-0.3202 -0.298893,-0.8327 l -0.875329,-2.0496 -5.593554,0 -0.982076,2.498 q -0.170795,0.4482 -0.170795,0.8112 0,0.5764 0.555086,0.7899 0.277542,0.1067 0.896677,0.1067 l 0,0.4058 -4.227193,0 0,-0.4058 q 0.384292,0 0.619136,-0.1279 0.256194,-0.1283 0.469687,-0.3417 0.320243,-0.3415 0.811278,-1.3664 0.256194,-0.5337 0.747232,-1.6651 l 4.440685,-10.4826 0.42699,0 5.316012,12.1265 q 0.533737,1.1956 0.853979,1.537 0.341587,0.3202 1.067468,0.3202 z m -10.461231,-5.0811 4.931723,0 -2.476536,-5.871 -2.455187,5.871 z" font-family="Rekha" font-size="20.079" font-style="normal" font-variant="normal" font-weight="500" letter-spacing="0" word-spacing="0"/><path font-stretch="normal" style="line-height:125%;-inkscape-font-specification:Rekha Italic" id="path4079" fill="#000" fill-opacity=".118" stroke="none" d="m 30.992186,1033.167 0,-3.0956 q -2.113596,0.7043 -2.924874,1.6225 -0.533735,0.5977 -0.533735,1.3664 0,0.7684 0.405638,1.2381 0.405639,0.4697 1.003424,0.4697 0.320242,0 0.704534,-0.128 0.384288,-0.128 0.619132,-0.2563 0.46969,-0.2134 0.597785,-0.4484 0.128096,-0.256 0.128096,-0.7684 z m 3.309165,1.2168 0,0.5553 q -0.576433,0.6831 -1.15287,0.9178 -0.362941,0.1496 -0.747229,0.1496 -0.533737,0 -0.832629,-0.1923 -0.555086,-0.3629 -0.555086,-1.3663 -0.789931,0.7047 -1.387715,1.0461 -0.896676,0.5125 -1.707957,0.5125 -0.918025,0 -1.601208,-0.5977 -0.661833,-0.598 -0.661833,-1.6226 0,-1.4519 1.366364,-2.3913 0.939378,-0.6404 3.970998,-1.8361 l 0,-1.3023 q 0,-1.0034 -0.576433,-1.4516 -0.42699,-0.3202 -1.067473,-0.3202 -0.576437,0 -1.046124,0.2987 -0.469687,0.2777 -0.469687,0.7474 0,0.2135 0.02135,0.4482 0.0427,0.2135 0.08539,0.3842 0,0.363 -0.277544,0.6407 -0.277543,0.2775 -0.683181,0.2775 -0.448339,0 -0.683184,-0.299 -0.234844,-0.3202 -0.234844,-0.6404 0,-0.7899 0.811281,-1.4944 1.003424,-0.8753 2.668679,-0.8753 2.070899,0 2.77543,1.2168 0.405639,0.7047 0.405639,2.1991 l 0,4.163 q 0,0.662 0.08539,0.9609 0.106743,0.2775 0.533736,0.2775 0.298892,0 0.512387,-0.1067 0.21351,-0.1068 0.448353,-0.2991 z" font-family="Rekha" font-size="20.079" font-style="normal" font-variant="normal" font-weight="500" letter-spacing="0" word-spacing="0"/></g><path id="rect1035" fill="#000" fill-opacity=".627" fill-rule="nonzero" stroke="none" stroke-width=".2" d="m 8.65625,1004.3622 0,48 0.1875,0 0,-48 L 8.65625,1004.3622 Z" color="#000" display="inline" enable-background="accumulate" overflow="visible" visibility="visible" style="marker:none"/><path id="path1004" fill="#fff" fill-opacity="1" stroke="none" d="m 42.75383,1004.3622 c 1.077277,0 1.9375,0.8602 1.9375,1.9375 l 0,44.125 c 0,1.0773 -0.860223,1.9375 -1.9375,1.9375 l 2.65625,0 c 1.077277,0 1.9375,-0.8602 1.9375,-1.9375 l 0,-44.125 c 0,-1.0773 -0.860223,-1.9375 -1.9375,-1.9375 L 42.75383,1004.3622 Z"/><path id="rect923" fill="url(#linearGradient940)" fill-opacity="1" fill-rule="nonzero" stroke="none" stroke-width=".2" d="M 1.9375 0 C 0.86022285 0 0 0.86022285 0 1.9375 L 0 46.0625 C 0 47.139777 0.86022285 48 1.9375 48 L 8.65625 48 L 8.65625 0 L 1.9375 0 z" color="#000" display="inline" enable-background="accumulate" overflow="visible" transform="translate(0,1004.3622)" visibility="visible" style="marker:none"/><path id="rect983" fill="url(#linearGradient991)" fill-opacity="1" fill-rule="nonzero" stroke="none" stroke-width=".2" d="M 2.75 0 L 2.75 48 L 4.75 48 L 4.75 0 L 2.75 0 z" color="#000" display="inline" enable-background="accumulate" opacity=".5" overflow="visible" transform="translate(0,1004.3622)" visibility="visible" style="marker:none"/><g id="g4067" fill="#000" fill-opacity=".235" transform="matrix(1.0271862,0,0,1.0271862,3.3635321,-27.90938)"><path font-stretch="normal" style="line-height:125%;-inkscape-font-specification:Rekha Italic" id="path4069" fill="#000" fill-opacity=".235" stroke="none" d="m 24.523303,1035.3872 0,0.4058 -5.444109,0 0,-0.4058 q 0.76858,0 1.046122,-0.1067 0.44834,-0.1707 0.44834,-0.7044 0,-0.1923 -0.106743,-0.5124 -0.0854,-0.3202 -0.298893,-0.8327 l -0.875329,-2.0496 -5.593554,0 -0.982076,2.498 q -0.170795,0.4482 -0.170795,0.8112 0,0.5764 0.555086,0.7899 0.277542,0.1067 0.896677,0.1067 l 0,0.4058 -4.227193,0 0,-0.4058 q 0.384292,0 0.619136,-0.1279 0.256194,-0.1283 0.469687,-0.3417 0.320243,-0.3415 0.811278,-1.3664 0.256194,-0.5337 0.747232,-1.6651 l 4.440685,-10.4826 0.42699,0 5.316012,12.1265 q 0.533737,1.1956 0.853979,1.537 0.341587,0.3202 1.067468,0.3202 z m -10.461231,-5.0811 4.931723,0 -2.476536,-5.871 -2.455187,5.871 z" font-family="Rekha" font-size="20.079" font-style="normal" font-variant="normal" font-weight="500" letter-spacing="0" word-spacing="0"/><path font-stretch="normal" style="line-height:125%;-inkscape-font-specification:Rekha Italic" id="path4071" fill="#000" fill-opacity=".235" stroke="none" d="m 30.992186,1033.167 0,-3.0956 q -2.113596,0.7043 -2.924874,1.6225 -0.533735,0.5977 -0.533735,1.3664 0,0.7684 0.405638,1.2381 0.405639,0.4697 1.003424,0.4697 0.320242,0 0.704534,-0.128 0.384288,-0.128 0.619132,-0.2563 0.46969,-0.2134 0.597785,-0.4484 0.128096,-0.256 0.128096,-0.7684 z m 3.309165,1.2168 0,0.5553 q -0.576433,0.6831 -1.15287,0.9178 -0.362941,0.1496 -0.747229,0.1496 -0.533737,0 -0.832629,-0.1923 -0.555086,-0.3629 -0.555086,-1.3663 -0.789931,0.7047 -1.387715,1.0461 -0.896676,0.5125 -1.707957,0.5125 -0.918025,0 -1.601208,-0.5977 -0.661833,-0.598 -0.661833,-1.6226 0,-1.4519 1.366364,-2.3913 0.939378,-0.6404 3.970998,-1.8361 l 0,-1.3023 q 0,-1.0034 -0.576433,-1.4516 -0.42699,-0.3202 -1.067473,-0.3202 -0.576437,0 -1.046124,0.2987 -0.469687,0.2777 -0.469687,0.7474 0,0.2135 0.02135,0.4482 0.0427,0.2135 0.08539,0.3842 0,0.363 -0.277544,0.6407 -0.277543,0.2775 -0.683181,0.2775 -0.448339,0 -0.683184,-0.299 -0.234844,-0.3202 -0.234844,-0.6404 0,-0.7899 0.811281,-1.4944 1.003424,-0.8753 2.668679,-0.8753 2.070899,0 2.77543,1.2168 0.405639,0.7047 0.405639,2.1991 l 0,4.163 q 0,0.662 0.08539,0.9609 0.106743,0.2775 0.533736,0.2775 0.298892,0 0.512387,-0.1067 0.21351,-0.1068 0.448353,-0.2991 z" font-family="Rekha" font-size="20.079" font-style="normal" font-variant="normal" font-weight="500" letter-spacing="0" word-spacing="0"/></g><g id="g919" transform="matrix(1.0271862,0,0,1.0271862,3.3635321,-28.30938)"><path font-stretch="normal" style="line-height:125%;-inkscape-font-specification:Rekha Italic" id="path868" fill="#fff" fill-opacity="1" stroke="none" d="m 24.523303,1035.3872 0,0.4058 -5.444109,0 0,-0.4058 q 0.76858,0 1.046122,-0.1067 0.44834,-0.1707 0.44834,-0.7044 0,-0.1923 -0.106743,-0.5124 -0.0854,-0.3202 -0.298893,-0.8327 l -0.875329,-2.0496 -5.593554,0 -0.982076,2.498 q -0.170795,0.4482 -0.170795,0.8112 0,0.5764 0.555086,0.7899 0.277542,0.1067 0.896677,0.1067 l 0,0.4058 -4.227193,0 0,-0.4058 q 0.384292,0 0.619136,-0.1279 0.256194,-0.1283 0.469687,-0.3417 0.320243,-0.3415 0.811278,-1.3664 0.256194,-0.5337 0.747232,-1.6651 l 4.440685,-10.4826 0.42699,0 5.316012,12.1265 q 0.533737,1.1956 0.853979,1.537 0.341587,0.3202 1.067468,0.3202 z m -10.461231,-5.0811 4.931723,0 -2.476536,-5.871 -2.455187,5.871 z" font-family="Rekha" font-size="20.079" font-style="normal" font-variant="normal" font-weight="500" letter-spacing="0" word-spacing="0"/><path font-stretch="normal" style="line-height:125%;-inkscape-font-specification:Rekha Italic" id="path870" fill="#fff" fill-opacity="1" stroke="none" d="m 30.992186,1033.167 0,-3.0956 q -2.113596,0.7043 -2.924874,1.6225 -0.533735,0.5977 -0.533735,1.3664 0,0.7684 0.405638,1.2381 0.405639,0.4697 1.003424,0.4697 0.320242,0 0.704534,-0.128 0.384288,-0.128 0.619132,-0.2563 0.46969,-0.2134 0.597785,-0.4484 0.128096,-0.256 0.128096,-0.7684 z m 3.309165,1.2168 0,0.5553 q -0.576433,0.6831 -1.15287,0.9178 -0.362941,0.1496 -0.747229,0.1496 -0.533737,0 -0.832629,-0.1923 -0.555086,-0.3629 -0.555086,-1.3663 -0.789931,0.7047 -1.387715,1.0461 -0.896676,0.5125 -1.707957,0.5125 -0.918025,0 -1.601208,-0.5977 -0.661833,-0.598 -0.661833,-1.6226 0,-1.4519 1.366364,-2.3913 0.939378,-0.6404 3.970998,-1.8361 l 0,-1.3023 q 0,-1.0034 -0.576433,-1.4516 -0.42699,-0.3202 -1.067473,-0.3202 -0.576437,0 -1.046124,0.2987 -0.469687,0.2777 -0.469687,0.7474 0,0.2135 0.02135,0.4482 0.0427,0.2135 0.08539,0.3842 0,0.363 -0.277544,0.6407 -0.277543,0.2775 -0.683181,0.2775 -0.448339,0 -0.683184,-0.299 -0.234844,-0.3202 -0.234844,-0.6404 0,-0.7899 0.811281,-1.4944 1.003424,-0.8753 2.668679,-0.8753 2.070899,0 2.77543,1.2168 0.405639,0.7047 0.405639,2.1991 l 0,4.163 q 0,0.662 0.08539,0.9609 0.106743,0.2775 0.533736,0.2775 0.298892,0 0.512387,-0.1067 0.21351,-0.1068 0.448353,-0.2991 z" font-family="Rekha" font-size="20.079" font-style="normal" font-variant="normal" font-weight="500" letter-spacing="0" word-spacing="0"/></g><path id="rect4280-9" fill="#000" fill-opacity=".392" stroke="none" d="m 1.9374985,1004.3622 c -1.077277,0 -1.9375,0.8602 -1.9375,1.9375 l 0,43.0625 c 0,0.7934 0.480023,1.449 1.15625,1.75 -0.309342,-0.3333 -0.5,-0.7824 -0.5,-1.2812 l 0,-42.9375 c 0,-1.0482 0.826899,-1.875 1.875,-1.875 l 42.9375025,0 c 1.048101,0 1.875,0.8268 1.875,1.875 l 0,42.9375 c 0,0.4988 -0.190659,0.9479 -0.5,1.2812 0.67622,-0.301 1.15625,-0.9566 1.15625,-1.75 l 0,-43.0625 c 0,-1.0773 -0.86023,-1.9375 -1.9375,-1.9375 L 1.9374985,1004.3622 Z"/><path id="rect846" fill="#000" fill-opacity="1" stroke="none" d="m -1.5e-6,1049.3622 0,1.0625 c 0,1.0773 0.860223,1.9375 1.9375,1.9375 l 44.1250025,0 c 1.07727,0 1.9375,-0.8602 1.9375,-1.9375 l 0,-1.0625 c 0,1.0773 -0.86023,1.9375 -1.9375,1.9375 l -44.1250025,0 C 0.8602215,1051.2997 -1.5e-6,1050.4395 -1.5e-6,1049.3622 Z"/><path id="path7515" fill="#fff" fill-opacity=".537" stroke="none" d="m 2.5312485,1005.0185 c -0.917089,0 -1.671147,0.6395 -1.84375,1.5 0.335612,-0.2799 0.774512,-0.4375 1.25,-0.4375 l 44.1250025,0 c 0.47548,0 0.91438,0.1576 1.25,0.4375 -0.17261,-0.8605 -0.92667,-1.5 -1.84375,-1.5 L 2.5312485,1005.0185 Z"/><path d="m 4.75,1004.3622 0,48 0.4973981,0 0,-48 L 4.75,1004.3622 Z" style="marker:none" id="path996" fill="#fff" fill-opacity=".078" fill-rule="nonzero" stroke="none" stroke-width=".2" color="#000" display="inline" enable-background="accumulate" overflow="visible" visibility="visible"/><path id="path1002" fill="#000" fill-opacity=".078" fill-rule="nonzero" stroke="none" stroke-width=".2" d="m 2.75,1004.3622 0,48 0.4973981,0 0,-48 L 2.75,1004.3622 Z" color="#000" display="inline" enable-background="accumulate" overflow="visible" visibility="visible" style="marker:none"/><path id="path1014" fill="#000" fill-opacity=".431" stroke="none" d="m 43.442424,1004.3622 c 1.077277,0 1.9375,0.8602 1.9375,1.9375 l 0,44.125 c 0,1.0773 -0.860223,1.9375 -1.9375,1.9375 l 0.40625,0 c 1.077277,0 1.9375,-0.8602 1.9375,-1.9375 l 0,-44.125 c 0,-1.0773 -0.860223,-1.9375 -1.9375,-1.9375 L 43.442424,1004.3622 Z"/><path id="path1016" fill="#000" fill-opacity=".431" stroke="none" d="m 44.379924,1004.3622 c 1.077277,0 1.9375,0.8602 1.9375,1.9375 l 0,44.125 c 0,1.0773 -0.860223,1.9375 -1.9375,1.9375 l 0.40625,0 c 1.077277,0 1.9375,-0.8602 1.9375,-1.9375 l 0,-44.125 c 0,-1.0773 -0.860223,-1.9375 -1.9375,-1.9375 L 44.379924,1004.3622 Z"/><path id="path1018" fill="#000" fill-opacity=".196" stroke="none" d="m 41.75,1004.3622 c 0.975404,0.1047 1.71875,0.9323 1.71875,1.9375 l 0,44.125 c 0,1.0052 -0.743346,1.8328 -1.71875,1.9375 0.06179,0 0.127264,0.01 0.1875,0 0.04119,0 0.08448,0 0.125,0 0.03089,0 0.06323,0 0.09375,0 0.03044,0 0.06367,0 0.09375,0 l 0.09375,0 c 0.04119,0 0.08448,0 0.125,0 l 0.28125,0 c 1.077277,0 1.9375,-0.8602 1.9375,-1.9375 l 0,-44.125 c 0,-1.0773 -0.860223,-1.9375 -1.9375,-1.9375 l -0.28125,0 -0.21875,0 c -0.03012,-0 -0.06323,0 -0.09375,0 l -0.21875,0 L 41.75,1004.3622 Z"/></g></svg>