<svg xmlns="http://www.w3.org/2000/svg" xmlns:svg="http://www.w3.org/2000/svg" xmlns:xlink="http://www.w3.org/1999/xlink" id="svg3652" width="48" height="48" version="1.1"><defs id="defs3654"><linearGradient id="linearGradient4216"><stop id="stop4218" offset="0" stop-color="#dc40b0" stop-opacity="1"/><stop id="stop4220" offset="1" stop-color="#f5a4e5" stop-opacity="1"/></linearGradient><linearGradient id="linearGradient890" x1="25.633" x2="25.633" y1="-1052.364" y2="-1004.337" gradientUnits="userSpaceOnUse" xlink:href="#linearGradient4216"/></defs><metadata id="metadata3657"/><g id="layer1" transform="translate(-326,-508.36218)"><g id="layer1-9" transform="translate(326,-496.00006)"><rect id="rect2991-1-7" width="48" height="48" x="0" y="-1052.362" fill="url(#linearGradient890)" fill-opacity="1" stroke="none" ry="1.945" transform="scale(1,-1)"/><path id="rect892" fill="#fff" fill-opacity="1" stroke="none" d="m 7.65625,0 0,7.65625 -7.65625,0 0,0.6875 7.65625,0 0,7.3125 -7.65625,0 0,0.6875 7.65625,0 0,7.3125 -7.65625,0 0,0.6875 7.65625,0 0,7.3125 -7.65625,0 0,0.6875 7.65625,0 0,7.3125 -7.65625,0 0,0.6875 7.65625,0 0,7.65625 0.6875,0 0,-7.65625 7.3125,0 0,7.65625 0.6875,0 0,-7.65625 7.3125,0 0,7.65625 0.6875,0 0,-7.65625 7.3125,0 0,7.65625 0.6875,0 0,-7.65625 7.3125,0 0,7.65625 0.6875,0 0,-7.65625 7.65625,0 0,-0.6875 -7.65625,0 0,-7.3125 7.65625,0 0,-0.6875 -7.65625,0 0,-7.3125 7.65625,0 0,-0.6875 -7.65625,0 0,-7.3125 7.65625,0 0,-0.6875 -7.65625,0 0,-7.3125 7.65625,0 0,-0.6875 -7.65625,0 0,-7.65625 -0.6875,0 0,7.65625 -7.3125,0 0,-7.65625 -0.6875,0 0,7.65625 -7.3125,0 0,-7.65625 -0.6875,0 0,7.65625 -7.3125,0 0,-7.65625 -0.6875,0 0,7.65625 -7.3125,0 0,-7.65625 -0.6875,0 z m 0.6875,8.34375 7.3125,0 0,7.3125 -7.3125,0 0,-7.3125 z m 8,0 7.3125,0 0,7.3125 -7.3125,0 0,-7.3125 z m 8,0 7.3125,0 0,7.3125 -7.3125,0 0,-7.3125 z m 8,0 7.3125,0 0,7.3125 -7.3125,0 0,-7.3125 z m -24,8 7.3125,0 0,7.3125 -7.3125,0 0,-7.3125 z m 8,0 7.3125,0 0,7.3125 -7.3125,0 0,-7.3125 z m 8,0 7.3125,0 0,7.3125 -7.3125,0 0,-7.3125 z m 8,0 7.3125,0 0,7.3125 -7.3125,0 0,-7.3125 z m -24,8 7.3125,0 0,7.3125 -7.3125,0 0,-7.3125 z m 8,0 7.3125,0 0,7.3125 -7.3125,0 0,-7.3125 z m 8,0 7.3125,0 0,7.3125 -7.3125,0 0,-7.3125 z m 8,0 7.3125,0 0,7.3125 -7.3125,0 0,-7.3125 z m -24,8 7.3125,0 0,7.3125 -7.3125,0 0,-7.3125 z m 8,0 7.3125,0 0,7.3125 -7.3125,0 0,-7.3125 z m 8,0 7.3125,0 0,7.3125 -7.3125,0 0,-7.3125 z m 8,0 7.3125,0 0,7.3125 -7.3125,0 0,-7.3125 z" opacity=".152" transform="translate(0,1004.3622)"/><path id="rect846-3" fill="#000" fill-opacity="1" stroke="none" d="m -2.717923e-6,1049.3623 0,1.0625 c 0,1.0773 0.860222997923,1.9375 1.937500017923,1.9375 l 44.1250007,0 c 1.077277,0 1.937505,-0.8602 1.937505,-1.9375 l 0,-1.0625 c 0,1.0773 -0.860228,1.9375 -1.937505,1.9375 l -44.1250007,0 c -1.07727702,0 -1.937500017923,-0.8602 -1.937500017923,-1.9375 z"/><path id="path7515-2" fill="#fff" fill-opacity=".537" stroke="none" d="m 2.5312473,1005.0186 c -0.917088,0 -1.67114702,0.6395 -1.84375002,1.5 0.33561202,-0.2799 0.77451202,-0.4375 1.25000002,-0.4375 l 44.1250007,0 c 0.475488,0 0.914388,0.1576 1.250005,0.4375 -0.172608,-0.8605 -0.926667,-1.5 -1.843755,-1.5 l -42.9375007,0 z"/><path id="rect4280-0" fill="#000" fill-opacity=".392" stroke="none" d="m 1.9374973,1004.3623 c -1.07727702,0 -1.937500017923,0.8602 -1.937500017923,1.9375 l 0,43.0625 c 0,0.7934 0.480023997923,1.449 1.156250017923,1.75 -0.30934202,-0.3333 -0.50000002,-0.7824 -0.50000002,-1.2812 l 0,-42.9375 c 0,-1.0482 0.82689902,-1.875 1.87500002,-1.875 l 42.9375007,0 c 1.048101,0 1.875005,0.8268 1.875005,1.875 l 0,42.9375 c 0,0.4988 -0.190663,0.9479 -0.500005,1.2812 0.676225,-0.301 1.156255,-0.9566 1.156255,-1.75 l 0,-43.0625 c 0,-1.0773 -0.860228,-1.9375 -1.937505,-1.9375 l -44.1250007,0 z"/><g id="g1072" transform="matrix(1.2736387,0,0,1.2736387,-849.35226,168.37678)"><rect id="rect971" width="25.199" height="25.125" x="673.115" y="662.657" fill="#fff" fill-opacity=".341" ry="0"/><rect id="rect1260-3" width="5.853" height="2.097" x="676.345" y="682.512" fill="#fff" fill-opacity=".537" fill-rule="nonzero" stroke="none"/><path id="rect1264-6" fill="#fff" fill-opacity=".537" fill-rule="nonzero" stroke="none" d="m 675.39667,668.06664 0,2.39116 2.36723,0 0,-2.39116 -2.36723,0 z m 1.69771,0.59779 0.23912,0.23912 -0.71735,0.74126 -0.23911,0.23911 -0.28694,-0.28694 -0.26303,-0.26302 0.23911,-0.23912 0.28694,0.28693 0.74126,-0.71734 z"/><path id="path879-7" fill="#fff" fill-opacity=".537" fill-rule="nonzero" stroke="none" d="m 675.39667,672.34577 0,2.39115 2.36723,0 0,-2.39115 -2.36723,0 z m 1.69771,0.59779 0.23912,0.23911 -0.71735,0.74126 -0.23911,0.23911 -0.28694,-0.28693 -0.26303,-0.26303 0.23911,-0.23912 0.28694,0.28695 0.74126,-0.71735 z"/><rect id="rect881-0" width="5.853" height="2.097" x="688.969" y="682.512" fill="#fff" fill-opacity=".537" fill-rule="nonzero" stroke="none"/><rect id="rect1070" width="25.199" height="3.205" x="673.115" y="662.657" fill="#fff" fill-opacity=".341" ry="0"/></g><flowRoot id="flowRoot1042" fill="#000" fill-opacity="1" stroke="none" font-family="Impact" font-size="40" font-stretch="normal" font-style="normal" font-variant="normal" font-weight="bold" letter-spacing="0" transform="translate(-73.72922,1001.5273)" word-spacing="0" xml:space="preserve" style="line-height:125%;-inkscape-font-specification:Impact Bold"><flowRegion id="flowRegion1044"><rect id="rect1046" width="70.179" height="63.571" x="-79.821" y="2.107"/></flowRegion><flowPara id="flowPara1048">\documentclass[12pt]{article}</flowPara><flowPara id="flowPara1050"/></flowRoot></g></g></svg>