<svg xmlns="http://www.w3.org/2000/svg" xmlns:svg="http://www.w3.org/2000/svg" xmlns:xlink="http://www.w3.org/1999/xlink" id="svg5453" width="48" height="48" version="1.1"><defs id="defs5455"><linearGradient id="linearGradient4111"><stop id="stop4113" offset="0" stop-color="#b9e8ff" stop-opacity="1"/><stop id="stop4115" offset="1" stop-color="#f5fdff" stop-opacity="1"/></linearGradient><linearGradient id="linearGradient4074"><stop id="stop4076" offset="0" stop-color="#007dba" stop-opacity="1"/><stop id="stop4078" offset="1" stop-color="#00afda" stop-opacity="1"/></linearGradient><linearGradient id="linearGradient4080" x1="412.422" x2="412.422" y1="-547.798" y2="-499.826" gradientUnits="userSpaceOnUse" xlink:href="#linearGradient4074"/><linearGradient id="linearGradient4109" x1="29.067" x2="29.067" y1="39.402" y2="8.596" gradientTransform="matrix(0.99997462,0,0,0.99997462,384.57165,499.799)" gradientUnits="userSpaceOnUse" xlink:href="#linearGradient4111"/></defs><metadata id="metadata5458"/><g id="layer1" transform="translate(-384.57143,-499.798)"><rect id="rect2991-1-7" width="48" height="48" x="384.571" y="-547.798" fill="url(#linearGradient4080)" fill-opacity="1" stroke="none" ry="1.945" transform="scale(1,-1)"/><path id="rect846" fill="#000" fill-opacity="1" stroke="none" d="m 384.57143,544.79799 0,1.0625 c 0,1.0773 0.86022,1.9375 1.9375,1.9375 l 44.125,0 c 1.07728,0 1.9375,-0.8602 1.9375,-1.9375 l 0,-1.0625 c 0,1.0773 -0.86022,1.9375 -1.9375,1.9375 l -44.125,0 C 385.43165,546.73549 384.57143,545.87529 384.57143,544.79799 Z"/><path id="path7515" fill="#fff" fill-opacity=".537" stroke="none" d="m 387.10268,500.45429 c -0.91709,0 -1.67115,0.6395 -1.84375,1.5 0.33561,-0.2799 0.77451,-0.4375 1.25,-0.4375 l 44.125,0 c 0.47549,0 0.91439,0.1576 1.25,0.4375 -0.1726,-0.8605 -0.92666,-1.5 -1.84375,-1.5 L 387.10268,500.45429 Z"/><path id="rect4280" fill="#000" fill-opacity=".392" stroke="none" d="m 386.50893,499.79799 c -1.07728,0 -1.9375,0.8602 -1.9375,1.9375 l 0,43.0625 c 0,0.7934 0.48002,1.449 1.15625,1.75 -0.30934,-0.3333 -0.5,-0.7824 -0.5,-1.2812 l 0,-42.9375 c 0,-1.0482 0.8269,-1.875 1.875,-1.875 l 42.9375,0 c 1.0481,0 1.875,0.8268 1.875,1.875 l 0,42.9375 c 0,0.4988 -0.19066,0.9479 -0.5,1.2812 0.67623,-0.301 1.15625,-0.9566 1.15625,-1.75 l 0,-43.0625 c 0,-1.0773 -0.86022,-1.9375 -1.9375,-1.9375 L 386.50893,499.79799 Z"/><path id="path4125" fill="#000" fill-opacity=".059" stroke="none" d="m 417.74659,509.598 -12.11493,20.9858 -8.86892,-5.11901 -3.5917,6.22249 15.08751,8.71072 0.002,-0.002 0.002,0.002 15.70859,-27.20634 -6.22445,-3.59366 z"/><path id="path4123" fill="#000" fill-opacity=".118" stroke="none" d="m 417.74659,509.198 -12.11493,20.9858 -8.86892,-5.11901 -3.5917,6.22249 15.08751,8.71072 0.002,-0.002 0.002,0.002 15.70859,-27.20634 -6.22445,-3.59366 z"/><path id="path4119" fill="#000" fill-opacity=".235" stroke="none" d="m 417.74659,508.798 -12.11493,20.9858 -8.86892,-5.11901 -3.5917,6.22249 15.08751,8.71072 0.002,-0.002 0.002,0.002 15.70859,-27.20634 -6.22445,-3.59366 z"/><path id="rect4131" fill="url(#linearGradient4109)" fill-opacity="1" stroke="none" d="m 417.74659,508.39839 -12.11493,20.9858 -8.86892,-5.11901 -3.5917,6.22249 15.08751,8.71072 0.002,-0.002 0.002,0.002 15.70859,-27.20634 -6.22445,-3.59366 z"/><path id="path4127" fill="#007fbb" fill-opacity=".314" stroke="none" d="M 39.054688 11.994141 L 23.691406 38.599609 L 23.689453 38.597656 L 23.6875 38.599609 L 8.9472656 30.087891 L 8.5996094 30.689453 L 23.6875 39.400391 L 23.689453 39.398438 L 23.691406 39.400391 L 39.400391 12.193359 L 39.054688 11.994141 z" transform="translate(384.57143,499.798)"/><path id="path4132" fill="#fff" fill-opacity=".235" stroke="none" d="M 33.175781 8.5996094 L 21.060547 29.585938 L 12.191406 24.466797 L 8.5996094 30.689453 L 8.7734375 30.789062 L 12.191406 24.867188 L 21.060547 29.986328 L 33.175781 9 L 39.226562 12.494141 L 39.400391 12.193359 L 33.175781 8.5996094 z" transform="translate(384.57143,499.798)"/></g></svg>