<svg xmlns="http://www.w3.org/2000/svg" xmlns:svg="http://www.w3.org/2000/svg" xmlns:xlink="http://www.w3.org/1999/xlink" id="svg2" width="48" height="48" version="1.1"><defs id="defs4"><linearGradient id="linearGradient1462"><stop id="stop1464" offset="0" stop-color="#000" stop-opacity="1"/><stop id="stop1466" offset="1" stop-color="#666" stop-opacity="1"/></linearGradient><linearGradient id="linearGradient1497" x1="24.969" x2="24.969" y1="23.906" y2="45.594" gradientTransform="matrix(0.90909092,0,0,0.90909092,2.1818184,1006.4019)" gradientUnits="userSpaceOnUse" xlink:href="#linearGradient1499"/><linearGradient id="linearGradient1499"><stop id="stop1501" offset="0" stop-color="#0a2956" stop-opacity="1"/><stop id="stop1503" offset="1" stop-color="#084ba0" stop-opacity="1"/></linearGradient><linearGradient id="linearGradient1489" x1="25.191" x2="25.191" y1="24.224" y2="1.861" gradientTransform="matrix(0.90909092,0,0,0.89606669,2.1818184,1006.7166)" gradientUnits="userSpaceOnUse" xlink:href="#linearGradient1483"/><linearGradient id="linearGradient1483"><stop id="stop1485" offset="0" stop-color="#267aff" stop-opacity="1"/><stop id="stop1487" offset="1" stop-color="#6992d3" stop-opacity="1"/></linearGradient><linearGradient id="linearGradient1545" x1="24.406" x2="24.406" y1="1027.273" y2="1027.844" gradientTransform="matrix(0.90909092,0,0,1.5461141,2.1818179,-560.97577)" gradientUnits="userSpaceOnUse" xlink:href="#linearGradient1539"/><linearGradient id="linearGradient1539"><stop id="stop1541" offset="0" stop-color="#000" stop-opacity="1"/><stop id="stop1543" offset="1" stop-color="#000" stop-opacity="0"/></linearGradient><linearGradient id="linearGradient1583" x1="19.55" x2="25.4" y1="20.563" y2="20.563" gradientUnits="userSpaceOnUse" xlink:href="#linearGradient1577"/><linearGradient id="linearGradient1577"><stop id="stop1579" offset="0" stop-color="#b6e500" stop-opacity="1"/><stop id="stop1581" offset="1" stop-color="#cf0" stop-opacity="1"/></linearGradient><linearGradient id="linearGradient1698" x1="22.081" x2="22.081" y1="-1052.841" y2="-1004.767" gradientTransform="translate(4e-7,-1.9191406e-5)" gradientUnits="userSpaceOnUse" xlink:href="#linearGradient1462"/></defs><metadata id="metadata7"/><g id="layer1" transform="translate(0,-1004.3622)"><g id="layer1-6" transform="translate(-1.9999999e-7,8.6914063e-6)"><rect id="rect2991-1-3" width="48" height="48" x="0" y="-1052.362" fill="url(#linearGradient1698)" fill-opacity="1" stroke="none" ry="1.945" transform="scale(1,-1)"/><rect id="rect4065-8" width="42" height="42" x="3" y="-1049.362" fill="#000" fill-opacity=".235" stroke="none" ry="1.701" transform="scale(1,-1)"/><path id="rect846-1" fill="#000" fill-opacity="1" stroke="none" d="m 4e-7,1049.3622 0,1.0625 c 0,1.0773 0.860223,1.9375 1.9375,1.9375 l 44.1250006,0 c 1.077277,0 1.9375,-0.8602 1.9375,-1.9375 l 0,-1.0625 c 0,1.0773 -0.860223,1.9375 -1.9375,1.9375 l -44.1250006,0 c -1.077277,0 -1.9375,-0.8602 -1.9375,-1.9375 z"/><path id="path7515-1" fill="#fff" fill-opacity=".537" stroke="none" d="m 2.5312504,1005.0185 c -0.917088,0 -1.671147,0.6395 -1.84375,1.5 0.335612,-0.2799 0.774512,-0.4375 1.25,-0.4375 l 44.1250006,0 c 0.475488,0 0.914388,0.1576 1.25,0.4375 -0.172603,-0.8605 -0.926662,-1.5 -1.84375,-1.5 l -42.9375006,0 z"/><path id="rect4280-0" fill="#000" fill-opacity=".392" stroke="none" d="m 1.9375004,1004.3622 c -1.077277,0 -1.9375,0.8602 -1.9375,1.9375 l 0,43.0625 c 0,0.7934 0.480024,1.449 1.15625,1.75 -0.309342,-0.3333 -0.5,-0.7824 -0.5,-1.2812 l 0,-42.9375 c 0,-1.0482 0.826899,-1.875 1.875,-1.875 l 42.9375006,0 c 1.048101,0 1.875,0.8268 1.875,1.875 l 0,42.9375 c 0,0.4988 -0.190658,0.9479 -0.5,1.2812 0.676226,-0.301 1.15625,-0.9566 1.15625,-1.75 l 0,-43.0625 c 0,-1.0773 -0.860223,-1.9375 -1.9375,-1.9375 l -44.1250006,0 z"/><rect id="rect1472-9" width="40" height="40" x="4" y="-1048.362" fill="#000" fill-opacity="1" stroke="none" ry="1.62" transform="scale(1,-1)"/><path id="path1481-2" fill="url(#linearGradient1497)" fill-opacity="1" stroke="none" d="m 43.687501,1028.3622 -39.3750007,0 0,17.9546 c 0,0.8838 0.7070781,1.5908 1.5909091,1.5908 l 36.1931816,0 c 0.883833,0 1.59091,-0.707 1.59091,-1.5908 l 0,-17.9546 z"/><path id="path1567-9" fill="#000" fill-opacity=".735" fill-rule="nonzero" stroke="none" stroke-width=".2" d="m 3.9999997,1027.7016 0,1.6762 40.0000003,0 0,-1.6762 -40.0000003,0 z" color="#000" display="inline" enable-background="accumulate" overflow="visible" visibility="visible" style="marker:none"/><path id="rect1476-0" fill="url(#linearGradient1489)" fill-opacity="1" stroke="none" d="m 5.9034094,1008.8168 c -0.883831,0 -1.5909091,0.6968 -1.5909091,1.5681 l 0,17.9773 39.3750007,0 0,-17.9773 c 0,-0.8713 -0.707077,-1.5681 -1.59091,-1.5681 l -36.1931816,0 z"/><path id="path1565-6" fill="#000" fill-opacity=".508" fill-rule="nonzero" stroke="none" stroke-width=".2" d="m 3.9999997,1027.3466 0,1.6762 40.0000003,0 0,-1.6762 -40.0000003,0 z" color="#000" display="inline" enable-background="accumulate" overflow="visible" visibility="visible" style="marker:none"/><path id="rect1505-8" fill="#cf0" fill-opacity="1" fill-rule="nonzero" stroke="none" stroke-width=".2" d="m 3.9999997,1027.5641 0,1.6762 40.0000003,0 0,-1.6762 -40.0000003,0 z" color="#000" display="inline" enable-background="accumulate" overflow="visible" visibility="visible" style="marker:none"/><path id="path1516-2" fill="url(#linearGradient1545)" fill-opacity="1" fill-rule="nonzero" stroke="none" stroke-width=".2" d="m 3.9999997,1027.5641 0,0.801 40.0000003,0 0,-0.801 -40.0000003,0 z" color="#000" display="inline" enable-background="accumulate" opacity=".571" overflow="visible" visibility="visible" style="marker:none"/><path id="path1512-6" fill="#000" fill-opacity=".195" fill-rule="nonzero" stroke="none" stroke-width=".2" d="m 25.399619,20.5625 -5.849429,3.377169 0,-6.754338 z" color="#000" display="inline" enable-background="accumulate" overflow="visible" transform="matrix(0,0.59300464,-1.0100361,0,44.768869,1015.9708)" visibility="visible" style="marker:none"/><path id="path1514-9" fill="url(#linearGradient1583)" fill-opacity="1" fill-rule="nonzero" stroke="none" stroke-width=".2" d="m 25.399619,20.5625 -5.849429,3.377169 0,-6.754338 z" color="#000" display="inline" enable-background="accumulate" overflow="visible" transform="matrix(0,0.54443734,-0.92731382,0,43.06789,1016.9203)" visibility="visible" style="marker:none"/><path id="path858-5" fill="#fff" fill-opacity="1" d="m 28.140406,1021.9858 c 0.003,-0.6321 0.005,-1.5966 0.005,-2.1432 l 0,-0.9941 -0.02416,0 c -0.01328,0 -1.058797,-0.011 -2.323372,-0.026 -1.264573,-0.014 -2.345192,-0.026 -2.401374,-0.026 l -0.102144,0 0,1.6898 c 0,0.9297 8.33e-4,1.6903 0.0021,1.6903 0.0011,0 1.084983,0.2154 2.408803,0.4784 1.323818,0.263 2.412242,0.4786 2.418715,0.4789 0.01049,-4e-4 0.01205,-0.1074 0.01653,-1.1492 z m -5.259876,-1.5418 c 0.0026,-0.9079 0.0039,-1.6511 0.003,-1.6519 -0.0016,0 -2.879991,-0.034 -2.971276,-0.033 l -0.05756,0 0,1.3666 0,1.3669 0.01671,0.01 c 0.01308,0.01 2.982533,0.5943 3.000032,0.5972 0.0025,0 0.0065,-0.7465 0.009,-1.6543 z m -1.450855,-2.034 c 0.684381,-0.01 1.291967,-0.014 1.350191,-0.015 l 0.105862,0 0,-1.6536 0,-1.6539 -0.02043,0.01 c -0.01122,0 -0.693184,0.137 -1.515431,0.2999 l -1.495003,0.2961 -6e-5,1.3687 -1.19e-4,1.3686 0.165293,0 c 0.09098,0 0.725311,-0.011 1.409695,-0.019 z m 4.382495,-0.049 c 1.280631,-0.014 2.329496,-0.028 2.330813,-0.029 0.0014,0 0.0014,-0.9669 5.67e-4,-2.1457 l -0.0021,-2.1431 -2.202651,0.4371 c -1.211459,0.2403 -2.301273,0.4564 -2.421805,0.4802 l -0.219151,0.044 -0.0021,1.6915 -0.0021,1.6914 0.09473,0 c 0.05271,-2e-4 1.143139,-0.012 2.423769,-0.027 z"/><path id="path876" fill="#fff" fill-opacity="1" fill-rule="nonzero" stroke="none" stroke-width="1.4" d="m 21.42747,1033.5894 0,9.091 7.882003,-4.5454 -7.882003,-4.5456 z m -1.692455,4.0718 c -0.574078,0 -1.044486,0.4606 -1.044486,1.0346 0,0.574 0.470408,1.0445 1.044486,1.0445 0.574076,0 1.034815,-0.4705 1.034815,-1.0445 0,-0.574 -0.460739,-1.0346 -1.034815,-1.0346 z m 0,2.9399 c -0.574078,0 -1.044486,0.4606 -1.044486,1.0347 0,0.5742 0.470408,1.0446 1.044486,1.0446 0.574076,0 1.034815,-0.4704 1.034815,-1.0446 0,-0.5741 -0.460739,-1.0347 -1.034815,-1.0347 z" color="#000" display="inline" enable-background="accumulate" overflow="visible" visibility="visible" style="marker:none"/></g></g></svg>