<svg xmlns="http://www.w3.org/2000/svg" xmlns:svg="http://www.w3.org/2000/svg" xmlns:xlink="http://www.w3.org/1999/xlink" id="svg2" width="48" height="48" version="1.1"><defs id="defs4"><linearGradient id="linearGradient903"><stop id="stop905" offset="0" stop-color="#5f4647" stop-opacity="1"/><stop id="stop911" offset=".3" stop-color="#684b4d" stop-opacity="1"/><stop id="stop907" offset="1" stop-color="#2b1f21" stop-opacity="1"/></linearGradient><linearGradient id="linearGradient897"><stop id="stop899" offset="0" stop-color="#a77543" stop-opacity="1"/><stop id="stop901" offset="1" stop-color="#845526" stop-opacity="1"/></linearGradient><linearGradient id="linearGradient838"><stop id="stop840" offset="0" stop-color="red" stop-opacity="1"/><stop id="stop842" offset="1" stop-color="#a00" stop-opacity="1"/></linearGradient><linearGradient id="linearGradient859" x1="2.168" x2="46.539" y1="1027.803" y2="1027.803" gradientTransform="matrix(0.82023489,0,0,0.94116622,8.6480715,58.324921)" gradientUnits="userSpaceOnUse" xlink:href="#linearGradient897"/><linearGradient id="linearGradient919" x1="-62.33" x2="-62.33" y1="1061.581" y2="1058.206" gradientTransform="matrix(0.82023489,0,0,0.82023489,60.889966,182.72628)" gradientUnits="userSpaceOnUse" xlink:href="#linearGradient838"/><linearGradient id="linearGradient954" x1="-67.766" x2="-68.768" y1="25.005" y2="25.005" gradientTransform="matrix(0.82023489,0,0,0.82023489,60.889966,1006.5392)" gradientUnits="userSpaceOnUse" xlink:href="#linearGradient903"/><linearGradient id="linearGradient3801" x1=".079" x2="10.329" y1="1027.847" y2="1027.847" gradientTransform="translate(0,-1004.3621)" gradientUnits="userSpaceOnUse" xlink:href="#linearGradient903"/></defs><metadata id="metadata7"/><g id="layer1" transform="translate(0,-1004.3622)"><path id="rect2991" fill="url(#linearGradient3801)" fill-opacity="1" stroke="none" d="M 1.84375 0 C 1.7491003 0 1.653581 0.017131449 1.5625 0.03125 C 0.77535924 0.15326536 0.1541331 0.77186219 0.03125 1.5625 C 0.017031042 1.6539857 5.5638763e-17 1.7484784 0 1.84375 C -0.0016509508 1.8767586 0 1.9040673 0 1.9375 L 0 42.46875 C -0.0032176385 43.305592 -0.015739324 44.056578 0 44.71875 L 0 46.0625 C 0 47.139777 0.86022285 48 1.9375 48 L 46.0625 48 C 47.139777 48 48 47.139777 48 46.0625 L 48 1.9375 C 48 0.86022285 47.139777 0 46.0625 0 L 10.5625 0 L 6.25 0 L 1.84375 0 z" transform="translate(0,1004.3622)"/><path id="rect857" fill="url(#linearGradient859)" fill-opacity="1" stroke="none" d="m 10.573682,1004.4706 0,44.2979 35.628953,0 c 1.007281,0 1.819896,-0.8179 1.819896,-1.8318 l 0,-40.6343 C 48.022531,1005.2885 47.209916,1004.4702 46.202635,1004.4706 Z"/><path id="rect878" fill="#e6e6e6" fill-opacity="1" stroke="none" d="M 47.1875 44.125 C 46.904167 44.307984 46.550121 44.40625 46.1875 44.40625 L 10.5625 44.40625 L 10.5625 44.3125 L 10.46875 44.3125 L 3.28125 44.3125 C 0.31217607 44.3125 0.29951902 47.5 3.28125 47.5 L 43.59375 47.5 C 46.798936 47.5 47.157717 46.216391 47.1875 44.125 z" transform="translate(0,1004.3622)"/><rect id="rect929" width="41.832" height=".289" x="4.029" y="1049.313" fill="#000" fill-opacity=".358" stroke="none" ry="0"/><rect id="rect931" width="41.832" height=".289" x="4.029" y="1050.69" fill="#000" fill-opacity=".358" stroke="none" ry="0"/><rect id="rect862" width="41.832" height=".178" x="4.029" y="1049.601" fill="#fff" fill-opacity=".358" stroke="none" ry="0"/><rect id="rect864" width="41.832" height=".178" x="4.029" y="1050.979" fill="#fff" fill-opacity=".358" stroke="none" ry="0"/><path id="rect866" fill="url(#linearGradient919)" fill-opacity="1" stroke="none" d="m 8.021599,1049.2427 0,3.1195 1.8403299,-1.6953 1.8403311,1.6953 L 11.70226,1049.2427 Z"/><path id="path933" fill="#502d16" fill-opacity=".407" fill-rule="nonzero" stroke="none" d="m 16.738309,1016.7217 c -0.815997,0 -1.466337,0.5868 -1.466337,1.3229 l 0,14.206 c 0,0.7363 0.65034,1.323 1.466337,1.323 l 9.702495,0 2.85045,2.0647 2.85045,-2.0647 9.716199,0 c 0.815997,0 1.466337,-0.5867 1.466337,-1.323 l 0,-14.206 c 0,-0.7361 -0.65034,-1.3229 -1.466337,-1.3229 l -9.15433,0 -3.412318,2.72 L 25.878936,1016.7217 z m 1.178552,1.1375 7.400208,0 3.563062,2.72 0,13.4024 -2.165245,-1.5949 -8.798025,0 c -0.73946,0 -1.329296,-0.038 -1.329296,-0.7048 l 0,-12.8707 C 16.587565,1018.144 17.177401,1017.8592 17.916861,1017.8592 z m 15.348579,0 7.413912,0 c 0.739468,0 1.329297,0.2848 1.329297,0.952 l 0,12.8707 c 0,0.6671 -0.589829,0.7048 -1.329297,0.7048 l -8.798025,0 -2.17895,1.5949 L 29.702377,1020.5792 z m -2.329695,3.536 0,1.2364 9.812126,0 L 40.747871,1021.3952 z m 0,1.9659 0,1.2363 9.812126,0 L 40.747871,1023.3611 z m 0,1.9535 0,1.2364 9.812126,0 L 40.747871,1025.3146 z m 0,1.9658 0,1.2364 9.812126,0 L 40.747871,1027.2804 Z"/><path id="rect946" fill="url(#linearGradient954)" fill-opacity="1" stroke="none" d="m 4.473185,1004.3622 0,44.3166 0.8714995,0 L 5.3446845,1004.3622 Z"/><path id="rect846" fill="#000" fill-opacity="1" stroke="none" d="m 0,1049.3622 0,1.0625 c 0,1.0773 0.860223,1.9375 1.9375,1.9375 l 44.125,0 c 1.077277,0 1.9375,-0.8602 1.9375,-1.9375 l 0,-1.0625 c 0,1.0773 -0.860223,1.9375 -1.9375,1.9375 l -44.125,0 C 0.860223,1051.2997 0,1050.4395 0,1049.3622 Z"/><path id="path7515" fill="#fff" fill-opacity=".537" stroke="none" d="m 2.53125,1005.0185 c -0.917089,0 -1.671147,0.6395 -1.84375,1.5 0.335612,-0.2799 0.774512,-0.4375 1.25,-0.4375 l 44.125,0 c 0.475488,0 0.914388,0.1576 1.25,0.4375 -0.172603,-0.8605 -0.926662,-1.5 -1.84375,-1.5 L 2.53125,1005.0185 Z"/><path id="rect4280-7" fill="#000" fill-opacity=".392" stroke="none" d="m 1.9375,1004.3622 c -1.077277,0 -1.9375,0.8602 -1.9375,1.9375 l 0,43.0625 c 0,0.7934 0.480024,1.449 1.15625,1.75 -0.309342,-0.3333 -0.5,-0.7824 -0.5,-1.2812 l 0,-42.9375 c 0,-1.0482 0.826899,-1.875 1.875,-1.875 l 42.9375,0 c 1.048101,0 1.875,0.8268 1.875,1.875 l 0,42.9375 c 0,0.4988 -0.190658,0.9479 -0.5,1.2812 0.676226,-0.301 1.15625,-0.9566 1.15625,-1.75 l 0,-43.0625 c 0,-1.0773 -0.860223,-1.9375 -1.9375,-1.9375 L 1.9375,1004.3622 Z"/><path id="path849" fill="#fff" fill-opacity=".126" fill-rule="nonzero" stroke="none" d="m 17.90625,1017.8647 c -0.73946,0 -1.3125,0.3016 -1.3125,0.9688 l 0,0.375 c 0,-0.6672 0.57304,-0.9375 1.3125,-0.9375 l 7.40625,0 3.5625,2.7187 0,-0.4062 -3.5625,-2.7188 L 17.90625,1017.8647 z m 15.34375,0 -3.5625,2.7188 0,0.4062 3.5625,-2.7187 7.4375,0 c 0.739468,0 1.3125,0.2703 1.3125,0.9375 l 0,-0.375 c 0,-0.6672 -0.573032,-0.9688 -1.3125,-0.9688 L 33.25,1017.8647 z m -2.3125,4.7813 0,0.4062 9.8125,0 0,-0.4062 L 30.9375,1022.646 z m 0,1.9687 0,0.4063 9.8125,0 0,-0.4063 L 30.9375,1024.6147 z m 0,1.9375 0,0.4063 9.8125,0 0,-0.4063 L 30.9375,1026.5522 z m 0,1.9688 0,0.4062 9.8125,0 0,-0.4062 L 30.9375,1028.521 z m -15.65625,3.75 0,0.375 c 0,0.7363 0.652753,1.3437 1.46875,1.3437 l 9.6875,0 2.84375,2.0625 2.875,-2.0625 9.6875,0 c 0.815997,0 1.46875,-0.6074 1.46875,-1.3437 l 0,-0.375 c 0,0.7363 -0.652753,1.3125 -1.46875,1.3125 l -9.6875,0 -2.875,2.0625 -2.84375,-2.0625 -9.6875,0 C 15.934003,1033.5835 15.28125,1033.0073 15.28125,1032.271 Z"/><path id="path854" fill="#000" fill-opacity=".407" fill-rule="nonzero" stroke="none" d="M 16.4375 12.375 C 15.766367 12.497381 15.28125 13.043413 15.28125 13.6875 L 15.28125 13.90625 C 15.28125 13.17015 15.934003 12.59375 16.75 12.59375 L 25.875 12.59375 L 29.28125 15.3125 L 32.71875 12.59375 L 41.84375 12.59375 C 42.659747 12.59375 43.3125 13.17015 43.3125 13.90625 L 43.3125 13.6875 C 43.3125 12.9514 42.659747 12.375 41.84375 12.375 L 32.71875 12.375 L 29.28125 15.09375 L 25.875 12.375 L 16.75 12.375 C 16.648 12.375 16.533376 12.357517 16.4375 12.375 z M 30.9375 17.03125 L 30.9375 17.25 L 40.75 17.25 L 40.75 17.03125 L 30.9375 17.03125 z M 30.9375 19 L 30.9375 19.21875 L 40.75 19.21875 L 40.75 19 L 30.9375 19 z M 30.9375 20.9375 L 30.9375 21.1875 L 40.75 21.1875 L 40.75 20.9375 L 30.9375 20.9375 z M 30.9375 22.90625 L 30.9375 23.125 L 40.75 23.125 L 40.75 22.90625 L 30.9375 22.90625 z M 16.59375 27.3125 L 16.59375 27.53125 C 16.59375 28.19805 17.16679 28.25 17.90625 28.25 L 26.71875 28.25 L 28.875 29.84375 L 28.875 29.625 L 26.71875 28.03125 L 17.90625 28.03125 C 17.16679 28.03125 16.59375 27.9793 16.59375 27.3125 z M 42 27.3125 C 42 27.9796 41.426968 28.03125 40.6875 28.03125 L 31.875 28.03125 L 29.6875 29.625 L 29.6875 29.84375 L 31.875 28.25 L 40.6875 28.25 C 41.426968 28.25 42 28.19835 42 27.53125 L 42 27.3125 z" transform="translate(0,1004.3622)"/></g></svg>