<svg xmlns="http://www.w3.org/2000/svg" xmlns:svg="http://www.w3.org/2000/svg" xmlns:xlink="http://www.w3.org/1999/xlink" id="svg5453" width="48" height="48" version="1.1"><defs id="defs5455"><linearGradient id="linearGradient3355"><stop id="stop3357" offset="0" stop-color="#fed640" stop-opacity="1"/><stop id="stop3359" offset="1" stop-color="#f2ed82" stop-opacity="1"/></linearGradient><linearGradient id="linearGradient3347"><stop id="stop3349" offset="0" stop-color="#24c8fb" stop-opacity="1"/><stop id="stop3351" offset="1" stop-color="#1e78f0" stop-opacity="1"/></linearGradient><linearGradient id="linearGradient3339"><stop id="stop3341" offset="0" stop-color="#70c552" stop-opacity="1"/><stop id="stop3343" offset="1" stop-color="#6ee555" stop-opacity="1"/></linearGradient><linearGradient id="linearGradient3320"><stop id="stop3322" offset="0" stop-color="#fbfbfb" stop-opacity="1"/><stop id="stop3324" offset="1" stop-color="#fefefe" stop-opacity="1"/></linearGradient><style id="style3290" type="text/css">.fil2{fill:#11a861}.fil0{fill:#3777e3}.fil1{fill:#ffcf63}</style><linearGradient id="linearGradient3326" x1="419.151" x2="419.151" y1="-547.826" y2="-499.814" gradientUnits="userSpaceOnUse" xlink:href="#linearGradient3320"/><linearGradient id="linearGradient3345" x1="12977.449" x2="57453.918" y1="98194.992" y2="21159.486" gradientUnits="userSpaceOnUse" xlink:href="#linearGradient3339"/><linearGradient id="linearGradient3353" x1="122647.7" x2="33224.266" y1="96085.945" y2="96085.945" gradientUnits="userSpaceOnUse" xlink:href="#linearGradient3347"/><linearGradient id="linearGradient3361" x1="109727.55" x2="65370.57" y1="76858.094" y2="29.557" gradientUnits="userSpaceOnUse" xlink:href="#linearGradient3355"/></defs><metadata id="metadata5458"/><g id="layer1" transform="translate(-384.57143,-499.798)"><rect id="rect2991-1-7" width="48" height="48" x="384.571" y="-547.798" fill="url(#linearGradient3326)" fill-opacity="1" stroke="none" ry="1.945" transform="scale(1,-1)"/><path id="path4191" fill="#000" fill-opacity=".059" fill-rule="evenodd" d="m 402.64565,509.598 -11.85352,20.53268 5.92774,10.26732 23.70312,0 5.92774,-10.26732 -11.85352,-20.53268 -11.85156,0 z m 5.92578,10.26732 5.92578,10.26536 -11.85156,0 5.92578,-10.26536 z" clip-rule="evenodd" image-rendering="optimizeQuality" shape-rendering="geometricPrecision" text-rendering="geometricPrecision"/><path id="path4189" fill="#000" fill-opacity=".118" fill-rule="evenodd" d="m 402.64565,509.198 -11.85352,20.53268 5.92774,10.26732 23.70312,0 5.92774,-10.26732 -11.85352,-20.53268 -11.85156,0 z m 5.92578,10.26732 5.92578,10.26536 -11.85156,0 5.92578,-10.26536 z" clip-rule="evenodd" image-rendering="optimizeQuality" shape-rendering="geometricPrecision" text-rendering="geometricPrecision"/><path id="polygon4180" fill="#000" fill-opacity=".235" fill-rule="evenodd" d="m 402.64565,508.798 -11.85352,20.53268 5.92774,10.26732 23.70312,0 5.92774,-10.26732 -11.85352,-20.53268 -11.85156,0 z m 5.92578,10.26732 5.92578,10.26536 -11.85156,0 5.92578,-10.26536 z" clip-rule="evenodd" image-rendering="optimizeQuality" shape-rendering="geometricPrecision" text-rendering="geometricPrecision"/><path id="rect846" fill="#000" fill-opacity="1" stroke="none" d="m 384.57143,544.79799 0,1.0625 c 0,1.0773 0.86022,1.9375 1.9375,1.9375 l 44.125,0 c 1.07728,0 1.9375,-0.8602 1.9375,-1.9375 l 0,-1.0625 c 0,1.0773 -0.86022,1.9375 -1.9375,1.9375 l -44.125,0 C 385.43165,546.73549 384.57143,545.87529 384.57143,544.79799 Z"/><path id="path7515" fill="#fff" fill-opacity=".537" stroke="none" d="m 387.10268,500.45429 c -0.91709,0 -1.67115,0.6395 -1.84375,1.5 0.33561,-0.2799 0.77451,-0.4375 1.25,-0.4375 l 44.125,0 c 0.47549,0 0.91439,0.1576 1.25,0.4375 -0.1726,-0.8605 -0.92666,-1.5 -1.84375,-1.5 L 387.10268,500.45429 Z"/><path id="rect4280" fill="#000" fill-opacity=".392" stroke="none" d="m 386.50893,499.79799 c -1.07728,0 -1.9375,0.8602 -1.9375,1.9375 l 0,43.0625 c 0,0.7934 0.48002,1.449 1.15625,1.75 -0.30934,-0.3333 -0.5,-0.7824 -0.5,-1.2812 l 0,-42.9375 c 0,-1.0482 0.8269,-1.875 1.875,-1.875 l 42.9375,0 c 1.0481,0 1.875,0.8268 1.875,1.875 l 0,42.9375 c 0,0.4988 -0.19066,0.9479 -0.5,1.2812 0.67623,-0.301 1.15625,-0.9566 1.15625,-1.75 l 0,-43.0625 c 0,-1.0773 -0.86022,-1.9375 -1.9375,-1.9375 L 386.50893,499.79799 Z"/><polygon id="polygon3294" fill="url(#linearGradient3353)" fill-opacity="1" fill-rule="evenodd" points="22194 115341 44385 76894 133156 76894 110963 115341" class="fil0" clip-rule="evenodd" image-rendering="optimizeQuality" shape-rendering="geometricPrecision" text-rendering="geometricPrecision" transform="matrix(2.6703427e-4,0,0,2.6703427e-4,390.79282,508.398)"/><polygon id="polygon3296" fill="url(#linearGradient3361)" fill-opacity="1" fill-rule="evenodd" points="88772 76894 133156 76894 88772 0 44385 0" class="fil1" clip-rule="evenodd" image-rendering="optimizeQuality" shape-rendering="geometricPrecision" text-rendering="geometricPrecision" transform="matrix(2.6703427e-4,0,0,2.6703427e-4,390.79282,508.398)"/><polygon id="polygon3298" fill="url(#linearGradient3345)" fill-opacity="1" fill-rule="evenodd" points="0 76894 22194 115341 66578 38447 44385 0" class="fil2" clip-rule="evenodd" image-rendering="optimizeQuality" shape-rendering="geometricPrecision" text-rendering="geometricPrecision" transform="matrix(2.6703427e-4,0,0,2.6703427e-4,390.79282,508.398)"/><path id="polygon3363" fill="#000" fill-opacity=".059" fill-rule="evenodd" d="M 18.074219 8.5996094 L 16.154297 11.925781 L 22.082031 22.191406 L 24 18.867188 L 18.074219 8.5996094 z" clip-rule="evenodd" image-rendering="optimizeQuality" shape-rendering="geometricPrecision" text-rendering="geometricPrecision" transform="translate(384.57143,499.798)"/><path id="path4170" fill="#000" fill-opacity=".059" fill-rule="evenodd" d="m 402.64565,528.93042 -5.92578,10.26758 3.81054,0 5.92969,-10.26758 -3.81445,0 z" clip-rule="evenodd" image-rendering="optimizeQuality" shape-rendering="geometricPrecision" text-rendering="geometricPrecision"/><path id="path4175" fill="#000" fill-opacity=".059" fill-rule="evenodd" d="M 39.873047 25.830078 L 28.019531 25.832031 L 29.925781 29.132812 L 41.779297 29.132812 L 39.873047 25.830078 z" clip-rule="evenodd" image-rendering="optimizeQuality" shape-rendering="geometricPrecision" text-rendering="geometricPrecision" transform="translate(384.57143,499.798)"/><path id="path4193" fill="#000" fill-opacity=".314" fill-rule="evenodd" d="m 6.4511719,28.732422 -0.2304688,0.40039 5.9277349,10.267579 23.703124,0 5.927735,-10.267579 -0.230469,-0.40039 -5.697266,9.867187 -23.703124,0 z" clip-rule="evenodd" image-rendering="optimizeQuality" shape-rendering="geometricPrecision" text-rendering="geometricPrecision" transform="translate(384.57143,499.798)"/><path id="path4198" fill="#fff" fill-opacity=".235" fill-rule="evenodd" d="M 18.074219 8.5996094 L 6.2207031 29.132812 L 6.3359375 29.332031 L 18.074219 9 L 29.925781 9 L 41.664062 29.332031 L 41.779297 29.132812 L 29.925781 8.5996094 L 18.074219 8.5996094 z M 18.304688 29.132812 L 18.074219 29.533203 L 29.925781 29.533203 L 29.695312 29.132812 L 18.304688 29.132812 z" clip-rule="evenodd" image-rendering="optimizeQuality" shape-rendering="geometricPrecision" text-rendering="geometricPrecision" transform="translate(384.57143,499.798)"/></g></svg>