<svg xmlns="http://www.w3.org/2000/svg" xmlns:svg="http://www.w3.org/2000/svg" xmlns:xlink="http://www.w3.org/1999/xlink" id="svg3840" width="48" height="48" version="1.1"><defs id="defs3842"><linearGradient id="linearGradient2984"><stop id="stop2986" offset="0" stop-color="#570100" stop-opacity="1"/><stop id="stop2988" offset=".109" stop-color="#c01412" stop-opacity="1"/><stop id="stop2990" offset=".554" stop-color="#cb1613" stop-opacity="1"/><stop id="stop2992" offset="1" stop-color="#c81715" stop-opacity="1"/></linearGradient><linearGradient id="linearGradient2976"><stop id="stop2978" offset="0" stop-color="#764d33" stop-opacity="1"/><stop id="stop2980" offset="1" stop-color="#764d33" stop-opacity="0"/></linearGradient><linearGradient id="linearGradient2950"><stop id="stop2952" offset="0" stop-color="#280a00" stop-opacity="1"/><stop id="stop2954" offset=".21" stop-color="#422514" stop-opacity="1"/><stop id="stop2956" offset=".545" stop-color="#442816" stop-opacity="1"/><stop id="stop2958" offset="1" stop-color="#764d33" stop-opacity="1"/></linearGradient><linearGradient id="linearGradient894"><stop id="stop896" offset="0" stop-color="#291806" stop-opacity="1"/><stop id="stop898" offset="1" stop-color="#674b2d" stop-opacity="1"/></linearGradient><linearGradient id="linearGradient839"><stop id="stop841" offset="0" stop-color="#96570c" stop-opacity="1"/><stop id="stop843" offset="1" stop-color="#e2cd8c" stop-opacity="1"/></linearGradient><linearGradient id="linearGradient859" x1="177.408" x2="177.408" y1="-504.668" y2="-457.069" gradientUnits="userSpaceOnUse" xlink:href="#linearGradient839"/><linearGradient id="linearGradient900" x1="23.688" x2="23.688" y1="39.691" y2="8.932" gradientTransform="matrix(0.99354835,0,0,0.99354835,156.52671,457.08846)" gradientUnits="userSpaceOnUse" xlink:href="#linearGradient894"/><linearGradient id="linearGradient2927" x1="376.633" x2="428.508" y1="-515.248" y2="-515.248" gradientTransform="matrix(0,-1,-1,0,-355.32729,885.69162)" gradientUnits="userSpaceOnUse" xlink:href="#linearGradient2950"/><linearGradient id="linearGradient2974" x1="0" x2="48" y1="32.172" y2="32.172" gradientTransform="translate(153.14285,456.93362)" gradientUnits="userSpaceOnUse" xlink:href="#linearGradient2984"/><linearGradient id="linearGradient2982" x1="0" x2="48" y1="32.172" y2="32.172" gradientTransform="translate(153.14285,456.93362)" gradientUnits="userSpaceOnUse" xlink:href="#linearGradient2976"/><linearGradient id="linearGradient4241" x1="376.633" x2="428.508" y1="-515.248" y2="-515.248" gradientTransform="matrix(0,-1,-1,0,-355.32728,885.69162)" gradientUnits="userSpaceOnUse" xlink:href="#linearGradient2950"/></defs><metadata id="metadata3845"/><g id="layer1" transform="translate(-153.14285,-456.93362)"><rect id="rect2991-1" width="48" height="48" x="153.143" y="-504.934" fill="url(#linearGradient859)" fill-opacity="1" stroke="none" ry="1.945" transform="scale(1,-1)"/><path d="m 180.37188,466.73362 c -3.39889,0 -6.14759,2.74869 -6.14759,6.14758 0,3.39889 2.7487,6.14758 6.14759,6.14758 3.39888,0 6.14758,-2.74869 6.14758,-6.14758 0,-3.39889 -2.7487,-6.14758 -6.14758,-6.14758 z m -5.65081,15.12057 c -2.91915,0 -5.27822,2.35907 -5.27822,5.27821 l 0,3.50848 0,6.89274 21.85804,0 0,-7.94839 0,-2.45283 c 0,-2.91914 -2.35906,-5.27821 -5.27821,-5.27821 l -11.30162,0 z" style="marker:none" id="path4126" fill="#000" fill-opacity=".059" fill-rule="nonzero" stroke="none" stroke-width="1.4" color="#000" display="inline" enable-background="accumulate" overflow="visible" visibility="visible"/><path id="path4124" fill="#000" fill-opacity=".118" fill-rule="nonzero" stroke="none" stroke-width="1.4" d="m 180.37188,466.33362 c -3.39889,0 -6.14759,2.74869 -6.14759,6.14758 0,3.39889 2.7487,6.14758 6.14759,6.14758 3.39888,0 6.14758,-2.74869 6.14758,-6.14758 0,-3.39889 -2.7487,-6.14758 -6.14758,-6.14758 z m -5.65081,15.12057 c -2.91915,0 -5.27822,2.35907 -5.27822,5.27821 l 0,3.50848 0,6.89274 21.85804,0 0,-7.94839 0,-2.45283 c 0,-2.91914 -2.35906,-5.27821 -5.27821,-5.27821 l -11.30162,0 z" color="#000" display="inline" enable-background="accumulate" overflow="visible" visibility="visible" style="marker:none"/><path d="m 180.37188,465.93362 c -3.39889,0 -6.14759,2.74869 -6.14759,6.14758 0,3.39889 2.7487,6.14758 6.14759,6.14758 3.39888,0 6.14758,-2.74869 6.14758,-6.14758 0,-3.39889 -2.7487,-6.14758 -6.14758,-6.14758 z m -5.65081,15.12057 c -2.91915,0 -5.27822,2.35907 -5.27822,5.27821 l 0,3.50848 0,6.89274 21.85804,0 0,-7.94839 0,-2.45283 c 0,-2.91914 -2.35906,-5.27821 -5.27821,-5.27821 l -11.30162,0 z" style="marker:none" id="path4122" fill="#000" fill-opacity=".235" fill-rule="nonzero" stroke="none" stroke-width="1.4" color="#000" display="inline" enable-background="accumulate" overflow="visible" visibility="visible"/><path id="rect5459" fill="url(#linearGradient2927)" fill-opacity="1" stroke="none" d="m 153.14284,502.99642 c 0,0.5386 0.21102,1.0235 0.5625,1.375 0.17486,0.1749 0.39286,0.3088 0.625,0.4062 0.11607,0.049 0.21713,0.099 0.34375,0.125 0.13558,0.03 0.26149,0.031 0.40625,0.031 l 5.0625,0 0,-48 -5.0625,0 c -0.26932,0 -0.5172,0.058 -0.75,0.1563 -0.6984,0.2944 -1.1875,0.9732 -1.1875,1.7812 L 153.14284,502.99642 Z"/><path id="path2960" fill="url(#linearGradient4241)" fill-opacity="1" stroke="none" d="m 153.14285,502.99642 c 0,0.5386 0.21102,1.0235 0.5625,1.375 0.17486,0.1749 0.39286,0.3088 0.625,0.4062 0.11607,0.049 0.21713,0.099 0.34375,0.125 0.13558,0.03 0.26149,0.031 0.40625,0.031 l 5.0625,0 0,-48 -5.0625,0 c -0.26932,0 -0.5172,0.058 -0.75,0.1563 -0.6984,0.2944 -1.1875,0.9732 -1.1875,1.7812 l 0,44.1253 z" opacity=".727"/><path id="rect900" fill="url(#linearGradient900)" fill-opacity="1" fill-rule="nonzero" stroke="none" stroke-width="1.4" d="m 180.37188,465.53362 c -3.39889,0 -6.14759,2.74869 -6.14759,6.14758 0,3.39889 2.7487,6.14758 6.14759,6.14758 3.39888,0 6.14758,-2.74869 6.14758,-6.14758 0,-3.39889 -2.7487,-6.14758 -6.14758,-6.14758 z m -5.65081,15.12057 c -2.91915,0 -5.27822,2.35907 -5.27822,5.27821 l 0,3.50848 0,6.89274 21.85804,0 0,-7.94839 0,-2.45283 c 0,-2.91914 -2.35906,-5.27821 -5.27821,-5.27821 l -11.30162,0 z" color="#000" display="inline" enable-background="accumulate" overflow="visible" visibility="visible" style="marker:none"/><path id="path4134" fill="#000" fill-opacity=".235" stroke="none" d="m 153.14285,487.64587 0,3.71875 48,0 0,-3.71875 -48,0 z"/><path id="rect2962" fill="url(#linearGradient2982)" fill-opacity="1" stroke="none" d="m 153.14285,487.24612 0,3.71875 48,0 0,-3.71875 -48,0 z"/><path id="rect2964" fill="url(#linearGradient2974)" fill-opacity="1" stroke="none" d="m 153.14285,487.24612 0,3.71875 48,0 0,-3.71875 -48,0 z"/><path id="rect2994" fill="#000" fill-opacity=".301" stroke="none" d="m 153.14285,487.24612 0,0.53125 48,0 0,-0.53125 -48,0 z"/><path id="path2999" fill="#000" fill-opacity=".301" stroke="none" d="m 153.14285,490.43362 0,0.53125 48,0 0,-0.53125 -48,0 z"/><path id="path3001" fill="#000" fill-opacity=".301" stroke="none" d="m 153.14285,489.37112 0,0.53125 48,0 0,-0.53125 -48,0 z"/><path id="path3003" fill="#000" fill-opacity=".301" stroke="none" d="m 153.14285,488.30862 0,0.53125 48,0 0,-0.53125 -48,0 z"/><path id="rect846" fill="#000" fill-opacity="1" stroke="none" d="m 153.14285,501.93362 0,1.0625 c 0,1.0773 0.86022,1.9375 1.9375,1.9375 l 44.125,0 c 1.07728,0 1.93751,-0.8602 1.93751,-1.9375 l 0,-1.0625 c 0,1.0773 -0.86023,1.9375 -1.93751,1.9375 l -44.125,0 C 154.00307,503.87112 153.14285,503.01092 153.14285,501.93362 Z"/><path id="path7515" fill="#fff" fill-opacity=".537" stroke="none" d="m 155.6741,457.58992 c -0.91709,0 -1.67115,0.6395 -1.84375,1.5 0.33561,-0.2799 0.77451,-0.4375 1.25,-0.4375 l 44.125,0 c 0.47549,0 0.91439,0.1576 1.25001,0.4375 -0.17261,-0.8605 -0.92667,-1.5 -1.84376,-1.5 L 155.6741,457.58992 Z"/><path id="rect4280-0" fill="#000" fill-opacity=".392" stroke="none" d="m 155.08035,456.93362 c -1.07728,0 -1.9375,0.8602 -1.9375,1.9375 l 0,43.0625 c 0,0.7934 0.48002,1.449 1.15625,1.75 -0.30934,-0.3333 -0.5,-0.7824 -0.5,-1.2812 l 0,-42.9375 c 0,-1.0482 0.8269,-1.875 1.875,-1.875 l 42.9375,0 c 1.0481,0 1.87501,0.8268 1.87501,1.875 l 0,42.9375 c 0,0.4988 -0.19067,0.9479 -0.50001,1.2812 0.67623,-0.301 1.15626,-0.9566 1.15626,-1.75 l 0,-43.0625 c 0,-1.0773 -0.86023,-1.9375 -1.93751,-1.9375 L 155.08035,456.93362 Z"/></g></svg>