<svg xmlns="http://www.w3.org/2000/svg" xmlns:svg="http://www.w3.org/2000/svg" xmlns:xlink="http://www.w3.org/1999/xlink" id="svg8513" width="48" height="48" version="1.1"><defs id="defs8515"><linearGradient id="linearGradient1804"><stop id="stop1806" offset="0" stop-color="#000" stop-opacity="1"/><stop id="stop1808" offset="1" stop-color="#000" stop-opacity="0"/></linearGradient><linearGradient id="linearGradient1702"><stop id="stop1704" offset="0" stop-color="#000" stop-opacity=".504"/><stop id="stop1706" offset="1" stop-color="#000" stop-opacity="0"/></linearGradient><linearGradient id="linearGradient1683"><stop id="stop1685" offset="0" stop-color="#3f3f3f" stop-opacity="1"/><stop id="stop1687" offset="1" stop-color="#2b2c2d" stop-opacity="1"/></linearGradient><linearGradient id="linearGradient1603"><stop id="stop1605" offset="0" stop-color="#000" stop-opacity="1"/><stop id="stop1607" offset="1" stop-color="#000" stop-opacity="0"/></linearGradient><linearGradient id="linearGradient1590"><stop id="stop1592" offset="0" stop-color="#fff" stop-opacity="1"/><stop id="stop1594" offset="1" stop-color="#fff" stop-opacity="0"/></linearGradient><linearGradient id="linearGradient1555"><stop id="stop1557" offset="0" stop-color="#dcdcdc" stop-opacity="1"/><stop id="stop1559" offset="1" stop-color="#fff" stop-opacity="1"/></linearGradient><linearGradient id="linearGradient1542"><stop id="stop1544" offset="0" stop-color="#353535" stop-opacity="1"/><stop id="stop1546" offset="1" stop-color="#353535" stop-opacity="0"/></linearGradient><linearGradient id="linearGradient1534"><stop id="stop1536" offset="0" stop-color="#fff" stop-opacity="1"/><stop id="stop1538" offset="1" stop-color="#fff" stop-opacity="0"/></linearGradient><linearGradient id="linearGradient1516"><stop id="stop1518" offset="0" stop-color="#1a1a1a" stop-opacity="1"/><stop id="stop1520" offset="1" stop-color="#1a1a1a" stop-opacity="0"/></linearGradient><linearGradient id="linearGradient1456"><stop id="stop1458" offset="0" stop-color="#3f3f3f" stop-opacity="1"/><stop id="stop1708" offset=".4" stop-color="#646566" stop-opacity="1"/><stop id="stop1460" offset="1" stop-color="#b2b3b4" stop-opacity="1"/></linearGradient><linearGradient id="linearGradient1462" x1="525.723" x2="525.723" y1="-546.39" y2="-498.382" gradientUnits="userSpaceOnUse" xlink:href="#linearGradient1456"/><linearGradient id="linearGradient1522" x1="42.117" x2="42.117" y1="24.268" y2="27.847" gradientUnits="userSpaceOnUse" xlink:href="#linearGradient1516"/><linearGradient id="linearGradient1526" x1="42.117" x2="42.117" y1="24.268" y2="27.847" gradientUnits="userSpaceOnUse" xlink:href="#linearGradient1516"/><radialGradient id="radialGradient1540" cx="42.161" cy="26.168" r="1.856" fx="42.161" fy="26.168" gradientUnits="userSpaceOnUse" xlink:href="#linearGradient1534"/><linearGradient id="linearGradient1548" x1="24.75" x2="24.75" y1="20.688" y2=".125" gradientUnits="userSpaceOnUse" xlink:href="#linearGradient1542"/><linearGradient id="linearGradient1567" x1="24.218" x2="24.218" y1="2.745" y2="20.6" gradientTransform="matrix(0.98746951,0,0,0.98343351,0.30069,0.19337)" gradientUnits="userSpaceOnUse" xlink:href="#linearGradient1555"/><linearGradient id="linearGradient1577" x1="527.599" x2="527.599" y1="519.324" y2="517.146" gradientTransform="matrix(1.0121384,0,0,1,-509.20114,-498.23653)" gradientUnits="userSpaceOnUse" xlink:href="#linearGradient1516"/><radialGradient id="radialGradient1596" cx="24" cy="20.734" r="16.719" fx="24" fy="20.734" gradientTransform="matrix(1,0,0,0.1317757,0,18.002088)" gradientUnits="userSpaceOnUse" xlink:href="#linearGradient1590"/><linearGradient id="linearGradient1609" x1="25.25" x2="25.25" y1="22.25" y2=".313" gradientTransform="translate(502.80655,500.10515)" gradientUnits="userSpaceOnUse" xlink:href="#linearGradient1603"/><linearGradient id="linearGradient1645" x1="528.439" x2="528.439" y1="535.073" y2="542.21" gradientTransform="translate(-502.80655,-498.3864)" gradientUnits="userSpaceOnUse" xlink:href="#linearGradient1603"/><linearGradient id="linearGradient1681" x1="24.188" x2="24.188" y1="41.5" y2="36.5" gradientUnits="userSpaceOnUse" xlink:href="#linearGradient1683"/><linearGradient id="linearGradient1697" x1="532.682" x2="532.682" y1="546.591" y2="529.136" gradientTransform="translate(-502.80655,-498.3864)" gradientUnits="userSpaceOnUse" xlink:href="#linearGradient1702"/><linearGradient id="linearGradient1810" x1="528.174" x2="528.174" y1="539.757" y2="543.956" gradientUnits="userSpaceOnUse" xlink:href="#linearGradient1804"/><linearGradient id="linearGradient2121" x1="530.914" x2="530.914" y1="530.3" y2="501.839" gradientTransform="matrix(1.0714288,0,0,1.083275,-37.629164,-45.30674)" gradientUnits="userSpaceOnUse" xlink:href="#linearGradient1804"/><linearGradient id="linearGradient2143" x1="527.599" x2="527.599" y1="518.352" y2="501.059" gradientTransform="matrix(1.0121384,0,0,-0.22013204,-6.3945936,653.38006)" gradientUnits="userSpaceOnUse" xlink:href="#linearGradient1555"/><linearGradient id="linearGradient2169" x1="540.15" x2="533.682" y1="500.98" y2="507.449" gradientUnits="userSpaceOnUse" xlink:href="#linearGradient1555"/><linearGradient id="linearGradient2187" x1="537.275" x2="537.275" y1="508.605" y2="501.105" gradientTransform="matrix(1.0314603,0,0,1.0314603,-16.997692,-15.768339)" gradientUnits="userSpaceOnUse" xlink:href="#linearGradient1603"/></defs><metadata id="metadata8518"/><g id="layer1" transform="translate(-502.80655,-498.3864)"><rect id="rect2991-1-7" width="48" height="48" x="502.807" y="-546.386" fill="url(#linearGradient1462)" fill-opacity="1" stroke="none" ry="1.945" transform="scale(1,-1)"/><rect id="rect2113" width="48" height="30.895" x="502.807" y="498.386" fill="url(#linearGradient2121)" fill-opacity="1" stroke="none" opacity=".66" ry="1.931"/><path id="rect1689" fill="url(#linearGradient1697)" fill-opacity="1" stroke="none" d="M 0 30.65625 L 0 46.0625 C 0 47.139777 0.86022285 48 1.9375 48 L 46.0625 48 C 47.139777 48 48 47.139777 48 46.0625 L 48 30.65625 L 0 30.65625 z" transform="translate(502.80655,498.3864)"/><path id="path1730" fill="#fff" fill-opacity=".196" stroke="none" d="m 512.68155,544.6364 0,1.46875 28.25,0 0,-1.46875 L 512.68155,544.6364 Z"/><g id="g2050" transform="translate(-1.031249,0)"><g id="g1772" transform="translate(18.261162,0)"><path id="path1774" fill="#717171" fill-opacity=".897" stroke="none" d="m 14.28125,46.25 -0.28125,0 0,1.46875 0.28125,0 L 14.28125,46.25 Z" transform="translate(502.80655,498.3864)"/><path id="path1776" fill="#383838" fill-opacity=".897" stroke="none" d="m 14,41.4375 0,4.8125 0.28125,0 0,-4.8125 L 14,41.4375 Z" transform="translate(502.80655,498.3864)"/><path id="path1778" fill="#222" fill-opacity="1" stroke="none" d="m 14.5625,46.25 -0.28125,0 0,1.46875 0.28125,0 L 14.5625,46.25 Z" transform="translate(502.80655,498.3864)"/><path id="path1780" fill="#1a1a1a" fill-opacity="1" stroke="none" d="m 14.28125,41.4375 0,4.8125 0.28125,0 0,-4.8125 L 14.28125,41.4375 Z" transform="translate(502.80655,498.3864)"/></g><g id="g1746" transform="translate(0.234373,0)"><path id="path1744" fill="#717171" fill-opacity=".897" stroke="none" d="m 14.28125,46.25 -0.28125,0 0,1.46875 0.28125,0 L 14.28125,46.25 Z" transform="translate(502.80655,498.3864)"/><path id="path1710" fill="#383838" fill-opacity=".897" stroke="none" d="m 14,41.4375 0,4.8125 0.28125,0 0,-4.8125 L 14,41.4375 Z" transform="translate(502.80655,498.3864)"/><path id="path1739" fill="#222" fill-opacity="1" stroke="none" d="m 14.5625,46.25 -0.28125,0 0,1.46875 0.28125,0 L 14.5625,46.25 Z" transform="translate(502.80655,498.3864)"/><path id="path1712" fill="#1a1a1a" fill-opacity="1" stroke="none" d="m 14.28125,41.4375 0,4.8125 0.28125,0 0,-4.8125 L 14.28125,41.4375 Z" transform="translate(502.80655,498.3864)"/></g><g id="g1752" transform="translate(6.2433033,0)"><path id="path1754" fill="#717171" fill-opacity=".897" stroke="none" d="m 14.28125,46.25 -0.28125,0 0,1.46875 0.28125,0 L 14.28125,46.25 Z" transform="translate(502.80655,498.3864)"/><path id="path1756" fill="#383838" fill-opacity=".897" stroke="none" d="m 14,41.4375 0,4.8125 0.28125,0 0,-4.8125 L 14,41.4375 Z" transform="translate(502.80655,498.3864)"/><path id="path1758" fill="#222" fill-opacity="1" stroke="none" d="m 14.5625,46.25 -0.28125,0 0,1.46875 0.28125,0 L 14.5625,46.25 Z" transform="translate(502.80655,498.3864)"/><path id="path1760" fill="#1a1a1a" fill-opacity="1" stroke="none" d="m 14.28125,41.4375 0,4.8125 0.28125,0 0,-4.8125 L 14.28125,41.4375 Z" transform="translate(502.80655,498.3864)"/></g><g id="g1762" transform="translate(12.252234,0)"><path id="path1764" fill="#717171" fill-opacity=".897" stroke="none" d="m 14.28125,46.25 -0.28125,0 0,1.46875 0.28125,0 L 14.28125,46.25 Z" transform="translate(502.80655,498.3864)"/><path id="path1766" fill="#383838" fill-opacity=".897" stroke="none" d="m 14,41.4375 0,4.8125 0.28125,0 0,-4.8125 L 14,41.4375 Z" transform="translate(502.80655,498.3864)"/><path id="path1768" fill="#222" fill-opacity="1" stroke="none" d="m 14.5625,46.25 -0.28125,0 0,1.46875 0.28125,0 L 14.5625,46.25 Z" transform="translate(502.80655,498.3864)"/><path id="path1770" fill="#1a1a1a" fill-opacity="1" stroke="none" d="m 14.28125,41.4375 0,4.8125 0.28125,0 0,-4.8125 L 14.28125,41.4375 Z" transform="translate(502.80655,498.3864)"/></g><g id="g1814" transform="translate(3.2388382,0)"><path id="path1816" fill="#717171" fill-opacity=".897" stroke="none" d="m 14.28125,46.25 -0.28125,0 0,1.46875 0.28125,0 L 14.28125,46.25 Z" transform="translate(502.80655,498.3864)"/><path id="path1818" fill="#383838" fill-opacity=".897" stroke="none" d="m 14,41.4375 0,4.8125 0.28125,0 0,-4.8125 L 14,41.4375 Z" transform="translate(502.80655,498.3864)"/><path id="path1820" fill="#222" fill-opacity="1" stroke="none" d="m 14.5625,46.25 -0.28125,0 0,1.46875 0.28125,0 L 14.5625,46.25 Z" transform="translate(502.80655,498.3864)"/><path id="path1822" fill="#1a1a1a" fill-opacity="1" stroke="none" d="m 14.28125,41.4375 0,4.8125 0.28125,0 0,-4.8125 L 14.28125,41.4375 Z" transform="translate(502.80655,498.3864)"/></g><g id="g1824" transform="translate(9.2477684,0)"><path id="path1826" fill="#717171" fill-opacity=".897" stroke="none" d="m 14.28125,46.25 -0.28125,0 0,1.46875 0.28125,0 L 14.28125,46.25 Z" transform="translate(502.80655,498.3864)"/><path id="path1828" fill="#383838" fill-opacity=".897" stroke="none" d="m 14,41.4375 0,4.8125 0.28125,0 0,-4.8125 L 14,41.4375 Z" transform="translate(502.80655,498.3864)"/><path id="path1830" fill="#222" fill-opacity="1" stroke="none" d="m 14.5625,46.25 -0.28125,0 0,1.46875 0.28125,0 L 14.5625,46.25 Z" transform="translate(502.80655,498.3864)"/><path id="path1832" fill="#1a1a1a" fill-opacity="1" stroke="none" d="m 14.28125,41.4375 0,4.8125 0.28125,0 0,-4.8125 L 14.28125,41.4375 Z" transform="translate(502.80655,498.3864)"/></g><g id="g1834" transform="translate(15.256699,0)"><path id="path1836" fill="#717171" fill-opacity=".897" stroke="none" d="m 14.28125,46.25 -0.28125,0 0,1.46875 0.28125,0 L 14.28125,46.25 Z" transform="translate(502.80655,498.3864)"/><path id="path1838" fill="#383838" fill-opacity=".897" stroke="none" d="m 14,41.4375 0,4.8125 0.28125,0 0,-4.8125 L 14,41.4375 Z" transform="translate(502.80655,498.3864)"/><path id="path1840" fill="#222" fill-opacity="1" stroke="none" d="m 14.5625,46.25 -0.28125,0 0,1.46875 0.28125,0 L 14.5625,46.25 Z" transform="translate(502.80655,498.3864)"/><path id="path1842" fill="#1a1a1a" fill-opacity="1" stroke="none" d="m 14.28125,41.4375 0,4.8125 0.28125,0 0,-4.8125 L 14.28125,41.4375 Z" transform="translate(502.80655,498.3864)"/></g><g id="g1844" transform="translate(21.265625,0)"><path id="path1846" fill="#717171" fill-opacity=".897" stroke="none" d="m 14.28125,46.25 -0.28125,0 0,1.46875 0.28125,0 L 14.28125,46.25 Z" transform="translate(502.80655,498.3864)"/><path id="path1848" fill="#383838" fill-opacity=".897" stroke="none" d="m 14,41.4375 0,4.8125 0.28125,0 0,-4.8125 L 14,41.4375 Z" transform="translate(502.80655,498.3864)"/><path id="path1850" fill="#222" fill-opacity="1" stroke="none" d="m 14.5625,46.25 -0.28125,0 0,1.46875 0.28125,0 L 14.5625,46.25 Z" transform="translate(502.80655,498.3864)"/><path id="path1852" fill="#1a1a1a" fill-opacity="1" stroke="none" d="m 14.28125,41.4375 0,4.8125 0.28125,0 0,-4.8125 L 14.28125,41.4375 Z" transform="translate(502.80655,498.3864)"/></g></g><path id="path2141" fill="url(#linearGradient2143)" fill-opacity="1" stroke="none" d="m 513.12651,543.05839 0,-3.91703 27.36008,0 0,3.91703 L 513.12651,543.05839 Z"/><path id="rect1598" fill="url(#linearGradient1609)" fill-opacity="1" stroke="none" d="m 508.43155,500.10515 0,19.125 c 0,1.73632 1.38868,3.125 3.125,3.125 l 30.5,0 c 1.73632,0 3.125,-1.38868 3.125,-3.125 l 0,-19.125 L 508.43155,500.10515 Z"/><path id="rect1496" fill="url(#linearGradient1548)" fill-opacity="1" stroke="none" d="M 7.28125 0 L 7.28125 0.0625 L 7.28125 16.53125 L 7.28125 18.5625 C 7.28125 19.75027 8.21848 20.71875 9.40625 20.71875 L 38.59375 20.71875 C 39.78152 20.71875 40.71875 19.75027 40.71875 18.5625 L 40.71875 16.53125 L 40.71875 0.0625 L 40.71875 0 L 7.28125 0 z" transform="translate(502.80655,498.3864)"/><path id="path2161" fill="#fff" fill-opacity="1" stroke="none" d="M 30.3125 2.625 L 10.3125 2.625 L 10.3125 20.71875 L 37.6875 20.71875 L 37.6875 10 L 30.3125 2.625 z" opacity="1" transform="translate(502.80655,498.3864)"/><path id="rect1486" fill="#000" fill-opacity=".392" stroke="none" d="M 0.65625 28.15625 L 0.65625 28.34375 L 47.34375 28.34375 L 47.34375 28.15625 L 0.65625 28.15625 z" transform="translate(502.80655,498.3864)"/><path id="rect1488" fill="#fff" fill-opacity=".141" stroke="none" d="M 0.65625 28.34375 L 0.65625 28.53125 L 47.34375 28.53125 L 47.34375 28.34375 L 0.65625 28.34375 z" transform="translate(502.80655,498.3864)"/><path id="path1504" fill="#fff" fill-opacity=".155" stroke="none" d="m 510.0878,516.93327 0,0.75 c 0,1.18777 0.93723,2.15625 2.125,2.15625 l 29.1875,0 c 1.18777,0 2.125,-0.96848 2.125,-2.15625 l 0,-0.75 c 0,1.18777 -0.93723,2.15625 -2.125,2.15625 l -29.1875,0 C 511.02503,519.08952 510.0878,518.12104 510.0878,516.93327 Z"/><g id="g1616" transform="translate(2,8.441942)"><path id="path1514" fill="url(#linearGradient1522)" fill-opacity="1" stroke="none" d="m 44.017399,26.168077 c 0,1.025127 -0.831029,1.856156 -1.856156,1.856156 -1.025126,0 -1.856155,-0.831029 -1.856155,-1.856156 0,-1.025126 0.831029,-1.856155 1.856155,-1.856155 C 43.18637,24.311922 44.017399,25.142951 44.017399,26.168077 Z" opacity=".8" transform="translate(502.80655,498.3864)"/><path id="path1524" fill="url(#linearGradient1526)" fill-opacity="1" stroke="none" d="m 44.017399,26.168077 c 0,1.025127 -0.831029,1.856156 -1.856156,1.856156 -1.025126,0 -1.856155,-0.831029 -1.856155,-1.856156 0,-1.025126 0.831029,-1.856155 1.856155,-1.856155 C 43.18637,24.311922 44.017399,25.142951 44.017399,26.168077 Z" transform="matrix(0.8232233,0,0,-0.8232233,510.25968,546.09665)"/><path id="path1528" fill="#ffdb21" fill-opacity="1" stroke="none" d="m 44.017399,26.168077 c 0,1.025127 -0.831029,1.856156 -1.856156,1.856156 -1.025126,0 -1.856155,-0.831029 -1.856155,-1.856156 0,-1.025126 0.831029,-1.856155 1.856155,-1.856155 C 43.18637,24.311922 44.017399,25.142951 44.017399,26.168077 Z" transform="matrix(0.70537217,0,0,-0.70537217,515.22843,543.01271)"/><path id="path1532" fill="url(#radialGradient1540)" fill-opacity="1" stroke="none" d="m 44.017399,26.168077 c 0,1.025127 -0.831029,1.856156 -1.856156,1.856156 -1.025126,0 -1.856155,-0.831029 -1.856155,-1.856156 0,-1.025126 0.831029,-1.856155 1.856155,-1.856155 C 43.18637,24.311922 44.017399,25.142951 44.017399,26.168077 Z" opacity=".66" transform="matrix(0.70537217,0,0,-0.70537217,515.22843,543.01271)"/></g><path id="path2158" fill="url(#linearGradient1567)" fill-opacity="1" stroke="none" d="m 30.068875,2.78125 -19.600125,0 0,17.78125 27.0625,0 L 37.53125,10.243875 Z" transform="translate(502.80655,498.3864)"/><path id="path2153" fill="url(#linearGradient1577)" fill-opacity="1" stroke="none" d="m 30.225125,2.9375 -19.912625,0 0,17.78125 27.375,0 L 37.6875,10.400125 Z" transform="translate(502.80655,498.3864)"/><path id="path1579" fill="#fff" fill-opacity=".079" stroke="none" d="m 510.0878,517.68327 0,0.75 c 0,1.18777 0.93723,2.15625 2.125,2.15625 l 29.1875,0 c 1.18777,0 2.125,-0.96848 2.125,-2.15625 l 0,-0.75 c 0,1.18777 -0.93723,2.15625 -2.125,2.15625 l -29.1875,0 C 511.02503,519.83952 510.0878,518.87104 510.0878,517.68327 Z"/><path id="path1581" fill="#fff" fill-opacity=".039" stroke="none" d="m 510.0878,518.43327 0,0.75 c 0,1.18777 0.93723,2.15625 2.125,2.15625 l 29.1875,0 c 1.18777,0 2.125,-0.96848 2.125,-2.15625 l 0,-0.75 c 0,1.18777 -0.93723,2.15625 -2.125,2.15625 l -29.1875,0 C 511.02503,520.58952 510.0878,519.62104 510.0878,518.43327 Z"/><path id="path1583" fill="url(#radialGradient1596)" fill-opacity="1" stroke="none" d="M 7.28125 18.53125 L 7.28125 19.28125 L 7.28125 20.03125 L 7.28125 20.78125 C 7.28125 21.96902 8.21848 22.9375 9.40625 22.9375 L 38.59375 22.9375 C 39.78152 22.9375 40.71875 21.96902 40.71875 20.78125 L 40.71875 20.03125 L 40.71875 19.28125 L 40.71875 18.53125 C 40.71875 19.71902 39.78152 20.6875 38.59375 20.6875 L 9.40625 20.6875 C 8.21848 20.6875 7.28125 19.71902 7.28125 18.53125 z" opacity=".44" transform="translate(502.80655,498.3864)"/><path id="rect1632" fill="url(#linearGradient1645)" fill-opacity="1" stroke="none" d="M 11.5625 36.625 C 10.619882 36.625 9.875 37.369882 9.875 38.3125 L 9.875 48 L 38.125 48 L 38.125 38.3125 C 38.125 37.369882 37.380118 36.625 36.4375 36.625 L 11.5625 36.625 z" transform="translate(502.80655,498.3864)"/><path id="rect1634" fill="#fff" fill-opacity=".118" stroke="none" d="m 514.36905,534.6989 c -0.94262,0 -1.6875,0.74488 -1.6875,1.6875 l 0,0.3125 c 0,-0.94262 0.74488,-1.6875 1.6875,-1.6875 l 24.875,0 c 0.94262,0 1.6875,0.74488 1.6875,1.6875 l 0,-0.3125 c 0,-0.94262 -0.74488,-1.6875 -1.6875,-1.6875 L 514.36905,534.6989 Z"/><path id="rect1650" fill="url(#linearGradient1681)" fill-opacity="1" stroke="none" d="M 11.5625 36.625 C 10.619882 36.625 9.875 37.369882 9.875 38.3125 L 9.875 41.4375 L 38.125 41.4375 L 38.125 38.3125 C 38.125 37.369882 37.380118 36.625 36.4375 36.625 L 11.5625 36.625 z" transform="translate(502.80655,498.3864)"/><path id="path1660" fill="#666" fill-opacity=".694" stroke="none" d="M 9.875 39.71875 L 9.875 39.8125 L 38.125 39.8125 L 38.125 39.71875 L 9.875 39.71875 z" transform="translate(502.80655,498.3864)"/><path id="path1662" fill="#090909" fill-opacity=".332" stroke="none" d="M 9.875 39.625 L 9.875 39.71875 L 38.125 39.71875 L 38.125 39.625 L 9.875 39.625 z" transform="translate(502.80655,498.3864)"/><path id="path1655" fill="#1a1a1a" fill-opacity=".703" stroke="none" d="M 11.5625 36.625 C 10.619882 36.625 9.875 37.369882 9.875 38.3125 L 9.875 41.4375 L 9.9375 41.4375 L 9.9375 38.46875 C 9.9375 37.52613 10.68655 36.78125 11.625 36.78125 L 36.375 36.78125 C 37.31345 36.78125 38.0625 37.52613 38.0625 38.46875 L 38.0625 41.4375 L 38.125 41.4375 L 38.125 38.3125 C 38.125 37.369882 37.380118 36.625 36.4375 36.625 L 11.5625 36.625 z" transform="translate(502.80655,498.3864)"/><path id="rect1670" fill="url(#linearGradient1810)" fill-opacity="1" stroke="none" d="m 512.68155,539.8239 0,6.28125 28.25,0 0,-6.28125 L 512.68155,539.8239 Z"/><path id="rect846" fill="#000" fill-opacity="1" stroke="none" d="m 502.80655,543.38641 0,1.0625 c 0,1.0773 0.86022,1.9375 1.9375,1.9375 l 44.125,0 c 1.07728,0 1.9375,-0.8602 1.9375,-1.9375 l 0,-1.0625 c 0,1.0773 -0.86022,1.9375 -1.9375,1.9375 l -44.125,0 C 503.66677,545.32391 502.80655,544.46371 502.80655,543.38641 Z"/><path id="rect4280" fill="#000" fill-opacity=".392" stroke="none" d="m 504.74405,498.38641 c -1.07728,0 -1.9375,0.8602 -1.9375,1.9375 l 0,43.0625 c 0,0.7934 0.48002,1.449 1.15625,1.75 -0.30934,-0.3333 -0.5,-0.7824 -0.5,-1.2812 l 0,-42.9375 c 0,-1.0482 0.8269,-1.875 1.875,-1.875 l 42.9375,0 c 1.0481,0 1.875,0.8268 1.875,1.875 l 0,42.9375 c 0,0.4988 -0.19066,0.9479 -0.5,1.2812 0.67623,-0.301 1.15625,-0.9566 1.15625,-1.75 l 0,-43.0625 c 0,-1.0773 -0.86022,-1.9375 -1.9375,-1.9375 L 504.74405,498.38641 Z"/><path id="path7515" fill="#fff" fill-opacity=".537" stroke="none" d="m 505.3378,499.04271 c -0.91709,0 -1.67115,0.6395 -1.84375,1.5 0.33561,-0.2799 0.77451,-0.4375 1.25,-0.4375 l 44.125,0 c 0.47549,0 0.91439,0.1576 1.25,0.4375 -0.1726,-0.8605 -0.92666,-1.5 -1.84375,-1.5 L 505.3378,499.04271 Z"/><path id="path2108" fill="#fff" fill-opacity=".19" stroke="none" d="m 508.43155,519.22801 0,0.4375 c 0,1.73632 1.38868,3.125 3.125,3.125 l 30.5,0 c 1.73632,0 3.125,-1.38868 3.125,-3.125 l 0,-0.4375 c 0,1.73632 -1.38868,3.125 -3.125,3.125 l -30.5,0 C 509.82023,522.35301 508.43155,520.96433 508.43155,519.22801 Z"/><path id="rect2129" fill="#fff" fill-opacity=".196" stroke="none" d="m 502.80655,527.34734 0,0.28125 c 0,1.06974 0.86776,1.9375 1.9375,1.9375 l 44.125,0 c 1.06974,0 1.9375,-0.86776 1.9375,-1.9375 l 0,-0.28125 c 0,1.06974 -0.86776,1.9375 -1.9375,1.9375 l -44.125,0 C 503.67431,529.28484 502.80655,528.41708 502.80655,527.34734 Z" opacity="1"/><path id="path2171" fill="url(#linearGradient2187)" fill-opacity="1" stroke="none" d="m 540.29092,508.82154 -7.60702,-7.60702 0,7.60702 L 540.29092,508.82154 Z" opacity=".08"/><path id="rect1550" fill="url(#linearGradient2169)" fill-opacity="1" stroke="none" d="m 540.49405,508.3864 -7.375,-7.375 0,7.375 L 540.49405,508.3864 Z"/></g></svg>