<svg xmlns="http://www.w3.org/2000/svg" xmlns:svg="http://www.w3.org/2000/svg" xmlns:xlink="http://www.w3.org/1999/xlink" id="svg1604" width="48" height="48" version="1.1"><defs id="defs1606"><linearGradient id="linearGradient967"><stop id="stop969" offset="0" stop-color="#2caad6" stop-opacity="1"/><stop id="stop971" offset="1" stop-color="#2ca9d5" stop-opacity="1"/></linearGradient><linearGradient id="linearGradient863"><stop id="stop865" offset="0" stop-color="#454544" stop-opacity="1"/><stop id="stop867" offset="1" stop-color="#646465" stop-opacity="1"/></linearGradient><linearGradient id="linearGradient845"><stop id="stop847" offset="0" stop-color="#43657f" stop-opacity="1"/><stop id="stop853" offset=".225" stop-color="#b7b4a4" stop-opacity="1"/><stop id="stop857" offset=".488" stop-color="#c7c6b9" stop-opacity="1"/><stop id="stop855" offset=".898" stop-color="#7d847e" stop-opacity="1"/><stop id="stop849" offset="1" stop-color="#36526d" stop-opacity="1"/></linearGradient><linearGradient id="linearGradient851" x1="2311.529" x2="2311.529" y1="-973.136" y2="-913.618" gradientUnits="userSpaceOnUse" xlink:href="#linearGradient845"/><linearGradient id="linearGradient4163" x1="9" x2="9" y1="33.988" y2="14.101" gradientTransform="translate(0,1)" gradientUnits="userSpaceOnUse" xlink:href="#linearGradient967"/><linearGradient id="linearGradient4175" x1="2303.143" x2="2303.143" y1="964.791" y2="922.666" gradientTransform="translate(0,0.99999144)" gradientUnits="userSpaceOnUse" xlink:href="#linearGradient863"/></defs><metadata id="metadata1609"/><g id="layer1" transform="translate(-2273.1428,-919.79076)"><rect id="rect2991-1" width="48" height="48" x="2273.143" y="-967.791" fill="url(#linearGradient851)" fill-opacity="1" stroke="none" ry="1.945" transform="scale(1,-1)"/><path id="path4217" fill="#000" fill-opacity=".235" stroke="none" d="m 2281.3095,933.23521 7.9166,-8.44444 7.9167,0 7.9167,0 7.9166,8.44444 0,23.22223 -7.9166,6.33333 -7.9167,0 -7.9167,0 -7.9166,-6.33333 z"/><path id="rect4114" fill="url(#linearGradient4175)" fill-opacity="1" stroke="none" d="m 2282.1428,933.79077 7.5,-8 7.5,0 7.5,0 7.5,8 0,22 -7.5,6 -7.5,0 -7.5,0 -7.5,-6 z"/><path id="rect846" fill="#000" fill-opacity="1" stroke="none" d="m 2273.1428,964.79078 0,1.0625 c 0,1.0773 0.8602,1.9375 1.9375,1.9375 l 44.125,0 c 1.0773,0 1.9375,-0.8602 1.9375,-1.9375 l 0,-1.0625 c 0,1.0773 -0.8602,1.9375 -1.9375,1.9375 l -44.125,0 C 2274.003,966.72828 2273.1428,965.86808 2273.1428,964.79078 Z"/><path id="path7515" fill="#fff" fill-opacity=".537" stroke="none" d="m 2275.674,920.44708 c -0.917,0 -1.6711,0.6395 -1.8437,1.5 0.3356,-0.2799 0.7745,-0.4375 1.25,-0.4375 l 44.125,0 c 0.4755,0 0.9144,0.1576 1.25,0.4375 -0.1726,-0.8605 -0.9267,-1.5 -1.8437,-1.5 L 2275.674,920.44708 Z"/><path id="rect4177" fill="#fff" fill-opacity=".118" stroke="none" d="M 16.5 6 L 15.5 7.0664062 L 15.5 41.199219 L 16.5 42 L 16.5 6 z M 17.5 6 L 17.5 42 L 18.5 42 L 18.5 6 L 17.5 6 z M 19.5 6 L 19.5 42 L 20.5 42 L 20.5 6 L 19.5 6 z M 21.5 6 L 21.5 42 L 22.5 42 L 22.5 6 L 21.5 6 z M 23.5 6 L 23.5 42 L 24 42 L 24.5 42 L 24.5 6 L 24 6 L 23.5 6 z M 25.5 6 L 25.5 42 L 26.5 42 L 26.5 6 L 25.5 6 z M 27.5 6 L 27.5 42 L 28.5 42 L 28.5 6 L 27.5 6 z M 29.5 6 L 29.5 42 L 30.5 42 L 30.5 6 L 29.5 6 z M 31.5 6 L 31.5 42 L 32.5 41.199219 L 32.5 7.0664062 L 31.5 6 z M 14.5 8.1328125 L 13.5 9.1992188 L 13.5 39.599609 L 14.5 40.400391 L 14.5 8.1328125 z M 33.5 8.1328125 L 33.5 40.400391 L 34.5 39.599609 L 34.5 9.1992188 L 33.5 8.1328125 z M 12.5 10.267578 L 11.5 11.333984 L 11.5 38 L 12.5 38.800781 L 12.5 10.267578 z M 35.5 10.267578 L 35.5 38.800781 L 36.5 38 L 36.5 11.333984 L 35.5 10.267578 z M 10.5 12.400391 L 9.5 13.466797 L 9.5 36.400391 L 10.5 37.199219 L 10.5 12.400391 z M 37.5 12.400391 L 37.5 37.199219 L 38.5 36.400391 L 38.5 13.466797 L 37.5 12.400391 z" transform="translate(2273.1428,919.79076)"/><path id="path4215" fill="#000" fill-opacity=".059" stroke="none" d="m 2293.1429,936.99087 c -2.325,0 -4.2001,1.92514 -4.2001,4.25001 0,2.32484 1.8751,4.20001 4.2001,4.20001 0.24,0 0.4708,-0.0614 0.7,-0.10011 -1.068,0.76526 -1.75,2.03586 -1.75,3.45 0,2.32488 1.875,4.19999 4.1998,4.19999 2.325,0 4.2002,-1.87511 4.2002,-4.19999 0,-1.01107 -0.3544,-1.97279 -0.9499,-2.69999 0.4907,0.20052 0.9857,0.35 1.5497,0.35 2.3249,0 4.2501,-1.87514 4.2501,-4.19998 0,-2.32489 -1.9252,-4.25 -4.2501,-4.25 -1.7033,0 -3.1389,1.0427 -3.8,2.49998 -0.356,-1.96697 -2.082,-3.50002 -4.1498,-3.50002 z m 0,0.4 c 1.4133,0 2.5998,0.67374 2.5998,1.55003 0,0.87623 -1.1865,1.59997 -2.5998,1.59997 -1.4134,0 -2.55,-0.72374 -2.55,-1.59997 0,-0.87629 1.1366,-1.55003 2.55,-1.55003 z m 7.9498,0.99999 c 1.4136,0 2.5999,0.67376 2.5999,1.55003 0,0.87624 -1.1863,1.59999 -2.5999,1.59999 -1.4132,0 -2.5501,-0.72375 -2.5501,-1.59999 0,-0.87627 1.1369,-1.55003 2.5501,-1.55003 z m -4.0998,4.54999 c 0.1251,0.74122 0.4422,1.3951 0.9,1.95001 -0.4926,-0.20227 -1.0353,-0.34998 -1.6002,-0.34998 -0.2398,0 -0.4709,0.0612 -0.6998,0.10011 0.6019,-0.42792 1.0906,-1.0213 1.4,-1.69997 z m -0.7002,1.95001 c 1.4134,0 2.5501,0.72375 2.5501,1.59999 0,0.87627 -1.1367,1.60001 -2.5501,1.60001 -1.4131,0 -2.55,-0.72374 -2.55,-1.60001 0,-0.87624 1.1369,-1.59999 2.55,-1.59999 z"/><path id="path4213" fill="#000" fill-opacity=".118" stroke="none" d="m 2293.1429,936.59087 c -2.325,0 -4.2001,1.92514 -4.2001,4.25001 0,2.32484 1.8751,4.20001 4.2001,4.20001 0.24,0 0.4708,-0.0614 0.7,-0.10011 -1.068,0.76526 -1.75,2.03586 -1.75,3.45 0,2.32488 1.875,4.19999 4.1998,4.19999 2.325,0 4.2002,-1.87511 4.2002,-4.19999 0,-1.01107 -0.3544,-1.97279 -0.9499,-2.69999 0.4907,0.20052 0.9857,0.35 1.5497,0.35 2.3249,0 4.2501,-1.87514 4.2501,-4.19998 0,-2.32489 -1.9252,-4.25 -4.2501,-4.25 -1.7033,0 -3.1389,1.0427 -3.8,2.49998 -0.356,-1.96697 -2.082,-3.50002 -4.1498,-3.50002 z m 0,0.4 c 1.4133,0 2.5998,0.67374 2.5998,1.55003 0,0.87623 -1.1865,1.59997 -2.5998,1.59997 -1.4134,0 -2.55,-0.72374 -2.55,-1.59997 0,-0.87629 1.1366,-1.55003 2.55,-1.55003 z m 7.9498,0.99999 c 1.4136,0 2.5999,0.67376 2.5999,1.55003 0,0.87624 -1.1863,1.59999 -2.5999,1.59999 -1.4132,0 -2.5501,-0.72375 -2.5501,-1.59999 0,-0.87627 1.1369,-1.55003 2.5501,-1.55003 z m -4.0998,4.54999 c 0.1251,0.74122 0.4422,1.3951 0.9,1.95001 -0.4926,-0.20227 -1.0353,-0.34998 -1.6002,-0.34998 -0.2398,0 -0.4709,0.0612 -0.6998,0.10011 0.6019,-0.42792 1.0906,-1.0213 1.4,-1.69997 z m -0.7002,1.95001 c 1.4134,0 2.5501,0.72375 2.5501,1.59999 0,0.87627 -1.1367,1.60001 -2.5501,1.60001 -1.4131,0 -2.55,-0.72374 -2.55,-1.60001 0,-0.87624 1.1369,-1.59999 2.55,-1.59999 z"/><path id="polygon4139" fill="url(#linearGradient4163)" fill-opacity="1" d="M 9 15 L 3 19 L 3 31 L 9 35 L 9 15 z M 39 15 L 39 35 L 45 31 L 45 19 L 39 15 z" transform="translate(2273.1428,919.79076)"/><path id="path4211" fill="#000" fill-opacity=".235" stroke="none" d="m 2293.1429,936.19087 c -2.325,0 -4.2001,1.92514 -4.2001,4.25001 0,2.32484 1.8751,4.20001 4.2001,4.20001 0.24,0 0.4708,-0.0614 0.7,-0.10011 -1.068,0.76526 -1.75,2.03586 -1.75,3.45 0,2.32488 1.875,4.19999 4.1998,4.19999 2.325,0 4.2002,-1.87511 4.2002,-4.19999 0,-1.01107 -0.3544,-1.97279 -0.9499,-2.69999 0.4907,0.20052 0.9857,0.35 1.5497,0.35 2.3249,0 4.2501,-1.87514 4.2501,-4.19998 0,-2.32489 -1.9252,-4.25 -4.2501,-4.25 -1.7033,0 -3.1389,1.0427 -3.8,2.49998 -0.356,-1.96697 -2.082,-3.50002 -4.1498,-3.50002 z m 0,0.4 c 1.4133,0 2.5998,0.67374 2.5998,1.55003 0,0.87623 -1.1865,1.59997 -2.5998,1.59997 -1.4134,0 -2.55,-0.72374 -2.55,-1.59997 0,-0.87629 1.1366,-1.55003 2.55,-1.55003 z m 7.9498,0.99999 c 1.4136,0 2.5999,0.67376 2.5999,1.55003 0,0.87624 -1.1863,1.59999 -2.5999,1.59999 -1.4132,0 -2.5501,-0.72375 -2.5501,-1.59999 0,-0.87627 1.1369,-1.55003 2.5501,-1.55003 z m -4.0998,4.54999 c 0.1251,0.74122 0.4422,1.3951 0.9,1.95001 -0.4926,-0.20227 -1.0353,-0.34998 -1.6002,-0.34998 -0.2398,0 -0.4709,0.0612 -0.6998,0.10011 0.6019,-0.42792 1.0906,-1.0213 1.4,-1.69997 z m -0.7002,1.95001 c 1.4134,0 2.5501,0.72375 2.5501,1.59999 0,0.87627 -1.1367,1.60001 -2.5501,1.60001 -1.4131,0 -2.55,-0.72374 -2.55,-1.60001 0,-0.87624 1.1369,-1.59999 2.55,-1.59999 z"/><path id="path2198" fill="#fff" fill-opacity="1" stroke="none" d="m 2293.1429,935.79087 c -2.325,0 -4.2001,1.92514 -4.2001,4.25001 0,2.32484 1.8751,4.20001 4.2001,4.20001 0.24,0 0.4708,-0.0614 0.7,-0.10011 -1.068,0.76526 -1.75,2.03586 -1.75,3.45 0,2.32488 1.875,4.19999 4.1998,4.19999 2.325,0 4.2002,-1.87511 4.2002,-4.19999 0,-1.01107 -0.3544,-1.97279 -0.9499,-2.69999 0.4907,0.20052 0.9857,0.35 1.5497,0.35 2.3249,0 4.2501,-1.87514 4.2501,-4.19998 0,-2.32489 -1.9252,-4.25 -4.2501,-4.25 -1.7033,0 -3.1389,1.0427 -3.8,2.49998 -0.356,-1.96697 -2.082,-3.50002 -4.1498,-3.50002 z m 0,0.4 c 1.4133,0 2.5998,0.67374 2.5998,1.55003 0,0.87623 -1.1865,1.59997 -2.5998,1.59997 -1.4134,0 -2.55,-0.72374 -2.55,-1.59997 0,-0.87629 1.1366,-1.55003 2.55,-1.55003 z m 7.9498,0.99999 c 1.4136,0 2.5999,0.67376 2.5999,1.55003 0,0.87624 -1.1863,1.59999 -2.5999,1.59999 -1.4132,0 -2.5501,-0.72375 -2.5501,-1.59999 0,-0.87627 1.1369,-1.55003 2.5501,-1.55003 z m -4.0998,4.54999 c 0.1251,0.74122 0.4422,1.3951 0.9,1.95001 -0.4926,-0.20227 -1.0353,-0.34998 -1.6002,-0.34998 -0.2398,0 -0.4709,0.0612 -0.6998,0.10011 0.6019,-0.42792 1.0906,-1.0213 1.4,-1.69997 z m -0.7002,1.95001 c 1.4134,0 2.5501,0.72375 2.5501,1.59999 0,0.87627 -1.1367,1.60001 -2.5501,1.60001 -1.4131,0 -2.55,-0.72374 -2.55,-1.60001 0,-0.87624 1.1369,-1.59999 2.55,-1.59999 z"/><path id="path4222" fill="#000" fill-opacity=".235" d="M 3 30.199219 L 3 31 L 9 35 L 9 34.199219 L 3 30.199219 z M 45 30.199219 L 39 34.199219 L 39 35 L 45 31 L 45 30.199219 z" transform="translate(2273.1428,919.79076)"/><path id="rect4280" fill="#000" fill-opacity=".392" stroke="none" d="m 2275.0803,919.79076 c -1.0773,0 -1.9375,0.8602 -1.9375,1.9375 l 0,43.0625 c 0,0.7934 0.48,1.449 1.1563,1.75 -0.3094,-0.3333 -0.5001,-0.7824 -0.5001,-1.2812 l 0,-42.9375 c 0,-1.0482 0.8269,-1.875 1.8751,-1.875 l 42.9375,0 c 1.0481,0 1.875,0.8268 1.875,1.875 l 0,42.9375 c 0,0.4988 -0.1907,0.9479 -0.5,1.2812 0.6762,-0.301 1.1562,-0.9566 1.1562,-1.75 l 0,-43.0625 c 0,-1.0773 -0.8602,-1.9375 -1.9375,-1.9375 l -44.125,0 z" display="inline" filter="url(#filter6731)"/></g></svg>