<svg xmlns="http://www.w3.org/2000/svg" xmlns:svg="http://www.w3.org/2000/svg" xmlns:xlink="http://www.w3.org/1999/xlink" id="svg2" width="48" height="48" version="1.1"><defs id="defs4"><linearGradient id="linearGradient4001"><stop id="stop4003" offset="0" stop-color="#c0bebe" stop-opacity="1"/><stop id="stop4005" offset="1" stop-color="#f2f7f7" stop-opacity="1"/></linearGradient><linearGradient id="linearGradient3795-1-2"><stop id="stop3797-1-9" offset="0" stop-color="#272b30" stop-opacity="1"/><stop id="stop3799-3-6" offset="1" stop-color="#282c31" stop-opacity="1"/></linearGradient><linearGradient id="linearGradient4007" x1="22.451" x2="22.451" y1="1049.29" y2="1007.375" gradientTransform="matrix(0.95237789,0,0,0.95237799,1.1428663,48.972578)" gradientUnits="userSpaceOnUse" xlink:href="#linearGradient4001"/><linearGradient id="linearGradient929" x1="88.43" x2="88.43" y1="-1042.109" y2="-994.91" gradientTransform="translate(-63.327693,-9.7643189)" gradientUnits="userSpaceOnUse" xlink:href="#linearGradient3795-1-2"/><linearGradient id="linearGradient137480"><stop id="stop137482" offset="0" stop-color="#5a5a5a" stop-opacity="1"/><stop id="stop137484" offset="1" stop-color="#101010" stop-opacity="1"/></linearGradient><linearGradient id="linearGradient6194" x1="0" x2="1" y1="0" y2="0" gradientTransform="matrix(13.526835,20.525875,20.525875,-13.526835,19.18986,1021.0543)" gradientUnits="userSpaceOnUse" spreadMethod="pad"><stop id="stop6196" offset="0" stop-color="#fff" stop-opacity="1"/><stop id="stop6198" offset=".168" stop-color="#29282b" stop-opacity="1"/><stop id="stop6200" offset=".264" stop-color="#868c95" stop-opacity="1"/><stop id="stop6202" offset=".396" stop-color="#92979f" stop-opacity="1"/><stop id="stop6204" offset=".542" stop-color="#737881" stop-opacity="1"/><stop id="stop6206" offset=".626" stop-color="#70757e" stop-opacity="1"/><stop id="stop6208" offset=".718" stop-color="#e4e6e8" stop-opacity="1"/><stop id="stop6210" offset=".791" stop-color="#fff" stop-opacity="1"/><stop id="stop6212" offset="1" stop-color="#1d191a" stop-opacity="1"/></linearGradient><linearGradient id="linearGradient4768" x1="1004.313" x2="1012.362" y1="-34.625" y2="-34.625" gradientTransform="translate(0.50002588,0)" gradientUnits="userSpaceOnUse" xlink:href="#linearGradient6194"/><linearGradient id="linearGradient4772" x1="1004.313" x2="1012.362" y1="-34.625" y2="-34.625" gradientTransform="translate(0.50002588,2)" gradientUnits="userSpaceOnUse" xlink:href="#linearGradient6194"/><linearGradient id="linearGradient4776" x1="1004.313" x2="1012.362" y1="-34.625" y2="-34.625" gradientTransform="translate(0.50002588,9.249021)" gradientUnits="userSpaceOnUse" xlink:href="#linearGradient6194"/><linearGradient id="linearGradient4780" x1="1004.313" x2="1012.362" y1="-34.625" y2="-34.625" gradientTransform="translate(0.50002588,11.249021)" gradientUnits="userSpaceOnUse" xlink:href="#linearGradient6194"/><linearGradient id="linearGradient4788" x1="1004.313" x2="1012.362" y1="-34.625" y2="-34.625" gradientTransform="translate(0.50002588,22)" gradientUnits="userSpaceOnUse" xlink:href="#linearGradient6194"/><linearGradient id="linearGradient4792" x1="1004.313" x2="1012.362" y1="-34.625" y2="-34.625" gradientTransform="translate(0.50002588,20)" gradientUnits="userSpaceOnUse" xlink:href="#linearGradient6194"/><linearGradient id="linearGradient4863" x1="1013.469" x2="1011.539" y1="-13.206" y2="-13.206" gradientTransform="matrix(1.1578948,0,0,2.6595742,-159.62035,19.577131)" gradientUnits="userSpaceOnUse" xlink:href="#linearGradient137480"/><linearGradient id="linearGradient4871" x1="1013.469" x2="1011.539" y1="-13.206" y2="-13.206" gradientTransform="matrix(1.1578948,0,0,2.6595742,-159.62035,-0.42286811)" gradientUnits="userSpaceOnUse" xlink:href="#linearGradient137480"/><linearGradient id="linearGradient4883" x1="1013.469" x2="1011.539" y1="-13.206" y2="-13.206" gradientTransform="matrix(1.1578948,0,0,2.6595742,-159.62035,9.2016413)" gradientUnits="userSpaceOnUse" xlink:href="#linearGradient137480"/><linearGradient id="linearGradient5614" x1="29.18" x2="29.18" y1="1029.854" y2="1026.032" gradientUnits="userSpaceOnUse" xlink:href="#linearGradient3795-1-2"/><linearGradient id="linearGradient5616" x1="29.18" x2="29.18" y1="1029.854" y2="1026.032" gradientUnits="userSpaceOnUse" xlink:href="#linearGradient3795-1-2"/><linearGradient id="linearGradient5618" x1="29.18" x2="29.18" y1="1029.854" y2="1026.032" gradientUnits="userSpaceOnUse" xlink:href="#linearGradient3795-1-2"/><linearGradient id="linearGradient5620" x1="29.18" x2="29.18" y1="1029.854" y2="1026.032" gradientUnits="userSpaceOnUse" xlink:href="#linearGradient3795-1-2"/><linearGradient id="linearGradient5622" x1="29.18" x2="29.18" y1="1029.854" y2="1026.032" gradientUnits="userSpaceOnUse" xlink:href="#linearGradient3795-1-2"/><linearGradient id="linearGradient5624" x1="29.18" x2="29.18" y1="1029.854" y2="1026.032" gradientUnits="userSpaceOnUse" xlink:href="#linearGradient3795-1-2"/><linearGradient id="linearGradient5626" x1="29.18" x2="29.18" y1="1029.854" y2="1026.032" gradientUnits="userSpaceOnUse" xlink:href="#linearGradient3795-1-2"/><linearGradient id="linearGradient5628" x1="29.18" x2="29.18" y1="1029.854" y2="1026.032" gradientUnits="userSpaceOnUse" xlink:href="#linearGradient3795-1-2"/><linearGradient id="linearGradient5630" x1="29.18" x2="29.18" y1="1029.854" y2="1026.032" gradientUnits="userSpaceOnUse" xlink:href="#linearGradient3795-1-2"/><linearGradient id="linearGradient5632" x1="29.18" x2="29.18" y1="1029.854" y2="1026.032" gradientUnits="userSpaceOnUse" xlink:href="#linearGradient3795-1-2"/></defs><metadata id="metadata7"/><g id="layer1" transform="translate(0,-1004.3622)"><rect id="rect2991-1-5" width="48" height="48" x="0" y="-1052.362" fill="url(#linearGradient929)" fill-opacity="1" stroke="none" ry="1.945" transform="scale(1,-1)"/><path id="path4523" fill="#000" fill-opacity=".235" stroke="none" d="m 4.7002843,1007.3622 c -0.942615,0 -1.700284,0.7576 -1.700284,1.7002 l 0,38.5995 c 0,0.9426 0.757669,1.7003 1.700284,1.7003 l 38.5994307,0 c 0.942614,0 1.700285,-0.7577 1.700285,-1.7003 l 0,-38.5994 c 0,-0.9427 -0.757671,-1.7003 -1.700285,-1.7003 z"/><path id="rect839" fill="url(#linearGradient4007)" fill-opacity="1" stroke="none" d="m 5.6193183,1008.3622 c -0.897728,0 -1.619318,0.7215 -1.619318,1.6192 l 0,36.7615 c 0,0.8977 0.72159,1.6193 1.619318,1.6193 l 36.7613627,0 c 0.897728,0 1.619319,-0.7216 1.619319,-1.6193 l 0,-36.7614 c 0,-0.8978 -0.721591,-1.6193 -1.619319,-1.6193 z"/><path id="path4943" fill="#000" fill-opacity=".314" stroke="none" d="m 4.0000003,1044.956 0,1.7812 c 0,0.8977 0.7273,1.625 1.625,1.625 l 36.7499997,0 c 0.8977,0 1.625,-0.7273 1.625,-1.625 l 0,-1.7812 c 0,0.8977 -0.7273,1.5937 -1.625,1.5937 l -36.7499997,0 c -0.8977,0 -1.625,-0.696 -1.625,-1.5937 z"/><path id="path4948" fill="#000" fill-opacity=".314" stroke="none" d="m 4.0000003,1046.1435 0,0.5937 c 0,0.8977 0.7273,1.625 1.625,1.625 l 36.7499997,0 c 0.8977,0 1.625,-0.7273 1.625,-1.625 l 0,-0.5937 c 0,0.8977 -0.7273,1.625 -1.625,1.625 l -36.7499997,0 c -0.8977,0 -1.625,-0.7273 -1.625,-1.625 z"/><g id="g10821" transform="translate(3.1530762e-7,-1.0016406e-5)"><path id="rect846-7" fill="#000" fill-opacity="1" stroke="none" d="m 7.4539099e-7,1049.3622 0,1.0625 c 0,1.0773 0.86022300460901,1.9375 1.93750005460901,1.9375 l 44.1249992,0 c 1.07728,0 1.9375,-0.8602 1.9375,-1.9375 l 0,-1.0625 c 0,1.0773 -0.86022,1.9375 -1.9375,1.9375 l -44.1249992,0 c -1.07727705,0 -1.93750005460901,-0.8602 -1.93750005460901,-1.9375 z"/><path id="path7515-9" fill="#fff" fill-opacity=".537" stroke="none" d="m 2.5312508,1005.0185 c -0.917088,0 -1.67114705,0.6395 -1.84375005,1.5 0.33561205,-0.2799 0.77451205,-0.4375 1.25000005,-0.4375 l 44.1249992,0 c 0.47549,0 0.91439,0.1576 1.25,0.4375 -0.1726,-0.8605 -0.92666,-1.5 -1.84375,-1.5 l -42.9374992,0 z"/><path id="rect4280-5" fill="#000" fill-opacity=".392" stroke="none" d="m 1.9375008,1004.3622 c -1.07727705,0 -1.93750005460901,0.8602 -1.93750005460901,1.9375 l 0,43.0625 c 0,0.7934 0.48002400460901,1.449 1.15625005460901,1.75 -0.30934105,-0.3333 -0.50000005,-0.7824 -0.50000005,-1.2812 l 0,-42.9375 c 0,-1.0482 0.82689905,-1.875 1.87500005,-1.875 l 42.9374992,0 c 1.0481,0 1.875,0.8268 1.875,1.875 l 0,42.9375 c 0,0.4988 -0.19066,0.9479 -0.5,1.2812 0.67623,-0.301 1.15625,-0.9566 1.15625,-1.75 l 0,-43.0625 c 0,-1.0773 -0.86022,-1.9375 -1.9375,-1.9375 l -44.1249992,0 z"/></g><g id="g302" transform="translate(3.1530762e-7,-0.49994032)"><rect id="rect4881" width="2.2" height="5" x="1011.662" y="-26.875" fill="url(#linearGradient4883)" fill-opacity="1" stroke="none" font-family="Derivia" font-size="24" font-stretch="normal" font-style="normal" font-variant="normal" font-weight="normal" letter-spacing="-.03" ry=".26" transform="matrix(0,1,-1,0,0,0)" word-spacing="0" style="line-height:125%;-inkscape-font-specification:Derivia"/><rect id="rect4869" width="2.2" height="5" x="1011.662" y="-36.5" fill="url(#linearGradient4871)" fill-opacity="1" stroke="none" font-family="Derivia" font-size="24" font-stretch="normal" font-style="normal" font-variant="normal" font-weight="normal" letter-spacing="-.03" ry=".26" transform="matrix(0,1,-1,0,0,0)" word-spacing="0" style="line-height:125%;-inkscape-font-specification:Derivia"/><rect id="rect4855" width="2.2" height="5" x="1011.662" y="-16.5" fill="url(#linearGradient4863)" fill-opacity="1" stroke="none" font-family="Derivia" font-size="24" font-stretch="normal" font-style="normal" font-variant="normal" font-weight="normal" letter-spacing="-.03" ry=".26" transform="matrix(0,1,-1,0,0,0)" word-spacing="0" style="line-height:125%;-inkscape-font-specification:Derivia"/><rect id="rect4833" width="5" height="1.48" x="1008.462" y="-33.74" fill="#000" fill-opacity=".235" stroke="none" font-family="Derivia" font-size="24" font-stretch="normal" font-style="normal" font-variant="normal" font-weight="normal" letter-spacing="-.03" ry=".418" transform="matrix(0,1,-1,0,0,0)" word-spacing="0" style="line-height:125%;-inkscape-font-specification:Derivia"/><rect id="rect4829" width="5" height="1.18" x="1008.162" y="-33.59" fill="#000" fill-opacity=".235" stroke="none" font-family="Derivia" font-size="24" font-stretch="normal" font-style="normal" font-variant="normal" font-weight="normal" letter-spacing="-.03" ry=".333" transform="matrix(0,1,-1,0,0,0)" word-spacing="0" style="line-height:125%;-inkscape-font-specification:Derivia"/><rect id="rect4835" width="5" height="1.48" x="1008.462" y="-35.74" fill="#000" fill-opacity=".235" stroke="none" font-family="Derivia" font-size="24" font-stretch="normal" font-style="normal" font-variant="normal" font-weight="normal" letter-spacing="-.03" ry=".418" transform="matrix(0,1,-1,0,0,0)" word-spacing="0" style="line-height:125%;-inkscape-font-specification:Derivia"/><rect id="rect4837" width="5" height="1.18" x="1008.162" y="-35.59" fill="#000" fill-opacity=".235" stroke="none" font-family="Derivia" font-size="24" font-stretch="normal" font-style="normal" font-variant="normal" font-weight="normal" letter-spacing="-.03" ry=".333" transform="matrix(0,1,-1,0,0,0)" word-spacing="0" style="line-height:125%;-inkscape-font-specification:Derivia"/><rect id="rect4839" width="5" height="1.48" x="1008.462" y="-26.115" fill="#000" fill-opacity=".235" stroke="none" font-family="Derivia" font-size="24" font-stretch="normal" font-style="normal" font-variant="normal" font-weight="normal" letter-spacing="-.03" ry=".418" transform="matrix(0,1,-1,0,0,0)" word-spacing="0" style="line-height:125%;-inkscape-font-specification:Derivia"/><rect id="rect4841" width="5" height="1.18" x="1008.162" y="-25.965" fill="#000" fill-opacity=".235" stroke="none" font-family="Derivia" font-size="24" font-stretch="normal" font-style="normal" font-variant="normal" font-weight="normal" letter-spacing="-.03" ry=".333" transform="matrix(0,1,-1,0,0,0)" word-spacing="0" style="line-height:125%;-inkscape-font-specification:Derivia"/><rect id="rect4843" width="5" height="1.48" x="1008.462" y="-24.115" fill="#000" fill-opacity=".235" stroke="none" font-family="Derivia" font-size="24" font-stretch="normal" font-style="normal" font-variant="normal" font-weight="normal" letter-spacing="-.03" ry=".418" transform="matrix(0,1,-1,0,0,0)" word-spacing="0" style="line-height:125%;-inkscape-font-specification:Derivia"/><rect id="rect4845" width="5" height="1.18" x="1008.162" y="-23.965" fill="#000" fill-opacity=".235" stroke="none" font-family="Derivia" font-size="24" font-stretch="normal" font-style="normal" font-variant="normal" font-weight="normal" letter-spacing="-.03" ry=".333" transform="matrix(0,1,-1,0,0,0)" word-spacing="0" style="line-height:125%;-inkscape-font-specification:Derivia"/><rect id="rect4847" width="5" height="1.48" x="1008.462" y="-15.74" fill="#000" fill-opacity=".235" stroke="none" font-family="Derivia" font-size="24" font-stretch="normal" font-style="normal" font-variant="normal" font-weight="normal" letter-spacing="-.03" ry=".418" transform="matrix(0,1,-1,0,0,0)" word-spacing="0" style="line-height:125%;-inkscape-font-specification:Derivia"/><rect id="rect4849" width="5" height="1.18" x="1008.162" y="-15.59" fill="#000" fill-opacity=".235" stroke="none" font-family="Derivia" font-size="24" font-stretch="normal" font-style="normal" font-variant="normal" font-weight="normal" letter-spacing="-.03" ry=".333" transform="matrix(0,1,-1,0,0,0)" word-spacing="0" style="line-height:125%;-inkscape-font-specification:Derivia"/><rect id="rect4851" width="5" height="1.48" x="1008.462" y="-13.74" fill="#000" fill-opacity=".235" stroke="none" font-family="Derivia" font-size="24" font-stretch="normal" font-style="normal" font-variant="normal" font-weight="normal" letter-spacing="-.03" ry=".418" transform="matrix(0,1,-1,0,0,0)" word-spacing="0" style="line-height:125%;-inkscape-font-specification:Derivia"/><rect id="rect4853" width="5" height="1.18" x="1008.162" y="-13.59" fill="#000" fill-opacity=".235" stroke="none" font-family="Derivia" font-size="24" font-stretch="normal" font-style="normal" font-variant="normal" font-weight="normal" letter-spacing="-.03" ry=".333" transform="matrix(0,1,-1,0,0,0)" word-spacing="0" style="line-height:125%;-inkscape-font-specification:Derivia"/><g id="g4873" transform="translate(0.37548923,0)"><rect id="rect4202" width="5" height=".7" x="1007.862" y="-34.975" fill="url(#linearGradient4768)" fill-opacity="1" stroke="none" font-family="Derivia" font-size="24" font-stretch="normal" font-style="normal" font-variant="normal" font-weight="normal" letter-spacing="-.03" ry=".198" transform="matrix(0,1,-1,0,0,0)" word-spacing="0" style="line-height:125%;-inkscape-font-specification:Derivia"/><rect id="rect4770" width="5" height=".7" x="1007.862" y="-32.975" fill="url(#linearGradient4772)" fill-opacity="1" stroke="none" font-family="Derivia" font-size="24" font-stretch="normal" font-style="normal" font-variant="normal" font-weight="normal" letter-spacing="-.03" ry=".198" transform="matrix(0,1,-1,0,0,0)" word-spacing="0" style="line-height:125%;-inkscape-font-specification:Derivia"/></g><g id="g4877"><rect id="rect4774" width="5" height=".7" x="1007.862" y="-25.725" fill="url(#linearGradient4776)" fill-opacity="1" stroke="none" font-family="Derivia" font-size="24" font-stretch="normal" font-style="normal" font-variant="normal" font-weight="normal" letter-spacing="-.03" ry=".198" transform="matrix(0,1,-1,0,0,0)" word-spacing="0" style="line-height:125%;-inkscape-font-specification:Derivia"/><rect id="rect4778" width="5" height=".7" x="1007.862" y="-23.725" fill="url(#linearGradient4780)" fill-opacity="1" stroke="none" font-family="Derivia" font-size="24" font-stretch="normal" font-style="normal" font-variant="normal" font-weight="normal" letter-spacing="-.03" ry=".198" transform="matrix(0,1,-1,0,0,0)" word-spacing="0" style="line-height:125%;-inkscape-font-specification:Derivia"/></g><g id="g4865" transform="translate(0.37548923,0)"><rect id="rect4786" width="5" height=".7" x="1007.862" y="-12.975" fill="url(#linearGradient4788)" fill-opacity="1" stroke="none" font-family="Derivia" font-size="24" font-stretch="normal" font-style="normal" font-variant="normal" font-weight="normal" letter-spacing="-.03" ry=".198" transform="matrix(0,1,-1,0,0,0)" word-spacing="0" style="line-height:125%;-inkscape-font-specification:Derivia"/><rect id="rect4790" width="5" height=".7" x="1007.862" y="-14.975" fill="url(#linearGradient4792)" fill-opacity="1" stroke="none" font-family="Derivia" font-size="24" font-stretch="normal" font-style="normal" font-variant="normal" font-weight="normal" letter-spacing="-.03" ry=".198" transform="matrix(0,1,-1,0,0,0)" word-spacing="0" style="line-height:125%;-inkscape-font-specification:Derivia"/></g><path font-stretch="normal" style="line-height:125%;-inkscape-font-specification:Derivia" id="rect4814" fill="#000" fill-opacity=".235" stroke="none" d="m 32.844239,1007.8622 c -0.109453,0 -0.1875,0.078 -0.1875,0.1875 l 0,4.625 c 0,0.1094 0.07805,0.1875 0.1875,0.1875 0.109453,0 0.21875,-0.078 0.21875,-0.1875 l 0,-4.625 c 0,-0.1095 -0.109297,-0.1875 -0.21875,-0.1875 z" font-family="Derivia" font-size="24" font-style="normal" font-variant="normal" font-weight="normal" letter-spacing="-.03" word-spacing="0"/><path font-stretch="normal" style="line-height:125%;-inkscape-font-specification:Derivia" id="path4819" fill="#000" fill-opacity=".235" stroke="none" d="m 34.837499,1007.8622 c -0.109453,0 -0.1875,0.078 -0.1875,0.1875 l 0,4.625 c 0,0.1095 0.07805,0.1875 0.1875,0.1875 0.109453,0 0.21875,-0.078 0.21875,-0.1875 l 0,-4.625 c 0,-0.1095 -0.109297,-0.1875 -0.21875,-0.1875 z" font-family="Derivia" font-size="24" font-style="normal" font-variant="normal" font-weight="normal" letter-spacing="-.03" word-spacing="0"/><path font-stretch="normal" style="line-height:125%;-inkscape-font-specification:Derivia" id="path4821" fill="#000" fill-opacity=".235" stroke="none" d="m 25.212989,1007.8622 c -0.109453,0 -0.1875,0.078 -0.1875,0.1875 l 0,4.625 c 0,0.1095 0.07805,0.1875 0.1875,0.1875 0.109453,0 0.21875,-0.078 0.21875,-0.1875 l 0,-4.625 c 0,-0.1095 -0.109297,-0.1875 -0.21875,-0.1875 z" font-family="Derivia" font-size="24" font-style="normal" font-variant="normal" font-weight="normal" letter-spacing="-.03" word-spacing="0"/><path font-stretch="normal" style="line-height:125%;-inkscape-font-specification:Derivia" id="path4823" fill="#000" fill-opacity=".235" stroke="none" d="m 23.212989,1007.8622 c -0.109453,0 -0.1875,0.078 -0.1875,0.1875 l 0,4.625 c 0,0.1095 0.07805,0.1875 0.1875,0.1875 0.109453,0 0.21875,-0.078 0.21875,-0.1875 l 0,-4.625 c 0,-0.1095 -0.109297,-0.1875 -0.21875,-0.1875 z" font-family="Derivia" font-size="24" font-style="normal" font-variant="normal" font-weight="normal" letter-spacing="-.03" word-spacing="0"/><path font-stretch="normal" style="line-height:125%;-inkscape-font-specification:Derivia" id="path4825" fill="#000" fill-opacity=".235" stroke="none" d="m 14.837499,1007.8622 c -0.109453,0 -0.1875,0.078 -0.1875,0.1875 l 0,4.625 c 0,0.1095 0.07805,0.1875 0.1875,0.1875 0.109453,0 0.21875,-0.078 0.21875,-0.1875 l 0,-4.625 c 0,-0.1095 -0.109297,-0.1875 -0.21875,-0.1875 z" font-family="Derivia" font-size="24" font-style="normal" font-variant="normal" font-weight="normal" letter-spacing="-.03" word-spacing="0"/><path font-stretch="normal" style="line-height:125%;-inkscape-font-specification:Derivia" id="path4827" fill="#000" fill-opacity=".235" stroke="none" d="m 12.837499,1007.8622 c -0.109453,0 -0.1875,0.078 -0.1875,0.1875 l 0,4.625 c 0,0.1095 0.07805,0.1875 0.1875,0.1875 0.109453,0 0.21875,-0.078 0.21875,-0.1875 l 0,-4.625 c 0,-0.1095 -0.109297,-0.1875 -0.21875,-0.1875 z" font-family="Derivia" font-size="24" font-style="normal" font-variant="normal" font-weight="normal" letter-spacing="-.03" word-spacing="0"/></g><rect id="rect1526" width="48" height="48" x="0" y="1004.362" fill="none" stroke="none" ry="0"/><g id="g881" transform="matrix(0.68744113,0,0,0.68744113,7.8981276,321.42676)"><rect id="rect869" width="29.168" height="11.137" x="8.839" y="1009.447" fill="#b3b3b3" fill-opacity="1" stroke="none" ry="0"/><rect id="rect871" width="28.726" height="10.607" x="9.06" y="1009.712" fill="#fff" fill-opacity="1" stroke="none" ry="0"/></g><rect id="rect873" width="20.051" height="7.656" x="13.974" y="1024.537" fill="#9bce41" fill-opacity="1" stroke="none" ry="0"/><rect id="rect875" width="19.748" height="7.291" x="14.126" y="1024.719" fill="#eeffd2" fill-opacity="1" stroke="none" ry="0"/><path id="rect877" fill="#9bce41" fill-opacity="1" stroke="none" d="m 13.978397,1033.7144 0,7.6478 20.043205,0 0,-7.6478 -8.807839,0 -0.279273,0.4725 -0.923748,1.6328 -0.945232,-1.6328 -0.279274,-0.4725 -8.807839,0 z"/><path id="rect879" fill="#eeffd2" fill-opacity="1" stroke="none" d="m 14.118033,1033.8863 0,7.3039 19.763933,0 0,-7.3039 -8.550048,0 -0.193344,0.3436 -1.138574,1.9764 -1.138573,-1.9764 -0.193344,-0.3436 -8.55005,0 z"/><path id="path899" fill="#9bce41" fill-opacity="1" stroke="none" d="m 22.936775,36.024624 -1.35924,-2.354273 -1.35924,-2.354273 2.71848,0 2.718481,0 -1.359241,2.354273 z" transform="matrix(0.43456416,0,0,0.43456416,14.0325,1019.5607)"/><rect id="rect901" width="1.018" height="1.511" x="23.491" y="1032.142" fill="#9bce41" fill-opacity="1" stroke="none" ry="0"/><path font-style="normal" style="text-align:start;line-height:125%;-inkscape-font-specification:Helvetica Bold" id="path950" fill="#000" fill-opacity="1" stroke="none" d="m 18.420796,1019.3236 0.0023,0.7065 -0.350967,0 0,-1.6798 1.19563,0 0,0.2971 -0.844663,0 -0.0023,0.3789 0.739373,0 0,0.2973 -0.739373,0 z" font-family="Helvetica" font-size="2.88" font-stretch="normal" font-variant="normal" font-weight="bold" letter-spacing="0" text-anchor="start" word-spacing="0" writing-mode="lr-tb"/><path font-style="normal" style="text-align:start;line-height:125%;-inkscape-font-specification:Helvetica Bold" id="path952" fill="#000" fill-opacity="1" stroke="none" d="m 19.813736,1018.3503 0,1.6798 -0.32757,0 0,-1.6798 0.32757,0 z" font-family="Helvetica" font-size="2.88" font-stretch="normal" font-variant="normal" font-weight="bold" letter-spacing="0" text-anchor="start" word-spacing="0" writing-mode="lr-tb"/><path font-style="normal" style="text-align:start;line-height:125%;-inkscape-font-specification:Helvetica Bold" id="path954" fill="#000" fill-opacity="1" stroke="none" d="m 21.326043,1019.4078 q 0,0.3205 -0.191862,0.496 -0.173146,0.1591 -0.44456,0.1591 -0.271414,0 -0.444561,-0.1591 -0.191861,-0.1755 -0.191861,-0.496 0,-0.3181 0.191861,-0.4959 0.173147,-0.1592 0.442221,-0.1592 0.269074,0 0.444561,0.1592 0.194201,0.1778 0.194201,0.4959 z m -0.336928,0 q 0,-0.1544 -0.05381,-0.2479 -0.07487,-0.131 -0.245679,-0.131 -0.168464,0 -0.243338,0.1287 -0.05615,0.098 -0.05615,0.2502 0,0.1544 0.05381,0.248 0.07487,0.131 0.245677,0.131 0.168465,0 0.243339,-0.1287 0.05615,-0.098 0.05615,-0.2503 z" font-family="Helvetica" font-size="2.88" font-stretch="normal" font-variant="normal" font-weight="bold" letter-spacing="0" text-anchor="start" word-spacing="0" writing-mode="lr-tb"/><path font-style="normal" style="text-align:start;line-height:125%;-inkscape-font-specification:Helvetica Bold" id="path956" fill="#000" fill-opacity="1" stroke="none" d="m 23.20098,1018.7855 -0.355647,1.2446 -0.336931,0 -0.196541,-0.9076 -0.196543,0.9076 -0.336929,0 -0.353306,-1.2446 0.348627,0 0.196541,0.8937 0.177826,-0.8937 0.329909,0 0.189521,0.8937 0.196544,-0.8937 0.336929,0 z" font-family="Helvetica" font-size="2.88" font-stretch="normal" font-variant="normal" font-weight="bold" letter-spacing="0" text-anchor="start" word-spacing="0" writing-mode="lr-tb"/><path font-style="normal" style="text-align:start;line-height:125%;-inkscape-font-specification:Helvetica Bold" id="path958" fill="#000" fill-opacity="1" stroke="none" d="m 25.472181,1018.9002 -0.350967,0 q -0.03276,-0.1218 -0.08891,-0.1826 -0.09593,-0.1076 -0.285454,-0.1076 -0.161445,0 -0.269075,0.1147 -0.145067,0.1544 -0.145067,0.4725 0,0.248 0.09593,0.4001 0.10997,0.1732 0.32055,0.1732 0.147407,0 0.243339,-0.08 0.09593,-0.083 0.126348,-0.2363 l 0.350967,0 q -0.05381,0.2879 -0.229298,0.4469 -0.189524,0.1731 -0.498375,0.1731 -0.346288,0 -0.55219,-0.2222 -0.217599,-0.234 -0.217599,-0.6597 0,-0.426 0.224618,-0.6646 0.208242,-0.2222 0.54985,-0.2222 0.341609,0 0.542831,0.2034 0.163785,0.1663 0.182503,0.391 z" font-family="Helvetica" font-size="2.88" font-stretch="normal" font-variant="normal" font-weight="bold" letter-spacing="0" text-anchor="start" word-spacing="0" writing-mode="lr-tb"/><path font-style="normal" style="text-align:start;line-height:125%;-inkscape-font-specification:Helvetica Bold" id="path960" fill="#000" fill-opacity="1" stroke="none" d="m 26.837814,1019.1693 0.0023,0.8608 -0.327571,0 0,-0.7555 q 0,-0.1053 -0.02808,-0.157 -0.0468,-0.089 -0.184844,-0.089 -0.112309,0 -0.184842,0.074 -0.07253,0.074 -0.07253,0.2129 l 0,0.7136 -0.327569,0 0,-1.6798 0.325229,0 0,0.5966 q 0.03978,-0.082 0.138048,-0.1381 0.09827,-0.057 0.22696,-0.057 0.189522,0 0.311192,0.1099 0.121654,0.1078 0.121654,0.3067 z" font-family="Helvetica" font-size="2.88" font-stretch="normal" font-variant="normal" font-weight="bold" letter-spacing="0" text-anchor="start" word-spacing="0" writing-mode="lr-tb"/><path font-style="normal" style="text-align:start;line-height:125%;-inkscape-font-specification:Helvetica Bold" id="path962" fill="#000" fill-opacity="1" stroke="none" d="m 28.151202,1019.1131 0.0023,0.6737 q 0,0.1029 0.01872,0.1429 0.01872,0.04 0.05381,0.051 l 0,0.048 -0.353307,0 q -0.0234,-0.071 -0.03042,-0.1474 -0.07955,0.084 -0.145066,0.1194 -0.107631,0.06 -0.257378,0.06 -0.156765,0 -0.259715,-0.084 -0.11933,-0.098 -0.11933,-0.2784 0,-0.1755 0.09593,-0.2739 0.09827,-0.1005 0.266736,-0.1239 l 0.292473,-0.046 q 0.06785,-0.01 0.09125,-0.032 0.02574,-0.026 0.02574,-0.066 0,-0.091 -0.07721,-0.124 -0.04913,-0.02 -0.140387,-0.02 -0.10763,0 -0.156766,0.058 -0.0351,0.043 -0.04212,0.1147 l -0.315871,0 q 0.0234,-0.2574 0.194202,-0.3604 0.124009,-0.074 0.360327,-0.074 0.187183,0 0.313532,0.063 0.182491,0.092 0.182491,0.2978 z m -0.318212,0.4702 0,-0.1592 q -0.0234,0.019 -0.07487,0.037 -0.05147,0.017 -0.156766,0.032 -0.102951,0.017 -0.147406,0.046 -0.06551,0.045 -0.06551,0.1381 0,0.077 0.05147,0.1169 0.04212,0.033 0.10061,0.033 0.116989,0 0.203562,-0.068 0.08891,-0.068 0.08891,-0.1779 z" font-family="Helvetica" font-size="2.88" font-stretch="normal" font-variant="normal" font-weight="bold" letter-spacing="0" text-anchor="start" word-spacing="0" writing-mode="lr-tb"/><path font-style="normal" style="text-align:start;line-height:125%;-inkscape-font-specification:Helvetica Bold" id="path964" fill="#000" fill-opacity="1" stroke="none" d="m 28.445173,1020.0301 -0.0023,-1.2446 0.313531,0 0.0023,0.2151 q 0.06785,-0.1238 0.121669,-0.1706 0.08657,-0.077 0.222279,-0.077 l 0.06551,0.01 -0.0023,0.3323 q -0.02106,0 -0.04212,0 -0.01872,0 -0.04913,0 -0.173145,0 -0.245678,0.096 -0.05615,0.072 -0.05615,0.2012 l 0,0.6481 -0.327554,-0.01 z" font-family="Helvetica" font-size="2.88" font-stretch="normal" font-variant="normal" font-weight="bold" letter-spacing="0" text-anchor="start" word-spacing="0" writing-mode="lr-tb"/><path font-style="normal" style="text-align:start;line-height:125%;-inkscape-font-specification:Helvetica Bold" id="path966" fill="#000" fill-opacity="1" stroke="none" d="m 29.724269,1018.4485 -0.0023,0.337 0.2059,0 0,0.234 -0.20356,0 -0.0023,0.6762 q 0,0.06 0.02106,0.083 0.0234,0.019 0.116988,0.019 l 0.06785,-0.01 0,0.2479 -0.154426,0.01 -0.04212,0 q -0.19888,0 -0.273755,-0.072 -0.06083,-0.058 -0.06083,-0.1966 l 0,-0.7556 -0.168464,0 -0.0023,-0.234 0.168464,0 0.0023,-0.3369 0.327604,-2e-4 z" font-family="Helvetica" font-size="2.88" font-stretch="normal" font-variant="normal" font-weight="bold" letter-spacing="0" text-anchor="start" word-spacing="0" writing-mode="lr-tb"/><path font-style="normal" style="text-align:start;line-height:125%;-inkscape-font-specification:Helvetica Bold" id="path936" fill="#9bce41" fill-opacity="1" stroke="none" d="m 22.972925,1028.5593 0,0.6295 -0.350969,0 0,-0.634 -0.580267,-1.046 0.414143,0 0.346289,0.7301 0.33459,-0.7301 0.397764,0 -0.56155,1.0505 z" font-family="Helvetica" font-size="3.404" font-stretch="normal" font-variant="normal" font-weight="bold" letter-spacing="0" text-anchor="start" word-spacing="0" writing-mode="lr-tb"/><path font-style="normal" style="text-align:start;line-height:125%;-inkscape-font-specification:Helvetica Bold" id="path938" fill="#9bce41" fill-opacity="1" stroke="none" d="m 24.32598,1028.8239 0.336929,0 q -0.06083,0.2083 -0.224621,0.3112 -0.138047,0.086 -0.32289,0.086 -0.287793,0 -0.442219,-0.1475 -0.177823,-0.1707 -0.177823,-0.5334 0,-0.213 0.09125,-0.3698 0.149747,-0.2596 0.503055,-0.2596 0.236319,0 0.386066,0.1287 0.20122,0.1732 0.20122,0.5568 l -0.0023,0.058 -0.854023,0 q 0.02105,0.1661 0.08891,0.2363 0.07019,0.069 0.205901,0.069 0.07253,0 0.131029,-0.034 0.06085,-0.035 0.07957,-0.1012 z m -0.493696,-0.3816 0.507735,0 q -0.01404,-0.1379 -0.09359,-0.2057 -0.06551,-0.057 -0.159105,-0.057 -0.114651,0 -0.177823,0.069 -0.06317,0.068 -0.07721,0.1937 z" font-family="Helvetica" font-size="3.404" font-stretch="normal" font-variant="normal" font-weight="bold" letter-spacing="0" text-anchor="start" word-spacing="0" writing-mode="lr-tb"/><path font-style="normal" style="text-align:start;line-height:125%;-inkscape-font-specification:Helvetica Bold" id="path940" fill="#9bce41" fill-opacity="1" stroke="none" d="m 25.920872,1028.3232 -0.32055,0 q -0.01404,-0.08 -0.04679,-0.1124 -0.05147,-0.051 -0.173146,-0.051 -0.119328,0 -0.168463,0.04 -0.0351,0.029 -0.0351,0.082 0,0.072 0.201222,0.117 0.290134,0.063 0.376705,0.1029 0.203563,0.096 0.203563,0.2926 0,0.2386 -0.198884,0.3486 -0.145066,0.08 -0.346286,0.08 -0.250358,0 -0.404784,-0.089 -0.194202,-0.1123 -0.194202,-0.3415 l 0.336928,0 q 0,0.086 0.06084,0.1356 0.06317,0.046 0.21058,0.046 0.109969,0 0.166126,-0.046 0.04212,-0.034 0.04212,-0.082 0,-0.077 -0.198883,-0.1215 -0.297153,-0.065 -0.374364,-0.1008 -0.201223,-0.093 -0.201223,-0.2947 0,-0.1638 0.10529,-0.2762 0.133369,-0.1403 0.397764,-0.1403 0.236317,0 0.372025,0.072 0.189513,0.1005 0.189513,0.3392 z" font-family="Helvetica" font-size="3.404" font-stretch="normal" font-variant="normal" font-weight="bold" letter-spacing="0" text-anchor="start" word-spacing="0" writing-mode="lr-tb"/><path font-style="normal" style="text-align:start;line-height:125%;-inkscape-font-specification:Helvetica Bold" id="path927" fill="#9bce41" fill-opacity="1" stroke="none" d="m 21.928118,1037.7559 0,-0.2831 0.701937,0 0,0.9054 -0.231637,0 -0.03509,-0.2106 q -0.100612,0.117 -0.180163,0.1663 -0.142727,0.089 -0.34395,0.089 -0.32523,0 -0.538151,-0.2176 -0.233978,-0.2387 -0.233978,-0.6621 0,-0.3744 0.196541,-0.6155 0.222281,-0.2736 0.624725,-0.2736 0.350967,0 0.559208,0.1965 0.175485,0.1662 0.175485,0.3696 l -0.35097,0 q 0,-0.072 -0.08891,-0.1615 -0.11465,-0.1145 -0.278435,-0.1145 -0.205903,0 -0.33459,0.1404 -0.147407,0.1613 -0.147407,0.4632 0,0.3159 0.154426,0.461 0.124008,0.117 0.33693,0.117 0.10997,0 0.20356,-0.057 0.156766,-0.094 0.203563,-0.3136 l -0.393091,-10e-5 z" font-family="Helvetica" font-size="3.404" font-stretch="normal" font-variant="normal" font-weight="bold" letter-spacing="0" text-anchor="start" word-spacing="0" writing-mode="lr-tb"/><path font-style="normal" style="text-align:start;line-height:125%;-inkscape-font-specification:Helvetica Bold" id="path929" fill="#9bce41" fill-opacity="1" stroke="none" d="m 24.135343,1037.7559 q 0,0.3206 -0.191862,0.4961 -0.173146,0.159 -0.44456,0.159 -0.271415,0 -0.444561,-0.159 -0.191861,-0.1755 -0.191861,-0.4961 0,-0.3182 0.191861,-0.496 0.173146,-0.1592 0.442221,-0.1592 0.269074,0 0.444561,0.1592 0.194201,0.1778 0.194201,0.496 z m -0.336928,0 q 0,-0.1544 -0.05381,-0.248 -0.07487,-0.131 -0.245678,-0.131 -0.168465,0 -0.243338,0.1287 -0.05616,0.098 -0.05616,0.2503 0,0.1543 0.05381,0.2479 0.07487,0.1312 0.245679,0.1312 0.168463,0 0.243337,-0.1287 0.05616,-0.098 0.05616,-0.2504 z" font-family="Helvetica" font-size="3.404" font-stretch="normal" font-variant="normal" font-weight="bold" letter-spacing="0" text-anchor="start" word-spacing="0" writing-mode="lr-tb"/><path font-style="normal" style="text-align:start;line-height:125%;-inkscape-font-specification:Helvetica Bold" id="path931" fill="#9bce41" fill-opacity="1" stroke="none" d="m 25.56572,1037.7559 q 0,0.3206 -0.191862,0.4961 -0.173145,0.159 -0.444561,0.159 -0.271414,0 -0.444559,-0.159 -0.191862,-0.1755 -0.191862,-0.4961 0,-0.3182 0.191862,-0.496 0.173145,-0.1592 0.44222,-0.1592 0.269075,0 0.44456,0.1592 0.194202,0.1778 0.194202,0.496 z m -0.336929,0 q 0,-0.1544 -0.05381,-0.248 -0.07487,-0.131 -0.245679,-0.131 -0.168463,0 -0.243337,0.1287 -0.05616,0.098 -0.05616,0.2503 0,0.1543 0.05381,0.2479 0.07487,0.1312 0.245678,0.1312 0.168465,0 0.243337,-0.1287 0.05616,-0.098 0.05616,-0.2504 z" font-family="Helvetica" font-size="3.404" font-stretch="normal" font-variant="normal" font-weight="bold" letter-spacing="0" text-anchor="start" word-spacing="0" writing-mode="lr-tb"/><path font-style="normal" style="text-align:start;line-height:125%;-inkscape-font-specification:Helvetica Bold" id="path933" fill="#9bce41" fill-opacity="1" stroke="none" d="m 26.932922,1036.6984 0,1.6798 -0.320551,0 0,-0.1567 q -0.05849,0.098 -0.161444,0.1475 -0.08891,0.043 -0.203561,0.043 -0.259716,0 -0.400104,-0.206 -0.124008,-0.1824 -0.124008,-0.4632 0,-0.3089 0.154425,-0.482 0.140388,-0.159 0.360328,-0.159 0.142727,0 0.240996,0.065 0.06785,0.045 0.11933,0.1287 l 0.0046,-0.5967 0.329877,3e-4 z m -0.87274,1.0669 q 0,0.1426 0.05381,0.2434 0.07019,0.1332 0.212921,0.1332 0.147407,0 0.224619,-0.1099 0.06785,-0.096 0.06785,-0.248 0,-0.1731 -0.05616,-0.2738 -0.07019,-0.1264 -0.226959,-0.1264 -0.145068,0 -0.21526,0.117 -0.06082,0.1007 -0.06082,0.2645 z" font-family="Helvetica" font-size="3.404" font-stretch="normal" font-variant="normal" font-weight="bold" letter-spacing="0" text-anchor="start" word-spacing="0" writing-mode="lr-tb"/><path font-style="normal" style="text-align:start;line-height:125%;-inkscape-font-specification:Leckerli One" id="path5563" fill="#000" fill-opacity=".235" stroke="none" d="m 12.406406,1028.5497 q -0.29,0.04 -0.48,0.04 -0.065,0 -0.065,-0.05 0,-0.115 0.155,-0.24 0.16,-0.13 0.515,-0.225 0.16,-0.57 0.365,-1.045 -0.5,0.025 -0.82,0.33 -0.08,0.08 -0.13,0.125 -0.05,0.045 -0.09,0.045 -0.035,0 -0.07,-0.06 -0.035,-0.06 -0.035,-0.16 0.005,-0.385 0.52,-0.625 0.515,-0.24 1.27,-0.235 l 1.5,0.025 q 0.135,0 0.135,0.105 0,0.03 -0.04,0.11 -0.04,0.075 -0.07,0.165 -0.065,0.18 -0.28,0.18 l -0.16,0 -0.665,0 -0.385,0 q -0.04,0.285 -0.24,0.93 l 0.915,0.015 q 0.08,0 0.08,0.095 0,0.03 -0.025,0.105 -0.025,0.075 -0.045,0.155 -0.04,0.165 -0.17,0.165 l -0.76,-0.035 -0.065,0 q -0.03,0 -0.07,0 -0.26,0.955 -0.26,1.51 0,0.295 -0.575,0.295 -0.125,0 -0.15,-0.125 -0.02,-0.13 -0.02,-0.34 0,-0.45 0.215,-1.255 z" font-family="Leckerli One" font-size="5" font-stretch="normal" font-variant="normal" font-weight="normal" letter-spacing="0" text-anchor="start" word-spacing="0" writing-mode="lr-tb"/><path font-style="normal" style="text-align:start;line-height:125%;-inkscape-font-specification:Leckerli One" id="path5565" fill="#000" fill-opacity=".235" stroke="none" d="m 15.792968,1030.2097 q -0.715,0 -0.975,-0.535 -0.09,-0.19 -0.09,-0.475 0,-0.29 0.05,-0.615 0.1,-0.65 0.385,-1.2 0.145,-0.28 0.325,-0.48 0.395,-0.44 0.88,-0.435 0.215,0 0.335,0.12 0.125,0.115 0.125,0.335 0,0.22 -0.13,0.445 -0.13,0.22 -0.335,0.46 -0.2,0.235 -0.445,0.495 -0.245,0.26 -0.48,0.565 l 0,0.2 q 0,0.28 0.12,0.41 0.12,0.13 0.28,0.13 0.43,0 0.76,-0.425 0.135,-0.175 0.205,-0.175 0.07,0 0.07,0.17 0,0.17 -0.095,0.35 -0.09,0.175 -0.24,0.325 -0.15,0.145 -0.345,0.24 -0.195,0.095 -0.4,0.095 z m 0.27,-2.685 q 0.105,-0.13 0.165,-0.235 0.06,-0.105 0.06,-0.215 0,-0.115 -0.08,-0.115 -0.175,0 -0.39,0.36 -0.21,0.36 -0.315,0.945 0.17,-0.26 0.31,-0.435 0.145,-0.175 0.25,-0.305 z" font-family="Leckerli One" font-size="5" font-stretch="normal" font-variant="normal" font-weight="normal" letter-spacing="0" text-anchor="start" word-spacing="0" writing-mode="lr-tb"/><path font-style="normal" style="text-align:start;line-height:125%;-inkscape-font-specification:Leckerli One" id="path5567" fill="#000" fill-opacity=".235" stroke="none" d="m 18.602265,1029.7697 q -0.395,0.465 -0.95,0.465 -0.55,0 -0.825,-0.28 -0.275,-0.285 -0.27,-0.705 -0.005,-0.595 0.375,-1.025 0.38,-0.43 0.995,-0.43 0.28,0 0.45,0.07 0.295,0.12 0.295,0.225 0,0.08 -0.415,0.085 -0.41,0 -0.69,0.285 -0.275,0.28 -0.275,0.71 0,0.225 0.13,0.38 0.135,0.15 0.375,0.15 0.245,0 0.405,-0.1 -0.355,-0.24 -0.355,-0.695 -0.005,-0.24 0.17,-0.435 0.18,-0.2 0.455,-0.2 0.28,-0.01 0.4,0.15 0.12,0.155 0.12,0.4 0,0.24 -0.115,0.51 l 0.03,0 q 0.22,-0.01 0.38,-0.155 0.06,-0.06 0.1,-0.105 0.045,-0.045 0.09,-0.045 0.07,0 0.07,0.165 0,0.305 -0.18,0.46 -0.18,0.15 -0.4,0.15 -0.215,0 -0.365,-0.03 z m -0.045,-0.58 q 0.085,-0.18 0.085,-0.35 0,-0.17 -0.11,-0.17 -0.045,0 -0.075,0.065 -0.03,0.065 -0.03,0.125 0,0.2 0.13,0.33 z" font-family="Leckerli One" font-size="5" font-stretch="normal" font-variant="normal" font-weight="normal" letter-spacing="0" text-anchor="start" word-spacing="0" writing-mode="lr-tb"/><path font-style="normal" style="text-align:start;line-height:125%;-inkscape-font-specification:Leckerli One" id="path5569" fill="#000" fill-opacity=".235" stroke="none" d="m 20.087109,1027.9947 q 0,0.335 -0.12,0.76 0.01,0.16 0.01,0.31 0.01,0.32 0.08,0.44 0.05,0.065 0.13,0.065 0.155,0 0.385,-0.22 -0.175,-0.415 -0.175,-0.75 0,-0.685 0.645,-0.685 0.22,0 0.365,0.13 0.15,0.125 0.15,0.315 0,0.4 -0.445,0.96 0.185,0.22 0.3,0.255 0.165,0 0.495,-0.61 -0.06,-0.225 -0.06,-0.42 0,-0.355 0.11,-0.52 0.135,-0.21 0.445,-0.21 0.315,0 0.355,0.255 0.01,0.075 0.01,0.16 0,0.32 -0.355,0.885 0.125,0.18 0.235,0.215 0.23,0 0.39,-0.155 0.06,-0.055 0.1,-0.1 0.045,-0.05 0.09,-0.05 0.07,0 0.07,0.165 0,0.305 -0.18,0.45 -0.18,0.145 -0.47,0.145 -0.29,0 -0.505,-0.28 -0.26,0.34 -0.43,0.475 -0.31,0.255 -0.485,0.255 -0.085,0 -0.22,-0.14 -0.13,-0.145 -0.26,-0.375 -0.24,0.225 -0.475,0.37 -0.235,0.145 -0.395,0.145 -0.29,0 -0.49,-1.26 -0.07,-0.43 -0.07,-0.59 0.01,-0.33 0.09,-0.46 0.11,-0.16 0.43,-0.16 0.12,0 0.185,0.075 0.065,0.07 0.065,0.155 z m 0.855,0.9 q 0.165,-0.255 0.165,-0.405 0,-0.155 -0.105,-0.155 -0.07,0 -0.09,0.08 -0.015,0.075 -0.015,0.2 0,0.125 0.045,0.28 z" font-family="Leckerli One" font-size="5" font-stretch="normal" font-variant="normal" font-weight="normal" letter-spacing="0" text-anchor="start" word-spacing="0" writing-mode="lr-tb"/><path font-style="normal" style="text-align:start;line-height:125%;-inkscape-font-specification:Leckerli One" id="path5571" fill="#000" fill-opacity=".235" stroke="none" d="m 25.061406,1029.0147 q 0.09,0 0.09,0.155 0,0.15 -0.08,0.325 -0.075,0.175 -0.235,0.34 -0.155,0.16 -0.4,0.275 -0.245,0.115 -0.58,0.115 -0.33,0 -0.58,-0.195 -0.25,-0.2 -0.25,-0.57 0,-0.375 0.115,-0.675 0.12,-0.305 0.31,-0.525 0.195,-0.22 0.44,-0.34 0.245,-0.125 0.465,-0.125 0.385,0 0.385,0.305 0,0.175 -0.075,0.28 -0.07,0.105 -0.145,0.105 -0.1,0 -0.175,-0.07 -0.075,-0.07 -0.165,-0.07 -0.09,-0.01 -0.175,0.085 -0.08,0.09 -0.135,0.23 -0.11,0.28 -0.11,0.655 0.005,0.18 0.165,0.27 0.11,0.06 0.26,0.065 0.15,0 0.285,-0.1 0.14,-0.1 0.255,-0.215 0.115,-0.12 0.2,-0.22 0.09,-0.1 0.135,-0.1 z" font-family="Leckerli One" font-size="5" font-stretch="normal" font-variant="normal" font-weight="normal" letter-spacing="0" text-anchor="start" word-spacing="0" writing-mode="lr-tb"/><path font-style="normal" style="text-align:start;line-height:125%;-inkscape-font-specification:Leckerli One" id="path5573" fill="#000" fill-opacity=".235" stroke="none" d="m 26.567578,1028.5147 q 0,-0.18 -0.215,-0.18 -0.21,0 -0.415,0.33 -0.205,0.325 -0.255,0.665 0.01,0.115 0.02,0.23 0.01,0.115 0.01,0.225 0,0.265 -0.175,0.36 -0.08,0.045 -0.155,0.085 -0.07,0.04 -0.165,0.04 -0.095,0 -0.17,-0.125 -0.07,-0.13 -0.07,-0.4 0,-0.755 0.11,-1.31 0.17,-0.86 0.675,-1.84 0.07,-0.135 0.205,-0.13 0.135,0 0.22,0.185 0.085,0.185 0.08,0.31 0,0.125 -0.04,0.245 -0.035,0.115 -0.095,0.23 -0.055,0.11 -0.13,0.23 -0.07,0.115 -0.14,0.25 l -0.075,0.36 q 0.195,-0.325 0.525,-0.435 0.12,-0.04 0.265,-0.04 0.34,0 0.515,0.155 0.175,0.15 0.175,0.43 0,0.275 -0.075,0.56 -0.07,0.285 -0.105,0.41 -0.03,0.12 -0.03,0.2 0,0.08 0.055,0.08 0.075,0 0.185,-0.095 0.11,-0.095 0.22,-0.205 0.11,-0.115 0.2,-0.21 0.095,-0.095 0.13,-0.095 0.07,0 0.07,0.17 0,0.35 -0.345,0.675 -0.58,0.34 -0.74,0.34 -0.015,0 -0.02,0 -0.4,0 -0.4,-0.64 0,-0.275 0.05,-0.505 0.055,-0.23 0.08,-0.335 0.025,-0.105 0.025,-0.215 z" font-family="Leckerli One" font-size="5" font-stretch="normal" font-variant="normal" font-weight="normal" letter-spacing="0" text-anchor="start" word-spacing="0" writing-mode="lr-tb"/><path font-style="normal" style="text-align:start;line-height:125%;-inkscape-font-specification:Leckerli One" id="path5575" fill="#000" fill-opacity=".235" stroke="none" d="m 30.73625,1029.0147 q 0.09,0 0.09,0.23 0,0.125 -0.105,0.305 -0.105,0.175 -0.275,0.325 -0.165,0.145 -0.37,0.24 -0.205,0.095 -0.4,0.095 -0.265,0 -0.355,-0.465 -0.13,0.215 -0.34,0.355 -0.21,0.135 -0.565,0.135 -0.35,0 -0.565,-0.22 -0.215,-0.22 -0.21,-0.535 0,-0.85 0.565,-1.34 0.24,-0.205 0.445,-0.27 0.21,-0.065 0.44,-0.065 0.23,0 0.375,0.08 0.07,-0.145 0.16,-0.145 0.175,0 0.33,0.155 0.16,0.15 0.16,0.285 -0.07,0.165 -0.205,0.395 -0.04,0.23 -0.04,0.645 0,0.415 0.105,0.415 0.13,0 0.63,-0.52 0.09,-0.1 0.13,-0.1 z m -2.36,0.3 q 0,0.385 0.285,0.385 0.305,0 0.505,-0.325 0.07,-0.11 0.115,-0.27 0,-0.56 0.1,-0.96 -0.405,0.08 -0.705,0.39 -0.3,0.31 -0.3,0.78 z" font-family="Leckerli One" font-size="5" font-stretch="normal" font-variant="normal" font-weight="normal" letter-spacing="0" text-anchor="start" word-spacing="0" writing-mode="lr-tb"/><path font-style="normal" style="text-align:start;line-height:125%;-inkscape-font-specification:Leckerli One" id="path5577" fill="#000" fill-opacity=".235" stroke="none" d="m 31.306406,1029.3547 0.03,0.61 q 0,0.12 -0.125,0.215 -0.125,0.095 -0.34,0.095 -0.125,0 -0.175,-0.13 -0.045,-0.13 -0.045,-0.38 0,-0.525 0.05,-0.82 0.055,-0.3 0.21,-0.605 -0.23,-0.22 -0.23,-0.38 0,-0.335 0.36,-0.335 0.185,0 0.325,0.195 0.1,0.135 0.145,0.315 0.07,0.025 0.175,0.025 0.145,0 0.335,-0.095 l 0.13,-0.065 q 0.06,-0.03 0.105,-0.03 0.145,0 0.29,0.425 -0.045,0.195 -0.1,0.375 -0.05,0.18 -0.12,0.435 -0.07,0.255 -0.075,0.345 0,0.085 0.055,0.085 0.075,0 0.185,-0.095 0.11,-0.095 0.22,-0.205 0.11,-0.115 0.2,-0.21 0.095,-0.095 0.13,-0.095 0.07,0 0.07,0.17 0,0.345 -0.305,0.68 -0.3,0.335 -0.69,0.33 -0.23,0 -0.345,-0.185 -0.115,-0.185 -0.12,-0.45 0,-0.525 0.235,-0.995 -0.11,0.045 -0.25,0.045 -0.135,0 -0.195,-0.01 -0.045,0.19 -0.09,0.385 -0.045,0.19 -0.045,0.355 z" font-family="Leckerli One" font-size="5" font-stretch="normal" font-variant="normal" font-weight="normal" letter-spacing="0" text-anchor="start" word-spacing="0" writing-mode="lr-tb"/><path font-style="normal" style="text-align:start;line-height:125%;-inkscape-font-specification:Leckerli One" id="path5579" fill="#000" fill-opacity=".235" stroke="none" d="m 33.081562,1029.9247 q -0.055,-0.135 -0.08,-0.31 -0.025,-0.18 -0.025,-0.5 0,-0.32 0.12,-0.865 l -0.225,0 q -0.06,0 -0.06,-0.05 0,-0.12 0.02,-0.195 0.025,-0.08 0.11,-0.18 l 0.12,0 q 0.07,0 0.15,0 0.24,-0.77 0.49,-0.77 0.2,0 0.28,0.255 0.02,0.07 0.045,0.15 l -0.205,0.36 q 0.35,0.01 0.44,0.01 0.095,0 0.1,0.02 0.01,0.015 0.01,0.05 0,0.09 -0.045,0.225 -0.04,0.135 -0.095,0.13 l -0.5,-0.025 q -0.105,0.61 -0.105,1.01 0,0.4 0.115,0.4 0.095,0 0.345,-0.155 0.25,-0.16 0.36,-0.305 0.11,-0.145 0.18,-0.145 0.07,0 0.07,0.17 0,0.17 -0.12,0.35 -0.12,0.175 -0.305,0.325 -0.18,0.145 -0.405,0.24 -0.22,0.095 -0.385,0.095 -0.165,0 -0.255,-0.075 -0.085,-0.08 -0.145,-0.21 z" font-family="Leckerli One" font-size="5" font-stretch="normal" font-variant="normal" font-weight="normal" letter-spacing="0" text-anchor="start" word-spacing="0" writing-mode="lr-tb"/><path font-style="normal" style="text-align:start;line-height:125%;-inkscape-font-specification:Leckerli One" id="path5581" fill="#000" fill-opacity=".235" stroke="none" d="m 35.583593,1027.7747 q 0.335,0 0.5,0.125 0.165,0.125 0.165,0.365 0,0.235 -0.145,0.405 -0.14,0.165 -0.345,0.235 0.145,0.15 0.26,0.305 0.12,0.155 0.12,0.325 0,0.335 -0.265,0.52 -0.265,0.18 -0.74,0.18 -0.47,0 -0.705,-0.185 -0.235,-0.19 -0.235,-0.425 0,-0.24 0.115,-0.435 0.12,-0.195 0.255,-0.195 0.08,0 0.115,0.06 0.035,0.055 0.13,0.33 0.035,0.1 0.115,0.19 0.185,0.205 0.585,0.205 -0.06,-0.19 -0.195,-0.325 -0.13,-0.14 -0.26,-0.27 -0.13,-0.13 -0.23,-0.275 -0.1,-0.15 -0.1,-0.35 0,-0.36 0.27,-0.585 0.255,-0.2 0.59,-0.2 z m -0.02,0.925 q 0.2,-0.215 0.2,-0.345 0,-0.06 -0.045,-0.105 -0.04,-0.05 -0.12,-0.05 -0.08,0 -0.155,0.02 -0.07,0.02 -0.115,0.03 0,0.19 0.235,0.45 z" font-family="Leckerli One" font-size="5" font-stretch="normal" font-variant="normal" font-weight="normal" letter-spacing="0" text-anchor="start" word-spacing="0" writing-mode="lr-tb"/><path font-style="normal" style="text-align:start;line-height:125%;-inkscape-font-specification:Leckerli One" id="path5584" fill="url(#linearGradient5614)" fill-opacity="1" stroke="none" d="m 12.406406,1028.1502 q -0.29,0.04 -0.48,0.04 -0.065,0 -0.065,-0.05 0,-0.115 0.155,-0.24 0.16,-0.13 0.515,-0.225 0.16,-0.57 0.365,-1.045 -0.5,0.025 -0.82,0.33 -0.08,0.08 -0.13,0.125 -0.05,0.045 -0.09,0.045 -0.035,0 -0.07,-0.06 -0.035,-0.06 -0.035,-0.16 0.005,-0.385 0.52,-0.625 0.515,-0.24 1.27,-0.235 l 1.5,0.025 q 0.135,0 0.135,0.105 0,0.03 -0.04,0.11 -0.04,0.075 -0.07,0.165 -0.065,0.18 -0.28,0.18 l -0.16,0 -0.665,0 -0.385,0 q -0.04,0.285 -0.24,0.93 l 0.915,0.015 q 0.08,0 0.08,0.095 0,0.03 -0.025,0.105 -0.025,0.075 -0.045,0.155 -0.04,0.165 -0.17,0.165 l -0.76,-0.035 -0.065,0 q -0.03,0 -0.07,0.01 -0.26,0.955 -0.26,1.51 0,0.295 -0.575,0.295 -0.125,0 -0.15,-0.125 -0.02,-0.13 -0.02,-0.34 0,-0.45 0.215,-1.255 z" font-family="Leckerli One" font-size="5" font-stretch="normal" font-variant="normal" font-weight="normal" letter-spacing="0" text-anchor="start" word-spacing="0" writing-mode="lr-tb"/><path font-style="normal" style="text-align:start;line-height:125%;-inkscape-font-specification:Leckerli One" id="path5586" fill="url(#linearGradient5616)" fill-opacity="1" stroke="none" d="m 15.792968,1029.8102 q -0.715,0.01 -0.975,-0.535 -0.09,-0.19 -0.09,-0.475 0,-0.29 0.05,-0.615 0.1,-0.65 0.385,-1.2 0.145,-0.28 0.325,-0.48 0.395,-0.44 0.88,-0.435 0.215,0 0.335,0.12 0.125,0.115 0.125,0.335 0,0.22 -0.13,0.445 -0.13,0.22 -0.335,0.46 -0.2,0.235 -0.445,0.495 -0.245,0.26 -0.48,0.565 l 0,0.2 q 0,0.28 0.12,0.41 0.12,0.13 0.28,0.13 0.43,0 0.76,-0.425 0.135,-0.175 0.205,-0.175 0.07,0 0.07,0.17 0,0.17 -0.095,0.35 -0.09,0.175 -0.24,0.325 -0.15,0.145 -0.345,0.24 -0.195,0.095 -0.4,0.095 z m 0.27,-2.685 q 0.105,-0.13 0.165,-0.235 0.06,-0.105 0.06,-0.215 0,-0.115 -0.08,-0.115 -0.175,0 -0.39,0.36 -0.21,0.36 -0.315,0.945 0.17,-0.26 0.31,-0.435 0.145,-0.175 0.25,-0.305 z" font-family="Leckerli One" font-size="5" font-stretch="normal" font-variant="normal" font-weight="normal" letter-spacing="0" text-anchor="start" word-spacing="0" writing-mode="lr-tb"/><path font-style="normal" style="text-align:start;line-height:125%;-inkscape-font-specification:Leckerli One" id="path5588" fill="url(#linearGradient5618)" fill-opacity="1" stroke="none" d="m 18.602265,1029.3702 q -0.395,0.465 -0.95,0.465 -0.55,0 -0.825,-0.28 -0.275,-0.285 -0.27,-0.705 -0.005,-0.595 0.375,-1.025 0.38,-0.43 0.995,-0.43 0.28,0 0.45,0.07 0.295,0.12 0.295,0.225 0,0.08 -0.415,0.085 -0.41,0 -0.69,0.285 -0.275,0.28 -0.275,0.71 0,0.225 0.13,0.38 0.135,0.15 0.375,0.15 0.245,0 0.405,-0.1 -0.355,-0.24 -0.355,-0.695 -0.005,-0.24 0.17,-0.435 0.18,-0.2 0.455,-0.2 0.28,-0.01 0.4,0.15 0.12,0.155 0.12,0.4 0,0.24 -0.115,0.51 l 0.03,0 q 0.22,-0.01 0.38,-0.155 0.06,-0.06 0.1,-0.105 0.045,-0.045 0.09,-0.045 0.07,0 0.07,0.165 0,0.305 -0.18,0.46 -0.18,0.15 -0.4,0.15 -0.215,0 -0.365,-0.03 z m -0.045,-0.58 q 0.085,-0.18 0.085,-0.35 0,-0.17 -0.11,-0.17 -0.045,0 -0.075,0.065 -0.03,0.065 -0.03,0.125 0,0.2 0.13,0.33 z" font-family="Leckerli One" font-size="5" font-stretch="normal" font-variant="normal" font-weight="normal" letter-spacing="0" text-anchor="start" word-spacing="0" writing-mode="lr-tb"/><path font-style="normal" style="text-align:start;line-height:125%;-inkscape-font-specification:Leckerli One" id="path5590" fill="url(#linearGradient5620)" fill-opacity="1" stroke="none" d="m 20.087109,1027.5952 q 0,0.335 -0.12,0.76 0.01,0.16 0.01,0.31 0.01,0.32 0.08,0.44 0.05,0.065 0.13,0.065 0.155,0 0.385,-0.22 -0.175,-0.415 -0.175,-0.75 0,-0.685 0.645,-0.685 0.22,0 0.365,0.13 0.15,0.125 0.15,0.315 0,0.4 -0.445,0.96 0.185,0.22 0.3,0.255 0.165,0 0.495,-0.61 -0.06,-0.225 -0.06,-0.42 0,-0.355 0.11,-0.52 0.135,-0.21 0.445,-0.21 0.315,0 0.355,0.255 0.01,0.075 0.01,0.16 0,0.32 -0.355,0.885 0.125,0.18 0.235,0.215 0.23,0 0.39,-0.155 0.06,-0.055 0.1,-0.1 0.045,-0.05 0.09,-0.05 0.07,0 0.07,0.165 0,0.305 -0.18,0.45 -0.18,0.145 -0.47,0.145 -0.29,0 -0.505,-0.28 -0.26,0.34 -0.43,0.475 -0.31,0.255 -0.485,0.255 -0.085,0 -0.22,-0.14 -0.13,-0.145 -0.26,-0.375 -0.24,0.225 -0.475,0.37 -0.235,0.145 -0.395,0.145 -0.29,0 -0.49,-1.26 -0.07,-0.43 -0.07,-0.59 0.01,-0.33 0.09,-0.46 0.11,-0.16 0.43,-0.16 0.12,0 0.185,0.075 0.065,0.07 0.065,0.155 z m 0.855,0.9 q 0.165,-0.255 0.165,-0.405 0,-0.155 -0.105,-0.155 -0.07,0 -0.09,0.08 -0.015,0.075 -0.015,0.2 0,0.125 0.045,0.28 z" font-family="Leckerli One" font-size="5" font-stretch="normal" font-variant="normal" font-weight="normal" letter-spacing="0" text-anchor="start" word-spacing="0" writing-mode="lr-tb"/><path font-style="normal" style="text-align:start;line-height:125%;-inkscape-font-specification:Leckerli One" id="path5592" fill="url(#linearGradient5622)" fill-opacity="1" stroke="none" d="m 25.061406,1028.6152 q 0.09,0 0.09,0.155 0,0.15 -0.08,0.325 -0.075,0.175 -0.235,0.34 -0.155,0.16 -0.4,0.275 -0.245,0.115 -0.58,0.115 -0.33,0 -0.58,-0.195 -0.25,-0.2 -0.25,-0.57 0,-0.375 0.115,-0.675 0.12,-0.305 0.31,-0.525 0.195,-0.22 0.44,-0.34 0.245,-0.125 0.465,-0.125 0.385,0 0.385,0.305 0,0.175 -0.075,0.28 -0.07,0.105 -0.145,0.105 -0.1,0 -0.175,-0.07 -0.075,-0.07 -0.165,-0.07 -0.09,-0.01 -0.175,0.085 -0.08,0.09 -0.135,0.23 -0.11,0.28 -0.11,0.655 0.005,0.18 0.165,0.27 0.11,0.06 0.26,0.065 0.15,0 0.285,-0.1 0.14,-0.1 0.255,-0.215 0.115,-0.12 0.2,-0.22 0.09,-0.1 0.135,-0.1 z" font-family="Leckerli One" font-size="5" font-stretch="normal" font-variant="normal" font-weight="normal" letter-spacing="0" text-anchor="start" word-spacing="0" writing-mode="lr-tb"/><path font-style="normal" style="text-align:start;line-height:125%;-inkscape-font-specification:Leckerli One" id="path5594" fill="url(#linearGradient5624)" fill-opacity="1" stroke="none" d="m 26.567578,1028.1152 q 0,-0.18 -0.215,-0.18 -0.21,0 -0.415,0.33 -0.205,0.325 -0.255,0.665 0.01,0.115 0.02,0.23 0.01,0.115 0.01,0.225 0,0.265 -0.175,0.36 -0.08,0.045 -0.155,0.085 -0.07,0.04 -0.165,0.04 -0.095,0 -0.17,-0.125 -0.07,-0.13 -0.07,-0.4 0,-0.755 0.11,-1.31 0.17,-0.86 0.675,-1.84 0.07,-0.135 0.205,-0.13 0.135,0 0.22,0.185 0.085,0.185 0.08,0.31 0,0.125 -0.04,0.245 -0.035,0.115 -0.095,0.23 -0.055,0.11 -0.13,0.23 -0.07,0.115 -0.14,0.25 l -0.075,0.36 q 0.195,-0.325 0.525,-0.435 0.12,-0.04 0.265,-0.04 0.34,0 0.515,0.155 0.175,0.15 0.175,0.43 0,0.275 -0.075,0.56 -0.07,0.285 -0.105,0.41 -0.03,0.12 -0.03,0.2 0,0.08 0.055,0.08 0.075,0 0.185,-0.095 0.11,-0.095 0.22,-0.205 0.11,-0.115 0.2,-0.21 0.095,-0.095 0.13,-0.095 0.07,0 0.07,0.17 0,0.35 -0.345,0.675 -0.58,0.34 -0.74,0.34 -0.015,0 -0.02,-0.01 -0.4,0 -0.4,-0.64 0,-0.275 0.05,-0.505 0.055,-0.23 0.08,-0.335 0.025,-0.105 0.025,-0.215 z" font-family="Leckerli One" font-size="5" font-stretch="normal" font-variant="normal" font-weight="normal" letter-spacing="0" text-anchor="start" word-spacing="0" writing-mode="lr-tb"/><path font-style="normal" style="text-align:start;line-height:125%;-inkscape-font-specification:Leckerli One" id="path5596" fill="url(#linearGradient5626)" fill-opacity="1" stroke="none" d="m 30.73625,1028.6152 q 0.09,0 0.09,0.23 0,0.125 -0.105,0.305 -0.105,0.175 -0.275,0.325 -0.165,0.145 -0.37,0.24 -0.205,0.095 -0.4,0.095 -0.265,0 -0.355,-0.465 -0.13,0.215 -0.34,0.355 -0.21,0.135 -0.565,0.135 -0.35,0 -0.565,-0.22 -0.215,-0.22 -0.21,-0.535 0,-0.85 0.565,-1.34 0.24,-0.205 0.445,-0.27 0.21,-0.065 0.44,-0.065 0.23,0 0.375,0.08 0.07,-0.145 0.16,-0.145 0.175,0 0.33,0.155 0.16,0.15 0.16,0.285 -0.07,0.165 -0.205,0.395 -0.04,0.23 -0.04,0.645 0,0.415 0.105,0.415 0.13,0 0.63,-0.52 0.09,-0.1 0.13,-0.1 z m -2.36,0.3 q 0,0.385 0.285,0.385 0.305,0 0.505,-0.325 0.07,-0.11 0.115,-0.27 0,-0.56 0.1,-0.96 -0.405,0.08 -0.705,0.39 -0.3,0.31 -0.3,0.78 z" font-family="Leckerli One" font-size="5" font-stretch="normal" font-variant="normal" font-weight="normal" letter-spacing="0" text-anchor="start" word-spacing="0" writing-mode="lr-tb"/><path font-style="normal" style="text-align:start;line-height:125%;-inkscape-font-specification:Leckerli One" id="path5598" fill="url(#linearGradient5628)" fill-opacity="1" stroke="none" d="m 31.306406,1028.9552 0.03,0.61 q 0,0.12 -0.125,0.215 -0.125,0.095 -0.34,0.095 -0.125,0 -0.175,-0.13 -0.045,-0.13 -0.045,-0.38 0,-0.525 0.05,-0.82 0.055,-0.3 0.21,-0.605 -0.23,-0.22 -0.23,-0.38 0,-0.335 0.36,-0.335 0.185,0 0.325,0.195 0.1,0.135 0.145,0.315 0.07,0.025 0.175,0.025 0.145,0 0.335,-0.095 l 0.13,-0.065 q 0.06,-0.03 0.105,-0.03 0.145,0 0.29,0.425 -0.045,0.195 -0.1,0.375 -0.05,0.18 -0.12,0.435 -0.07,0.255 -0.075,0.345 0,0.085 0.055,0.085 0.075,0 0.185,-0.095 0.11,-0.095 0.22,-0.205 0.11,-0.115 0.2,-0.21 0.095,-0.095 0.13,-0.095 0.07,0 0.07,0.17 0,0.345 -0.305,0.68 -0.3,0.335 -0.69,0.33 -0.23,0 -0.345,-0.185 -0.115,-0.185 -0.12,-0.45 0,-0.525 0.235,-0.995 -0.11,0.045 -0.25,0.045 -0.135,0 -0.195,-0.01 -0.045,0.19 -0.09,0.385 -0.045,0.19 -0.045,0.355 z" font-family="Leckerli One" font-size="5" font-stretch="normal" font-variant="normal" font-weight="normal" letter-spacing="0" text-anchor="start" word-spacing="0" writing-mode="lr-tb"/><path font-style="normal" style="text-align:start;line-height:125%;-inkscape-font-specification:Leckerli One" id="path5600" fill="url(#linearGradient5630)" fill-opacity="1" stroke="none" d="m 33.081562,1029.5252 q -0.055,-0.135 -0.08,-0.31 -0.025,-0.18 -0.025,-0.5 0,-0.32 0.12,-0.865 l -0.225,0 q -0.06,0 -0.06,-0.05 0,-0.12 0.02,-0.195 0.025,-0.08 0.11,-0.18 l 0.12,0 q 0.07,0 0.15,0 0.24,-0.77 0.49,-0.77 0.2,0 0.28,0.255 0.02,0.07 0.045,0.15 l -0.205,0.36 q 0.35,0.01 0.44,0.01 0.095,0 0.1,0.02 0.01,0.015 0.01,0.05 0,0.09 -0.045,0.225 -0.04,0.135 -0.095,0.13 l -0.5,-0.025 q -0.105,0.61 -0.105,1.01 0,0.4 0.115,0.4 0.095,0 0.345,-0.155 0.25,-0.16 0.36,-0.305 0.11,-0.145 0.18,-0.145 0.07,0 0.07,0.17 0,0.17 -0.12,0.35 -0.12,0.175 -0.305,0.325 -0.18,0.145 -0.405,0.24 -0.22,0.095 -0.385,0.095 -0.165,0 -0.255,-0.075 -0.085,-0.08 -0.145,-0.21 z" font-family="Leckerli One" font-size="5" font-stretch="normal" font-variant="normal" font-weight="normal" letter-spacing="0" text-anchor="start" word-spacing="0" writing-mode="lr-tb"/><path font-style="normal" style="text-align:start;line-height:125%;-inkscape-font-specification:Leckerli One" id="path5602" fill="url(#linearGradient5632)" fill-opacity="1" stroke="none" d="m 35.583593,1027.3752 q 0.335,0 0.5,0.125 0.165,0.125 0.165,0.365 0,0.235 -0.145,0.405 -0.14,0.165 -0.345,0.235 0.145,0.15 0.26,0.305 0.12,0.155 0.12,0.325 0,0.335 -0.265,0.52 -0.265,0.18 -0.74,0.18 -0.47,0 -0.705,-0.185 -0.235,-0.19 -0.235,-0.425 0,-0.24 0.115,-0.435 0.12,-0.195 0.255,-0.195 0.08,0 0.115,0.06 0.035,0.055 0.13,0.33 0.035,0.1 0.115,0.19 0.185,0.205 0.585,0.205 -0.06,-0.19 -0.195,-0.325 -0.13,-0.14 -0.26,-0.27 -0.13,-0.13 -0.23,-0.275 -0.1,-0.15 -0.1,-0.35 0,-0.36 0.27,-0.585 0.255,-0.2 0.59,-0.2 z m -0.02,0.925 q 0.2,-0.215 0.2,-0.345 0,-0.06 -0.045,-0.105 -0.04,-0.05 -0.12,-0.05 -0.08,0 -0.155,0.02 -0.07,0.02 -0.115,0.03 0,0.19 0.235,0.45 z" font-family="Leckerli One" font-size="5" font-stretch="normal" font-variant="normal" font-weight="normal" letter-spacing="0" text-anchor="start" word-spacing="0" writing-mode="lr-tb"/><path id="path5958" fill="#000" fill-opacity=".235" stroke="none" d="m 39.023438,1029.9339 c -0.06127,-0.021 -0.133835,-0.019 -0.212891,0.022 -0.232603,0.1206 -0.468207,0.2355 -0.701172,0.3555 -0.05666,-0.1088 -0.185115,-0.1818 -0.341797,-0.1075 -0.08402,0.04 -0.169829,0.075 -0.253906,0.1153 -0.05561,-0.022 -0.119695,-0.031 -0.195313,0 l -0.677734,0.2598 c -1.056479,0.3927 -2.110832,0.796 -3.1875,1.1308 -0.316347,0.088 -0.637273,0.1687 -0.945313,0.2832 -0.330738,0.1323 -0.143237,0.5991 0.1875,0.4668 0.291494,-0.1063 0.593837,-0.1824 0.892579,-0.2656 0.199733,-0.062 0.395422,-0.1351 0.59375,-0.2012 0.04169,0.096 0.126079,0.1747 0.271484,0.1504 0.203674,-0.062 0.399701,-0.1469 0.599609,-0.2207 -0.141661,0.1924 0.04138,0.4911 0.3125,0.3555 0.360816,-0.173 0.710633,-0.3675 1.066407,-0.5508 0.87738,-0.4264 1.743452,-0.8732 2.609375,-1.3223 0.237168,-0.1229 0.16623,-0.4044 -0.01758,-0.4687 z"/><path id="path5951" fill="#272b30" fill-opacity="1" stroke="none" d="M 39.023438 25.171875 C 38.962168 25.150447 38.889603 25.152363 38.810547 25.193359 C 38.577944 25.313981 38.34234 25.42891 38.109375 25.548828 C 38.052712 25.440062 37.92426 25.367028 37.767578 25.441406 C 37.683562 25.48129 37.597749 25.516863 37.513672 25.556641 C 37.458061 25.534853 37.393977 25.525768 37.318359 25.554688 L 36.640625 25.814453 C 35.584146 26.207167 34.529793 26.610446 33.453125 26.945312 C 33.136778 27.033393 32.815852 27.113983 32.507812 27.228516 C 32.177074 27.360811 32.364575 27.827607 32.695312 27.695312 C 32.986806 27.588962 33.289149 27.512857 33.587891 27.429688 C 33.787624 27.3678 33.983313 27.294618 34.181641 27.228516 C 34.223329 27.324101 34.30772 27.40314 34.453125 27.378906 C 34.656799 27.316513 34.852826 27.23197 35.052734 27.158203 C 34.911073 27.350615 35.094116 27.64923 35.365234 27.513672 C 35.72605 27.340713 36.075867 27.146199 36.431641 26.962891 C 37.309021 26.536509 38.175093 26.089669 39.041016 25.640625 C 39.278184 25.517636 39.207246 25.236158 39.023438 25.171875 z" transform="translate(0,1004.3622)"/></g></svg>