<svg xmlns="http://www.w3.org/2000/svg" xmlns:svg="http://www.w3.org/2000/svg" xmlns:xlink="http://www.w3.org/1999/xlink" id="svg859" width="48" height="48" version="1.1"><defs id="defs861"><linearGradient id="linearGradient1384" x1="310.041" x2="260.494" y1="733.651" y2="695.972" gradientTransform="matrix(1.0624126,0,0,1.0624126,-280.03229,261.30978)" gradientUnits="userSpaceOnUse" xlink:href="#linearGradient1378"/><linearGradient id="linearGradient1378"><stop id="stop1380" offset="0" stop-color="#fff" stop-opacity=".266"/><stop id="stop1382" offset="1" stop-color="#fff" stop-opacity="0"/></linearGradient><linearGradient id="linearGradient1365" x1="274.547" x2="302.722" y1="698.575" y2="728.879" gradientTransform="translate(-264.57144,304.57269)" gradientUnits="userSpaceOnUse" xlink:href="#linearGradient1378"/><linearGradient id="linearGradient4647" x1="-13.025" x2="-13.025" y1="-1052.863" y2="-1004.769" gradientTransform="translate(47.545873,0.28708731)" gradientUnits="userSpaceOnUse" xlink:href="#linearGradient1877"/><linearGradient id="linearGradient1231" x1="7.366" x2="7.366" y1="45.054" y2="39.786" gradientUnits="userSpaceOnUse" xlink:href="#linearGradient1233"/><linearGradient id="linearGradient1233"><stop id="stop1235" offset="0" stop-color="#e38141" stop-opacity="1"/><stop id="stop1237" offset="1" stop-color="#ffcf00" stop-opacity="1"/></linearGradient><linearGradient id="linearGradient1265" x1="7.366" x2="7.366" y1="45.054" y2="39.786" gradientTransform="translate(275.17805,699.79076)" gradientUnits="userSpaceOnUse" xlink:href="#linearGradient1271"/><linearGradient id="linearGradient1271"><stop id="stop1273" offset="0" stop-color="#8a0" stop-opacity="1"/><stop id="stop1275" offset="1" stop-color="#6f0" stop-opacity="1"/></linearGradient><linearGradient id="linearGradient1285" x1="7.366" x2="7.366" y1="45.054" y2="39.786" gradientTransform="translate(284.82091,699.79076)" gradientUnits="userSpaceOnUse" xlink:href="#linearGradient1293-2"/><linearGradient id="linearGradient1293-2"><stop id="stop1295-3" offset="0" stop-color="#08a" stop-opacity="1"/><stop id="stop1297-5" offset="1" stop-color="#0cf" stop-opacity="1"/></linearGradient><linearGradient id="linearGradient1291" x1="7.366" x2="7.366" y1="45.054" y2="39.786" gradientTransform="translate(296.7852,699.79076)" gradientUnits="userSpaceOnUse" xlink:href="#linearGradient1299"/><linearGradient id="linearGradient1299"><stop id="stop1301" offset="0" stop-color="#aa00d4" stop-opacity="1"/><stop id="stop1303" offset="1" stop-color="#bc5fd3" stop-opacity="1"/></linearGradient><linearGradient id="linearGradient1877"><stop id="stop1879" offset="0" stop-color="#49c7f5" stop-opacity="1"/><stop id="stop2620" offset=".5" stop-color="#015ae0" stop-opacity="1"/><stop id="stop1881" offset="1" stop-color="#0671b0" stop-opacity="1"/></linearGradient></defs><metadata id="metadata864"/><g id="layer1" transform="translate(0,-1004.3622)"><rect id="rect2991-1-7" width="48" height="48" x="0" y="-1052.362" fill="url(#linearGradient4647)" fill-opacity="1" stroke="none" ry="1.945" transform="scale(1,-1)"/><path id="path4818" fill="#000" fill-opacity=".706" stroke="none" d="m 4,1041.3622 0,11 40,0 0,-11 -40,0 z"/><path id="path1357" fill="url(#linearGradient1365)" fill-opacity="1" stroke="none" d="m -2e-7,1016.3947 0,23.5312 C 10.235217,1032.7157 24.386968,1027.7076 35.375,1024.5822 24.040743,1020.952 10.867954,1018.2501 -2e-7,1016.3947 Z" opacity=".5"/><path id="rect1340" fill="#fff" fill-opacity=".152" stroke="none" d="m -2e-7,1004.3634 0,28.125 C 15.025834,1021.9035 38.513348,1016.0106 48,1013.9572 l 0,-9.5938 -48.0000002,0 z"/><path id="path1376" fill="url(#linearGradient1384)" fill-opacity="1" stroke="none" d="m -2e-7,1004.3634 0,25.3438 C 18.843965,1031.1135 37.998652,1036.4199 48,1039.5509 l 0,-15.0312 -34.9375,-20.1563 -13.0625002,0 z"/><g id="g1313" transform="matrix(1.3999876,0,0,1.3999876,-386.49577,7.7142851)"><rect id="rect1255" width="5" height="5" x="279.999" y="739.755" fill="url(#linearGradient1265)" fill-opacity="1" stroke="none"/><circle id="path1279" cx="10.259" cy="42.728" r="1.547" fill="#fff" fill-opacity="1" stroke="none" d="m 11.806157,42.728268 a 1.5467961,1.5467961 0 0 1 -1.546796,1.546796 1.5467961,1.5467961 0 0 1 -1.5467958,-1.546796 1.5467961,1.5467961 0 0 1 1.5467958,-1.546796 1.5467961,1.5467961 0 0 1 1.546796,1.546796 z" transform="matrix(0.65306123,0,0,0.65306123,275.79948,714.35088)"/></g><g id="g1309" transform="matrix(1.3999876,0,0,1.3999876,-389.99565,7.7142851)"><rect id="rect1281" width="5" height="5" x="289.642" y="739.755" fill="url(#linearGradient1285)" fill-opacity="1" stroke="none"/><circle id="path1283" cx="10.259" cy="42.728" r="1.547" fill="#fff" fill-opacity="1" stroke="none" d="m 11.806157,42.728268 a 1.5467961,1.5467961 0 0 1 -1.546796,1.546796 1.5467961,1.5467961 0 0 1 -1.5467958,-1.546796 1.5467961,1.5467961 0 0 1 1.5467958,-1.546796 1.5467961,1.5467961 0 0 1 1.546796,1.546796 z" transform="matrix(0.65306123,0,0,0.65306123,285.44234,714.35088)"/></g><g id="g1305" transform="matrix(1.3999876,0,0,1.3999876,-396.74551,7.7142851)"><rect id="rect1287" width="5" height="5" x="301.607" y="739.755" fill="url(#linearGradient1291)" fill-opacity="1" stroke="none"/><circle id="path1289" cx="10.259" cy="42.728" r="1.547" fill="#fff" fill-opacity="1" stroke="none" d="m 11.806157,42.728268 a 1.5467961,1.5467961 0 0 1 -1.546796,1.546796 1.5467961,1.5467961 0 0 1 -1.5467958,-1.546796 1.5467961,1.5467961 0 0 1 1.5467958,-1.546796 1.5467961,1.5467961 0 0 1 1.546796,1.546796 z" transform="matrix(0.65306123,0,0,0.65306123,297.40663,714.35088)"/></g><g id="g1317" transform="matrix(1.3999877,0,0,1.3999877,-341.64667,7.7142236)"><rect id="rect1223" width="5" height="5" x="4.821" y="39.964" fill="url(#linearGradient1231)" fill-opacity="1" stroke="none" transform="translate(264.57144,699.79077)"/><circle id="path1277" cx="10.259" cy="42.728" r="1.547" fill="#fff" fill-opacity="1" stroke="none" d="m 11.806157,42.728268 a 1.5467961,1.5467961 0 0 1 -1.546796,1.546796 1.5467961,1.5467961 0 0 1 -1.5467958,-1.546796 1.5467961,1.5467961 0 0 1 1.5467958,-1.546796 1.5467961,1.5467961 0 0 1 1.546796,1.546796 z" transform="matrix(0.65306123,0,0,0.65306123,265.19288,714.35088)"/></g><path id="rect846-4" fill="#000" fill-opacity="1" stroke="none" d="m -5.0400391e-6,1049.3622 0,1.0625 c 0,1.0773 0.8602200000391,1.9375 1.9375000400391,1.9375 l 44.125,0 c 1.07728,0 1.9375,-0.8602 1.9375,-1.9375 l 0,-1.0625 c 0,1.0773 -0.86022,1.9375 -1.9375,1.9375 l -44.125,0 c -1.07728004,0 -1.9375000400391,-0.8602 -1.9375000400391,-1.9375 z"/><path id="rect4060" fill="#fff" fill-opacity=".882" stroke="none" d="M 1.9453125,1004.3622 C 0.86803535,1004.3622 0,1005.2302 0,1006.3075 l 0,8.0547 48,0 0,-8.0547 c 0,-1.0773 -0.868035,-1.9453 -1.945312,-1.9453 l -44.1093755,0 z"/><path id="rect4658" fill="#000" fill-opacity=".235" stroke="none" d="m 9.3515625,1004.3622 0,10 0.4999995,0 0,-10 -0.4999995,0 z"/><path id="path4663" fill="#fff" fill-opacity=".118" stroke="none" d="m 9.851562,1004.3622 0,10 0.5,0 0,-10 -0.5,0 z"/><path id="path7515-8" fill="#fff" fill-opacity=".537" stroke="none" d="m 2.531245,1005.0185 c -0.91709,0 -1.67115004,0.6395 -1.84375004,1.5 0.33561004,-0.2799 0.77451004,-0.4375 1.25000004,-0.4375 l 44.125,0 c 0.47549,0 0.91439,0.1576 1.25,0.4375 -0.1726,-0.8605 -0.92666,-1.5 -1.84375,-1.5 l -42.9375,0 z"/><g id="layer1-4" fill="#fff" fill-opacity="1" transform="matrix(0.13333333,0,0,0.13333333,1.9757805,872.84725)"><g id="g1252" fill="#fff" fill-opacity="1" transform="matrix(0.53927737,0,0,-0.53927737,24.005932,1034.3687)"><path id="path1254" fill="#1a1a1a" fill-opacity="1" fill-rule="nonzero" stroke="none" d="m 0,0 c -5.752,0 -10.414,4.774 -10.414,10.669 0,5.889 4.662,10.667 10.414,10.667 5.751,0 10.415,-4.778 10.415,-10.667 C 10.415,4.774 5.751,0 0,0 m 26.015,3.195 c 0.731,2.515 1.123,5.18 1.123,7.941 0,0.233 -0.003,0.461 -0.007,0.691 l -6.071,3.211 c -0.223,1.184 -0.542,2.33 -0.948,3.438 l 3.762,5.896 c -1.373,2.59 -3.133,4.937 -5.208,6.951 L 11.83,29.095 c -0.814,0.551 -1.663,1.042 -2.547,1.472 L 7.816,37.78 c -2.476,0.764 -5.102,1.173 -7.826,1.173 -0.239,0 -0.476,-0.006 -0.712,-0.01 l -3.374,-6.682 c -0.87,-0.183 -1.716,-0.414 -2.538,-0.696 l -6.149,4.118 c -2.561,-1.397 -4.882,-3.207 -6.872,-5.343 l 2.206,-7.103 c -0.516,-0.767 -0.993,-1.574 -1.413,-2.413 l -7.109,-1.52 c -0.776,-2.585 -1.189,-5.324 -1.189,-8.168 0,-0.188 0,-0.369 0.008,-0.554 l 6.2,-3.292 c 0.176,-1.101 0.435,-2.18 0.766,-3.218 l -3.815,-5.968 c 0.001,-0.001 0.002,-0.003 0.003,-0.005 l -0.003,0.004 c 1.181,-2.275 2.661,-4.365 4.388,-6.209 0.246,-0.263 0.498,-0.521 0.755,-0.775 l 6.354,2.069 c 1.015,-0.767 2.093,-1.436 3.236,-2.008 l 1.358,-6.66 c 2.501,-0.778 5.153,-1.197 7.9,-1.197 0.173,0 0.338,0 0.504,0.006 l 2.978,5.899 c 1.364,0.215 2.695,0.572 3.961,1.046 l 5.419,-3.63 c 2.511,1.381 4.782,3.16 6.741,5.251 l -1.985,6.398 c 0.756,1.104 1.416,2.283 1.966,3.52 l 6.441,1.382 z"/></g></g><path id="rect4280-4" fill="#000" fill-opacity=".392" stroke="none" d="m 1.937495,1004.3622 c -1.07728004,0 -1.9375000400391,0.8602 -1.9375000400391,1.9375 l 0,43.0625 c 0,0.7934 0.4800200000391,1.449 1.1562500400391,1.75 -0.30934004,-0.3333 -0.50000004,-0.7824 -0.50000004,-1.2812 l 0,-42.9375 c 0,-1.0482 0.82690004,-1.875 1.87500004,-1.875 l 42.9375,0 c 1.0481,0 1.875,0.8268 1.875,1.875 l 0,42.9375 c 0,0.4988 -0.19066,0.9479 -0.5,1.2812 0.67623,-0.301 1.15625,-0.9566 1.15625,-1.75 l 0,-43.0625 c 0,-1.0773 -0.86022,-1.9375 -1.9375,-1.9375 l -44.125,0 z"/><rect id="rect5383" width="48" height="1" x="0" y="1014.362" fill="#1a1a1a" fill-opacity=".235" stroke="none" ry="0"/><rect id="rect5385" width="48" height="1" x="0" y="1015.362" fill="#1a1a1a" fill-opacity=".059" stroke="none" ry="0"/><rect id="rect5387" width="48" height="1" x="0" y="1016.362" fill="#1a1a1a" fill-opacity=".059" stroke="none" ry="0"/></g></svg>