<svg xmlns="http://www.w3.org/2000/svg" xmlns:svg="http://www.w3.org/2000/svg" xmlns:xlink="http://www.w3.org/1999/xlink" id="svg2" width="48" height="48" version="1.1"><defs id="defs4"><linearGradient id="linearGradient4394"><stop id="stop4396" offset="0" stop-color="#fff" stop-opacity="1"/><stop id="stop4398" offset="1" stop-color="#fff" stop-opacity="0"/></linearGradient><linearGradient id="linearGradient4327"><stop id="stop4329" offset="0" stop-color="#5bae3c" stop-opacity="1"/><stop id="stop4331" offset="1" stop-color="#77c636" stop-opacity="1"/></linearGradient><linearGradient id="linearGradient4321"><stop id="stop4323" offset="0" stop-color="#e8e9eb" stop-opacity="1"/><stop id="stop4325" offset="1" stop-color="#f7f7f7" stop-opacity=".996"/></linearGradient><linearGradient id="linearGradient879"><stop id="stop881" offset="0" stop-color="#6fb1d4" stop-opacity="1"/><stop id="stop883" offset="1" stop-color="#93d0ef" stop-opacity=".997"/></linearGradient><linearGradient id="linearGradient835" x1="30.428" x2="30.428" y1="-1052.382" y2="-1004.353" gradientUnits="userSpaceOnUse" xlink:href="#linearGradient4321"/><linearGradient id="linearGradient4300" x1="25" x2="25" y1="1040.814" y2="1012.615" gradientTransform="matrix(0.96150668,0,0,0.96150668,0.92383975,39.585026)" gradientUnits="userSpaceOnUse" xlink:href="#linearGradient4327"/><linearGradient id="linearGradient4308" x1="18.041" x2="18.041" y1="1043.531" y2="1027.489" gradientTransform="matrix(0.96150668,0,0,0.96150668,0.40318456,38.735247)" gradientUnits="userSpaceOnUse" xlink:href="#linearGradient879"/><linearGradient id="linearGradient4400" x1="24.218" x2="24.218" y1="1013.648" y2="1024.078" gradientTransform="matrix(0.96150668,0,0,0.96150668,0.92383975,38.922697)" gradientUnits="userSpaceOnUse" xlink:href="#linearGradient4394"/><linearGradient id="linearGradient4404" x1="24.218" x2="24.218" y1="1013.648" y2="1024.078" gradientTransform="matrix(0.49857056,0,0,0.49857056,5.2435769,521.83796)" gradientUnits="userSpaceOnUse" xlink:href="#linearGradient4394"/></defs><metadata id="metadata7"/><g id="layer1" transform="translate(0,-1004.3622)"><rect id="rect2991-1" width="48" height="48" x="0" y="-1052.362" fill="url(#linearGradient835)" fill-opacity="1" stroke="none" ry="1.945" transform="scale(1,-1)"/><path id="rect846" fill="#000" fill-opacity="1" stroke="none" d="m -2.5494385e-7,1049.3622 0,1.0625 c 0,1.0773 0.86022290494385,1.9375 1.93749945494385,1.9375 l 44.1250008,0 c 1.077277,0 1.9375,-0.8602 1.9375,-1.9375 l 0,-1.0625 c 0,1.0773 -0.860223,1.9375 -1.9375,1.9375 l -44.1250008,0 C 0.86022265,1051.2997 -2.5494385e-7,1050.4395 -2.5494385e-7,1049.3622 Z"/><path id="path7515" fill="#fff" fill-opacity=".537" stroke="none" d="m 2.5312492,1005.0185 c -0.917088,0 -1.67114625,0.6395 -1.84374945,1.5 0.33561195,-0.2799 0.77451205,-0.4375 1.24999945,-0.4375 l 44.1250008,0 c 0.475488,0 0.914388,0.1576 1.25,0.4375 -0.172603,-0.8605 -0.926662,-1.5 -1.84375,-1.5 L 2.5312492,1005.0185 Z"/><path id="rect4280" fill="#000" fill-opacity=".392" stroke="none" d="m 1.9374992,1004.3622 c -1.07727645,0 -1.93749945494385,0.8602 -1.93749945494385,1.9375 l 0,43.0625 c 0,0.7934 0.48002360494385,1.449 1.15624985494385,1.75 -0.30934155,-0.3333 -0.49999985,-0.7824 -0.49999985,-1.2812 l 0,-42.9375 c 0,-1.0482 0.82689885,-1.875 1.87499945,-1.875 l 42.9375008,0 c 1.048101,0 1.875,0.8268 1.875,1.875 l 0,42.9375 c 0,0.4988 -0.190658,0.9479 -0.5,1.2812 0.676226,-0.301 1.15625,-0.9566 1.15625,-1.75 l 0,-43.0625 c 0,-1.0773 -0.860223,-1.9375 -1.9375,-1.9375 L 1.9374992,1004.3622 Z"/><g id="g4422"><path id="path4274" fill="#286c3b" fill-opacity=".118" stroke="none" d="m 12.530947,1014.4569 c -2.244242,0 -4.0509758,1.8068 -4.0509758,4.051 l 0,15.1154 c 0,2.2442 1.8067338,4.0509 4.0509758,4.0509 l 7.136684,0 13.351524,6.688 -1.385112,-6.688 3.835011,0 c 2.244244,0 4.050975,-1.8067 4.050975,-4.0509 l 0,-15.1152 C 39.52003,1016.2638 37.713298,1014.4569 35.469055,1014.4569 Z"/><path id="path4276" fill="#286c3b" fill-opacity=".235" stroke="none" d="m 12.530947,1013.3237 c -2.244242,0 -4.0509758,1.8069 -4.0509758,4.0509 l 0,15.1155 c 0,2.2442 1.8067338,4.0509 4.0509758,4.0509 l 7.136684,0 13.351524,6.688 -1.385112,-6.688 3.835011,0 c 2.244244,0 4.050975,-1.8067 4.050975,-4.0509 l 0,-15.1153 C 39.52003,1015.1306 37.713298,1013.3237 35.469055,1013.3237 Z"/><path id="path4278" fill="#398744" fill-opacity="1" stroke="none" d="m 12.530947,1012.3622 c -2.244242,0 -4.0509758,1.8069 -4.0509758,4.0509 l 0,15.1155 c 0,2.2441 1.8067338,4.0509 4.0509758,4.0509 l 7.136684,0 13.351524,6.688 -1.385112,-6.688 3.835011,0 c 2.244244,0 4.050975,-1.8068 4.050975,-4.0509 l 0,-15.1154 C 39.52003,1014.1691 37.713298,1012.3622 35.469055,1012.3622 Z"/><path id="path4280" fill="url(#linearGradient4300)" fill-opacity="1" stroke="none" d="m 13.129342,1013.2738 c -2.007479,0 -3.6236076,1.6163 -3.6236076,3.6235 l 0,14.1326 c 0,2.0074 1.6161286,3.6236 3.6236076,3.6236 l 6.99536,0 11.485026,5.6769 -1.085981,-5.6769 4.347231,0 c 2.00748,0 3.623607,-1.6162 3.623607,-3.6236 l 0,-14.1325 C 38.494585,1014.8901 36.878457,1013.2738 34.870978,1013.2738 Z"/><path id="path4272" fill="#234c6a" fill-opacity=".118" stroke="none" d="m 23.660239,1027.5417 c 1.262295,0 2.27851,1.0163 2.27851,2.2785 l 0,8.5018 c 0,1.2623 -1.016215,2.2785 -2.27851,2.2785 l -4.014096,0 -7.509692,3.7617 0.77907,-3.7617 -2.15704,0 c -1.2622966,0 -2.2785098,-1.0162 -2.2785098,-2.2785 l 0,-8.5017 C 8.4799712,1028.558 9.4961844,1027.5417 10.758481,1027.5417 Z"/><rect id="rect4392" width="27.365" height="10.963" x="10.317" y="1014.059" fill="url(#linearGradient4400)" fill-opacity="1" stroke="none" opacity=".54" ry="1.87"/><path id="path4390" fill="#000" fill-opacity=".126" stroke="none" d="m 10.761004,1031.8508 c 14.095861,1.2695 14.041359,2.9819 19.461585,6.1113 l -1.027624,-4.4966 6.273079,0 c 1.541992,0.015 2.318548,-1.8934 2.203538,-2.8135 l 0,-13.8035 C 37.671582,1029.0372 28.095226,1027.2057 10.761004,1031.8508 Z"/><path id="path4270" fill="#234c6a" fill-opacity=".235" stroke="none" d="m 23.660239,1026.9043 c 1.262295,0 2.27851,1.0163 2.27851,2.2785 l 0,8.5018 c 0,1.2623 -1.016215,2.2785 -2.27851,2.2785 l -4.014096,0 -7.509692,3.7617 0.77907,-3.7617 -2.15704,0 c -1.2622966,0 -2.2785098,-1.0162 -2.2785098,-2.2785 l 0,-8.5017 C 8.4799712,1027.9206 9.4961844,1026.9043 10.758481,1026.9043 Z"/><path id="path4268" fill="#34748b" fill-opacity="1" stroke="none" d="m 23.660239,1026.3635 c 1.262295,0 2.27851,1.0163 2.27851,2.2785 l 0,8.5018 c 0,1.2623 -1.016215,2.2785 -2.27851,2.2785 l -4.014096,0 -7.509692,3.7617 0.77907,-3.7617 -2.15704,0 c -1.2622966,0 -2.2785098,-1.0162 -2.2785098,-2.2785 l 0,-8.5018 C 8.4799712,1027.3798 9.4961844,1026.3635 10.758481,1026.3635 Z"/><path id="path4229" fill="url(#linearGradient4308)" fill-opacity="1" stroke="none" d="m 23.323666,1026.8762 c 1.129126,0 2.038133,0.9091 2.038133,2.0381 l 0,7.949 c 0,1.1291 -0.909007,2.0381 -2.038133,2.0381 l -3.934607,0 -6.459862,3.1931 0.61082,-3.1931 -2.445141,0 c -1.1291281,0 -2.0381336,-0.909 -2.0381336,-2.0381 l 0,-7.9489 C 9.0567424,1027.7853 9.9657479,1026.8762 11.094876,1026.8762 Z"/><path id="path4376" fill="#fff" fill-opacity=".471" stroke="none" d="m 12.186948,1014.0594 c -1.035809,0 -1.869691,0.8339 -1.869691,1.8697 l 0,5.1465 c 0.07333,-5.3935 16.192284,-7.0134 25.501371,-7.0156 0.007,0 0.0137,-5e-4 0.02067,-5e-4 l -0.02625,-10e-5 L 12.186948,1014.0594 Z"/><path id="path4380" fill="#fff" fill-opacity=".316" stroke="none" d="m 11.083843,1027.4761 c -0.04347,0 -0.08047,0.019 -0.122397,0.024 5.381906,0.12 13.201629,1.1034 13.342744,3.9642 l 0,-3.0193 c 0,-0.5371 -0.432394,-0.9695 -0.969493,-0.9695 L 11.083843,1027.4761 Z"/><path id="path4388" fill="#000" fill-opacity=".126" stroke="none" d="m 24.307184,1037.5669 c -7.830925,0.7053 -7.48195,1.6568 -10.493146,3.3953 l 0.528402,-2.9704 -3.000615,0 c -0.856651,0.01 -1.288065,-1.0517 -1.224172,-1.5628 l 0,-7.1965 C 10.117653,1036.0041 14.677193,1034.9865 24.307184,1037.5669 Z"/><rect id="rect4402" width="14.19" height="5.685" x="10.114" y="1027.476" fill="url(#linearGradient4404)" fill-opacity="1" stroke="none" opacity=".54" ry=".969"/></g></g></svg>