<svg xmlns="http://www.w3.org/2000/svg" xmlns:svg="http://www.w3.org/2000/svg" xmlns:xlink="http://www.w3.org/1999/xlink" id="svg2" width="48" height="48" version="1.1"><defs id="defs4"><linearGradient id="linearGradient1514"><stop id="stop1516" offset="0" stop-color="#e6e6e6" stop-opacity="1"/><stop id="stop1518" offset="1" stop-color="#fff" stop-opacity="1"/></linearGradient><linearGradient id="linearGradient1440"><stop id="stop1442" offset="0" stop-color="#600303" stop-opacity="1"/><stop id="stop1444" offset="1" stop-color="#d71a1a" stop-opacity="1"/></linearGradient><linearGradient id="linearGradient1425"><stop id="stop1427" offset="0" stop-color="#a40606" stop-opacity="1"/><stop id="stop1429" offset="1" stop-color="#ed2f2f" stop-opacity="1"/></linearGradient><linearGradient id="linearGradient1431" x1="24.125" x2="24.125" y1="-1052.862" y2="-1004.612" gradientTransform="matrix(1,0,0,-1,0,-1004.3622)" gradientUnits="userSpaceOnUse" xlink:href="#linearGradient1425"/><linearGradient id="linearGradient1437" x1="24.125" x2="24.125" y1="-1052.862" y2="-1004.612" gradientTransform="matrix(1,0,0,-1,0,-1004.3622)" gradientUnits="userSpaceOnUse" xlink:href="#linearGradient1440"/><linearGradient id="linearGradient1520" x1="24.313" x2="24.313" y1="48.063" y2="38.875" gradientUnits="userSpaceOnUse" xlink:href="#linearGradient1514"/><linearGradient id="linearGradient1577" x1="13.766" x2="13.766" y1="1051.143" y2="1042.972" gradientTransform="translate(0,0.140625)" gradientUnits="userSpaceOnUse" xlink:href="#linearGradient1440"/></defs><metadata id="metadata7"/><g id="layer1" transform="translate(0,-1004.3622)"><path id="rect1448" fill="url(#linearGradient1520)" fill-opacity="1" stroke="none" d="M 5.6875 38.875 C 3.1598753 38.875 1.125 40.909875 1.125 43.4375 C 1.125 45.965125 3.1598753 48 5.6875 48 L 48 48 L 48 38.875 L 5.6875 38.875 z" transform="translate(0,1004.3622)"/><path id="path1497" fill="#000" fill-opacity=".33" stroke="none" d="M 0.65625 40.3125 L 0.65625 40.6875 C 0.99749177 40.989618 1.4413311 41.1875 1.9375 41.1875 L 46.0625 41.1875 C 46.558669 41.1875 47.002508 40.989618 47.34375 40.6875 L 47.34375 40.3125 C 47.002508 40.614618 46.558669 40.8125 46.0625 40.8125 L 1.9375 40.8125 C 1.4413311 40.8125 0.99749177 40.614618 0.65625 40.3125 z M 0.65625 41.5625 L 0.65625 41.9375 C 0.99749177 42.239618 1.4413311 42.4375 1.9375 42.4375 L 46.0625 42.4375 C 46.558669 42.4375 47.002508 42.239618 47.34375 41.9375 L 47.34375 41.5625 C 47.002508 41.864618 46.558669 42.0625 46.0625 42.0625 L 1.9375 42.0625 C 1.4413311 42.0625 0.99749177 41.864618 0.65625 41.5625 z M 0.65625 42.8125 L 0.65625 43.1875 C 0.99749177 43.489618 1.4413311 43.6875 1.9375 43.6875 L 46.0625 43.6875 C 46.558669 43.6875 47.002508 43.489618 47.34375 43.1875 L 47.34375 42.8125 C 47.002508 43.114618 46.558669 43.3125 46.0625 43.3125 L 1.9375 43.3125 C 1.4413311 43.3125 0.99749177 43.114618 0.65625 42.8125 z M 0.65625 44.0625 L 0.65625 44.4375 C 0.99749177 44.739618 1.4413311 44.9375 1.9375 44.9375 L 46.0625 44.9375 C 46.558669 44.9375 47.002508 44.739618 47.34375 44.4375 L 47.34375 44.0625 C 47.002508 44.364618 46.558669 44.5625 46.0625 44.5625 L 1.9375 44.5625 C 1.4413311 44.5625 0.99749177 44.364618 0.65625 44.0625 z M 0.65625 45.3125 L 0.65625 45.46875 C 0.65625 45.55217 0.67717139 45.638419 0.6875 45.71875 C 1.0243066 46.002983 1.4579046 46.1875 1.9375 46.1875 L 46.0625 46.1875 C 46.542095 46.1875 46.975693 46.002983 47.3125 45.71875 C 47.322829 45.638419 47.34375 45.55217 47.34375 45.46875 L 47.34375 45.3125 C 47.002508 45.614618 46.558669 45.8125 46.0625 45.8125 L 1.9375 45.8125 C 1.4413311 45.8125 0.99749177 45.614618 0.65625 45.3125 z" transform="translate(0,1004.3622)"/><path id="rect1566" fill="url(#linearGradient1577)" fill-opacity="1" stroke="none" d="m 9.78125,1043.2215 0,8.0313 4.03125,-2.0313 4,2 0,-8 L 9.78125,1043.2215 Z"/><path id="rect2991-1" fill="url(#linearGradient1431)" fill-opacity="1" stroke="none" d="M 1.9375,0 C 0.86022285,0 0,0.86022285 0,1.9375 l 0,35 c 0,1.0773 0.86022298,1.9375 1.9375,1.9375 l 2.625,0 41.5,0 C 47.139777,38.875 48,38.0148 48,36.9375 l 0,-35 C 48,0.86022285 47.139777,0 46.0625,0 Z M 0,38 0,43.4375 C 0,42.00394 0.65973457,40.741469 1.6875,39.90625 0.72786097,39.787217 0,38.994126 0,38 z m 0,5.4375 0,2.625 C 0,47.139777 0.86022285,48 1.9375,48 l 2.625,0 C 2.0348753,48 0,45.965125 0,43.4375 Z" transform="translate(0,1004.3622)"/><g id="g4065" fill="#fff" fill-opacity=".235" stroke="none" font-family="Segoe Script" font-size="40" font-stretch="normal" font-style="normal" font-variant="normal" font-weight="normal" letter-spacing="0" transform="matrix(0.94114043,0,0,0.84702639,8.0786403,1004.7486)" word-spacing="0" style="line-height:125%;-inkscape-font-specification:Segoe Script"><path id="path4067" fill="#fff" fill-opacity=".235" d="m 33.227802,21.037403 q 0,0.292969 -0.429687,1.035156 -1.015625,1.464844 -2.285156,2.929688 -1.25,1.464844 -2.675782,2.792969 -1.40625,1.308593 -2.949218,2.460937 -1.523438,1.132813 -3.085938,1.972656 -1.5625,0.820313 -3.125,1.269532 -1.542969,0.449218 -2.988281,0.429687 -3.125,0 -4.863281,-1.816406 -1.7187505,-1.816406 -1.7187505,-5.488281 0,-3.066407 0.9375005,-5.957032 0.957031,-2.890625 3.242187,-5.566406 0.429688,-0.46875 0.957031,-0.898437 0.546875,-0.429688 1.132813,-0.761719 0.605469,-0.332031 1.230469,-0.527344 0.644531,-0.195312 1.289062,-0.234375 0.15625,0 0.429688,0.03906 0.273437,0.03906 0.585937,0.136718 0.3125,0.09766 0.605469,0.253907 0.292969,0.136718 0.46875,0.351562 0.546875,0.625 0.859375,1.289063 0.332031,0.664062 0.371094,1.464843 0.03906,0.898438 -0.214844,1.777344 -0.234375,0.859375 -0.820313,1.777344 -0.566406,0.898437 -1.503906,1.875 -0.9375,0.957031 -2.265625,2.070312 -0.839844,0.703125 -1.875,1.5625 -1.015625,0.839844 -2.460937,1.777344 0,1.894531 1.132812,2.890625 1.152344,0.976563 3.144531,0.976563 1.113282,0 2.246094,-0.292969 1.132813,-0.292969 2.226563,-0.761719 1.09375,-0.488281 2.109375,-1.09375 1.035156,-0.625 1.933593,-1.269531 1.660157,-1.210938 3.007813,-2.402344 1.347656,-1.210937 2.675781,-2.539062 L 31.606709,21.50615 Q 32.56374,20.666306 32.993427,20.666306 33.227802,20.666306 33.227802,21.0374 Z M 18.305927,17.150684 q -0.01953,-0.292968 -0.09766,-0.566406 -0.05859,-0.292969 -0.195312,-0.507812 -0.136719,-0.214844 -0.3125,-0.332032 -0.175782,-0.136718 -0.410157,-0.136718 -1.035156,0.05859 -2.070312,1.269531 -1.035156,1.191406 -1.953125,3.164062 -0.214844,0.429688 -0.390625,0.976563 -0.15625,0.527344 -0.3125,1.09375 -0.136719,0.546875 -0.253906,1.09375 -0.09766,0.546875 -0.175782,0.976562 1.015625,-0.761718 1.875,-1.40625 0.859375,-0.644531 1.601563,-1.328125 0.46875,-0.429687 0.957031,-0.917968 0.488281,-0.507813 0.878906,-1.054688 0.410157,-0.546875 0.644532,-1.132812 Q 18.325455,17.756153 18.305923,17.150684 Z"/></g><path id="path1579" fill="#000" fill-opacity=".212" stroke="none" d="m 13.8125,1049.2063 -4.03125,2.0312 0,0.1875 4.03125,-2.0312 4,2 0,-0.1875 L 13.8125,1049.2063 Z"/><path id="rect1433" fill="url(#linearGradient1437)" fill-opacity="1" stroke="none" d="M 1.9375 0 C 0.86022285 0 0 0.86022285 0 1.9375 L 0 46.0625 C 0 47.139777 0.86022285 48 1.9375 48 L 5.6875 48 C 3.1598753 48 1.125 45.965125 1.125 43.4375 C 1.125 40.909875 3.1598753 38.875 5.6875 38.875 L 10.25 38.875 L 10.25 0 L 1.9375 0 z" transform="translate(0,1004.3622)"/><path id="rect1469" fill="#000" fill-opacity=".128" stroke="none" d="M 9.75 0 L 9.75 38.875 L 10.25 38.875 L 10.25 0 L 9.75 0 z" transform="translate(0,1004.3622)"/><path id="rect1471" fill="#fff" fill-opacity=".129" stroke="none" d="M 10.25 0 L 10.25 38.875 L 10.75 38.875 L 10.75 0 L 10.25 0 z" transform="translate(0,1004.3622)"/><path id="path1480" fill="#000" fill-opacity=".391" stroke="none" d="M 48 36.9375 C 48 38.0148 47.139777 38.875 46.0625 38.875 L 10.25 38.875 L 5.6875 38.875 C 3.1598753 38.875 1.125 40.9099 1.125 43.4375 C 1.125 43.503346 1.1463219 43.563005 1.15625 43.625 C 1.2902571 41.219406 3.247227 39.3125 5.6875 39.3125 L 10.25 39.3125 L 46.0625 39.3125 C 47.139777 39.3125 48 38.4523 48 37.375 L 48 36.9375 z" transform="translate(0,1004.3622)"/><path id="path1493" fill="#000" fill-opacity=".229" stroke="none" d="m 48,1041.7384 c 0,1.0773 -0.860223,1.9375 -1.9375,1.9375 l -35.8125,0 -4.5625,0 c -2.5276247,0 -4.5625,2.0349 -4.5625,4.5625 0,0.066 0.021322,0.1255 0.03125,0.1875 0.1340071,-2.4056 2.090977,-4.3125 4.53125,-4.3125 l 4.5625,0 35.8125,0 c 1.077277,0 1.9375,-0.8602 1.9375,-1.9375 L 48,1041.7384 Z"/><path id="path1495" fill="#000" fill-opacity=".128" stroke="none" d="m 48,1042.1751 c 0,1.0773 -0.860223,1.9375 -1.9375,1.9375 l -35.8125,0 -4.5625,0 c -2.5276247,0 -4.5625,2.0349 -4.5625,4.5625 0,0.066 0.021322,0.1255 0.03125,0.1875 0.1340071,-2.4056 2.090977,-4.3125 4.53125,-4.3125 l 4.5625,0 35.8125,0 c 1.077277,0 1.9375,-0.8602 1.9375,-1.9375 L 48,1042.1751 Z"/><path id="path1522" fill="#000" fill-opacity=".156" stroke="none" d="m 48,36 c 0,1.0773 -0.860223,1.9375 -1.9375,1.9375 l -35.8125,0 -4.5625,0 c -2.5276247,0 -4.5625,2.0349 -4.5625,4.5625 0,0.163922 0.045804,0.309393 0.0625,0.46875 0.2407529,-2.297868 2.1362992,-4.09375 4.5,-4.09375 l 4.5625,0 35.8125,0 C 47.139777,38.875 48,38.0148 48,36.9375 Z" transform="translate(0,1004.3622)"/><g id="text848-4" fill="#000" fill-opacity=".784" stroke="none" font-family="Segoe Script" font-size="40" font-stretch="normal" font-style="normal" font-variant="normal" font-weight="normal" letter-spacing="0" transform="matrix(0.94114043,0,0,0.84702639,8.0786403,1004.0486)" word-spacing="0" style="line-height:125%;-inkscape-font-specification:Segoe Script"><path id="path853-3" fill="#000" fill-opacity=".784" d="m 33.227802,21.037403 q 0,0.292969 -0.429687,1.035156 -1.015625,1.464844 -2.285156,2.929688 -1.25,1.464844 -2.675782,2.792969 -1.40625,1.308593 -2.949218,2.460937 -1.523438,1.132813 -3.085938,1.972656 -1.5625,0.820313 -3.125,1.269532 -1.542969,0.449218 -2.988281,0.429687 -3.125,0 -4.863281,-1.816406 -1.7187505,-1.816406 -1.7187505,-5.488281 0,-3.066407 0.9375005,-5.957032 0.957031,-2.890625 3.242187,-5.566406 0.429688,-0.46875 0.957031,-0.898437 0.546875,-0.429688 1.132813,-0.761719 0.605469,-0.332031 1.230469,-0.527344 0.644531,-0.195312 1.289062,-0.234375 0.15625,0 0.429688,0.03906 0.273437,0.03906 0.585937,0.136718 0.3125,0.09766 0.605469,0.253907 0.292969,0.136718 0.46875,0.351562 0.546875,0.625 0.859375,1.289063 0.332031,0.664062 0.371094,1.464843 0.03906,0.898438 -0.214844,1.777344 -0.234375,0.859375 -0.820313,1.777344 -0.566406,0.898437 -1.503906,1.875 -0.9375,0.957031 -2.265625,2.070312 -0.839844,0.703125 -1.875,1.5625 -1.015625,0.839844 -2.460937,1.777344 0,1.894531 1.132812,2.890625 1.152344,0.976563 3.144531,0.976563 1.113282,0 2.246094,-0.292969 1.132813,-0.292969 2.226563,-0.761719 1.09375,-0.488281 2.109375,-1.09375 1.035156,-0.625 1.933593,-1.269531 1.660157,-1.210938 3.007813,-2.402344 1.347656,-1.210937 2.675781,-2.539062 L 31.606709,21.50615 Q 32.56374,20.666306 32.993427,20.666306 33.227802,20.666306 33.227802,21.0374 Z M 18.305927,17.150684 q -0.01953,-0.292968 -0.09766,-0.566406 -0.05859,-0.292969 -0.195312,-0.507812 -0.136719,-0.214844 -0.3125,-0.332032 -0.175782,-0.136718 -0.410157,-0.136718 -1.035156,0.05859 -2.070312,1.269531 -1.035156,1.191406 -1.953125,3.164062 -0.214844,0.429688 -0.390625,0.976563 -0.15625,0.527344 -0.3125,1.09375 -0.136719,0.546875 -0.253906,1.09375 -0.09766,0.546875 -0.175782,0.976562 1.015625,-0.761718 1.875,-1.40625 0.859375,-0.644531 1.601563,-1.328125 0.46875,-0.429687 0.957031,-0.917968 0.488281,-0.507813 0.878906,-1.054688 0.410157,-0.546875 0.644532,-1.132812 Q 18.325455,17.756153 18.305923,17.150684 Z"/></g><path id="rect846" fill="#000" fill-opacity="1" stroke="none" d="m -2.4158142e-6,1049.3622 0,1.0625 c 0,1.0773 0.8602229958142,1.9375 1.9375000158142,1.9375 l 44.1250004,0 c 1.077277,0 1.937505,-0.8602 1.937505,-1.9375 l 0,-1.0625 c 0,1.0773 -0.860228,1.9375 -1.937505,1.9375 l -44.1250004,0 C 0.86022058,1051.2997 -2.4158142e-6,1050.4395 -2.4158142e-6,1049.3622 Z"/><path id="rect4280-0" fill="#000" fill-opacity=".392" stroke="none" d="m 1.9374976,1004.3622 c -1.07727702,0 -1.9375000158142,0.8602 -1.9375000158142,1.9375 l 0,43.0625 c 0,0.7934 0.4800239958142,1.449 1.1562500158142,1.75 -0.30934202,-0.3333 -0.50000002,-0.7824 -0.50000002,-1.2812 l 0,-42.9375 c 0,-1.0482 0.82689902,-1.875 1.87500002,-1.875 l 42.9375004,0 c 1.048101,0 1.875005,0.8268 1.875005,1.875 l 0,42.9375 c 0,0.4988 -0.190663,0.9479 -0.500005,1.2812 0.676225,-0.301 1.156255,-0.9566 1.156255,-1.75 l 0,-43.0625 c 0,-1.0773 -0.860228,-1.9375 -1.937505,-1.9375 L 1.9374976,1004.3622 Z"/><path id="path7515" fill="#fff" fill-opacity=".537" stroke="none" d="m 2.5312476,1005.0185 c -0.917088,0 -1.67114702,0.6395 -1.84375002,1.5 0.33561202,-0.2799 0.77451202,-0.4375 1.25000002,-0.4375 l 44.1250004,0 c 0.475488,0 0.914388,0.1576 1.250005,0.4375 -0.172608,-0.8605 -0.926667,-1.5 -1.843755,-1.5 L 2.5312476,1005.0185 Z"/><g font-style="normal" style="line-height:125%;-inkscape-font-specification:Segoe Script" id="g4061" fill="#6b0d0d" fill-opacity="1" stroke="none" font-family="Segoe Script" font-size="40" font-stretch="normal" font-variant="normal" font-weight="normal" letter-spacing="0" transform="matrix(0.94114043,0,0,0.84702639,8.0786403,1004.3486)" word-spacing="0"><path id="path4063" fill="#6b0d0d" fill-opacity="1" d="m 33.227802,21.037403 q 0,0.292969 -0.429687,1.035156 -1.015625,1.464844 -2.285156,2.929688 -1.25,1.464844 -2.675782,2.792969 -1.40625,1.308593 -2.949218,2.460937 -1.523438,1.132813 -3.085938,1.972656 -1.5625,0.820313 -3.125,1.269532 -1.542969,0.449218 -2.988281,0.429687 -3.125,0 -4.863281,-1.816406 -1.7187505,-1.816406 -1.7187505,-5.488281 0,-3.066407 0.9375005,-5.957032 0.957031,-2.890625 3.242187,-5.566406 0.429688,-0.46875 0.957031,-0.898437 0.546875,-0.429688 1.132813,-0.761719 0.605469,-0.332031 1.230469,-0.527344 0.644531,-0.195312 1.289062,-0.234375 0.15625,0 0.429688,0.03906 0.273437,0.03906 0.585937,0.136718 0.3125,0.09766 0.605469,0.253907 0.292969,0.136718 0.46875,0.351562 0.546875,0.625 0.859375,1.289063 0.332031,0.664062 0.371094,1.464843 0.03906,0.898438 -0.214844,1.777344 -0.234375,0.859375 -0.820313,1.777344 -0.566406,0.898437 -1.503906,1.875 -0.9375,0.957031 -2.265625,2.070312 -0.839844,0.703125 -1.875,1.5625 -1.015625,0.839844 -2.460937,1.777344 0,1.894531 1.132812,2.890625 1.152344,0.976563 3.144531,0.976563 1.113282,0 2.246094,-0.292969 1.132813,-0.292969 2.226563,-0.761719 1.09375,-0.488281 2.109375,-1.09375 1.035156,-0.625 1.933593,-1.269531 1.660157,-1.210938 3.007813,-2.402344 1.347656,-1.210937 2.675781,-2.539062 L 31.606709,21.50615 Q 32.56374,20.666306 32.993427,20.666306 33.227802,20.666306 33.227802,21.0374 Z M 18.305927,17.150684 q -0.01953,-0.292968 -0.09766,-0.566406 -0.05859,-0.292969 -0.195312,-0.507812 -0.136719,-0.214844 -0.3125,-0.332032 -0.175782,-0.136718 -0.410157,-0.136718 -1.035156,0.05859 -2.070312,1.269531 -1.035156,1.191406 -1.953125,3.164062 -0.214844,0.429688 -0.390625,0.976563 -0.15625,0.527344 -0.3125,1.09375 -0.136719,0.546875 -0.253906,1.09375 -0.09766,0.546875 -0.175782,0.976562 1.015625,-0.761718 1.875,-1.40625 0.859375,-0.644531 1.601563,-1.328125 0.46875,-0.429687 0.957031,-0.917968 0.488281,-0.507813 0.878906,-1.054688 0.410157,-0.546875 0.644532,-1.132812 Q 18.325455,17.756153 18.305923,17.150684 Z"/></g></g></svg>