<svg xmlns="http://www.w3.org/2000/svg" xmlns:svg="http://www.w3.org/2000/svg" xmlns:xlink="http://www.w3.org/1999/xlink" id="svg2" width="48" height="48" version="1.1"><defs id="defs4"><linearGradient id="ButtonShadow" x1="45.448" x2="45.448" y1="92.54" y2="7.017" gradientTransform="scale(1.0058652,0.994169)" gradientUnits="userSpaceOnUse"><stop id="stop3750" offset="0" stop-color="#000" stop-opacity="1"/><stop id="stop3752-8" offset="1" stop-color="#000" stop-opacity=".588"/></linearGradient><filter id="filter3174" color-interpolation-filters="sRGB"><feGaussianBlur id="feGaussianBlur3176" stdDeviation="1.71"/></filter><linearGradient id="linearGradient3737-6"><stop id="stop3739-73" offset="0" stop-color="#fff" stop-opacity="1"/><stop id="stop3741-6" offset="1" stop-color="#fff" stop-opacity="0"/></linearGradient><clipPath id="clipPath3613"><rect id="rect3615" width="84" height="84" x="6" y="6" fill="#fff" fill-opacity="1" fill-rule="nonzero" stroke="none" rx="6" ry="6"/></clipPath><filter id="filter3794" width="1.384" height="1.384" x="-.192" y="-.192" color-interpolation-filters="sRGB"><feGaussianBlur id="feGaussianBlur3796" stdDeviation="5.28"/></filter><linearGradient id="linearGradient2885" x1="48" x2="48" y1="20.221" y2="138.661" gradientUnits="userSpaceOnUse" xlink:href="#linearGradient3737-6"/><linearGradient id="linearGradient867" x1="26.25" x2="26.25" y1="-1052.541" y2="-1004.684" gradientTransform="translate(-2e-7,-8.6914065e-6)" gradientUnits="userSpaceOnUse" xlink:href="#linearGradient1373"/><linearGradient id="linearGradient1373"><stop id="stop1375" offset="0" stop-color="#282827" stop-opacity="1"/><stop id="stop1377" offset="1" stop-color="#292929" stop-opacity="1"/></linearGradient><linearGradient id="linearGradient5261"><stop id="stop5263" offset="0" stop-color="#1e6ccd" stop-opacity="1"/><stop id="stop5265" offset="1" stop-color="#2faff9" stop-opacity="1"/></linearGradient><linearGradient id="linearGradient853"><stop id="stop855" offset="0" stop-color="#36b512" stop-opacity="1"/><stop id="stop857" offset="1" stop-color="#93e62f" stop-opacity="1"/></linearGradient><linearGradient id="linearGradient4116"><stop id="stop4118" offset="0" stop-color="#970000" stop-opacity="1"/><stop id="stop4120" offset="1" stop-color="#fd3232" stop-opacity="1"/></linearGradient><linearGradient id="linearGradient4950" x1="25" x2="25" y1="39" y2="9" gradientUnits="userSpaceOnUse" xlink:href="#linearGradient853"/><linearGradient id="linearGradient4958" x1="24" x2="24" y1="40" y2="9" gradientUnits="userSpaceOnUse" xlink:href="#linearGradient5261"/><linearGradient id="linearGradient4966" x1="27" x2="27" y1="31" y2="9" gradientUnits="userSpaceOnUse" xlink:href="#linearGradient4116"/></defs><metadata id="metadata7"/><g id="layer1" transform="translate(0,-1004.3622)"><g id="layer2-9" display="none" transform="translate(-272.99658,987.3651)"><rect id="rect3745" width="86" height="85" x="5" y="7" fill="url(#ButtonShadow)" fill-opacity="1" fill-rule="nonzero" stroke="none" filter="url(#filter3174)" opacity=".9" rx="6" ry="6"/></g><g id="layer4" display="none" transform="translate(-272.99658,987.3651)"><rect id="rect3171" width="66" height="66" x="15" y="15" fill="url(#linearGradient2885)" fill-opacity="1" fill-rule="nonzero" stroke="#fff" stroke-dasharray="none" stroke-dashoffset="0" stroke-linecap="round" stroke-linejoin="miter" stroke-miterlimit="4" stroke-opacity="1" stroke-width=".5" clip-path="url(#clipPath3613)" filter="url(#filter3794)" opacity=".15" rx="12" ry="12"/></g><rect id="rect2991-1" width="48" height="48" x="0" y="-1052.362" fill="url(#linearGradient867)" fill-opacity="1" stroke="none" ry="1.945" transform="scale(1,-1)"/><path id="path4624" fill="#000" fill-opacity=".059" fill-rule="nonzero" stroke="none" d="m 12.75,1014.5622 c -2.07,0 -3.75,1.68 -3.75,3.75 0,2.07 1.68,3.75 3.75,3.75 2.07,0 3.75,-1.68 3.75,-3.75 0,-2.07 -1.68,-3.75 -3.75,-3.75 z m 3.75,3.75 c 0,2.07 1.68,3.75 3.75,3.75 2.07,0 3.75,-1.68 3.75,-3.75 0,-2.07 -1.68,-3.75 -3.75,-3.75 -2.07,0 -3.75,1.68 -3.75,3.75 z m 3.75,3.75 c -2.07,0 -3.75,1.68 -3.75,3.75 0,2.07 1.68,3.75 3.75,3.75 2.07,0 3.75,-1.68 3.75,-3.75 0,-2.07 -1.68,-3.75 -3.75,-3.75 z m 3.75,3.75 c 0,2.07 1.68,3.75 3.75,3.75 2.07,0 3.75,-1.68 3.75,-3.75 0,-2.07 -1.68,-3.75 -3.75,-3.75 -2.07,0 -3.75,1.68 -3.75,3.75 z m -3.75,3.75 c -2.07,0 -3.75,1.68 -3.75,3.75 0,2.07 1.68,3.75 3.75,3.75 2.07,0 3.75,-1.68 3.75,-3.75 0,-2.07 -1.68,-3.75 -3.75,-3.75 z m 15,-15 c -2.07,0 -3.75,1.68 -3.75,3.75 0,2.07 1.68,3.75 3.75,3.75 2.07,0 3.75,-1.68 3.75,-3.75 0,-2.07 -1.68,-3.75 -3.75,-3.75 z m 0,15 c -2.07,0 -3.75,1.68 -3.75,3.75 0,2.07 1.68,3.75 3.75,3.75 2.07,0 3.75,-1.68 3.75,-3.75 0,-2.07 -1.68,-3.75 -3.75,-3.75 z m 0,7.5 c -2.07,0 -3.75,1.68 -3.75,3.75 0,2.07 1.68,3.75 3.75,3.75 2.07,0 3.75,-1.68 3.75,-3.75 0,-2.07 -1.68,-3.75 -3.75,-3.75 z m -3.75,3.75 c 0,-2.07 -1.68,-3.75 -3.75,-3.75 -2.07,0 -3.75,1.68 -3.75,3.75 0,2.07 1.68,3.75 3.75,3.75 2.07,0 3.75,-1.68 3.75,-3.75 z m -18.75,-3.75 c -2.07,0 -3.75,1.68 -3.75,3.75 0,2.07 1.68,3.75 3.75,3.75 2.07,0 3.75,-1.68 3.75,-3.75 0,-2.07 -1.68,-3.75 -3.75,-3.75 z"/><path id="path4622" fill="#000" fill-opacity=".118" fill-rule="nonzero" stroke="none" d="m 12.75,1014.1622 c -2.07,0 -3.75,1.68 -3.75,3.75 0,2.07 1.68,3.75 3.75,3.75 2.07,0 3.75,-1.68 3.75,-3.75 0,-2.07 -1.68,-3.75 -3.75,-3.75 z m 3.75,3.75 c 0,2.07 1.68,3.75 3.75,3.75 2.07,0 3.75,-1.68 3.75,-3.75 0,-2.07 -1.68,-3.75 -3.75,-3.75 -2.07,0 -3.75,1.68 -3.75,3.75 z m 3.75,3.75 c -2.07,0 -3.75,1.68 -3.75,3.75 0,2.07 1.68,3.75 3.75,3.75 2.07,0 3.75,-1.68 3.75,-3.75 0,-2.07 -1.68,-3.75 -3.75,-3.75 z m 3.75,3.75 c 0,2.07 1.68,3.75 3.75,3.75 2.07,0 3.75,-1.68 3.75,-3.75 0,-2.07 -1.68,-3.75 -3.75,-3.75 -2.07,0 -3.75,1.68 -3.75,3.75 z m -3.75,3.75 c -2.07,0 -3.75,1.68 -3.75,3.75 0,2.07 1.68,3.75 3.75,3.75 2.07,0 3.75,-1.68 3.75,-3.75 0,-2.07 -1.68,-3.75 -3.75,-3.75 z m 15,-15 c -2.07,0 -3.75,1.68 -3.75,3.75 0,2.07 1.68,3.75 3.75,3.75 2.07,0 3.75,-1.68 3.75,-3.75 0,-2.07 -1.68,-3.75 -3.75,-3.75 z m 0,15 c -2.07,0 -3.75,1.68 -3.75,3.75 0,2.07 1.68,3.75 3.75,3.75 2.07,0 3.75,-1.68 3.75,-3.75 0,-2.07 -1.68,-3.75 -3.75,-3.75 z m 0,7.5 c -2.07,0 -3.75,1.68 -3.75,3.75 0,2.07 1.68,3.75 3.75,3.75 2.07,0 3.75,-1.68 3.75,-3.75 0,-2.07 -1.68,-3.75 -3.75,-3.75 z m -3.75,3.75 c 0,-2.07 -1.68,-3.75 -3.75,-3.75 -2.07,0 -3.75,1.68 -3.75,3.75 0,2.07 1.68,3.75 3.75,3.75 2.07,0 3.75,-1.68 3.75,-3.75 z m -18.75,-3.75 c -2.07,0 -3.75,1.68 -3.75,3.75 0,2.07 1.68,3.75 3.75,3.75 2.07,0 3.75,-1.68 3.75,-3.75 0,-2.07 -1.68,-3.75 -3.75,-3.75 z"/><path id="path4601" fill="#000" fill-opacity=".235" fill-rule="nonzero" stroke="none" d="m 12.75,1013.7622 c -2.07,0 -3.75,1.68 -3.75,3.75 0,2.07 1.68,3.75 3.75,3.75 2.07,0 3.75,-1.68 3.75,-3.75 0,-2.07 -1.68,-3.75 -3.75,-3.75 z m 3.75,3.75 c 0,2.07 1.68,3.75 3.75,3.75 2.07,0 3.75,-1.68 3.75,-3.75 0,-2.07 -1.68,-3.75 -3.75,-3.75 -2.07,0 -3.75,1.68 -3.75,3.75 z m 3.75,3.75 c -2.07,0 -3.75,1.68 -3.75,3.75 0,2.07 1.68,3.75 3.75,3.75 2.07,0 3.75,-1.68 3.75,-3.75 0,-2.07 -1.68,-3.75 -3.75,-3.75 z m 3.75,3.75 c 0,2.07 1.68,3.75 3.75,3.75 2.07,0 3.75,-1.68 3.75,-3.75 0,-2.07 -1.68,-3.75 -3.75,-3.75 -2.07,0 -3.75,1.68 -3.75,3.75 z m -3.75,3.75 c -2.07,0 -3.75,1.68 -3.75,3.75 0,2.07 1.68,3.75 3.75,3.75 2.07,0 3.75,-1.68 3.75,-3.75 0,-2.07 -1.68,-3.75 -3.75,-3.75 z m 15,-15 c -2.07,0 -3.75,1.68 -3.75,3.75 0,2.07 1.68,3.75 3.75,3.75 2.07,0 3.75,-1.68 3.75,-3.75 0,-2.07 -1.68,-3.75 -3.75,-3.75 z m 0,15 c -2.07,0 -3.75,1.68 -3.75,3.75 0,2.07 1.68,3.75 3.75,3.75 2.07,0 3.75,-1.68 3.75,-3.75 0,-2.07 -1.68,-3.75 -3.75,-3.75 z m 0,7.5 c -2.07,0 -3.75,1.68 -3.75,3.75 0,2.07 1.68,3.75 3.75,3.75 2.07,0 3.75,-1.68 3.75,-3.75 0,-2.07 -1.68,-3.75 -3.75,-3.75 z m -3.75,3.75 c 0,-2.07 -1.68,-3.75 -3.75,-3.75 -2.07,0 -3.75,1.68 -3.75,3.75 0,2.07 1.68,3.75 3.75,3.75 2.07,0 3.75,-1.68 3.75,-3.75 z m -18.75,-3.75 c -2.07,0 -3.75,1.68 -3.75,3.75 0,2.07 1.68,3.75 3.75,3.75 2.07,0 3.75,-1.68 3.75,-3.75 0,-2.07 -1.68,-3.75 -3.75,-3.75 z"/><path id="rect846" fill="#000" fill-opacity="1" stroke="none" d="m -2.8e-6,1049.3622 0,1.0625 c 0,1.0773 0.860223,1.9375 1.9375,1.9375 l 44.1250008,0 c 1.077277,0 1.937505,-0.8602 1.937505,-1.9375 l 0,-1.0625 c 0,1.0773 -0.860228,1.9375 -1.937505,1.9375 l -44.1250008,0 c -1.077277,0 -1.9375,-0.8602 -1.9375,-1.9375 z"/><path id="path7515" fill="#fff" fill-opacity=".537" stroke="none" d="m 2.5312472,1005.0185 c -0.917088,0 -1.671147,0.6395 -1.84375,1.5 0.335612,-0.2799 0.774512,-0.4375 1.25,-0.4375 l 44.1250008,0 c 0.475488,0 0.914388,0.1576 1.250005,0.4375 -0.172608,-0.8605 -0.926667,-1.5 -1.843755,-1.5 l -42.9375008,0 z"/><path id="rect4280-0" fill="#000" fill-opacity=".392" stroke="none" d="m 1.9374972,1004.3622 c -1.077277,0 -1.9375,0.8602 -1.9375,1.9375 l 0,43.0625 c 0,0.7934 0.480024,1.449 1.15625,1.75 -0.309342,-0.3333 -0.5,-0.7824 -0.5,-1.2812 l 0,-42.9375 c 0,-1.0482 0.826899,-1.875 1.875,-1.875 l 42.9375008,0 c 1.048101,0 1.875005,0.8268 1.875005,1.875 l 0,42.9375 c 0,0.4988 -0.190663,0.9479 -0.500005,1.2812 0.676225,-0.301 1.156255,-0.9566 1.156255,-1.75 l 0,-43.0625 c 0,-1.0773 -0.860228,-1.9375 -1.937505,-1.9375 l -44.1250008,0 z"/><path id="path4313-8" fill="url(#linearGradient4958)" fill-opacity="1" fill-rule="nonzero" stroke="none" d="M 35.25 9 C 33.18 9 31.5 10.68 31.5 12.75 C 31.5 14.82 33.18 16.5 35.25 16.5 C 37.32 16.5 39 14.82 39 12.75 C 39 10.68 37.32 9 35.25 9 z M 27.75 16.5 C 25.68 16.5 24 18.18 24 20.25 C 24 22.32 25.68 24 27.75 24 C 29.82 24 31.5 22.32 31.5 20.25 C 31.5 18.18 29.82 16.5 27.75 16.5 z M 20.25 24 C 18.18 24 16.5 25.68 16.5 27.75 C 16.5 29.82 18.18 31.5 20.25 31.5 C 22.32 31.5 24 29.82 24 27.75 C 24 25.68 22.32 24 20.25 24 z M 12.75 31.5 C 10.68 31.5 9 33.18 9 35.25 C 9 37.32 10.68 39 12.75 39 C 14.82 39 16.5 37.32 16.5 35.25 C 16.5 33.18 14.82 31.5 12.75 31.5 z M 27.75 31.5 C 25.68 31.5 24 33.18 24 35.25 C 24 37.32 25.68 39 27.75 39 C 29.82 39 31.5 37.32 31.5 35.25 C 31.5 33.18 29.82 31.5 27.75 31.5 z" transform="translate(0,1004.3622)"/><path id="path4317-2" fill="url(#linearGradient4950)" fill-opacity="1" fill-rule="nonzero" stroke="none" d="M 12.75 9 C 10.68 9 9 10.68 9 12.75 C 9 14.82 10.68 16.5 12.75 16.5 C 14.82 16.5 16.5 14.82 16.5 12.75 C 16.5 10.68 14.82 9 12.75 9 z M 20.25 16.5 C 18.18 16.5 16.5 18.18 16.5 20.25 C 16.5 22.32 18.18 24 20.25 24 C 22.32 24 24 22.32 24 20.25 C 24 18.18 22.32 16.5 20.25 16.5 z M 35.25 31.5 C 33.18 31.5 31.5 33.18 31.5 35.25 C 31.5 37.32 33.18 39 35.25 39 C 37.32 39 39 37.32 39 35.25 C 39 33.18 37.32 31.5 35.25 31.5 z" transform="translate(0,1004.3622)"/><path id="path4321-9" fill="url(#linearGradient4966)" fill-opacity="1" fill-rule="nonzero" stroke="none" d="M 20.25 9 C 18.18 9 16.5 10.68 16.5 12.75 C 16.5 14.82 18.18 16.5 20.25 16.5 C 22.32 16.5 24 14.82 24 12.75 C 24 10.68 22.32 9 20.25 9 z M 35.25 24 C 33.18 24 31.5 25.68 31.5 27.75 C 31.5 29.82 33.18 31.5 35.25 31.5 C 37.32 31.5 39 29.82 39 27.75 C 39 25.68 37.32 24 35.25 24 z" transform="translate(0,1004.3622)"/><path id="path4626" fill="#282827" fill-opacity=".314" fill-rule="nonzero" stroke="none" d="M 9.0410156 12.349609 C 9.026654 12.4829 9 12.612913 9 12.75 C 9 14.82 10.68 16.5 12.75 16.5 C 14.82 16.5 16.5 14.82 16.5 12.75 C 16.5 12.612913 16.473346 12.4829 16.458984 12.349609 C 16.256486 14.229005 14.682913 15.699219 12.75 15.699219 C 10.817087 15.699219 9.2435138 14.229005 9.0410156 12.349609 z M 16.5 12.75 C 16.5 14.22384 17.359943 15.486804 18.597656 16.099609 C 19.098305 15.851733 19.65384 15.699219 20.25 15.699219 C 18.317087 15.699219 16.743514 14.229005 16.541016 12.349609 C 16.526654 12.4829 16.5 12.612913 16.5 12.75 z M 20.25 15.699219 C 20.84616 15.699219 21.401695 15.851733 21.902344 16.099609 C 23.140057 15.486804 24 14.22384 24 12.75 C 24 12.612913 23.973346 12.4829 23.958984 12.349609 C 23.756486 14.229005 22.182913 15.699219 20.25 15.699219 z M 31.541016 12.349609 C 31.526654 12.4829 31.5 12.612913 31.5 12.75 C 31.5 14.82 33.18 16.5 35.25 16.5 C 37.32 16.5 39 14.82 39 12.75 C 39 12.612913 38.973346 12.4829 38.958984 12.349609 C 38.756486 14.229005 37.182913 15.699219 35.25 15.699219 C 33.317087 15.699219 31.743514 14.229005 31.541016 12.349609 z M 16.541016 19.849609 C 16.526654 19.9829 16.5 20.112913 16.5 20.25 C 16.5 21.72384 17.359943 22.986804 18.597656 23.599609 C 19.098305 23.351733 19.65384 23.199219 20.25 23.199219 C 18.317087 23.199219 16.743514 21.729005 16.541016 19.849609 z M 20.25 23.199219 C 20.84616 23.199219 21.401695 23.351733 21.902344 23.599609 C 23.140057 22.986804 24 21.72384 24 20.25 C 24 20.112913 23.973346 19.9829 23.958984 19.849609 C 23.756486 21.729005 22.182913 23.199219 20.25 23.199219 z M 24 20.25 C 24 22.32 25.68 24 27.75 24 C 29.82 24 31.5 22.32 31.5 20.25 C 31.5 20.112913 31.473346 19.9829 31.458984 19.849609 C 31.256486 21.729005 29.682913 23.199219 27.75 23.199219 C 25.817087 23.199219 24.243514 21.729005 24.041016 19.849609 C 24.026654 19.9829 24 20.112913 24 20.25 z M 16.541016 27.349609 C 16.526654 27.4829 16.5 27.612913 16.5 27.75 C 16.5 29.82 18.18 31.5 20.25 31.5 C 22.32 31.5 24 29.82 24 27.75 C 24 27.612913 23.973346 27.4829 23.958984 27.349609 C 23.756486 29.229005 22.182913 30.699219 20.25 30.699219 C 18.317087 30.699219 16.743514 29.229005 16.541016 27.349609 z M 31.541016 27.349609 C 31.526654 27.4829 31.5 27.612913 31.5 27.75 C 31.5 29.22384 32.359943 30.486804 33.597656 31.099609 C 34.098305 30.851733 34.65384 30.699219 35.25 30.699219 C 33.317087 30.699219 31.743514 29.229005 31.541016 27.349609 z M 35.25 30.699219 C 35.84616 30.699219 36.401695 30.851733 36.902344 31.099609 C 38.140057 30.486804 39 29.22384 39 27.75 C 39 27.612913 38.973346 27.4829 38.958984 27.349609 C 38.756486 29.229005 37.182913 30.699219 35.25 30.699219 z M 9.0410156 34.849609 C 9.026654 34.9829 9 35.112913 9 35.25 C 9 37.32 10.68 39 12.75 39 C 14.82 39 16.5 37.32 16.5 35.25 C 16.5 35.112913 16.473346 34.9829 16.458984 34.849609 C 16.256486 36.729005 14.682913 38.199219 12.75 38.199219 C 10.817087 38.199219 9.2435138 36.729005 9.0410156 34.849609 z M 24.041016 34.849609 C 24.026654 34.9829 24 35.112913 24 35.25 C 24 37.32 25.68 39 27.75 39 C 29.82 39 31.5 37.32 31.5 35.25 C 31.5 35.112913 31.473346 34.9829 31.458984 34.849609 C 31.256486 36.729005 29.682913 38.199219 27.75 38.199219 C 25.817087 38.199219 24.243514 36.729005 24.041016 34.849609 z M 31.5 35.25 C 31.5 37.32 33.18 39 35.25 39 C 37.32 39 39 37.32 39 35.25 C 39 35.112913 38.973346 34.9829 38.958984 34.849609 C 38.756486 36.729005 37.182913 38.199219 35.25 38.199219 C 33.317087 38.199219 31.743514 36.729005 31.541016 34.849609 C 31.526654 34.9829 31.5 35.112913 31.5 35.25 z" transform="translate(0,1004.3622)"/><path id="path4650" fill="#f9f9f9" fill-opacity=".235" fill-rule="nonzero" stroke="none" d="M 12.75 9 C 10.68 9 9 10.68 9 12.75 C 9 12.818179 9.0159323 12.881932 9.0195312 12.949219 C 9.1261776 10.974516 10.748841 9.4003906 12.75 9.4003906 C 14.751159 9.4003906 16.373822 10.974516 16.480469 12.949219 C 16.484068 12.881932 16.5 12.818179 16.5 12.75 C 16.5 10.68 14.82 9 12.75 9 z M 16.5 12.75 C 16.5 12.818179 16.515932 12.881932 16.519531 12.949219 C 16.626178 10.974516 18.248841 9.4003906 20.25 9.4003906 C 22.251159 9.4003906 23.873822 10.974516 23.980469 12.949219 C 23.984068 12.881932 24 12.818179 24 12.75 C 24 10.68 22.32 9 20.25 9 C 18.18 9 16.5 10.68 16.5 12.75 z M 35.25 9 C 33.18 9 31.5 10.68 31.5 12.75 C 31.5 12.818179 31.515932 12.881932 31.519531 12.949219 C 31.626178 10.974516 33.248841 9.4003906 35.25 9.4003906 C 37.251159 9.4003906 38.873822 10.974516 38.980469 12.949219 C 38.984068 12.881932 39 12.818179 39 12.75 C 39 10.68 37.32 9 35.25 9 z M 27.75 16.5 C 25.68 16.5 24 18.18 24 20.25 C 24 20.318179 24.015932 20.381932 24.019531 20.449219 C 24.126178 18.474516 25.748841 16.900391 27.75 16.900391 C 29.751159 16.900391 31.373822 18.474516 31.480469 20.449219 C 31.484068 20.381932 31.5 20.318179 31.5 20.25 C 31.5 18.18 29.82 16.5 27.75 16.5 z M 24 20.25 C 24 18.58528 22.906435 17.188499 21.404297 16.699219 C 21.038439 16.81845 20.655484 16.900391 20.25 16.900391 C 22.251159 16.900391 23.873822 18.474516 23.980469 20.449219 C 23.984068 20.381932 24 20.318179 24 20.25 z M 20.25 16.900391 C 19.844516 16.900391 19.461561 16.81845 19.095703 16.699219 C 17.593565 17.188499 16.5 18.58528 16.5 20.25 C 16.5 20.318179 16.515932 20.381932 16.519531 20.449219 C 16.626178 18.474516 18.248841 16.900391 20.25 16.900391 z M 35.25 24 C 33.18 24 31.5 25.68 31.5 27.75 C 31.5 27.818179 31.515932 27.881932 31.519531 27.949219 C 31.626178 25.974516 33.248841 24.400391 35.25 24.400391 C 37.251159 24.400391 38.873822 25.974516 38.980469 27.949219 C 38.984068 27.881932 39 27.818179 39 27.75 C 39 25.68 37.32 24 35.25 24 z M 19.095703 24.199219 C 17.593565 24.688499 16.5 26.08528 16.5 27.75 C 16.5 27.818179 16.515932 27.881932 16.519531 27.949219 C 16.626178 25.974516 18.248841 24.400391 20.25 24.400391 C 19.844516 24.400391 19.461561 24.31845 19.095703 24.199219 z M 20.25 24.400391 C 22.251159 24.400391 23.873822 25.974516 23.980469 27.949219 C 23.984068 27.881932 24 27.818179 24 27.75 C 24 26.08528 22.906435 24.688499 21.404297 24.199219 C 21.038439 24.31845 20.655484 24.400391 20.25 24.400391 z M 12.75 31.5 C 10.68 31.5 9 33.18 9 35.25 C 9 35.318179 9.0159323 35.381932 9.0195312 35.449219 C 9.1261776 33.474516 10.748841 31.900391 12.75 31.900391 C 14.751159 31.900391 16.373822 33.474516 16.480469 35.449219 C 16.484068 35.381932 16.5 35.318179 16.5 35.25 C 16.5 33.18 14.82 31.5 12.75 31.5 z M 27.75 31.5 C 25.68 31.5 24 33.18 24 35.25 C 24 35.318179 24.015932 35.381932 24.019531 35.449219 C 24.126178 33.474516 25.748841 31.900391 27.75 31.900391 C 29.751159 31.900391 31.373822 33.474516 31.480469 35.449219 C 31.484068 35.381932 31.5 35.318179 31.5 35.25 C 31.5 33.18 29.82 31.5 27.75 31.5 z M 31.5 35.25 C 31.5 35.318179 31.515932 35.381932 31.519531 35.449219 C 31.626178 33.474516 33.248841 31.900391 35.25 31.900391 C 34.844516 31.900391 34.461561 31.81845 34.095703 31.699219 C 32.593565 32.188499 31.5 33.58528 31.5 35.25 z M 35.25 31.900391 C 37.251159 31.900391 38.873822 33.474516 38.980469 35.449219 C 38.984068 35.381932 39 35.318179 39 35.25 C 39 33.58528 37.906435 32.188499 36.404297 31.699219 C 36.038439 31.81845 35.655484 31.900391 35.25 31.900391 z" transform="translate(0,1004.3622)"/></g></svg>