<svg xmlns="http://www.w3.org/2000/svg" xmlns:svg="http://www.w3.org/2000/svg" xmlns:xlink="http://www.w3.org/1999/xlink" id="svg2" width="48" height="48" version="1.1"><defs id="defs4"><linearGradient id="linearGradient4200"><stop id="stop4202" offset="0" stop-color="#000" stop-opacity="1"/><stop id="stop4204" offset="1" stop-color="#000" stop-opacity="0"/></linearGradient><linearGradient id="linearGradient4113"><stop id="stop4115" offset="0" stop-color="#1a1a1a" stop-opacity="1"/><stop id="stop4117" offset="1" stop-color="#1a1a1a" stop-opacity="0"/></linearGradient><linearGradient id="linearGradient4073"><stop id="stop4075" offset="0" stop-color="#c0090f" stop-opacity="1"/><stop id="stop4077" offset="1" stop-color="#fa2026" stop-opacity="1"/></linearGradient><linearGradient id="linearGradient855"><stop id="stop857" offset="0" stop-color="#1a1a1a" stop-opacity="1"/><stop id="stop859" offset="1" stop-color="#333" stop-opacity="1"/></linearGradient><linearGradient id="linearGradient853" x1="74.953" x2="74.953" y1="-1049.285" y2="-1001.141" gradientTransform="translate(-51.306876,-3.2236251)" gradientUnits="userSpaceOnUse" xlink:href="#linearGradient855"/><linearGradient id="linearGradient4095" x1="26.886" x2="26.886" y1="1044.179" y2="1012.327" gradientTransform="matrix(0.99797287,0,0,0.99797287,0.56406092,2.0846089)" gradientUnits="userSpaceOnUse" xlink:href="#linearGradient4073"/><linearGradient id="linearGradient4119" x1="22.185" x2="12.905" y1="25.815" y2="25.815" gradientUnits="userSpaceOnUse" xlink:href="#linearGradient4113"/><linearGradient id="linearGradient4146" x1="22.532" x2="13.428" y1="31.646" y2="31.646" gradientTransform="matrix(0,1,1,0,-4.952379,-4.93763)" gradientUnits="userSpaceOnUse" xlink:href="#linearGradient4113"/><linearGradient id="linearGradient4162" x1="19.676" x2="12.803" y1="25.815" y2="25.815" gradientTransform="matrix(0,-0.81754606,1,0,-6.9785437,36.4099)" gradientUnits="userSpaceOnUse" xlink:href="#linearGradient4113"/><linearGradient id="linearGradient4206" x1="16.7" x2="37.836" y1="23.246" y2="29.895" gradientUnits="userSpaceOnUse" xlink:href="#linearGradient4200"/></defs><metadata id="metadata7"/><g id="layer1" transform="translate(0,-1004.3622)"><rect id="rect2991-1" width="48" height="48" x="0" y="-1052.362" fill="url(#linearGradient853)" fill-opacity="1" stroke="none" ry="1.945" transform="scale(1,-1)"/><path id="rect846" fill="#000" fill-opacity="1" stroke="none" d="m -2.5e-6,1049.3622 0,1.0625 c 0,1.0773 0.860223,1.9375 1.9375,1.9375 l 44.1249995,0 c 1.077277,0 1.937505,-0.8602 1.937505,-1.9375 l 0,-1.0625 c 0,1.0773 -0.860228,1.9375 -1.937505,1.9375 l -44.1249995,0 C 0.8602205,1051.2997 -2.5e-6,1050.4395 -2.5e-6,1049.3622 Z"/><path id="path7515" fill="#fff" fill-opacity=".537" stroke="none" d="m 2.5312475,1005.0185 c -0.917088,0 -1.671147,0.6395 -1.84375,1.5 0.335612,-0.2799 0.774512,-0.4375 1.25,-0.4375 l 44.1249995,0 c 0.475488,0 0.914388,0.1576 1.250005,0.4375 -0.172608,-0.8605 -0.926667,-1.5 -1.843755,-1.5 L 2.5312475,1005.0185 Z"/><path id="rect4280-0" fill="#000" fill-opacity=".392" stroke="none" d="m 1.9374975,1004.3622 c -1.077277,0 -1.9375,0.8602 -1.9375,1.9375 l 0,43.0625 c 0,0.7934 0.480024,1.449 1.15625,1.75 -0.309342,-0.3333 -0.5,-0.7824 -0.5,-1.2812 l 0,-42.9375 c 0,-1.0482 0.826899,-1.875 1.875,-1.875 l 42.9374995,0 c 1.048101,0 1.875005,0.8268 1.875005,1.875 l 0,42.9375 c 0,0.4988 -0.190663,0.9479 -0.500005,1.2812 0.676225,-0.301 1.156255,-0.9566 1.156255,-1.75 l 0,-43.0625 c 0,-1.0773 -0.860228,-1.9375 -1.937505,-1.9375 L 1.9374975,1004.3622 Z"/><g id="g4212"><path id="rect4191" fill="url(#linearGradient4206)" fill-opacity="1" stroke="none" d="m 12.9375,8 0,39.39975 30.375,0 c 0.942618,0 1.6875,-0.744882 1.6875,-1.6875 L 45,8 Z" transform="translate(0,1004.3622)"/><path font-style="normal" style="text-align:start;line-height:125%;-inkscape-font-specification:'Helvetica 65 Medium, Medium'" id="path4189" fill="#000" fill-opacity=".059" stroke="none" d="m 12.952382,1046.9622 5.602241,0 0,-14.2073 14.476192,0 0,-4.5715 -14.476192,0 0,-8.3809 16.492998,0 0,-4.8403 -22.095239,0 L 12.952382,1046.9622 Z" font-family="Helvetica 65 Medium" font-size="44.909" font-stretch="normal" font-variant="normal" font-weight="500" letter-spacing="0" text-anchor="start" word-spacing="0" writing-mode="lr-tb"/><path font-style="normal" style="text-align:start;line-height:125%;-inkscape-font-specification:'Helvetica 65 Medium, Medium'" id="path4187" fill="#000" fill-opacity=".118" stroke="none" d="m 12.952382,1046.0622 5.602241,0 0,-14.2073 14.476192,0 0,-4.5715 -14.476192,0 0,-8.3809 16.492998,0 0,-4.8403 -22.095239,0 L 12.952382,1046.0622 Z" font-family="Helvetica 65 Medium" font-size="44.909" font-stretch="normal" font-variant="normal" font-weight="500" letter-spacing="0" text-anchor="start" word-spacing="0" writing-mode="lr-tb"/><path font-style="normal" style="text-align:start;line-height:125%;-inkscape-font-specification:'Helvetica 65 Medium, Medium'" id="path4183" fill="#000" fill-opacity=".235" stroke="none" d="m 12.952382,1045.1622 5.602241,0 0,-14.2073 14.476192,0 0,-4.5715 -14.476192,0 0,-8.3809 16.492998,0 0,-4.8403 -22.095239,0 L 12.952382,1045.1622 Z" font-family="Helvetica 65 Medium" font-size="44.909" font-stretch="normal" font-variant="normal" font-weight="500" letter-spacing="0" text-anchor="start" word-spacing="0" writing-mode="lr-tb"/><path font-style="normal" style="text-align:start;line-height:125%;-inkscape-font-specification:'Helvetica 65 Medium, Medium'" id="path4093" fill="url(#linearGradient4095)" fill-opacity="1" stroke="none" d="m 12.952382,1044.3622 5.602241,0 0,-14.2073 14.476192,0 0,-4.5715 -14.476192,0 0,-8.3809 16.492998,0 0,-4.8403 -22.095239,0 L 12.952382,1044.3622 Z" font-family="Helvetica 65 Medium" font-size="44.909" font-stretch="normal" font-variant="normal" font-weight="500" letter-spacing="0" text-anchor="start" word-spacing="0" writing-mode="lr-tb"/><path id="path4098" fill="#000" fill-opacity=".196" stroke="none" d="M 15.551661,38.507326 13.464891,39.066475 14.024039,36.979704 Z" transform="matrix(2.5044369,0.25881905,-0.67106141,0.96592583,5.4464265,1003.1419)"/><path id="rect4108" fill="url(#linearGradient4119)" fill-opacity="1" stroke="none" d="M 12.9375 8 L 12.9375 40 L 15.75 38.125 L 15.75 9.875 L 12.9375 8 z" transform="translate(0,1004.3622)"/><path id="path4121" fill="#000" fill-opacity=".196" stroke="none" d="M 15.551661,38.507326 13.464891,39.066475 14.024039,36.979704 Z" transform="matrix(2.5044369,-0.25881905,-0.67106141,-0.96592583,5.4464265,1053.5825)"/><path id="path4128" fill="#000" fill-opacity=".196" stroke="none" d="M 15.551661,38.507326 13.464891,39.066475 14.024039,36.979704 Z" transform="matrix(0.25881905,2.045283,0.96592583,-0.54803156,-8.1839518,1019.4562)"/><path id="path4132" fill="none" fill-opacity="1" stroke="none" d="m 18.5538,1017.1622 0,27.2 -2.8125,-1.875 L 15.7413,1014.2372 Z"/><path id="path4136" fill="#000" fill-opacity=".196" stroke="none" d="M 15.551661,38.507326 13.464891,39.066475 14.024039,36.979704 Z" transform="matrix(0.25881905,2.1656125,0.96592583,-0.58027374,-6.1726661,1005.8717)"/><path id="path4140" fill="none" fill-opacity="1" stroke="none" d="m 16.625,10.78125 1.9375,2.03125 0,0.78125 16.5,0 L 33.1875,10.78125 Z" transform="translate(0,1004.3622)"/><path id="path4142" fill="url(#linearGradient4146)" fill-opacity="1" stroke="none" d="m 18.5625,8 -2.8125,1.875 0,0.537 17.4375,0 L 35.0625,8 Z" transform="translate(0,1004.3622)"/><path id="path4158" fill="url(#linearGradient4162)" fill-opacity="1" stroke="none" d="M 18.5625 23.5 L 18.5625 25.8125 L 33.03125 25.8125 L 31.15625 23.5 L 18.5625 23.5 z M 33.03125 25.8125 L 35.03125 25.8125 L 33.03125 24.59375 L 33.03125 25.8125 z" transform="translate(0,1004.3622)"/></g></g></svg>