<svg xmlns="http://www.w3.org/2000/svg" xmlns:svg="http://www.w3.org/2000/svg" xmlns:xlink="http://www.w3.org/1999/xlink" id="svg2" width="48" height="48" version="1.1"><defs id="defs4"><linearGradient id="linearGradient857" x1="25.279" x2="25.279" y1="-1052.372" y2="-1004.456" gradientUnits="userSpaceOnUse" xlink:href="#linearGradient2214"/><linearGradient id="linearGradient2982"><stop id="stop2984" offset="0" stop-color="#8cc189" stop-opacity="1"/><stop id="stop2988" offset=".5" stop-color="#b7d7b4" stop-opacity="1"/><stop id="stop2986" offset="1" stop-color="#c2ddbf" stop-opacity="1"/></linearGradient><linearGradient id="linearGradient2881"><stop id="stop2883" offset="0" stop-color="#e58721" stop-opacity="1"/><stop id="stop2885" offset="1" stop-color="#e6b32a" stop-opacity="1"/></linearGradient><linearGradient id="linearGradient2248"><stop id="stop2250" offset="0" stop-color="#fff" stop-opacity="1"/><stop id="stop2252" offset="1" stop-color="#fff" stop-opacity="0"/></linearGradient><linearGradient id="linearGradient2236"><stop id="stop2238" offset="0" stop-color="#000" stop-opacity="1"/><stop id="stop2240" offset="1" stop-color="#000" stop-opacity="0"/></linearGradient><linearGradient id="linearGradient2224"><stop id="stop2226" offset="0" stop-color="#383838" stop-opacity="1"/><stop id="stop2228" offset="1" stop-color="#484848" stop-opacity="1"/></linearGradient><linearGradient id="linearGradient2214"><stop id="stop2216" offset="0" stop-color="#1f1f1f" stop-opacity="1"/><stop id="stop2218" offset="1" stop-color="#353535" stop-opacity="1"/></linearGradient><linearGradient id="linearGradient2230" x1="25.429" x2="25.429" y1="18.286" y2="5.429" gradientTransform="matrix(1.0888888,0,0,1.0498581,-1.9777745,1001.963)" gradientUnits="userSpaceOnUse" xlink:href="#linearGradient2982"/><linearGradient id="linearGradient2242" x1="28.486" x2="28.486" y1="4.159" y2="11.122" gradientTransform="matrix(1.0888888,0,0,0.78305719,-1.9777745,1003.4114)" gradientUnits="userSpaceOnUse" xlink:href="#linearGradient2236"/><linearGradient id="linearGradient2246" x1="28.486" x2="28.486" y1="4.159" y2="11.837" gradientTransform="matrix(1.0888888,0,0,0.72721301,-1.9777745,-1027.2078)" gradientUnits="userSpaceOnUse" xlink:href="#linearGradient2248"/><linearGradient id="linearGradient2272" x1="25.429" x2="25.429" y1="21.429" y2="5.429" gradientTransform="matrix(0.41304965,0,0,0.71296293,24.236318,1021.7041)" gradientUnits="userSpaceOnUse" xlink:href="#linearGradient2224"/><linearGradient id="linearGradient2296" x1="25.429" x2="25.429" y1="21.429" y2="5.429" gradientTransform="matrix(0.41304966,0,0,0.71296295,24.236318,1034.6955)" gradientUnits="userSpaceOnUse" xlink:href="#linearGradient2881"/><linearGradient id="linearGradient2948" x1="3.951" x2="5.616" y1="11.578" y2="11.578" gradientTransform="matrix(-1.0498581,0,0,1.0498581,49.774138,-1.0494)" gradientUnits="userSpaceOnUse" xlink:href="#linearGradient2236"/><linearGradient id="linearGradient3514" x1="3.951" x2="5.616" y1="11.578" y2="11.578" gradientTransform="matrix(1.0498581,0,0,1.0498581,-1.7735707,1003.3128)" gradientUnits="userSpaceOnUse" xlink:href="#linearGradient2236"/><linearGradient id="linearGradient4351" x1="25.429" x2="25.429" y1="21.429" y2="5.429" gradientTransform="matrix(0.41304965,0,0,0.71296293,24.236318,1021.7041)" gradientUnits="userSpaceOnUse" xlink:href="#linearGradient2224"/><linearGradient id="linearGradient4359" x1="25.429" x2="25.429" y1="21.429" y2="5.429" gradientTransform="matrix(0.41304965,0,0,0.71296293,24.236318,1021.7041)" gradientUnits="userSpaceOnUse" xlink:href="#linearGradient2224"/></defs><metadata id="metadata7"/><g id="layer1" transform="translate(0,-1004.3622)"><rect id="rect2991-1" width="48" height="48" x="0" y="-1052.362" fill="url(#linearGradient857)" fill-opacity="1" stroke="none" ry="1.945" transform="scale(1,-1)"/><g id="g4266"><path id="rect846" fill="#000" fill-opacity="1" stroke="none" d="m -1.1500549e-7,1049.3622 0,1.0625 c 0,1.0773 0.86022279500549,1.9375 1.93749991500549,1.9375 l 44.1250002,0 c 1.077277,0 1.9375,-0.8602 1.9375,-1.9375 l 0,-1.0625 c 0,1.0773 -0.860223,1.9375 -1.9375,1.9375 l -44.1250002,0 C 0.86022268,1051.2997 -1.1500549e-7,1050.4395 -1.1500549e-7,1049.3622 Z"/><path id="path7515" fill="#fff" fill-opacity=".537" stroke="none" d="m 2.5312498,1005.0185 c -0.9170884,0 -1.67114682,0.6395 -1.84375002,1.5 0.33561212,-0.2799 0.77451222,-0.4375 1.25000002,-0.4375 l 44.1250002,0 c 0.475488,0 0.914388,0.1576 1.25,0.4375 -0.172603,-0.8605 -0.926662,-1.5 -1.84375,-1.5 L 2.5312498,1005.0185 Z"/><path id="rect4280" fill="#000" fill-opacity=".392" stroke="none" d="m 1.9374998,1004.3622 c -1.07727702,0 -1.93749991500549,0.8602 -1.93749991500549,1.9375 l 0,43.0625 c 0,0.7934 0.48002349500549,1.449 1.15624991500549,1.75 -0.30934172,-0.3333 -0.50000002,-0.7824 -0.50000002,-1.2812 l 0,-42.9375 c 0,-1.0482 0.82689902,-1.875 1.87500002,-1.875 l 42.9375002,0 c 1.048101,0 1.875,0.8268 1.875,1.875 l 0,42.9375 c 0,0.4988 -0.190658,0.9479 -0.5,1.2812 0.676226,-0.301 1.15625,-0.9566 1.15625,-1.75 l 0,-43.0625 c 0,-1.0773 -0.860223,-1.9375 -1.9375,-1.9375 L 1.9374998,1004.3622 Z"/></g><g id="g4341" transform="translate(0,0.09011672)"><rect id="rect2268" width="16" height="11" x="26.091" y="1025.371" fill="#000" fill-opacity="1" fill-rule="nonzero" stroke="none" stroke-width="1.4" color="#000" display="inline" enable-background="accumulate" overflow="visible" ry="1.275" visibility="visible" style="marker:none"/><rect id="rect2270" width="15.696" height="10.593" x="26.243" y="1025.575" fill="url(#linearGradient2272)" fill-opacity="1" fill-rule="nonzero" stroke="none" stroke-width="1.4" color="#000" display="inline" enable-background="accumulate" overflow="visible" ry="1.135" visibility="visible" style="marker:none"/></g><g id="g4345" transform="translate(-20.059547,0.09011672)"><rect id="rect4347" width="16" height="11" x="26.091" y="1025.371" fill="#000" fill-opacity="1" fill-rule="nonzero" stroke="none" stroke-width="1.4" color="#000" display="inline" enable-background="accumulate" overflow="visible" ry="1.275" visibility="visible" style="marker:none"/><rect id="rect4349" width="15.696" height="10.593" x="26.243" y="1025.575" fill="url(#linearGradient4351)" fill-opacity="1" fill-rule="nonzero" stroke="none" stroke-width="1.4" color="#000" display="inline" enable-background="accumulate" overflow="visible" ry="1.135" visibility="visible" style="marker:none"/></g><g id="text2950" fill="#cdcdcd" fill-opacity="1" stroke="none" font-family="Colaborate-Regular" font-size="7.5" font-stretch="normal" font-style="normal" font-variant="normal" font-weight="bold" letter-spacing="0" transform="matrix(1.0498581,0,0,1.0498581,-1.0466134,1003.4248)" word-spacing="0" style="line-height:125%;-inkscape-font-specification:Colaborate-Regular Bold"><path id="path2973" d="m 15.959031,26.468574 0,-0.5325 -1.2975,0 0,-1.3125 -0.6,0 0,1.3125 -1.2975,0 0,0.5325 1.2975,0 0,1.365 0.6,0 0,-1.365 1.2975,0 z"/></g><g id="text2954" fill="#cdcdcd" fill-opacity="1" stroke="none" font-family="Colaborate-Regular" font-size="7.5" font-stretch="normal" font-style="normal" font-variant="normal" font-weight="bold" letter-spacing="0" transform="matrix(1.0498581,0,0,1.0498581,-1.0466134,1003.4248)" word-spacing="0" style="line-height:125%;-inkscape-font-specification:Colaborate-Regular Bold"><path id="path2970" d="m 34.410255,26.513572 0,-0.57 -2.115,0 0,0.57 2.115,0 z"/></g><g id="g4353" transform="translate(-20.059547,12.991211)"><rect id="rect4355" width="16" height="11" x="26.091" y="1025.371" fill="#000" fill-opacity="1" fill-rule="nonzero" stroke="none" stroke-width="1.4" color="#000" display="inline" enable-background="accumulate" overflow="visible" ry="1.275" visibility="visible" style="marker:none"/><rect id="rect4357" width="15.696" height="10.593" x="26.243" y="1025.575" fill="url(#linearGradient4359)" fill-opacity="1" fill-rule="nonzero" stroke="none" stroke-width="1.4" color="#000" display="inline" enable-background="accumulate" overflow="visible" ry="1.135" visibility="visible" style="marker:none"/></g><g id="text2958" fill="#cdcdcd" fill-opacity="1" stroke="none" font-family="Colaborate-Regular" font-size="7.5" font-stretch="normal" font-style="normal" font-variant="normal" font-weight="bold" letter-spacing="0" transform="matrix(1.0498581,0,0,1.0498581,-1.046614,1003.2777)" word-spacing="0" style="line-height:125%;-inkscape-font-specification:Colaborate-Regular Bold"><path id="path2976" d="m 15.951532,40.370895 -1.2225,-1.785 1.1625,-1.6425 -0.705,0 -0.795,1.1925 -0.765,-1.1925 -0.7725,0 1.155,1.695 -1.2375,1.7325 0.7125,0 0.87,-1.2675 0.825,1.2675 0.7725,0 z"/></g><rect id="rect2254" width="42" height="16.198" x="3" y="1007.362" fill="#000" fill-opacity="1" fill-rule="nonzero" stroke="none" stroke-width="1.4" color="#000" display="inline" enable-background="accumulate" overflow="visible" ry="1.05" visibility="visible" style="marker:none"/><rect id="rect2222" width="41.378" height="15.598" x="3.311" y="1007.662" fill="url(#linearGradient2230)" fill-opacity="1" fill-rule="nonzero" stroke="none" stroke-width="1.4" color="#000" display="inline" enable-background="accumulate" overflow="visible" ry="1.087" visibility="visible" style="marker:none"/><rect id="rect2232" width="41.378" height="7.782" x="3.311" y="1007.662" fill="url(#linearGradient2242)" fill-opacity="1" fill-rule="nonzero" stroke="none" stroke-width="1.4" color="#000" display="inline" enable-background="accumulate" opacity=".445" overflow="visible" ry=".755" visibility="visible" style="marker:none"/><rect id="rect2244" width="41.378" height="4.781" x="3.311" y="-1023.26" fill="url(#linearGradient2246)" fill-opacity="1" fill-rule="nonzero" stroke="none" stroke-width="1.4" color="#000" display="inline" enable-background="accumulate" opacity=".503" overflow="visible" ry="1.064" transform="scale(1,-1)" visibility="visible" style="marker:none"/><g id="text2978" fill="#40443f" fill-opacity="1" stroke="none" font-family="Colaborate-Medium" font-size="10.451" font-stretch="normal" font-style="normal" font-variant="normal" font-weight="bold" letter-spacing="0" transform="matrix(1.0498581,0,0,1.0498581,-1.0466134,1003.3128)" word-spacing="0" style="line-height:125%;-inkscape-font-specification:Colaborate-Medium Bold"><path id="path876" d="m 28.698945,14.96209 0,-6.3543791 -1.275056,0 -1.6304,1.2541537 0.397149,0.9510664 1.191446,-0.9510664 0,5.1002254 1.316861,0 z"/><path id="path878" d="m 35.419772,14.951638 0,-0.98242 -2.926359,0 c 1.013774,-0.679333 2.800943,-2.111159 2.800943,-3.448923 0,-1.6199482 -1.170543,-2.0693533 -2.320184,-2.0693533 -0.689784,0 -0.98242,0.062708 -2.027548,0.4285025 l 0.386697,1.0764819 c 0.710687,-0.3762461 1.160092,-0.522564 1.619949,-0.522564 0.564369,0 1.024225,0.2299281 1.024225,1.1287379 0,1.076482 -2.236574,2.581467 -3.239897,3.313056 l 0.365795,1.076482 4.316379,0 z"/><path id="path880" d="m 40.771481,13.174921 c 0,-1.034677 -0.857005,-1.452728 -1.588595,-1.567693 0.742041,-0.09406 1.431826,-0.512112 1.431826,-1.39002 0,-1.1809946 -0.762944,-1.7662663 -2.205221,-1.7662663 -0.522564,0 -1.546789,0.1567692 -2.006646,0.3866974 l 0.386698,1.0764819 c 0.470307,-0.2299282 1.076482,-0.4807589 1.578143,-0.4807589 0.564369,0 0.930164,0.2299281 0.930164,0.8047489 0,0.846553 -0.647979,0.89881 -1.828974,0.89881 l 0,0.961518 c 1.201897,0 1.985743,0.104512 1.985743,1.06603 0,0.533016 -0.4076,0.982421 -1.14964,0.982421 -0.689785,0 -1.421375,-0.261282 -1.6304,-0.365795 l -0.386698,1.076482 c 0.606175,0.209025 1.275057,0.271733 1.985744,0.271733 1.149641,0 2.497856,-0.4076 2.497856,-1.954389 z"/></g><g id="text2990" fill="#272926" fill-opacity=".063" stroke="none" font-family="Colaborate-Medium" font-size="10.451" font-stretch="normal" font-style="normal" font-variant="normal" font-weight="bold" letter-spacing="0" transform="matrix(1.0498581,0,0,1.0498581,-1.0466134,1003.3128)" word-spacing="0" style="line-height:125%;-inkscape-font-specification:Colaborate-Medium Bold"><path id="path869" d="m 28.294885,14.96209 0,-6.3543791 -1.275056,0 -1.6304,1.2541537 0.397148,0.9510664 1.191446,-0.9510664 0,5.1002254 1.316862,0 z"/><path id="path871" d="m 35.015711,14.951638 0,-0.98242 -2.926358,0 c 1.013774,-0.679333 2.800943,-2.111159 2.800943,-3.448923 0,-1.6199482 -1.170543,-2.0693533 -2.320184,-2.0693533 -0.689785,0 -0.982421,0.062708 -2.027549,0.4285025 l 0.386698,1.0764819 c 0.710687,-0.3762461 1.160092,-0.522564 1.619948,-0.522564 0.564369,0 1.024226,0.2299281 1.024226,1.1287379 0,1.076482 -2.236574,2.581467 -3.239897,3.313056 l 0.365795,1.076482 4.316378,0 z"/><path id="path873" d="m 40.36742,13.174921 c 0,-1.034677 -0.857005,-1.452728 -1.588594,-1.567693 0.742041,-0.09406 1.431825,-0.512112 1.431825,-1.39002 0,-1.1809946 -0.762943,-1.7662663 -2.20522,-1.7662663 -0.522564,0 -1.54679,0.1567692 -2.006646,0.3866974 l 0.386697,1.0764819 c 0.470308,-0.2299282 1.076482,-0.4807589 1.578144,-0.4807589 0.564369,0 0.930164,0.2299281 0.930164,0.8047489 0,0.846553 -0.64798,0.89881 -1.828974,0.89881 l 0,0.961518 c 1.201897,0 1.985743,0.104512 1.985743,1.06603 0,0.533016 -0.4076,0.982421 -1.149641,0.982421 -0.689784,0 -1.421374,-0.261282 -1.6304,-0.365795 l -0.386697,1.076482 c 0.606174,0.209025 1.275056,0.271733 1.985743,0.271733 1.149641,0 2.497856,-0.4076 2.497856,-1.954389 z"/></g><g id="g4337"><rect id="rect2290" width="16" height="11" x="26.091" y="1038.362" fill="#000" fill-opacity="1" fill-rule="nonzero" stroke="none" stroke-width="1.4" color="#000" display="inline" enable-background="accumulate" overflow="visible" ry="1.275" visibility="visible" style="marker:none"/><rect id="rect2292" width="15.696" height="10.593" x="26.243" y="1038.566" fill="url(#linearGradient2296)" fill-opacity="1" fill-rule="nonzero" stroke="none" stroke-width="1.4" color="#000" display="inline" enable-background="accumulate" overflow="visible" ry="1.135" visibility="visible" style="marker:none"/></g><path font-stretch="normal" style="line-height:125%;-inkscape-font-specification:Colaborate-Regular Bold" id="path991" fill="#2d3944" fill-opacity="1" stroke="none" d="m 32.38152,1042.8973 0,0.5664 3.417968,0 0,-0.5664 -3.417968,0 z m 0,1.3614 0,0.5683 3.417968,0 0,-0.5683 -3.417968,0 z" font-family="Colaborate-Regular" font-size="7.5" font-style="normal" font-variant="normal" font-weight="bold" letter-spacing="0" word-spacing="0"/><path d="m 4.1646293,1007.7099 0,15.5039 c -0.485142,-0.1095 -0.853515,-0.5219 -0.853515,-1.0411 l 0,-13.4238 c 0,-0.5191 0.368478,-0.9295 0.853515,-1.039 z" style="marker:none" id="path3512" fill="url(#linearGradient3514)" fill-opacity="1" fill-rule="nonzero" stroke="none" stroke-width="1.4" color="#000" display="inline" enable-background="accumulate" overflow="visible" visibility="visible"/><path id="path2946" fill="url(#linearGradient2948)" fill-opacity="1" fill-rule="nonzero" stroke="none" stroke-width="1.4" d="M 43.835938 3.3476562 L 43.835938 18.851562 C 44.32108 18.74211 44.689453 18.329705 44.689453 17.810547 L 44.689453 4.3867188 C 44.689453 3.8676347 44.320975 3.4571855 43.835938 3.3476562 z" color="#000" display="inline" enable-background="accumulate" overflow="visible" transform="translate(0,1004.3622)" visibility="visible" style="marker:none"/></g></svg>