<svg xmlns="http://www.w3.org/2000/svg" xmlns:svg="http://www.w3.org/2000/svg" xmlns:xlink="http://www.w3.org/1999/xlink" id="svg2" width="48" height="48" version="1.1"><defs id="defs4"><linearGradient id="linearGradient1671"><stop id="stop1673" offset="0" stop-color="#000" stop-opacity="1"/><stop id="stop1675" offset="1" stop-color="#666" stop-opacity="1"/></linearGradient><linearGradient id="linearGradient1645"><stop id="stop1647" offset="0" stop-color="#000" stop-opacity="1"/><stop id="stop1649" offset="1" stop-color="#eaeaea" stop-opacity=".294"/></linearGradient><linearGradient id="linearGradient1651" x1="28.8" x2="28.8" y1="-1052.387" y2="-1004.387" gradientUnits="userSpaceOnUse" xlink:href="#linearGradient1645"/><linearGradient id="linearGradient1677" x1="971.343" x2="971.343" y1="407.181" y2="344.107" gradientUnits="userSpaceOnUse" xlink:href="#linearGradient1671"/><linearGradient id="linearGradient1679" x1="971.343" x2="971.343" y1="407.181" y2="344.107" gradientUnits="userSpaceOnUse" xlink:href="#linearGradient1671"/></defs><metadata id="metadata7"/><g id="layer1" transform="translate(0,-1004.3622)"><g id="g1703"><path id="path1436" fill="#00d1f8" fill-opacity="1" stroke="none" d="M 5.03125 0 L 16 7.53125 L 16 0 L 5.03125 0 z" transform="translate(0,1004.3622)"/><path id="path1438" fill="#00c6f5" fill-opacity="1" stroke="none" d="M 16 0 L 16 7.53125 L 26.96875 0 L 16 0 z" transform="translate(0,1004.3622)"/><path id="path1440" fill="#00e5fc" fill-opacity="1" stroke="none" d="M 26.96875 0 L 16 7.53125 L 32 7.53125 L 32 0 L 26.96875 0 z" transform="translate(0,1004.3622)"/><path id="path1442" fill="#01afec" fill-opacity="1" stroke="none" d="M 1.9375 0 C 0.86022285 0 0 0.86022285 0 1.9375 L 0 7.53125 L 16 7.53125 L 5.03125 0 L 1.9375 0 z" transform="translate(0,1004.3622)"/><path id="path1446" fill="#0056ad" fill-opacity="1" stroke="none" d="M 32 0 L 32 7.53125 L 42.96875 0 L 32 0 z" transform="translate(0,1004.3622)"/><path id="path1448" fill="#0180d1" fill-opacity="1" stroke="none" d="M 42.96875 0 L 32 7.53125 L 48 7.53125 L 48 1.9375 C 48 0.86022285 47.139777 0 46.0625 0 L 42.96875 0 z" transform="translate(0,1004.3622)"/><path id="path1455" fill="#0056ad" fill-opacity="1" stroke="none" d="M 0,1022.8674 0,1011.8779 15.999999,1011.8779 Z"/><path id="path1457" fill="#00d1f8" fill-opacity="1" stroke="none" d="m 15.999999,1011.8779 0,10.9895 L 0,1022.8674 Z"/><path id="path1459" fill="#00e5fc" fill-opacity="1" stroke="none" d="m 15.999999,1022.8674 0,-10.9895 L 31.999998,1011.8779 Z"/><path id="path1461" fill="#01afec" fill-opacity="1" stroke="none" d="m 31.999998,1011.8779 0,10.9895 L 15.999999,1022.8674 Z"/><path id="path1463" fill="#00c6f5" fill-opacity="1" stroke="none" d="m 31.999998,1022.8674 0,-10.9895 L 47.999997,1011.8779 Z"/><path id="path1465" fill="#01afec" fill-opacity="1" stroke="none" d="m 47.999997,1011.8779 0,10.9895 L 31.999998,1022.8674 Z"/><path id="path1467" fill="#00d1f8" fill-opacity="1" stroke="none" d="m 15.999999,1033.8569 0,-10.9895 L 0,1022.8674 Z"/><path id="path1469" fill="#00c6f5" fill-opacity="1" stroke="none" d="m 15.999999,1033.8569 0,-10.9895 L 32.000001,1022.8674 Z"/><path id="path1471" fill="#00e5fc" fill-opacity="1" stroke="none" d="m 32.000001,1022.8674 0,10.9895 L 15.999999,1033.8569 Z"/><path id="path1473" fill="#01afec" fill-opacity="1" stroke="none" d="M 0,1022.8674 0,1033.8569 15.999999,1033.8569 Z"/><path id="path1475" fill="#0056ad" fill-opacity="1" stroke="none" d="m 32.000001,1033.8569 0,-10.9895 L 48,1022.8674 Z"/><path id="path1477" fill="#0180d1" fill-opacity="1" stroke="none" d="m 48,1022.8674 0,10.9895 L 32.000001,1033.8569 Z"/><path id="path1479" fill="#0056ad" fill-opacity="1" stroke="none" d="M 0,1044.8465 0,1033.8569 15.999999,1033.8569 Z"/><path id="path1481" fill="#00d1f8" fill-opacity="1" stroke="none" d="m 15.999999,1033.8569 0,10.9895 L 0,1044.8465 Z"/><path id="path1483" fill="#00e5fc" fill-opacity="1" stroke="none" d="m 15.999999,1044.8465 0,-10.9895 L 31.999998,1033.8569 Z"/><path id="path1485" fill="#01afec" fill-opacity="1" stroke="none" d="m 31.999998,1033.8569 0,10.9895 L 15.999999,1044.8465 Z"/><path id="path1487" fill="#00c6f5" fill-opacity="1" stroke="none" d="m 31.999998,1044.8465 0,-10.9895 L 47.999997,1033.8569 Z"/><path id="path1489" fill="#01afec" fill-opacity="1" stroke="none" d="m 47.999997,1033.8569 0,10.9895 L 31.999998,1044.8465 Z"/><path id="path1503" fill="#00d1f8" fill-opacity="1" stroke="none" d="M 0 40.46875 L 10.96875 48 L 16 48 L 16 40.46875 L 0 40.46875 z" transform="translate(0,1004.3622)"/><path id="path1505" fill="#00c6f5" fill-opacity="1" stroke="none" d="M 16 40.46875 L 16 48 L 21.03125 48 L 32 40.46875 L 16 40.46875 z" transform="translate(0,1004.3622)"/><path id="path1507" fill="#00e5fc" fill-opacity="1" stroke="none" d="M 32 40.46875 L 21.03125 48 L 32 48 L 32 40.46875 z" transform="translate(0,1004.3622)"/><path id="path1509" fill="#01afec" fill-opacity="1" stroke="none" d="M 0 40.46875 L 0 46.0625 C 0 47.139777 0.86022285 48 1.9375 48 L 10.96875 48 L 0 40.46875 z" transform="translate(0,1004.3622)"/><path id="path1511" fill="#0056ad" fill-opacity="1" stroke="none" d="M 32 40.46875 L 32 48 L 37.03125 48 L 48 40.46875 L 32 40.46875 z" transform="translate(0,1004.3622)"/><path id="path1513" fill="#0180d1" fill-opacity="1" stroke="none" d="M 48 40.46875 L 37.03125 48 L 46.0625 48 C 47.139777 48 48 47.139777 48 46.0625 L 48 40.46875 z" transform="translate(0,1004.3622)"/></g><rect id="rect2991-1-7" width="48" height="48" x="0" y="-1052.362" fill="url(#linearGradient1651)" fill-opacity="1" stroke="none" opacity=".7" ry="1.945" transform="scale(1,-1)"/><g id="g1450"><path id="rect846" fill="#000" fill-opacity="1" stroke="none" d="m -5.8073151e-6,1049.3622 0,1.0625 c 0,1.0773 0.8602199973151,1.9375 1.9375000073151,1.9375 l 44.1249998,0 c 1.07728,0 1.9375,-0.8602 1.9375,-1.9375 l 0,-1.0625 c 0,1.0773 -0.86022,1.9375 -1.9375,1.9375 l -44.1249998,0 C 0.86021419,1051.2997 -5.8073151e-6,1050.4395 -5.8073151e-6,1049.3622 Z"/><path id="path7515" fill="#fff" fill-opacity=".537" stroke="none" d="m 2.5312442,1005.0185 c -0.91709,0 -1.67115001,0.6395 -1.84375001,1.5 0.33561001,-0.2799 0.77451001,-0.4375 1.25000001,-0.4375 l 44.1249998,0 c 0.47549,0 0.91439,0.1576 1.25,0.4375 -0.1726,-0.8605 -0.92666,-1.5 -1.84375,-1.5 L 2.5312442,1005.0185 Z"/><path id="rect4280" fill="#000" fill-opacity=".392" stroke="none" d="m 1.9374942,1004.3622 c -1.07728001,0 -1.9375000073151,0.8602 -1.9375000073151,1.9375 l 0,43.0625 c 0,0.7934 0.4800199973151,1.449 1.1562500073151,1.75 -0.30934001,-0.3333 -0.50000001,-0.7824 -0.50000001,-1.2812 l 0,-42.9375 c 0,-1.0482 0.82690001,-1.875 1.87500001,-1.875 l 42.9374998,0 c 1.0481,0 1.875,0.8268 1.875,1.875 l 0,42.9375 c 0,0.4988 -0.19066,0.9479 -0.5,1.2812 0.67623,-0.301 1.15625,-0.9566 1.15625,-1.75 l 0,-43.0625 c 0,-1.0773 -0.86022,-1.9375 -1.9375,-1.9375 L 1.9374942,1004.3622 Z"/></g><g id="g1735" transform="matrix(0.97709924,0,0,0.97709924,0.54961824,23.477775)"><g id="_x31__navigation_forward" fill="url(#linearGradient1677)" fill-opacity="1" transform="matrix(0.50374662,0,0,0.50374662,-459.61162,839.20383)"><polygon id="polygon1155" fill="url(#linearGradient1679)" fill-opacity="1" points="956.496 401.765 961.994 407.265 993.76 375.507 961.994 343.741 956.496 349.243 978.865 371.614 926.299 371.614 926.299 379.394 978.865 379.394"/></g><path id="polygon1683" fill="#fff" fill-opacity=".206" d="m 22.4375,1015.3739 -0.21875,0.2188 10.84375,10.8125 0.4375,0 L 22.4375,1015.3739 z m 18.3125,13.1875 -15.75,15.7813 -2.5625,-2.5313 -0.21875,0.2188 2.78125,2.7812 16,-16 L 40.75,1028.5614 z m -33.75,1.75 0,0.4688 26.03125,0 L 33.5,1030.3114 7,1030.3114 Z"/><path id="polygon1694" fill="#000" fill-opacity=".212" d="m 25,1012.0614 -2.78125,2.7813 0.15625,0.1562 2.625,-2.625 15.84375,15.8438 L 41,1028.0614 25,1012.0614 z m -18,14.0313 0,0.3125 26.5,0 -0.3125,-0.3125 L 7,1026.0927 z m 26.1875,4.25 -10.96875,10.9375 0.15625,0.1562 L 33.5,1030.3427 33.1875,1030.3427 Z"/></g></g></svg>