<svg xmlns="http://www.w3.org/2000/svg" xmlns:svg="http://www.w3.org/2000/svg" xmlns:xlink="http://www.w3.org/1999/xlink" id="svg2" width="48" height="48" version="1.1" viewBox="0 0 13.547 13.547"><metadata id="metadata52"/><defs id="defs4"><linearGradient id="linearGradient4369"><stop id="stop4371" offset="0" stop-color="#f4c4cb" stop-opacity="1"/><stop id="stop4373" offset="1" stop-color="#fff7f5" stop-opacity="1"/></linearGradient><linearGradient id="linearGradient4074"><stop id="stop4076" offset="0" stop-color="#db334c" stop-opacity="1"/><stop id="stop4078" offset="1" stop-color="#fe6136" stop-opacity="1"/></linearGradient><linearGradient id="linearGradient4080" x1="413.841" x2="413.841" y1="-547.813" y2="-499.795" gradientTransform="matrix(0.28222223,0,0,0.28222223,-108.53462,141.0541)" gradientUnits="userSpaceOnUse" xlink:href="#linearGradient4074"/><linearGradient id="linearGradient4367" x1="8.102" x2="8.102" y1="11.06" y2="2.441" gradientUnits="userSpaceOnUse" xlink:href="#linearGradient4369"/></defs><rect id="rect2991-1-7" width="13.547" height="13.547" x="0" y="-13.547" fill="url(#linearGradient4080)" fill-opacity="1" stroke="none" ry=".549" transform="scale(1,-1)"/><path id="path4381" fill="#000" fill-opacity=".059" fill-rule="evenodd" stroke="none" stroke-width="1" d="m 5.6867765,5.9167882 0,4.2365568 -4.89e-5,-2.8e-5 c 0.0038,0.387439 -0.2536944,0.824305 -0.7874702,1.098818 C 4.1579277,11.633391 3.378373,11.447324 3.0930381,11.00709 2.8077032,10.566855 3.0165827,9.8724532 3.7579069,9.4911972 4.2564674,9.2347972 4.7723151,9.234982 5.1434987,9.3965093 l 0,-3.3710656 0,-2.173111 5.4327773,-1.0865555 0,0.5432777 0,1.6298333 0,4.6724386 -3.2e-5,1.63e-5 C 10.579544,9.9984556 10.321935,10.434649 9.7887571,10.708857 9.0474275,11.090113 8.2678728,10.904046 7.9825379,10.463812 7.697203,10.023577 7.9060824,9.3291755 8.6474066,8.9479194 9.1459672,8.6915195 9.6618148,8.6917042 10.032999,8.8532316 l 0,-3.8056879 z m 0,0"/><path id="path4379" fill="#000" fill-opacity=".118" fill-rule="evenodd" stroke="none" stroke-width="1" d="m 5.6867765,5.8038996 0,4.2365564 -4.89e-5,-2.8e-5 c 0.0038,0.387439 -0.2536944,0.824305 -0.7874702,1.098818 C 4.1579277,11.520502 3.378373,11.334435 3.0930381,10.894201 2.8077032,10.453966 3.0165827,9.7595646 3.7579069,9.3783086 4.2564674,9.1219086 4.7723151,9.1220934 5.1434987,9.2836207 l 0,-3.3710656 0,-2.173111 5.4327773,-1.0865555 0,0.5432777 0,1.6298333 0,4.6724386 -3.2e-5,1.63e-5 C 10.579544,9.885567 10.321935,10.32176 9.7887571,10.595968 9.0474275,10.977224 8.2678728,10.791157 7.9825379,10.350923 7.697203,9.9106882 7.9060824,9.2162869 8.6474066,8.8350308 9.1459672,8.5786309 9.6618148,8.5788156 10.032999,8.740343 l 0,-3.8056879 z m 0,0"/><path id="path4375" fill="#000" fill-opacity=".235" fill-rule="evenodd" stroke="none" stroke-width="1" d="m 5.6867765,5.6910105 0,4.2365559 -4.89e-5,-2.72e-5 C 5.6905276,10.314978 5.4330332,10.751844 4.8992574,11.026357 4.1579277,11.407613 3.378373,11.221546 3.0930381,10.781312 2.8077032,10.341077 3.0165827,9.6466755 3.7579069,9.2654195 4.2564674,9.0090195 4.7723151,9.0092043 5.1434987,9.1707316 l 0,-3.3710656 0,-2.173111 5.4327773,-1.0865555 0,0.5432777 0,1.6298333 0,4.6724386 -3.2e-5,1.63e-5 C 10.579503,9.7726779 10.321935,10.208871 9.7887571,10.483079 9.0474275,10.864335 8.2678728,10.678268 7.9825379,10.238034 7.697203,9.7977991 7.9060824,9.1033978 8.6474066,8.7221417 9.1459672,8.4657418 9.6618148,8.4659265 10.032999,8.6274539 l 0,-3.8056879 z m 0,0"/><path id="rect846" fill="#000" fill-opacity="1" stroke="none" d="m -3.4311111e-6,12.700004 0,0.299861 c 0,0.304038 0.2427732111111,0.546805 0.5468055711111,0.546805 l 12.45305586,0 c 0.304032,0 0.546806,-0.242767 0.546806,-0.546805 l 0,-0.299861 c 0,0.304038 -0.242774,0.546805 -0.546806,0.546805 l -12.45305586,0 c -0.30403236,0 -0.5468055711111,-0.242767 -0.5468055711111,-0.546805 z"/><path id="path7515" fill="#fff" fill-opacity=".537" stroke="none" d="m 0.71437159,0.18522574 c -0.25882319,0 -0.47163568,0.18048111 -0.52034724,0.42333334 0.0947166,-0.078994 0.21858394,-0.12347222 0.35277779,-0.12347222 l 12.45305586,0 c 0.134194,0 0.258061,0.0444782 0.352778,0.12347222 -0.04871,-0.24285223 -0.261524,-0.42333334 -0.520347,-0.42333334 l -12.11791741,0 z"/><path id="rect4280" fill="#000" fill-opacity=".392" stroke="none" d="M 0.54680214,3.2873177e-6 C 0.24276978,3.2873177e-6 -3.4311111e-6,0.24277085 -3.4311111e-6,0.54680886 l 0,12.15319514 c 0,0.223915 0.1354723111111,0.40894 0.3263194511111,0.493889 -0.0873026,-0.09406 -0.14111111,-0.220811 -0.14111111,-0.361584 l 0,-12.11791658 c 0,-0.29582534 0.23336956,-0.52916668 0.52916668,-0.52916668 l 12.11791741,0 c 0.295797,0 0.529166,0.23334134 0.529166,0.52916668 l 0,12.11791658 c 0,0.140773 -0.05381,0.267519 -0.141111,0.361584 0.190847,-0.08495 0.32632,-0.269974 0.32632,-0.493889 l 0,-12.15319514 C 13.546664,0.24277085 13.30389,3.2873177e-6 12.999858,3.2873177e-6 l -12.45305586,0 z"/><path id="Rectangle 233" fill="url(#linearGradient4367)" fill-opacity="1" fill-rule="evenodd" stroke="none" stroke-width="1" d="m 5.6867765,5.578119 0,4.2365559 -4.89e-5,-2.72e-5 C 5.6905305,10.202086 5.4330332,10.638952 4.8992574,10.913465 4.1579277,11.294721 3.378373,11.108654 3.0930381,10.66842 2.8077032,10.228185 3.0165827,9.533784 3.7579069,9.152528 4.2564674,8.896128 4.7723151,8.8963128 5.1434987,9.0578401 l 0,-3.3710656 0,-2.173111 5.4327773,-1.0865555 0,0.5432777 0,1.6298333 0,4.6724386 -3.2e-5,1.63e-5 C 10.579503,9.6597864 10.321935,10.095979 9.7887571,10.370187 9.0474275,10.751443 8.2678728,10.565376 7.9825379,10.125142 7.697203,9.6849076 7.9060824,8.9905063 8.6474066,8.6092502 9.1459672,8.3528503 9.6618148,8.353035 10.032999,8.5145624 l 0,-3.8056879 z m 0,0"/><path id="path4383" fill="#de364a" fill-opacity=".314" fill-rule="evenodd" stroke="none" stroke-width="1" d="M 35.550781 15.884766 L 20.150391 18.964844 L 20.150391 19.765625 L 35.550781 16.685547 L 35.550781 15.884766 z M 37.474609 32.056641 C 37.486157 33.428299 36.57476 34.973708 34.685547 35.945312 C 32.058789 37.29622 29.296185 36.636058 28.285156 35.076172 C 28.062376 34.732451 27.939952 34.341309 27.888672 33.931641 C 27.791742 34.63375 27.920746 35.314715 28.285156 35.876953 C 29.296185 37.436837 32.058789 38.095048 34.685547 36.744141 C 36.57476 35.772537 37.486157 34.227127 37.474609 32.855469 L 37.474609 32.056641 z M 20.150391 33.976562 C 20.163865 35.349378 19.250707 36.896457 17.359375 37.869141 C 14.732616 39.220048 11.970014 38.561837 10.958984 37.001953 C 10.737578 36.660351 10.616476 36.270152 10.564453 35.863281 C 10.469104 36.563291 10.595596 37.240121 10.958984 37.800781 C 11.970014 39.360665 14.732616 40.020829 17.359375 38.669922 C 19.249829 37.697689 20.163001 36.149682 20.150391 34.777344 L 20.150391 34.775391 L 20.150391 33.976562 z" transform="scale(0.28222223,0.28222223)"/><path id="path4388" fill="#fff" fill-opacity=".235" fill-rule="evenodd" stroke="none" stroke-width="1" d="M 37.474609 8.5996094 L 18.224609 12.449219 L 18.224609 12.949219 L 37.474609 9.0996094 L 37.474609 8.5996094 z M 33.263672 29.78125 C 32.421499 29.823107 31.523902 30.051608 30.640625 30.505859 C 28.621914 31.544063 27.728575 33.233467 27.876953 34.669922 C 27.958915 33.355823 28.852095 31.925683 30.640625 31.005859 C 32.407178 30.097356 34.235562 30.097581 35.550781 30.669922 L 35.550781 30.169922 C 34.893171 29.883751 34.105845 29.739393 33.263672 29.78125 z M 15.939453 31.707031 C 15.09728 31.748888 14.19773 31.975436 13.314453 32.429688 C 11.293799 33.468891 10.400231 35.162267 10.550781 36.599609 C 10.631149 35.28443 11.524123 33.850437 13.314453 32.929688 C 15.081006 32.021184 16.909392 32.021409 18.224609 32.59375 L 18.224609 32.09375 C 17.567001 31.80758 16.781626 31.665175 15.939453 31.707031 z" transform="scale(0.28222223,0.28222223)"/></svg>