<svg xmlns="http://www.w3.org/2000/svg" xmlns:svg="http://www.w3.org/2000/svg" xmlns:xlink="http://www.w3.org/1999/xlink" id="svg2" width="48" height="48" version="1.1"><defs id="defs4"><linearGradient id="linearGradient949"><stop id="stop951" offset="0" stop-color="#fff" stop-opacity="1"/><stop id="stop953" offset="1" stop-color="#fff" stop-opacity="0"/></linearGradient><linearGradient id="linearGradient938"><stop id="stop940" offset="0" stop-color="#f79721" stop-opacity="1"/><stop id="stop942" offset="1" stop-color="#ffd564" stop-opacity="1"/></linearGradient><linearGradient id="linearGradient930"><stop id="stop932" offset="0" stop-color="#eb7635" stop-opacity="1"/><stop id="stop934" offset="1" stop-color="#fbae40" stop-opacity="1"/></linearGradient><linearGradient id="linearGradient920"><stop id="stop922" offset="0" stop-color="#dd6932" stop-opacity="1"/><stop id="stop924" offset="1" stop-color="#eb9b3a" stop-opacity="1"/></linearGradient><linearGradient id="linearGradient895"><stop id="stop897" offset="0" stop-color="#dbdbdc" stop-opacity="1"/><stop id="stop899" offset="1" stop-color="#eff0f0" stop-opacity="1"/></linearGradient><linearGradient id="linearGradient901" x1="25.279" x2="25.279" y1="-1052.353" y2="-1004.356" gradientUnits="userSpaceOnUse" xlink:href="#linearGradient895"/><linearGradient id="linearGradient926" x1="26.25" x2="26.25" y1="48.25" y2="30.875" gradientUnits="userSpaceOnUse" xlink:href="#linearGradient920"/><linearGradient id="linearGradient928" x1="25.014" x2="25.014" y1="47.912" y2="21.66" gradientUnits="userSpaceOnUse" xlink:href="#linearGradient930"/><linearGradient id="linearGradient936" x1="26.163" x2="26.163" y1="47.912" y2="24.489" gradientUnits="userSpaceOnUse" xlink:href="#linearGradient938"/><linearGradient id="linearGradient955" x1="23.865" x2="23.865" y1="-4.856" y2="22.014" gradientUnits="userSpaceOnUse" xlink:href="#linearGradient949"/></defs><metadata id="metadata7"/><g id="layer1" transform="translate(0,-1004.3622)"><rect id="rect2991-1" width="48" height="48" x="0" y="-1052.362" fill="url(#linearGradient901)" fill-opacity="1" stroke="none" ry="1.945" transform="scale(1,-1)"/><g id="g981"><path id="path972" fill="#000" fill-opacity=".235" stroke="none" d="m 1.34375,1028.5849 c -0.44049395,-0.01 -0.88879331,0.01 -1.34375,0.031 l 0,0.3438 c 7.279307,-0.3846 12.553391,3.6038 20.75,2.9062 9.49732,-0.8082 19.815853,1.6707 27.25,-0.7812 l 0,-0.3438 c -7.434147,2.4519 -17.75268,-0.027 -27.25,0.7813 C 13.065679,1032.1764 7.9511592,1028.7036 1.34375,1028.5849 Z"/><path id="path977" fill="#000" fill-opacity=".119" stroke="none" d="m 1.34375,1028.245 c -0.44049395,-0.01 -0.88879331,0.01 -1.34375,0.031 l 0,0.3438 c 7.279307,-0.3846 12.553391,3.6038 20.75,2.9062 9.49732,-0.8082 19.815853,1.6707 27.25,-0.7812 l 0,-0.3438 c -7.434147,2.4519 -17.75268,-0.027 -27.25,0.7813 C 13.065679,1031.8365 7.9511592,1028.3637 1.34375,1028.245 Z"/><path id="path979" fill="#000" fill-opacity=".059" stroke="none" d="m 1.34375,1027.9052 c -0.44049395,-0.01 -0.88879331,0.01 -1.34375,0.031 l 0,0.3438 c 7.279307,-0.3846 12.553391,3.6038 20.75,2.9062 9.49732,-0.8082 19.815853,1.6707 27.25,-0.7812 l 0,-0.3438 c -7.434147,2.4519 -17.75268,-0.027 -27.25,0.7813 C 13.065679,1031.4967 7.9511592,1028.0239 1.34375,1027.9052 Z"/></g><path id="path910" fill="url(#linearGradient936)" fill-opacity="1" stroke="none" d="M 48,26.71875 C 40.565853,29.17065 30.24732,26.6917 20.75,27.5 12.553391,28.1976 7.279307,24.20915 0,24.59375 L 0,46.0625 C 0,47.139777 0.86022285,48 1.9375,48 l 44.125,0 C 47.139777,48 48,47.139777 48,46.0625 Z" transform="translate(0,1004.3622)"/><path id="path905" fill="url(#linearGradient928)" fill-opacity="1" stroke="none" stroke-linecap="butt" stroke-linejoin="miter" stroke-opacity="1" stroke-width="1" d="M 48 21.96875 C 40.565853 24.4206 30.24732 31.941717 20.75 32.75 C 12.553391 33.447584 7.2793073 27.459077 0 27.84375 L 0 46.0625 C 0 47.139777 0.86022285 48 1.9375 48 L 46.0625 48 C 47.139777 48 48 47.139777 48 46.0625 L 48 21.96875 z" transform="translate(0,1004.3622)"/><path id="path912" fill="url(#linearGradient926)" fill-opacity="1" stroke="none" d="M 0 30.84375 L 0 46.0625 C 0 47.139777 0.86022285 48 1.9375 48 L 46.0625 48 C 47.139777 48 48 47.139777 48 46.0625 L 48 36.71875 C 40.720693 36.33405 35.446609 42.3226 27.25 41.625 C 17.75268 40.8167 7.434147 33.29555 0 30.84375 z" transform="translate(0,1004.3622)"/><path id="rect944" fill="url(#linearGradient955)" fill-opacity="1" stroke="none" d="M 1.9375 0 C 0.86022285 0 0 0.86022285 0 1.9375 L 0 25.875 L 48 25.875 L 48 1.9375 C 48 0.86022285 47.139777 0 46.0625 0 L 1.9375 0 z" transform="translate(0,1004.3622)"/><g id="g991"><path id="path957" fill="#000" fill-opacity=".234" stroke="none" d="m 0,1034.8935 0,0.3125 c 7.434147,2.4518 17.75268,9.9729 27.25,10.7812 8.196609,0.6976 13.470693,-5.2909 20.75,-4.9062 l 0,-0.3125 c -7.279307,-0.3847 -12.553391,5.6038 -20.75,4.9062 C 17.75268,1044.8664 7.434147,1037.3453 0,1034.8935 Z"/><path id="path962" fill="#000" fill-opacity=".117" stroke="none" d="m 0,1034.581 0,0.3125 c 7.434147,2.4518 17.75268,9.9729 27.25,10.7812 8.196609,0.6976 13.470693,-5.2909 20.75,-4.9062 l 0,-0.3125 c -7.279307,-0.3847 -12.553391,5.6038 -20.75,4.9062 C 17.75268,1044.5539 7.434147,1037.0328 0,1034.581 Z"/><path id="path964" fill="#000" fill-opacity=".059" stroke="none" d="m 0,1034.2685 0,0.3125 c 7.434147,2.4518 17.75268,9.9729 27.25,10.7812 8.196609,0.6976 13.470693,-5.2909 20.75,-4.9062 l 0,-0.3125 c -7.279307,-0.3847 -12.553391,5.6038 -20.75,4.9062 C 17.75268,1044.2414 7.434147,1036.7203 0,1034.2685 Z"/></g><path id="path7515" fill="#fff" fill-opacity=".537" stroke="none" d="m 2.5312499,1005.0185 c -0.9170884,0 -1.67114668,0.6395 -1.84374988,1.5 0.33561198,-0.2799 0.77451208,-0.4375 1.24999988,-0.4375 l 44.1250001,0 c 0.475488,0 0.914388,0.1576 1.25,0.4375 -0.172603,-0.8605 -0.926662,-1.5 -1.84375,-1.5 L 2.5312499,1005.0185 Z"/><path id="rect846" fill="#000" fill-opacity="1" stroke="none" d="m 2.366333e-8,1049.3622 0,1.0625 c 0,1.0773 0.86022289633667,1.9375 1.93749987633667,1.9375 l 44.1250001,0 c 1.077277,0 1.9375,-0.8602 1.9375,-1.9375 l 0,-1.0625 c 0,1.0773 -0.860223,1.9375 -1.9375,1.9375 l -44.1250001,0 C 0.86022292,1051.2997 2.366333e-8,1050.4395 2.366333e-8,1049.3622 Z"/><g id="g986"><path id="path966" fill="#000" fill-opacity=".234" stroke="none" d="m 48,1026.016 0,0.3125 c -7.434147,2.4518 -17.75268,9.9729 -27.25,10.7812 -8.196609,0.6976 -13.470693,-5.2909 -20.75,-4.9062 l 0,-0.3125 c 7.279307,-0.3847 12.553391,5.6038 20.75,4.9062 C 30.24732,1035.9889 40.565853,1028.4678 48,1026.016 Z"/><path id="path968" fill="#000" fill-opacity=".117" stroke="none" d="m 48,1025.7035 0,0.3125 c -7.434147,2.4518 -17.75268,9.9729 -27.25,10.7812 -8.196609,0.6976 -13.470693,-5.2909 -20.75,-4.9062 l 0,-0.3125 c 7.279307,-0.3847 12.553391,5.6038 20.75,4.9062 C 30.24732,1035.6764 40.565853,1028.1553 48,1025.7035 Z"/><path id="path970" fill="#000" fill-opacity=".059" stroke="none" d="m 48,1025.391 0,0.3125 c -7.434147,2.4518 -17.75268,9.9729 -27.25,10.7812 -8.196609,0.6976 -13.470693,-5.2909 -20.75,-4.9062 l 0,-0.3125 c 7.279307,-0.3847 12.553391,5.6038 20.75,4.9062 C 30.24732,1035.3639 40.565853,1027.8428 48,1025.391 Z"/></g><path id="rect4280" fill="#000" fill-opacity=".392" stroke="none" d="m 1.9374999,1004.3622 c -1.07727688,0 -1.93749987633667,0.8602 -1.93749987633667,1.9375 l 0,43.0625 c 0,0.7934 0.48002359633667,1.449 1.15624987633667,1.75 -0.30934158,-0.3333 -0.49999988,-0.7824 -0.49999988,-1.2812 l 0,-42.9375 c 0,-1.0482 0.82689888,-1.875 1.87499988,-1.875 l 42.9375001,0 c 1.048101,0 1.875,0.8268 1.875,1.875 l 0,42.9375 c 0,0.4988 -0.190658,0.9479 -0.5,1.2812 0.676226,-0.301 1.15625,-0.9566 1.15625,-1.75 l 0,-43.0625 c 0,-1.0773 -0.860223,-1.9375 -1.9375,-1.9375 L 1.9374999,1004.3622 Z"/></g></svg>