<svg xmlns="http://www.w3.org/2000/svg" xmlns:svg="http://www.w3.org/2000/svg" xmlns:xlink="http://www.w3.org/1999/xlink" id="svg2" width="48" height="48" version="1.1"><defs id="defs4"><linearGradient id="linearGradient919"><stop id="stop921" offset="0" stop-color="#fff" stop-opacity="1"/><stop id="stop923" offset="1" stop-color="#fff" stop-opacity="0"/></linearGradient><linearGradient id="linearGradient906"><stop id="stop908" offset="0" stop-color="#4d4d4d" stop-opacity="1"/><stop id="stop910" offset="1" stop-color="#4d4d4d" stop-opacity="0"/></linearGradient><linearGradient id="linearGradient882"><stop id="stop884" offset="0" stop-color="#b3b3b3" stop-opacity="1"/><stop id="stop888" offset=".5" stop-color="#f9f9f9" stop-opacity="1"/><stop id="stop886" offset="1" stop-color="#b3b3b3" stop-opacity="1"/></linearGradient><linearGradient id="linearGradient854"><stop id="stop856" offset="0" stop-color="#666" stop-opacity="1"/><stop id="stop858" offset="1" stop-color="#000" stop-opacity="1"/></linearGradient><linearGradient id="linearGradient868" x1="24.72" x2="24.72" y1="36.706" y2="13.968" gradientUnits="userSpaceOnUse" xlink:href="#linearGradient854"/><linearGradient id="linearGradient872" x1="24.72" x2="24.72" y1="36.706" y2="12.328" gradientUnits="userSpaceOnUse" xlink:href="#linearGradient854"/><linearGradient id="linearGradient876" x1="24.72" x2="24.72" y1="36.706" y2="13.968" gradientUnits="userSpaceOnUse" xlink:href="#linearGradient854"/><linearGradient id="linearGradient880" x1="9.658" x2="38.381" y1="23.045" y2="23.045" gradientUnits="userSpaceOnUse" xlink:href="#linearGradient882"/><linearGradient id="linearGradient912" x1="21.024" x2="21.024" y1="36.778" y2="22.973" gradientUnits="userSpaceOnUse" xlink:href="#linearGradient906"/><linearGradient id="linearGradient925" x1="28.188" x2="25.625" y1="1033.737" y2="1028.737" gradientUnits="userSpaceOnUse" xlink:href="#linearGradient919"/><linearGradient id="linearGradient929" x1="28.188" x2="25.625" y1="1033.737" y2="1028.737" gradientTransform="matrix(0.70710678,-0.70710678,-0.70710678,-0.70710678,734.4644,768.5328)" gradientUnits="userSpaceOnUse" xlink:href="#linearGradient919"/><linearGradient id="linearGradient938" x1="28.188" x2="25.625" y1="1033.737" y2="1028.737" gradientTransform="matrix(0.44090187,-0.44090187,-0.44090187,-0.44090187,465.5072,1491.87)" gradientUnits="userSpaceOnUse" xlink:href="#linearGradient919"/><radialGradient id="radialGradient865" cx="-37.653" cy="-1015.239" r="24" fx="-37.653" fy="-1015.239" gradientTransform="matrix(-3.701206e-6,1.1567321,-1.1574315,-3.6887624e-6,-1151.0697,-984.81096)" gradientUnits="userSpaceOnUse" xlink:href="#linearGradient854"/></defs><metadata id="metadata7"/><g id="layer1" transform="translate(0,-1004.3622)"><rect id="rect2991-1" width="48" height="48" x="0" y="-1052.362" fill="url(#radialGradient865)" fill-opacity="1" stroke="none" ry="1.945" transform="scale(1,-1)"/><path id="rect846" fill="#000" fill-opacity="1" stroke="none" d="m 3.7670899e-7,1049.3622 0,1.0625 c 0,1.0773 0.86022300329101,1.9375 1.93750002329101,1.9375 l 44.1249996,0 c 1.077277,0 1.9375,-0.8602 1.9375,-1.9375 l 0,-1.0625 c 0,1.0773 -0.860223,1.9375 -1.9375,1.9375 l -44.1249996,0 C 0.86022338,1051.2997 3.7670899e-7,1050.4395 3.7670899e-7,1049.3622 Z"/><path id="path7515" fill="#fff" fill-opacity=".537" stroke="none" d="m 2.5312504,1005.0185 c -0.917089,0 -1.67114702,0.6395 -1.84375002,1.5 0.33561202,-0.2799 0.77451202,-0.4375 1.25000002,-0.4375 l 44.1249996,0 c 0.475488,0 0.914388,0.1576 1.25,0.4375 -0.172603,-0.8605 -0.926662,-1.5 -1.84375,-1.5 L 2.5312504,1005.0185 Z"/><path id="rect4280-8" fill="#000" fill-opacity=".392" stroke="none" d="m 1.9375004,1004.3622 c -1.07727702,0 -1.93750002329101,0.8602 -1.93750002329101,1.9375 l 0,43.0625 c 0,0.7934 0.48002300329101,1.449 1.15625002329101,1.75 -0.30934202,-0.3333 -0.50000002,-0.7824 -0.50000002,-1.2812 l 0,-42.9375 c 0,-1.0482 0.82689902,-1.875 1.87500002,-1.875 l 42.9374996,0 c 1.048101,0 1.875,0.8268 1.875,1.875 l 0,42.9375 c 0,0.4988 -0.190658,0.9479 -0.5,1.2812 0.676226,-0.301 1.15625,-0.9566 1.15625,-1.75 l 0,-43.0625 c 0,-1.0773 -0.860223,-1.9375 -1.9375,-1.9375 L 1.9375004,1004.3622 Z"/><g id="g940" transform="matrix(1.1678833,0,0,1.1678833,-4.0291996,-172.64483)"><path id="path860" fill="url(#linearGradient868)" fill-opacity="1" stroke="#4d4d4d" stroke-dasharray="none" stroke-miterlimit="4" stroke-opacity="1" stroke-width=".4" d="m 35.749997,24.750002 c 0,6.351274 -5.148725,11.499999 -11.499999,11.499999 -6.351274,0 -11.499999,-5.148725 -11.499999,-11.499999 0,-6.351274 5.148725,-11.499999 11.499999,-11.499999 C 30.601272,13.250003 35.749997,18.398728 35.749997,24.750002 Z" transform="matrix(1.1709402,0,0,1.1709402,-4.3952973,999.38142)"/><path id="path870" fill="url(#linearGradient872)" fill-opacity="1" stroke="url(#linearGradient912)" stroke-dasharray="none" stroke-miterlimit="4" stroke-opacity="1" stroke-width=".4" d="m 35.749997,24.750002 c 0,6.351274 -5.148725,11.499999 -11.499999,11.499999 -6.351274,0 -11.499999,-5.148725 -11.499999,-11.499999 0,-6.351274 5.148725,-11.499999 11.499999,-11.499999 C 30.601272,13.250003 35.749997,18.398728 35.749997,24.750002 Z" transform="matrix(0.91452991,0,0,0.91452991,1.8226515,1005.7276)"/><path id="path874" fill="url(#linearGradient876)" fill-opacity="1" stroke="#4d4d4d" stroke-dasharray="none" stroke-miterlimit="4" stroke-opacity="1" stroke-width=".4" d="m 35.749997,24.750002 c 0,6.351274 -5.148725,11.499999 -11.499999,11.499999 -6.351274,0 -11.499999,-5.148725 -11.499999,-11.499999 0,-6.351274 5.148725,-11.499999 11.499999,-11.499999 C 30.601272,13.250003 35.749997,18.398728 35.749997,24.750002 Z" transform="matrix(0.65811964,0,0,-0.65811964,8.0406003,1044.6507)"/><path id="path878" fill="url(#linearGradient880)" fill-opacity="1" stroke="#4d4d4d" stroke-dasharray="none" stroke-miterlimit="4" stroke-opacity="1" stroke-width=".4" d="m 35.749997,24.750002 c 0,6.351274 -5.148725,11.499999 -11.499999,11.499999 -6.351274,0 -11.499999,-5.148725 -11.499999,-11.499999 0,-6.351274 5.148725,-11.499999 11.499999,-11.499999 C 30.601272,13.250003 35.749997,18.398728 35.749997,24.750002 Z" transform="matrix(0.57264955,0,0,-0.57264955,10.11325,1042.5353)"/><path id="path890" fill="#003380" fill-opacity="1" stroke="#4d4d4d" stroke-dasharray="none" stroke-miterlimit="4" stroke-opacity="1" stroke-width=".4" d="m 35.749997,24.750002 c 0,6.351274 -5.148725,11.499999 -11.499999,11.499999 -6.351274,0 -11.499999,-5.148725 -11.499999,-11.499999 0,-6.351274 5.148725,-11.499999 11.499999,-11.499999 C 30.601272,13.250003 35.749997,18.398728 35.749997,24.750002 Z" transform="matrix(0.48717946,0,0,-0.48717946,12.1859,1040.4199)"/><path id="path896" fill="#3cd8ff" fill-opacity=".147" stroke="none" d="m 35.749997,24.750002 c 0,6.351274 -5.148725,11.499999 -11.499999,11.499999 -6.351274,0 -11.499999,-5.148725 -11.499999,-11.499999 0,-6.351274 5.148725,-11.499999 11.499999,-11.499999 C 30.601272,13.250003 35.749997,18.398728 35.749997,24.750002 Z" transform="matrix(0.40170937,0,0,-0.40170937,14.25855,1038.3045)"/><path id="path898" fill="#456dad" fill-opacity="1" stroke="none" d="m 35.749997,24.750002 c 0,6.351274 -5.148725,11.499999 -11.499999,11.499999 -6.351274,0 -11.499999,-5.148725 -11.499999,-11.499999 0,-6.351274 5.148725,-11.499999 11.499999,-11.499999 C 30.601272,13.250003 35.749997,18.398728 35.749997,24.750002 Z" transform="matrix(0.31475284,0,0,-0.31475284,16.367246,1036.1523)"/><path id="path900" fill="#3b629b" fill-opacity="1" stroke="none" d="m 24,21.375 c -1.446797,0 -2.625,1.178203 -2.625,2.625 0,1.446797 1.178203,2.625 2.625,2.625 1.446797,0 2.625,-1.178203 2.625,-2.625 C 26.625,22.553203 25.446797,21.375 24,21.375 z m 0,2 c 0.342227,0 0.625,0.282773 0.625,0.625 0,0.342227 -0.282773,0.625 -0.625,0.625 -0.342227,0 -0.625,-0.282773 -0.625,-0.625 C 23.375,23.657773 23.657773,23.375 24,23.375 Z" transform="translate(0,1004.3622)"/><path id="path914" fill="url(#linearGradient925)" fill-opacity="1" stroke="none" d="m 28.471786,1027.6272 c -0.795085,2.2004 -2.887858,3.7793 -5.3625,3.7793 -1.288854,0 -2.465704,-0.4294 -3.421786,-1.1491 0.626146,1.7913 2.336068,3.0898 4.341071,3.0898 2.536127,0 4.596429,-2.0603 4.596429,-4.5964 C 28.625,1028.3589 28.564135,1027.9903 28.471786,1027.6272 Z"/><path id="path934" fill="url(#linearGradient938)" fill-opacity="1" stroke="none" d="m 20.524253,1025.6444 c -0.0068,0.01 -0.01277,0.013 -0.01949,0.019 -0.88401,0.884 -1.078795,2.2271 -0.565073,3.293 0.104224,-0.7388 0.444988,-1.4582 1.013235,-2.0265 0.242258,-0.2422 0.513642,-0.4273 0.798897,-0.5845 L 20.524253,1025.6444 Z"/><path id="path927" fill="url(#linearGradient929)" fill-opacity="1" stroke="none" d="m 20.8125,20.8125 1.96875,1.125 c 0.694474,-0.382753 1.14014,-0.541719 1.909391,-0.612056 L 25.1875,19.71875 C 23.67167,19.320368 22.008207,19.639919 20.8125,20.8125 Z" transform="translate(0,1004.3622)"/></g></g></svg>