<svg xmlns="http://www.w3.org/2000/svg" xmlns:svg="http://www.w3.org/2000/svg" xmlns:xlink="http://www.w3.org/1999/xlink" id="svg2" width="48" height="48" version="1.1"><defs id="defs4"><linearGradient id="linearGradient4112"><stop id="stop4114" offset="0" stop-color="#777671" stop-opacity="1"/><stop id="stop4116" offset="1" stop-color="#cccccb" stop-opacity="1"/></linearGradient><linearGradient id="linearGradient4072"><stop id="stop4074" offset="0" stop-color="#000" stop-opacity="1"/><stop id="stop4076" offset="1" stop-color="#000" stop-opacity="0"/></linearGradient><linearGradient id="linearGradient3989"><stop id="stop3991" offset="0" stop-color="#777671" stop-opacity="1"/><stop id="stop3993" offset="1" stop-color="#babab8" stop-opacity="1"/></linearGradient><linearGradient id="linearGradient849"><stop id="stop851" offset="0" stop-color="#c0885f" stop-opacity="1"/><stop id="stop857" offset=".217" stop-color="#fada8e" stop-opacity="1"/><stop id="stop859" offset=".536" stop-color="#f0e4a9" stop-opacity="1"/><stop id="stop861" offset=".875" stop-color="#d3d2a0" stop-opacity="1"/><stop id="stop853" offset="1" stop-color="#8aa089" stop-opacity="1"/></linearGradient><linearGradient id="linearGradient855" x1="23.473" x2="23.473" y1="-1052.393" y2="-1004.299" gradientUnits="userSpaceOnUse" xlink:href="#linearGradient849"/><linearGradient id="linearGradient3995" x1="24.311" x2="24.311" y1="1033.919" y2="1022.882" gradientTransform="matrix(0.99486401,0,0,0.99486401,0.1232638,-5.40208)" gradientUnits="userSpaceOnUse" xlink:href="#linearGradient3989"/><linearGradient id="linearGradient4078" x1="22.75" x2="22.75" y1="36.875" y2="42.5" gradientTransform="matrix(0.99486401,0,0,0.99486401,0.1232638,1002.9469)" gradientUnits="userSpaceOnUse" xlink:href="#linearGradient4072"/><linearGradient id="linearGradient4084" x1="24.5" x2="24.5" y1="37.031" y2="38.063" gradientTransform="matrix(0.99486401,0,0,0.99486401,0.1232638,1002.9469)" gradientUnits="userSpaceOnUse" xlink:href="#linearGradient4072"/><linearGradient id="linearGradient4110" x1="36.983" x2="36.983" y1="42.501" y2="37.567" gradientUnits="userSpaceOnUse" xlink:href="#linearGradient4112"/><linearGradient id="linearGradient4123" x1="24.311" x2="24.311" y1="1033.919" y2="1022.882" gradientTransform="matrix(0.99486401,0,0,0.99486401,0.1232638,-5.40208)" gradientUnits="userSpaceOnUse" xlink:href="#linearGradient3989"/></defs><metadata id="metadata7"/><g id="layer1" transform="translate(0,-1004.3622)"><rect id="rect2991-1" width="48" height="48" x="0" y="-1052.362" fill="url(#linearGradient855)" fill-opacity="1" stroke="none" ry="1.945" transform="scale(1,-1)"/><path id="rect846" fill="#000" fill-opacity="1" stroke="none" d="m -3e-6,1049.3622 0,1.0625 c 0,1.0773 0.860223,1.9375 1.9375,1.9375 l 44.124996,0 c 1.07728,0 1.93751,-0.8602 1.93751,-1.9375 l 0,-1.0625 c 0,1.0773 -0.86023,1.9375 -1.93751,1.9375 l -44.124996,0 C 0.86022,1051.2997 -3e-6,1050.4395 -3e-6,1049.3622 Z"/><path id="path7515" fill="#fff" fill-opacity=".537" stroke="none" d="m 2.531247,1005.0185 c -0.917088,0 -1.671147,0.6395 -1.84375,1.5 0.335612,-0.2799 0.774512,-0.4375 1.25,-0.4375 l 44.124996,0 c 0.47549,0 0.91439,0.1576 1.25001,0.4375 -0.17261,-0.8605 -0.92667,-1.5 -1.84376,-1.5 L 2.531247,1005.0185 Z"/><path id="rect3983" fill="url(#linearGradient3995)" fill-opacity="1" stroke="none" d="m 5.6882844,1012.3622 c -1.0717443,0 -1.927549,0.8869 -1.927549,1.9586 l 0,6.7153 c 0,1.0718 0.8558047,1.9587 1.927549,1.9587 l 36.6234316,0 c 1.071744,0 1.927549,-0.8869 1.927549,-1.9587 l 0,-6.7153 c 0,-1.0717 -0.855805,-1.9586 -1.927549,-1.9586 l -36.6234316,0 z m 0.310895,0.5285 36.0016416,0 c 0.969465,0 1.741012,0.7716 1.741012,1.741 l 0,6.0935 c 0,0.9695 -0.771547,1.741 -1.741012,1.741 l -36.0016416,0 c -0.9694656,0 -1.741012,-0.7715 -1.741012,-1.741 l 0,-6.0935 c 0,-0.9694 0.7715464,-1.741 1.741012,-1.741 z"/><path id="rect4280-0" fill="#000" fill-opacity=".392" stroke="none" d="m 1.937497,1004.3622 c -1.077277,0 -1.9375,0.8602 -1.9375,1.9375 l 0,43.0625 c 0,0.7934 0.480024,1.449 1.15625,1.75 -0.309342,-0.3333 -0.5,-0.7824 -0.5,-1.2812 l 0,-42.9375 c 0,-1.0482 0.826899,-1.875 1.875,-1.875 l 42.937496,0 c 1.04811,0 1.87501,0.8268 1.87501,1.875 l 0,42.9375 c 0,0.4988 -0.19066,0.9479 -0.50001,1.2812 0.67623,-0.301 1.15626,-0.9566 1.15626,-1.75 l 0,-43.0625 c 0,-1.0773 -0.86023,-1.9375 -1.93751,-1.9375 L 1.937497,1004.3622 Z"/><path id="path4086" fill="#000" fill-opacity=".235" stroke="none" d="m 5.6882844,1012.7625 c -1.0717443,0 -1.927549,0.8869 -1.927549,1.9586 l 0,6.7153 c 0,1.0718 0.8558047,1.9587 1.927549,1.9587 l 36.6234316,0 c 1.071744,0 1.927549,-0.8869 1.927549,-1.9587 l 0,-6.7153 c 0,-1.0717 -0.855805,-1.9586 -1.927549,-1.9586 l -36.6234316,0 z m 0.310895,0.5285 36.0016416,0 c 0.969465,0 1.741012,0.7716 1.741012,1.741 l 0,6.0935 c 0,0.9695 -0.771547,1.741 -1.741012,1.741 l -36.0016416,0 c -0.9694656,0 -1.741012,-0.7715 -1.741012,-1.741 l 0,-6.0935 c 0,-0.9694 0.7715464,-1.741 1.741012,-1.741 z"/><rect id="rect3997" width="39.488" height="9.602" x="4.256" y="1012.877" fill="#000" fill-opacity=".844" stroke="none" ry="1.75"/><path id="path4009" fill="url(#linearGradient4123)" fill-opacity="1" stroke="none" d="m 5.6882844,1012.3622 c -1.0717443,0 -1.927549,0.8869 -1.927549,1.9586 l 0,6.7153 c 0,1.0718 0.8558047,1.9587 1.927549,1.9587 l 36.6234316,0 c 1.071744,0 1.927549,-0.8869 1.927549,-1.9587 l 0,-6.7153 c 0,-1.0717 -0.855805,-1.9586 -1.927549,-1.9586 l -36.6234316,0 z m 0.310895,0.5285 36.0016416,0 c 0.969465,0 1.741012,0.7716 1.741012,1.741 l 0,6.0935 c 0,0.9695 -0.771547,1.741 -1.741012,1.741 l -36.0016416,0 c -0.9694656,0 -1.741012,-0.7715 -1.741012,-1.741 l 0,-6.0935 c 0,-0.9694 0.7715464,-1.741 1.741012,-1.741 z"/><path id="rect4002" fill="#fff" fill-opacity=".173" stroke="none" d="m 5.9991794,1012.8907 c -0.9694656,0 -1.741012,0.7716 -1.741012,1.741 l 0,3.0624 39.4836656,0 0,-3.0624 c 0,-0.9694 -0.771547,-1.741 -1.741012,-1.741 z"/><g id="g4064" transform="matrix(0.99486401,0,0,0.99486401,0.20005138,-5.40208)"><rect id="rect3985" width="1.77" height="5.798" x="21.936" y="1025.606" fill="#ededed" fill-opacity="1" stroke="none" ry="0"/><rect id="rect4007" width="1.77" height="5.798" x="24.294" y="1025.606" fill="#ededed" fill-opacity="1" stroke="none" ry="0"/><path id="path4037" fill="#fff" fill-opacity="1" stroke="none" d="m 21.935842,1025.6122 0,2.75 1.77,0 0,-2.75 -1.77,0 z"/><path id="rect4022" fill="#fff" fill-opacity="1" stroke="none" d="m 24.29416,1025.6122 0,2.75 1.77,0 0,-2.75 -1.77,0 z"/></g><g id="g4048" transform="matrix(0.99486401,0,0,0.99486401,0.20005138,-5.40208)"><path id="path4030" fill="#ededed" fill-opacity="1" stroke="none" d="m 31.656946,24.002563 -3.799478,2.19363 0,-4.387259 z" transform="translate(2.2097087,1004.3596)"/><path id="path4039" fill="#fff" fill-opacity="1" stroke="none" d="m 30.0625,21.8125 0,2.1875 3.8125,0 -3.8125,-2.1875 z" transform="translate(0,1004.3622)"/><rect id="rect4044" width="1.77" height="4.782" x="34.013" y="1026.114" fill="#ededed" fill-opacity="1" stroke="none" ry="0"/><path id="path4046" fill="#fff" fill-opacity="1" stroke="none" d="m 34.01291,1026.1194 0,2.2679 1.77,0 0,-2.2679 -1.77,0 z"/></g><g id="g4054" transform="matrix(-0.99486401,0,0,0.99486401,47.799949,-5.40208)"><path id="path4056" fill="#ededed" fill-opacity="1" stroke="none" d="m 31.656946,24.002563 -3.799478,2.19363 0,-4.387259 z" transform="translate(2.2097087,1004.3596)"/><path id="path4058" fill="#fff" fill-opacity="1" stroke="none" d="m 30.0625,21.8125 0,2.1875 3.8125,0 -3.8125,-2.1875 z" transform="translate(0,1004.3622)"/><rect id="rect4060" width="1.77" height="4.782" x="34.013" y="1026.114" fill="#ededed" fill-opacity="1" stroke="none" ry="0"/><path id="path4062" fill="#fff" fill-opacity="1" stroke="none" d="m 34.01291,1026.1194 0,2.2679 1.77,0 0,-2.2679 -1.77,0 z"/></g><rect id="rect4070" width="38.8" height="4.104" x="4.973" y="1040.005" fill="url(#linearGradient4078)" fill-opacity="1" stroke="none" ry="2.052"/><path id="rect4080" fill="url(#linearGradient4084)" fill-opacity="1" stroke="none" d="m 7.0251329,1040.0056 c -0.5683782,0 -1.0903243,0.2199 -1.4612065,0.5907 l 37.6182956,0 c -0.370882,-0.3708 -0.892827,-0.5907 -1.461206,-0.5907 l -34.6958831,0 z"/><path id="rect4087" fill="#000" fill-opacity="1" stroke="none" d="m 5.0043154,1042.3062 c 0.1265852,1.0136 0.9718253,1.8032 2.0208175,1.8032 l 34.6958831,0 c 1.048992,0 1.894232,-0.7896 2.020817,-1.8032 -0.190707,0.9368 -1.026155,1.6478 -2.020817,1.6478 l -34.6958831,0 c -0.994662,0 -1.8301104,-0.711 -2.0208175,-1.6478 z"/><path id="rect4095" fill="#fff" fill-opacity=".475" stroke="none" d="m 4.9732259,1042.1859 c -0.00264,0.043 0,0.081 0,0.1244 0,1.1367 0.9151505,2.0519 2.051907,2.0519 l 34.6958831,0 c 1.136756,0 2.051907,-0.9152 2.051907,-2.0519 0,-0.044 0.0027,-0.082 0,-0.1244 -0.06633,1.0761 -0.958615,1.9276 -2.051907,1.9276 l -34.6958831,0 c -1.0932923,0 -1.9855759,-0.8515 -2.051907,-1.9276 z"/><path id="path4100" fill="#000" fill-opacity=".475" stroke="none" d="m 39.46875,40.015625 a 2.453125,2.453125 0 1 1 -4.90625,0 2.453125,2.453125 0 1 1 4.90625,0 z" transform="matrix(0.7540689,0,0,0.7540689,9.6271459,1011.883)"/><path id="path4102" fill="url(#linearGradient4110)" fill-opacity="1" stroke="none" d="m 39.46875,40.015625 a 2.453125,2.453125 0 1 1 -4.90625,0 2.453125,2.453125 0 1 1 4.90625,0 z" transform="matrix(0.68237718,0,0,0.68237718,12.280861,1014.7518)"/><path id="path4118" fill="#fff" fill-opacity=".537" stroke="none" d="m 37.555023,1040.3787 c -0.924501,0 -1.678833,0.7543 -1.678833,1.6788 0,0.042 -0.003,0.084 0,0.1244 0.04833,-0.8812 0.785591,-1.5856 1.678833,-1.5856 0.893241,0 1.599411,0.7044 1.647743,1.5856 0.003,-0.041 0,-0.083 0,-0.1244 0,-0.9245 -0.723243,-1.6788 -1.647743,-1.6788 z"/></g></svg>