<svg xmlns="http://www.w3.org/2000/svg" xmlns:svg="http://www.w3.org/2000/svg" xmlns:xlink="http://www.w3.org/1999/xlink" id="svg2" width="48" height="48" version="1.1"><defs id="defs4"><linearGradient id="linearGradient25246"><stop id="stop25248" offset="0" stop-color="#000" stop-opacity="1"/><stop id="stop25250" offset="1" stop-color="#000" stop-opacity="0"/></linearGradient><linearGradient id="linearGradient25175"><stop id="stop25177" offset="0" stop-color="#a04" stop-opacity="1"/><stop id="stop25179" offset="1" stop-color="#f59" stop-opacity="1"/></linearGradient><linearGradient id="linearGradient25151"><stop id="stop25153" offset="0" stop-color="#8a0" stop-opacity="1"/><stop id="stop25155" offset="1" stop-color="#cf0" stop-opacity="1"/></linearGradient><linearGradient id="linearGradient25140"><stop id="stop25142" offset="0" stop-color="#000" stop-opacity="1"/><stop id="stop25144" offset="1" stop-color="#1a1a1a" stop-opacity="1"/></linearGradient><linearGradient id="linearGradient25138" x1="23.158" x2="23.158" y1="-1052.018" y2="-1004.456" gradientTransform="matrix(0.83333334,0,0,0.83333334,3.9999984,-171.39372)" gradientUnits="userSpaceOnUse" xlink:href="#linearGradient25140"/><linearGradient id="linearGradient25157" x1="25.633" x2="25.633" y1="33.858" y2="17.771" gradientTransform="matrix(0.95238097,0,0,0.95238097,1.1428567,1005.5051)" gradientUnits="userSpaceOnUse" xlink:href="#linearGradient25151"/><linearGradient id="linearGradient25173" x1="23.136" x2="23.136" y1="44.937" y2="33.078" gradientTransform="matrix(0.95238097,0,0,0.95238097,1.1428567,1005.5051)" gradientUnits="userSpaceOnUse" xlink:href="#linearGradient25175"/><linearGradient id="linearGradient25252" x1="24.13" x2="24.13" y1="46.232" y2="43.227" gradientTransform="matrix(0.95238097,0,0,0.95238097,1.1428567,1005.5051)" gradientUnits="userSpaceOnUse" xlink:href="#linearGradient25246"/><linearGradient id="linearGradient25256" x1="24.13" x2="24.13" y1="46.232" y2="43.227" gradientTransform="matrix(0.95238097,0,0,-0.95238097,1.1428567,1051.2193)" gradientUnits="userSpaceOnUse" xlink:href="#linearGradient25246"/><linearGradient id="linearGradient25260" x1="24.13" x2="24.13" y1="46.232" y2="43.227" gradientTransform="matrix(0,-0.95238097,-0.95238097,0,46.857143,1051.2193)" gradientUnits="userSpaceOnUse" xlink:href="#linearGradient25246"/><linearGradient id="linearGradient25264" x1="24.13" x2="24.13" y1="46.232" y2="43.227" gradientTransform="matrix(0,-0.95238097,0.95238097,0,1.1428567,1051.2193)" gradientUnits="userSpaceOnUse" xlink:href="#linearGradient25246"/><linearGradient id="linearGradient6390-9"><stop id="stop6392-0" offset="0" stop-color="#fff" stop-opacity="1"/><stop id="stop6414-1" offset=".165" stop-color="#29282b" stop-opacity="1"/><stop id="stop6416-7" offset=".261" stop-color="#868c95" stop-opacity="1"/><stop id="stop6418-7" offset=".395" stop-color="#92979f" stop-opacity="1"/><stop id="stop6420-8" offset=".543" stop-color="#737881" stop-opacity="1"/><stop id="stop6422-6" offset=".626" stop-color="#70757e" stop-opacity="1"/><stop id="stop6424-2" offset=".721" stop-color="#e4e6e8" stop-opacity="1"/><stop id="stop6426-0" offset=".795" stop-color="#fff" stop-opacity="1"/><stop id="stop6394-4" offset="1" stop-color="#1d191a" stop-opacity="1"/></linearGradient><linearGradient id="linearGradient3430" x1="407.669" x2="407.669" y1="-555.928" y2="-495.714" gradientTransform="translate(-384.57144,-504.56429)" gradientUnits="userSpaceOnUse" xlink:href="#linearGradient6390-9"/></defs><metadata id="metadata7"/><g id="layer1" transform="translate(0,-1004.3622)"><rect id="rect2991-1-7" width="48" height="48" x="0" y="-1052.362" fill="url(#linearGradient3430)" fill-opacity="1" stroke="none" ry="1.945" transform="scale(1,-1)"/><rect id="rect3285" width="42" height="42" x="3" y="-1049.362" fill="#000" fill-opacity=".235" stroke="none" ry="1.701" transform="scale(1,-1)"/><path id="rect846" fill="#000" fill-opacity="1" stroke="none" d="m 5.3674317e-8,1049.3622 0,1.0625 c 0,1.0773 0.860222896325683,1.9375 1.937499946325683,1.9375 l 44.125,0 c 1.077277,0 1.9375,-0.8602 1.9375,-1.9375 l 0,-1.0625 c 0,1.0773 -0.860223,1.9375 -1.9375,1.9375 l -44.125,0 C 0.86022295,1051.2997 5.3674317e-8,1050.4395 5.3674317e-8,1049.3622 Z"/><path id="path7515" fill="#fff" fill-opacity=".537" stroke="none" d="m 2.53125,1005.0185 c -0.9170884,0 -1.67114675,0.6395 -1.84374995,1.5 0.33561205,-0.2799 0.77451215,-0.4375 1.24999995,-0.4375 l 44.125,0 c 0.475488,0 0.914388,0.1576 1.25,0.4375 -0.172603,-0.8605 -0.926662,-1.5 -1.84375,-1.5 L 2.53125,1005.0185 Z"/><path id="rect4280" fill="#000" fill-opacity=".392" stroke="none" d="m 1.9375,1004.3622 c -1.07727695,0 -1.937499946325683,0.8602 -1.937499946325683,1.9375 l 0,43.0625 c 0,0.7934 0.480023596325683,1.449 1.156249946325683,1.75 -0.30934165,-0.3333 -0.49999995,-0.7824 -0.49999995,-1.2812 l 0,-42.9375 c 0,-1.0482 0.82689895,-1.875 1.87499995,-1.875 l 42.9375,0 c 1.048101,0 1.875,0.8268 1.875,1.875 l 0,42.9375 c 0,0.4988 -0.190658,0.9479 -0.5,1.2812 0.676226,-0.301 1.15625,-0.9566 1.15625,-1.75 l 0,-43.0625 c 0,-1.0773 -0.860223,-1.9375 -1.9375,-1.9375 L 1.9375,1004.3622 Z"/><rect id="rect25136" width="40" height="40" x="4" y="-1048.362" fill="url(#linearGradient25138)" fill-opacity="1" stroke="none" ry="1.62" transform="scale(1,-1)"/><path id="rect25181" fill="#fff" fill-opacity=".116" stroke="none" d="m 6.6190473,1008.3622 0,2.619 -2.6190477,0 0,0.4762 2.6190477,0 0,3.3334 -2.6190477,0 0,0.4762 2.6190477,0 0,3.3333 -2.6190477,0 0,0.4762 2.6190477,0 0,3.3333 -2.6190477,0 0,0.4762 2.6190477,0 0,3.3333 -2.6190477,0 0,0.4762 2.6190477,0 0,3.3334 -2.6190477,0 0,0.4762 2.6190477,0 0,3.3333 -2.6190477,0 0,0.4762 2.6190477,0 0,3.3333 -2.6190477,0 0,0.4762 2.6190477,0 0,3.3333 -2.6190477,0 0,0.4762 2.6190477,0 0,3.3334 -2.6190477,0 0,0.4762 2.6190477,0 0,2.619 0.4761904,0 0,-2.619 3.3333333,0 0,2.619 0.476191,0 0,-2.619 3.333333,0 0,2.619 0.476191,0 0,-2.619 3.333333,0 0,2.619 0.47619,0 0,-2.619 3.333334,0 0,2.619 0.47619,0 0,-2.619 3.333334,0 0,2.619 0.47619,0 0,-2.619 3.333334,0 0,2.619 0.47619,0 0,-2.619 3.333333,0 0,2.619 0.476191,0 0,-2.619 3.333333,0 0,2.619 0.476191,0 0,-2.619 3.333333,0 0,2.619 0.476191,0 0,-2.619 2.619047,0 0,-0.4762 -2.619047,0 0,-3.3334 2.619047,0 0,-0.4762 -2.619047,0 0,-3.3333 2.619047,0 0,-0.4762 -2.619047,0 0,-3.3333 2.619047,0 0,-0.4762 -2.619047,0 0,-3.3333 2.619047,0 0,-0.4762 -2.619047,0 0,-3.3334 2.619047,0 0,-0.4762 -2.619047,0 0,-3.3333 2.619047,0 0,-0.4762 -2.619047,0 0,-3.3333 2.619047,0 0,-0.4762 -2.619047,0 0,-3.3333 2.619047,0 0,-0.4762 -2.619047,0 0,-3.3334 2.619047,0 0,-0.4762 -2.619047,0 0,-2.619 -0.476191,0 0,2.619 -3.333333,0 0,-2.619 -0.476191,0 0,2.619 -3.333333,0 0,-2.619 -0.476191,0 0,2.619 -3.333333,0 0,-2.619 -0.47619,0 0,2.619 -3.333334,0 0,-2.619 -0.47619,0 0,2.619 -3.333334,0 0,-2.619 -0.47619,0 0,2.619 -3.333334,0 0,-2.619 -0.47619,0 0,2.619 -3.333333,0 0,-2.619 -0.476191,0 0,2.619 -3.333333,0 0,-2.619 -0.476191,0 0,2.619 -3.3333333,0 0,-2.619 -0.4761904,0 z m 0.4761904,3.0952 3.3333333,0 0,3.3334 -3.3333333,0 0,-3.3334 z m 3.8095243,0 3.333333,0 0,3.3334 -3.333333,0 0,-3.3334 z m 3.809524,0 3.333333,0 0,3.3334 -3.333333,0 0,-3.3334 z m 3.809523,0 3.333334,0 0,3.3334 -3.333334,0 0,-3.3334 z m 3.809524,0 3.333334,0 0,3.3334 -3.333334,0 0,-3.3334 z m 3.809524,0 3.333334,0 0,3.3334 -3.333334,0 0,-3.3334 z m 3.809524,0 3.333333,0 0,3.3334 -3.333333,0 0,-3.3334 z m 3.809524,0 3.333333,0 0,3.3334 -3.333333,0 0,-3.3334 z m 3.809524,0 3.333333,0 0,3.3334 -3.333333,0 0,-3.3334 z m -30.4761913,3.8096 3.3333333,0 0,3.3333 -3.3333333,0 0,-3.3333 z m 3.8095243,0 3.333333,0 0,3.3333 -3.333333,0 0,-3.3333 z m 3.809524,0 3.333333,0 0,3.3333 -3.333333,0 0,-3.3333 z m 3.809523,0 3.333334,0 0,3.3333 -3.333334,0 0,-3.3333 z m 3.809524,0 3.333334,0 0,3.3333 -3.333334,0 0,-3.3333 z m 3.809524,0 3.333334,0 0,3.3333 -3.333334,0 0,-3.3333 z m 3.809524,0 3.333333,0 0,3.3333 -3.333333,0 0,-3.3333 z m 3.809524,0 3.333333,0 0,3.3333 -3.333333,0 0,-3.3333 z m 3.809524,0 3.333333,0 0,3.3333 -3.333333,0 0,-3.3333 z m -30.4761913,3.8095 3.3333333,0 0,3.3333 -3.3333333,0 0,-3.3333 z m 3.8095243,0 3.333333,0 0,3.3333 -3.333333,0 0,-3.3333 z m 3.809524,0 3.333333,0 0,3.3333 -3.333333,0 0,-3.3333 z m 3.809523,0 3.333334,0 0,3.3333 -3.333334,0 0,-3.3333 z m 3.809524,0 3.333334,0 0,3.3333 -3.333334,0 0,-3.3333 z m 3.809524,0 3.333334,0 0,3.3333 -3.333334,0 0,-3.3333 z m 3.809524,0 3.333333,0 0,3.3333 -3.333333,0 0,-3.3333 z m 3.809524,0 3.333333,0 0,3.3333 -3.333333,0 0,-3.3333 z m 3.809524,0 3.333333,0 0,3.3333 -3.333333,0 0,-3.3333 z m -30.4761913,3.8095 3.3333333,0 0,3.3333 -3.3333333,0 0,-3.3333 z m 3.8095243,0 3.333333,0 0,3.3333 -3.333333,0 0,-3.3333 z m 3.809524,0 3.333333,0 0,3.3333 -3.333333,0 0,-3.3333 z m 3.809523,0 3.333334,0 0,3.3333 -3.333334,0 0,-3.3333 z m 3.809524,0 3.333334,0 0,3.3333 -3.333334,0 0,-3.3333 z m 3.809524,0 3.333334,0 0,3.3333 -3.333334,0 0,-3.3333 z m 3.809524,0 3.333333,0 0,3.3333 -3.333333,0 0,-3.3333 z m 3.809524,0 3.333333,0 0,3.3333 -3.333333,0 0,-3.3333 z m 3.809524,0 3.333333,0 0,3.3333 -3.333333,0 0,-3.3333 z m -30.4761913,3.8095 3.3333333,0 0,3.3334 -3.3333333,0 0,-3.3334 z m 3.8095243,0 3.333333,0 0,3.3334 -3.333333,0 0,-3.3334 z m 3.809524,0 3.333333,0 0,3.3334 -3.333333,0 0,-3.3334 z m 3.809523,0 3.333334,0 0,3.3334 -3.333334,0 0,-3.3334 z m 3.809524,0 3.333334,0 0,3.3334 -3.333334,0 0,-3.3334 z m 3.809524,0 3.333334,0 0,3.3334 -3.333334,0 0,-3.3334 z m 3.809524,0 3.333333,0 0,3.3334 -3.333333,0 0,-3.3334 z m 3.809524,0 3.333333,0 0,3.3334 -3.333333,0 0,-3.3334 z m 3.809524,0 3.333333,0 0,3.3334 -3.333333,0 0,-3.3334 z m -30.4761913,3.8096 3.3333333,0 0,3.3333 -3.3333333,0 0,-3.3333 z m 3.8095243,0 3.333333,0 0,3.3333 -3.333333,0 0,-3.3333 z m 3.809524,0 3.333333,0 0,3.3333 -3.333333,0 0,-3.3333 z m 3.809523,0 3.333334,0 0,3.3333 -3.333334,0 0,-3.3333 z m 3.809524,0 3.333334,0 0,3.3333 -3.333334,0 0,-3.3333 z m 3.809524,0 3.333334,0 0,3.3333 -3.333334,0 0,-3.3333 z m 3.809524,0 3.333333,0 0,3.3333 -3.333333,0 0,-3.3333 z m 3.809524,0 3.333333,0 0,3.3333 -3.333333,0 0,-3.3333 z m 3.809524,0 3.333333,0 0,3.3333 -3.333333,0 0,-3.3333 z m -30.4761913,3.8095 3.3333333,0 0,3.3333 -3.3333333,0 0,-3.3333 z m 3.8095243,0 3.333333,0 0,3.3333 -3.333333,0 0,-3.3333 z m 3.809524,0 3.333333,0 0,3.3333 -3.333333,0 0,-3.3333 z m 3.809523,0 3.333334,0 0,3.3333 -3.333334,0 0,-3.3333 z m 3.809524,0 3.333334,0 0,3.3333 -3.333334,0 0,-3.3333 z m 3.809524,0 3.333334,0 0,3.3333 -3.333334,0 0,-3.3333 z m 3.809524,0 3.333333,0 0,3.3333 -3.333333,0 0,-3.3333 z m 3.809524,0 3.333333,0 0,3.3333 -3.333333,0 0,-3.3333 z m 3.809524,0 3.333333,0 0,3.3333 -3.333333,0 0,-3.3333 z m -30.4761913,3.8095 3.3333333,0 0,3.3333 -3.3333333,0 0,-3.3333 z m 3.8095243,0 3.333333,0 0,3.3333 -3.333333,0 0,-3.3333 z m 3.809524,0 3.333333,0 0,3.3333 -3.333333,0 0,-3.3333 z m 3.809523,0 3.333334,0 0,3.3333 -3.333334,0 0,-3.3333 z m 3.809524,0 3.333334,0 0,3.3333 -3.333334,0 0,-3.3333 z m 3.809524,0 3.333334,0 0,3.3333 -3.333334,0 0,-3.3333 z m 3.809524,0 3.333333,0 0,3.3333 -3.333333,0 0,-3.3333 z m 3.809524,0 3.333333,0 0,3.3333 -3.333333,0 0,-3.3333 z m 3.809524,0 3.333333,0 0,3.3333 -3.333333,0 0,-3.3333 z m -30.4761913,3.8095 3.3333333,0 0,3.3334 -3.3333333,0 0,-3.3334 z m 3.8095243,0 3.333333,0 0,3.3334 -3.333333,0 0,-3.3334 z m 3.809524,0 3.333333,0 0,3.3334 -3.333333,0 0,-3.3334 z m 3.809523,0 3.333334,0 0,3.3334 -3.333334,0 0,-3.3334 z m 3.809524,0 3.333334,0 0,3.3334 -3.333334,0 0,-3.3334 z m 3.809524,0 3.333334,0 0,3.3334 -3.333334,0 0,-3.3334 z m 3.809524,0 3.333333,0 0,3.3334 -3.333333,0 0,-3.3334 z m 3.809524,0 3.333333,0 0,3.3334 -3.333333,0 0,-3.3334 z m 3.809524,0 3.333333,0 0,3.3334 -3.333333,0 0,-3.3334 z" opacity=".96"/><path id="path25146" fill="url(#linearGradient25157)" fill-opacity="1" stroke="none" d="m 44,1015.9217 -11.964286,8.7798 -14.672619,4.7619 -13.3630954,-1.0119 0,8.9583 0,9.3453 c 0,0.8977 0.7094118,1.6071 1.6071429,1.6071 l 36.7857155,0 c 0.897731,0 1.607142,-0.7094 1.607142,-1.6071 z"/><g id="g25294" transform="matrix(0.95238097,0,0,0.95238097,6.3809517,47.838656)"><path id="path25278" fill="#fff" fill-opacity=".49" stroke="none" d="m 29.84375,1031.0341 -0.15625,0.2187 1.125,0 1.125,3.625 1.34375,4.2813 1.21875,-4.4063 0.96875,-3.5 1.15625,0 -0.125,-0.2187 -1.03125,0 -0.96875,3.5 -1.21875,4.4062 -1.34375,-4.2812 -1.125,-3.625 -0.96875,0 z" opacity=".96"/><path id="path25271" fill="#000" fill-opacity=".49" stroke="none" d="m 33.160981,1025.6139 -1.734225,2.725 -1.734225,2.708 1.114856,0 1.13256,3.6273 1.327213,4.2826 1.221035,-4.4061 0.973289,-3.5038 1.167947,0 -1.734225,-2.708 -1.734225,-2.725 z" opacity=".96"/><path id="path25273" fill="#000" fill-opacity=".49" stroke="none" d="m 33.15625,21.25 -1.71875,2.71875 -1.75,2.71875 0.25,0 1.5,-2.34375 1.71875,-2.71875 1.75,2.71875 1.46875,2.34375 0.25,0 -1.71875,-2.71875 -1.75,-2.71875 z" opacity=".96" transform="translate(0,1004.3622)"/></g><path id="path25162" fill="url(#linearGradient25173)" fill-opacity="1" stroke="none" d="m 44,1033.2729 -9.523809,3.5119 -14.970239,-1.3988 -12.3511904,2.5 c 0,0 -1.5639214,0.834 -3.154762,1.7262 l 0,7.1429 c 0,0.8977 0.7094118,1.6071 1.6071429,1.6071 l 36.7857155,0 c 0.897731,0 1.607142,-0.7094 1.607142,-1.6071 z"/><path id="path25225" fill="#fff" fill-opacity=".367" stroke="none" d="m 44,1015.9217 -11.964286,8.7798 -14.672619,4.7619 -13.3630954,-1.0119 0,0.5059 13.3630954,1.0119 14.672619,-4.7619 L 44,1016.4277 l 0,-0.506 z"/><path id="path25230" fill="#fff" fill-opacity=".367" stroke="none" d="m 44,1033.2729 -9.523809,3.5119 -14.970239,-1.3988 -12.3511904,2.5 c 0,0 -1.5639214,0.834 -3.154762,1.7262 l 0,0.5357 c 1.5908406,-0.8922 3.154762,-1.7262 3.154762,-1.7262 l 12.3511904,-2.5 14.970239,1.3988 9.523809,-3.5119 0,-0.5357 z"/><path id="path25235" fill="#000" fill-opacity=".22" stroke="none" d="m 44,1032.7257 -9.523809,3.5119 -14.970239,-1.3987 -12.3511904,2.5 c 0,0 -1.5639214,0.834 -3.154762,1.7262 l 0,0.5357 c 1.5908406,-0.8922 3.154762,-1.7262 3.154762,-1.7262 l 12.3511904,-2.5 14.970239,1.3987 9.523809,-3.5119 0,-0.5357 z"/><path id="path25237" fill="#000" fill-opacity=".108" stroke="none" d="m 44,1032.1892 -9.523809,3.5119 -14.970239,-1.3988 -12.3511904,2.5 c 0,0 -1.5639214,0.834 -3.154762,1.7262 l 0,0.5357 c 1.5908406,-0.8922 3.154762,-1.7262 3.154762,-1.7262 l 12.3511904,-2.5 14.970239,1.3988 9.523809,-3.5119 0,-0.5357 z"/><path id="path25239" fill="#000" fill-opacity=".073" stroke="none" d="m 44,1031.6631 -9.523809,3.5119 -14.970239,-1.3988 -12.3511904,2.5 c 0,0 -1.5639214,0.834 -3.154762,1.7262 l 0,0.5357 c 1.5908406,-0.8922 3.154762,-1.7262 3.154762,-1.7262 l 12.3511904,-2.5 14.970239,1.3988 9.523809,-3.5119 0,-0.5357 z"/><path id="rect25241" fill="url(#linearGradient25252)" fill-opacity="1" stroke="none" d="m 3.9999996,1045.2372 0,1.5179 c 0,0.8977 0.7094118,1.6071 1.6071429,1.6071 l 36.7857155,0 c 0.897731,0 1.607142,-0.7094 1.607142,-1.6071 l 0,-1.5179 c 0,0.8977 -0.709411,1.6071 -1.607142,1.6071 l -36.7857155,0 c -0.8977311,0 -1.6071429,-0.7094 -1.6071429,-1.6071 z"/><path id="path25254" fill="url(#linearGradient25256)" fill-opacity="1" stroke="none" d="m 3.9999996,1011.4872 0,-1.5179 c 0,-0.8978 0.7094118,-1.6071 1.6071429,-1.6071 l 36.7857155,0 c 0.897731,0 1.607142,0.7093 1.607142,1.6071 l 0,1.5179 c 0,-0.8978 -0.709411,-1.6072 -1.607142,-1.6072 l -36.7857155,0 c -0.8977311,0 -1.6071429,0.7094 -1.6071429,1.6072 z"/><path id="path25258" fill="url(#linearGradient25260)" fill-opacity="1" stroke="none" d="m 7.124952,1048.3622 -1.5178095,0 c -0.8978096,0 -1.6071429,-0.7094 -1.6071429,-1.6071 l 0,-36.7858 c 0,-0.8977 0.7093333,-1.6071 1.6071429,-1.6071 l 1.5178095,0 c -0.8977143,0 -1.6071429,0.7094 -1.6071429,1.6071 l 0,36.7858 c 0,0.8977 0.7094286,1.6071 1.6071429,1.6071 z"/><path id="path25262" fill="url(#linearGradient25264)" fill-opacity="1" stroke="none" d="m 40.875048,1048.3622 1.51781,0 c 0.897809,0 1.607142,-0.7094 1.607142,-1.6071 l 0,-36.7858 c 0,-0.8977 -0.709333,-1.6071 -1.607142,-1.6071 l -1.51781,0 c 0.897714,0 1.607143,0.7094 1.607143,1.6071 l 0,36.7858 c 0,0.8977 -0.709429,1.6071 -1.607143,1.6071 z"/><g id="g25289" transform="matrix(0.95238097,0,0,0.95238097,0.70091495,48.969608)"><path id="path25283" fill="#fff" fill-opacity=".49" stroke="none" d="m 17.917882,1042.0626 -0.08705,0.1218 0.62673,0 0.626732,2.0196 0.748596,2.385 0.678957,-2.4548 0.539686,-1.9498 0.644139,0 -0.06964,-0.1218 -0.574504,0 -0.539686,1.9498 -0.678957,2.4547 -0.748596,-2.385 -0.626732,-2.0195 -0.539675,0 z" opacity=".96"/><path id="path25285" fill="#000" fill-opacity=".49" stroke="none" d="m 19.765892,1039.043 -0.966127,1.5181 -0.966127,1.5086 0.62108,0 0.630942,2.0207 0.739384,2.386 0.680231,-2.4547 0.542213,-1.952 0.650657,0 -0.966126,-1.5086 -0.966127,-1.5181 z" opacity=".96"/><path id="path25287" fill="#000" fill-opacity=".49" stroke="none" d="m 19.763256,1039.0421 -0.957506,1.5145 -0.974914,1.5146 0.139273,0 0.835641,-1.3056 0.957506,-1.5146 0.974915,1.5146 0.818232,1.3056 0.139273,0 -0.957505,-1.5146 -0.974915,-1.5145 z" opacity=".96"/></g></g></svg>