<svg xmlns="http://www.w3.org/2000/svg" xmlns:svg="http://www.w3.org/2000/svg" xmlns:xlink="http://www.w3.org/1999/xlink" id="svg5453" width="48" height="48" version="1.1"><defs id="defs5455"><linearGradient id="linearGradient3795"><stop id="stop3797" offset="0" stop-color="#d9d9d9" stop-opacity="1"/><stop id="stop3799" offset="1" stop-color="#f3f3f3" stop-opacity="1"/></linearGradient><linearGradient id="linearGradient3064" x1="23.204" x2="23.204" y1="1052.358" y2="1004.331" gradientTransform="translate(384.57143,-504.56417)" gradientUnits="userSpaceOnUse" xlink:href="#linearGradient3795"/></defs><metadata id="metadata5458"/><g id="layer1" transform="translate(-384.57143,-499.798)"><path id="rect4069" fill="url(#linearGradient3064)" fill-opacity="1" stroke="none" d="m 386.50893,499.798 c -1.07728,0 -1.9375,0.8602 -1.9375,1.9375 l 0,44.125 c 0,1.0773 0.86022,1.9375 1.9375,1.9375 l 44.125,0 c 1.07727,0 1.9375,-0.8602 1.9375,-1.9375 l 0,-44.125 c 0,-1.0773 -0.86023,-1.9375 -1.9375,-1.9375 z"/><path id="path4274" fill="#000" fill-opacity=".059" d="m 407.35267,509.59777 -11.76762,6.65609 5.68752,3.21475 6.0801,-3.43156 0,-6.43929 z m 2.44728,0 0,6.43928 6.07425,3.44133 5.68751,-3.21475 -11.76176,-6.66585 z m -1.22657,7.67559 -6.82229,3.85928 -0.002,7.72442 6.81838,3.86317 6.8223,-3.85928 0.004,-7.72245 -6.82034,-3.86514 z m -14.21295,1.06246 -0.004,13.31412 5.68752,-3.21477 0,-6.88459 -5.68362,-3.21476 z m 28.4259,0.01 -5.68752,3.21476 0,6.88459 5.68362,3.21476 0.004,-13.31411 z m -21.51767,12.1657 -5.68752,3.21867 11.76567,6.66781 0,-6.4393 -6.07815,-3.44718 z m 14.59968,0.01 -6.07229,3.43155 0,6.4393 11.76176,-6.65216 -5.68947,-3.21867 z"/><path id="path4272" fill="#000" fill-opacity=".118" d="m 407.35267,509.19777 -11.76762,6.65609 5.68752,3.21475 6.0801,-3.43156 0,-6.43929 z m 2.44728,0 0,6.43928 6.07425,3.44133 5.68751,-3.21475 -11.76176,-6.66585 z m -1.22657,7.67559 -6.82229,3.85928 -0.002,7.72442 6.81838,3.86317 6.8223,-3.85928 0.004,-7.72245 -6.82034,-3.86514 z m -14.21295,1.06246 -0.004,13.31412 5.68752,-3.21477 0,-6.88459 -5.68362,-3.21476 z m 28.4259,0.01 -5.68752,3.21476 0,6.88459 5.68362,3.21476 0.004,-13.31411 z m -21.51767,12.1657 -5.68752,3.21867 11.76567,6.66781 0,-6.4393 -6.07815,-3.44718 z m 14.59968,0.01 -6.07229,3.43155 0,6.4393 11.76176,-6.65216 -5.68947,-3.21867 z"/><g id="g13027" transform="translate(0,1e-5)"><path id="rect846-1" fill="#000" fill-opacity="1" stroke="none" d="m 384.57143,544.79799 0,1.0625 c 0,1.0773 0.86022,1.9375 1.9375,1.9375 l 44.125,0 c 1.07728,0 1.9375,-0.8602 1.9375,-1.9375 l 0,-1.0625 c 0,1.0773 -0.86022,1.9375 -1.9375,1.9375 l -44.125,0 c -1.07728,0 -1.9375,-0.8602 -1.9375,-1.9375 z"/><path id="path7515-7" fill="#fff" fill-opacity=".537" stroke="none" d="m 387.10268,500.45429 c -0.91709,0 -1.67115,0.6395 -1.84375,1.5 0.33561,-0.2799 0.77451,-0.4375 1.25,-0.4375 l 44.125,0 c 0.47549,0 0.91439,0.1576 1.25,0.4375 -0.1726,-0.8605 -0.92666,-1.5 -1.84375,-1.5 l -42.9375,0 z"/><path id="rect4280-3" fill="#000" fill-opacity=".392" stroke="none" d="m 386.50893,499.79799 c -1.07728,0 -1.9375,0.8602 -1.9375,1.9375 l 0,43.0625 c 0,0.7934 0.48002,1.449 1.15625,1.75 -0.30934,-0.3333 -0.5,-0.7824 -0.5,-1.2812 l 0,-42.9375 c 0,-1.0482 0.8269,-1.875 1.875,-1.875 l 42.9375,0 c 1.0481,0 1.875,0.8268 1.875,1.875 l 0,42.9375 c 0,0.4988 -0.19066,0.9479 -0.5,1.2812 0.67623,-0.301 1.15625,-0.9566 1.15625,-1.75 l 0,-43.0625 c 0,-1.0773 -0.86022,-1.9375 -1.9375,-1.9375 l -44.125,0 z"/></g><path id="path4248" fill="#000" fill-opacity=".235" d="m 407.35267,508.79777 -11.76762,6.65609 5.68752,3.21475 6.0801,-3.43156 0,-6.43929 z m 2.44728,0 0,6.43928 6.07425,3.44133 5.68751,-3.21475 -11.76176,-6.66585 z m -1.22657,7.67559 -6.82229,3.85928 -0.002,7.72442 6.81838,3.86317 6.8223,-3.85928 0.004,-7.72245 -6.82034,-3.86514 z m -14.21295,1.06246 -0.004,13.31412 5.68752,-3.21477 0,-6.88459 -5.68362,-3.21476 z m 28.4259,0.01 -5.68752,3.21476 0,6.88459 5.68362,3.21476 0.004,-13.31411 z m -21.51767,12.1657 -5.68752,3.21867 11.76567,6.66781 0,-6.4393 -6.07815,-3.44718 z m 14.59968,0.01 -6.07229,3.43155 0,6.4393 11.76176,-6.65216 -5.68947,-3.21867 z"/><g id="g3836" transform="matrix(3.0081419,0,0,2.9655954,346.59696,503.71104)"><path id="path3834" fill="#3795bd" fill-opacity="1" d="m 20.196803,1.5804437 -3.911406,2.2446471 1.890868,1.0839605 2.020538,-1.1574217 0,-2.1711859 z"/><path id="path3832" fill="#8fb635" fill-opacity="1" d="m 21.010926,1.5804437 0,2.1711859 2.018896,1.1606866 1.890868,-1.0839605 -3.909764,-2.247912 z"/><path id="path3830" fill="#3840be" fill-opacity="1" d="m 15.878335,4.5270532 -0.0016,4.4892939 1.890868,-1.08396 0,-2.3213735 -1.889227,-1.0839604 z"/><path id="path3828" fill="#d18c3b" fill-opacity="1" d="m 25.327752,4.5303132 -1.890869,1.0839604 0,2.3213736 1.889227,1.0839605 0.0016,-4.4892945 z"/><path id="path3826" fill="#ba3a83" fill-opacity="1" d="m 18.174624,8.632712 -1.890868,1.0855932 3.911405,2.2479118 0,-2.1711858 -2.020537,-1.1623192 z"/><path id="path3025" fill="#a02c34" fill-opacity="1" d="m 23.02818,8.635982 -2.018895,1.1574218 0,2.1711862 L 24.919048,9.7215762 23.02818,8.635983 Z"/><path id="path3029" fill="#f8c300" fill-opacity="1" d="M 22.870031,5.4720502 22.869033,8.0763628 20.601152,9.3776591 18.33427,8.074643 18.335268,5.4703305 20.603149,4.1690341 Z"/></g><path id="path4342" fill="#29677b" fill-opacity=".314" d="m 407.35268,514.03628 -6.07812,3.43164 -4.98047,-2.81445 -0.70899,0.40039 5.68946,3.21484 6.07812,-3.43164 0,-0.80078 z"/><path id="path4340" fill="#627828" fill-opacity=".314" d="m 409.79995,514.03628 0,0.80078 6.07421,3.44141 5.6875,-3.21485 -0.70703,-0.40039 -4.98047,2.81446 -6.07421,-3.44141 z"/><path id="path4338" fill="#24297b" fill-opacity=".314" d="m 400.04409,526.43472 -5.6875,3.21484 0,0.80078 5.6875,-3.21484 0,-0.80078 z"/><path id="path4336" fill="#7e521e" fill-opacity=".314" d="m 417.09877,526.44448 0,0.80079 5.6836,3.21484 0,-0.80078 -5.6836,-3.21485 z"/><path id="path4334" fill="#9a7900" fill-opacity=".314" d="m 401.74916,526.85659 0,0.80078 6.81836,3.86329 6.82227,-3.85743 0,-0.80078 -6.82227,3.85742 -6.81836,-3.86328 z"/><path id="path4332" fill="#6d224d" fill-opacity=".314" d="m 396.28823,532.13198 -0.70703,0.40039 11.76562,6.66602 0,-0.80078 -11.05859,-6.26563 z"/><path id="path4278" fill="#441316" fill-opacity=".314" d="m 420.85073,532.14175 -11.05469,6.25 0,0.80078 11.76172,-6.65039 -0.70703,-0.40039 z"/><path id="path4305" fill="#fff" fill-opacity=".235" d="M 22.78125 8.5996094 L 11.013672 15.255859 L 11.367188 15.455078 L 22.78125 9 L 22.78125 8.5996094 z M 25.228516 8.5996094 L 25.228516 9 L 36.636719 15.464844 L 36.990234 15.265625 L 25.228516 8.5996094 z M 24.001953 16.277344 L 17.179688 20.136719 L 17.179688 20.537109 L 24.001953 16.677734 L 30.822266 20.541016 L 30.822266 20.140625 L 24.001953 16.277344 z M 9.7890625 17.337891 L 9.7890625 17.738281 L 15.472656 20.953125 L 15.472656 20.552734 L 9.7890625 17.337891 z M 38.214844 17.347656 L 32.527344 20.5625 L 32.527344 20.962891 L 38.214844 17.748047 L 38.214844 17.347656 z M 16.697266 29.513672 L 11.009766 32.734375 L 11.363281 32.935547 L 16.697266 29.914062 L 22.775391 33.361328 L 22.775391 32.960938 L 16.697266 29.513672 z M 31.296875 29.523438 L 25.224609 32.957031 L 25.224609 33.357422 L 31.296875 29.923828 L 36.632812 32.943359 L 36.986328 32.744141 L 31.296875 29.523438 z" transform="translate(384.57143,499.798)"/></g></svg>