<svg xmlns="http://www.w3.org/2000/svg" xmlns:svg="http://www.w3.org/2000/svg" xmlns:xlink="http://www.w3.org/1999/xlink" id="svg5453" width="48" height="48" version="1.1"><defs id="defs5455"><linearGradient id="linearGradient4413"><stop id="stop4415" offset="0" stop-color="#f2f2f2" stop-opacity="1"/><stop id="stop4417" offset="1" stop-color="#fff" stop-opacity="1"/></linearGradient><linearGradient id="linearGradient4134"><stop id="stop4136" offset="0" stop-color="#2fc5ff" stop-opacity="1"/><stop id="stop4138" offset="1" stop-color="#1432ff" stop-opacity="0"/></linearGradient><linearGradient id="linearGradient4074"><stop id="stop4076" offset="0" stop-color="#003d63" stop-opacity="1"/><stop id="stop4078" offset="1" stop-color="#003459" stop-opacity="1"/></linearGradient><linearGradient id="linearGradient4080" x1="411.594" x2="411.594" y1="-547.836" y2="-499.806" gradientTransform="translate(0.08188571,0)" gradientUnits="userSpaceOnUse" xlink:href="#linearGradient4074"/><linearGradient id="linearGradient4140" x1="41.434" x2="25.63" y1="-.968" y2="21.223" gradientTransform="matrix(0.83653434,0,0,0.83653434,5.7718,-1.47303)" gradientUnits="userSpaceOnUse" xlink:href="#linearGradient4134"/><radialGradient id="radialGradient4146" cx="413.293" cy="513.959" r="18.334" fx="413.293" fy="513.959" gradientTransform="matrix(0.83653434,0,0,0.70505138,-315.93541,-352.15702)" gradientUnits="userSpaceOnUse" xlink:href="#linearGradient4134"/><radialGradient id="radialGradient4158" cx="384.8" cy="499.659" r="10.529" fx="384.8" fy="499.659" gradientTransform="matrix(1,0,0,0.92169134,-384.57143,-460.40476)" gradientUnits="userSpaceOnUse" xlink:href="#linearGradient4134"/><radialGradient id="radialGradient4175" cx="413.293" cy="513.959" r="18.334" fx="413.293" fy="513.959" gradientTransform="matrix(0.91316095,0.40759916,-0.34353443,0.76963414,-144.61101,-540.71747)" gradientUnits="userSpaceOnUse" xlink:href="#linearGradient4134"/><linearGradient id="linearGradient4177" x1="41.434" x2="25.63" y1="-.968" y2="21.223" gradientTransform="matrix(0.91316095,0.40759916,-0.40759916,0.91316095,35.69476,-1.15982)" gradientUnits="userSpaceOnUse" xlink:href="#linearGradient4134"/><linearGradient id="linearGradient4223" x1="41.434" x2="25.63" y1="-.968" y2="21.223" gradientTransform="matrix(0.5915191,0.5915191,0.5915191,-0.5915191,-24.33356,13.35054)" gradientUnits="userSpaceOnUse" xlink:href="#linearGradient4134"/><linearGradient id="linearGradient4233" x1="41.434" x2="25.63" y1="-.968" y2="21.223" gradientTransform="matrix(0.45451519,0.70228601,0.70228601,-0.45451519,-24.83494,17.96391)" gradientUnits="userSpaceOnUse" xlink:href="#linearGradient4134"/><linearGradient id="linearGradient4243" x1="41.434" x2="25.63" y1="-.968" y2="21.223" gradientTransform="matrix(0.7009017,0.45664703,0.45664703,-0.7009017,-23.20742,40.6399)" gradientUnits="userSpaceOnUse" xlink:href="#linearGradient4134"/><linearGradient id="linearGradient4253" x1="41.434" x2="25.63" y1="-.968" y2="21.223" gradientTransform="matrix(0.83189895,0.08794225,0.08794225,-0.83189895,-8.46788,55.44617)" gradientUnits="userSpaceOnUse" xlink:href="#linearGradient4134"/><linearGradient id="linearGradient4263" x1="41.434" x2="25.63" y1="-.968" y2="21.223" gradientTransform="matrix(0.83189895,0.08794225,0.08794225,-0.83189895,-9.77805,49.22286)" gradientUnits="userSpaceOnUse" xlink:href="#linearGradient4134"/><linearGradient id="linearGradient4273" x1="41.434" x2="25.63" y1="-.968" y2="21.223" gradientTransform="matrix(0.83189895,0.08794225,0.08794225,-0.83189895,25.76035,61.83326)" gradientUnits="userSpaceOnUse" xlink:href="#linearGradient4134"/><linearGradient id="linearGradient4283" x1="41.434" x2="25.63" y1="-.968" y2="21.223" gradientTransform="matrix(0.83189895,0.08794225,0.08794225,-0.83189895,10.03829,59.54046)" gradientUnits="userSpaceOnUse" xlink:href="#linearGradient4134"/><linearGradient id="linearGradient4291" x1="41.434" x2="25.63" y1="-.968" y2="21.223" gradientTransform="matrix(1.1846834,0.0955824,0.0955824,-1.1846834,-6.31002,60.59989)" gradientUnits="userSpaceOnUse" xlink:href="#linearGradient4134"/><linearGradient id="linearGradient4419" x1="411.091" x2="411.091" y1="539.229" y2="508.425" gradientUnits="userSpaceOnUse" xlink:href="#linearGradient4413"/></defs><metadata id="metadata5458"/><g id="layer1" transform="translate(-384.57143,-499.798)"><rect id="rect2991-1-7" width="48" height="48" x="384.653" y="-547.798" fill="url(#linearGradient4080)" fill-opacity="1" stroke="none" ry="1.945" transform="scale(1,-1)"/><path id="path4150" fill="url(#radialGradient4158)" fill-opacity="1" stroke="none" d="M 1.9453125 0 C 0.86803535 0 0 0.86803535 0 1.9453125 L 0 11.210938 A 23.493259 23.493259 0 0 0 11.931641 0 L 1.9453125 0 z" transform="translate(384.57143,499.798)"/><path id="path4142" fill="url(#radialGradient4146)" fill-opacity="1" stroke="none" d="M 18.009766 0 A 15.289087 13.957084 0.0035049695 0 0 15.298828 5.2929688 A 15.289087 13.957084 0.0035049695 0 0 27.498047 22.017578 A 15.289087 13.957084 0.0035049695 0 0 45.261719 11.390625 A 15.289087 13.957084 0.0035049695 0 0 42.533203 0 L 18.009766 0 z" transform="translate(384.57143,499.798)"/><path id="path4082" fill="#009edb" fill-opacity="1" stroke="none" d="M 1.9453125 0 C 0.86803535 0 0 0.86803535 0 1.9453125 L 0 6.5058594 A 7.8746638 7.8746638 0 0 0 7.0585938 0 L 1.9453125 0 z" transform="translate(384.57143,499.798)"/><path id="circle4084" fill="#009edb" fill-opacity=".235" stroke="none" d="M 1.9453125 0 C 0.86803535 0 0 0.86803535 0 1.9453125 L 0 7.5117188 A 8.8746643 8.8746643 0 0 0 8.0683594 0 L 1.9453125 0 z" transform="translate(384.57143,499.798)"/><path id="circle4086" fill="#009edb" fill-opacity=".118" stroke="none" d="M 1.9453125 0 C 0.86803535 0 0 0.86803535 0 1.9453125 L 0 8.5175781 A 9.8746643 9.8746643 0 0 0 9.078125 0 L 1.9453125 0 z" transform="translate(384.57143,499.798)"/><path id="circle4088" fill="#009edb" fill-opacity=".059" stroke="none" d="M 1.9453125 0 C 0.86803535 0 0 0.86803535 0 1.9453125 L 0 9.5175781 A 10.874664 10.874664 0 0 0 10.087891 0 L 1.9453125 0 z" transform="translate(384.57143,499.798)"/><path id="ellipse4104" fill="#0079bc" fill-opacity=".235" stroke="none" d="M 20.351562 0 A 13.62668 12.439506 0.0035049695 0 0 16.927734 5.7871094 A 13.62668 12.439506 0.0035049695 0 0 27.798828 20.693359 A 13.62668 12.439506 0.0035049695 0 0 43.632812 11.222656 A 13.62668 12.439506 0.0035049695 0 0 40.207031 0 L 20.351562 0 z" transform="translate(384.57143,499.798)"/><path id="ellipse4106" fill="#0079bc" fill-opacity=".118" stroke="none" d="M 19.242188 0 A 14.466002 13.205704 0.0035049695 0 0 16.105469 5.6191406 A 14.466002 13.205704 0.0035049695 0 0 27.648438 21.445312 A 14.466002 13.205704 0.0035049695 0 0 44.457031 11.390625 A 14.466002 13.205704 0.0035049695 0 0 41.339844 0 L 19.242188 0 z" transform="translate(384.57143,499.798)"/><path id="ellipse4108" fill="#0079bc" fill-opacity=".059" stroke="none" d="M 18.148438 0 A 15.305323 13.971904 0.0035049695 0 0 15.283203 5.4511719 A 15.305323 13.971904 0.0035049695 0 0 27.494141 22.195312 A 15.305323 13.971904 0.0035049695 0 0 45.279297 11.556641 A 15.305323 13.971904 0.0035049695 0 0 42.408203 0 L 18.148438 0 z" transform="translate(384.57143,499.798)"/><path id="path4102" fill="#009edb" fill-opacity="1" stroke="none" d="M 21.527344 0 A 12.787358 11.673309 0.0035049695 0 0 17.751953 5.9550781 A 12.787358 11.673309 0.0035049695 0 0 27.953125 19.943359 A 12.787358 11.673309 0.0035049695 0 0 42.810547 11.054688 A 12.787358 11.673309 0.0035049695 0 0 39.017578 0 L 21.527344 0 z" transform="translate(384.57143,499.798)"/><path id="path4132" fill="url(#linearGradient4140)" fill-opacity="1" stroke="none" d="M 21.527344 0 A 12.787358 11.673309 0.0035049695 0 0 17.751953 5.9550781 A 12.787358 11.673309 0.0035049695 0 0 27.953125 19.943359 A 12.787358 11.673309 0.0035049695 0 0 42.810547 11.054688 A 12.787358 11.673309 0.0035049695 0 0 39.017578 0 L 21.527344 0 z" transform="translate(384.57143,499.798)"/><path id="path4163" fill="url(#radialGradient4175)" fill-opacity="1" stroke="none" d="M 48 7.3261719 A 18.2767 16.684413 0.42332832 0 0 42.798828 10.867188 A 18.2767 16.684413 0.42332832 0 0 47.964844 35.068359 A 18.2767 16.684413 0.42332832 0 0 48 35.107422 L 48 7.3261719 z" transform="translate(384.57143,499.798)"/><path id="path4165" fill="#0079bc" fill-opacity=".235" stroke="none" d="M 48 9.6269531 A 16.289444 14.870288 0.42332832 0 0 44.335938 12.199219 A 16.289444 14.870288 0.42332832 0 0 48 33.623047 L 48 9.6269531 z" transform="translate(384.57143,499.798)"/><path id="path4167" fill="#0079bc" fill-opacity=".118" stroke="none" d="M 48 8.5214844 A 17.292776 15.786208 0.42332832 0 0 43.519531 11.617188 A 17.292776 15.786208 0.42332832 0 0 48 34.544922 L 48 8.5214844 z" transform="translate(384.57143,499.798)"/><path id="path4169" fill="#0079bc" fill-opacity=".059" stroke="none" d="M 48 7.4316406 A 18.296108 16.702129 0.42332832 0 0 42.703125 11.033203 A 18.296108 16.702129 0.42332832 0 0 47.875 35.259766 A 18.296108 16.702129 0.42332832 0 0 48 35.398438 L 48 7.4316406 z" transform="translate(384.57143,499.798)"/><path id="path4171" fill="#009edb" fill-opacity="1" stroke="none" d="M 48 10.785156 A 15.286112 13.954368 0.42332832 0 0 45.152344 12.785156 A 15.286112 13.954368 0.42332832 0 0 48 32.470703 L 48 10.785156 z" transform="translate(384.57143,499.798)"/><path id="path4173" fill="url(#linearGradient4177)" fill-opacity="1" stroke="none" d="M 48 10.785156 A 15.286112 13.954368 0.42332832 0 0 45.152344 12.785156 A 15.286112 13.954368 0.42332832 0 0 48 32.470703 L 48 10.785156 z" transform="translate(384.57143,499.798)"/><path id="path4215" fill="#0079bc" fill-opacity=".235" stroke="none" d="M 0.08203125 11.197266 L 0.08203125 35.681641 L 1.0585938 36.658203 A 13.62668 12.439506 0.013706716 0 0 11.416016 31.144531 A 13.62668 12.439506 0.013706716 0 0 6.9160156 13.251953 A 13.62668 12.439506 0.013706716 0 0 0.08203125 11.197266 z" opacity=".5" transform="translate(384.57143,499.798)"/><path id="path4217" fill="#0079bc" fill-opacity=".118" stroke="none" d="M 0.08203125 10.431641 L 0.08203125 37.337891 C 0.67356023 37.378518 1.2813901 37.410418 1.859375 37.458984 C 5.989425 36.981844 9.8391175 34.786525 12.117188 31.609375 C 14.387477 28.608905 15.201691 24.722509 14.306641 21.162109 C 13.411601 17.601709 10.820967 14.421651 7.3417969 12.613281 C 5.1912448 11.312918 2.6553446 10.553011 0.08203125 10.431641 z" opacity=".5" transform="translate(384.57143,499.798)"/><path id="path4219" fill="#009edb" fill-opacity="1" stroke="none" d="M 0 11.958984 L 0 35.599609 L 0.21679688 35.816406 A 12.787358 11.673309 0.013706716 0 0 10.714844 30.681641 A 12.787358 11.673309 0.013706716 0 0 6.4960938 13.890625 A 12.787358 11.673309 0.013706716 0 0 0 11.958984 z" opacity=".5" transform="translate(384.57143,499.798)"/><path id="path4221" fill="url(#linearGradient4223)" fill-opacity="1" stroke="none" d="M 0 11.958984 L 0 35.833984 C 0.083440511 35.825374 0.12941032 35.826081 0.21679688 35.816406 C 4.3509069 35.792506 8.4077537 33.808261 10.714844 30.681641 C 12.721614 28.029671 13.441081 24.594296 12.650391 21.447266 C 11.859701 18.300226 9.5709038 15.489555 6.4960938 13.890625 C 4.572949 12.728475 2.3015441 12.053755 0 11.958984 z" opacity=".5" transform="translate(384.57143,499.798)"/><path id="path4225" fill="#0079bc" fill-opacity=".235" stroke="none" d="M 0 21.03125 L 0 45.226562 A 13.62668 12.439506 0.99633515 0 0 6.3945312 42.851562 A 13.62668 12.439506 0.99633515 0 0 5.7421875 24.412109 A 13.62668 12.439506 0.99633515 0 0 0 21.03125 z" opacity=".3" transform="translate(384.57143,499.798)"/><path id="path4227" fill="#0079bc" fill-opacity=".118" stroke="none" d="M 0 20.240234 L 0 46.019531 A 14.466002 13.205704 0.99633515 0 0 6.9824219 43.451172 A 14.466002 13.205704 0.99633515 0 0 6.2910156 23.876953 A 14.466002 13.205704 0.99633515 0 0 0 20.240234 z" opacity=".3" transform="translate(384.57143,499.798)"/><path id="path4229" fill="#009edb" fill-opacity="1" stroke="none" d="M 0 21.824219 L 0 44.4375 A 12.787358 11.673309 0.99633515 0 0 5.8066406 42.251953 A 12.787358 11.673309 0.99633515 0 0 5.1972656 24.949219 A 12.787358 11.673309 0.99633515 0 0 0 21.824219 z" opacity=".3" transform="translate(384.57143,499.798)"/><path id="path4231" fill="url(#linearGradient4233)" fill-opacity="1" stroke="none" d="M 0 21.824219 L 0 44.4375 A 12.787358 11.673309 0.99633515 0 0 5.8066406 42.251953 A 12.787358 11.673309 0.99633515 0 0 5.1972656 24.949219 A 12.787358 11.673309 0.99633515 0 0 0 21.824219 z" opacity=".3" transform="translate(384.57143,499.798)"/><path id="path4235" fill="#0079bc" fill-opacity=".235" stroke="none" d="M 2.5820312 33.238281 A 13.62668 12.439506 0.5773774 0 0 0 33.492188 L 0 46.054688 C 0 47.131965 0.86803535 48 1.9453125 48 L 16.189453 48 A 13.62668 12.439506 0.5773774 0 0 7.3476562 34.091797 A 13.62668 12.439506 0.5773774 0 0 2.5820312 33.238281 z" opacity=".3" transform="translate(384.57143,499.798)"/><path id="path4237" fill="#0079bc" fill-opacity=".118" stroke="none" d="M 2.5683594 32.472656 A 14.466002 13.205704 0.5773774 0 0 0 32.716797 L 0 46.054688 C 0 47.131965 0.86803535 48 1.9453125 48 L 17.044922 48 A 14.466002 13.205704 0.5773774 0 0 7.6328125 33.378906 A 14.466002 13.205704 0.5773774 0 0 2.5683594 32.472656 z" opacity=".3" transform="translate(384.57143,499.798)"/><path id="path4239" fill="#009edb" fill-opacity="1" stroke="none" d="M 2.5957031 34.003906 A 12.787358 11.673309 0.5773774 0 0 0 34.271484 L 0 46.054688 C 0 47.131965 0.86803535 48 1.9453125 48 L 15.335938 48 A 12.787358 11.673309 0.5773774 0 0 7.0683594 34.804688 A 12.787358 11.673309 0.5773774 0 0 2.5957031 34.003906 z" opacity=".3" transform="translate(384.57143,499.798)"/><path id="path4241" fill="url(#linearGradient4243)" fill-opacity="1" stroke="none" d="M 2.5957031 34.003906 A 12.787358 11.673309 0.5773774 0 0 0 34.271484 L 0 46.054688 C 0 47.131965 0.86803535 48 1.9453125 48 L 15.335938 48 A 12.787358 11.673309 0.5773774 0 0 7.0683594 34.804688 A 12.787358 11.673309 0.5773774 0 0 2.5957031 34.003906 z" opacity=".3" transform="translate(384.57143,499.798)"/><path id="path4245" fill="#0079bc" fill-opacity=".235" stroke="none" d="M 17.251953 35.701172 A 13.62668 12.439506 0.10526032 0 0 15.767578 35.71875 A 13.62668 12.439506 0.10526032 0 0 3.2910156 48 L 30.623047 48 A 13.62668 12.439506 0.10526032 0 0 30.517578 46.800781 A 13.62668 12.439506 0.10526032 0 0 17.251953 35.701172 z" opacity=".3" transform="translate(384.57143,499.798)"/><path id="path4247" fill="#0079bc" fill-opacity=".118" stroke="none" d="M 17.271484 34.935547 A 14.466002 13.205704 0.10526032 0 0 15.697266 34.955078 A 14.466002 13.205704 0.10526032 0 0 2.4492188 48 L 31.466797 48 A 14.466002 13.205704 0.10526032 0 0 31.355469 46.720703 A 14.466002 13.205704 0.10526032 0 0 17.271484 34.935547 z" opacity=".3" transform="translate(384.57143,499.798)"/><path id="path4249" fill="#009edb" fill-opacity="1" stroke="none" d="M 17.234375 36.464844 A 12.787358 11.673309 0.10526032 0 0 15.841797 36.480469 A 12.787358 11.673309 0.10526032 0 0 4.1347656 48 L 29.78125 48 A 12.787358 11.673309 0.10526032 0 0 29.683594 46.880859 A 12.787358 11.673309 0.10526032 0 0 17.234375 36.464844 z" opacity=".3" transform="translate(384.57143,499.798)"/><path id="path4251" fill="url(#linearGradient4253)" fill-opacity="1" stroke="none" d="M 17.234375 36.464844 A 12.787358 11.673309 0.10526032 0 0 15.841797 36.480469 A 12.787358 11.673309 0.10526032 0 0 4.1347656 48 L 29.78125 48 A 12.787358 11.673309 0.10526032 0 0 29.683594 46.880859 A 12.787358 11.673309 0.10526032 0 0 17.234375 36.464844 z" opacity=".3" transform="translate(384.57143,499.798)"/><path id="path4255" fill="#0079bc" fill-opacity=".235" stroke="none" d="M 15.941406 29.478516 A 13.62668 12.439506 0.10526032 0 0 14.457031 29.494141 A 13.62668 12.439506 0.10526032 0 0 2.0800781 43.175781 A 13.62668 12.439506 0.10526032 0 0 3.7929688 48 L 27.501953 48 A 13.62668 12.439506 0.10526032 0 0 29.207031 40.578125 A 13.62668 12.439506 0.10526032 0 0 15.941406 29.478516 z" opacity=".6" transform="translate(384.57143,499.798)"/><path id="path4257" fill="#0079bc" fill-opacity=".118" stroke="none" d="M 15.962891 28.712891 A 14.466002 13.205704 0.10526032 0 0 14.386719 28.730469 A 14.466002 13.205704 0.10526032 0 0 1.2441406 43.255859 A 14.466002 13.205704 0.10526032 0 0 2.8378906 48 L 28.480469 48 A 14.466002 13.205704 0.10526032 0 0 30.044922 40.498047 A 14.466002 13.205704 0.10526032 0 0 15.962891 28.712891 z" opacity=".6" transform="translate(384.57143,499.798)"/><path id="path4259" fill="#009edb" fill-opacity="1" stroke="none" d="M 15.923828 30.240234 A 12.787358 11.673309 0.10526032 0 0 14.53125 30.257812 A 12.787358 11.673309 0.10526032 0 0 2.9160156 43.095703 A 12.787358 11.673309 0.10526032 0 0 4.7617188 48 L 26.527344 48 A 12.787358 11.673309 0.10526032 0 0 28.373047 40.658203 A 12.787358 11.673309 0.10526032 0 0 15.923828 30.240234 z" opacity=".6" transform="translate(384.57143,499.798)"/><path id="path4261" fill="url(#linearGradient4263)" fill-opacity="1" stroke="none" d="M 15.923828 30.240234 A 12.787358 11.673309 0.10526032 0 0 14.53125 30.257812 A 12.787358 11.673309 0.10526032 0 0 2.9160156 43.095703 A 12.787358 11.673309 0.10526032 0 0 4.7617188 48 L 26.527344 48 A 12.787358 11.673309 0.10526032 0 0 28.373047 40.658203 A 12.787358 11.673309 0.10526032 0 0 15.923828 30.240234 z" opacity=".6" transform="translate(384.57143,499.798)"/><path id="path4265" fill="#0079bc" fill-opacity=".235" stroke="none" d="M 48.082031 42.423828 A 13.62668 12.439506 0.10526032 0 0 39.554688 48 L 46.136719 48 C 47.213996 48 48.082031 47.131965 48.082031 46.054688 L 48.082031 42.423828 z" opacity=".17" transform="translate(384.57143,499.798)"/><path id="path4267" fill="#0079bc" fill-opacity=".118" stroke="none" d="M 48.082031 41.640625 A 14.466002 13.205704 0.10526032 0 0 38.578125 48 L 46.136719 48 C 47.213996 48 48.082031 47.131965 48.082031 46.054688 L 48.082031 41.640625 z" opacity=".6" transform="translate(384.57143,499.798)"/><path id="path4269" fill="#009edb" fill-opacity="1" stroke="none" d="M 48.082031 43.208984 A 12.787358 11.673309 0.10526032 0 0 40.542969 48 L 46.136719 48 C 47.213996 48 48.082031 47.131965 48.082031 46.054688 L 48.082031 43.208984 z" opacity=".17" transform="translate(384.57143,499.798)"/><path id="path4271" fill="url(#linearGradient4273)" fill-opacity="1" stroke="none" d="M 48.082031 43.208984 A 12.787358 11.673309 0.10526032 0 0 40.542969 48 L 46.136719 48 C 47.213996 48 48.082031 47.131965 48.082031 46.054688 L 48.082031 43.208984 z" opacity=".17" transform="translate(384.57143,499.798)"/><path id="path4275" fill="#0079bc" fill-opacity=".235" stroke="none" d="M 35.757812 39.794922 A 13.62668 12.439506 0.10526032 0 0 34.273438 39.8125 A 13.62668 12.439506 0.10526032 0 0 22.619141 48 L 46.136719 48 C 46.885808 48 47.526541 47.576682 47.851562 46.958984 A 13.62668 12.439506 0.10526032 0 0 35.757812 39.794922 z" opacity=".15" transform="translate(384.57143,499.798)"/><path id="path4277" fill="#0079bc" fill-opacity=".118" stroke="none" d="M 35.779297 39.03125 A 14.466002 13.205704 0.10526032 0 0 34.203125 39.048828 A 14.466002 13.205704 0.10526032 0 0 21.726562 48 L 46.136719 48 C 47.213996 48 48.082031 47.131965 48.082031 46.054688 L 48.082031 45.708984 A 14.466002 13.205704 0.10526032 0 0 35.779297 39.03125 z" opacity=".15" transform="translate(384.57143,499.798)"/><path id="path4279" fill="#009edb" fill-opacity="1" stroke="none" d="M 35.740234 40.558594 A 12.787358 11.673309 0.10526032 0 0 34.347656 40.574219 A 12.787358 11.673309 0.10526032 0 0 23.511719 48 L 46.136719 48 C 46.554732 48 46.939486 47.86534 47.255859 47.642578 A 12.787358 11.673309 0.10526032 0 0 35.740234 40.558594 z" opacity=".15" transform="translate(384.57143,499.798)"/><path id="path4281" fill="url(#linearGradient4283)" fill-opacity="1" stroke="none" d="M 35.740234 40.558594 A 12.787358 11.673309 0.10526032 0 0 34.347656 40.574219 A 12.787358 11.673309 0.10526032 0 0 23.511719 48 L 46.136719 48 C 46.554732 48 46.939486 47.86534 47.255859 47.642578 A 12.787358 11.673309 0.10526032 0 0 35.740234 40.558594 z" opacity=".15" transform="translate(384.57143,499.798)"/><path id="path4285" fill="#0079bc" fill-opacity=".235" stroke="none" d="M 29.482422 31.648438 A 19.360543 17.673827 0.08044625 0 0 27.416016 31.724609 A 19.360543 17.673827 0.08044625 0 0 10.177734 48 L 46.136719 48 C 47.213996 48 48.082031 47.131965 48.082031 46.054688 L 48.082031 44.044922 A 19.360543 17.673827 0.08044625 0 0 29.482422 31.648438 z" opacity=".5" transform="translate(384.57143,499.798)"/><path id="path4287" fill="#009edb" fill-opacity="1" stroke="none" d="M 29.488281 32.734375 A 18.168049 16.585228 0.08044625 0 0 27.548828 32.804688 A 18.168049 16.585228 0.08044625 0 0 11.380859 48 L 46.136719 48 C 46.725618 48 47.245547 47.735184 47.601562 47.324219 A 18.168049 16.585228 0.08044625 0 0 47.574219 47.089844 A 18.168049 16.585228 0.08044625 0 0 29.488281 32.734375 z" opacity=".5" transform="translate(384.57143,499.798)"/><path id="path4289" fill="url(#linearGradient4291)" fill-opacity="1" stroke="none" d="M 29.488281 32.734375 A 18.168049 16.585228 0.08044625 0 0 27.548828 32.804688 A 18.168049 16.585228 0.08044625 0 0 11.380859 48 L 46.136719 48 C 46.725618 48 47.245547 47.735184 47.601562 47.324219 A 18.168049 16.585228 0.08044625 0 0 47.574219 47.089844 A 18.168049 16.585228 0.08044625 0 0 29.488281 32.734375 z" opacity=".5" transform="translate(384.57143,499.798)"/><g id="g4398"><path id="rect846" fill="#000" fill-opacity="1" stroke="none" d="m 384.57143,544.79799 0,1.0625 c 0,1.0773 0.86022,1.9375 1.9375,1.9375 l 44.125,0 c 1.07728,0 1.9375,-0.8602 1.9375,-1.9375 l 0,-1.0625 c 0,1.0773 -0.86022,1.9375 -1.9375,1.9375 l -44.125,0 C 385.43165,546.73549 384.57143,545.87529 384.57143,544.79799 Z"/><path id="path7515" fill="#fff" fill-opacity=".537" stroke="none" d="m 387.10268,500.45429 c -0.91709,0 -1.67115,0.6395 -1.84375,1.5 0.33561,-0.2799 0.77451,-0.4375 1.25,-0.4375 l 44.125,0 c 0.47549,0 0.91439,0.1576 1.25,0.4375 -0.1726,-0.8605 -0.92666,-1.5 -1.84375,-1.5 L 387.10268,500.45429 Z"/><path id="rect4280" fill="#000" fill-opacity=".392" stroke="none" d="m 386.50893,499.79799 c -1.07728,0 -1.9375,0.8602 -1.9375,1.9375 l 0,43.0625 c 0,0.7934 0.48002,1.449 1.15625,1.75 -0.30934,-0.3333 -0.5,-0.7824 -0.5,-1.2812 l 0,-42.9375 c 0,-1.0482 0.8269,-1.875 1.875,-1.875 l 42.9375,0 c 1.0481,0 1.875,0.8268 1.875,1.875 l 0,42.9375 c 0,0.4988 -0.19066,0.9479 -0.5,1.2812 0.67623,-0.301 1.15625,-0.9566 1.15625,-1.75 l 0,-43.0625 c 0,-1.0773 -0.86022,-1.9375 -1.9375,-1.9375 L 386.50893,499.79799 Z"/></g><path id="path4427" fill="#000" fill-opacity=".059" stroke="none" d="m 392.84227,509.598 c -0.70404,0 -1.27084,0.5683 -1.27084,1.27421 l 0,28.25158 c 0,0.70591 0.5668,1.27421 1.27084,1.27421 l 17.98788,0 c 0.70405,0 1.27084,-0.5683 1.27084,-1.27421 0,-0.70591 -0.56679,-1.27421 -1.27084,-1.27421 l -13.39101,0 c -1.51754,0 -3.32602,-0.59108 -3.32602,-3.52149 l 0,-23.45588 c 0,-0.70591 -0.5668,-1.27421 -1.27085,-1.27421 z m 13.47044,0 c -0.70404,0 -1.27084,0.5683 -1.27084,1.27421 0,0.70591 0.5668,1.27421 1.27084,1.27421 l 13.39101,0 c 1.51756,0 3.32603,0.59108 3.32603,3.52149 l 0,23.45588 c 0,0.70591 0.56679,1.27421 1.27085,1.27421 0.70404,0 1.27083,-0.5683 1.27083,-1.27421 l 0,-28.25158 c 0,-0.70591 -0.56679,-1.27421 -1.27083,-1.27421 l -17.98789,0 z"/><path id="path4425" fill="#000" fill-opacity=".118" stroke="none" d="m 392.84227,509.198 c -0.70404,0 -1.27084,0.5683 -1.27084,1.27421 l 0,28.25158 c 0,0.70591 0.5668,1.27421 1.27084,1.27421 l 17.98788,0 c 0.70405,0 1.27084,-0.5683 1.27084,-1.27421 0,-0.70591 -0.56679,-1.27421 -1.27084,-1.27421 l -13.39101,0 c -1.51754,0 -3.32602,-0.59108 -3.32602,-3.52149 l 0,-23.45588 c 0,-0.70591 -0.5668,-1.27421 -1.27085,-1.27421 z m 13.47044,0 c -0.70404,0 -1.27084,0.5683 -1.27084,1.27421 0,0.70591 0.5668,1.27421 1.27084,1.27421 l 13.39101,0 c 1.51756,0 3.32603,0.59108 3.32603,3.52149 l 0,23.45588 c 0,0.70591 0.56679,1.27421 1.27085,1.27421 0.70404,0 1.27083,-0.5683 1.27083,-1.27421 l 0,-28.25158 c 0,-0.70591 -0.56679,-1.27421 -1.27083,-1.27421 l -17.98789,0 z"/><path id="path4421" fill="#000" fill-opacity=".235" stroke="none" d="m 392.84227,508.798 c -0.70404,0 -1.27084,0.5683 -1.27084,1.27421 l 0,28.25158 c 0,0.70591 0.5668,1.27421 1.27084,1.27421 l 17.98788,0 c 0.70405,0 1.27084,-0.5683 1.27084,-1.27421 0,-0.70591 -0.56679,-1.27421 -1.27084,-1.27421 l -13.39101,0 c -1.51754,0 -3.32602,-0.59108 -3.32602,-3.52149 l 0,-23.45588 c 0,-0.70591 -0.5668,-1.27421 -1.27085,-1.27421 z m 13.47044,0 c -0.70404,0 -1.27084,0.5683 -1.27084,1.27421 0,0.70591 0.5668,1.27421 1.27084,1.27421 l 13.39101,0 c 1.51756,0 3.32603,0.59108 3.32603,3.52149 l 0,23.45588 c 0,0.70591 0.56679,1.27421 1.27085,1.27421 0.70404,0 1.27083,-0.5683 1.27083,-1.27421 l 0,-28.25158 c 0,-0.70591 -0.56679,-1.27421 -1.27083,-1.27421 l -17.98789,0 z"/><path id="rect4403" fill="url(#linearGradient4419)" fill-opacity="1" stroke="none" d="m 392.84227,508.398 c -0.70404,0 -1.27084,0.5683 -1.27084,1.27421 l 0,28.25158 c 0,0.70591 0.5668,1.27421 1.27084,1.27421 l 17.98788,0 c 0.70405,0 1.27084,-0.5683 1.27084,-1.27421 0,-0.70591 -0.56679,-1.27421 -1.27084,-1.27421 l -13.39101,0 c -1.51754,0 -3.32602,-0.59108 -3.32602,-3.52149 l 0,-23.45588 c 0,-0.70591 -0.5668,-1.27421 -1.27085,-1.27421 z m 13.47044,0 c -0.70404,0 -1.27084,0.5683 -1.27084,1.27421 0,0.70591 0.5668,1.27421 1.27084,1.27421 l 13.39101,0 c 1.51756,0 3.32603,0.59108 3.32603,3.52149 l 0,23.45588 c 0,0.70591 0.56679,1.27421 1.27085,1.27421 0.70404,0 1.27083,-0.5683 1.27083,-1.27421 l 0,-28.25158 c 0,-0.70591 -0.56679,-1.27421 -1.27083,-1.27421 l -17.98789,0 z"/><path id="path4429" fill="#00395f" fill-opacity=".314" stroke="none" d="M 20.541016 9.4746094 C 20.499383 9.6009642 20.470703 9.7343014 20.470703 9.875 C 20.470703 10.58091 21.038147 11.148438 21.742188 11.148438 L 35.132812 11.148438 C 36.650373 11.148438 38.458984 11.739512 38.458984 14.669922 L 38.458984 13.869141 C 38.458984 10.938731 36.650373 10.347656 35.132812 10.347656 L 21.742188 10.347656 C 21.178865 10.347656 20.708574 9.9816476 20.541016 9.4746094 z M 7 37.326172 L 7 38.125 C 7 38.83091 7.5674444 39.400391 8.2714844 39.400391 L 26.257812 39.400391 C 26.961862 39.400391 27.529297 38.83091 27.529297 38.125 C 27.529297 37.984301 27.500617 37.852917 27.458984 37.726562 C 27.291429 38.233601 26.821143 38.599609 26.257812 38.599609 L 8.2714844 38.599609 C 7.5674444 38.599609 7 38.032082 7 37.326172 z M 38.458984 37.326172 L 38.458984 38.125 C 38.458984 38.83091 39.024456 39.400391 39.728516 39.400391 C 40.432556 39.400391 41 38.83091 41 38.125 L 41 37.326172 C 41 38.032082 40.432556 38.599609 39.728516 38.599609 C 39.024456 38.599609 38.458984 38.032082 38.458984 37.326172 z" transform="translate(384.57143,499.798)"/><path id="path4434" fill="#fff" fill-opacity=".235" stroke="none" d="M 8.2714844 8.5996094 C 7.5674444 8.5996094 7 9.16909 7 9.875 L 7 10.273438 C 7 9.5675275 7.5674444 9 8.2714844 9 C 8.9755344 9 9.5410156 9.5675275 9.5410156 10.273438 L 9.5410156 9.875 C 9.5410156 9.16909 8.9755344 8.5996094 8.2714844 8.5996094 z M 21.742188 8.5996094 C 21.038147 8.5996094 20.470703 9.16909 20.470703 9.875 C 20.470703 9.9436969 20.479894 10.008525 20.490234 10.074219 C 20.586145 9.4648646 21.106662 9 21.742188 9 L 39.728516 9 C 40.432556 9 41 9.5675275 41 10.273438 L 41 9.875 C 41 9.16909 40.432556 8.5996094 39.728516 8.5996094 L 21.742188 8.5996094 z M 9.5410156 33.330078 L 9.5410156 33.730469 C 9.5410156 36.660879 11.349648 37.251953 12.867188 37.251953 L 26.257812 37.251953 C 26.8932 37.251953 27.413682 37.715072 27.509766 38.324219 C 27.519954 38.258993 27.529297 38.193182 27.529297 38.125 C 27.529297 37.41909 26.961862 36.851562 26.257812 36.851562 L 12.867188 36.851562 C 11.349648 36.851562 9.5410156 36.260488 9.5410156 33.330078 z" transform="translate(384.57143,499.798)"/></g></svg>