<svg xmlns="http://www.w3.org/2000/svg" xmlns:svg="http://www.w3.org/2000/svg" xmlns:xlink="http://www.w3.org/1999/xlink" id="svg2" width="48" height="48" version="1.1"><defs id="defs4"><linearGradient id="linearGradient1711" x1="22.49" x2="22.49" y1="-1052.37" y2="-1004.364" gradientTransform="translate(-3.8085936e-8,-2.5343751e-6)" gradientUnits="userSpaceOnUse" xlink:href="#linearGradient6589"/><linearGradient id="linearGradient4171" x1="30.521" x2="30.521" y1="1043.742" y2="1012.894" gradientUnits="userSpaceOnUse" xlink:href="#linearGradient4169"/><linearGradient id="linearGradient4169"><stop id="stop4171" offset="0" stop-color="#e2f4c4" stop-opacity="1"/><stop id="stop4173" offset="1" stop-color="#fdfff5" stop-opacity="1"/></linearGradient><linearGradient id="linearGradient6589"><stop id="stop6591" offset="0" stop-color="#88c425" stop-opacity="1"/><stop id="stop6593" offset="1" stop-color="#bef202" stop-opacity="1"/></linearGradient><linearGradient id="linearGradient4181" x1="10.41" x2="10.41" y1="13.991" y2="2.012" gradientTransform="matrix(2.5666667,0,0,2.5666667,-55.35834,990.61949)" gradientUnits="userSpaceOnUse" xlink:href="#linearGradient4169"/><linearGradient id="linearGradient4185" x1="10.41" x2="10.41" y1="13.991" y2="2.012" gradientTransform="matrix(2.5666667,0,0,2.5666667,-55.35834,990.61949)" gradientUnits="userSpaceOnUse" xlink:href="#linearGradient4169"/></defs><metadata id="metadata7"/><g id="layer1" transform="translate(0,-1004.3622)"><rect id="rect2991-1" width="48" height="48" x="0" y="-1052.362" fill="url(#linearGradient1711)" fill-opacity="1" stroke="none" ry="1.945" transform="scale(1,-1)"/><path id="path4153" fill="#000" fill-opacity=".059" d="m 8.6,1029.5468 5.4593,5.4516 c 0,0 3.062675,-3.0607 6.077225,-6.0753 l 0,16.0391 7.720212,0 0,-16.0391 6.083,6.083 L 39.4,1029.5468 24.001925,1014.1622 8.6,1029.5468 Z"/><path id="path4151" fill="#000" fill-opacity=".118" d="m 8.6,1029.1468 5.4593,5.4516 c 0,0 3.062675,-3.0607 6.077225,-6.0753 l 0,16.0391 7.720212,0 0,-16.0391 6.083,6.083 L 39.4,1029.1468 24.001925,1013.7622 8.6,1029.1468 Z"/><path id="path4147" fill="#000" fill-opacity=".235" d="m 8.6,1028.7468 5.4593,5.4516 c 0,0 3.062675,-3.0607 6.077225,-6.0753 l 0,16.0391 7.720212,0 0,-16.0391 6.083,6.083 L 39.4,1028.7468 24.001925,1013.3622 8.6,1028.7468 Z"/><path id="rect846" fill="#000" fill-opacity="1" stroke="none" d="m -3.8085936e-8,1049.3622 0,1.0625 c 0,1.0773 0.860222898085936,1.9375 1.937499938085936,1.9375 l 44.1250001,0 c 1.077277,0 1.9375,-0.8602 1.9375,-1.9375 l 0,-1.0625 c 0,1.0773 -0.860223,1.9375 -1.9375,1.9375 l -44.1250001,0 C 0.86022286,1051.2997 -3.8085936e-8,1050.4395 -3.8085936e-8,1049.3622 Z"/><path id="path7515" fill="#fff" fill-opacity=".537" stroke="none" d="m 2.5312499,1005.0185 c -0.9170884,0 -1.67114674,0.6395 -1.84374994,1.5 0.33561204,-0.2799 0.77451214,-0.4375 1.24999994,-0.4375 l 44.1250001,0 c 0.475488,0 0.914388,0.1576 1.25,0.4375 -0.172603,-0.8605 -0.926662,-1.5 -1.84375,-1.5 L 2.5312499,1005.0185 Z"/><path id="rect4280" fill="#000" fill-opacity=".392" stroke="none" d="m 1.9374999,1004.3622 c -1.07727694,0 -1.937499938085938,0.8602 -1.937499938085938,1.9375 l 0,43.0625 c 0,0.7934 0.480023998085938,1.449 1.156249938085938,1.75 -0.30934164,-0.3333 -0.49999994,-0.7824 -0.49999994,-1.2812 l 0,-42.9375 c 0,-1.0482 0.82689894,-1.875 1.87499994,-1.875 l 42.9375001,0 c 1.048101,0 1.875,0.8268 1.875,1.875 l 0,42.9375 c 0,0.4988 -0.190658,0.9479 -0.5,1.2812 0.676226,-0.301 1.15625,-0.9566 1.15625,-1.75 l 0,-43.0625 c 0,-1.0773 -0.860223,-1.9375 -1.9375,-1.9375 L 1.9374999,1004.3622 Z"/><path id="path4099" fill="url(#linearGradient4171)" fill-opacity="1" d="m 8.6,1028.3468 5.4593,5.4516 c 0,0 3.062675,-3.0607 6.077225,-6.0753 l 0,16.0391 7.720212,0 0,-16.0391 6.083,6.083 L 39.4,1028.3468 24.001925,1012.9622 8.6,1028.3468 Z"/><path id="path4155" fill="#89c524" fill-opacity=".314" d="m 20.136719,1026.9224 c -3.01455,3.0146 -6.078125,6.0761 -6.078125,6.0761 L 9,1027.9458 l -0.4003906,0.4004 5.4589846,5.4512 c 0,0 3.063575,-3.0597 6.078125,-6.0743 l 0,-0.8007 z m 7.720703,0 0,0.8007 6.082031,6.0821 5.460938,-5.459 L 39,1027.9477 l -5.060547,5.0586 -6.082031,-6.0839 z m -7.720703,16.039 0,0.8008 7.720703,0 0,-0.8008 -7.720703,0 z"/><path id="path4160" fill="#fff" fill-opacity=".235" d="m 24.001953,1012.9622 -15.4023436,15.3848 0.2011718,0.1992 15.2011718,-15.1836 15.197266,15.1855 0.201172,-0.2011 -15.398438,-15.3848 z"/><rect id="rect4898" width="56.467" height="56.467" x="-55.358" y="990.62" fill="url(#linearGradient4181)" fill-opacity="1" fill-rule="nonzero" stroke="none" display="none"/><rect id="rect4126" width="56.467" height="56.467" x="-55.358" y="990.62" fill="url(#linearGradient4185)" fill-opacity="1" fill-rule="nonzero" stroke="none" display="none"/></g></svg>