<svg xmlns="http://www.w3.org/2000/svg" xmlns:svg="http://www.w3.org/2000/svg" xmlns:xlink="http://www.w3.org/1999/xlink" id="svg2" width="48" height="48" version="1.1"><defs id="defs4"><linearGradient id="linearGradient7199"><stop id="stop7201" offset="0" stop-color="#fff" stop-opacity=".159"/><stop id="stop7203" offset="1" stop-color="#fff" stop-opacity="0"/></linearGradient><linearGradient id="linearGradient7117"><stop id="stop7119" offset="0" stop-color="#85898a" stop-opacity="1"/><stop id="stop7121" offset="1" stop-color="#5f6464" stop-opacity="1"/></linearGradient><linearGradient id="linearGradient853"><stop id="stop855" offset="0" stop-color="#333335" stop-opacity="1"/><stop id="stop857" offset="1" stop-color="#303030" stop-opacity="1"/></linearGradient><linearGradient id="linearGradient851" x1="25.5" x2="25.5" y1="-1052.612" y2="-1004.373" gradientTransform="matrix(0.87499999,0,0,0.87500001,3.0000003,-128.54532)" gradientUnits="userSpaceOnUse" xlink:href="#linearGradient853"/><linearGradient id="linearGradient1723"><stop id="stop1725" offset="0" stop-color="#000" stop-opacity="1"/><stop id="stop1727" offset="1" stop-color="#000" stop-opacity="0"/></linearGradient><linearGradient id="linearGradient909-4"><stop id="stop911" offset="0" stop-color="#000" stop-opacity=".116"/><stop id="stop913" offset="1" stop-color="#1a1a1a" stop-opacity="1"/></linearGradient><linearGradient id="linearGradient907" x1="25.809" x2="25.809" y1="-1052.379" y2="-1004.392" gradientTransform="matrix(0.87500003,0,0,0.66666669,4.8260858,-339.50508)" gradientUnits="userSpaceOnUse" xlink:href="#linearGradient909-4"/><linearGradient id="linearGradient6936" x1="26.25" x2="26.25" y1="1045.384" y2="1036.218" gradientTransform="matrix(1.0000001,0,0,-0.91614601,1.8260861,1963.9706)" gradientUnits="userSpaceOnUse" xlink:href="#linearGradient1723"/><linearGradient id="linearGradient1483"><stop id="stop1485" offset="0" stop-color="#fff" stop-opacity="1"/><stop id="stop1487" offset="1" stop-color="#fff" stop-opacity="0"/></linearGradient><radialGradient id="radialGradient7115" cx="24" cy="-1040.916" r="17.348" fx="24" fy="-1040.916" gradientTransform="matrix(1.0952382,0,0,0.83446703,-0.4596277,-169.63929)" gradientUnits="userSpaceOnUse" xlink:href="#linearGradient7117"/><linearGradient id="linearGradient7127" x1="24.625" x2="24.625" y1="-1004.612" y2="-1018.862" gradientTransform="matrix(1.0952382,0,0,1.003398,-0.4596277,3.5375947)" gradientUnits="userSpaceOnUse" xlink:href="#linearGradient1483"/><linearGradient id="linearGradient7197" x1="25.809" x2="25.809" y1="-1052.379" y2="-1004.392" gradientTransform="matrix(0.8293651,0,0,0.63189722,5.9213241,-375.26068)" gradientUnits="userSpaceOnUse" xlink:href="#linearGradient7199"/><linearGradient id="linearGradient4203-0" x1="25.633" x2="25.633" y1="40.399" y2="26.969" gradientTransform="matrix(0.25,0,0,0.25,5.399498,1050.1734)" gradientUnits="userSpaceOnUse" xlink:href="#linearGradient4197-1"/><linearGradient id="linearGradient4197-1"><stop id="stop4199-6" offset="0" stop-color="#000" stop-opacity="1"/><stop id="stop4201-8" offset="1" stop-color="#000" stop-opacity="0"/></linearGradient><linearGradient id="linearGradient4252-9" x1="411.176" x2="411.176" y1="531.912" y2="516.785" gradientTransform="matrix(0.25,0,0,0.25,-90.618363,925.09881)" gradientUnits="userSpaceOnUse" xlink:href="#linearGradient4074-2"/><linearGradient id="linearGradient4074-2"><stop id="stop4076-9" offset="0" stop-color="#7c7e81" stop-opacity="1"/><stop id="stop4082-2" offset=".5" stop-color="#747579" stop-opacity="1"/><stop id="stop4078-1" offset="1" stop-color="#bdbfc1" stop-opacity="1"/></linearGradient><linearGradient id="linearGradient4433-0" x1="410.821" x2="411.009" y1="512.548" y2="523.548" gradientTransform="matrix(0.25,0,0,0.25,-90.743363,925.22381)" gradientUnits="userSpaceOnUse" xlink:href="#linearGradient4146-6"/><linearGradient id="linearGradient4146-6"><stop id="stop4148-9" offset="0" stop-color="#fff" stop-opacity="1"/><stop id="stop4150-6" offset="1" stop-color="#fff" stop-opacity="0"/></linearGradient><linearGradient id="linearGradient4375-5" x1="14.25" x2="17.688" y1="22.438" y2="19.063" gradientTransform="matrix(-0.25,0,0,0.25,17.411705,1050.1734)" gradientUnits="userSpaceOnUse" xlink:href="#linearGradient4365-5"/><linearGradient id="linearGradient4365-5"><stop id="stop4367-1" offset="0" stop-color="#000" stop-opacity="0"/><stop id="stop4371-4" offset=".495" stop-color="#000" stop-opacity=".401"/><stop id="stop4369-6" offset="1" stop-color="#000" stop-opacity="0"/></linearGradient><linearGradient id="linearGradient4357-7" x1="14.25" x2="17.688" y1="22.438" y2="19.063" gradientTransform="matrix(0.25,0,0,0.25,5.399498,1050.1734)" gradientUnits="userSpaceOnUse" xlink:href="#linearGradient4365-5"/><linearGradient id="linearGradient4406-2" x1="404.446" x2="398.946" y1="528.61" y2="525.298" gradientTransform="matrix(0.25,0,0,0.25,-90.743363,925.22382)" gradientUnits="userSpaceOnUse" xlink:href="#linearGradient4409-3"/><linearGradient id="linearGradient4409-3"><stop id="stop4411-7" offset="0" stop-color="#fff" stop-opacity="0"/><stop id="stop4413-5" offset=".398" stop-color="#e5e5e6" stop-opacity=".512"/><stop id="stop4415-2" offset="1" stop-color="#fff" stop-opacity="0"/></linearGradient><linearGradient id="linearGradient4429-5" x1="404.446" x2="398.946" y1="528.61" y2="525.298" gradientTransform="matrix(-0.25,0,0,0.25,113.5423,925.22381)" gradientUnits="userSpaceOnUse" xlink:href="#linearGradient4409-3"/><linearGradient id="linearGradient4182-7" x1="408.218" x2="408.218" y1="534.152" y2="513.81" gradientTransform="matrix(0.25,0,0,0.25,-90.743363,925.22381)" gradientUnits="userSpaceOnUse" xlink:href="#linearGradient4184-8"/><linearGradient id="linearGradient4184-8"><stop id="stop4186-7" offset="0" stop-color="#7c7e81" stop-opacity="1"/><stop id="stop4188-5" offset=".271" stop-color="#838488" stop-opacity="1"/><stop id="stop4190-0" offset="1" stop-color="#ced0d1" stop-opacity="1"/></linearGradient><linearGradient id="linearGradient10248"><stop id="stop10250" offset="0" stop-color="#e6e6e6" stop-opacity=".537"/><stop id="stop10252" offset="1" stop-color="#ccc" stop-opacity="0"/></linearGradient><linearGradient id="linearGradient861"><stop id="stop863" offset="0" stop-color="#333" stop-opacity="1"/><stop id="stop10258" offset=".342" stop-color="#3c3c3c" stop-opacity="1"/><stop id="stop865" offset="1" stop-color="#1a1a1a" stop-opacity="1"/></linearGradient><radialGradient id="radialGradient10134" cx="24" cy="-1028.362" r="24" fx="24" fy="-1028.362" gradientTransform="translate(60.00151,-47.589362)" gradientUnits="userSpaceOnUse" xlink:href="#linearGradient861"/><linearGradient id="linearGradient1243" x1=".177" x2="2.952" y1="-1033.842" y2="-1033.842" gradientTransform="matrix(-1,0,0,-1,48,-3.4000001e-6)" gradientUnits="userSpaceOnUse" xlink:href="#linearGradient10248"/><linearGradient id="linearGradient1232" x1=".177" x2="2.905" y1="-1033.842" y2="-1033.842" gradientTransform="matrix(1,0,0,-1,0,-3.4000001e-6)" gradientUnits="userSpaceOnUse" xlink:href="#linearGradient10248"/></defs><metadata id="metadata7"/><g id="layer1" transform="translate(0,-1004.3622)"><g id="g8233" transform="translate(-60.00151,-47.589289)"><rect id="rect2991-1-9" width="48" height="48" x="60.002" y="-1099.951" fill="url(#radialGradient10134)" fill-opacity="1" stroke="none" ry="1.945" transform="scale(1,-1)"/><g id="g10254" transform="translate(60.00151,47.589362)"><path id="rect1228" fill="url(#linearGradient1232)" fill-opacity="1" stroke="none" d="m 1.9375,1004.3622 c -1.0773,0 -1.9375,0.8602 -1.9375,1.9375 l 0,44.125 c 0,1.0772 0.8602,1.9375 1.9375,1.9375 l 6.375,0 0,-48 -6.375,0 z" opacity=".715"/><path id="path1241" fill="url(#linearGradient1243)" fill-opacity="1" stroke="none" d="m 46.0625,1004.3622 c 1.0773,0 1.9375,0.8602 1.9375,1.9375 l 0,44.125 c 0,1.0772 -0.8602,1.9375 -1.9375,1.9375 l -6.375,0 0,-48 6.375,0 z" opacity=".715"/></g></g><path id="rect846-6" fill="#000" fill-opacity="1" stroke="none" d="m -7.71164e-8,1049.3622 0,1.0625 c 0,1.0773 0.8602229071164,1.9375 1.9374998771164,1.9375 l 44.1250002,0 c 1.077277,0 1.9375,-0.8602 1.9375,-1.9375 l 0,-1.0625 c 0,1.0773 -0.860223,1.9375 -1.9375,1.9375 l -44.1250002,0 c -1.07727697,0 -1.937499877116403,-0.8602 -1.937499877116403,-1.9375 z"/><path id="path7515-7" fill="#fff" fill-opacity=".537" stroke="none" d="m 2.5312498,1005.0185 c -0.9170884,0 -1.67114667,0.6395 -1.84374987,1.5 0.33561197,-0.2799 0.77451207,-0.4375 1.24999987,-0.4375 l 44.1250002,0 c 0.475488,0 0.914388,0.1576 1.25,0.4375 -0.172603,-0.8605 -0.926662,-1.5 -1.84375,-1.5 l -42.9375002,0 z"/><path id="rect4280-6" fill="#000" fill-opacity=".392" stroke="none" d="m 1.9374998,1004.3622 c -1.07727687,0 -1.9374998771164,0.8602 -1.9374998771164,1.9375 l 0,43.0625 c 0,0.7934 0.4800236071164,1.449 1.1562498771164,1.75 -0.30934157,-0.3333 -0.49999987,-0.7824 -0.49999987,-1.2812 l 0,-42.9375 c 0,-1.0482 0.82689887,-1.875 1.87499987,-1.875 l 42.9375002,0 c 1.048101,0 1.875,0.8268 1.875,1.875 l 0,42.9375 c 0,0.4988 -0.190658,0.9479 -0.5,1.2812 0.676226,-0.301 1.15625,-0.9566 1.15625,-1.75 l 0,-43.0625 c 0,-1.0773 -0.860223,-1.9375 -1.9375,-1.9375 l -44.1250002,0 z"/><rect id="rect849" width="42" height="42" x="3" y="-1049.362" fill="url(#linearGradient851)" fill-opacity="1" stroke="none" ry="1.701" transform="scale(1,-1)"/><g id="g8239" transform="translate(-1.826088,-1.7177734)"><rect id="rect905" width="42" height="32" x="4.826" y="-1041.08" fill="url(#linearGradient907)" fill-opacity="1" stroke="none" ry="1.296" transform="scale(1,-1)"/><rect id="rect7195" width="39.81" height="30.331" x="5.921" y="-1040.245" fill="url(#linearGradient7197)" fill-opacity="1" stroke="none" ry="1.229" transform="scale(1,-1)"/><rect id="rect915" width="38" height="28.952" x="6.826" y="-1039.556" fill="url(#radialGradient7115)" fill-opacity="1" stroke="none" ry="1.173" transform="scale(1,-1)"/><path id="path6934" fill="url(#linearGradient6936)" fill-opacity="1" stroke="none" d="m 7.8354607,1010.6036 c -0.584441,0.109 -1.0093747,0.6009 -1.0093747,1.1695 l 0,5.1605 38.000007,0 0,-5.1605 c 0,-0.5686 -0.424941,-1.0605 -1.009382,-1.1695 z" opacity=".621"/><rect id="rect7123" width="35.81" height="27.283" x="7.921" y="-1038.722" fill="url(#linearGradient7127)" fill-opacity="1" stroke="none" opacity=".6" ry="1.105" transform="scale(1,-1)"/></g><g id="g7239" transform="matrix(0.75202619,0,0,0.38328333,9.684005,646.05827)"><rect id="rect7241" width="19.701" height="1.984" x="24.587" y="1043.103" fill="#000" fill-opacity=".219" fill-rule="nonzero" stroke="none" stroke-width="1.4" color="#000" display="inline" enable-background="accumulate" overflow="visible" ry="0" visibility="visible" style="marker:none"/><rect id="rect7243" width="19.701" height="1.984" x="24.832" y="1043.728" fill="#fff" fill-opacity=".219" fill-rule="nonzero" stroke="none" stroke-width="1.4" color="#000" display="inline" enable-background="accumulate" overflow="visible" ry="0" visibility="visible" style="marker:none"/><rect id="rect7245" width="19.448" height="1.607" x="24.839" y="1043.48" fill="#000" fill-opacity="1" fill-rule="nonzero" stroke="none" stroke-width="1.4" color="#000" display="inline" enable-background="accumulate" overflow="visible" ry="0" visibility="visible" style="marker:none"/></g><g id="g7720" transform="matrix(1.1320911,0,0,1.1320911,-2.7530906,-150.49203)"><rect id="rect4170-9" width="5" height="5" x="8.899" y="1053.973" fill="#000" fill-opacity=".059" stroke="none" ry="2.5"/><rect id="rect4168-5" width="5" height="5" x="8.899" y="1053.873" fill="#000" fill-opacity=".118" stroke="none" ry="2.5"/><rect id="rect4166-7" width="5" height="5" x="8.899" y="1053.773" fill="#000" fill-opacity=".235" stroke="none" ry="2.5"/><rect id="rect4174-6" width="5" height="5" x="8.899" y="1053.673" fill="url(#linearGradient4182-7)" fill-opacity="1" stroke="none" ry="2.5"/><path id="path4427-2" fill="url(#linearGradient4429-5)" fill-opacity="1" stroke="none" d="m 13.897,1056.124 c 2.5e-4,0.016 0.0025,0.033 0.0025,0.05 0,1.036 -0.62396,1.9206 -1.518067,2.3008 0.0074,-0.01 0.01015,-0.013 0.01808,-0.02 0.506657,-0.4576 -0.05216,-0.3571 -0.0143,-0.7225 0.12208,-0.2196 0.965675,-1.0502 0.9977,-1.3112 z"/><path id="rect4400-6" fill="url(#linearGradient4406-2)" fill-opacity="1" stroke="none" d="m 8.9019394,1056.124 c -3.25e-4,0.016 -0.00245,0.033 -0.00245,0.05 0,1.036 0.623959,1.9206 1.5180666,2.3008 -0.0074,-0.01 -0.01015,-0.013 -0.01807,-0.02 -0.5066581,-0.4576 0.05215,-0.3571 0.0143,-0.7225 -0.122081,-0.2196 -0.9656746,-1.0502 -0.9977011,-1.3112 z"/><path id="rect4334-0" fill="url(#linearGradient4357-7)" fill-opacity="1" stroke="none" d="m 9.8721542,1054.1948 c -0.5292023,0.4086 -0.890846,1.0232 -0.9604493,1.7276 l 1.4340821,0.8276 c -0.7202106,-1.077 -0.6854173,-1.9514 -0.4736328,-2.5552 z"/><path id="path4373-1" fill="url(#linearGradient4375-5)" fill-opacity="1" stroke="none" d="m 12.93905,1054.1948 c 0.529203,0.4086 0.890845,1.0232 0.96045,1.7276 l -1.434082,0.8276 c 0.72021,-1.077 0.685417,-1.9514 0.473632,-2.5552 z"/><rect id="rect4431-0" width="5" height="5" x="8.899" y="1053.673" fill="url(#linearGradient4433-0)" fill-opacity="1" stroke="none" ry="2.5"/><rect id="rect4224-4" width="4" height="4" x="9.399" y="1054.173" fill="#333" fill-opacity="1" stroke="none" ry="2"/><rect id="rect4244-4" width="3.75" height="3.75" x="9.525" y="1054.298" fill="url(#linearGradient4252-9)" fill-opacity="1" stroke="none" ry="1.875"/><path id="rect4192-0" fill="url(#linearGradient4203-0)" fill-opacity="1" stroke="none" d="m 8.9092634,1055.9732 c -0.00522,0.066 -0.00977,0.1326 -0.00977,0.2002 0,1.385 1.1149996,2.5 2.4999996,2.5 1.385,0 2.5,-1.115 2.5,-2.5 0,-0.068 -0.0046,-0.134 -0.0098,-0.2002 -0.101385,1.2906 -1.172669,2.3003 -2.490235,2.3003 -1.317565,0 -2.3888496,-1.0097 -2.4902341,-2.3003 z"/></g><g id="g7742" transform="matrix(0.75202619,0,0,0.38328333,9.684005,644.05827)"><rect id="rect7744" width="19.701" height="1.984" x="24.587" y="1043.103" fill="#000" fill-opacity=".219" fill-rule="nonzero" stroke="none" stroke-width="1.4" color="#000" display="inline" enable-background="accumulate" overflow="visible" ry="0" visibility="visible" style="marker:none"/><rect id="rect7746" width="19.701" height="1.984" x="24.832" y="1043.728" fill="#fff" fill-opacity=".219" fill-rule="nonzero" stroke="none" stroke-width="1.4" color="#000" display="inline" enable-background="accumulate" overflow="visible" ry="0" visibility="visible" style="marker:none"/><rect id="rect7748" width="19.448" height="1.607" x="24.839" y="1043.48" fill="#000" fill-opacity="1" fill-rule="nonzero" stroke="none" stroke-width="1.4" color="#000" display="inline" enable-background="accumulate" overflow="visible" ry="0" visibility="visible" style="marker:none"/></g></g></svg>