<svg xmlns="http://www.w3.org/2000/svg" xmlns:svg="http://www.w3.org/2000/svg" xmlns:xlink="http://www.w3.org/1999/xlink" id="svg2" width="48" height="48" version="1.1"><defs id="defs4"><linearGradient id="linearGradient4571"><stop id="stop4573" offset="0" stop-color="#c2f08b" stop-opacity="1"/><stop id="stop4577" offset=".5" stop-color="#7d9665" stop-opacity=".498"/><stop id="stop4575" offset="1" stop-color="#383c40" stop-opacity="0"/></linearGradient><linearGradient id="linearGradient4405"><stop id="stop4407" offset="0" stop-color="#fff" stop-opacity="0"/><stop id="stop4409" offset=".064" stop-color="#fff" stop-opacity=".118"/><stop id="stop4411" offset=".194" stop-color="#fff" stop-opacity="1"/><stop id="stop4413" offset=".802" stop-color="#fff" stop-opacity=".588"/><stop id="stop4415" offset="1" stop-color="#000" stop-opacity="0"/></linearGradient><linearGradient id="linearGradient4332"><stop id="stop4334" offset="0" stop-color="#000" stop-opacity=".235"/><stop id="stop4336" offset="1" stop-color="#000" stop-opacity="0"/></linearGradient><linearGradient id="linearGradient4318"><stop id="stop4320" offset="0" stop-color="#1a1a1a" stop-opacity="1"/><stop id="stop4322" offset=".064" stop-color="#4d4d4d" stop-opacity="1"/><stop id="stop4324" offset=".194" stop-color="#fff" stop-opacity="1"/><stop id="stop4326" offset=".899" stop-color="gray" stop-opacity="1"/><stop id="stop4328" offset="1" stop-color="#4d4d4d" stop-opacity="1"/></linearGradient><linearGradient id="linearGradient4256"><stop id="stop4258" offset="0" stop-color="#000" stop-opacity=".392"/><stop id="stop4260" offset="1" stop-color="#000" stop-opacity="0"/></linearGradient><linearGradient id="linearGradient4240"><stop id="stop4242" offset="0" stop-color="#fff" stop-opacity=".392"/><stop id="stop4244" offset="1" stop-color="#fff" stop-opacity="0"/></linearGradient><linearGradient id="linearGradient4199"><stop id="stop4201" offset="0" stop-color="#1a1a1a" stop-opacity="1"/><stop id="stop4203" offset=".06" stop-color="#4d4d4d" stop-opacity="1"/><stop id="stop4205" offset=".173" stop-color="#fff" stop-opacity="1"/><stop id="stop4207" offset=".899" stop-color="gray" stop-opacity="1"/><stop id="stop4209" offset="1" stop-color="#4d4d4d" stop-opacity="1"/></linearGradient><linearGradient id="linearGradient4175"><stop id="stop4177" offset="0" stop-color="#1ecb08" stop-opacity=".996"/><stop id="stop4179" offset=".132" stop-color="#b9f177" stop-opacity="1"/><stop id="stop4181" offset=".334" stop-color="#9ae63f" stop-opacity="1"/><stop id="stop4183" offset=".615" stop-color="#41bd18" stop-opacity="1"/><stop id="stop4610" offset=".855" stop-color="#27d410" stop-opacity="1"/><stop id="stop4185" offset="1" stop-color="#2ca815" stop-opacity="1"/></linearGradient><linearGradient id="linearGradient2005"><stop id="stop2007" offset="0" stop-color="#1a1a1a" stop-opacity="1"/><stop id="stop2013" offset=".246" stop-color="#4d4d4d" stop-opacity="1"/><stop id="stop2015" offset=".637" stop-color="#fff" stop-opacity="1"/><stop id="stop2009" offset=".899" stop-color="gray" stop-opacity="1"/><stop id="stop2011" offset="1" stop-color="#4d4d4d" stop-opacity="1"/></linearGradient><linearGradient id="linearGradient3795"><stop id="stop3797" offset="0" stop-color="#24282b" stop-opacity="1"/><stop id="stop3799" offset="1" stop-color="#383c40" stop-opacity="1"/></linearGradient><linearGradient id="linearGradient3801" x1="23.204" x2="23.204" y1="1052.344" y2="1004.36" gradientTransform="translate(0,1.7382813e-5)" gradientUnits="userSpaceOnUse" xlink:href="#linearGradient3795"/><linearGradient id="linearGradient1981" x1="10.28" x2="25.454" y1="42.981" y2="42.981" gradientTransform="matrix(1.929923,0,0,1.1593881,-10.628985,993.06869)" gradientUnits="userSpaceOnUse" xlink:href="#linearGradient4318"/><linearGradient id="linearGradient2003" x1="10.43" x2="25.456" y1="25.815" y2="25.815" gradientTransform="matrix(1.9299854,0,0,0.06182354,-10.629416,1013.8424)" gradientUnits="userSpaceOnUse" xlink:href="#linearGradient4199"/><linearGradient id="linearGradient2025" x1="10.43" x2="26.961" y1="25.815" y2="25.815" gradientTransform="matrix(0.33275612,0,0,0.04636765,9.029412,1012.5152)" gradientUnits="userSpaceOnUse" xlink:href="#linearGradient2005"/><linearGradient id="linearGradient4119" x1="9.928" x2="25.456" y1="25.815" y2="25.815" gradientTransform="matrix(0.33275612,0,0,0.04636765,27.029412,1012.5152)" gradientUnits="userSpaceOnUse" xlink:href="#linearGradient2005"/><linearGradient id="linearGradient4246" x1="12.109" x2="19.976" y1="23.958" y2="23.958" gradientTransform="matrix(1,0,0,0.9763783,2,1004.745)" gradientUnits="userSpaceOnUse" xlink:href="#linearGradient4240"/><linearGradient id="linearGradient4254" x1="12.396" x2="15.159" y1="23.958" y2="23.958" gradientTransform="matrix(1,0,0,0.9763783,-2.75,1004.745)" gradientUnits="userSpaceOnUse" xlink:href="#linearGradient4256"/><linearGradient id="linearGradient4264" x1="12.396" x2="15.159" y1="23.958" y2="23.958" gradientTransform="matrix(-1,0,0,0.9763783,50.75,1004.745)" gradientUnits="userSpaceOnUse" xlink:href="#linearGradient4256"/><linearGradient id="linearGradient4338" x1="38.625" x2="34.813" y1="1026.425" y2="1026.425" gradientTransform="translate(0,-1004.3622)" gradientUnits="userSpaceOnUse" xlink:href="#linearGradient4332"/><linearGradient id="linearGradient4344" x1="38.625" x2="34.813" y1="1026.425" y2="1026.425" gradientTransform="translate(0,-1004.3622)" gradientUnits="userSpaceOnUse" xlink:href="#linearGradient4332"/><linearGradient id="linearGradient4363" x1="10.43" x2="25.456" y1="25.815" y2="25.815" gradientTransform="matrix(1.863374,0,0,0.68005987,-9.4348851,1012.7067)" gradientUnits="userSpaceOnUse" xlink:href="#linearGradient4175"/><linearGradient id="linearGradient4403" x1="9.5" x2="38.5" y1="1029.062" y2="1029.062" gradientUnits="userSpaceOnUse" xlink:href="#linearGradient4405"/><linearGradient id="linearGradient4452" x1="24.042" x2="24.042" y1="9.946" y2="10.248" gradientUnits="userSpaceOnUse" xlink:href="#linearGradient4240"/><linearGradient id="linearGradient4456" x1="24.042" x2="24.042" y1="9.946" y2="10.594" gradientTransform="matrix(1,0,0,-1,0,1053.8384)" gradientUnits="userSpaceOnUse" xlink:href="#linearGradient4256"/><radialGradient id="radialGradient4569" cx="24" cy="1028.362" r="24" fx="24" fy="1028.362" gradientUnits="userSpaceOnUse" xlink:href="#linearGradient4571"/><linearGradient id="linearGradient4595" x1="14.75" x2="16.85" y1="1013.712" y2="1013.712" gradientUnits="userSpaceOnUse" xlink:href="#linearGradient4240"/><linearGradient id="linearGradient4603" x1="32.75" x2="34.85" y1="1013.712" y2="1013.712" gradientUnits="userSpaceOnUse" xlink:href="#linearGradient4240"/></defs><metadata id="metadata7"/><g id="layer1" transform="translate(0,-1004.3622)"><rect id="rect2991" width="48" height="48" x="0" y="1004.362" fill="url(#linearGradient3801)" fill-opacity="1" stroke="none" ry="1.945"/><rect id="rect4567" width="48" height="48" x="0" y="1004.362" fill="url(#radialGradient4569)" fill-opacity="1" stroke="none" ry="1.945"/><path id="path4316" fill="#000" fill-opacity=".059" stroke="none" d="m 9.5,1015.2622 0,29.7 29,0 L 38.5,1015.2622 Z"/><path id="path4314" fill="#000" fill-opacity=".118" stroke="none" d="m 9.5,1014.8622 0,29.7 29,0 L 38.5,1014.8622 Z"/><path id="path4310" fill="#000" fill-opacity=".235" stroke="none" d="m 9.5,1014.4622 0,29.7 29,0 L 38.5,1014.4622 Z"/><path id="path4361" fill="url(#linearGradient4363)" fill-opacity="1" stroke="none" d="m 10,1019.2622 0,22 28,0 0,-22 L 10,1019.2622 Z"/><path id="path4605" fill="#b3ed70" fill-opacity="1" stroke="none" d="M 10 14.900391 L 10 15.126953 L 38 15.126953 L 38 14.900391 L 10 14.900391 z" transform="translate(0,1004.3622)"/><path id="path4159" fill="#fff" fill-opacity=".118" stroke="none" d="m 9.5,1016.3622 0,25.4 29,0 0,-25.4 L 9.5,1016.3622 Z"/><path id="path4377" fill="url(#linearGradient4403)" fill-opacity="1" stroke="none" d="m 9.5,1016.3622 0,0.5 0,24.9004 0.5,0 28.5,0 0,-0.5 0,-24.4004 0,-0.5 -0.5,0 -28,0 L 9.5,1016.3622 z m 0.5,0.5 28,0 0,24.4004 -28,0 L 10,1016.8622 Z"/><path id="rect846" fill="#000" fill-opacity="1" stroke="none" d="m 0,1049.3622 0,1.0625 c 0,1.0773 0.860222,1.9375 1.937499,1.9375 l 44.125001,0 c 1.077277,0 1.9375,-0.8602 1.9375,-1.9375 l 0,-1.0625 c 0,1.0773 -0.860223,1.9375 -1.9375,1.9375 l -44.125001,0 C 0.860222,1051.2997 0,1050.4395 0,1049.3622 Z"/><path id="path7515" fill="#fff" fill-opacity=".537" stroke="none" d="m 2.531249,1005.0185 c -0.917088,0 -1.671146,0.6395 -1.843749,1.5 0.335612,-0.2799 0.774512,-0.4375 1.249999,-0.4375 l 44.125001,0 c 0.475488,0 0.914388,0.1576 1.25,0.4375 -0.172603,-0.8605 -0.926662,-1.5 -1.84375,-1.5 L 2.531249,1005.0185 Z"/><path id="rect4280" fill="#000" fill-opacity=".392" stroke="none" d="M 1.937499,1004.3622 C 0.860223,1004.3622 0,1005.2224 0,1006.2997 l 0,43.0625 c 0,0.7934 0.480023,1.449 1.156249,1.75 -0.309341,-0.3333 -0.499999,-0.7824 -0.499999,-1.2812 l 0,-42.9375 c 0,-1.0482 0.826898,-1.875 1.874999,-1.875 l 42.937501,0 c 1.048101,0 1.875,0.8268 1.875,1.875 l 0,42.9375 c 0,0.4988 -0.190658,0.9479 -0.5,1.2812 0.676226,-0.301 1.15625,-0.9566 1.15625,-1.75 l 0,-43.0625 c 0,-1.0773 -0.860223,-1.9375 -1.9375,-1.9375 L 1.937499,1004.3622 Z"/><path id="rect4235" fill="url(#linearGradient4246)" fill-opacity="1" stroke="none" d="m 14.25,1016.4618 0,24.8004 7.75,0 0,-24.8004 L 14.25,1016.4618 Z"/><path id="path4252" fill="url(#linearGradient4254)" fill-opacity="1" stroke="none" d="m 9.5,1016.4618 0,25.3004 7.75,0 L 17.25,1016.4618 Z"/><path id="path4262" fill="url(#linearGradient4264)" fill-opacity="1" stroke="none" d="m 38.5,1016.4622 0,24.8 -7.75,0 L 30.75,1016.4622 Z"/><rect id="rect1971" width="29" height="2" x="9.5" y="1014.438" fill="url(#linearGradient2003)" fill-opacity="1" stroke="none" ry="0"/><rect id="rect2023" width="5" height="1.5" x="12.5" y="1012.962" fill="url(#linearGradient2025)" fill-opacity="1" stroke="none" ry="0"/><rect id="rect4117" width="5" height="1.5" x="30.5" y="1012.962" fill="url(#linearGradient4119)" fill-opacity="1" stroke="none" ry="0"/><path id="rect2001" fill="url(#linearGradient1981)" fill-opacity="1" stroke="none" d="m 9.5,1041.7622 0,2 29,0 0,-2 L 9.5,1041.7622 Z"/><path id="rect4330" fill="url(#linearGradient4338)" fill-opacity="1" stroke="none" d="m 33.814453,37.400391 0,2 4.685547,0 L 38.5,37.400391 Z" transform="translate(0,1004.3622)"/><path id="rect4340" fill="url(#linearGradient4344)" fill-opacity="1" stroke="none" d="m 33.814453,10.076172 0,2 4.685547,0 L 38.5,10.076172 Z" transform="translate(0,1004.3622)"/><g id="g4553" transform="translate(0,0.69999624)"><g id="g4294" fill="#fff" fill-opacity=".314" transform="matrix(0.44082836,0,0,0.44082836,16.946746,1021.7057)"><g id="g4298" fill="#fff" fill-opacity=".314"><polygon id="polygon4300" fill="#fff" fill-opacity=".314" points="8 16 14 20 0 32 24 20 18 16 32 0"/></g></g><g id="g4302" fill="#000" fill-opacity=".51" transform="matrix(0.44082836,0,0,0.44082836,16.946746,1020.9122)"><g id="g4306" fill="#000" fill-opacity=".51"><polygon id="polygon4308" fill="#000" fill-opacity=".51" points="32 0 8 16 14 20 0 32 24 20 18 16"/></g></g><g id="g4278" fill="#226216" fill-opacity="1" transform="matrix(0.44082836,0,0,0.44082836,16.946746,1021.2649)"><g id="bolt" fill="#226216" fill-opacity="1"><polygon id="polygon4270" fill="#226216" fill-opacity="1" points="14 20 0 32 24 20 18 16 32 0 8 16"/></g></g></g><path id="rect4421" fill="url(#linearGradient4452)" fill-opacity="1" stroke="none" d="M 9.5 10.076172 L 9.5 10.474609 L 38.5 10.474609 L 38.5 10.076172 L 9.5 10.076172 z" transform="translate(0,1004.3622)"/><path id="path4454" fill="url(#linearGradient4456)" fill-opacity="1" stroke="none" d="m 9.5,1043.7622 0,-0.798 29,0 L 38.5,1043.7622 Z"/><path id="rect4582" fill="url(#linearGradient4603)" fill-opacity="1" stroke="none" d="m 32.75,1012.9618 0,1.5 2.099609,0 L 34.849609,1012.9618 Z"/><path id="path4587" fill="url(#linearGradient4595)" fill-opacity="1" stroke="none" d="m 14.75,1012.9618 0,1.5 2.099608,0 0,-1.5 L 14.75,1012.9618 Z"/></g></svg>