<svg xmlns="http://www.w3.org/2000/svg" xmlns:svg="http://www.w3.org/2000/svg" xmlns:xlink="http://www.w3.org/1999/xlink" id="svg2" width="48" height="48" version="1.1"><defs id="defs4"><linearGradient id="linearGradient1001"><stop id="stop1003" offset="0" stop-color="#e4ff7e" stop-opacity="1"/><stop id="stop1005" offset="1" stop-color="#69a043" stop-opacity="1"/></linearGradient><linearGradient id="linearGradient995"><stop id="stop997" offset="0" stop-color="#ffe35c" stop-opacity="1"/><stop id="stop999" offset="1" stop-color="#fdac43" stop-opacity="1"/></linearGradient><linearGradient id="linearGradient908"><stop id="stop910" offset="0" stop-color="#adadad" stop-opacity="1"/><stop id="stop912" offset="1" stop-color="#cacaca" stop-opacity="1"/></linearGradient><linearGradient id="linearGradient893"><stop id="stop895" offset="0" stop-color="#dadada" stop-opacity="1"/><stop id="stop897" offset="1" stop-color="#e7e7e7" stop-opacity="1"/></linearGradient><linearGradient id="linearGradient885"><stop id="stop887" offset="0" stop-color="#c4d9ea" stop-opacity="1"/><stop id="stop889" offset="1" stop-color="#cfe2f1" stop-opacity="1"/></linearGradient><linearGradient id="linearGradient1239"><stop id="stop1241" offset="0" stop-color="#ff5c5c" stop-opacity="1"/><stop id="stop1243" offset="1" stop-color="#ac0000" stop-opacity="1"/></linearGradient><linearGradient id="linearGradient891" x1="9.369" x2="9.369" y1="47.956" y2=".094" gradientUnits="userSpaceOnUse" xlink:href="#linearGradient885"/><linearGradient id="linearGradient899" x1="28.107" x2="28.107" y1="-1052.362" y2="-1004.633" gradientUnits="userSpaceOnUse" xlink:href="#linearGradient893"/><linearGradient id="linearGradient905" x1="28.107" x2="28.107" y1="-1009.817" y2="-1004.633" gradientTransform="matrix(1,0,0,-1,0,-1004.3622)" gradientUnits="userSpaceOnUse" xlink:href="#linearGradient908"/><radialGradient id="radialGradient985" cx="2.585" cy="2.246" r="1.215" fx="2.585" fy="2.246" gradientUnits="userSpaceOnUse" xlink:href="#linearGradient1239"/><radialGradient id="radialGradient989" cx="2.585" cy="2.246" r="1.215" fx="2.585" fy="2.246" gradientUnits="userSpaceOnUse" xlink:href="#linearGradient995"/><radialGradient id="radialGradient993" cx="2.585" cy="2.246" r="1.215" fx="2.585" fy="2.246" gradientUnits="userSpaceOnUse" xlink:href="#linearGradient1001"/></defs><metadata id="metadata7"/><g id="layer1" transform="translate(0,-1004.3622)"><rect id="rect2991-1" width="48" height="48" x="0" y="-1052.362" fill="url(#linearGradient899)" fill-opacity="1" stroke="none" ry="1.945" transform="scale(1,-1)"/><path id="rect880" fill="url(#linearGradient891)" fill-opacity="1" stroke="none" d="M 1.9375,0 C 0.86022285,0 0,0.86022285 0,1.9375 l 0,44.125 C 0,47.139777 0.86022285,48 1.9375,48 L 12.78125,48 12.78125,0 Z" transform="translate(0,1004.3622)"/><path id="rect901" fill="url(#linearGradient905)" fill-opacity="1" stroke="none" d="M 1.9375,0 C 0.86022285,0 0,0.86022285 0,1.9375 l 0,3.5384515 48,0 L 48,1.9375 C 48,0.86022285 47.139777,0 46.0625,0 Z" transform="translate(0,1004.3622)"/><path id="rect4280" fill="#000" fill-opacity=".392" stroke="none" d="m 1.9374998,1004.3622 c -1.0772769,0 -1.937499899999999,0.8602 -1.937499899999999,1.9375 l 0,43.0625 c 0,0.7934 0.480023599999999,1.449 1.156249899999999,1.75 -0.3093416,-0.3333 -0.4999999,-0.7824 -0.4999999,-1.2812 l 0,-42.9375 c 0,-1.0482 0.8268989,-1.875 1.8749999,-1.875 l 42.9375002,0 c 1.048101,0 1.875,0.8268 1.875,1.875 l 0,42.9375 c 0,0.4988 -0.190658,0.9479 -0.5,1.2812 0.676226,-0.301 1.15625,-0.9566 1.15625,-1.75 l 0,-43.0625 c 0,-1.0773 -0.860223,-1.9375 -1.9375,-1.9375 L 1.9374998,1004.3622 Z"/><path id="rect914" fill="#e4eef7" fill-opacity="1" stroke="none" d="M 12.0625 5.46875 L 12.0625 48 L 12.4375 48 L 12.4375 5.46875 L 12.0625 5.46875 z" transform="translate(0,1004.3622)"/><path id="rect918" fill="#e4eef7" fill-opacity="1" stroke="none" d="m 0.65625,1010.2132 0,0.375 12.125,0 0,-0.375 L 0.65625,1010.2132 Z"/><path id="rect920" fill="#e4eef7" fill-opacity="1" stroke="none" d="M 0.65625 5.46875 L 0.65625 47.5 C 0.76920468 47.600005 0.89671412 47.678491 1.03125 47.75 L 1.03125 5.46875 L 0.65625 5.46875 z" transform="translate(0,1004.3622)"/><path id="rect916" fill="#9caebc" fill-opacity="1" stroke="none" d="M 12.40625 5.46875 L 12.40625 48 L 12.78125 48 L 12.78125 5.46875 L 12.40625 5.46875 z" transform="translate(0,1004.3622)"/><path id="path952" fill="#7b7b7b" fill-opacity="1" stroke="none" d="m 48,1009.8382 -47.99999976,0 0,0.375 L 48,1010.2132 48,1009.8382 Z"/><g id="g1060"><path id="path963" fill="#7b7b7b" fill-opacity="1" stroke="none" d="m 3.8006989,2.723069 a 1.2153398,1.2153398 0 1 1 -2.4306796,0 A 1.2153398,1.2153398 0 1 1 3.8006989,2.723069 Z" transform="matrix(0.80825794,0,0,0.80825794,1.0679561,1004.8992)"/><path id="path965" fill="#7b7b7b" fill-opacity="1" stroke="none" d="m 3.8006989,2.723069 a 1.2153398,1.2153398 0 1 1 -2.4306796,0 A 1.2153398,1.2153398 0 1 1 3.8006989,2.723069 Z" transform="matrix(0.80825794,0,0,0.80825794,4.3009878,1004.8992)"/><path id="path967" fill="#7b7b7b" fill-opacity="1" stroke="none" d="m 3.8006989,2.723069 a 1.2153398,1.2153398 0 1 1 -2.4306796,0 A 1.2153398,1.2153398 0 1 1 3.8006989,2.723069 Z" transform="matrix(0.80825794,0,0,0.80825794,7.5340198,1004.8992)"/><path id="path977" fill="url(#radialGradient985)" fill-opacity="1" stroke="none" d="m 3.8006989,2.723069 a 1.2153398,1.2153398 0 1 1 -2.4306796,0 A 1.2153398,1.2153398 0 1 1 3.8006989,2.723069 Z" transform="matrix(0.62183888,0,0,0.62183888,1.5499163,1005.4068)"/><path id="path987" fill="url(#radialGradient989)" fill-opacity="1" stroke="none" d="m 3.8006989,2.723069 a 1.2153398,1.2153398 0 1 1 -2.4306796,0 A 1.2153398,1.2153398 0 1 1 3.8006989,2.723069 Z" transform="matrix(0.62183888,0,0,0.62183888,4.782948,1005.4068)"/><path id="path991" fill="url(#radialGradient993)" fill-opacity="1" stroke="none" d="m 3.8006989,2.723069 a 1.2153398,1.2153398 0 1 1 -2.4306796,0 A 1.2153398,1.2153398 0 1 1 3.8006989,2.723069 Z" transform="matrix(0.62183888,0,0,0.62183888,8.01598,1005.4068)"/></g><path id="path7515" fill="#fff" fill-opacity=".537" stroke="none" d="m 2.5312497,1005.0185 c -0.9170884,0 -1.6711467,0.6395 -1.8437499,1.5 0.335612,-0.2799 0.7745121,-0.4375 1.2499999,-0.4375 l 44.1250003,0 c 0.475488,0 0.914388,0.1576 1.25,0.4375 -0.172603,-0.8605 -0.926662,-1.5 -1.84375,-1.5 L 2.5312497,1005.0185 Z"/><path id="rect846" fill="#000" fill-opacity="1" stroke="none" d="m -9.9999999e-8,1049.3622 0,1.0625 c 0,1.0773 0.860222899999999,1.9375 1.937499899999999,1.9375 l 44.1250002,0 c 1.077277,0 1.9375,-0.8602 1.9375,-1.9375 l 0,-1.0625 c 0,1.0773 -0.860223,1.9375 -1.9375,1.9375 l -44.1250002,0 C 0.8602228,1051.2997 -9.9999999e-8,1050.4395 -9.9999999e-8,1049.3622 Z"/></g></svg>