<svg xmlns="http://www.w3.org/2000/svg" xmlns:svg="http://www.w3.org/2000/svg" xmlns:xlink="http://www.w3.org/1999/xlink" id="svg2" width="48" height="48" version="1.1"><defs id="defs4"><linearGradient id="linearGradient1501"><stop id="stop1503" offset="0" stop-color="#ff0082" stop-opacity="1"/><stop id="stop1505" offset="1" stop-color="#e604fd" stop-opacity="1"/></linearGradient><linearGradient id="linearGradient1495"><stop id="stop1497" offset="0" stop-color="#0086ff" stop-opacity="1"/><stop id="stop1499" offset="1" stop-color="#04dcfd" stop-opacity="1"/></linearGradient><linearGradient id="linearGradient1489"><stop id="stop1491" offset="0" stop-color="#529c21" stop-opacity="1"/><stop id="stop1493" offset="1" stop-color="#e9fc65" stop-opacity="1"/></linearGradient><linearGradient id="linearGradient1449"><stop id="stop1451" offset="0" stop-color="#f60" stop-opacity="1"/><stop id="stop1453" offset="1" stop-color="#fdce04" stop-opacity="1"/></linearGradient><linearGradient id="linearGradient872"><stop id="stop874" offset="0" stop-color="#e3ebed" stop-opacity=".996"/><stop id="stop876" offset="1" stop-color="#f4f8f9" stop-opacity=".997"/></linearGradient><linearGradient id="linearGradient843" x1="-35.844" x2="-35.844" y1="-1057.985" y2="-1009.976" gradientTransform="translate(56.880462,5.6151809)" gradientUnits="userSpaceOnUse" xlink:href="#linearGradient872"/><linearGradient id="linearGradient4095" x1="7.898" x2="7.898" y1="33.59" y2="1.438" gradientUnits="userSpaceOnUse" xlink:href="#linearGradient1489"/><linearGradient id="linearGradient4103" x1="30.75" x2="30.75" y1="35.538" y2="8.625" gradientTransform="translate(-6.8701172e-7,1004.3622)" gradientUnits="userSpaceOnUse" xlink:href="#linearGradient1501"/><linearGradient id="linearGradient4118" x1="37.388" x2="10.518" y1="17.064" y2="17.064" gradientTransform="translate(-6.8701172e-7,1004.3622)" gradientUnits="userSpaceOnUse" xlink:href="#linearGradient1449"/><linearGradient id="linearGradient4235" x1="7.898" x2="7.898" y1="33.59" y2="1.438" gradientTransform="matrix(0.88244159,0,0,0.88244159,12.387768,1011.4953)" gradientUnits="userSpaceOnUse" xlink:href="#linearGradient1495"/></defs><metadata id="metadata7"/><g id="layer1" transform="translate(0,-1004.3622)"><rect id="rect2991-1-7" width="48" height="48" x="0" y="-1052.362" fill="url(#linearGradient843)" fill-opacity="1" stroke="none" ry="1.945" transform="scale(1,-1)"/><path id="path4137" fill="#000" fill-opacity=".059" stroke="none" d="m 28.272718,27.839727 -15.113512,8.72579 -15.1135113,-8.72579 10e-8,-17.45158 15.1135112,-8.7257897 15.113512,8.7257897 z" transform="matrix(0.88244159,0,0,0.88244159,12.387768,1012.6953)"/><path id="path4135" fill="#000" fill-opacity=".118" stroke="none" d="m 28.272718,27.839727 -15.113512,8.72579 -15.1135113,-8.72579 10e-8,-17.45158 15.1135112,-8.7257897 15.113512,8.7257897 z" transform="matrix(0.88244159,0,0,0.88244159,12.387768,1012.2953)"/><path id="path4120" fill="#000" fill-opacity=".235" stroke="none" d="m 28.272718,27.839727 -15.113512,8.72579 -15.1135113,-8.72579 10e-8,-17.45158 15.1135112,-8.7257897 15.113512,8.7257897 z" transform="matrix(0.88244159,0,0,0.88244159,12.387768,1011.8953)"/><path id="path7515-2" fill="#fff" fill-opacity=".537" stroke="none" d="m 2.5312493,1005.0185 c -0.917089,0 -1.67114699,0.6395 -1.84374999,1.5 0.33561199,-0.2799 0.77451199,-0.4375 1.24999999,-0.4375 l 44.1249997,0 c 0.475488,0 0.914388,0.1576 1.25,0.4375 -0.172603,-0.8605 -0.926662,-1.5 -1.84375,-1.5 l -42.9374997,0 z"/><path id="rect4280-3" fill="#000" fill-opacity=".392" stroke="none" d="m 1.9374993,1004.3622 c -1.07727699,0 -1.93749998701172,0.8602 -1.93749998701172,1.9375 l 0,43.0625 c 0,0.7934 0.48002299701172,1.449 1.15624998701172,1.75 -0.30934199,-0.3333 -0.49999999,-0.7824 -0.49999999,-1.2812 l 0,-42.9375 c 0,-1.0482 0.82689899,-1.875 1.87499999,-1.875 l 42.9374997,0 c 1.048101,0 1.875,0.8268 1.875,1.875 l 0,42.9375 c 0,0.4988 -0.190658,0.9479 -0.5,1.2812 0.676226,-0.301 1.15625,-0.9566 1.15625,-1.75 l 0,-43.0625 c 0,-1.0773 -0.860223,-1.9375 -1.9375,-1.9375 l -44.1249997,0 z"/><path id="rect846-7" fill="#000" fill-opacity="1" stroke="none" d="m -6.8701172e-7,1049.3622 0,1.0625 c 0,1.0773 0.86022299701172,1.9375 1.93749998701172,1.9375 l 44.1249997,0 c 1.077277,0 1.9375,-0.8602 1.9375,-1.9375 l 0,-1.0625 c 0,1.0773 -0.860223,1.9375 -1.9375,1.9375 l -44.1249997,0 c -1.07727699,0 -1.93749998701172,-0.8602 -1.93749998701172,-1.9375 z"/><path id="path4045" fill="url(#linearGradient4095)" fill-opacity="1" stroke="none" d="m 28.272718,27.839727 -15.113512,8.72579 -15.1135113,-8.72579 10e-8,-17.45158 15.1135112,-8.7257897 15.113512,8.7257897 z" transform="matrix(0.88244159,0,0,0.88244159,12.387768,1011.4953)"/><path id="path4233" fill="url(#linearGradient4235)" fill-opacity="1" stroke="none" d="m 24.00087,1012.963 -12.056641,6.959 0.595704,-0.086 13.140625,7.5879 -14.990235,8.6543 13.310547,7.6836 13.335938,-7.6993 0,-15.4004 -13.335938,-7.6992 z"/><path id="path4047" fill="url(#linearGradient4103)" fill-opacity="1" stroke="none" d="m 23.999999,1012.9618 0,30.8008 13.335938,-7.7012 0,-15.3984 -13.335938,-7.7012 z"/><path id="path4063" fill="url(#linearGradient4118)" fill-opacity="1" stroke="none" d="m 23.999999,1012.9618 -13.337891,7.7012 13.337891,7.6992 13.335938,-7.6973 0,0 -13.335938,-7.7011 z"/><path id="path4054" fill="#fff" fill-opacity=".235" stroke="none" d="m 23.999999,1012.9618 13.335938,7.7012 0.002,0 -13.337938,-7.7012 z"/><path id="path4139" fill="#000" fill-opacity=".314" stroke="none" d="m 10.664061,1035.2626 0,0.7988 13.335938,7.7012 13.335938,-7.7012 0,-0.7988 -13.335938,7.6992 -13.335938,-7.6992 z"/><path id="path4144" fill="#fff" fill-opacity=".235" stroke="none" d="m 23.999999,1012.9618 -13.337891,7.7012 0.347657,0.1992 12.990234,-7.5 12.988281,7.502 0.347657,-0.1993 0,0 -13.335938,-7.7011 z"/><path id="path1878" fill="#000" fill-opacity=".537" stroke="none" d="m 24,1012.3622 c -0.634356,0 -1.148438,0.5141 -1.148438,1.1484 10e-7,0.6344 0.514082,1.1485 1.148438,1.1485 0.634356,0 1.148438,-0.5141 1.148438,-1.1485 -10e-7,-0.6343 -0.514082,-1.1484 -1.148438,-1.1484 z m -12.994141,7.4258 c -0.634356,0 -1.1503901,0.5141 -1.1503901,1.1484 0,0.6344 0.5160341,1.1485 1.1503901,1.1485 0.634357,0 1.148438,-0.5141 1.148438,-1.1485 0,-0.6343 -0.514081,-1.1484 -1.148438,-1.1484 z m 25.988282,0 c -0.634357,0 -1.148438,0.5141 -1.148438,1.1484 0,0.6344 0.514081,1.1485 1.148438,1.1485 0.634356,0 1.15039,-0.5141 1.15039,-1.1485 0,-0.6343 -0.516034,-1.1484 -1.15039,-1.1484 z M 24,1027.2138 c -0.634356,0 -1.148438,0.514 -1.148438,1.1484 10e-7,0.6344 0.514082,1.1484 1.148438,1.1484 0.634356,0 1.148438,-0.514 1.148438,-1.1484 -10e-7,-0.6344 -0.514082,-1.1484 -1.148438,-1.1484 z m -12.994141,7.4257 c -0.634356,0 -1.1503901,0.5141 -1.1503901,1.1485 0,0.6343 0.5160341,1.1484 1.1503901,1.1484 0.634357,0 1.148438,-0.5141 1.148438,-1.1484 0,-0.6344 -0.514081,-1.1485 -1.148438,-1.1485 z m 25.988282,0 c -0.634357,0 -1.148438,0.5141 -1.148438,1.1485 0,0.6343 0.514081,1.1484 1.148438,1.1484 0.634356,0 1.15039,-0.5141 1.15039,-1.1484 0,-0.6344 -0.516034,-1.1485 -1.15039,-1.1485 z M 24,1042.0653 c -0.634356,0 -1.148438,0.5141 -1.148438,1.1485 10e-7,0.6343 0.514082,1.1484 1.148438,1.1484 0.634356,0 1.148438,-0.5141 1.148438,-1.1484 -10e-7,-0.6344 -0.514082,-1.1485 -1.148438,-1.1485 z"/></g></svg>