<svg xmlns="http://www.w3.org/2000/svg" xmlns:svg="http://www.w3.org/2000/svg" xmlns:xlink="http://www.w3.org/1999/xlink" id="svg2" width="48" height="48" version="1.1"><defs id="defs4"><linearGradient id="linearGradient872"><stop id="stop874" offset="0" stop-color="#000" stop-opacity="1"/><stop id="stop876" offset="1" stop-color="#1a1a1a" stop-opacity="1"/></linearGradient><linearGradient id="linearGradient1104" x1="42.25" x2="42.25" y1="43.541" y2="23.879" gradientTransform="matrix(1.0174907,0,0,1.0174907,-0.83955234,1002.0378)" gradientUnits="userSpaceOnUse" xlink:href="#linearGradient853"/><linearGradient id="linearGradient858" x1=".915" x2="29.147" y1="1014.087" y2="1014.087" gradientTransform="matrix(1.0969724,0,0,1.0969724,-1.3878894,-100.97501)" gradientUnits="userSpaceOnUse" xlink:href="#linearGradient6390"/><linearGradient id="linearGradient4192"><stop id="stop4194" offset="0" stop-color="#257b0c" stop-opacity="1"/><stop id="stop4196" offset="1" stop-color="#93e62f" stop-opacity="1"/></linearGradient><linearGradient id="linearGradient853"><stop id="stop855" offset="0" stop-color="#36b512" stop-opacity="1"/><stop id="stop857" offset="1" stop-color="#93e62f" stop-opacity="1"/></linearGradient><linearGradient id="linearGradient4441" x1="0" x2="48" y1="1047.547" y2="1047.547" gradientTransform="matrix(1,0,0,1.017294,0,-18.19955)" gradientUnits="userSpaceOnUse" xlink:href="#linearGradient4192"/><linearGradient id="linearGradient1626" x1="23.375" x2="23.375" y1="-1052.366" y2="-1004.362" gradientTransform="translate(-1.5527344e-6,3.6671875e-5)" gradientUnits="userSpaceOnUse" xlink:href="#linearGradient872"/><linearGradient id="linearGradient6390"><stop id="stop6392" offset="0" stop-color="#fff" stop-opacity="1"/><stop id="stop6414" offset=".104" stop-color="#29282b" stop-opacity="1"/><stop id="stop6416" offset=".261" stop-color="#868c95" stop-opacity="1"/><stop id="stop6418" offset=".395" stop-color="#92979f" stop-opacity="1"/><stop id="stop6420" offset=".543" stop-color="#737881" stop-opacity="1"/><stop id="stop6422" offset=".626" stop-color="#70757e" stop-opacity="1"/><stop id="stop6424" offset=".721" stop-color="#e4e6e8" stop-opacity="1"/><stop id="stop6426" offset=".795" stop-color="#fff" stop-opacity="1"/><stop id="stop6394" offset="1" stop-color="#1d191a" stop-opacity="1"/></linearGradient></defs><metadata id="metadata7"/><g id="layer1" transform="translate(0,-1004.3622)"><rect id="rect2991-1-4" width="48" height="48" x="0" y="-1052.362" fill="url(#linearGradient1626)" fill-opacity="1" stroke="none" ry="1.945" transform="scale(1,-1)"/><path id="path4103" fill="#fff" fill-opacity=".059" stroke="none" d="M 1.9453125 0 C 1.7710591 0 1.6038417 0.029664533 1.4433594 0.072265625 L 0.072265625 1.4433594 C 0.029664533 1.6038417 0 1.7710591 0 1.9453125 L 0 2.578125 L 2.578125 0 L 1.9453125 0 z M 3.515625 0 L 0 3.515625 L 0 4.578125 L 4.578125 0 L 3.515625 0 z M 5.515625 0 L 0 5.515625 L 0 6.578125 L 6.578125 0 L 5.515625 0 z M 7.515625 0 L 0 7.515625 L 0 8.578125 L 8.578125 0 L 7.515625 0 z M 9.515625 0 L 0 9.515625 L 0 10.578125 L 10.578125 0 L 9.515625 0 z M 11.515625 0 L 0 11.515625 L 0 12.578125 L 12.578125 0 L 11.515625 0 z M 13.515625 0 L 0 13.515625 L 0 14.578125 L 14.578125 0 L 13.515625 0 z M 15.515625 0 L 0 15.515625 L 0 16.578125 L 16.578125 0 L 15.515625 0 z M 17.515625 0 L 0 17.515625 L 0 18.578125 L 18.578125 0 L 17.515625 0 z M 19.515625 0 L 0 19.515625 L 0 20.578125 L 20.578125 0 L 19.515625 0 z M 21.515625 0 L 0 21.515625 L 0 22.578125 L 22.578125 0 L 21.515625 0 z M 23.515625 0 L 0 23.515625 L 0 24.576172 L 24.578125 0 L 23.515625 0 z M 25.515625 0 L 0 25.513672 L 0 26.576172 L 26.578125 0 L 25.515625 0 z M 27.515625 0 L 0 27.513672 L 0 28.576172 L 28.578125 0 L 27.515625 0 z M 29.515625 0 L 0 29.513672 L 0 30.576172 L 30.578125 0 L 29.515625 0 z M 31.515625 0 L 0 31.513672 L 0 32.576172 L 32.578125 0 L 31.515625 0 z M 33.515625 0 L 0 33.513672 L 0 34.576172 L 34.578125 0 L 33.515625 0 z M 35.515625 0 L 0 35.513672 L 0 36.576172 L 36.578125 0 L 35.515625 0 z M 37.515625 0 L 0 37.513672 L 0 38.576172 L 38.578125 0 L 37.515625 0 z M 39.515625 0 L 0 39.513672 L 0 40.576172 L 40.578125 0 L 39.515625 0 z M 41.515625 0 L 0 41.513672 L 0 42.576172 L 42.578125 0 L 41.515625 0 z M 43.515625 0 L 0 43.513672 L 0 44.576172 L 44.578125 0 L 43.515625 0 z M 45.515625 0 L 0 45.513672 L 0 46.054688 C 0 46.213923 0.024772122 46.367689 0.060546875 46.515625 L 46.517578 0.060546875 C 46.369087 0.024485173 46.21458 0 46.054688 0 L 45.515625 0 z M 47.166016 0.34960938 L 0.34960938 47.164062 C 0.49443112 47.3726 0.67694471 47.549712 0.890625 47.6875 L 47.6875 0.890625 C 47.549986 0.67737022 47.374019 0.49430108 47.166016 0.34960938 z M 47.960938 1.5546875 L 1.5527344 47.960938 C 1.6789703 47.98651 1.811313 48 1.9453125 48 L 2.5761719 48 L 48 2.578125 L 48 1.9453125 C 48 1.8119732 47.986264 1.6803457 47.960938 1.5546875 z M 48 3.515625 L 3.5136719 48 L 4.5761719 48 L 48 4.578125 L 48 3.515625 z M 48 5.515625 L 5.5136719 48 L 6.5761719 48 L 48 6.578125 L 48 5.515625 z M 48 7.515625 L 7.5136719 48 L 8.5761719 48 L 48 8.578125 L 48 7.515625 z M 48 9.515625 L 9.5136719 48 L 10.576172 48 L 48 10.578125 L 48 9.515625 z M 48 11.515625 L 11.513672 48 L 12.576172 48 L 48 12.578125 L 48 11.515625 z M 48 13.515625 L 13.513672 48 L 14.576172 48 L 48 14.578125 L 48 13.515625 z M 48 15.515625 L 15.513672 48 L 16.576172 48 L 48 16.578125 L 48 15.515625 z M 48 17.515625 L 17.513672 48 L 18.576172 48 L 48 18.578125 L 48 17.515625 z M 48 19.515625 L 19.513672 48 L 20.576172 48 L 48 20.578125 L 48 19.515625 z M 48 21.515625 L 21.513672 48 L 22.576172 48 L 48 22.578125 L 48 21.515625 z M 48 23.515625 L 23.513672 48 L 24.576172 48 L 48 24.576172 L 48 23.515625 z M 48 25.513672 L 25.513672 48 L 26.576172 48 L 48 26.576172 L 48 25.513672 z M 48 27.513672 L 27.513672 48 L 28.576172 48 L 48 28.576172 L 48 27.513672 z M 48 29.513672 L 29.513672 48 L 30.576172 48 L 48 30.576172 L 48 29.513672 z M 48 31.513672 L 31.513672 48 L 32.576172 48 L 48 32.576172 L 48 31.513672 z M 48 33.513672 L 33.513672 48 L 34.576172 48 L 48 34.576172 L 48 33.513672 z M 48 35.513672 L 35.513672 48 L 36.576172 48 L 48 36.576172 L 48 35.513672 z M 48 37.513672 L 37.513672 48 L 38.576172 48 L 48 38.576172 L 48 37.513672 z M 48 39.513672 L 39.513672 48 L 40.576172 48 L 48 40.576172 L 48 39.513672 z M 48 41.513672 L 41.513672 48 L 42.576172 48 L 48 42.576172 L 48 41.513672 z M 48 43.513672 L 43.513672 48 L 44.576172 48 L 48 44.576172 L 48 43.513672 z M 48 45.513672 L 45.513672 48 L 46.054688 48 C 46.27789 48 46.490128 47.955333 46.689453 47.886719 L 47.886719 46.689453 C 47.955333 46.490128 48 46.27789 48 46.054688 L 48 45.513672 z" transform="translate(0,1004.3622)"/><path id="path4316" fill="#000" fill-opacity="1" fill-rule="nonzero" stroke="none" d="m 26.701116,1008.6849 0.85341,2.3353 -1.733816,0 0.880406,-2.3353 z m -0.914601,-0.9095 -1.967265,4.9849 1.389126,0 0.311352,-0.8811 2.328153,0 0.294725,0.8811 1.508252,0 -1.98235,-4.9854 -1.881993,5e-4 z m -3.949528,4.9866 1.40918,0 0,-4.9882 -1.409523,-2e-4 3.43e-4,4.9885 z m -9.78525,-4.9884 -1.175819,3.9537 -1.12671,-3.9535 -1.5208491,-2e-4 1.6091211,4.9884 2.030599,0 1.621634,-4.9884 -1.437976,0 z m 5.697314,1.0862 0.60582,0 c 0.878778,0 1.447146,0.3947 1.447146,1.4185 0,1.0243 -0.568368,1.419 -1.447146,1.419 l -0.60582,0 0,-2.8375 z m -1.397441,-1.0862 0,4.9884 2.285131,0 c 1.217554,0 1.614864,-0.2026 2.044568,-0.6564 0.303811,-0.3187 0.500151,-1.0185 0.500151,-1.783 0,-0.7011 -0.16626,-1.3267 -0.456015,-1.7162 -0.522005,-0.6967 -1.273944,-0.8328 -2.396542,-0.8328 l -1.977293,0 z M 3,1007.7626 l 0,4.9953 1.4213493,0 0,-3.793 1.1011737,0 c 0.3647433,0 0.6245887,0.091 0.8003598,0.2782 0.2228226,0.2375 0.3137528,0.6204 0.3137528,1.321 l 0,2.1935 1.3772137,0 0,-2.76 c 0,-1.9698 -1.2556056,-2.2354 -2.4839568,-2.2354 L 3,1007.7666 Z m 11.083107,0.011 5.21e-4,4.9886 1.408837,0 0,-4.9885 -1.409358,-2e-4 z"/><path id="path22" fill="url(#linearGradient858)" fill-opacity="1" fill-rule="nonzero" stroke="none" d="m 26.701116,1008.2849 0.85341,2.3353 -1.733816,0 0.880406,-2.3353 z m -0.914601,-0.9095 -1.967265,4.9849 1.389126,0 0.311352,-0.8811 2.328153,0 0.294725,0.8811 1.508252,0 -1.98235,-4.9854 -1.881993,5e-4 z m -3.949528,4.9866 1.40918,0 0,-4.9882 -1.409523,-2e-4 3.43e-4,4.9885 z m -9.78525,-4.9884 -1.175819,3.9537 -1.12671,-3.9535 -1.5208491,-2e-4 1.6091211,4.9884 2.030599,0 1.621634,-4.9884 -1.437976,0 z m 5.697314,1.0862 0.60582,0 c 0.878778,0 1.447146,0.3947 1.447146,1.4185 0,1.0243 -0.568368,1.419 -1.447146,1.419 l -0.60582,0 0,-2.8375 z m -1.397441,-1.0862 0,4.9884 2.285131,0 c 1.217554,0 1.614864,-0.2026 2.044568,-0.6564 0.303811,-0.3187 0.500151,-1.0185 0.500151,-1.783 0,-0.7011 -0.16626,-1.3267 -0.456015,-1.7162 -0.522005,-0.6967 -1.273944,-0.8328 -2.396542,-0.8328 l -1.977293,0 z M 3,1007.3626 l 0,4.9953 1.4213493,0 0,-3.793 1.1011737,0 c 0.3647433,0 0.6245887,0.091 0.8003598,0.2782 0.2228226,0.2375 0.3137528,0.6204 0.3137528,1.321 l 0,2.1935 1.3772137,0 0,-2.76 c 0,-1.9698 -1.2556056,-2.2354 -2.4839568,-2.2354 L 3,1007.3666 Z m 11.083107,0.011 5.21e-4,4.9886 1.408837,0 0,-4.9885 -1.409358,-2e-4 z"/><path id="rect1042" fill="url(#linearGradient4441)" fill-opacity="1" stroke="none" d="m 0,1045.3622 0,5.029 c 0,1.0959 0.86022285,1.971 1.9375,1.971 l 44.125,0 c 1.077277,0 1.9375,-1.4851 1.9375,-2.5811 l 0,-4.4188 c -16,-2e-4 -32,3e-4 -48,-10e-5 z"/><path id="path4312" fill="#000" fill-opacity="1" fill-rule="nonzero" stroke="none" d="m 48,1026.7622 c -12.446543,0.2339 -23.815641,6.6137 -23.815641,6.6137 0,0 0.474749,6.3641 3.847387,13.3863 l 5.914164,0 c -2.42719,-5.5797 -2.639116,-10.6837 -2.639116,-10.6837 0,0 6.580931,-5.6556 16.693206,-5.8187 z m -0.317966,8.0127 c -6.513778,0.345 -11.033414,3.2433 -11.033414,3.2433 0,0 -0.0015,4.261 2.130371,8.744 l 5.055656,0 c -1.521129,-3.2838 -1.558032,-6.5182 -1.558032,-6.5182 0,0 2.590953,-1.7997 5.723385,-2.035 l 0,-3.4341 c -0.105362,0 -0.213623,-0.01 -0.317966,0 z"/><path id="path24" fill="url(#linearGradient1104)" fill-opacity="1" fill-rule="nonzero" stroke="none" d="m 48,1026.3622 c -12.446543,0.2339 -23.815641,6.6137 -23.815641,6.6137 0,0 0.474749,6.3641 3.847387,13.3863 l 5.914164,0 c -2.42719,-5.5797 -2.639116,-10.6837 -2.639116,-10.6837 0,0 6.580931,-5.6556 16.693206,-5.8187 z m -0.317966,8.0127 c -6.513778,0.345 -11.033414,3.2433 -11.033414,3.2433 0,0 -0.0015,4.261 2.130371,8.744 l 5.055656,0 c -1.521129,-3.2838 -1.558032,-6.5182 -1.558032,-6.5182 0,0 2.590953,-1.7997 5.723385,-2.035 l 0,-3.4341 c -0.105362,0 -0.213623,-0.01 -0.317966,0 z"/><path id="rect846" fill="#000" fill-opacity="1" stroke="none" d="m -8.8191987e-8,1049.3622 0,1.0625 c 0,1.0773 0.860222898191987,1.9375 1.937499888191987,1.9375 l 44.1250002,0 c 1.077277,0 1.9375,-0.8602 1.9375,-1.9375 l 0,-1.0625 c 0,1.0773 -0.860223,1.9375 -1.9375,1.9375 l -44.1250002,0 C 0.86022281,1051.2997 -8.8191987e-8,1050.4395 -8.8191987e-8,1049.3622 Z"/><path id="rect4280" fill="#000" fill-opacity=".392" stroke="none" d="m 1.9374998,1004.3622 c -1.07727689,0 -1.937499888191987,0.8602 -1.937499888191987,1.9375 l 0,43.0625 c 0,0.7934 0.480023598191987,1.449 1.156249888191987,1.75 -0.30934159,-0.3333 -0.49999989,-0.7824 -0.49999989,-1.2812 l 0,-42.9375 c 0,-1.0482 0.82689889,-1.875 1.87499989,-1.875 l 42.9375002,0 c 1.048101,0 1.875,0.8268 1.875,1.875 l 0,42.9375 c 0,0.4988 -0.190658,0.9479 -0.5,1.2812 0.676226,-0.301 1.15625,-0.9566 1.15625,-1.75 l 0,-43.0625 c 0,-1.0773 -0.860223,-1.9375 -1.9375,-1.9375 L 1.9374998,1004.3622 Z"/><path id="path7515" fill="#fff" fill-opacity=".537" stroke="none" d="m 2.5312498,1005.0185 c -0.9170884,0 -1.67114669,0.6395 -1.84374989,1.5 0.33561199,-0.2799 0.77451209,-0.4375 1.24999989,-0.4375 l 44.1250002,0 c 0.475488,0 0.914388,0.1576 1.25,0.4375 -0.172603,-0.8605 -0.926662,-1.5 -1.84375,-1.5 L 2.5312498,1005.0185 Z"/></g></svg>