<svg xmlns="http://www.w3.org/2000/svg" xmlns:svg="http://www.w3.org/2000/svg" xmlns:xlink="http://www.w3.org/1999/xlink" id="svg2" width="48" height="48" version="1.1"><defs id="defs4"><linearGradient id="linearGradient1420"><stop id="stop1422" offset="0" stop-color="#3379be" stop-opacity="1"/><stop id="stop1424" offset="1" stop-color="#5594d1" stop-opacity="1"/></linearGradient><linearGradient id="linearGradient1426" x1="26.5" x2="26.5" y1="-1052.406" y2="-1004.487" gradientUnits="userSpaceOnUse" xlink:href="#linearGradient1420"/></defs><metadata id="metadata7"/><g id="layer1" transform="translate(0,-1004.3622)"><rect id="rect2991-1-7" width="48" height="48" x="0" y="-1052.362" fill="url(#linearGradient1426)" fill-opacity="1" stroke="none" ry="1.945" transform="scale(1,-1)"/><path font-stretch="normal" style="line-height:125%;-inkscape-font-specification:Helvetica Black Hollow Bold Italic" id="path1503" fill="#fff" fill-opacity=".369" stroke="none" d="m 14.03125,1022.6435 c -0.07231,0 -0.104341,0.023 -0.125,0.094 l -4,11.1563 0,0.031 c -0.010225,0.03 -0.020684,0.063 0,0.094 0.030999,0.041 0.073321,0.062 0.125,0.062 l 3.59375,0.031 c 0.07856,-0.018 0.133701,-0.07 0.15625,-0.125 l 0.375,-1.375 3.40625,0 0.40625,1.375 c 0.02069,0.06 0.07361,0.094 0.15625,0.094 l 3.625,0.031 c 0.05164,-0.015 0.104326,-0.052 0.125,-0.094 0.031,-0.03 0.04156,-0.063 0.03125,-0.094 l 0,-0.031 -4,-11.1563 c -0.02069,-0.071 -0.08396,-0.094 -0.15625,-0.094 L 14.03125,1022.6435 z m 1.84375,3.3125 c 0.03099,0 0.0627,0.01 0.09375,0.031 0.03097,0.023 0.05227,0.04 0.0625,0.094 l 1.15625,4.0312 c 0.02063,0.051 0.01006,0.083 -0.03125,0.125 -0.031,0.041 -0.04212,0.062 -0.09375,0.062 l -2.3125,0 c -0.123957,0 -0.17693,-0.052 -0.15625,-0.1875 l 1.125,-4.0312 c 0.01032,-0.053 0.0315,-0.076 0.0625,-0.094 C 15.81225,1025.9622 15.844,1025.956 15.875,1025.956 Z" font-family="Helvetica Black Hollow" font-size="40" font-style="italic" font-variant="normal" font-weight="bold" letter-spacing="0" word-spacing="0"/><path font-stretch="normal" style="line-height:125%;-inkscape-font-specification:Helvetica Black Hollow Bold Italic" id="path1501" fill="#fff" fill-opacity=".369" stroke="none" d="m 22.71875,1022.6435 c -0.0581,0.018 -0.0625,0.047 -0.0625,0.125 l 0,11.1562 c 0,0.095 0.05292,0.1563 0.15625,0.1563 l 3.65625,0.031 c 0.103318,-0.015 0.15625,-0.066 0.15625,-0.1562 l 0,-3.3438 1.65625,0 c 1.570131,0 2.767367,-0.3288 3.59375,-1.0312 l 0,-0.031 c 0.795398,-0.7334 1.21875,-1.7293 1.21875,-3 0,-1.2291 -0.434206,-2.1828 -1.28125,-2.875 -0.816056,-0.6919 -2.013548,-1.0312 -3.625,-1.0312 l -5.375,0 C 22.786678,1022.6426 22.738119,1022.6368 22.71875,1022.6435 z m 3.75,2.5625 1.03125,0 0.15625,0 c 0.06198,0 0.12549,0.01 0.1875,0.031 0.062,0 0.10463,0.01 0.15625,0.031 0.062,0 0.13588,-0.025 0.1875,0 0.247916,0.02 0.459978,0.1174 0.65625,0.2187 0.227258,0.083 0.396957,0.1901 0.53125,0.375 0.08263,0.092 0.1565,0.1985 0.1875,0.3125 0.03092,0.1134 0.03125,0.2619 0.03125,0.4063 0,0.4954 -0.158857,0.8455 -0.46875,1.0937 -0.144617,0.1244 -0.303727,0.2283 -0.5,0.2813 -0.196265,0.046 -0.418666,0.062 -0.65625,0.062 l -1.5,0 c -0.103318,0 -0.15625,-0.055 -0.15625,-0.1563 l 0,-2.4687 c 0,-0.076 0.0044,-0.1313 0.0625,-0.1563 C 26.394369,1025.2306 26.442927,1025.2433 26.46875,1025.206 Z" font-family="Helvetica Black Hollow" font-size="40" font-style="italic" font-variant="normal" font-weight="bold" letter-spacing="0" word-spacing="0"/><path font-stretch="normal" style="line-height:125%;-inkscape-font-specification:Helvetica Black Hollow Bold Italic" id="path1499" fill="#fff" fill-opacity=".369" stroke="none" d="m 34.225965,1022.631 c -0.0581,0.018 -0.09685,0.068 -0.09685,0.1456 l 0,11.161 c 0,0.095 0.05409,0.1456 0.157368,0.1456 l 3.655788,0.015 c 0.103318,-0.015 0.157368,-0.067 0.157368,-0.1574 l 0,-11.1611 c 0,-0.1022 -0.0541,-0.1456 -0.157368,-0.1456 l -3.655788,0 C 34.260666,1022.631 34.245335,1022.6244 34.225965,1022.631 Z" font-family="Helvetica Black Hollow" font-size="40" font-style="italic" font-variant="normal" font-weight="bold" letter-spacing="0" word-spacing="0"/><path id="rect846" fill="#000" fill-opacity="1" stroke="none" d="m -5.761023e-6,1049.3622 0,1.0625 c 0,1.0773 0.860220001023,1.9375 1.937499961023,1.9375 l 44.1249998,0 c 1.07728,0 1.9375,-0.8602 1.9375,-1.9375 l 0,-1.0625 c 0,1.0773 -0.86022,1.9375 -1.9375,1.9375 l -44.1249998,0 C 0.86021424,1051.2997 -5.761023e-6,1050.4395 -5.761023e-6,1049.3622 Z"/><path id="path7515" fill="#fff" fill-opacity=".537" stroke="none" d="m 2.5312442,1005.0185 c -0.91709,0 -1.67114996,0.6395 -1.84374996,1.5 0.33560996,-0.2799 0.77450996,-0.4375 1.24999996,-0.4375 l 44.1249998,0 c 0.47549,0 0.91439,0.1576 1.25,0.4375 -0.1726,-0.8605 -0.92666,-1.5 -1.84375,-1.5 L 2.5312442,1005.0185 Z"/><path id="rect4280" fill="#000" fill-opacity=".392" stroke="none" d="m 1.9374942,1004.3622 c -1.07727996,0 -1.937499961023,0.8602 -1.937499961023,1.9375 l 0,43.0625 c 0,0.7934 0.480020001023,1.449 1.156249961023,1.75 -0.30933996,-0.3333 -0.49999996,-0.7824 -0.49999996,-1.2812 l 0,-42.9375 c 0,-1.0482 0.82689996,-1.875 1.87499996,-1.875 l 42.9374998,0 c 1.0481,0 1.875,0.8268 1.875,1.875 l 0,42.9375 c 0,0.4988 -0.19066,0.9479 -0.5,1.2812 0.67623,-0.301 1.15625,-0.9566 1.15625,-1.75 l 0,-43.0625 c 0,-1.0773 -0.86022,-1.9375 -1.9375,-1.9375 L 1.9374942,1004.3622 Z"/><rect id="rect1428" width=".555" height="42" x="6.392" y="1007.362" fill="#fff" fill-opacity=".537" stroke="none" ry=".057"/><rect id="rect1430" width=".555" height="42" x="41.053" y="1007.362" fill="#fff" fill-opacity=".537" stroke="none" ry=".057"/><rect id="rect1432" width=".555" height="42" x="1010.754" y="-45" fill="#fff" fill-opacity=".537" stroke="none" ry=".057" transform="matrix(0,1,-1,0,0,0)"/><rect id="rect1434" width=".555" height="42" x="1045.415" y="-45" fill="#fff" fill-opacity=".537" stroke="none" ry=".057" transform="matrix(0,1,-1,0,0,0)"/><rect id="rect1436" width=".378" height="34.625" x="25.811" y="1011.05" fill="#fff" fill-opacity=".196" stroke="none" ry=".047"/><rect id="rect1438" width=".378" height="34.625" x="21.811" y="1011.05" fill="#fff" fill-opacity=".196" stroke="none" ry=".047"/><rect id="rect1440" width=".378" height="34.625" x="17.811" y="1011.05" fill="#fff" fill-opacity=".196" stroke="none" ry=".047"/><rect id="rect1442" width=".378" height="34.625" x="13.811" y="1011.05" fill="#fff" fill-opacity=".196" stroke="none" ry=".047"/><rect id="rect1444" width=".378" height="34.625" x="9.811" y="1011.05" fill="#fff" fill-opacity=".196" stroke="none" ry=".047"/><rect id="rect1446" width=".378" height="34.625" x="29.811" y="1011.05" fill="#fff" fill-opacity=".196" stroke="none" ry=".047"/><rect id="rect1448" width=".378" height="34.625" x="33.811" y="1011.05" fill="#fff" fill-opacity=".196" stroke="none" ry=".047"/><rect id="rect1450" width=".378" height="34.625" x="37.811" y="1011.05" fill="#fff" fill-opacity=".196" stroke="none" ry=".047"/><rect id="rect1452" width=".378" height="34.625" x="1030.173" y="-41.313" fill="#fff" fill-opacity=".196" stroke="none" ry=".047" transform="matrix(0,1,-1,0,0,0)"/><rect id="rect1454" width=".378" height="34.625" x="1026.173" y="-41.313" fill="#fff" fill-opacity=".196" stroke="none" ry=".047" transform="matrix(0,1,-1,0,0,0)"/><rect id="rect1456" width=".378" height="34.625" x="1022.173" y="-41.313" fill="#fff" fill-opacity=".196" stroke="none" ry=".047" transform="matrix(0,1,-1,0,0,0)"/><rect id="rect1458" width=".378" height="34.625" x="1018.173" y="-41.313" fill="#fff" fill-opacity=".196" stroke="none" ry=".047" transform="matrix(0,1,-1,0,0,0)"/><rect id="rect1460" width=".378" height="34.625" x="1014.173" y="-41.313" fill="#fff" fill-opacity=".196" stroke="none" ry=".047" transform="matrix(0,1,-1,0,0,0)"/><rect id="rect1462" width=".378" height="34.625" x="1034.173" y="-41.313" fill="#fff" fill-opacity=".196" stroke="none" ry=".047" transform="matrix(0,1,-1,0,0,0)"/><rect id="rect1464" width=".378" height="34.625" x="1038.173" y="-41.313" fill="#fff" fill-opacity=".196" stroke="none" ry=".047" transform="matrix(0,1,-1,0,0,0)"/><rect id="rect1466" width=".378" height="34.625" x="1042.173" y="-41.313" fill="#fff" fill-opacity=".196" stroke="none" ry=".047" transform="matrix(0,1,-1,0,0,0)"/><path font-stretch="normal" style="line-height:125%;-inkscape-font-specification:Helvetica Black Hollow Bold Italic" id="path1473" fill="#fff" fill-opacity=".639" stroke="none" d="m 14.034399,1022.631 c -0.07231,0 -0.112497,0.039 -0.133156,0.1094 l -3.9947336,11.1491 0,0.039 c -0.010225,0.03 -0.0085,0.054 0.012184,0.085 0.030999,0.041 0.069392,0.072 0.1210706,0.072 l 3.583156,0.015 c 0.07856,-0.018 0.134818,-0.054 0.157367,-0.1094 l 0,-0.015 0.38737,-1.356 3.389469,0 0.399477,1.3678 c 0.02069,0.06 0.07473,0.097 0.157367,0.097 l 3.643682,0.015 c 0.05164,-0.015 0.08828,-0.043 0.108954,-0.085 0.031,-0.03 0.03454,-0.054 0.02423,-0.085 l 0,-0.039 -3.994734,-11.1488 C 17.875412,1022.6711 17.835232,1022.6325 17.762946,1022.6325 z m 8.691573,0 c -0.0581,0.018 -0.08474,0.068 -0.08474,0.1456 l 0,11.161 c 0,0.095 0.05404,0.1456 0.157369,0.1456 l 3.655787,0.015 c 0.103318,-0.015 0.157367,-0.067 0.157367,-0.1574 l 0,-3.3168 1.682633,0 c 1.570131,0 2.768876,-0.3508 3.595259,-1.0532 l 0,-0.015 c 0.795398,-0.7334 1.198422,-1.7434 1.198422,-3.0141 0,-1.2291 -0.424008,-2.189 -1.271052,-2.8812 -0.816056,-0.6919 -2.032231,-1.0287 -3.643683,-1.0287 l -5.374733,0 C 22.772779,1022.631 22.745341,1022.6244 22.725972,1022.631 z m 11.499993,0 c -0.0581,0.018 -0.09685,0.068 -0.09685,0.1456 l 0,11.161 c 0,0.095 0.05409,0.1456 0.157368,0.1456 l 3.655788,0.015 c 0.103318,-0.015 0.157368,-0.067 0.157368,-0.1574 l 0,-11.1611 c 0,-0.1022 -0.0541,-0.1456 -0.157368,-0.1456 l -3.655788,0 C 34.260666,1022.631 34.245335,1022.6244 34.225965,1022.631 z m -20.094724,0.3026 3.534735,0 3.87368,10.8462 -3.304734,0 -0.399475,-1.3557 c -0.02063,-0.072 -0.07473,-0.1094 -0.157368,-0.1094 l -3.64368,0 c -0.08263,0 -0.124615,0.039 -0.145263,0.1094 l -0.38737,1.3557 L 10.257558,1033.7798 z m 8.824731,0 5.217365,0 c 1.528814,0 2.687366,0.3297 3.462104,0.9805 0.764405,0.6403 1.137893,1.5113 1.137893,2.6268 0,1.1845 -0.372323,2.1133 -1.10158,2.7844 -0.361543,0.3201 -0.822187,0.5627 -1.379998,0.7382 -0.55781,0.1655 -1.222631,0.2421 -1.997367,0.2421 l -1.84,0 c -0.103318,0 -0.157368,0.055 -0.157368,0.1576 l 0,3.3166 L 22.955972,1033.7798 z m 11.487888,0 3.353152,0 0,10.8462 L 34.44386,1033.7798 Z" font-family="Helvetica Black Hollow" font-size="40" font-style="italic" font-variant="normal" font-weight="bold" letter-spacing="0" word-spacing="0"/></g></svg>