<svg xmlns="http://www.w3.org/2000/svg" xmlns:svg="http://www.w3.org/2000/svg" xmlns:xlink="http://www.w3.org/1999/xlink" id="svg2" width="48" height="48" version="1.1"><defs id="defs4"><linearGradient id="linearGradient4100"><stop id="stop4102" offset="0" stop-color="#e6e6e6" stop-opacity="1"/><stop id="stop4104" offset="1" stop-color="#fff" stop-opacity="1"/></linearGradient><linearGradient id="linearGradient4087"><stop id="stop4089" offset="0" stop-color="#1a1a1a" stop-opacity="1"/><stop id="stop4091" offset="1" stop-color="#333" stop-opacity="1"/></linearGradient><linearGradient id="linearGradient832" x1="25.875" x2="25.875" y1="-1052.362" y2="-1004.358" gradientUnits="userSpaceOnUse" xlink:href="#linearGradient4087"/><linearGradient id="linearGradient4093" x1="27.602" x2="27.602" y1="1044.017" y2="1013.206" gradientUnits="userSpaceOnUse" xlink:href="#linearGradient4100"/></defs><metadata id="metadata7"/><g id="layer1" transform="translate(0,-1004.3622)"><rect id="rect2991-1" width="48" height="48" x="0" y="-1052.362" fill="url(#linearGradient832)" fill-opacity="1" stroke="none" ry="1.945" transform="scale(1,-1)"/><path id="path4117" fill="#000" fill-opacity=".059" fill-rule="nonzero" stroke="none" stroke-width="1.4" d="m 12.290468,1014.1622 0,30.8 23.419064,0 -1.1e-5,-23.0398 -7.752877,0 L 27.956637,1014.1622 z m 17.766711,0 5.652352,5.6597 L 35.709507,1014.1622 Z" color="#000" display="inline" enable-background="accumulate" overflow="visible" visibility="visible" style="marker:none"/><path d="m 12.290468,1013.7622 0,30.8 23.419064,0 -1.1e-5,-23.0398 -7.752877,0 L 27.956637,1013.7622 z m 17.766711,0 5.652352,5.6597 L 35.709507,1013.7622 Z" style="marker:none" id="path4115" fill="#000" fill-opacity=".118" fill-rule="nonzero" stroke="none" stroke-width="1.4" color="#000" display="inline" enable-background="accumulate" overflow="visible" visibility="visible"/><path id="path4111" fill="#000" fill-opacity=".235" fill-rule="nonzero" stroke="none" stroke-width="1.4" d="m 12.290468,1013.3622 0,30.8 23.419064,0 -1.1e-5,-23.0398 -7.752877,0 L 27.956637,1013.3622 z m 17.766711,0 5.652352,5.6597 L 35.709507,1013.3622 Z" color="#000" display="inline" enable-background="accumulate" overflow="visible" visibility="visible" style="marker:none"/><path id="rect846" fill="#000" fill-opacity="1" stroke="none" d="m -2e-6,1049.3622 0,1.0625 c 0,1.0773 0.860223,1.9375 1.9375,1.9375 l 44.125004,0 c 1.07727,0 1.9375,-0.8602 1.9375,-1.9375 l 0,-1.0625 c 0,1.0773 -0.86023,1.9375 -1.9375,1.9375 l -44.125004,0 C 0.860221,1051.2997 -2e-6,1050.4395 -2e-6,1049.3622 Z"/><path id="path7515" fill="#fff" fill-opacity=".537" stroke="none" d="m 2.531248,1005.0185 c -0.917089,0 -1.671147,0.6395 -1.84375,1.5 0.335612,-0.2799 0.774512,-0.4375 1.25,-0.4375 l 44.125004,0 c 0.47548,0 0.91438,0.1576 1.25,0.4375 -0.17261,-0.8605 -0.92667,-1.5 -1.84375,-1.5 L 2.531248,1005.0185 Z"/><path id="rect4280-7" fill="#000" fill-opacity=".392" stroke="none" d="m 1.937498,1004.3622 c -1.077277,0 -1.9375,0.8602 -1.9375,1.9375 l 0,43.0625 c 0,0.7934 0.480023,1.449 1.15625,1.75 -0.309342,-0.3333 -0.5,-0.7824 -0.5,-1.2812 l 0,-42.9375 c 0,-1.0482 0.826899,-1.875 1.875,-1.875 l 42.937504,0 c 1.0481,0 1.875,0.8268 1.875,1.875 l 0,42.9375 c 0,0.4988 -0.19066,0.9479 -0.5,1.2812 0.67622,-0.301 1.15625,-0.9566 1.15625,-1.75 l 0,-43.0625 c 0,-1.0773 -0.86023,-1.9375 -1.9375,-1.9375 L 1.937498,1004.3622 Z"/><path d="m 12.290468,1012.9622 0,30.8 23.419064,0 -1.1e-5,-23.0398 -7.752877,0 L 27.956637,1012.9622 z m 17.766711,0 5.652352,5.6597 L 35.709507,1012.9622 Z" style="marker:none" id="path1324" fill="url(#linearGradient4093)" fill-opacity="1" fill-rule="nonzero" stroke="none" stroke-width="1.4" color="#000" display="inline" enable-background="accumulate" overflow="visible" visibility="visible"/><path id="path4095" fill="#000" fill-opacity=".314" fill-rule="nonzero" stroke="none" stroke-width="1.4" d="m 30.056641,1012.9614 5.652343,5.6602 0,-0.8008 -4.853515,-4.8594 L 30.056641,1012.9614 z m -17.765625,30 0,0.8008 23.417968,0 0,-0.8008 L 12.291016,1042.9614 Z" color="#000" display="inline" enable-background="accumulate" overflow="visible" visibility="visible" style="marker:none"/><path id="path4106" fill="#fff" fill-opacity=".235" fill-rule="nonzero" stroke="none" stroke-width="1.4" d="m 12.291016,1012.9622 0,0.4004 15.666015,0 0,-0.4004 L 12.291016,1012.9622 z m 17.765625,0 0.40039,0.4004 5.251953,0 0,-0.4004 L 30.056641,1012.9622 z m -2.09961,7.7598 0,0.4004 7.751953,0 0,-0.4004 L 27.957031,1020.722 Z" color="#000" display="inline" enable-background="accumulate" overflow="visible" visibility="visible" style="marker:none"/></g></svg>