<svg xmlns="http://www.w3.org/2000/svg" xmlns:svg="http://www.w3.org/2000/svg" xmlns:xlink="http://www.w3.org/1999/xlink" id="svg2" width="48" height="48" version="1.1"><defs id="defs4"><linearGradient id="linearGradient896"><stop id="stop898" offset="0" stop-color="#1c1c1c" stop-opacity="1"/><stop id="stop900" offset="1" stop-color="#333" stop-opacity="1"/></linearGradient><linearGradient id="linearGradient876"><stop id="stop878" offset="0" stop-color="#ff5151" stop-opacity="1"/><stop id="stop880" offset="1" stop-color="#b90000" stop-opacity="1"/></linearGradient><linearGradient id="linearGradient3801" x1="23.204" x2="23.204" y1="1053.158" y2="1004.847" gradientTransform="translate(0,-2056.7244)" gradientUnits="userSpaceOnUse" xlink:href="#linearGradient1390"/><linearGradient id="linearGradient1415" x1="45.448" x2="45.448" y1="92.54" y2="7.017" gradientTransform="scale(1.0058652,0.994169)" gradientUnits="userSpaceOnUse"><stop id="stop1417" offset="0" stop-color="#000" stop-opacity="1"/><stop id="stop1419" offset="1" stop-color="#929292" stop-opacity="1"/></linearGradient><linearGradient id="linearGradient1390"><stop id="stop1392" offset="0" stop-color="#333" stop-opacity="1"/><stop id="stop1394" offset="1" stop-color="#000" stop-opacity="1"/></linearGradient><linearGradient id="ButtonShadow" x1="45.448" x2="45.448" y1="92.54" y2="7.017" gradientTransform="scale(1.0058652,0.994169)" gradientUnits="userSpaceOnUse"><stop id="stop3750" offset="0" stop-color="#000" stop-opacity="1"/><stop id="stop3752-8" offset="1" stop-color="#000" stop-opacity=".588"/></linearGradient><filter id="filter3174" color-interpolation-filters="sRGB"><feGaussianBlur id="feGaussianBlur3176" stdDeviation="1.71"/></filter><linearGradient id="linearGradient3737-6"><stop id="stop3739-73" offset="0" stop-color="#fff" stop-opacity="1"/><stop id="stop3741-6" offset="1" stop-color="#fff" stop-opacity="0"/></linearGradient><clipPath id="clipPath3613"><rect id="rect3615" width="84" height="84" x="6" y="6" fill="#fff" fill-opacity="1" fill-rule="nonzero" stroke="none" rx="6" ry="6"/></clipPath><filter id="filter3794" width="1.384" height="1.384" x="-.192" y="-.192" color-interpolation-filters="sRGB"><feGaussianBlur id="feGaussianBlur3796" stdDeviation="5.28"/></filter><linearGradient id="linearGradient2885" x1="48" x2="48" y1="20.221" y2="138.661" gradientUnits="userSpaceOnUse" xlink:href="#linearGradient3737-6"/><radialGradient id="radialGradient882" cx="27.218" cy="17.738" r="16.794" fx="27.218" fy="17.738" gradientUnits="userSpaceOnUse" xlink:href="#linearGradient876"/><radialGradient id="radialGradient888" cx="26.163" cy="18.928" r="16.794" fx="26.163" fy="18.928" gradientUnits="userSpaceOnUse" xlink:href="#linearGradient876"/><linearGradient id="linearGradient902" x1="27.849" x2="27.849" y1="7.092" y2="44.752" gradientUnits="userSpaceOnUse" xlink:href="#linearGradient896"/><linearGradient id="linearGradient906" x1="27.849" x2="27.849" y1="7.092" y2="44.752" gradientUnits="userSpaceOnUse" xlink:href="#linearGradient896"/><linearGradient id="linearGradient914" x1="25.177" x2="25.177" y1="48.595" y2="-6.828" gradientUnits="userSpaceOnUse" xlink:href="#linearGradient1415"/><linearGradient id="linearGradient918" x1="25.177" x2="25.177" y1="48.595" y2="-6.828" gradientUnits="userSpaceOnUse" xlink:href="#linearGradient1415"/><linearGradient id="linearGradient924" x1="25.177" x2="25.177" y1="48.595" y2="-6.828" gradientUnits="userSpaceOnUse" xlink:href="#linearGradient1415"/><linearGradient id="linearGradient926" x1="25.177" x2="25.177" y1="48.595" y2="-6.828" gradientUnits="userSpaceOnUse" xlink:href="#linearGradient1415"/><linearGradient id="linearGradient930" x1="25.177" x2="25.177" y1="48.595" y2="-6.828" gradientUnits="userSpaceOnUse" xlink:href="#linearGradient1415"/></defs><metadata id="metadata7"/><g id="layer1" transform="translate(0,-1004.3622)"><rect id="rect2991" width="48" height="48" x="0" y="-1052.362" fill="url(#linearGradient3801)" fill-opacity="1" stroke="none" opacity="1" ry="1.945" transform="scale(1,-1)"/><g id="layer2" display="none" transform="translate(-74.90644,933.94298)"><rect id="rect3745" width="86" height="85" x="5" y="7" fill="url(#ButtonShadow)" fill-opacity="1" fill-rule="nonzero" stroke="none" filter="url(#filter3174)" opacity=".9" rx="6" ry="6"/></g><g id="layer4" display="none" transform="translate(-74.90644,933.94298)"><rect id="rect3171" width="66" height="66" x="15" y="15" fill="url(#linearGradient2885)" fill-opacity="1" fill-rule="nonzero" stroke="#fff" stroke-dasharray="none" stroke-dashoffset="0" stroke-linecap="round" stroke-linejoin="miter" stroke-miterlimit="4" stroke-opacity="1" stroke-width=".5" clip-path="url(#clipPath3613)" filter="url(#filter3794)" opacity=".15" rx="12" ry="12"/></g><rect id="rect1402" width=".436" height="0" x="55.248" y="1030.991" fill="#e6e6e6" fill-opacity="1" stroke="#4d4d4d" stroke-dasharray="none" stroke-linecap="round" stroke-linejoin="round" stroke-miterlimit="4" stroke-opacity="1" stroke-width="1" ry="0"/><g id="g965"><path id="path884" fill="url(#linearGradient902)" fill-opacity="1" fill-rule="nonzero" stroke="none" stroke-width=".4" d="m 42.956738,25.54936 c 0,9.274953 -7.518835,16.793787 -16.793787,16.793787 -9.274953,0 -16.7937875,-7.518834 -16.7937875,-16.793787 0,-9.274952 7.5188345,-16.7937867 16.7937875,-16.7937867 C 35.437903,8.7555733 42.956738,16.274408 42.956738,25.54936 Z" color="#000" display="inline" enable-background="accumulate" overflow="visible" transform="matrix(0.28545004,0,0,0.28545004,33.737998,1038.2753)" visibility="visible" style="marker:none"/><path id="path904" fill="url(#linearGradient906)" fill-opacity="1" fill-rule="nonzero" stroke="none" stroke-width=".4" d="m 42.956738,25.54936 c 0,9.274953 -7.518835,16.793787 -16.793787,16.793787 -9.274953,0 -16.7937875,-7.518834 -16.7937875,-16.793787 0,-9.274952 7.5188345,-16.7937867 16.7937875,-16.7937867 C 35.437903,8.7555733 42.956738,16.274408 42.956738,25.54936 Z" color="#000" display="inline" enable-background="accumulate" overflow="visible" transform="matrix(0.24674524,0,0,-0.24674524,34.750629,1051.8722)" visibility="visible" style="marker:none"/><path id="path886" fill="url(#radialGradient888)" fill-opacity="1" fill-rule="nonzero" stroke="none" stroke-width=".4" d="m 42.956738,25.54936 c 0,9.274953 -7.518835,16.793787 -16.793787,16.793787 -9.274953,0 -16.7937875,-7.518834 -16.7937875,-16.793787 0,-9.274952 7.5188345,-16.7937867 16.7937875,-16.7937867 C 35.437903,8.7555733 42.956738,16.274408 42.956738,25.54936 Z" color="#000" display="inline" enable-background="accumulate" overflow="visible" transform="matrix(0.19305519,0,0,0.19305519,36.155319,1040.6356)" visibility="visible" style="marker:none"/></g><g id="g970" transform="matrix(1.0847458,0,0,1.0847458,-2.0338992,-87.149377)"><path id="path928" fill="url(#linearGradient930)" fill-opacity="1" fill-rule="nonzero" stroke="none" stroke-width=".4" d="m 42.956738,25.54936 c 0,9.274953 -7.518835,16.793787 -16.793787,16.793787 -9.274953,0 -16.7937875,-7.518834 -16.7937875,-16.793787 0,-9.274952 7.5188345,-16.7937867 16.7937875,-16.7937867 C 35.437903,8.7555733 42.956738,16.274408 42.956738,25.54936 Z" color="#000" display="inline" enable-background="accumulate" overflow="visible" transform="matrix(0.76181668,0,0,-0.76181668,4.0686276,1047.8266)" visibility="visible" style="marker:none"/><path id="path920" fill="url(#linearGradient924)" fill-opacity="1" fill-rule="nonzero" stroke="none" stroke-width=".4" d="m 42.956738,25.54936 c 0,9.274953 -7.518835,16.793787 -16.793787,16.793787 -9.274953,0 -16.7937875,-7.518834 -16.7937875,-16.793787 0,-9.274952 7.5188345,-16.7937867 16.7937875,-16.7937867 C 35.437903,8.7555733 42.956738,16.274408 42.956738,25.54936 Z" color="#000" display="inline" enable-background="accumulate" overflow="visible" transform="matrix(0.64272502,0,0,-0.64272502,7.1844168,1044.7838)" visibility="visible" style="marker:none"/><path id="path922" fill="url(#linearGradient926)" fill-opacity="1" fill-rule="nonzero" stroke="none" stroke-width=".4" d="m 42.956738,25.54936 c 0,9.274953 -7.518835,16.793787 -16.793787,16.793787 -9.274953,0 -16.7937875,-7.518834 -16.7937875,-16.793787 0,-9.274952 7.5188345,-16.7937867 16.7937875,-16.7937867 C 35.437903,8.7555733 42.956738,16.274408 42.956738,25.54936 Z" color="#000" display="inline" enable-background="accumulate" overflow="visible" transform="matrix(0.56963649,0,0,0.56963649,9.096629,1013.8085)" visibility="visible" style="marker:none"/><path id="path916" fill="url(#linearGradient918)" fill-opacity="1" fill-rule="nonzero" stroke="none" stroke-width=".4" d="m 42.956738,25.54936 c 0,9.274953 -7.518835,16.793787 -16.793787,16.793787 -9.274953,0 -16.7937875,-7.518834 -16.7937875,-16.793787 0,-9.274952 7.5188345,-16.7937867 16.7937875,-16.7937867 C 35.437903,8.7555733 42.956738,16.274408 42.956738,25.54936 Z" color="#000" display="inline" enable-background="accumulate" overflow="visible" transform="matrix(0.52363336,0,0,-0.52363336,10.300206,1041.741)" visibility="visible" style="marker:none"/><path id="path872" fill="url(#linearGradient914)" fill-opacity="1" fill-rule="nonzero" stroke="none" stroke-width=".4" d="m 42.956738,25.54936 c 0,9.274953 -7.518835,16.793787 -16.793787,16.793787 -9.274953,0 -16.7937875,-7.518834 -16.7937875,-16.793787 0,-9.274952 7.5188345,-16.7937867 16.7937875,-16.7937867 C 35.437903,8.7555733 42.956738,16.274408 42.956738,25.54936 Z" color="#000" display="inline" enable-background="accumulate" overflow="visible" transform="matrix(0.46408753,0,0,0.46408753,11.858101,1016.5053)" visibility="visible" style="marker:none"/><path id="path874" fill="url(#radialGradient882)" fill-opacity="1" fill-rule="nonzero" stroke="none" stroke-width=".4" d="m 42.956738,25.54936 c 0,9.274953 -7.518835,16.793787 -16.793787,16.793787 -9.274953,0 -16.7937875,-7.518834 -16.7937875,-16.793787 0,-9.274952 7.5188345,-16.7937867 16.7937875,-16.7937867 C 35.437903,8.7555733 42.956738,16.274408 42.956738,25.54936 Z" color="#000" display="inline" enable-background="accumulate" overflow="visible" transform="matrix(0.41068126,0,0,0.41068126,13.255367,1017.8695)" visibility="visible" style="marker:none"/><path d="m 23.376761,1013.6122 c -0.884936,0.036 -1.759017,0.1519 -2.596831,0.3376 l 0.259682,0.9609 c 0.756294,-0.1655 1.539725,-0.2758 2.337149,-0.3117 L 23.376761,1013.6122 z m 1.246478,0 0,0.9868 c 0.797424,0.036 1.580855,0.1462 2.337149,0.3117 l 0.259682,-0.9609 C 26.382256,1013.7641 25.508175,1013.6493 24.623239,1013.6122 z m -5.037851,0.6492 c -0.841464,0.263 -1.645949,0.611 -2.415054,1.0127 l 0.493398,0.857 c 0.696552,-0.3614 1.421339,-0.6692 2.181338,-0.9089 L 19.585388,1014.2614 z m 8.829224,0 -0.259682,0.9608 c 0.759999,0.2397 1.484786,0.5475 2.181338,0.9089 l 0.493398,-0.857 C 30.060561,1014.8724 29.256076,1014.5244 28.414612,1014.2614 z m -12.334946,1.6361 c -0.735639,0.4684 -1.412209,1.0224 -2.051498,1.6099 l 0.701145,0.7012 c 0.577237,-0.5267 1.182838,-1.0309 1.84375,-1.4542 L 16.079666,1015.8975 z m 15.840668,0 -0.493397,0.8569 c 0.660912,0.4233 1.266513,0.9275 1.84375,1.4542 l 0.701145,-0.7012 C 33.332543,1016.9199 32.655973,1016.3659 31.920334,1015.8975 z m -18.775088,2.493 c -0.587487,0.6391 -1.141541,1.3157 -1.610035,2.0514 l 0.856955,0.4933 c 0.423261,-0.6609 0.927545,-1.2664 1.454224,-1.8437 L 13.145246,1018.3905 z m 21.709508,0 -0.701144,0.701 c 0.526679,0.5773 1.030963,1.1828 1.454224,1.8437 l 0.856956,-0.4933 C 35.996295,1019.7062 35.442241,1019.0296 34.854754,1018.3905 z m -23.942782,3.142 c -0.401804,0.7692 -0.749811,1.5735 -1.0127643,2.4151 l 0.9608273,0.2597 c 0.239616,-0.7601 0.547519,-1.4848 0.90889,-2.1813 L 10.911972,1021.5325 z m 26.176056,0 -0.856953,0.4935 c 0.361371,0.6965 0.669274,1.4212 0.90889,2.1813 l 0.960827,-0.2597 C 37.837838,1023.106 37.489832,1022.3017 37.088028,1021.5325 z m -27.5004399,3.6096 C 9.4019092,1025.9799 9.2870317,1026.854 9.25,1027.739 l 0.986796,0 c 0.03583,-0.7975 0.146157,-1.581 0.311619,-2.3372 L 9.5875881,1025.1421 z m 28.8248229,0 -0.960827,0.2597 c 0.165462,0.7562 0.275791,1.5397 0.311619,2.3372 l 0.986797,0 C 38.712969,1026.854 38.598091,1025.9799 38.412411,1025.1421 Z M 9.25,1028.9854 c 0.037031,0.885 0.1519092,1.7591 0.3375881,2.5969 l 0.9608269,-0.2597 c -0.165462,-0.7562 -0.275789,-1.5397 -0.311619,-2.3372 L 9.25,1028.9854 z m 28.513203,0 c -0.03583,0.7975 -0.146157,1.581 -0.311619,2.3372 l 0.960827,0.2597 c 0.18568,-0.8378 0.300558,-1.7119 0.337589,-2.5969 L 37.763203,1028.9854 z m -26.903168,3.5317 -0.9608273,0.2597 c 0.2629533,0.8416 0.6109603,1.6459 1.0127643,2.4151 l 0.856953,-0.4935 C 11.407554,1034.0019 11.099651,1033.2772 10.860035,1032.5171 z m 26.27993,0 c -0.239616,0.7601 -0.547519,1.4848 -0.90889,2.1813 l 0.856953,0.4935 c 0.401804,-0.7692 0.74981,-1.5735 1.012764,-2.4151 L 37.139965,1032.5171 z m -24.747799,3.2721 -0.856955,0.4933 c 0.468494,0.7357 1.022548,1.4123 1.610035,2.0514 l 0.701144,-0.701 C 13.319711,1037.0556 12.815427,1036.4501 12.392166,1035.7892 z m 23.215668,0 c -0.423261,0.6609 -0.927545,1.2664 -1.454224,1.8437 l 0.701144,0.701 c 0.587487,-0.6391 1.141541,-1.3157 1.610036,-2.0514 L 35.607834,1035.7892 z m -20.878521,2.7266 -0.701145,0.7012 c 0.639289,0.5875 1.315859,1.1415 2.051498,1.6099 l 0.493397,-0.8569 C 15.912151,1039.5467 15.30655,1039.0425 14.729313,1038.5158 z m 18.541374,0 c -0.577237,0.5267 -1.182838,1.0309 -1.84375,1.4542 l 0.493397,0.8569 c 0.735639,-0.4684 1.412209,-1.0224 2.051498,-1.6099 L 33.270687,1038.5158 z m -15.606955,2.0775 -0.493398,0.857 c 0.769105,0.4017 1.57359,0.7497 2.415054,1.0127 l 0.259682,-0.9608 C 19.085071,1041.2626 18.360284,1040.9547 17.663732,1040.5933 z m 12.672536,0 c -0.696552,0.3614 -1.421339,0.6693 -2.181338,0.9089 l 0.259682,0.9608 c 0.841464,-0.263 1.645949,-0.611 2.415054,-1.0127 L 30.336268,1040.5933 z m -9.296656,1.2204 -0.259682,0.9609 c 0.837814,0.1857 1.711895,0.3005 2.596831,0.3376 l 0,-0.9868 C 22.579337,1042.0895 21.795906,1041.9792 21.039612,1041.8137 z m 5.920776,0 c -0.756294,0.1655 -1.539725,0.2758 -2.337149,0.3117 l 0,0.9868 c 0.884936,-0.038 1.759017,-0.1519 2.596831,-0.3376 L 26.960388,1041.8137 Z" style="marker:none" id="path932" fill="#666" fill-opacity="1" fill-rule="nonzero" stroke="none" stroke-width=".4" color="#000" display="inline" enable-background="accumulate" overflow="visible" visibility="visible"/></g><g id="g13070" transform="translate(52.814607,-0.6655)"><g id="g13065"><path id="rect846" fill="#000" fill-opacity="1" stroke="none" d="m -52.814607,1050.0277 0,1.0625 c 0,1.0773 0.86022,1.9375 1.9375,1.9375 l 44.1249996,0 c 1.07728,0 1.9375,-0.8602 1.9375,-1.9375 l 0,-1.0625 c 0,1.0773 -0.86022,1.9375 -1.9375,1.9375 l -44.1249996,0 c -1.07728,0 -1.9375,-0.8602 -1.9375,-1.9375 z"/><path id="path7515" fill="#fff" fill-opacity=".537" stroke="none" d="m -50.283357,1005.684 c -0.91709,0 -1.67115,0.6395 -1.84375,1.5 0.33561,-0.2799 0.77451,-0.4375 1.25,-0.4375 l 44.1249996,0 c 0.47549,0 0.91439,0.1576 1.25,0.4375 -0.1726,-0.8605 -0.92666,-1.5 -1.84375,-1.5 l -42.9374996,0 z"/><path id="rect4280-3" fill="#000" fill-opacity=".392" stroke="none" d="m -50.877107,1005.0277 c -1.07728,0 -1.9375,0.8602 -1.9375,1.9375 l 0,43.0625 c 0,0.7934 0.48002,1.449 1.15625,1.75 -0.30934,-0.3333 -0.5,-0.7824 -0.5,-1.2812 l 0,-42.9375 c 0,-1.0482 0.8269,-1.875 1.875,-1.875 l 42.9374996,0 c 1.0481,0 1.875,0.8268 1.875,1.875 l 0,42.9375 c 0,0.4988 -0.19066,0.9479 -0.5,1.2812 0.67623,-0.301 1.15625,-0.9566 1.15625,-1.75 l 0,-43.0625 c 0,-1.0773 -0.86022,-1.9375 -1.9375,-1.9375 l -44.1249996,0 z"/></g></g></g></svg>