<svg xmlns="http://www.w3.org/2000/svg" xmlns:svg="http://www.w3.org/2000/svg" xmlns:xlink="http://www.w3.org/1999/xlink" id="svg2" width="48" height="48" version="1.1"><defs id="defs4"><linearGradient id="linearGradient4055"><stop id="stop4057" offset="0" stop-color="#eec9dd" stop-opacity="1"/><stop id="stop4059" offset="1" stop-color="#fbf9fa" stop-opacity="1"/></linearGradient><linearGradient id="linearGradient4010"><stop id="stop4012" offset="0" stop-color="#772953" stop-opacity="1"/><stop id="stop4014" offset="1" stop-color="#af417d" stop-opacity="1"/></linearGradient><linearGradient id="linearGradient857" x1="23.865" x2="23.865" y1="-1052.404" y2="-1004.497" gradientUnits="userSpaceOnUse" xlink:href="#linearGradient4010"/><linearGradient id="linearGradient4053" x1="33.417" x2="33.417" y1="1044.687" y2="1012.687" gradientTransform="matrix(0.9625,0,0,0.9625,0.9,38.383114)" gradientUnits="userSpaceOnUse" xlink:href="#linearGradient4055"/></defs><metadata id="metadata7"/><g id="layer1" transform="translate(0,-1004.3622)"><rect id="rect2991-1" width="48" height="48" x="0" y="-1052.362" fill="url(#linearGradient857)" fill-opacity="1" stroke="none" ry="1.945" transform="scale(1,-1)"/><path id="path4069" fill="#000" fill-opacity=".059" d="m 24,1014.1622 c -8.504405,0 -15.4,6.8954 -15.4,15.4 0,8.5047 6.895143,15.4 15.4,15.4 8.505158,0 15.4,-6.8951 15.4,-15.4 C 39.4,1021.0574 32.504856,1014.1622 24,1014.1622 z m 0,2.8875 c 6.910196,0 12.5125,5.6024 12.5125,12.5125 0,6.9102 -5.60206,12.5125 -12.5125,12.5125 -6.910196,0 -12.5125,-5.6024 -12.5125,-12.5125 C 11.4875,1022.6522 17.090171,1017.0497 24,1017.0497 z m 0,2.8875 c -5.315254,0 -9.625,4.3096 -9.625,9.625 0,5.3154 4.309464,9.625 9.625,9.625 5.315723,0 9.625,-4.3096 9.625,-9.625 C 33.625,1024.2468 29.315536,1019.9372 24,1019.9372 Z"/><path id="path4067" fill="#000" fill-opacity=".118" d="m 24,1013.7622 c -8.504405,0 -15.4,6.8954 -15.4,15.4 0,8.5047 6.895143,15.4 15.4,15.4 8.505158,0 15.4,-6.8951 15.4,-15.4 C 39.4,1020.6574 32.504856,1013.7622 24,1013.7622 z m 0,2.8875 c 6.910196,0 12.5125,5.6024 12.5125,12.5125 0,6.9102 -5.60206,12.5125 -12.5125,12.5125 -6.910196,0 -12.5125,-5.6024 -12.5125,-12.5125 C 11.4875,1022.2522 17.090171,1016.6497 24,1016.6497 z m 0,2.8875 c -5.315254,0 -9.625,4.3096 -9.625,9.625 0,5.3154 4.309464,9.625 9.625,9.625 5.315723,0 9.625,-4.3096 9.625,-9.625 C 33.625,1023.8468 29.315536,1019.5372 24,1019.5372 Z"/><path id="path4063" fill="#000" fill-opacity=".235" d="m 24,1013.3622 c -8.504405,0 -15.4,6.8954 -15.4,15.4 0,8.5047 6.895143,15.4 15.4,15.4 8.505158,0 15.4,-6.8951 15.4,-15.4 C 39.4,1020.2574 32.504856,1013.3622 24,1013.3622 z m 0,2.8875 c 6.910196,0 12.5125,5.6024 12.5125,12.5125 0,6.9102 -5.60206,12.5125 -12.5125,12.5125 -6.910196,0 -12.5125,-5.6024 -12.5125,-12.5125 C 11.4875,1021.8522 17.090171,1016.2497 24,1016.2497 z m 0,2.8875 c -5.315254,0 -9.625,4.3096 -9.625,9.625 0,5.3154 4.309464,9.625 9.625,9.625 5.315723,0 9.625,-4.3096 9.625,-9.625 C 33.625,1023.4468 29.315536,1019.1372 24,1019.1372 Z"/><path id="rect846" fill="#000" fill-opacity="1" stroke="none" d="m -2.9138183e-7,1049.3622 0,1.0625 c 0,1.0773 0.86022300138183,1.9375 1.93749999138183,1.9375 l 44.1250003,0 c 1.077277,0 1.9375,-0.8602 1.9375,-1.9375 l 0,-1.0625 c 0,1.0773 -0.860223,1.9375 -1.9375,1.9375 l -44.1250003,0 C 0.86022271,1051.2997 -2.9138183e-7,1050.4395 -2.9138183e-7,1049.3622 Z"/><path id="path7515" fill="#fff" fill-opacity=".537" stroke="none" d="m 2.5312497,1005.0185 c -0.917088,0 -1.67114699,0.6395 -1.84374999,1.5 0.33561199,-0.2799 0.77451199,-0.4375 1.24999999,-0.4375 l 44.1250003,0 c 0.475488,0 0.914388,0.1576 1.25,0.4375 -0.172603,-0.8605 -0.926662,-1.5 -1.84375,-1.5 L 2.5312497,1005.0185 Z"/><path id="rect4280" fill="#000" fill-opacity=".392" stroke="none" d="m 1.9374997,1004.3622 c -1.07727699,0 -1.93749999138183,0.8602 -1.93749999138183,1.9375 l 0,43.0625 c 0,0.7934 0.48002400138183,1.449 1.15624999138183,1.75 -0.30934199,-0.3333 -0.49999999,-0.7824 -0.49999999,-1.2812 l 0,-42.9375 c 0,-1.0482 0.82689899,-1.875 1.87499999,-1.875 l 42.9375003,0 c 1.048101,0 1.875,0.8268 1.875,1.875 l 0,42.9375 c 0,0.4988 -0.190658,0.9479 -0.5,1.2812 0.676226,-0.301 1.15625,-0.9566 1.15625,-1.75 l 0,-43.0625 c 0,-1.0773 -0.860223,-1.9375 -1.9375,-1.9375 L 1.9374997,1004.3622 Z"/><path id="path3" fill="url(#linearGradient4053)" fill-opacity="1" d="m 24,1012.9622 c -8.504405,0 -15.4,6.8954 -15.4,15.4 0,8.5047 6.895143,15.4 15.4,15.4 8.505158,0 15.4,-6.8951 15.4,-15.4 C 39.4,1019.8574 32.504856,1012.9622 24,1012.9622 z m 0,2.8875 c 6.910196,0 12.5125,5.6024 12.5125,12.5125 0,6.9102 -5.60206,12.5125 -12.5125,12.5125 -6.910196,0 -12.5125,-5.6024 -12.5125,-12.5125 C 11.4875,1021.4522 17.090171,1015.8497 24,1015.8497 z m 0,2.8875 c -5.315254,0 -9.625,4.3096 -9.625,9.625 0,5.3154 4.309464,9.625 9.625,9.625 5.315723,0 9.625,-4.3096 9.625,-9.625 C 33.625,1023.0468 29.315536,1018.7372 24,1018.7372 Z"/><path id="path4071" fill="#782954" fill-opacity=".314" d="m 24,1015.0493 c -6.909829,0 -12.511719,5.6017 -12.511719,12.5117 0,0.1352 0.01528,0.2663 0.01953,0.4004 0.213273,-6.7231 5.717512,-12.1113 12.492188,-12.1113 6.775036,0 12.278928,5.3881 12.492188,12.1113 0.0043,-0.1341 0.01953,-0.2652 0.01953,-0.4004 C 36.511719,1020.6509 30.910196,1015.0493 24,1015.0493 z m -15.3808597,12.9121 c -0.00346,0.1344 -0.019531,0.2652 -0.019531,0.4004 0,8.5047 6.8955337,15.4004 15.4003907,15.4004 8.505158,0 15.400391,-6.8955 15.400391,-15.4004 0,-0.1352 -0.01607,-0.266 -0.01953,-0.4004 -0.214126,8.3183 -7.010721,15 -15.380859,15 C 15.630158,1042.9614 8.8332759,1036.2795 8.6191403,1027.9614 z m 5.7753907,0 c -0.0055,0.1338 -0.01953,0.2653 -0.01953,0.4004 0,5.3154 4.309464,9.625 9.625,9.625 5.315723,0 9.625,-4.3096 9.625,-9.625 0,-0.1351 -0.01402,-0.2666 -0.01953,-0.4004 -0.21144,5.1284 -4.424875,9.2246 -9.605469,9.2246 C 18.819588,1037.186 14.605979,1033.0898 14.394531,1027.9614 Z"/><path id="path4076" fill="#fff" fill-opacity=".235" d="m 24,1012.9622 c -8.504405,0 -15.4003906,6.8958 -15.4003906,15.4004 0,0.067 0.00891,0.1322 0.00977,0.1992 0.1089228,-8.4108 6.954136,-15.1992 15.390625,-15.1992 8.436936,0 15.281709,6.7882 15.390625,15.1992 8.6e-4,-0.067 0.0098,-0.1319 0.0098,-0.1992 C 39.400391,1019.8578 32.504856,1012.9622 24,1012.9622 z m 0,5.7754 c -5.315254,0 -9.625,4.3096 -9.625,9.625 0,0.067 0.0084,0.1323 0.0098,0.1992 0.108151,-5.2216 4.367867,-9.4238 9.615234,-9.4238 5.247645,0 9.50709,4.2022 9.615234,9.4238 0.0014,-0.067 0.0098,-0.132 0.0098,-0.1992 C 33.625,1023.0472 29.315536,1018.7376 24,1018.7376 z m -12.501953,9.8242 c -0.0011,0.068 -0.0098,0.1333 -0.0098,0.2012 0,6.9101 5.601523,12.5117 12.511719,12.5117 6.91044,0 12.511719,-5.6015 12.511719,-12.5117 0,-0.068 -0.0087,-0.1335 -0.0098,-0.2012 C 36.394377,1035.3791 30.843187,1040.8743 24,1040.8743 17.157055,1040.8743 11.605628,1035.3791 11.498047,1028.5618 Z"/></g></svg>