<svg xmlns="http://www.w3.org/2000/svg" xmlns:svg="http://www.w3.org/2000/svg" xmlns:xlink="http://www.w3.org/1999/xlink" id="svg2" width="48" height="48" version="1.1"><defs id="defs4"><linearGradient id="linearGradient4048"><stop id="stop4050" offset="0" stop-color="#cf0" stop-opacity="1"/><stop id="stop4052" offset="1" stop-color="#cf0" stop-opacity="0"/></linearGradient><linearGradient id="linearGradient4022"><stop id="stop4024" offset="0" stop-color="#e4eed5" stop-opacity="1"/><stop id="stop4026" offset="1" stop-color="#9dcc59" stop-opacity="1"/></linearGradient><linearGradient id="linearGradient7844" x1="-57.296" x2="-57.296" y1="17.111" y2="15.118" gradientUnits="userSpaceOnUse" xlink:href="#linearGradient4215-2"/><linearGradient id="linearGradient4215-2"><stop id="stop4217-5" offset="0" stop-color="#dcdcdc" stop-opacity="1"/><stop id="stop4219-5" offset="1" stop-color="#f0f0f0" stop-opacity="1"/></linearGradient><linearGradient id="linearGradient7848" x1="-57.296" x2="-57.296" y1="17.111" y2="15.118" gradientUnits="userSpaceOnUse" xlink:href="#linearGradient1097"/><linearGradient id="linearGradient1097"><stop id="stop1099" offset="0" stop-color="#000" stop-opacity="1"/><stop id="stop1101" offset="1" stop-color="#1a1a1a" stop-opacity="1"/></linearGradient><linearGradient id="linearGradient7957" x1="-57.296" x2="-57.296" y1="17.111" y2="15.118" gradientUnits="userSpaceOnUse" xlink:href="#linearGradient4215-2"/><linearGradient id="linearGradient7959" x1="-57.296" x2="-57.296" y1="17.111" y2="15.118" gradientUnits="userSpaceOnUse" xlink:href="#linearGradient1097"/><linearGradient id="linearGradient1126"><stop id="stop1128" offset="0" stop-color="#b3b3b3" stop-opacity="1"/><stop id="stop1130" offset="1" stop-color="#e6e6e6" stop-opacity="1"/></linearGradient><linearGradient id="linearGradient3892" x1="24.75" x2="24.75" y1="-1052.487" y2="-1004.612" gradientUnits="userSpaceOnUse" xlink:href="#linearGradient1126"/><radialGradient id="radialGradient4028" cx="23.423" cy="10.512" r="2.828" fx="23.423" fy="10.512" gradientTransform="translate(5.9232118e-6,0)" gradientUnits="userSpaceOnUse" xlink:href="#linearGradient4022"/><radialGradient id="radialGradient4054" cx="23.423" cy="11.407" r="2.828" fx="23.423" fy="11.407" gradientUnits="userSpaceOnUse" xlink:href="#linearGradient4048"/></defs><metadata id="metadata7"/><g id="layer1" transform="translate(0,-1004.3622)"><rect id="rect2991-1" width="48" height="48" x="0" y="-1052.362" fill="url(#linearGradient3892)" fill-opacity="1" stroke="none" ry="1.945" transform="scale(1,-1)"/><path id="rect846" fill="#000" fill-opacity="1" stroke="none" d="m 3.1945801e-7,1049.3622 0,1.0625 c 0,1.0773 0.86022300054199,1.9375 1.93749998054199,1.9375 l 44.1249997,0 c 1.077277,0 1.9375,-0.8602 1.9375,-1.9375 l 0,-1.0625 c 0,1.0773 -0.860223,1.9375 -1.9375,1.9375 l -44.1249997,0 C 0.86022332,1051.2997 3.1945801e-7,1050.4395 3.1945801e-7,1049.3622 Z"/><path id="path7515" fill="#fff" fill-opacity=".537" stroke="none" d="m 2.5312503,1005.0185 c -0.917088,0 -1.67114698,0.6395 -1.84374998,1.5 0.33561198,-0.2799 0.77451198,-0.4375 1.24999998,-0.4375 l 44.1249997,0 c 0.475488,0 0.914388,0.1576 1.25,0.4375 -0.172603,-0.8605 -0.926662,-1.5 -1.84375,-1.5 L 2.5312503,1005.0185 Z"/><path id="rect4280" fill="#000" fill-opacity=".392" stroke="none" d="m 1.9375003,1004.3622 c -1.07727698,0 -1.93749998054199,0.8602 -1.93749998054199,1.9375 l 0,43.0625 c 0,0.7934 0.48002400054199,1.449 1.15624998054199,1.75 -0.30934198,-0.3333 -0.49999998,-0.7824 -0.49999998,-1.2812 l 0,-42.9375 c 0,-1.0482 0.82689898,-1.875 1.87499998,-1.875 l 42.9374997,0 c 1.048101,0 1.875,0.8268 1.875,1.875 l 0,42.9375 c 0,0.4988 -0.190658,0.9479 -0.5,1.2812 0.676226,-0.301 1.15625,-0.9566 1.15625,-1.75 l 0,-43.0625 c 0,-1.0773 -0.860223,-1.9375 -1.9375,-1.9375 L 1.9375003,1004.3622 Z"/><g id="g4406"><path d="m 10.84375,1023.2807 c -3.4671002,0 -6.28125,2.8142 -6.28125,6.2813 0,3.4671 2.8141498,6.2812 6.28125,6.2812 3.4671,0 6.28125,-2.8141 6.28125,-6.2812 C 17.125,1026.0949 14.31085,1023.2807 10.84375,1023.2807 z m 26.3125,0 c -3.4671,0 -6.28125,2.8142 -6.28125,6.2813 0,3.4671 2.81415,6.2812 6.28125,6.2812 3.4671,0 6.28125,-2.8141 6.28125,-6.2812 C 43.4375,1026.0949 40.62335,1023.2807 37.15625,1023.2807 Z" style="marker:none" id="path4344" fill="#000" fill-opacity=".059" fill-rule="nonzero" stroke="none" stroke-width=".5" color="#000" display="inline" enable-background="accumulate" overflow="visible" visibility="visible"/><path id="path4342" fill="#000" fill-opacity=".118" fill-rule="nonzero" stroke="none" stroke-width=".5" d="m 10.84375,1022.8807 c -3.4671002,0 -6.28125,2.8142 -6.28125,6.2813 0,3.4671 2.8141498,6.2812 6.28125,6.2812 3.4671,0 6.28125,-2.8141 6.28125,-6.2812 C 17.125,1025.6949 14.31085,1022.8807 10.84375,1022.8807 z m 26.3125,0 c -3.4671,0 -6.28125,2.8142 -6.28125,6.2813 0,3.4671 2.81415,6.2812 6.28125,6.2812 3.4671,0 6.28125,-2.8141 6.28125,-6.2812 C 43.4375,1025.6949 40.62335,1022.8807 37.15625,1022.8807 Z" color="#000" display="inline" enable-background="accumulate" overflow="visible" visibility="visible" style="marker:none"/><path d="m 10.84375,1022.4806 c -3.4671002,0 -6.28125,2.8141 -6.28125,6.2813 0,3.4671 2.8141498,6.2813 6.28125,6.2813 3.4671,0 6.28125,-2.8142 6.28125,-6.2813 C 17.125,1025.2947 14.31085,1022.4806 10.84375,1022.4806 z m 26.3125,0 c -3.4671,0 -6.28125,2.8141 -6.28125,6.2813 0,3.4671 2.81415,6.2813 6.28125,6.2813 3.4671,0 6.28125,-2.8142 6.28125,-6.2813 C 43.4375,1025.2947 40.62335,1022.4806 37.15625,1022.4806 Z" style="marker:none" id="path4337" fill="#000" fill-opacity=".235" fill-rule="nonzero" stroke="none" stroke-width=".5" color="#000" display="inline" enable-background="accumulate" overflow="visible" visibility="visible"/><g id="g4368" transform="translate(0,-1.2797908)"><path id="path7834" fill="#1a1a1a" fill-opacity="1" fill-rule="nonzero" stroke="none" stroke-width=".5" d="m -56.218754,16.140623 c 0,0.543655 -0.440719,0.984375 -0.984375,0.984375 -0.543655,0 -0.984375,-0.44072 -0.984375,-0.984375 0,-0.543655 0.44072,-0.984375 0.984375,-0.984375 C -56.659473,15.156248 -56.218754,15.596968 -56.218754,16.140623 Z" color="#000" display="inline" enable-background="accumulate" overflow="visible" transform="matrix(6.3773866,0,0,6.3773866,375.6531,926.70698)" visibility="visible" style="marker:none"/><path id="path7836" fill="url(#linearGradient7844)" fill-opacity="1" fill-rule="nonzero" stroke="none" stroke-width=".5" d="m -56.218754,16.140623 c 0,0.543655 -0.440719,0.984375 -0.984375,0.984375 -0.543655,0 -0.984375,-0.44072 -0.984375,-0.984375 0,-0.543655 0.44072,-0.984375 0.984375,-0.984375 C -56.659473,15.156248 -56.218754,15.596968 -56.218754,16.140623 Z" color="#000" display="inline" enable-background="accumulate" overflow="visible" transform="matrix(5.375277,0,0,5.375277,318.3293,942.88165)" visibility="visible" style="marker:none"/><path id="path7858" fill="#170000" fill-opacity=".207" stroke="none" d="m 10.735321,1024.1928 0.08367,5.4501 3.854033,-3.8114 C 13.616522,1024.7285 12.225958,1024.1367 10.735321,1024.1928 Z"/><path id="path7891" fill="#170000" fill-opacity=".207" stroke="none" d="m 12.126057,1024.3531 -1.329788,5.2861 4.709197,-2.6841 C 14.770414,1025.6163 13.58042,1024.6847 12.126057,1024.3531 Z"/><path id="path7893" fill="#170000" fill-opacity=".207" stroke="none" d="m 15.272149,1026.5627 -4.52584,3.0378 5.295437,1.1573 C 16.391572,1029.2711 16.130845,1027.7825 15.272149,1026.5627 Z"/><path id="path7895" fill="#170000" fill-opacity=".207" stroke="none" d="m 13.731889,1025.0504 -2.961454,4.5761 5.322745,-1.0243 C 15.828493,1027.098 15.001945,1025.8328 13.731889,1025.0504 Z"/><path id="path7897" fill="#170000" fill-opacity=".207" stroke="none" d="m 5.5916204,1028.3697 5.3151186,1.2086 -2.7910574,-4.6466 C 6.7940575,1025.6972 5.8899099,1026.9082 5.5916204,1028.3697 Z"/><path id="path7899" fill="#170000" fill-opacity=".207" stroke="none" d="m 5.4610498,1029.7016 5.4488712,-0.145 -3.8546776,-3.8109 C 5.9643022,1026.8146 5.3881563,1028.2117 5.4610498,1029.7016 Z"/><path id="path7901" fill="#170000" fill-opacity=".207" stroke="none" d="m 8.6055989,1034.4382 2.2563511,-4.9619 -5.1142494,1.7959 C 6.230692,1032.7211 7.2343077,1033.8511 8.6055989,1034.4382 Z"/><path id="path7903" fill="#170000" fill-opacity=".207" stroke="none" d="m 8.6055989,1034.4382 2.2563511,-4.9619 -5.1142494,1.7959 C 6.230692,1032.7211 7.2343077,1033.8511 8.6055989,1034.4382 Z"/><path id="path7905" fill="#170000" fill-opacity=".207" stroke="none" d="m 9.0611101,1034.6202 1.7934999,-5.1472 -4.9287444,2.2557 C 6.5392363,1033.1274 7.6419056,1034.1609 9.0611101,1034.6202 Z"/><path id="path7907" fill="#170000" fill-opacity=".207" stroke="none" d="m 10.03949,1034.8601 0.799234,-5.3918 -4.4199246,3.1377 C 7.2829289,1033.8653 8.5594202,1034.6743 10.03949,1034.8601 Z"/><path id="path7846" fill="url(#linearGradient7848)" fill-opacity="1" fill-rule="nonzero" stroke="none" stroke-width=".5" d="m -56.218754,16.140623 c 0,0.543655 -0.440719,0.984375 -0.984375,0.984375 -0.543655,0 -0.984375,-0.44072 -0.984375,-0.984375 0,-0.543655 0.44072,-0.984375 0.984375,-0.984375 C -56.659473,15.156248 -56.218754,15.596968 -56.218754,16.140623 Z" color="#000" display="inline" enable-background="accumulate" overflow="visible" transform="matrix(4.12264,0,0,4.12264,246.67454,963.1)" visibility="visible" style="marker:none"/><path id="path7909" fill="#1a1a1a" fill-opacity="1" fill-rule="nonzero" stroke="none" stroke-width=".5" d="m -56.218754,16.140623 c 0,0.543655 -0.440719,0.984375 -0.984375,0.984375 -0.543655,0 -0.984375,-0.44072 -0.984375,-0.984375 0,-0.543655 0.44072,-0.984375 0.984375,-0.984375 C -56.659473,15.156248 -56.218754,15.596968 -56.218754,16.140623 Z" color="#000" display="inline" enable-background="accumulate" overflow="visible" transform="matrix(3.3381203,0,0,3.3381203,201.79756,975.76263)" visibility="visible" style="marker:none"/></g><g id="g4352" transform="translate(0,-1.2797908)"><path id="path7929" fill="#1a1a1a" fill-opacity="1" fill-rule="nonzero" stroke="none" stroke-width=".5" d="m -56.218754,16.140623 c 0,0.543655 -0.440719,0.984375 -0.984375,0.984375 -0.543655,0 -0.984375,-0.44072 -0.984375,-0.984375 0,-0.543655 0.44072,-0.984375 0.984375,-0.984375 C -56.659473,15.156248 -56.218754,15.596968 -56.218754,16.140623 Z" color="#000" display="inline" enable-background="accumulate" overflow="visible" transform="matrix(6.3773866,0,0,6.3773866,401.95983,926.70698)" visibility="visible" style="marker:none"/><path id="path7931" fill="url(#linearGradient7957)" fill-opacity="1" fill-rule="nonzero" stroke="none" stroke-width=".5" d="m -56.218754,16.140623 c 0,0.543655 -0.440719,0.984375 -0.984375,0.984375 -0.543655,0 -0.984375,-0.44072 -0.984375,-0.984375 0,-0.543655 0.44072,-0.984375 0.984375,-0.984375 C -56.659473,15.156248 -56.218754,15.596968 -56.218754,16.140623 Z" color="#000" display="inline" enable-background="accumulate" overflow="visible" transform="matrix(5.375277,0,0,5.375277,344.63603,942.88165)" visibility="visible" style="marker:none"/><path id="path7933" fill="#170000" fill-opacity=".207" stroke="none" d="m 37.042051,1024.1928 0.08367,5.4501 3.854033,-3.8114 C 39.923252,1024.7285 38.532688,1024.1367 37.042051,1024.1928 Z"/><path id="path7935" fill="#170000" fill-opacity=".207" stroke="none" d="m 38.432787,1024.3531 -1.329788,5.2861 4.709197,-2.6841 C 41.077144,1025.6163 39.88715,1024.6847 38.432787,1024.3531 Z"/><path id="path7937" fill="#170000" fill-opacity=".207" stroke="none" d="m 41.578879,1026.5627 -4.52584,3.0378 5.295437,1.1573 C 42.698302,1029.2711 42.437575,1027.7825 41.578879,1026.5627 Z"/><path id="path7939" fill="#170000" fill-opacity=".207" stroke="none" d="m 40.038619,1025.0504 -2.961454,4.5761 5.322745,-1.0243 C 42.135223,1027.098 41.308675,1025.8328 40.038619,1025.0504 Z"/><path id="path7941" fill="#170000" fill-opacity=".207" stroke="none" d="m 31.89835,1028.3697 5.315119,1.2086 -2.791057,-4.6466 C 33.100788,1025.6972 32.19664,1026.9082 31.89835,1028.3697 Z"/><path id="path7943" fill="#170000" fill-opacity=".207" stroke="none" d="m 31.76778,1029.7016 5.448871,-0.145 -3.854678,-3.8109 C 32.271032,1026.8146 31.694886,1028.2117 31.76778,1029.7016 Z"/><path id="path7945" fill="#170000" fill-opacity=".207" stroke="none" d="m 34.912329,1034.4382 2.256351,-4.9619 -5.114249,1.7959 C 32.537422,1032.7211 33.541038,1033.8511 34.912329,1034.4382 Z"/><path id="path7947" fill="#170000" fill-opacity=".207" stroke="none" d="m 34.912329,1034.4382 2.256351,-4.9619 -5.114249,1.7959 C 32.537422,1032.7211 33.541038,1033.8511 34.912329,1034.4382 Z"/><path id="path7949" fill="#170000" fill-opacity=".207" stroke="none" d="m 35.36784,1034.6202 1.7935,-5.1472 -4.928744,2.2557 C 32.845966,1033.1274 33.948636,1034.1609 35.36784,1034.6202 Z"/><path id="path7951" fill="#170000" fill-opacity=".207" stroke="none" d="m 36.34622,1034.8601 0.799234,-5.3918 -4.419925,3.1377 C 33.589659,1033.8653 34.86615,1034.6743 36.34622,1034.8601 Z"/><path id="path7953" fill="url(#linearGradient7959)" fill-opacity="1" fill-rule="nonzero" stroke="none" stroke-width=".5" d="m -56.218754,16.140623 c 0,0.543655 -0.440719,0.984375 -0.984375,0.984375 -0.543655,0 -0.984375,-0.44072 -0.984375,-0.984375 0,-0.543655 0.44072,-0.984375 0.984375,-0.984375 C -56.659473,15.156248 -56.218754,15.596968 -56.218754,16.140623 Z" color="#000" display="inline" enable-background="accumulate" overflow="visible" transform="matrix(4.12264,0,0,4.12264,272.98127,963.1)" visibility="visible" style="marker:none"/><path id="path7955" fill="#1a1a1a" fill-opacity="1" fill-rule="nonzero" stroke="none" stroke-width=".5" d="m -56.218754,16.140623 c 0,0.543655 -0.440719,0.984375 -0.984375,0.984375 -0.543655,0 -0.984375,-0.44072 -0.984375,-0.984375 0,-0.543655 0.44072,-0.984375 0.984375,-0.984375 C -56.659473,15.156248 -56.218754,15.596968 -56.218754,16.140623 Z" color="#000" display="inline" enable-background="accumulate" overflow="visible" transform="matrix(3.3381203,0,0,3.3381203,228.10429,975.76263)" visibility="visible" style="marker:none"/></g><g id="g4388" transform="translate(0,-1.6270575e-5)"><path id="path4010" fill="#000" fill-opacity="1" stroke="none" d="m 26.25134,11.407224 c 0,1.562097 -1.26633,2.828427 -2.828427,2.828427 -1.562098,0 -2.828427,-1.26633 -2.828427,-2.828427 0,-1.5620974 1.266329,-2.8284274 2.828427,-2.8284274 C 24.98501,8.5787966 26.25134,9.8451266 26.25134,11.407224 Z" transform="matrix(1.0226895,0,0,1.0226895,0.04563612,1005.6342)"/><path id="path4012" fill="url(#radialGradient4028)" fill-opacity="1" stroke="none" d="m 26.25134,11.407224 c 0,1.562097 -1.26633,2.828427 -2.828427,2.828427 -1.562098,0 -2.828427,-1.26633 -2.828427,-2.828427 0,-1.5620974 1.266329,-2.8284274 2.828427,-2.8284274 C 24.98501,8.5787966 26.25134,9.8451266 26.25134,11.407224 Z" transform="matrix(0.89274836,0,0,0.89274836,3.0892361,1006.7489)"/><path id="path4036" fill="url(#radialGradient4054)" fill-opacity="1" stroke="none" d="m 26.25134,11.407224 c 0,1.562097 -1.26633,2.828427 -2.828427,2.828427 -1.562098,0 -2.828427,-1.26633 -2.828427,-2.828427 0,-1.5620974 1.266329,-2.8284274 2.828427,-2.8284274 C 24.98501,8.5787966 26.25134,9.8451266 26.25134,11.407224 Z" transform="matrix(1.615899,0,0,1.615899,-13.849059,998.49973)"/></g><g id="g4393" transform="translate(0,-0.17901738)"><path id="path4057" fill="#fff" fill-opacity=".235" stroke="none" d="m 9.6503912,1040.1686 0,4.3726 3.2514098,0 0,-1.1211 -1.905998,0 0,-3.2515 L 9.6503912,1040.1686 z m 25.0582878,0 0,4.3726 1.345412,0 0,-1.5415 0.728764,0 c 0.531238,0 0.55198,0.4537 0.588617,0.8688 0.01832,0.2259 0.04495,0.4529 0.112118,0.6727 l 1.345411,0 c -0.122123,-0.2016 -0.121828,-0.7392 -0.140147,-0.953 -0.04884,-0.5434 -0.278305,-0.9527 -0.644676,-1.093 0.445752,-0.1648 0.672706,-0.6414 0.672706,-1.0932 0,-0.8243 -0.666225,-1.2334 -1.429499,-1.2334 L 34.708679,1040.1686 z m 1.345412,1.0371 0.644675,0 c 0.51292,0 0.672706,0.1737 0.672706,0.4486 0,0.3907 -0.366293,0.4204 -0.616647,0.4204 l -0.700734,0 L 36.054091,1041.2057 Z" font-family="Helvetica Neue" font-size="6.808" font-stretch="normal" font-style="normal" font-variant="normal" font-weight="900" letter-spacing="0" text-anchor="start" word-spacing="0" writing-mode="lr-tb" style="text-align:start;line-height:125%;-inkscape-font-specification:Helvetica Neue Heavy"/><path id="path4350" fill="#000" fill-opacity=".667" stroke="none" d="m 9.6503912,1039.3686 0,4.3726 3.2514098,0 0,-1.1211 -1.905998,0 0,-3.2515 L 9.6503912,1039.3686 z m 25.0582878,0 0,4.3726 1.345412,0 0,-1.5415 0.728764,0 c 0.531238,0 0.55198,0.4537 0.588617,0.8688 0.01832,0.2259 0.04495,0.4529 0.112118,0.6727 l 1.345411,0 c -0.122123,-0.2016 -0.121828,-0.7392 -0.140147,-0.953 -0.04884,-0.5434 -0.278305,-0.9527 -0.644676,-1.093 0.445752,-0.1648 0.672706,-0.6414 0.672706,-1.0932 0,-0.8243 -0.666225,-1.2334 -1.429499,-1.2334 L 34.708679,1039.3686 z m 1.345412,1.0371 0.644675,0 c 0.51292,0 0.672706,0.1737 0.672706,0.4486 0,0.3907 -0.366293,0.4204 -0.616647,0.4204 l -0.700734,0 L 36.054091,1040.4057 Z" font-family="Helvetica Neue" font-size="6.808" font-stretch="normal" font-style="normal" font-variant="normal" font-weight="900" letter-spacing="0" text-anchor="start" word-spacing="0" writing-mode="lr-tb" style="text-align:start;line-height:125%;-inkscape-font-specification:Helvetica Neue Heavy"/><path font-style="normal" style="text-align:start;line-height:125%;-inkscape-font-specification:Helvetica Neue Heavy" id="path4348" fill="#5e5e5e" fill-opacity="1" stroke="none" d="m 9.6503912,1039.7688 0,4.3726 3.2514098,0 0,-1.1211 -1.905998,0 0,-3.2515 L 9.6503912,1039.7688 z m 25.0582878,0 0,4.3726 1.345412,0 0,-1.5415 0.728764,0 c 0.531238,0 0.55198,0.4537 0.588617,0.8688 0.01832,0.2259 0.04495,0.4529 0.112118,0.6727 l 1.345411,0 c -0.122123,-0.2016 -0.121828,-0.7392 -0.140147,-0.953 -0.04884,-0.5434 -0.278305,-0.9527 -0.644676,-1.093 0.445752,-0.1648 0.672706,-0.6414 0.672706,-1.0932 0,-0.8243 -0.666225,-1.2334 -1.429499,-1.2334 L 34.708679,1039.7688 z m 1.345412,1.0371 0.644675,0 c 0.51292,0 0.672706,0.1737 0.672706,0.4486 0,0.3907 -0.366293,0.4204 -0.616647,0.4204 l -0.700734,0 L 36.054091,1040.8059 Z" font-family="Helvetica Neue" font-size="6.808" font-stretch="normal" font-variant="normal" font-weight="900" letter-spacing="0" text-anchor="start" word-spacing="0" writing-mode="lr-tb"/></g></g></g></svg>