<svg xmlns="http://www.w3.org/2000/svg" xmlns:svg="http://www.w3.org/2000/svg" xmlns:xlink="http://www.w3.org/1999/xlink" id="svg2" width="48" height="48" version="1.1"><defs id="defs4"><linearGradient id="linearGradient893"><stop id="stop895" offset="0" stop-color="#000" stop-opacity="1"/><stop id="stop897" offset="1" stop-color="#000" stop-opacity="0"/></linearGradient><linearGradient id="linearGradient883"><stop id="stop885" offset="0" stop-color="#737376" stop-opacity="1"/><stop id="stop887" offset="1" stop-color="#9c9da4" stop-opacity="1"/></linearGradient><linearGradient id="linearGradient847"><stop id="stop849" offset="0" stop-color="#dedede" stop-opacity="1"/><stop id="stop851" offset="1" stop-color="#f1f1f1" stop-opacity="1"/></linearGradient><linearGradient id="linearGradient908-7"><stop id="stop910-5" offset="0" stop-color="#bebebe" stop-opacity="1"/><stop id="stop912-5" offset="1" stop-color="#dcdcdc" stop-opacity="1"/></linearGradient><linearGradient id="linearGradient995" x1="21.127" x2="21.127" y1="-1052.507" y2="-1004.61" gradientTransform="translate(3.2446289e-7,-2.0991406e-5)" gradientUnits="userSpaceOnUse" xlink:href="#linearGradient908-7"/><linearGradient id="linearGradient853" x1="25.732" x2="25.732" y1="-1048.502" y2="-1007.974" gradientTransform="matrix(0.99012348,0,0,0.95717572,0.23703386,-43.371745)" gradientUnits="userSpaceOnUse" xlink:href="#linearGradient847"/><linearGradient id="linearGradient889" x1="23.545" x2="23.545" y1="-1049.403" y2="-1007.073" gradientTransform="translate(0,-1.7382813e-5)" gradientUnits="userSpaceOnUse" xlink:href="#linearGradient883"/><radialGradient id="radialGradient899" cx="24" cy="71.801" r="20.594" fx="24" fy="71.801" gradientTransform="matrix(0.95899949,2.3692724e-8,0,0.04400608,0.98401231,1046.14)" gradientUnits="userSpaceOnUse" xlink:href="#linearGradient893"/></defs><metadata id="metadata7"/><g id="layer1" transform="translate(0,-1004.3622)"><rect id="rect2991-1" width="48" height="48" x="0" y="-1052.362" fill="url(#linearGradient995)" fill-opacity="1" stroke="none" ry="1.945" transform="scale(1,-1)"/><path id="rect846" fill="#000" fill-opacity="1" stroke="none" d="m 2.3244629e-6,1049.3622 0,1.0625 c 0,1.0773 0.8602229955371,1.9375 1.9374999755371,1.9375 l 44.1249957,0 c 1.07728,0 1.9375,-0.8602 1.9375,-1.9375 l 0,-1.0625 c 0,1.0773 -0.86022,1.9375 -1.9375,1.9375 l -44.1249957,0 C 0.86022532,1051.2997 2.3244629e-6,1050.4395 2.3244629e-6,1049.3622 Z"/><path id="rect4280" fill="#000" fill-opacity=".392" stroke="none" d="m 1.9375023,1004.3622 c -1.07727698,0 -1.9374999755371,0.8602 -1.9374999755371,1.9375 l 0,43.0625 c 0,0.7934 0.4800229955371,1.449 1.1562499755371,1.75 -0.30934198,-0.3333 -0.49999998,-0.7824 -0.49999998,-1.2812 l 0,-42.9375 c 0,-1.0482 0.82689898,-1.875 1.87499998,-1.875 l 42.9374957,0 c 1.0481,0 1.875,0.8268 1.875,1.875 l 0,42.9375 c 0,0.4988 -0.19065,0.9479 -0.5,1.2812 0.67623,-0.301 1.15625,-0.9566 1.15625,-1.75 l 0,-43.0625 c 0,-1.0773 -0.86022,-1.9375 -1.9375,-1.9375 L 1.9375023,1004.3622 Z"/><path id="path7515" fill="#fff" fill-opacity=".537" stroke="none" d="m 2.5312523,1005.0185 c -0.917089,0 -1.67114698,0.6395 -1.84374998,1.5 0.33561198,-0.2799 0.77451198,-0.4375 1.24999998,-0.4375 l 44.1249957,0 c 0.47549,0 0.91439,0.1576 1.25,0.4375 -0.1726,-0.8605 -0.92666,-1.5 -1.84375,-1.5 L 2.5312523,1005.0185 Z"/><rect id="rect839" width="42" height="42" x="3" y="-1049.362" fill="url(#linearGradient889)" fill-opacity="1" stroke="none" ry="1.701" transform="scale(1,-1)"/><rect id="rect843" width="41.2" height="41.2" x="3.4" y="-1048.962" fill="#f6f6f6" fill-opacity="1" stroke="none" ry="1.669" transform="scale(1,-1)"/><path id="path877" fill="#b2b2b2" fill-opacity="1" stroke="none" d="m 5.0625,1047.9247 -0.8125,0 c -0.4658323,0 -0.84375,-0.3901 -0.84375,-0.8437 l 0,0.2187 c 0,0.9247 0.7315869,1.6563 1.65625,1.6563 l 37.875,0 c 0.924663,0 1.65625,-0.7316 1.65625,-1.6563 l 0,-0.2187 c 0,0.4536 -0.377918,0.8437 -0.84375,0.8437 l -0.8125,0 -37.875,0 z"/><rect id="rect845" width="40.1" height="38.766" x="3.95" y="-1047.078" fill="url(#linearGradient853)" fill-opacity="1" stroke="none" ry="1.321" transform="scale(1,-1)"/><path id="rect867" fill="#737376" fill-opacity="1" stroke="none" d="m 3.3987317,1046.7396 0,0.3438 c 0,0.4536 0.4005762,0.8437 0.8664085,0.8437 l 39.4697198,0 c 0.465832,0 0.866408,-0.3901 0.866408,-0.8437 l 0,-0.3438 c 0,0.4537 -0.400576,0.8125 -0.866408,0.8125 l -39.4697198,0 c -0.4658323,0 -0.8664085,-0.3588 -0.8664085,-0.8125 z"/><path id="path891" fill="url(#radialGradient899)" fill-opacity="1" stroke="none" d="m 5.0625,1047.9247 -0.8125,0 c -0.4658323,0 -0.84375,-0.3901 -0.84375,-0.8437 l 0,0.2187 c 0,0.9247 0.7315869,1.6563 1.65625,1.6563 l 37.875,0 c 0.924663,0 1.65625,-0.7316 1.65625,-1.6563 l 0,-0.2187 c 0,0.4536 -0.377918,0.8437 -0.84375,0.8437 l -0.8125,0 -37.875,0 z" opacity=".5"/><path font-style="normal" style="text-align:start;line-height:125%;-inkscape-font-specification:Helvetica Neue" id="path915" fill="#000" fill-opacity=".474" stroke="none" d="m 19.821431,1032.8622 1.235294,0 1.008403,-2.7101 3.806723,0 0.983193,2.7101 1.323529,0 -3.516806,-9 -1.32353,0 -3.516806,9 z m 4.147058,-7.916 0.02521,0 1.499999,4.1975 -3.05042,0 1.525211,-4.1975 z" font-family="Helvetica Neue" font-size="12.605" font-stretch="normal" font-variant="normal" font-weight="normal" letter-spacing="0" text-anchor="start" word-spacing="0" writing-mode="lr-tb"/><path id="path918" fill="#fff" fill-opacity="1" stroke="none" d="m 23.96875,1024.9364 -1.53125,4.1875 0.15625,0 1.375,-3.75 0.03125,0 1.34375,3.75 0.15625,0 -1.5,-4.1875 -0.03125,0 z m -1.90625,5.1875 -1,2.7188 -1.09375,0 -0.15625,0.4375 1.25,0 1,-2.7188 3.8125,0 0.96875,2.7188 1.34375,0 -0.15625,-0.4375 -1.1875,0 -0.96875,-2.7188 -3.8125,0 z" font-family="Helvetica Neue" font-size="12.605" font-stretch="normal" font-style="normal" font-variant="normal" font-weight="normal" letter-spacing="0" text-anchor="start" word-spacing="0" writing-mode="lr-tb" style="text-align:start;line-height:125%;-inkscape-font-specification:Helvetica Neue"/><path id="path923" fill="#000" fill-opacity=".474" stroke="none" d="m 23.34375,1023.8622 -3.53125,9 0.1875,0 3.34375,-8.5 1.3125,0 3.34375,8.5 0.1875,0 -3.53125,-9 -1.3125,0 z m -0.71875,5.2813 -0.1875,0.5 3.0625,0 -0.1875,-0.5 -2.6875,0 z" font-family="Helvetica Neue" font-size="12.605" font-stretch="normal" font-style="normal" font-variant="normal" font-weight="normal" letter-spacing="0" text-anchor="start" word-spacing="0" writing-mode="lr-tb" style="text-align:start;line-height:125%;-inkscape-font-specification:Helvetica Neue"/></g></svg>