<svg xmlns="http://www.w3.org/2000/svg" xmlns:svg="http://www.w3.org/2000/svg" xmlns:xlink="http://www.w3.org/1999/xlink" id="svg2" width="48" height="48" version="1.1"><defs id="defs4"><linearGradient id="linearGradient16368"><stop id="stop16370" offset="0" stop-color="#1a1a1a" stop-opacity="1"/><stop id="stop16372" offset="1" stop-color="#1a1a1a" stop-opacity="0"/></linearGradient><linearGradient id="linearGradient3795-1-6"><stop id="stop1162" offset="0" stop-color="#000" stop-opacity="1"/><stop id="stop1164" offset="1" stop-color="#333" stop-opacity="1"/></linearGradient><linearGradient id="linearGradient1086"><stop id="stop1088" offset="0" stop-color="#e8e8e8" stop-opacity="1"/><stop id="stop1090" offset="1" stop-color="#fff" stop-opacity="1"/></linearGradient><linearGradient id="linearGradient3021"><stop id="stop3023" offset="0" stop-color="#60b5cc" stop-opacity="1"/><stop id="stop3025" offset="1" stop-color="#fff" stop-opacity="0"/></linearGradient><linearGradient id="linearGradient16335" x1="23.158" x2="23.158" y1="-1052.018" y2="-1004.456" gradientTransform="matrix(0.87499999,0,0,0.87499999,2.9999975,-128.54536)" gradientUnits="userSpaceOnUse" xlink:href="#linearGradient3795-1-6"/><linearGradient id="linearGradient16339" x1="23.158" x2="23.158" y1="-1052.018" y2="-1004.456" gradientTransform="matrix(0.74999998,0,0,0.74999998,5.9999978,-257.09062)" gradientUnits="userSpaceOnUse" xlink:href="#linearGradient1086"/><linearGradient id="linearGradient16343" x1="23.158" x2="23.158" y1="-1052.018" y2="-1004.456" gradientTransform="matrix(1.0682854,0,0,-0.64663125,-1.6388531,-653.43685)" gradientUnits="userSpaceOnUse" xlink:href="#linearGradient3021"/><linearGradient id="linearGradient16374" x1="-4.372" x2="6.505" y1="27.845" y2="27.845" gradientUnits="userSpaceOnUse" xlink:href="#linearGradient16368"/><linearGradient id="linearGradient16378" x1="-4.372" x2="6.505" y1="27.845" y2="27.845" gradientTransform="matrix(-1,0,0,1,48,1004.3622)" gradientUnits="userSpaceOnUse" xlink:href="#linearGradient16368"/><linearGradient id="linearGradient16384" x1="-4.372" x2="6.505" y1="27.845" y2="27.845" gradientTransform="matrix(0,-1,1,0,0,1052.3622)" gradientUnits="userSpaceOnUse" xlink:href="#linearGradient16368"/><linearGradient id="linearGradient16386" x1="-4.372" x2="6.505" y1="27.845" y2="27.845" gradientTransform="matrix(0,1,1,0,0,1004.3622)" gradientUnits="userSpaceOnUse" xlink:href="#linearGradient16368"/><linearGradient id="linearGradient6390-9"><stop id="stop6392-1" offset="0" stop-color="#fff" stop-opacity="1"/><stop id="stop6414-4" offset=".165" stop-color="#29282b" stop-opacity="1"/><stop id="stop6416-9" offset=".261" stop-color="#868c95" stop-opacity="1"/><stop id="stop6418-5" offset=".395" stop-color="#92979f" stop-opacity="1"/><stop id="stop6420-7" offset=".543" stop-color="#737881" stop-opacity="1"/><stop id="stop6422-6" offset=".626" stop-color="#70757e" stop-opacity="1"/><stop id="stop6424-0" offset=".721" stop-color="#e4e6e8" stop-opacity="1"/><stop id="stop6426-6" offset=".795" stop-color="#fff" stop-opacity="1"/><stop id="stop6394-5" offset="1" stop-color="#1d191a" stop-opacity="1"/></linearGradient><linearGradient id="linearGradient3310" x1="407.669" x2="407.669" y1="-555.928" y2="-495.714" gradientTransform="translate(-384.57144,-504.56422)" gradientUnits="userSpaceOnUse" xlink:href="#linearGradient6390-9"/></defs><metadata id="metadata7"/><g id="layer1" transform="translate(0,-1004.3622)"><rect id="rect2991-1-7" width="48" height="48" x="0" y="-1052.362" fill="url(#linearGradient3310)" fill-opacity="1" stroke="none" ry="1.945" transform="scale(1,-1)"/><rect id="rect4081" width="42" height="42" x="3" y="-1049.362" fill="#000" fill-opacity=".235" stroke="none" ry="1.701" transform="scale(1,-1)"/><path id="rect846" fill="#000" fill-opacity="1" stroke="none" d="m 0,1049.3622 0,1.0625 c 0,1.0773 0.860223,1.9375 1.9375,1.9375 l 44.125,0 c 1.077277,0 1.9375,-0.8602 1.9375,-1.9375 l 0,-1.0625 c 0,1.0773 -0.860223,1.9375 -1.9375,1.9375 l -44.125,0 C 0.860223,1051.2997 0,1050.4395 0,1049.3622 Z"/><path id="path7515" fill="#fff" fill-opacity=".537" stroke="none" d="m 2.53125,1005.0185 c -0.917088,0 -1.671146,0.6395 -1.84375,1.5 0.335612,-0.2799 0.774513,-0.4375 1.25,-0.4375 l 44.125,0 c 0.475488,0 0.914388,0.1576 1.25,0.4375 -0.172603,-0.8605 -0.926662,-1.5 -1.84375,-1.5 L 2.53125,1005.0185 Z"/><path id="rect4280" fill="#000" fill-opacity=".392" stroke="none" d="m 1.9375,1004.3622 c -1.077277,0 -1.9375,0.8602 -1.9375,1.9375 l 0,43.0625 c 0,0.7934 0.480024,1.449 1.15625,1.75 -0.309341,-0.3333 -0.5,-0.7824 -0.5,-1.2812 l 0,-42.9375 c 0,-1.0482 0.826899,-1.875 1.875,-1.875 l 42.9375,0 c 1.048101,0 1.875,0.8268 1.875,1.875 l 0,42.9375 c 0,0.4988 -0.190658,0.9479 -0.5,1.2812 0.676226,-0.301 1.15625,-0.9566 1.15625,-1.75 l 0,-43.0625 c 0,-1.0773 -0.860223,-1.9375 -1.9375,-1.9375 L 1.9375,1004.3622 Z"/><g id="g16491" transform="matrix(0.95238097,0,0,0.95238097,1.1428567,48.969608)"><rect id="rect16333" width="42" height="42" x="3" y="-1049.362" fill="url(#linearGradient16335)" fill-opacity="1" stroke="none" ry="1.701" transform="scale(1,-1)"/><rect id="rect16337" width="36" height="36" x="6" y="-1046.362" fill="url(#linearGradient16339)" fill-opacity="1" stroke="none" ry="1.458" transform="scale(1,-1)"/><g id="g16395" transform="translate(0,0.00505)"><path id="rect16388" fill="#fff" fill-opacity=".237" stroke="none" d="m 6,1044.8908 0,0.5625 c 0,0.808 0.660792,1.4688 1.46875,1.4688 l 33.0625,0 c 0.807958,0 1.46875,-0.6608 1.46875,-1.4688 l 0,-0.5625 c 0,0.808 -0.660792,1.4688 -1.46875,1.4688 l -33.0625,0 C 6.660792,1046.3596 6,1045.6988 6,1044.8908 Z"/><path id="path16393" fill="#fff" fill-opacity=".237" stroke="none" d="m 6,1011.8235 0,-0.5625 c 0,-0.808 0.660792,-1.4688 1.46875,-1.4688 l 33.0625,0 c 0.807958,0 1.46875,0.6608 1.46875,1.4688 l 0,0.5625 c 0,-0.808 -0.660792,-1.4688 -1.46875,-1.4688 l -33.0625,0 C 6.660792,1010.3547 6,1011.0155 6,1011.8235 Z"/></g><g id="g16399" transform="matrix(0,1,-1,0,1052.3572,1004.3622)"><path id="path16401" fill="#fff" fill-opacity=".237" stroke="none" d="m 6,1044.8908 0,0.5625 c 0,0.808 0.660792,1.4688 1.46875,1.4688 l 33.0625,0 c 0.807958,0 1.46875,-0.6608 1.46875,-1.4688 l 0,-0.5625 c 0,0.808 -0.660792,1.4688 -1.46875,1.4688 l -33.0625,0 C 6.660792,1046.3596 6,1045.6988 6,1044.8908 Z"/><path id="path16403" fill="#fff" fill-opacity=".237" stroke="none" d="m 6,1011.8235 0,-0.5625 c 0,-0.808 0.660792,-1.4688 1.46875,-1.4688 l 33.0625,0 c 0.807958,0 1.46875,0.6608 1.46875,1.4688 l 0,0.5625 c 0,-0.808 -0.660792,-1.4688 -1.46875,-1.4688 l -33.0625,0 C 6.660792,1010.3547 6,1011.0155 6,1011.8235 Z"/></g><path id="rect16341" fill="url(#linearGradient16343)" fill-opacity="1" stroke="none" d="M 4.6875,3 C 3.7448824,3 3,3.7448824 3,4.6875 l 0,22.375 42,0 0,-22.375 C 45,3.7448824 44.255118,3 43.3125,3 L 4.6875,3 Z" transform="translate(0,1004.3622)"/><path id="rect16352" fill="#0b8fb3" fill-opacity="1" stroke="none" d="m 3,1031.4247 0,0.3676 42,0 0,-0.3676 -42,0 z"/><path id="path16357" fill="#000" fill-opacity=".189" stroke="none" d="m 3,1031.255 0,0.1697 42,0 0,-0.1697 -42,0 z"/><path id="path16359" fill="#fff" fill-opacity=".189" stroke="none" d="m 3,1031.6226 0,0.1697 42,0 0,-0.1697 -42,0 z"/><path id="path16382" fill="url(#linearGradient16386)" fill-opacity="1" stroke="none" d="m 3,1009.0497 c 0,-0.9426 0.7449,-1.6875 1.6875,-1.6875 l 38.625,0 c 0.9426,0 1.6875,0.7449 1.6875,1.6875 l 0,2.875 -42,0 0,-2.875 z"/><path id="rect16361" fill="url(#linearGradient16374)" fill-opacity="1" stroke="none" d="M 4.6875,3 C 3.7448824,3 3,3.7448824 3,4.6875 l 0,38.625 C 3,44.255118 3.7448824,45 4.6875,45 l 2.875,0 0,-42 -2.875,0 z" transform="translate(0,1004.3622)"/><path id="path16376" fill="url(#linearGradient16378)" fill-opacity="1" stroke="none" d="m 43.3125,1007.3622 c 0.942618,0 1.6875,0.7449 1.6875,1.6875 l 0,38.625 c 0,0.9426 -0.744882,1.6875 -1.6875,1.6875 l -2.875,0 0,-42 2.875,0 z"/><path id="path16380" fill="url(#linearGradient16384)" fill-opacity="1" stroke="none" d="m 3,1047.6747 c 0,0.9426 0.7448824,1.6875 1.6875,1.6875 l 38.625,0 c 0.942618,0 1.6875,-0.7449 1.6875,-1.6875 l 0,-2.875 -42,0 0,2.875 z"/></g></g></svg>