<svg xmlns="http://www.w3.org/2000/svg" xmlns:svg="http://www.w3.org/2000/svg" xmlns:xlink="http://www.w3.org/1999/xlink" id="svg2" width="48" height="48" version="1.1"><defs id="defs4"><linearGradient id="linearGradient4072"><stop id="stop4074" offset="0" stop-color="#c34000" stop-opacity="1"/><stop id="stop4076" offset="1" stop-color="#ff7531" stop-opacity="1"/></linearGradient><linearGradient id="linearGradient859"><stop id="stop861" offset="0" stop-color="#ffae00" stop-opacity="1"/><stop id="stop863" offset="1" stop-color="#fcdb00" stop-opacity="1"/></linearGradient><linearGradient id="ButtonShadow" x1="45.448" x2="45.448" y1="92.54" y2="7.017" gradientTransform="scale(1.0058652,0.994169)" gradientUnits="userSpaceOnUse"><stop id="stop3750" offset="0" stop-color="#000" stop-opacity="1"/><stop id="stop3752" offset="1" stop-color="#000" stop-opacity=".588"/></linearGradient><linearGradient id="linearGradient3737"><stop id="stop3739" offset="0" stop-color="#fff" stop-opacity="1"/><stop id="stop3741" offset="1" stop-color="#fff" stop-opacity="0"/></linearGradient><filter id="filter3174" color-interpolation-filters="sRGB"><feGaussianBlur id="feGaussianBlur3176" stdDeviation="1.71"/></filter><filter id="filter3794" width="1.384" height="1.384" x="-.192" y="-.192" color-interpolation-filters="sRGB"><feGaussianBlur id="feGaussianBlur3796" stdDeviation="5.28"/></filter><linearGradient id="linearGradient3613" x1="48" x2="48" y1="20.221" y2="138.661" gradientUnits="userSpaceOnUse" xlink:href="#linearGradient3737"/><clipPath id="clipPath3613"><rect id="rect3615" width="84" height="84" x="6" y="6" fill="#fff" fill-opacity="1" fill-rule="nonzero" stroke="none" rx="6" ry="6"/></clipPath><linearGradient id="linearGradient865" x1="19.98" x2="19.98" y1="-1052.522" y2="-1004.73" gradientUnits="userSpaceOnUse" xlink:href="#linearGradient859"/><linearGradient id="linearGradient4078" x1="35.936" x2="35.936" y1="1043.92" y2="1013.118" gradientUnits="userSpaceOnUse" xlink:href="#linearGradient4072"/></defs><metadata id="metadata7"/><g id="layer1" transform="translate(0,-1004.3622)"><g id="layer2" display="none" transform="translate(-126.31865,964.9772)"><rect id="rect3745" width="86" height="85" x="5" y="7" fill="url(#ButtonShadow)" fill-opacity="1" fill-rule="nonzero" stroke="none" filter="url(#filter3174)" opacity=".9" rx="6" ry="6"/></g><g id="layer5" display="none" transform="translate(-126.31865,964.9772)"><rect id="rect3171" width="66" height="66" x="15" y="15" fill="url(#linearGradient3613)" fill-opacity="1" fill-rule="nonzero" stroke="#fff" stroke-dasharray="none" stroke-dashoffset="0" stroke-linecap="round" stroke-linejoin="miter" stroke-miterlimit="4" stroke-opacity="1" stroke-width=".5" clip-path="url(#clipPath3613)" filter="url(#filter3794)" opacity=".1" rx="12" ry="12"/></g><rect id="rect2991-1" width="48" height="48" x="0" y="-1052.362" fill="url(#linearGradient865)" fill-opacity="1" stroke="none" ry="1.945" transform="scale(1,-1)"/><path d="m 24.000001,1014.1622 -17.7761735,30.8 35.5523455,0 -17.776172,-30.8 z m -1.864845,11.2793 3.729688,0 -0.511327,11.8809 -2.676954,0 -0.541407,-11.8809 z m 0.240626,13.5953 3.308594,0 0,3.068 -3.308594,0 0,-3.068 z" style="marker:none" id="path4070" fill="#000" fill-opacity=".059" fill-rule="nonzero" stroke="none" stroke-width=".2" color="#000" display="inline" enable-background="accumulate" overflow="visible" visibility="visible"/><path id="path4068" fill="#000" fill-opacity=".118" fill-rule="nonzero" stroke="none" stroke-width=".2" d="m 24.000001,1013.7622 -17.7761735,30.8 35.5523455,0 -17.776172,-30.8 z m -1.864845,11.2793 3.729688,0 -0.511327,11.8809 -2.676954,0 -0.541407,-11.8809 z m 0.240626,13.5953 3.308594,0 0,3.068 -3.308594,0 0,-3.068 z" color="#000" display="inline" enable-background="accumulate" overflow="visible" visibility="visible" style="marker:none"/><path d="m 24.000001,1013.3622 -17.7761735,30.8 35.5523455,0 -17.776172,-30.8 z m -1.864845,11.2793 3.729688,0 -0.511327,11.8809 -2.676954,0 -0.541407,-11.8809 z m 0.240626,13.5953 3.308594,0 0,3.068 -3.308594,0 0,-3.068 z" style="marker:none" id="path4066" fill="#000" fill-opacity=".235" fill-rule="nonzero" stroke="none" stroke-width=".2" color="#000" display="inline" enable-background="accumulate" overflow="visible" visibility="visible"/><path id="rect846" fill="#000" fill-opacity="1" stroke="none" d="m -3.4576416e-8,1049.3622 0,1.0625 c 0,1.0773 0.860223004576416,1.9375 1.937500034576416,1.9375 l 44.125,0 c 1.077277,0 1.9375,-0.8602 1.9375,-1.9375 l 0,-1.0625 c 0,1.0773 -0.860223,1.9375 -1.9375,1.9375 l -44.125,0 C 0.86022297,1051.2997 -3.4576416e-8,1050.4395 -3.4576416e-8,1049.3622 Z"/><path id="path7515" fill="#fff" fill-opacity=".537" stroke="none" d="m 2.53125,1005.0185 c -0.917088,0 -1.67114603,0.6395 -1.84375003,1.5 C 1.023112,1006.2386 1.462012,1006.081 1.9375,1006.081 l 44.125,0 c 0.475488,0 0.914388,0.1576 1.25,0.4375 -0.172603,-0.8605 -0.926662,-1.5 -1.84375,-1.5 L 2.53125,1005.0185 Z"/><path id="rect4280" fill="#000" fill-opacity=".392" stroke="none" d="m 1.9375,1004.3622 c -1.07727703,0 -1.937500034576416,0.8602 -1.937500034576416,1.9375 l 0,43.0625 c 0,0.7934 0.480024004576416,1.449 1.156250034576416,1.75 -0.30934103,-0.3333 -0.50000003,-0.7824 -0.50000003,-1.2812 l 0,-42.9375 c 0,-1.0482 0.82689903,-1.875 1.87500003,-1.875 l 42.9375,0 c 1.048101,0 1.875,0.8268 1.875,1.875 l 0,42.9375 c 0,0.4988 -0.190658,0.9479 -0.5,1.2812 0.676226,-0.301 1.15625,-0.9566 1.15625,-1.75 l 0,-43.0625 c 0,-1.0773 -0.860223,-1.9375 -1.9375,-1.9375 L 1.9375,1004.3622 Z"/><path id="path895" fill="url(#linearGradient4078)" fill-opacity="1" fill-rule="nonzero" stroke="none" stroke-width=".2" d="m 24.000001,1012.9622 -17.7761735,30.8 35.5523455,0 -17.776172,-30.8 z m -1.864845,11.2793 3.729688,0 -0.511327,11.8809 -2.676954,0 -0.541407,-11.8809 z m 0.240626,13.5953 3.308594,0 0,3.068 -3.308594,0 0,-3.068 z" color="#000" display="inline" enable-background="accumulate" overflow="visible" visibility="visible" style="marker:none"/><path id="path4080" fill="#000" fill-opacity=".314" fill-rule="nonzero" stroke="none" stroke-width=".2" d="M 22.134766 19.080078 L 22.171875 19.878906 L 25.830078 19.878906 L 25.865234 19.080078 L 22.134766 19.080078 z M 22.375 32.673828 L 22.375 33.474609 L 25.683594 33.474609 L 25.683594 32.673828 L 22.375 32.673828 z M 6.6875 38.599609 L 6.2246094 39.400391 L 41.775391 39.400391 L 41.3125 38.599609 L 6.6875 38.599609 z" color="#000" display="inline" enable-background="accumulate" overflow="visible" transform="translate(0,1004.3622)" visibility="visible" style="marker:none"/><path id="path4085" fill="#fff" fill-opacity=".235" fill-rule="nonzero" stroke="none" stroke-width=".2" d="M 24 8.5996094 L 6.2246094 39.400391 L 6.4550781 39.400391 L 24 9 L 41.544922 39.400391 L 41.775391 39.400391 L 24 8.5996094 z M 22.134766 20.279297 L 22.675781 32.160156 L 25.353516 32.160156 L 25.865234 20.279297 L 25.847656 20.279297 L 25.353516 31.759766 L 22.675781 31.759766 L 22.152344 20.279297 L 22.134766 20.279297 z M 22.375 36.542969 L 22.375 36.943359 L 25.683594 36.943359 L 25.683594 36.542969 L 22.375 36.542969 z" color="#000" display="inline" enable-background="accumulate" overflow="visible" transform="translate(0,1004.3622)" visibility="visible" style="marker:none"/></g></svg>