<svg xmlns="http://www.w3.org/2000/svg" xmlns:svg="http://www.w3.org/2000/svg" xmlns:xlink="http://www.w3.org/1999/xlink" id="svg2" width="48" height="48" version="1.1" viewBox="0 0 48 48"><metadata id="metadata30"/><defs id="defs4"><linearGradient id="linearGradient5561-0" x1="27.224" x2="27.224" y1="-1052.384" y2="-1004.332" gradientTransform="translate(-3.1091309e-7,1004.3622)" gradientUnits="userSpaceOnUse" xlink:href="#linearGradient5555-1"/><linearGradient id="linearGradient4062" x1="61.353" x2="61.353" y1="39.397" y2="8.592" gradientTransform="matrix(0.99997461,0,0,0.99997462,-37.281647,0.001)" gradientUnits="userSpaceOnUse" xlink:href="#linearGradient4088"/><linearGradient id="linearGradient4088"><stop id="stop4090" offset="0" stop-color="#befade" stop-opacity="1"/><stop id="stop4092" offset="1" stop-color="#f6fefa" stop-opacity="1"/></linearGradient><linearGradient id="linearGradient5555-1"><stop id="stop5557-9" offset="0" stop-color="#0a874c" stop-opacity="1"/><stop id="stop5559-0" offset="1" stop-color="#0aa35b" stop-opacity="1"/></linearGradient></defs><rect id="rect2991-1-7-2" width="48" height="48" x="0" y="-48" fill="url(#linearGradient5561-0)" fill-opacity="1" stroke="none" ry="1.945" transform="scale(1,-1)"/><path id="path4089" fill="#000" fill-opacity=".059" fill-rule="evenodd" stroke="none" d="M 8.5996094 9.8007812 L 8.5996094 16.798828 L 15.962891 16.798828 L 15.962891 9.8007812 L 8.5996094 9.8007812 z M 17.958984 9.8007812 L 17.958984 16.798828 L 39.400391 16.798828 L 39.400391 9.8007812 L 17.958984 9.8007812 z M 8.5996094 21.699219 L 8.5996094 28.699219 L 15.962891 28.699219 L 15.962891 21.699219 L 8.5996094 21.699219 z M 17.958984 21.699219 L 17.958984 28.699219 L 39.400391 28.699219 L 39.400391 21.699219 L 17.958984 21.699219 z M 8.5996094 33.599609 L 8.5996094 40.599609 L 15.962891 40.599609 L 15.962891 33.599609 L 8.5996094 33.599609 z M 17.958984 33.599609 L 17.958984 40.599609 L 39.400391 40.599609 L 39.400391 33.599609 L 17.958984 33.599609 z"/><path id="path4087" fill="#000" fill-opacity=".118" fill-rule="evenodd" stroke="none" d="M 8.5996094 9.4003906 L 8.5996094 16.400391 L 15.962891 16.400391 L 15.962891 9.4003906 L 8.5996094 9.4003906 z M 17.958984 9.4003906 L 17.958984 16.400391 L 39.400391 16.400391 L 39.400391 9.4003906 L 17.958984 9.4003906 z M 8.5996094 21.300781 L 8.5996094 28.300781 L 15.962891 28.300781 L 15.962891 21.300781 L 8.5996094 21.300781 z M 17.958984 21.300781 L 17.958984 28.300781 L 39.400391 28.300781 L 39.400391 21.300781 L 17.958984 21.300781 z M 8.5996094 33.201172 L 8.5996094 40.199219 L 15.962891 40.199219 L 15.962891 33.201172 L 8.5996094 33.201172 z M 17.958984 33.201172 L 17.958984 40.199219 L 39.400391 40.199219 L 39.400391 33.201172 L 17.958984 33.201172 z"/><path id="path4083" fill="#000" fill-opacity=".235" fill-rule="evenodd" stroke="none" d="M 8.5996094 9 L 8.5996094 16 L 15.962891 16 L 15.962891 9 L 8.5996094 9 z M 17.958984 9 L 17.958984 16 L 39.400391 16 L 39.400391 9 L 17.958984 9 z M 8.5996094 20.900391 L 8.5996094 27.900391 L 15.962891 27.900391 L 15.962891 20.900391 L 8.5996094 20.900391 z M 17.958984 20.900391 L 17.958984 27.900391 L 39.400391 27.900391 L 39.400391 20.900391 L 17.958984 20.900391 z M 8.5996094 32.800781 L 8.5996094 39.800781 L 15.962891 39.800781 L 15.962891 32.800781 L 8.5996094 32.800781 z M 17.958984 32.800781 L 17.958984 39.800781 L 39.400391 39.800781 L 39.400391 32.800781 L 17.958984 32.800781 z"/><path id="rect846-3" fill="#000" fill-opacity="1" stroke="none" d="m -6.3109131e-6,45 0,1.0625 C -6.3109131e-6,47.1398 0.86021369,48 1.9374937,48 l 44.1249993,0 c 1.07728,0 1.9375,-0.8602 1.9375,-1.9375 l 0,-1.0625 c 0,1.0773 -0.86022,1.9375 -1.9375,1.9375 l -44.1249993,0 C 0.86021369,46.9375 -6.3109131e-6,46.0773 -6.3109131e-6,45 Z"/><path id="path7515-3" fill="#fff" fill-opacity=".537" stroke="none" d="m 2.5312437,0.6563 c -0.91709,0 -1.67115001,0.6395 -1.84375001,1.5 C 1.0231037,1.8764 1.4620037,1.7188 1.9374937,1.7188 l 44.1249993,0 c 0.47549,0 0.91439,0.1576 1.25,0.4375 -0.1726,-0.8605 -0.92666,-1.5 -1.84375,-1.5 l -42.9374993,0 z"/><path id="rect4280-2" fill="#000" fill-opacity=".392" stroke="none" d="M 1.9374937,0 C 0.86021369,0 -6.3109131e-6,0.8602 -6.3109131e-6,1.9375 l 0,43.0625 c 0,0.7934 0.4800200009131,1.449 1.1562500109131,1.75 C 0.84690369,46.4167 0.65624369,45.9676 0.65624369,45.4688 l 0,-42.9375 c 0,-1.0482 0.82690001,-1.875 1.87500001,-1.875 l 42.9374993,0 c 1.0481,0 1.875,0.8268 1.875,1.875 l 0,42.9375 c 0,0.4988 -0.19066,0.9479 -0.5,1.2812 0.67623,-0.301 1.15625,-0.9566 1.15625,-1.75 l 0,-43.0625 C 47.999993,0.8602 47.139773,0 46.062493,0 L 1.9374937,0 Z"/><path id="rect3249" fill="url(#linearGradient4062)" fill-opacity="1" fill-rule="evenodd" stroke="none" d="M 8.5996094 8.5996094 L 8.5996094 15.599609 L 15.962891 15.599609 L 15.962891 8.5996094 L 8.5996094 8.5996094 z M 17.958984 8.5996094 L 17.958984 15.599609 L 39.400391 15.599609 L 39.400391 8.5996094 L 17.958984 8.5996094 z M 8.5996094 20.5 L 8.5996094 27.5 L 15.962891 27.5 L 15.962891 20.5 L 8.5996094 20.5 z M 17.958984 20.5 L 17.958984 27.5 L 39.400391 27.5 L 39.400391 20.5 L 17.958984 20.5 z M 8.5996094 32.400391 L 8.5996094 39.400391 L 15.962891 39.400391 L 15.962891 32.400391 L 8.5996094 32.400391 z M 17.958984 32.400391 L 17.958984 39.400391 L 39.400391 39.400391 L 39.400391 32.400391 L 17.958984 32.400391 z"/><path id="path4073" fill="#0a884c" fill-opacity=".196" fill-rule="evenodd" stroke="none" d="M 8.5996094 14.800781 L 8.5996094 15.599609 L 15.962891 15.599609 L 15.962891 14.800781 L 8.5996094 14.800781 z M 17.958984 14.800781 L 17.958984 15.599609 L 39.400391 15.599609 L 39.400391 14.800781 L 17.958984 14.800781 z M 8.5996094 26.701172 L 8.5996094 27.5 L 15.962891 27.5 L 15.962891 26.701172 L 8.5996094 26.701172 z M 17.958984 26.701172 L 17.958984 27.5 L 39.400391 27.5 L 39.400391 26.701172 L 17.958984 26.701172 z M 8.5996094 38.599609 L 8.5996094 39.400391 L 15.962891 39.400391 L 15.962891 38.599609 L 8.5996094 38.599609 z M 17.958984 38.599609 L 17.958984 39.400391 L 39.400391 39.400391 L 39.400391 38.599609 L 17.958984 38.599609 z"/><path id="path4078" fill="#fff" fill-opacity=".235" fill-rule="evenodd" stroke="none" d="M 8.5996094 8.5996094 L 8.5996094 9 L 15.962891 9 L 15.962891 8.5996094 L 8.5996094 8.5996094 z M 17.958984 8.5996094 L 17.958984 9 L 39.400391 9 L 39.400391 8.5996094 L 17.958984 8.5996094 z M 8.5996094 20.5 L 8.5996094 20.900391 L 15.962891 20.900391 L 15.962891 20.5 L 8.5996094 20.5 z M 17.958984 20.5 L 17.958984 20.900391 L 39.400391 20.900391 L 39.400391 20.5 L 17.958984 20.5 z M 8.5996094 32.400391 L 8.5996094 32.800781 L 15.962891 32.800781 L 15.962891 32.400391 L 8.5996094 32.400391 z M 17.958984 32.400391 L 17.958984 32.800781 L 39.400391 32.800781 L 39.400391 32.400391 L 17.958984 32.400391 z"/></svg>