<svg xmlns="http://www.w3.org/2000/svg" xmlns:svg="http://www.w3.org/2000/svg" xmlns:xlink="http://www.w3.org/1999/xlink" id="svg2" width="48" height="48" version="1.1"><metadata id="metadata30"/><defs id="defs4"><linearGradient id="linearGradient4247"><stop id="stop4249" offset="0" stop-color="#c0d8f8" stop-opacity="1"/><stop id="stop4251" offset="1" stop-color="#f6f9fe" stop-opacity="1"/></linearGradient><linearGradient id="linearGradient5555"><stop id="stop5557" offset="0" stop-color="#2d7ce6" stop-opacity="1"/><stop id="stop5559" offset="1" stop-color="#4990f1" stop-opacity="1"/></linearGradient><linearGradient id="linearGradient5561-0" x1="27.224" x2="27.224" y1="-1052.384" y2="-1004.332" gradientTransform="translate(-3.1091309e-7,1004.3622)" gradientUnits="userSpaceOnUse" xlink:href="#linearGradient5555"/><linearGradient id="linearGradient4245" x1="25" x2="25" y1="40" y2="7.96" gradientTransform="matrix(0.9625,0,0,0.9625,0.9,0.9)" gradientUnits="userSpaceOnUse" xlink:href="#linearGradient4247"/></defs><rect id="rect2991-1-7-2" width="48" height="48" x="0" y="-48" fill="url(#linearGradient5561-0)" fill-opacity="1" stroke="none" ry="1.945" transform="scale(1,-1)"/><path id="path4269" fill="#000" fill-opacity=".059" stroke="none" stroke-dasharray="none" stroke-miterlimit="4" stroke-opacity=".55" stroke-width="2.8" d="m 8.6,9.8 0,24.0625 12.753125,0 8.421875,6.7375 0,-6.7375 9.625,0 0,-24.0625 -30.8,0 z m 14.211914,4.8125 1.558423,0 -1.000098,3.804883 2.808545,0 1.009497,-3.804883 1.539624,0 -0.990698,3.804883 3.000293,0 0,1.411792 -3.376269,0 -0.787672,3.060449 3.058569,0 0,1.402393 -3.434545,0 -1.000097,3.795483 -1.539625,0 0.990698,-3.795483 -2.817944,0 -0.990698,3.795483 -1.547144,0 1.000099,-3.795483 -3.030372,0 0,-1.402393 3.385669,0 0.80835,-3.060449 -3.098047,0 0,-1.411792 3.472143,0 0.981299,-3.804883 z m 0.203027,5.216675 -0.808349,3.060449 2.817944,0 0.787671,-3.060449 -2.797266,0 z" opacity="1"/><path id="path4267" fill="#000" fill-opacity=".118" stroke="none" stroke-dasharray="none" stroke-miterlimit="4" stroke-opacity=".55" stroke-width="2.8" d="m 8.6,9.4 0,24.0625 12.753125,0 8.421875,6.7375 0,-6.7375 9.625,0 0,-24.0625 -30.8,0 z m 14.211914,4.8125 1.558423,0 -1.000098,3.804883 2.808545,0 1.009497,-3.804883 1.539624,0 -0.990698,3.804883 3.000293,0 0,1.411792 -3.376269,0 -0.787672,3.060449 3.058569,0 0,1.402393 -3.434545,0 -1.000097,3.795483 -1.539625,0 0.990698,-3.795483 -2.817944,0 -0.990698,3.795483 -1.547144,0 1.000099,-3.795483 -3.030372,0 0,-1.402393 3.385669,0 0.80835,-3.060449 -3.098047,0 0,-1.411792 3.472143,0 0.981299,-3.804883 z m 0.203027,5.216675 -0.808349,3.060449 2.817944,0 0.787671,-3.060449 -2.797266,0 z" opacity="1"/><path id="path4263" fill="#000" fill-opacity=".235" stroke="none" stroke-dasharray="none" stroke-miterlimit="4" stroke-opacity=".55" stroke-width="2.8" d="m 8.6,9 0,24.0625 12.753125,0 8.421875,6.7375 0,-6.7375 9.625,0 L 39.4,9 8.6,9 Z m 14.211914,4.8125 1.558423,0 -1.000098,3.804883 2.808545,0 1.009497,-3.804883 1.539624,0 -0.990698,3.804883 3.000293,0 0,1.411792 -3.376269,0 -0.787672,3.060449 3.058569,0 0,1.402393 -3.434545,0 -1.000097,3.795483 -1.539625,0 0.990698,-3.795483 -2.817944,0 -0.990698,3.795483 -1.547144,0 1.000099,-3.795483 -3.030372,0 0,-1.402393 3.385669,0 0.80835,-3.060449 -3.098047,0 0,-1.411792 3.472143,0 0.981299,-3.804883 z m 0.203027,5.216675 -0.808349,3.060449 2.817944,0 0.787671,-3.060449 -2.797266,0 z" opacity="1"/><path id="rect846-3" fill="#000" fill-opacity="1" stroke="none" d="m -6.3109131e-6,45 0,1.0625 C -6.3109131e-6,47.1398 0.86021369,48 1.9374937,48 l 44.1249993,0 c 1.07728,0 1.9375,-0.8602 1.9375,-1.9375 l 0,-1.0625 c 0,1.0773 -0.86022,1.9375 -1.9375,1.9375 l -44.1249993,0 C 0.86021369,46.9375 -6.3109131e-6,46.0773 -6.3109131e-6,45 Z"/><path id="path7515-3" fill="#fff" fill-opacity=".537" stroke="none" d="m 2.5312437,0.6563 c -0.91709,0 -1.67115001,0.6395 -1.84375001,1.5 C 1.0231037,1.8764 1.4620037,1.7188 1.9374937,1.7188 l 44.1249993,0 c 0.47549,0 0.91439,0.1576 1.25,0.4375 -0.1726,-0.8605 -0.92666,-1.5 -1.84375,-1.5 l -42.9374993,0 z"/><path id="rect4280-2" fill="#000" fill-opacity=".392" stroke="none" d="M 1.9374937,0 C 0.86021369,0 -6.3109131e-6,0.8602 -6.3109131e-6,1.9375 l 0,43.0625 c 0,0.7934 0.4800200009131,1.449 1.1562500109131,1.75 C 0.84690369,46.4167 0.65624369,45.9676 0.65624369,45.4688 l 0,-42.9375 c 0,-1.0482 0.82690001,-1.875 1.87500001,-1.875 l 42.9374993,0 c 1.0481,0 1.875,0.8268 1.875,1.875 l 0,42.9375 c 0,0.4988 -0.19066,0.9479 -0.5,1.2812 0.67623,-0.301 1.15625,-0.9566 1.15625,-1.75 l 0,-43.0625 C 47.999993,0.8602 47.139773,0 46.062493,0 L 1.9374937,0 Z"/><path id="rect4225" fill="url(#linearGradient4245)" fill-opacity="1" stroke="none" stroke-dasharray="none" stroke-miterlimit="4" stroke-opacity=".55" stroke-width="2.8" d="m 8.6,8.6 0,24.0625 12.753125,0 8.421875,6.7375 0,-6.7375 9.625,0 0,-24.0625 -30.8,0 z m 14.211914,4.8125 1.558423,0 -1.000098,3.804883 2.808545,0 1.009497,-3.804883 1.539624,0 -0.990698,3.804883 3.000293,0 0,1.411792 -3.376269,0 -0.787672,3.060449 3.058569,0 0,1.402393 -3.434545,0 -1.000097,3.795483 -1.539625,0 0.990698,-3.795483 -2.817944,0 -0.990698,3.795483 -1.547144,0 1.000099,-3.795483 -3.030372,0 0,-1.402393 3.385669,0 0.80835,-3.060449 -3.098047,0 0,-1.411792 3.472143,0 0.981299,-3.804883 z m 0.203027,5.216675 -0.808349,3.060449 2.817944,0 0.787671,-3.060449 -2.797266,0 z" opacity="1"/><path id="path4271" fill="#2f7ee7" fill-opacity=".314" stroke="none" stroke-dasharray="none" stroke-miterlimit="4" stroke-opacity=".55" stroke-width="2.8" d="M 22.8125 12.613281 L 21.830078 16.417969 L 18.359375 16.417969 L 18.359375 17.216797 L 21.830078 17.216797 L 22.8125 13.412109 L 24.162109 13.412109 L 24.371094 12.613281 L 22.8125 12.613281 z M 27.1875 12.613281 L 26.179688 16.417969 L 23.580078 16.417969 L 23.371094 17.216797 L 26.179688 17.216797 L 27.1875 13.412109 L 28.519531 13.412109 L 28.728516 12.613281 L 27.1875 12.613281 z M 27.945312 16.417969 L 27.736328 17.216797 L 30.738281 17.216797 L 30.738281 16.417969 L 27.945312 16.417969 z M 21.246094 18.628906 L 20.648438 20.888672 L 17.261719 20.888672 L 17.261719 21.689453 L 20.648438 21.689453 L 21.457031 18.628906 L 21.246094 18.628906 z M 25.607422 18.628906 L 25.025391 20.888672 L 22.417969 20.888672 L 22.207031 21.689453 L 25.025391 21.689453 L 25.8125 18.628906 L 25.607422 18.628906 z M 26.779297 20.888672 L 26.574219 21.689453 L 29.632812 21.689453 L 29.632812 20.888672 L 26.779297 20.888672 z M 20.082031 23.091797 L 19.292969 26.087891 L 19.503906 26.087891 L 20.292969 23.091797 L 20.082031 23.091797 z M 24.439453 23.091797 L 23.658203 26.087891 L 23.867188 26.087891 L 24.648438 23.091797 L 24.439453 23.091797 z M 8.5996094 31.863281 L 8.5996094 32.662109 L 21.353516 32.662109 L 29.775391 39.400391 L 29.775391 38.599609 L 21.353516 31.863281 L 8.5996094 31.863281 z M 29.775391 31.863281 L 29.775391 32.662109 L 39.400391 32.662109 L 39.400391 31.863281 L 29.775391 31.863281 z" opacity="1"/><path id="path4276" fill="#fff" fill-opacity=".235" stroke="none" stroke-dasharray="none" stroke-miterlimit="4" stroke-opacity=".55" stroke-width="2.8" d="M 8.5996094 8.5996094 L 8.5996094 9 L 39.400391 9 L 39.400391 8.5996094 L 8.5996094 8.5996094 z M 24.265625 13.8125 L 23.371094 17.216797 L 23.476562 17.216797 L 24.371094 13.8125 L 24.265625 13.8125 z M 28.625 13.8125 L 27.736328 17.216797 L 27.839844 17.216797 L 28.728516 13.8125 L 28.625 13.8125 z M 18.359375 18.628906 L 18.359375 19.029297 L 21.351562 19.029297 L 21.457031 18.628906 L 18.359375 18.628906 z M 23.015625 18.628906 L 22.207031 21.689453 L 22.3125 21.689453 L 23.015625 19.029297 L 25.708984 19.029297 L 25.8125 18.628906 L 23.015625 18.628906 z M 27.361328 18.628906 L 26.574219 21.689453 L 26.677734 21.689453 L 27.361328 19.029297 L 30.738281 19.029297 L 30.738281 18.628906 L 27.361328 18.628906 z M 17.261719 23.091797 L 17.261719 23.492188 L 20.1875 23.492188 L 20.292969 23.091797 L 17.261719 23.091797 z M 21.830078 23.091797 L 20.839844 26.886719 L 19.398438 26.886719 L 19.292969 27.287109 L 20.839844 27.287109 L 21.830078 23.492188 L 24.544922 23.492188 L 24.648438 23.091797 L 21.830078 23.091797 z M 26.197266 23.091797 L 25.197266 26.886719 L 23.761719 26.886719 L 23.658203 27.287109 L 25.197266 27.287109 L 26.197266 23.492188 L 29.632812 23.492188 L 29.632812 23.091797 L 26.197266 23.091797 z" opacity="1"/></svg>