<svg xmlns="http://www.w3.org/2000/svg" xmlns:svg="http://www.w3.org/2000/svg" xmlns:xlink="http://www.w3.org/1999/xlink" id="svg2" width="48" height="48" version="1.1"><defs id="defs4"><linearGradient id="linearGradient4001"><stop id="stop4003" offset="0" stop-color="#c0bebe" stop-opacity="1"/><stop id="stop4005" offset="1" stop-color="#f2f7f7" stop-opacity="1"/></linearGradient><linearGradient id="linearGradient3795-1-2"><stop id="stop3797-1-9" offset="0" stop-color="#272b30" stop-opacity="1"/><stop id="stop3799-3-6" offset="1" stop-color="#282c31" stop-opacity="1"/></linearGradient><linearGradient id="linearGradient4007" x1="22.451" x2="22.451" y1="1049.29" y2="1007.375" gradientTransform="matrix(0.95237789,0,0,0.95237799,1.1428661,48.972597)" gradientUnits="userSpaceOnUse" xlink:href="#linearGradient4001"/><linearGradient id="linearGradient929" x1="88.43" x2="88.43" y1="-1042.109" y2="-994.91" gradientTransform="translate(-63.32769,-9.7643372)" gradientUnits="userSpaceOnUse" xlink:href="#linearGradient3795-1-2"/><linearGradient id="linearGradient137480"><stop id="stop137482" offset="0" stop-color="#5a5a5a" stop-opacity="1"/><stop id="stop137484" offset="1" stop-color="#101010" stop-opacity="1"/></linearGradient><linearGradient id="linearGradient6194" x1="0" x2="1" y1="0" y2="0" gradientTransform="matrix(13.526835,20.525875,20.525875,-13.526835,19.18986,1021.0543)" gradientUnits="userSpaceOnUse" spreadMethod="pad"><stop id="stop6196" offset="0" stop-color="#fff" stop-opacity="1"/><stop id="stop6198" offset=".168" stop-color="#29282b" stop-opacity="1"/><stop id="stop6200" offset=".264" stop-color="#868c95" stop-opacity="1"/><stop id="stop6202" offset=".396" stop-color="#92979f" stop-opacity="1"/><stop id="stop6204" offset=".542" stop-color="#737881" stop-opacity="1"/><stop id="stop6206" offset=".626" stop-color="#70757e" stop-opacity="1"/><stop id="stop6208" offset=".718" stop-color="#e4e6e8" stop-opacity="1"/><stop id="stop6210" offset=".791" stop-color="#fff" stop-opacity="1"/><stop id="stop6212" offset="1" stop-color="#1d191a" stop-opacity="1"/></linearGradient><linearGradient id="linearGradient4768" x1="1004.313" x2="1012.362" y1="-34.625" y2="-34.625" gradientTransform="translate(0.50002588,0)" gradientUnits="userSpaceOnUse" xlink:href="#linearGradient6194"/><linearGradient id="linearGradient4772" x1="1004.313" x2="1012.362" y1="-34.625" y2="-34.625" gradientTransform="translate(0.50002588,2)" gradientUnits="userSpaceOnUse" xlink:href="#linearGradient6194"/><linearGradient id="linearGradient4776" x1="1004.313" x2="1012.362" y1="-34.625" y2="-34.625" gradientTransform="translate(0.50002588,9.249021)" gradientUnits="userSpaceOnUse" xlink:href="#linearGradient6194"/><linearGradient id="linearGradient4780" x1="1004.313" x2="1012.362" y1="-34.625" y2="-34.625" gradientTransform="translate(0.50002588,11.249021)" gradientUnits="userSpaceOnUse" xlink:href="#linearGradient6194"/><linearGradient id="linearGradient4788" x1="1004.313" x2="1012.362" y1="-34.625" y2="-34.625" gradientTransform="translate(0.50002588,22)" gradientUnits="userSpaceOnUse" xlink:href="#linearGradient6194"/><linearGradient id="linearGradient4792" x1="1004.313" x2="1012.362" y1="-34.625" y2="-34.625" gradientTransform="translate(0.50002588,20)" gradientUnits="userSpaceOnUse" xlink:href="#linearGradient6194"/><linearGradient id="linearGradient4863" x1="1013.469" x2="1011.539" y1="-13.206" y2="-13.206" gradientTransform="matrix(1.1578948,0,0,2.6595742,-159.62035,19.577131)" gradientUnits="userSpaceOnUse" xlink:href="#linearGradient137480"/><linearGradient id="linearGradient4871" x1="1013.469" x2="1011.539" y1="-13.206" y2="-13.206" gradientTransform="matrix(1.1578948,0,0,2.6595742,-159.62035,-0.42286811)" gradientUnits="userSpaceOnUse" xlink:href="#linearGradient137480"/><linearGradient id="linearGradient4883" x1="1013.469" x2="1011.539" y1="-13.206" y2="-13.206" gradientTransform="matrix(1.1578948,0,0,2.6595742,-159.62035,9.2016413)" gradientUnits="userSpaceOnUse" xlink:href="#linearGradient137480"/><linearGradient id="linearGradient4217" x1="30.605" x2="30.605" y1="1030.93" y2="1025.735" gradientUnits="userSpaceOnUse" xlink:href="#linearGradient3795-1-2"/><linearGradient id="linearGradient4219" x1="30.605" x2="30.605" y1="1030.93" y2="1025.735" gradientUnits="userSpaceOnUse" xlink:href="#linearGradient3795-1-2"/><linearGradient id="linearGradient4221" x1="30.605" x2="30.605" y1="1030.93" y2="1025.735" gradientUnits="userSpaceOnUse" xlink:href="#linearGradient3795-1-2"/><linearGradient id="linearGradient4223" x1="30.605" x2="30.605" y1="1030.93" y2="1025.735" gradientUnits="userSpaceOnUse" xlink:href="#linearGradient3795-1-2"/><linearGradient id="linearGradient4225" x1="30.605" x2="30.605" y1="1030.93" y2="1025.735" gradientUnits="userSpaceOnUse" xlink:href="#linearGradient3795-1-2"/><linearGradient id="linearGradient4227" x1="30.605" x2="30.605" y1="1030.93" y2="1025.735" gradientUnits="userSpaceOnUse" xlink:href="#linearGradient3795-1-2"/><linearGradient id="linearGradient4229" x1="30.605" x2="30.605" y1="1030.93" y2="1025.735" gradientUnits="userSpaceOnUse" xlink:href="#linearGradient3795-1-2"/><linearGradient id="linearGradient4231" x1="30.605" x2="30.605" y1="1030.93" y2="1025.735" gradientUnits="userSpaceOnUse" xlink:href="#linearGradient3795-1-2"/><linearGradient id="linearGradient4233" x1="30.605" x2="30.605" y1="1030.93" y2="1025.735" gradientUnits="userSpaceOnUse" xlink:href="#linearGradient3795-1-2"/><linearGradient id="linearGradient4235" x1="30.605" x2="30.605" y1="1030.93" y2="1025.735" gradientUnits="userSpaceOnUse" xlink:href="#linearGradient3795-1-2"/><linearGradient id="linearGradient4237" x1="30.605" x2="30.605" y1="1030.93" y2="1025.735" gradientUnits="userSpaceOnUse" xlink:href="#linearGradient3795-1-2"/><linearGradient id="linearGradient4239" x1="30.605" x2="30.605" y1="1030.93" y2="1025.735" gradientUnits="userSpaceOnUse" xlink:href="#linearGradient3795-1-2"/></defs><metadata id="metadata7"/><g id="layer1" transform="translate(0,-1004.3622)"><rect id="rect2991-1-5" width="48" height="48" x="0" y="-1052.362" fill="url(#linearGradient929)" fill-opacity="1" stroke="none" ry="1.945" transform="scale(1,-1)"/><path id="path4523" fill="#000" fill-opacity=".235" stroke="none" d="m 4.7002839,1007.3622 c -0.9426145,0 -1.700284,0.7576 -1.700284,1.7002 l 0,38.5995 c 0,0.9426 0.7576695,1.7003 1.700284,1.7003 l 38.5994311,0 c 0.942614,0 1.700285,-0.7577 1.700285,-1.7003 l 0,-38.5994 c 0,-0.9427 -0.757671,-1.7003 -1.700285,-1.7003 z"/><path id="rect839" fill="url(#linearGradient4007)" fill-opacity="1" stroke="none" d="m 5.619318,1008.3622 c -0.8977281,0 -1.6193181,0.7215 -1.6193181,1.6192 l 0,36.7615 c 0,0.8977 0.72159,1.6193 1.6193181,1.6193 l 36.761363,0 c 0.897728,0 1.619319,-0.7216 1.619319,-1.6193 l 0,-36.7614 c 0,-0.8978 -0.721591,-1.6193 -1.619319,-1.6193 z"/><path id="path4943" fill="#000" fill-opacity=".314" stroke="none" d="m 3.9999999,1044.956 0,1.7812 c 0,0.8977 0.7273,1.625 1.625,1.625 l 36.7500001,0 c 0.8977,0 1.625,-0.7273 1.625,-1.625 l 0,-1.7812 c 0,0.8977 -0.7273,1.5937 -1.625,1.5937 l -36.7500001,0 c -0.8977,0 -1.625,-0.696 -1.625,-1.5937 z"/><path id="path4948" fill="#000" fill-opacity=".314" stroke="none" d="m 3.9999999,1046.1435 0,0.5937 c 0,0.8977 0.7273,1.625 1.625,1.625 l 36.7500001,0 c 0.8977,0 1.625,-0.7273 1.625,-1.625 l 0,-0.5937 c 0,0.8977 -0.7273,1.625 -1.625,1.625 l -36.7500001,0 c -0.8977,0 -1.625,-0.7273 -1.625,-1.625 z"/><g id="g10821" transform="translate(6.5048646e-8,8.6914063e-6)"><path id="rect846-7" fill="#000" fill-opacity="1" stroke="none" d="m 7.4539099e-7,1049.3622 0,1.0625 c 0,1.0773 0.86022300460901,1.9375 1.93750005460901,1.9375 l 44.1249992,0 c 1.07728,0 1.9375,-0.8602 1.9375,-1.9375 l 0,-1.0625 c 0,1.0773 -0.86022,1.9375 -1.9375,1.9375 l -44.1249992,0 c -1.07727705,0 -1.93750005460901,-0.8602 -1.93750005460901,-1.9375 z"/><path id="path7515-9" fill="#fff" fill-opacity=".537" stroke="none" d="m 2.5312508,1005.0185 c -0.917088,0 -1.67114705,0.6395 -1.84375005,1.5 0.33561205,-0.2799 0.77451205,-0.4375 1.25000005,-0.4375 l 44.1249992,0 c 0.47549,0 0.91439,0.1576 1.25,0.4375 -0.1726,-0.8605 -0.92666,-1.5 -1.84375,-1.5 l -42.9374992,0 z"/><path id="rect4280-5" fill="#000" fill-opacity=".392" stroke="none" d="m 1.9375008,1004.3622 c -1.07727705,0 -1.93750005460901,0.8602 -1.93750005460901,1.9375 l 0,43.0625 c 0,0.7934 0.48002400460901,1.449 1.15625005460901,1.75 -0.30934105,-0.3333 -0.50000005,-0.7824 -0.50000005,-1.2812 l 0,-42.9375 c 0,-1.0482 0.82689905,-1.875 1.87500005,-1.875 l 42.9374992,0 c 1.0481,0 1.875,0.8268 1.875,1.875 l 0,42.9375 c 0,0.4988 -0.19066,0.9479 -0.5,1.2812 0.67623,-0.301 1.15625,-0.9566 1.15625,-1.75 l 0,-43.0625 c 0,-1.0773 -0.86022,-1.9375 -1.9375,-1.9375 l -44.1249992,0 z"/></g><rect id="rect983" width="10.667" height="4.056" x="8" y="1036.243" fill="#fff" fill-opacity="1" fill-rule="nonzero" stroke="none" stroke-width=".2" color="#000" display="inline" enable-background="accumulate" overflow="visible" ry="0" visibility="visible" style="marker:none"/><rect id="rect985" width="10.667" height=".232" x="29.325" y="1040.067" fill="#000" fill-opacity=".314" fill-rule="nonzero" stroke="none" stroke-width=".2" color="#000" display="inline" enable-background="accumulate" overflow="visible" ry="0" visibility="visible" style="marker:none"/><rect id="rect987" width="10.667" height=".232" x="18.667" y="1040.067" fill="#000" fill-opacity=".314" fill-rule="nonzero" stroke="none" stroke-width=".2" color="#000" display="inline" enable-background="accumulate" overflow="visible" ry="0" visibility="visible" style="marker:none"/><rect id="rect973" width="10.667" height="4.056" x="8" y="1032.187" fill="#fff" fill-opacity="1" fill-rule="nonzero" stroke="none" stroke-width=".2" color="#000" display="inline" enable-background="accumulate" overflow="visible" ry="0" visibility="visible" style="marker:none"/><rect id="rect975" width="10.667" height=".232" x="29.325" y="1036.011" fill="#000" fill-opacity=".314" fill-rule="nonzero" stroke="none" stroke-width=".2" color="#000" display="inline" enable-background="accumulate" overflow="visible" ry="0" visibility="visible" style="marker:none"/><rect id="rect977" width="10.667" height=".232" x="18.667" y="1036.011" fill="#000" fill-opacity=".314" fill-rule="nonzero" stroke="none" stroke-width=".2" color="#000" display="inline" enable-background="accumulate" overflow="visible" ry="0" visibility="visible" style="marker:none"/><rect id="rect935" width="10.667" height="4.056" x="8" y="1028.13" fill="#fff" fill-opacity="1" fill-rule="nonzero" stroke="none" stroke-width=".2" color="#000" display="inline" enable-background="accumulate" overflow="visible" ry="0" visibility="visible" style="marker:none"/><rect id="rect943" width="10.667" height=".232" x="29.325" y="1031.955" fill="#000" fill-opacity=".314" fill-rule="nonzero" stroke="none" stroke-width=".2" color="#000" display="inline" enable-background="accumulate" overflow="visible" ry="0" visibility="visible" style="marker:none"/><rect id="rect945" width="10.667" height=".232" x="18.667" y="1031.955" fill="#000" fill-opacity=".314" fill-rule="nonzero" stroke="none" stroke-width=".2" color="#000" display="inline" enable-background="accumulate" overflow="visible" ry="0" visibility="visible" style="marker:none"/><rect id="rect927" width="10.667" height="4.056" x="8" y="1024.306" fill="#fff" fill-opacity="1" fill-rule="nonzero" stroke="none" stroke-width=".2" color="#000" display="inline" enable-background="accumulate" overflow="visible" ry="0" visibility="visible" style="marker:none"/><rect id="rect893" width="10.667" height="4.056" x="18.667" y="1016.425" fill="#484848" fill-opacity="1" fill-rule="nonzero" stroke="none" stroke-width=".2" color="#000" display="inline" enable-background="accumulate" overflow="visible" ry="0" visibility="visible" style="marker:none"/><rect id="rect897" width="10.667" height=".232" x="29.325" y="1020.25" fill="#ccc" fill-opacity="1" fill-rule="nonzero" stroke="none" stroke-width=".2" color="#000" display="inline" enable-background="accumulate" overflow="visible" ry="0" visibility="visible" style="marker:none"/><rect id="rect901" width="10.667" height=".232" x="29.325" y="1016.425" fill="#000" fill-opacity=".235" fill-rule="nonzero" stroke="none" stroke-width=".2" color="#000" display="inline" enable-background="accumulate" overflow="visible" ry="0" visibility="visible" style="marker:none"/><rect id="rect903" width="10.667" height=".232" x="29.325" y="1020.25" fill="#000" fill-opacity=".314" fill-rule="nonzero" stroke="none" stroke-width=".2" color="#000" display="inline" enable-background="accumulate" overflow="visible" ry="0" visibility="visible" style="marker:none"/><rect id="rect899" width="23.866" height=".232" x="-1040.291" y="39.768" fill="#000" fill-opacity=".314" fill-rule="nonzero" stroke="none" stroke-width=".2" color="#000" display="inline" enable-background="accumulate" overflow="visible" ry="0" transform="matrix(0,-1,1,0,0,0)" visibility="visible" style="marker:none"/><rect id="rect911" width="23.866" height=".232" x="-1040.291" y="29.101" fill="#000" fill-opacity=".314" fill-rule="nonzero" stroke="none" stroke-width=".2" color="#000" display="inline" enable-background="accumulate" overflow="visible" ry="0" transform="matrix(0,-1,1,0,0,0)" visibility="visible" style="marker:none"/><rect id="rect917" width="10.667" height=".232" x="29.325" y="1024.306" fill="#ccc" fill-opacity="1" fill-rule="nonzero" stroke="none" stroke-width=".2" color="#000" display="inline" enable-background="accumulate" overflow="visible" ry="0" visibility="visible" style="marker:none"/><rect id="rect919" width="10.667" height=".232" x="29.325" y="1024.306" fill="#000" fill-opacity=".314" fill-rule="nonzero" stroke="none" stroke-width=".2" color="#000" display="inline" enable-background="accumulate" overflow="visible" ry="0" visibility="visible" style="marker:none"/><rect id="rect923" width="23.866" height=".232" x="-1040.291" y="18.667" fill="#000" fill-opacity=".235" fill-rule="nonzero" stroke="none" stroke-width=".2" color="#000" display="inline" enable-background="accumulate" overflow="visible" ry="0" transform="matrix(0,-1,1,0,0,0)" visibility="visible" style="marker:none"/><rect id="rect929" width="10.667" height=".232" x="29.325" y="1028.13" fill="#000" fill-opacity=".314" fill-rule="nonzero" stroke="none" stroke-width=".2" color="#000" display="inline" enable-background="accumulate" overflow="visible" ry="0" visibility="visible" style="marker:none"/><rect id="rect931" width="10.667" height=".232" x="18.667" y="1028.13" fill="#000" fill-opacity=".314" fill-rule="nonzero" stroke="none" stroke-width=".2" color="#000" display="inline" enable-background="accumulate" overflow="visible" ry="0" visibility="visible" style="marker:none"/><rect id="rect989" width="10.667" height="4.056" x="8" y="1020.481" fill="#484848" fill-opacity="1" fill-rule="nonzero" stroke="none" stroke-width=".2" color="#000" display="inline" enable-background="accumulate" overflow="visible" ry="0" visibility="visible" style="marker:none"/><rect id="rect993" width="10.667" height=".232" x="8" y="1024.306" fill="#ccc" fill-opacity="1" fill-rule="nonzero" stroke="none" stroke-width=".2" color="#000" display="inline" enable-background="accumulate" overflow="visible" ry="0" visibility="visible" style="marker:none"/><rect id="rect995" width="19.809" height=".232" x="-1040.291" y="8" fill="#ccc" fill-opacity="1" fill-rule="nonzero" stroke="none" stroke-width=".2" color="#000" display="inline" enable-background="accumulate" overflow="visible" ry="0" transform="matrix(0,-1,1,0,0,0)" visibility="visible" style="marker:none"/><rect id="rect997" width="10.667" height=".232" x="8" y="1020.481" fill="#000" fill-opacity=".235" fill-rule="nonzero" stroke="none" stroke-width=".2" color="#000" display="inline" enable-background="accumulate" overflow="visible" ry="0" visibility="visible" style="marker:none"/><rect id="rect4373" width="10.667" height="15.515" x="8.006" y="1024.539" fill="#d4e6b5" fill-opacity="1" fill-rule="nonzero" stroke="none" stroke-width=".2" color="#000" display="inline" enable-background="accumulate" overflow="visible" ry="0" visibility="visible" style="marker:none"/><rect id="rect999" width="10.667" height=".232" x="8" y="1028.13" fill="#000" fill-opacity=".314" fill-rule="nonzero" stroke="none" stroke-width=".2" color="#000" display="inline" enable-background="accumulate" overflow="visible" ry="0" visibility="visible" style="marker:none"/><rect id="rect1023" width="10.667" height=".232" x="8" y="1040.067" fill="#ccc" fill-opacity="1" fill-rule="nonzero" stroke="none" stroke-width=".2" color="#000" display="inline" enable-background="accumulate" overflow="visible" ry="0" visibility="visible" style="marker:none"/><rect id="rect1025" width="10.667" height=".232" x="8" y="1040.067" fill="#ccc" fill-opacity="1" fill-rule="nonzero" stroke="none" stroke-width=".2" color="#000" display="inline" enable-background="accumulate" overflow="visible" ry="0" visibility="visible" style="marker:none"/><rect id="rect1027" width="10.667" height=".232" x="8" y="1036.011" fill="#000" fill-opacity=".314" fill-rule="nonzero" stroke="none" stroke-width=".2" color="#000" display="inline" enable-background="accumulate" overflow="visible" ry="0" visibility="visible" style="marker:none"/><rect id="rect1029" width="10.667" height=".232" x="8" y="1031.955" fill="#000" fill-opacity=".314" fill-rule="nonzero" stroke="none" stroke-width=".2" color="#000" display="inline" enable-background="accumulate" overflow="visible" ry="0" visibility="visible" style="marker:none"/><rect id="rect1107" width="10.667" height=".232" x="18.667" y="1016.425" fill="#000" fill-opacity=".235" fill-rule="nonzero" stroke="none" stroke-width=".2" color="#000" display="inline" enable-background="accumulate" overflow="visible" ry="0" visibility="visible" style="marker:none"/><rect id="rect909" width="10.667" height="4.056" x="18.667" y="1020.481" fill="#d4e6b5" fill-opacity="1" fill-rule="nonzero" stroke="none" stroke-width=".2" color="#000" display="inline" enable-background="accumulate" overflow="visible" ry="0" visibility="visible" style="marker:none"/><path id="rect921" fill="#96cc3e" fill-opacity="1" fill-rule="nonzero" stroke="none" stroke-width=".2" d="m 18.660993,1024.3054 0,0.2334 10.048525,0 0,-0.2334 -10.048525,0 z" color="#000" display="inline" enable-background="accumulate" overflow="visible" visibility="visible" style="marker:none"/><rect id="rect1111" width="10.667" height=".232" x="18.667" y="1020.25" fill="#96cc3e" fill-opacity="1" fill-rule="nonzero" stroke="none" stroke-width=".2" color="#000" display="inline" enable-background="accumulate" overflow="visible" ry="0" visibility="visible" style="marker:none"/><rect id="rect1113" width="4.287" height=".232" x="-1024.537" y="18.667" fill="#96cc3e" fill-opacity="1" fill-rule="nonzero" stroke="none" stroke-width=".2" color="#000" display="inline" enable-background="accumulate" overflow="visible" ry="0" transform="matrix(0,-1,1,0,0,0)" visibility="visible" style="marker:none"/><path id="rect1115" fill="#96cc3e" fill-opacity="1" fill-rule="nonzero" stroke="none" stroke-width=".2" d="m 29.105865,1020.2488 0,3.6603 0.233144,0 0,-3.6603 -0.233144,0 z" color="#000" display="inline" enable-background="accumulate" overflow="visible" visibility="visible" style="marker:none"/><rect id="rect1117" width=".793" height=".793" x="28.814" y="1024.026" fill="#96cc3e" fill-opacity="1" fill-rule="nonzero" stroke="none" stroke-width=".2" color="#000" display="inline" enable-background="accumulate" overflow="visible" visibility="visible" style="marker:none"/><path id="path1149" fill="#fff" fill-opacity="1" stroke="none" d="m 23.660129,1018.9885 -0.124281,0.3754 -0.400745,0 0.649306,-1.8213 0.43879,0 0.641698,1.8213 -0.413426,0 -0.119207,-0.3754 -0.672135,0 z m 0.103991,-0.3146 0.464152,0 L 24,1017.9535 l -0.23588,0.7204 z" font-family="Helvetica" font-size="3.4" font-stretch="normal" font-style="normal" font-variant="normal" font-weight="normal" letter-spacing="0" word-spacing="0" style="line-height:125%;-inkscape-font-specification:Helvetica"/><path id="path1146" fill="#000" fill-opacity="1" stroke="none" d="m 33.907945,1019.3639 0,-1.8212 0.885187,0 q 0.299293,0 0.446398,0.1626 0.114138,0.1265 0.114138,0.304 0,0.17 -0.08371,0.2688 -0.0482,0.056 -0.142036,0.104 0.154718,0.057 0.223199,0.1828 0.05832,0.1067 0.05832,0.2588 0,0.2256 -0.154717,0.3754 -0.08877,0.087 -0.185155,0.1191 -0.134426,0.045 -0.390597,0.045 l -0.771051,10e-5 z m 0.3627,-0.8014 0.0024,0.4868 0.466688,0 q 0.142037,0 0.215591,-0.063 0.07609,-0.066 0.07609,-0.2028 0,-0.1115 -0.08117,-0.1649 -0.08117,-0.057 -0.195299,-0.057 l -0.484443,2e-4 z m 0,-0.7051 0.0024,0.3983 0.446398,0 q 0.121745,0 0.190226,-0.045 0.07864,-0.054 0.07864,-0.1574 0,-0.104 -0.07354,-0.1495 -0.07354,-0.045 -0.20798,-0.045 l -0.436253,-2e-4 z" font-family="Helvetica" font-size="3.4" font-stretch="normal" font-style="normal" font-variant="normal" font-weight="normal" letter-spacing="0" word-spacing="0" style="line-height:125%;-inkscape-font-specification:Helvetica"/><path id="path1162" fill="#fff" fill-opacity="1" stroke="none" d="m 12.592717,1022.1798 0,-0.2487 0.05073,0 q 0.233344,0 0.347477,-0.104 0.09131,-0.084 0.09131,-0.208 l 0.29168,0 0.0024,1.8011 -0.355089,0 0,-1.2404 -0.428644,0 z" font-family="Helvetica" font-size="3.4" font-stretch="normal" font-style="normal" font-variant="normal" font-weight="normal" letter-spacing="0" word-spacing="0" style="line-height:125%;-inkscape-font-specification:Helvetica"/><path d="m 8,1040.0665 0,0.2334 10.048525,0 0,-0.2334 -10.048525,0 z" style="marker:none" id="path4375" fill="#96cc3e" fill-opacity="1" fill-rule="nonzero" stroke="none" stroke-width=".2" color="#000" display="inline" enable-background="accumulate" overflow="visible" visibility="visible"/><rect id="rect4377" width="10.667" height=".232" x="8.006" y="1024.307" fill="#96cc3e" fill-opacity="1" fill-rule="nonzero" stroke="none" stroke-width=".2" color="#000" display="inline" enable-background="accumulate" overflow="visible" ry="0" visibility="visible" style="marker:none"/><rect id="rect4379" width="15.772" height=".232" x="-1040.082" y="8.006" fill="#96cc3e" fill-opacity="1" fill-rule="nonzero" stroke="none" stroke-width=".2" color="#000" display="inline" enable-background="accumulate" overflow="visible" ry="0" transform="matrix(0,-1,1,0,0,0)" visibility="visible" style="marker:none"/><path d="m 18.660993,1024.3062 0,15.2109 0.233144,0 0,-15.2109 -0.233144,0 z" style="marker:none" id="path4381" fill="#96cc3e" fill-opacity="1" fill-rule="nonzero" stroke="none" stroke-width=".2" color="#000" display="inline" enable-background="accumulate" overflow="visible" visibility="visible"/><rect id="rect4383" width=".793" height=".793" x="18.381" y="1039.787" fill="#96cc3e" fill-opacity="1" fill-rule="nonzero" stroke="none" stroke-width=".2" color="#000" display="inline" enable-background="accumulate" overflow="visible" visibility="visible" style="marker:none"/><path id="path1159" fill="#000" fill-opacity="1" stroke="none" d="m 12.848888,1026.0702 -0.344943,0 q 0,-0.3805 0.233343,-0.5376 0.144575,-0.099 0.352555,-0.099 0.268853,0 0.443861,0.1523 0.175008,0.1499 0.175008,0.416 0,0.2056 -0.121744,0.3629 -0.08117,0.1064 -0.2511,0.2231 -0.111599,0.079 -0.22066,0.1545 -0.152183,0.1119 -0.18262,0.1776 l 0.781196,0 0,0.3147 -1.230128,0 q 0,-0.2028 0.06086,-0.3298 0.09131,-0.1929 0.357627,-0.3854 0.2232,-0.1626 0.28407,-0.2155 0.167401,-0.1472 0.167401,-0.3148 0,-0.1012 -0.05833,-0.1724 -0.06848,-0.085 -0.190227,-0.085 -0.162327,0 -0.220663,0.1193 -0.03551,0.072 -0.03551,0.218 z" font-family="Helvetica" font-size="3.4" font-stretch="normal" font-style="normal" font-variant="normal" font-weight="normal" letter-spacing="0" word-spacing="0" style="line-height:125%;-inkscape-font-specification:Helvetica"/><path id="path1152" fill="#000" fill-opacity="1" stroke="none" d="m 23.608135,1022.1798 0,-0.2487 0.05073,0 q 0.233345,0 0.347483,-0.104 0.0913,-0.084 0.0913,-0.208 l 0.291682,0 0.0024,1.8011 -0.355088,0 0,-1.2404 -0.428643,0 z" font-family="Helvetica" font-size="3.4" font-stretch="normal" font-style="normal" font-variant="normal" font-weight="normal" letter-spacing="0" word-spacing="0" style="line-height:125%;-inkscape-font-specification:Helvetica"/><path id="path1154" fill="#000" fill-opacity="1" stroke="none" d="m 25.174689,1022.7453 0.454008,0 0,-0.7734 -0.454008,0.7734 z m 1.004395,0 -0.0024,0.2767 -0.197836,0 0,0.3982 -0.35509,0 0,-0.3982 -0.710178,0 0,-0.307 0.659451,-1.0959 0.405817,0 0,1.1262 0.200372,0 z" font-family="Helvetica" font-size="3.4" font-stretch="normal" font-style="normal" font-variant="normal" font-weight="normal" letter-spacing="0" word-spacing="0" style="line-height:125%;-inkscape-font-specification:Helvetica"/><path id="path1156" fill="#000" fill-opacity="1" stroke="none" d="m 27.540196,1022.0759 -0.352556,0 q -0.01016,-0.082 -0.06087,-0.127 -0.05073,-0.045 -0.149645,-0.045 -0.157253,0 -0.233344,0.1598 -0.06342,0.1344 -0.06342,0.3373 l 0.0075,0.01 q 0.06087,-0.084 0.144572,-0.1167 0.08624,-0.033 0.192763,-0.033 0.261245,0 0.413426,0.1751 0.136963,0.1598 0.136963,0.3805 0,0.2968 -0.162327,0.4769 -0.162328,0.18 -0.426108,0.18 -0.372843,0 -0.530097,-0.284 -0.121746,-0.2182 -0.121746,-0.6214 0,-0.2385 0.03298,-0.3958 0.05073,-0.2409 0.182618,-0.3779 0.164862,-0.1699 0.45147,-0.1699 0.08624,0 0.177545,0.023 0.129353,0.033 0.190226,0.093 0.07864,0.075 0.111599,0.1423 0.0355,0.059 0.05832,0.1947 z m -0.322118,0.7659 q 0,-0.1546 -0.08624,-0.2357 -0.07101,-0.066 -0.169936,-0.066 -0.114137,0 -0.185154,0.07 -0.08624,0.084 -0.08624,0.241 0,0.1495 0.07609,0.2434 0.07608,0.091 0.205445,0.091 0.106526,0 0.175008,-0.085 0.07101,-0.085 0.07101,-0.2591 z" font-family="Helvetica" font-size="3.4" font-stretch="normal" font-style="normal" font-variant="normal" font-weight="normal" letter-spacing="0" word-spacing="0" style="line-height:125%;-inkscape-font-specification:Helvetica"/><g id="g302" transform="translate(-4.9999997e-8,-0.49992158)"><rect id="rect4881" width="2.2" height="5" x="1011.662" y="-26.875" fill="url(#linearGradient4883)" fill-opacity="1" stroke="none" font-family="Derivia" font-size="24" font-stretch="normal" font-style="normal" font-variant="normal" font-weight="normal" letter-spacing="-.03" ry=".26" transform="matrix(0,1,-1,0,0,0)" word-spacing="0" style="line-height:125%;-inkscape-font-specification:Derivia"/><rect id="rect4869" width="2.2" height="5" x="1011.662" y="-36.5" fill="url(#linearGradient4871)" fill-opacity="1" stroke="none" font-family="Derivia" font-size="24" font-stretch="normal" font-style="normal" font-variant="normal" font-weight="normal" letter-spacing="-.03" ry=".26" transform="matrix(0,1,-1,0,0,0)" word-spacing="0" style="line-height:125%;-inkscape-font-specification:Derivia"/><rect id="rect4855" width="2.2" height="5" x="1011.662" y="-16.5" fill="url(#linearGradient4863)" fill-opacity="1" stroke="none" font-family="Derivia" font-size="24" font-stretch="normal" font-style="normal" font-variant="normal" font-weight="normal" letter-spacing="-.03" ry=".26" transform="matrix(0,1,-1,0,0,0)" word-spacing="0" style="line-height:125%;-inkscape-font-specification:Derivia"/><rect id="rect4833" width="5" height="1.48" x="1008.462" y="-33.74" fill="#000" fill-opacity=".235" stroke="none" font-family="Derivia" font-size="24" font-stretch="normal" font-style="normal" font-variant="normal" font-weight="normal" letter-spacing="-.03" ry=".418" transform="matrix(0,1,-1,0,0,0)" word-spacing="0" style="line-height:125%;-inkscape-font-specification:Derivia"/><rect id="rect4829" width="5" height="1.18" x="1008.162" y="-33.59" fill="#000" fill-opacity=".235" stroke="none" font-family="Derivia" font-size="24" font-stretch="normal" font-style="normal" font-variant="normal" font-weight="normal" letter-spacing="-.03" ry=".333" transform="matrix(0,1,-1,0,0,0)" word-spacing="0" style="line-height:125%;-inkscape-font-specification:Derivia"/><rect id="rect4835" width="5" height="1.48" x="1008.462" y="-35.74" fill="#000" fill-opacity=".235" stroke="none" font-family="Derivia" font-size="24" font-stretch="normal" font-style="normal" font-variant="normal" font-weight="normal" letter-spacing="-.03" ry=".418" transform="matrix(0,1,-1,0,0,0)" word-spacing="0" style="line-height:125%;-inkscape-font-specification:Derivia"/><rect id="rect4837" width="5" height="1.18" x="1008.162" y="-35.59" fill="#000" fill-opacity=".235" stroke="none" font-family="Derivia" font-size="24" font-stretch="normal" font-style="normal" font-variant="normal" font-weight="normal" letter-spacing="-.03" ry=".333" transform="matrix(0,1,-1,0,0,0)" word-spacing="0" style="line-height:125%;-inkscape-font-specification:Derivia"/><rect id="rect4839" width="5" height="1.48" x="1008.462" y="-26.115" fill="#000" fill-opacity=".235" stroke="none" font-family="Derivia" font-size="24" font-stretch="normal" font-style="normal" font-variant="normal" font-weight="normal" letter-spacing="-.03" ry=".418" transform="matrix(0,1,-1,0,0,0)" word-spacing="0" style="line-height:125%;-inkscape-font-specification:Derivia"/><rect id="rect4841" width="5" height="1.18" x="1008.162" y="-25.965" fill="#000" fill-opacity=".235" stroke="none" font-family="Derivia" font-size="24" font-stretch="normal" font-style="normal" font-variant="normal" font-weight="normal" letter-spacing="-.03" ry=".333" transform="matrix(0,1,-1,0,0,0)" word-spacing="0" style="line-height:125%;-inkscape-font-specification:Derivia"/><rect id="rect4843" width="5" height="1.48" x="1008.462" y="-24.115" fill="#000" fill-opacity=".235" stroke="none" font-family="Derivia" font-size="24" font-stretch="normal" font-style="normal" font-variant="normal" font-weight="normal" letter-spacing="-.03" ry=".418" transform="matrix(0,1,-1,0,0,0)" word-spacing="0" style="line-height:125%;-inkscape-font-specification:Derivia"/><rect id="rect4845" width="5" height="1.18" x="1008.162" y="-23.965" fill="#000" fill-opacity=".235" stroke="none" font-family="Derivia" font-size="24" font-stretch="normal" font-style="normal" font-variant="normal" font-weight="normal" letter-spacing="-.03" ry=".333" transform="matrix(0,1,-1,0,0,0)" word-spacing="0" style="line-height:125%;-inkscape-font-specification:Derivia"/><rect id="rect4847" width="5" height="1.48" x="1008.462" y="-15.74" fill="#000" fill-opacity=".235" stroke="none" font-family="Derivia" font-size="24" font-stretch="normal" font-style="normal" font-variant="normal" font-weight="normal" letter-spacing="-.03" ry=".418" transform="matrix(0,1,-1,0,0,0)" word-spacing="0" style="line-height:125%;-inkscape-font-specification:Derivia"/><rect id="rect4849" width="5" height="1.18" x="1008.162" y="-15.59" fill="#000" fill-opacity=".235" stroke="none" font-family="Derivia" font-size="24" font-stretch="normal" font-style="normal" font-variant="normal" font-weight="normal" letter-spacing="-.03" ry=".333" transform="matrix(0,1,-1,0,0,0)" word-spacing="0" style="line-height:125%;-inkscape-font-specification:Derivia"/><rect id="rect4851" width="5" height="1.48" x="1008.462" y="-13.74" fill="#000" fill-opacity=".235" stroke="none" font-family="Derivia" font-size="24" font-stretch="normal" font-style="normal" font-variant="normal" font-weight="normal" letter-spacing="-.03" ry=".418" transform="matrix(0,1,-1,0,0,0)" word-spacing="0" style="line-height:125%;-inkscape-font-specification:Derivia"/><rect id="rect4853" width="5" height="1.18" x="1008.162" y="-13.59" fill="#000" fill-opacity=".235" stroke="none" font-family="Derivia" font-size="24" font-stretch="normal" font-style="normal" font-variant="normal" font-weight="normal" letter-spacing="-.03" ry=".333" transform="matrix(0,1,-1,0,0,0)" word-spacing="0" style="line-height:125%;-inkscape-font-specification:Derivia"/><g id="g4873" transform="translate(0.37548923,0)"><rect id="rect4202" width="5" height=".7" x="1007.862" y="-34.975" fill="url(#linearGradient4768)" fill-opacity="1" stroke="none" font-family="Derivia" font-size="24" font-stretch="normal" font-style="normal" font-variant="normal" font-weight="normal" letter-spacing="-.03" ry=".198" transform="matrix(0,1,-1,0,0,0)" word-spacing="0" style="line-height:125%;-inkscape-font-specification:Derivia"/><rect id="rect4770" width="5" height=".7" x="1007.862" y="-32.975" fill="url(#linearGradient4772)" fill-opacity="1" stroke="none" font-family="Derivia" font-size="24" font-stretch="normal" font-style="normal" font-variant="normal" font-weight="normal" letter-spacing="-.03" ry=".198" transform="matrix(0,1,-1,0,0,0)" word-spacing="0" style="line-height:125%;-inkscape-font-specification:Derivia"/></g><g id="g4877"><rect id="rect4774" width="5" height=".7" x="1007.862" y="-25.725" fill="url(#linearGradient4776)" fill-opacity="1" stroke="none" font-family="Derivia" font-size="24" font-stretch="normal" font-style="normal" font-variant="normal" font-weight="normal" letter-spacing="-.03" ry=".198" transform="matrix(0,1,-1,0,0,0)" word-spacing="0" style="line-height:125%;-inkscape-font-specification:Derivia"/><rect id="rect4778" width="5" height=".7" x="1007.862" y="-23.725" fill="url(#linearGradient4780)" fill-opacity="1" stroke="none" font-family="Derivia" font-size="24" font-stretch="normal" font-style="normal" font-variant="normal" font-weight="normal" letter-spacing="-.03" ry=".198" transform="matrix(0,1,-1,0,0,0)" word-spacing="0" style="line-height:125%;-inkscape-font-specification:Derivia"/></g><g id="g4865" transform="translate(0.37548923,0)"><rect id="rect4786" width="5" height=".7" x="1007.862" y="-12.975" fill="url(#linearGradient4788)" fill-opacity="1" stroke="none" font-family="Derivia" font-size="24" font-stretch="normal" font-style="normal" font-variant="normal" font-weight="normal" letter-spacing="-.03" ry=".198" transform="matrix(0,1,-1,0,0,0)" word-spacing="0" style="line-height:125%;-inkscape-font-specification:Derivia"/><rect id="rect4790" width="5" height=".7" x="1007.862" y="-14.975" fill="url(#linearGradient4792)" fill-opacity="1" stroke="none" font-family="Derivia" font-size="24" font-stretch="normal" font-style="normal" font-variant="normal" font-weight="normal" letter-spacing="-.03" ry=".198" transform="matrix(0,1,-1,0,0,0)" word-spacing="0" style="line-height:125%;-inkscape-font-specification:Derivia"/></g><path font-stretch="normal" style="line-height:125%;-inkscape-font-specification:Derivia" id="rect4814" fill="#000" fill-opacity=".235" stroke="none" d="m 32.844239,1007.8622 c -0.109453,0 -0.1875,0.078 -0.1875,0.1875 l 0,4.625 c 0,0.1094 0.07805,0.1875 0.1875,0.1875 0.109453,0 0.21875,-0.078 0.21875,-0.1875 l 0,-4.625 c 0,-0.1095 -0.109297,-0.1875 -0.21875,-0.1875 z" font-family="Derivia" font-size="24" font-style="normal" font-variant="normal" font-weight="normal" letter-spacing="-.03" word-spacing="0"/><path font-stretch="normal" style="line-height:125%;-inkscape-font-specification:Derivia" id="path4819" fill="#000" fill-opacity=".235" stroke="none" d="m 34.837499,1007.8622 c -0.109453,0 -0.1875,0.078 -0.1875,0.1875 l 0,4.625 c 0,0.1095 0.07805,0.1875 0.1875,0.1875 0.109453,0 0.21875,-0.078 0.21875,-0.1875 l 0,-4.625 c 0,-0.1095 -0.109297,-0.1875 -0.21875,-0.1875 z" font-family="Derivia" font-size="24" font-style="normal" font-variant="normal" font-weight="normal" letter-spacing="-.03" word-spacing="0"/><path font-stretch="normal" style="line-height:125%;-inkscape-font-specification:Derivia" id="path4821" fill="#000" fill-opacity=".235" stroke="none" d="m 25.212989,1007.8622 c -0.109453,0 -0.1875,0.078 -0.1875,0.1875 l 0,4.625 c 0,0.1095 0.07805,0.1875 0.1875,0.1875 0.109453,0 0.21875,-0.078 0.21875,-0.1875 l 0,-4.625 c 0,-0.1095 -0.109297,-0.1875 -0.21875,-0.1875 z" font-family="Derivia" font-size="24" font-style="normal" font-variant="normal" font-weight="normal" letter-spacing="-.03" word-spacing="0"/><path font-stretch="normal" style="line-height:125%;-inkscape-font-specification:Derivia" id="path4823" fill="#000" fill-opacity=".235" stroke="none" d="m 23.212989,1007.8622 c -0.109453,0 -0.1875,0.078 -0.1875,0.1875 l 0,4.625 c 0,0.1095 0.07805,0.1875 0.1875,0.1875 0.109453,0 0.21875,-0.078 0.21875,-0.1875 l 0,-4.625 c 0,-0.1095 -0.109297,-0.1875 -0.21875,-0.1875 z" font-family="Derivia" font-size="24" font-style="normal" font-variant="normal" font-weight="normal" letter-spacing="-.03" word-spacing="0"/><path font-stretch="normal" style="line-height:125%;-inkscape-font-specification:Derivia" id="path4825" fill="#000" fill-opacity=".235" stroke="none" d="m 14.837499,1007.8622 c -0.109453,0 -0.1875,0.078 -0.1875,0.1875 l 0,4.625 c 0,0.1095 0.07805,0.1875 0.1875,0.1875 0.109453,0 0.21875,-0.078 0.21875,-0.1875 l 0,-4.625 c 0,-0.1095 -0.109297,-0.1875 -0.21875,-0.1875 z" font-family="Derivia" font-size="24" font-style="normal" font-variant="normal" font-weight="normal" letter-spacing="-.03" word-spacing="0"/><path font-stretch="normal" style="line-height:125%;-inkscape-font-specification:Derivia" id="path4827" fill="#000" fill-opacity=".235" stroke="none" d="m 12.837499,1007.8622 c -0.109453,0 -0.1875,0.078 -0.1875,0.1875 l 0,4.625 c 0,0.1095 0.07805,0.1875 0.1875,0.1875 0.109453,0 0.21875,-0.078 0.21875,-0.1875 l 0,-4.625 c 0,-0.1095 -0.109297,-0.1875 -0.21875,-0.1875 z" font-family="Derivia" font-size="24" font-style="normal" font-variant="normal" font-weight="normal" letter-spacing="-.03" word-spacing="0"/></g><path font-style="normal" style="text-align:start;line-height:125%;-inkscape-font-specification:Leckerli One" id="path4193" fill="#000" fill-opacity=".235" stroke="none" d="m 10.640938,1028.9122 q 0,0.435 0.37,0.435 0.405,0 0.545,-0.28 0.05,-0.1 0.05,-0.255 0,-0.16 -0.075,-0.295 -0.125,-0.215 -0.43,-0.475 -0.505,-0.43 -0.505,-0.89 0,-0.465 0.29,-0.715 0.29,-0.25 0.665,-0.25 0.375,0 0.595,0.19 0.22,0.19 0.22,0.57 0,0.25 -0.17,0.435 -0.165,0.185 -0.44,0.23 0.125,0.105 0.25,0.215 0.12,0.11 0.22,0.24 0.22,0.295 0.22,0.705 0,0.285 -0.135,0.515 -0.13,0.23 -0.345,0.39 -0.21,0.155 -0.475,0.24 -0.265,0.085 -0.495,0.085 -0.49,0 -0.76,-0.225 -0.3150005,-0.255 -0.3150005,-0.735 0,-0.315 0.2050005,-0.61 0.205,-0.295 0.435,-0.295 0.18,0 0.18,0.11 0,0.16 -0.05,0.32 -0.05,0.155 -0.05,0.345 z m 0.97,-1.42 q 0.285,-0.285 0.285,-0.595 0,-0.095 -0.1,-0.16 -0.11,-0.06 -0.23,-0.06 -0.27,0 -0.39,0.175 0.06,0.215 0.175,0.365 0.12,0.15 0.26,0.275 z" font-family="Leckerli One" font-size="5" font-stretch="normal" font-variant="normal" font-weight="normal" letter-spacing="0" text-anchor="start" word-spacing="0" writing-mode="lr-tb"/><path font-style="normal" style="text-align:start;line-height:125%;-inkscape-font-specification:Leckerli One" id="path4195" fill="#000" fill-opacity=".235" stroke="none" d="m 13.7425,1027.8722 q 0.26,-0.295 0.665,-0.295 0.58,0 0.735,0.47 0.045,0.14 0.045,0.31 0,0.38 -0.25,0.75 -0.245,0.37 -0.595,0.5 l 0.06,0 q 0.365,0 0.74,-0.27 0.24,-0.17 0.375,-0.35 0.14,-0.185 0.21,-0.185 0.07,0 0.07,0.16 0,0.28 -0.24,0.565 -0.36,0.41 -0.92,0.48 -0.405,0.045 -0.575,0.015 -0.17,-0.03 -0.26,-0.075 -0.195,-0.1 -0.195,-0.3 0,-0.11 0.045,-0.2 0.395,0 0.6,-0.3 0.205,-0.3 0.205,-0.75 0,-0.11 -0.08,-0.195 -0.08,-0.09 -0.215,-0.09 -0.13,0 -0.285,0.115 -0.155,0.115 -0.25,0.29 -0.09,0.17 -0.165,0.34 -0.075,0.165 -0.12,0.42 -0.08,0.46 -0.185,1.16 -0.1,0.705 -0.125,0.755 -0.025,0.055 -0.075,0.1 -0.05,0.045 -0.105,0.045 -0.1,0 -0.165,-0.06 -0.18,-0.155 -0.21,-0.24 -0.03,-0.08 -0.03,-0.21 0,-0.49 0.165,-1.375 0.165,-0.885 0.57,-1.84 0.06,-0.14 0.21,-0.14 0.155,0 0.295,0.27 0.04,0.07 0.055,0.13 z" font-family="Leckerli One" font-size="5" font-stretch="normal" font-variant="normal" font-weight="normal" letter-spacing="0" text-anchor="start" word-spacing="0" writing-mode="lr-tb"/><path font-style="normal" style="text-align:start;line-height:125%;-inkscape-font-specification:Leckerli One" id="path4197" fill="#000" fill-opacity=".235" stroke="none" d="m 16.281406,1029.1272 0.03,0.61 q 0,0.12 -0.125,0.215 -0.125,0.095 -0.34,0.095 -0.125,0 -0.175,-0.13 -0.045,-0.13 -0.045,-0.38 0,-0.525 0.05,-0.82 0.055,-0.3 0.21,-0.605 -0.23,-0.22 -0.23,-0.38 0,-0.335 0.36,-0.335 0.185,0 0.325,0.195 0.1,0.135 0.145,0.315 0.07,0.025 0.175,0.025 0.145,0 0.335,-0.095 l 0.13,-0.065 q 0.06,-0.03 0.105,-0.03 0.145,0 0.29,0.425 -0.045,0.195 -0.1,0.375 -0.05,0.18 -0.12,0.435 -0.07,0.255 -0.075,0.345 0,0.085 0.055,0.085 0.075,0 0.185,-0.095 0.11,-0.095 0.22,-0.205 0.11,-0.115 0.2,-0.21 0.095,-0.095 0.13,-0.095 0.07,0 0.07,0.17 0,0.345 -0.305,0.68 -0.3,0.335 -0.69,0.33 -0.23,0 -0.345,-0.185 -0.115,-0.185 -0.12,-0.45 0,-0.525 0.235,-0.995 -0.11,0.045 -0.25,0.045 -0.135,0 -0.195,-0.01 -0.045,0.19 -0.09,0.385 -0.045,0.19 -0.045,0.355 z" font-family="Leckerli One" font-size="5" font-stretch="normal" font-variant="normal" font-weight="normal" letter-spacing="0" text-anchor="start" word-spacing="0" writing-mode="lr-tb"/><path font-style="normal" style="text-align:start;line-height:125%;-inkscape-font-specification:Leckerli One" id="path4199" fill="#000" fill-opacity=".235" stroke="none" d="m 19.001563,1029.4222 q 0.39,0 0.755,-0.31 0.135,-0.115 0.22,-0.21 0.085,-0.1 0.13,-0.1 0.07,0 0.07,0.14 0,0.14 -0.075,0.315 -0.075,0.17 -0.25,0.335 -0.43,0.405 -1.18,0.405 -0.595,0 -0.81,-0.43 -0.075,-0.15 -0.075,-0.43 0,-0.28 0.11,-0.58 0.11,-0.305 0.29,-0.525 0.185,-0.22 0.425,-0.34 0.24,-0.125 0.51,-0.125 0.275,0 0.42,0.135 0.15,0.135 0.15,0.35 0,0.215 -0.11,0.355 -0.105,0.135 -0.275,0.23 -0.17,0.09 -0.38,0.165 -0.205,0.07 -0.405,0.16 l 0,0.125 q 0.005,0.18 0.15,0.255 0.145,0.075 0.33,0.08 z m -0.085,-1.41 q -0.26,0 -0.36,0.605 0.105,-0.07 0.195,-0.125 0.095,-0.055 0.165,-0.105 0.15,-0.11 0.155,-0.25 0,-0.125 -0.155,-0.125 z" font-family="Leckerli One" font-size="5" font-stretch="normal" font-variant="normal" font-weight="normal" letter-spacing="0" text-anchor="start" word-spacing="0" writing-mode="lr-tb"/><path font-style="normal" style="text-align:start;line-height:125%;-inkscape-font-specification:Leckerli One" id="path4201" fill="#000" fill-opacity=".235" stroke="none" d="m 22.996406,1028.7872 q 0.09,0 0.09,0.23 0,0.125 -0.105,0.305 -0.105,0.175 -0.275,0.325 -0.165,0.145 -0.37,0.24 -0.205,0.095 -0.4,0.095 -0.265,0 -0.355,-0.465 -0.13,0.215 -0.34,0.355 -0.21,0.135 -0.565,0.135 -0.35,0 -0.565,-0.22 -0.215,-0.22 -0.21,-0.535 0,-0.85 0.565,-1.34 0.24,-0.205 0.445,-0.27 0.21,-0.065 0.44,-0.065 0.23,0 0.375,0.08 0.07,-0.145 0.16,-0.145 0.175,0 0.33,0.155 0.16,0.15 0.16,0.285 -0.07,0.165 -0.205,0.395 -0.04,0.23 -0.04,0.645 0,0.415 0.105,0.415 0.13,0 0.63,-0.52 0.09,-0.1 0.13,-0.1 z m -2.36,0.3 q 0,0.385 0.285,0.385 0.305,0 0.505,-0.325 0.07,-0.11 0.115,-0.27 0,-0.56 0.1,-0.96 -0.405,0.08 -0.705,0.39 -0.3,0.31 -0.3,0.78 z" font-family="Leckerli One" font-size="5" font-stretch="normal" font-variant="normal" font-weight="normal" letter-spacing="0" text-anchor="start" word-spacing="0" writing-mode="lr-tb"/><path font-style="normal" style="text-align:start;line-height:125%;-inkscape-font-specification:Leckerli One" id="path4203" fill="#000" fill-opacity=".235" stroke="none" d="m 25.906563,1028.7872 q 0.09,0 0.09,0.23 0,0.125 -0.105,0.305 -0.105,0.175 -0.275,0.325 -0.165,0.145 -0.37,0.24 -0.205,0.095 -0.4,0.095 -0.275,0 -0.36,-0.45 -0.3,0.475 -0.89,0.475 -0.36,0 -0.575,-0.22 -0.215,-0.22 -0.21,-0.535 0,-0.85 0.565,-1.34 0.39,-0.335 0.81,-0.335 0.19,0 0.3,0.03 l 0.115,0.03 q 0.205,-0.965 0.475,-1.29 0.09,-0.11 0.18,-0.11 0.145,0 0.27,0.2 0.11,0.165 0.11,0.285 0,0.12 -0.035,0.235 -0.035,0.115 -0.09,0.215 -0.05,0.095 -0.115,0.19 -0.065,0.09 -0.13,0.185 -0.145,0.54 -0.215,1.21 -0.02,0.19 -0.02,0.305 0,0.345 0.115,0.345 0.13,0 0.63,-0.52 0.09,-0.1 0.13,-0.1 z m -2.36,0.3 q 0,0.385 0.285,0.385 0.17,0 0.34,-0.13 0.175,-0.13 0.27,-0.435 0.01,-0.45 0.105,-0.99 -0.4,0.08 -0.7,0.39 -0.3,0.31 -0.3,0.78 z" font-family="Leckerli One" font-size="5" font-stretch="normal" font-variant="normal" font-weight="normal" letter-spacing="0" text-anchor="start" word-spacing="0" writing-mode="lr-tb"/><path font-style="normal" style="text-align:start;line-height:125%;-inkscape-font-specification:Leckerli One" id="path4205" fill="#000" fill-opacity=".235" stroke="none" d="m 26.886719,1027.5472 q 0.335,0 0.5,0.125 0.165,0.125 0.165,0.365 0,0.235 -0.145,0.405 -0.14,0.165 -0.345,0.235 0.145,0.15 0.26,0.305 0.12,0.155 0.12,0.325 0,0.335 -0.265,0.52 -0.265,0.18 -0.74,0.18 -0.47,0 -0.705,-0.185 -0.235,-0.19 -0.235,-0.425 0,-0.24 0.115,-0.435 0.12,-0.195 0.255,-0.195 0.08,0 0.115,0.06 0.035,0.055 0.13,0.33 0.035,0.1 0.115,0.19 0.185,0.205 0.585,0.205 -0.06,-0.19 -0.195,-0.325 -0.13,-0.14 -0.26,-0.27 -0.13,-0.13 -0.23,-0.275 -0.1,-0.15 -0.1,-0.35 0,-0.36 0.27,-0.585 0.255,-0.2 0.59,-0.2 z m -0.02,0.925 q 0.2,-0.215 0.2,-0.345 0,-0.06 -0.045,-0.105 -0.04,-0.05 -0.12,-0.05 -0.08,0 -0.155,0.02 -0.07,0.02 -0.115,0.03 0,0.19 0.235,0.45 z" font-family="Leckerli One" font-size="5" font-stretch="normal" font-variant="normal" font-weight="normal" letter-spacing="0" text-anchor="start" word-spacing="0" writing-mode="lr-tb"/><path font-style="normal" style="text-align:start;line-height:125%;-inkscape-font-specification:Leckerli One" id="path4207" fill="#000" fill-opacity=".235" stroke="none" d="m 29.413672,1028.2872 q 0,-0.18 -0.215,-0.18 -0.21,0 -0.415,0.33 -0.205,0.325 -0.255,0.665 0.01,0.115 0.02,0.23 0.01,0.115 0.01,0.225 0,0.265 -0.175,0.36 -0.08,0.045 -0.155,0.085 -0.07,0.04 -0.165,0.04 -0.095,0 -0.17,-0.125 -0.07,-0.13 -0.07,-0.4 0,-0.755 0.11,-1.31 0.17,-0.86 0.675,-1.84 0.07,-0.135 0.205,-0.13 0.135,0 0.22,0.185 0.085,0.185 0.08,0.31 0,0.125 -0.04,0.245 -0.035,0.115 -0.095,0.23 -0.055,0.11 -0.13,0.23 -0.07,0.115 -0.14,0.25 l -0.075,0.36 q 0.195,-0.325 0.525,-0.435 0.12,-0.04 0.265,-0.04 0.34,0 0.515,0.155 0.175,0.15 0.175,0.43 0,0.275 -0.075,0.56 -0.07,0.285 -0.105,0.41 -0.03,0.12 -0.03,0.2 0,0.08 0.055,0.08 0.075,0 0.185,-0.095 0.11,-0.095 0.22,-0.205 0.11,-0.115 0.2,-0.21 0.095,-0.095 0.13,-0.095 0.07,0 0.07,0.17 0,0.35 -0.345,0.675 -0.58,0.34 -0.74,0.34 -0.015,0 -0.02,-0.01 -0.4,0 -0.4,-0.64 0,-0.275 0.05,-0.505 0.055,-0.23 0.08,-0.335 0.025,-0.105 0.025,-0.215 z" font-family="Leckerli One" font-size="5" font-stretch="normal" font-variant="normal" font-weight="normal" letter-spacing="0" text-anchor="start" word-spacing="0" writing-mode="lr-tb"/><path font-style="normal" style="text-align:start;line-height:125%;-inkscape-font-specification:Leckerli One" id="path4209" fill="#000" fill-opacity=".235" stroke="none" d="m 31.677344,1029.4222 q 0.39,0 0.755,-0.31 0.135,-0.115 0.22,-0.21 0.085,-0.1 0.13,-0.1 0.07,0 0.07,0.14 0,0.14 -0.075,0.315 -0.075,0.17 -0.25,0.335 -0.43,0.405 -1.18,0.405 -0.595,0 -0.81,-0.43 -0.075,-0.15 -0.075,-0.43 0,-0.28 0.11,-0.58 0.11,-0.305 0.29,-0.525 0.185,-0.22 0.425,-0.34 0.24,-0.125 0.51,-0.125 0.275,0 0.42,0.135 0.15,0.135 0.15,0.35 0,0.215 -0.11,0.355 -0.105,0.135 -0.275,0.23 -0.17,0.09 -0.38,0.165 -0.205,0.07 -0.405,0.16 l 0,0.125 q 0.005,0.18 0.15,0.255 0.145,0.075 0.33,0.08 z m -0.085,-1.41 q -0.26,0 -0.36,0.605 0.105,-0.07 0.195,-0.125 0.095,-0.055 0.165,-0.105 0.15,-0.11 0.155,-0.25 0,-0.125 -0.155,-0.125 z" font-family="Leckerli One" font-size="5" font-stretch="normal" font-variant="normal" font-weight="normal" letter-spacing="0" text-anchor="start" word-spacing="0" writing-mode="lr-tb"/><path font-style="normal" style="text-align:start;line-height:125%;-inkscape-font-specification:Leckerli One" id="path4211" fill="#000" fill-opacity=".235" stroke="none" d="m 33.767188,1029.4222 q 0.39,0 0.755,-0.31 0.135,-0.115 0.22,-0.21 0.085,-0.1 0.13,-0.1 0.07,0 0.07,0.14 0,0.14 -0.075,0.315 -0.075,0.17 -0.25,0.335 -0.43,0.405 -1.18,0.405 -0.595,0 -0.81,-0.43 -0.075,-0.15 -0.075,-0.43 0,-0.28 0.11,-0.58 0.11,-0.305 0.29,-0.525 0.185,-0.22 0.425,-0.34 0.24,-0.125 0.51,-0.125 0.275,0 0.42,0.135 0.15,0.135 0.15,0.35 0,0.215 -0.11,0.355 -0.105,0.135 -0.275,0.23 -0.17,0.09 -0.38,0.165 -0.205,0.07 -0.405,0.16 l 0,0.125 q 0.005,0.18 0.15,0.255 0.145,0.075 0.33,0.08 z m -0.085,-1.41 q -0.26,0 -0.36,0.605 0.105,-0.07 0.195,-0.125 0.095,-0.055 0.165,-0.105 0.15,-0.11 0.155,-0.25 0,-0.125 -0.155,-0.125 z" font-family="Leckerli One" font-size="5" font-stretch="normal" font-variant="normal" font-weight="normal" letter-spacing="0" text-anchor="start" word-spacing="0" writing-mode="lr-tb"/><path font-style="normal" style="text-align:start;line-height:125%;-inkscape-font-specification:Leckerli One" id="path4213" fill="#000" fill-opacity=".235" stroke="none" d="m 34.912031,1029.6972 q -0.055,-0.135 -0.08,-0.31 -0.025,-0.18 -0.025,-0.5 0,-0.32 0.12,-0.865 l -0.225,0 q -0.06,0 -0.06,-0.05 0,-0.12 0.02,-0.195 0.025,-0.08 0.11,-0.18 l 0.12,0 q 0.07,0 0.15,0 0.24,-0.77 0.49,-0.77 0.2,0 0.28,0.255 0.02,0.07 0.045,0.15 l -0.205,0.36 q 0.35,0.01 0.44,0.01 0.095,0 0.1,0.02 0.01,0.015 0.01,0.05 0,0.09 -0.045,0.225 -0.04,0.135 -0.095,0.13 l -0.5,-0.025 q -0.105,0.61 -0.105,1.01 0,0.4 0.115,0.4 0.095,0 0.345,-0.155 0.25,-0.16 0.36,-0.305 0.11,-0.145 0.18,-0.145 0.07,0 0.07,0.17 0,0.17 -0.12,0.35 -0.12,0.175 -0.305,0.325 -0.18,0.145 -0.405,0.24 -0.22,0.095 -0.385,0.095 -0.165,0 -0.255,-0.075 -0.085,-0.08 -0.145,-0.21 z" font-family="Leckerli One" font-size="5" font-stretch="normal" font-variant="normal" font-weight="normal" letter-spacing="0" text-anchor="start" word-spacing="0" writing-mode="lr-tb"/><path font-style="normal" style="text-align:start;line-height:125%;-inkscape-font-specification:Leckerli One" id="path4215" fill="#000" fill-opacity=".235" stroke="none" d="m 37.414063,1027.5472 q 0.335,0 0.5,0.125 0.165,0.125 0.165,0.365 0,0.235 -0.145,0.405 -0.14,0.165 -0.345,0.235 0.145,0.15 0.26,0.305 0.12,0.155 0.12,0.325 0,0.335 -0.265,0.52 -0.265,0.18 -0.74,0.18 -0.47,0 -0.705,-0.185 -0.235,-0.19 -0.235,-0.425 0,-0.24 0.115,-0.435 0.12,-0.195 0.255,-0.195 0.08,0 0.115,0.06 0.035,0.055 0.13,0.33 0.035,0.1 0.115,0.19 0.185,0.205 0.585,0.205 -0.06,-0.19 -0.195,-0.325 -0.13,-0.14 -0.26,-0.27 -0.13,-0.13 -0.23,-0.275 -0.1,-0.15 -0.1,-0.35 0,-0.36 0.27,-0.585 0.255,-0.2 0.59,-0.2 z m -0.02,0.925 q 0.2,-0.215 0.2,-0.345 0,-0.06 -0.045,-0.105 -0.04,-0.05 -0.12,-0.05 -0.08,0 -0.155,0.02 -0.07,0.02 -0.115,0.03 0,0.19 0.235,0.45 z" font-family="Leckerli One" font-size="5" font-stretch="normal" font-variant="normal" font-weight="normal" letter-spacing="0" text-anchor="start" word-spacing="0" writing-mode="lr-tb"/><path font-style="normal" style="text-align:start;line-height:125%;-inkscape-font-specification:Leckerli One" id="path4168" fill="url(#linearGradient4217)" fill-opacity="1" stroke="none" d="m 10.640938,1028.5123 q 0,0.435 0.37,0.435 0.405,0 0.545,-0.28 0.05,-0.1 0.05,-0.255 0,-0.16 -0.075,-0.295 -0.125,-0.215 -0.43,-0.475 -0.505,-0.43 -0.505,-0.89 0,-0.465 0.29,-0.715 0.29,-0.25 0.665,-0.25 0.375,0 0.595,0.19 0.22,0.19 0.22,0.57 0,0.25 -0.17,0.435 -0.165,0.185 -0.44,0.23 0.125,0.105 0.25,0.215 0.12,0.11 0.22,0.24 0.22,0.295 0.22,0.705 0,0.285 -0.135,0.515 -0.13,0.23 -0.345,0.39 -0.21,0.155 -0.475,0.24 -0.265,0.085 -0.495,0.085 -0.49,0 -0.76,-0.225 -0.3150005,-0.255 -0.3150005,-0.735 0,-0.315 0.2050005,-0.61 0.205,-0.295 0.435,-0.295 0.18,0 0.18,0.11 0,0.16 -0.05,0.32 -0.05,0.155 -0.05,0.345 z m 0.97,-1.42 q 0.285,-0.285 0.285,-0.595 0,-0.095 -0.1,-0.16 -0.11,-0.06 -0.23,-0.06 -0.27,0 -0.39,0.175 0.06,0.215 0.175,0.365 0.12,0.15 0.26,0.275 z" font-family="Leckerli One" font-size="5" font-stretch="normal" font-variant="normal" font-weight="normal" letter-spacing="0" text-anchor="start" word-spacing="0" writing-mode="lr-tb"/><path font-style="normal" style="text-align:start;line-height:125%;-inkscape-font-specification:Leckerli One" id="path4170" fill="url(#linearGradient4219)" fill-opacity="1" stroke="none" d="m 13.7425,1027.4723 q 0.26,-0.295 0.665,-0.295 0.58,0 0.735,0.47 0.045,0.14 0.045,0.31 0,0.38 -0.25,0.75 -0.245,0.37 -0.595,0.5 l 0.06,0 q 0.365,0 0.74,-0.27 0.24,-0.17 0.375,-0.35 0.14,-0.185 0.21,-0.185 0.07,0 0.07,0.16 0,0.28 -0.24,0.565 -0.36,0.41 -0.92,0.48 -0.405,0.045 -0.575,0.015 -0.17,-0.03 -0.26,-0.075 -0.195,-0.1 -0.195,-0.3 0,-0.11 0.045,-0.2 0.395,0 0.6,-0.3 0.205,-0.3 0.205,-0.75 0,-0.11 -0.08,-0.195 -0.08,-0.09 -0.215,-0.09 -0.13,0 -0.285,0.115 -0.155,0.115 -0.25,0.29 -0.09,0.17 -0.165,0.34 -0.075,0.165 -0.12,0.42 -0.08,0.46 -0.185,1.16 -0.1,0.705 -0.125,0.755 -0.025,0.055 -0.075,0.1 -0.05,0.045 -0.105,0.045 -0.1,0 -0.165,-0.06 -0.18,-0.155 -0.21,-0.24 -0.03,-0.08 -0.03,-0.21 0,-0.49 0.165,-1.375 0.165,-0.885 0.57,-1.84 0.06,-0.14 0.21,-0.14 0.155,0 0.295,0.27 0.04,0.07 0.055,0.13 z" font-family="Leckerli One" font-size="5" font-stretch="normal" font-variant="normal" font-weight="normal" letter-spacing="0" text-anchor="start" word-spacing="0" writing-mode="lr-tb"/><path font-style="normal" style="text-align:start;line-height:125%;-inkscape-font-specification:Leckerli One" id="path4172" fill="url(#linearGradient4221)" fill-opacity="1" stroke="none" d="m 16.281406,1028.7273 0.03,0.61 q 0,0.12 -0.125,0.215 -0.125,0.095 -0.34,0.095 -0.125,0 -0.175,-0.13 -0.045,-0.13 -0.045,-0.38 0,-0.525 0.05,-0.82 0.055,-0.3 0.21,-0.605 -0.23,-0.22 -0.23,-0.38 0,-0.335 0.36,-0.335 0.185,0 0.325,0.195 0.1,0.135 0.145,0.315 0.07,0.025 0.175,0.025 0.145,0 0.335,-0.095 l 0.13,-0.065 q 0.06,-0.03 0.105,-0.03 0.145,0 0.29,0.425 -0.045,0.195 -0.1,0.375 -0.05,0.18 -0.12,0.435 -0.07,0.255 -0.075,0.345 0,0.085 0.055,0.085 0.075,0 0.185,-0.095 0.11,-0.095 0.22,-0.205 0.11,-0.115 0.2,-0.21 0.095,-0.095 0.13,-0.095 0.07,0 0.07,0.17 0,0.345 -0.305,0.68 -0.3,0.335 -0.69,0.33 -0.23,0 -0.345,-0.185 -0.115,-0.185 -0.12,-0.45 0,-0.525 0.235,-0.995 -0.11,0.045 -0.25,0.045 -0.135,0 -0.195,-0.01 -0.045,0.19 -0.09,0.385 -0.045,0.19 -0.045,0.355 z" font-family="Leckerli One" font-size="5" font-stretch="normal" font-variant="normal" font-weight="normal" letter-spacing="0" text-anchor="start" word-spacing="0" writing-mode="lr-tb"/><path font-style="normal" style="text-align:start;line-height:125%;-inkscape-font-specification:Leckerli One" id="path4174" fill="url(#linearGradient4223)" fill-opacity="1" stroke="none" d="m 19.001563,1029.0223 q 0.39,0 0.755,-0.31 0.135,-0.115 0.22,-0.21 0.085,-0.1 0.13,-0.1 0.07,0 0.07,0.14 0,0.14 -0.075,0.315 -0.075,0.17 -0.25,0.335 -0.43,0.405 -1.18,0.405 -0.595,0 -0.81,-0.43 -0.075,-0.15 -0.075,-0.43 0,-0.28 0.11,-0.58 0.11,-0.305 0.29,-0.525 0.185,-0.22 0.425,-0.34 0.24,-0.125 0.51,-0.125 0.275,0 0.42,0.135 0.15,0.135 0.15,0.35 0,0.215 -0.11,0.355 -0.105,0.135 -0.275,0.23 -0.17,0.09 -0.38,0.165 -0.205,0.07 -0.405,0.16 l 0,0.125 q 0.005,0.18 0.15,0.255 0.145,0.075 0.33,0.08 z m -0.085,-1.41 q -0.26,0 -0.36,0.605 0.105,-0.07 0.195,-0.125 0.095,-0.055 0.165,-0.105 0.15,-0.11 0.155,-0.25 0,-0.125 -0.155,-0.125 z" font-family="Leckerli One" font-size="5" font-stretch="normal" font-variant="normal" font-weight="normal" letter-spacing="0" text-anchor="start" word-spacing="0" writing-mode="lr-tb"/><path font-style="normal" style="text-align:start;line-height:125%;-inkscape-font-specification:Leckerli One" id="path4176" fill="url(#linearGradient4225)" fill-opacity="1" stroke="none" d="m 22.996406,1028.3873 q 0.09,0 0.09,0.23 0,0.125 -0.105,0.305 -0.105,0.175 -0.275,0.325 -0.165,0.145 -0.37,0.24 -0.205,0.095 -0.4,0.095 -0.265,0 -0.355,-0.465 -0.13,0.215 -0.34,0.355 -0.21,0.135 -0.565,0.135 -0.35,0 -0.565,-0.22 -0.215,-0.22 -0.21,-0.535 0,-0.85 0.565,-1.34 0.24,-0.205 0.445,-0.27 0.21,-0.065 0.44,-0.065 0.23,0 0.375,0.08 0.07,-0.145 0.16,-0.145 0.175,0 0.33,0.155 0.16,0.15 0.16,0.285 -0.07,0.165 -0.205,0.395 -0.04,0.23 -0.04,0.645 0,0.415 0.105,0.415 0.13,0 0.63,-0.52 0.09,-0.1 0.13,-0.1 z m -2.36,0.3 q 0,0.385 0.285,0.385 0.305,-0.01 0.505,-0.325 0.07,-0.11 0.115,-0.27 0,-0.56 0.1,-0.96 -0.405,0.08 -0.705,0.39 -0.3,0.31 -0.3,0.78 z" font-family="Leckerli One" font-size="5" font-stretch="normal" font-variant="normal" font-weight="normal" letter-spacing="0" text-anchor="start" word-spacing="0" writing-mode="lr-tb"/><path font-style="normal" style="text-align:start;line-height:125%;-inkscape-font-specification:Leckerli One" id="path4178" fill="url(#linearGradient4227)" fill-opacity="1" stroke="none" d="m 25.906563,1028.3873 q 0.09,0 0.09,0.23 0,0.125 -0.105,0.305 -0.105,0.175 -0.275,0.325 -0.165,0.145 -0.37,0.24 -0.205,0.095 -0.4,0.095 -0.275,0 -0.36,-0.45 -0.3,0.475 -0.89,0.475 -0.36,0 -0.575,-0.22 -0.215,-0.22 -0.21,-0.535 0,-0.85 0.565,-1.34 0.39,-0.335 0.81,-0.335 0.19,0 0.3,0.03 l 0.115,0.03 q 0.205,-0.965 0.475,-1.29 0.09,-0.11 0.18,-0.11 0.145,0 0.27,0.2 0.11,0.165 0.11,0.285 0,0.12 -0.035,0.235 -0.035,0.115 -0.09,0.215 -0.05,0.095 -0.115,0.19 -0.065,0.09 -0.13,0.185 -0.145,0.54 -0.215,1.21 -0.02,0.19 -0.02,0.305 0,0.345 0.115,0.345 0.13,0 0.63,-0.52 0.09,-0.1 0.13,-0.1 z m -2.36,0.3 q 0,0.385 0.285,0.385 0.17,0 0.34,-0.13 0.175,-0.13 0.27,-0.435 0.01,-0.45 0.105,-0.99 -0.4,0.08 -0.7,0.39 -0.3,0.31 -0.3,0.78 z" font-family="Leckerli One" font-size="5" font-stretch="normal" font-variant="normal" font-weight="normal" letter-spacing="0" text-anchor="start" word-spacing="0" writing-mode="lr-tb"/><path font-style="normal" style="text-align:start;line-height:125%;-inkscape-font-specification:Leckerli One" id="path4180" fill="url(#linearGradient4229)" fill-opacity="1" stroke="none" d="m 26.886719,1027.1473 q 0.335,-0.01 0.5,0.125 0.165,0.125 0.165,0.365 0,0.235 -0.145,0.405 -0.14,0.165 -0.345,0.235 0.145,0.15 0.26,0.305 0.12,0.155 0.12,0.325 0,0.335 -0.265,0.52 -0.265,0.18 -0.74,0.18 -0.47,0 -0.705,-0.185 -0.235,-0.19 -0.235,-0.425 0,-0.24 0.115,-0.435 0.12,-0.195 0.255,-0.195 0.08,0 0.115,0.06 0.035,0.055 0.13,0.33 0.035,0.1 0.115,0.19 0.185,0.205 0.585,0.205 -0.06,-0.19 -0.195,-0.325 -0.13,-0.14 -0.26,-0.27 -0.13,-0.13 -0.23,-0.275 -0.1,-0.15 -0.1,-0.35 0,-0.36 0.27,-0.585 0.255,-0.2 0.59,-0.2 z m -0.02,0.925 q 0.2,-0.215 0.2,-0.345 0,-0.06 -0.045,-0.105 -0.04,-0.05 -0.12,-0.05 -0.08,0 -0.155,0.02 -0.07,0.02 -0.115,0.03 0,0.19 0.235,0.45 z" font-family="Leckerli One" font-size="5" font-stretch="normal" font-variant="normal" font-weight="normal" letter-spacing="0" text-anchor="start" word-spacing="0" writing-mode="lr-tb"/><path font-style="normal" style="text-align:start;line-height:125%;-inkscape-font-specification:Leckerli One" id="path4182" fill="url(#linearGradient4231)" fill-opacity="1" stroke="none" d="m 29.413672,1027.8873 q 0,-0.18 -0.215,-0.18 -0.21,0 -0.415,0.33 -0.205,0.325 -0.255,0.665 0.01,0.115 0.02,0.23 0.01,0.115 0.01,0.225 0,0.265 -0.175,0.36 -0.08,0.045 -0.155,0.085 -0.07,0.04 -0.165,0.04 -0.095,0 -0.17,-0.125 -0.07,-0.13 -0.07,-0.4 0,-0.755 0.11,-1.31 0.17,-0.86 0.675,-1.84 0.07,-0.135 0.205,-0.13 0.135,0 0.22,0.185 0.085,0.185 0.08,0.31 0,0.125 -0.04,0.245 -0.035,0.115 -0.095,0.23 -0.055,0.11 -0.13,0.23 -0.07,0.115 -0.14,0.25 l -0.075,0.36 q 0.195,-0.325 0.525,-0.435 0.12,-0.04 0.265,-0.04 0.34,0 0.515,0.155 0.175,0.15 0.175,0.43 0,0.275 -0.075,0.56 -0.07,0.285 -0.105,0.41 -0.03,0.12 -0.03,0.2 0,0.08 0.055,0.08 0.075,0 0.185,-0.095 0.11,-0.095 0.22,-0.205 0.11,-0.115 0.2,-0.21 0.095,-0.095 0.13,-0.095 0.07,0 0.07,0.17 0,0.35 -0.345,0.675 -0.58,0.34 -0.74,0.34 -0.015,0 -0.02,0 -0.4,0 -0.4,-0.64 0,-0.275 0.05,-0.505 0.055,-0.23 0.08,-0.335 0.025,-0.105 0.025,-0.215 z" font-family="Leckerli One" font-size="5" font-stretch="normal" font-variant="normal" font-weight="normal" letter-spacing="0" text-anchor="start" word-spacing="0" writing-mode="lr-tb"/><path font-style="normal" style="text-align:start;line-height:125%;-inkscape-font-specification:Leckerli One" id="path4184" fill="url(#linearGradient4233)" fill-opacity="1" stroke="none" d="m 31.677344,1029.0223 q 0.39,0 0.755,-0.31 0.135,-0.115 0.22,-0.21 0.085,-0.1 0.13,-0.1 0.07,0 0.07,0.14 0,0.14 -0.075,0.315 -0.075,0.17 -0.25,0.335 -0.43,0.405 -1.18,0.405 -0.595,0 -0.81,-0.43 -0.075,-0.15 -0.075,-0.43 0,-0.28 0.11,-0.58 0.11,-0.305 0.29,-0.525 0.185,-0.22 0.425,-0.34 0.24,-0.125 0.51,-0.125 0.275,0 0.42,0.135 0.15,0.135 0.15,0.35 0,0.215 -0.11,0.355 -0.105,0.135 -0.275,0.23 -0.17,0.09 -0.38,0.165 -0.205,0.07 -0.405,0.16 l 0,0.125 q 0.005,0.18 0.15,0.255 0.145,0.075 0.33,0.08 z m -0.085,-1.41 q -0.26,0 -0.36,0.605 0.105,-0.07 0.195,-0.125 0.095,-0.055 0.165,-0.105 0.15,-0.11 0.155,-0.25 0,-0.125 -0.155,-0.125 z" font-family="Leckerli One" font-size="5" font-stretch="normal" font-variant="normal" font-weight="normal" letter-spacing="0" text-anchor="start" word-spacing="0" writing-mode="lr-tb"/><path font-style="normal" style="text-align:start;line-height:125%;-inkscape-font-specification:Leckerli One" id="path4186" fill="url(#linearGradient4235)" fill-opacity="1" stroke="none" d="m 33.767188,1029.0223 q 0.39,0 0.755,-0.31 0.135,-0.115 0.22,-0.21 0.085,-0.1 0.13,-0.1 0.07,0 0.07,0.14 0,0.14 -0.075,0.315 -0.075,0.17 -0.25,0.335 -0.43,0.405 -1.18,0.405 -0.595,0 -0.81,-0.43 -0.075,-0.15 -0.075,-0.43 0,-0.28 0.11,-0.58 0.11,-0.305 0.29,-0.525 0.185,-0.22 0.425,-0.34 0.24,-0.125 0.51,-0.125 0.275,0 0.42,0.135 0.15,0.135 0.15,0.35 0,0.215 -0.11,0.355 -0.105,0.135 -0.275,0.23 -0.17,0.09 -0.38,0.165 -0.205,0.07 -0.405,0.16 l 0,0.125 q 0.005,0.18 0.15,0.255 0.145,0.075 0.33,0.08 z m -0.085,-1.41 q -0.26,0 -0.36,0.605 0.105,-0.07 0.195,-0.125 0.095,-0.055 0.165,-0.105 0.15,-0.11 0.155,-0.25 0,-0.125 -0.155,-0.125 z" font-family="Leckerli One" font-size="5" font-stretch="normal" font-variant="normal" font-weight="normal" letter-spacing="0" text-anchor="start" word-spacing="0" writing-mode="lr-tb"/><path font-style="normal" style="text-align:start;line-height:125%;-inkscape-font-specification:Leckerli One" id="path4188" fill="url(#linearGradient4237)" fill-opacity="1" stroke="none" d="m 34.912031,1029.2973 q -0.055,-0.135 -0.08,-0.31 -0.025,-0.18 -0.025,-0.5 0,-0.32 0.12,-0.865 l -0.225,0 q -0.06,0 -0.06,-0.05 0,-0.12 0.02,-0.195 0.025,-0.08 0.11,-0.18 l 0.12,0 q 0.07,0 0.15,-0.01 0.24,-0.77 0.49,-0.77 0.2,0.01 0.28,0.255 0.02,0.07 0.045,0.15 l -0.205,0.36 q 0.35,0.01 0.44,0.01 0.095,0 0.1,0.02 0.01,0.015 0.01,0.05 0,0.09 -0.045,0.225 -0.04,0.135 -0.095,0.13 l -0.5,-0.025 q -0.105,0.61 -0.105,1.01 0,0.4 0.115,0.4 0.095,0 0.345,-0.155 0.25,-0.16 0.36,-0.305 0.11,-0.145 0.18,-0.145 0.07,0 0.07,0.17 0,0.17 -0.12,0.35 -0.12,0.175 -0.305,0.325 -0.18,0.145 -0.405,0.24 -0.22,0.095 -0.385,0.095 -0.165,0 -0.255,-0.075 -0.085,-0.08 -0.145,-0.21 z" font-family="Leckerli One" font-size="5" font-stretch="normal" font-variant="normal" font-weight="normal" letter-spacing="0" text-anchor="start" word-spacing="0" writing-mode="lr-tb"/><path font-style="normal" style="text-align:start;line-height:125%;-inkscape-font-specification:Leckerli One" id="path4190" fill="url(#linearGradient4239)" fill-opacity="1" stroke="none" d="m 37.414063,1027.1473 q 0.335,-0.01 0.5,0.125 0.165,0.125 0.165,0.365 0,0.235 -0.145,0.405 -0.14,0.165 -0.345,0.235 0.145,0.15 0.26,0.305 0.12,0.155 0.12,0.325 0,0.335 -0.265,0.52 -0.265,0.18 -0.74,0.18 -0.47,0 -0.705,-0.185 -0.235,-0.19 -0.235,-0.425 0,-0.24 0.115,-0.435 0.12,-0.195 0.255,-0.195 0.08,0 0.115,0.06 0.035,0.055 0.13,0.33 0.035,0.1 0.115,0.19 0.185,0.205 0.585,0.205 -0.06,-0.19 -0.195,-0.325 -0.13,-0.14 -0.26,-0.27 -0.13,-0.13 -0.23,-0.275 -0.1,-0.15 -0.1,-0.35 0,-0.36 0.27,-0.585 0.255,-0.2 0.59,-0.2 z m -0.02,0.925 q 0.2,-0.215 0.2,-0.345 0,-0.06 -0.045,-0.105 -0.04,-0.05 -0.12,-0.05 -0.08,0 -0.155,0.02 -0.07,0.02 -0.115,0.03 0,0.19 0.235,0.45 z" font-family="Leckerli One" font-size="5" font-stretch="normal" font-variant="normal" font-weight="normal" letter-spacing="0" text-anchor="start" word-spacing="0" writing-mode="lr-tb"/><path id="path4289" fill="#000" fill-opacity=".235" stroke="none" d="m 14.926116,1031.6797 c 0.567502,-0.1399 1.153876,-0.1694 1.734227,-0.2134 1.136767,-0.086 0.346769,-0.031 1.589804,-0.1118 2.035528,-0.144 4.075739,-0.253 6.116733,-0.2735 0.523963,-0.01 1.047975,0 1.571963,0 2.891882,0.068 5.780669,0.3042 8.647627,0.6886 0.490083,0.066 0.978565,0.1428 1.467848,0.2142 0.704952,0.103 0.559354,1.0999 -0.145599,0.997 l 0,0 c -0.481956,-0.071 -0.963122,-0.1465 -1.445868,-0.2113 -2.827008,-0.3794 -5.675561,-0.6126 -8.527166,-0.681 -0.514867,0 -1.029756,-0.01 -1.5446,0 -2.027403,0.02 -4.05403,0.1285 -6.07599,0.2717 -1.279932,0.083 -0.400593,0.022 -1.580695,0.1112 -0.531703,0.04 -1.069796,0.063 -1.58972,0.1921 -0.695465,0.1546 -0.914029,-0.8289 -0.218564,-0.9835 z"/><path id="path4287" fill="#272b30" fill-opacity="1" stroke="none" d="m 14.926116,26.917767 c 0.567502,-0.139918 1.153876,-0.169449 1.734227,-0.213385 1.136767,-0.08606 0.346769,-0.03146 1.589804,-0.111809 2.035528,-0.144053 4.075739,-0.253068 6.116733,-0.27353 0.523963,-0.0053 1.047975,0.0032 1.571963,0.0047 2.891882,0.06821 5.780669,0.304225 8.647627,0.688559 0.490083,0.0657 0.978565,0.142831 1.467848,0.214246 0.704952,0.102954 0.559354,1.099907 -0.145599,0.996954 l 0,0 c -0.481956,-0.07043 -0.963122,-0.146494 -1.445868,-0.211283 -2.827008,-0.37941 -5.675561,-0.612578 -8.527166,-0.680953 -0.514867,-0.0017 -1.029756,-0.01015 -1.5446,-0.005 -2.027403,0.02018 -4.05403,0.128506 -6.07599,0.271726 -1.279932,0.08262 -0.400593,0.02235 -1.580695,0.111178 -0.531703,0.04002 -1.069796,0.06346 -1.58972,0.192118 -0.695465,0.154548 -0.914029,-0.828989 -0.218564,-0.983536 z" transform="translate(0,1004.3622)"/></g></svg>