<svg xmlns="http://www.w3.org/2000/svg" xmlns:svg="http://www.w3.org/2000/svg" xmlns:xlink="http://www.w3.org/1999/xlink" id="svg5453" width="48" height="48" version="1.1"><defs id="defs5455"><linearGradient id="linearGradient1006"><stop id="stop1008" offset="0" stop-color="#afcca1" stop-opacity="1"/><stop id="stop1010" offset="1" stop-color="#fff" stop-opacity="0"/></linearGradient><linearGradient id="linearGradient947"><stop id="stop949" offset="0" stop-color="#3a931d" stop-opacity="1"/><stop id="stop951" offset="1" stop-color="#57ae30" stop-opacity="1"/></linearGradient><radialGradient id="radialGradient4697" cx="408.571" cy="-523.798" r="24" fx="408.571" fy="-523.798" gradientTransform="matrix(0.91666666,0,0,0.91666666,34.047599,-43.649865)" gradientUnits="userSpaceOnUse" xlink:href="#linearGradient4691"/><linearGradient id="linearGradient4691"><stop id="stop4693" offset="0" stop-color="#fff" stop-opacity="1"/><stop id="stop4695" offset="1" stop-color="#fff" stop-opacity="0"/></linearGradient><linearGradient id="linearGradient912" x1="411.071" x2="411.071" y1="-547.814" y2="-499.782" gradientTransform="translate(9.1738281e-7,-1.5616641e-5)" gradientUnits="userSpaceOnUse" xlink:href="#linearGradient947"/><linearGradient id="linearGradient990" x1="18.031" x2="20.329" y1="25.549" y2="25.549" gradientTransform="matrix(-1,0,0,1,430.88819,500.82591)" gradientUnits="userSpaceOnUse" xlink:href="#linearGradient1006"/><linearGradient id="linearGradient1180" x1="18.031" x2="25.544" y1="25.549" y2="25.549" gradientTransform="translate(381.38819,500.82591)" gradientUnits="userSpaceOnUse" xlink:href="#linearGradient1006"/></defs><metadata id="metadata5458"/><g id="layer1" transform="translate(-384.57143,-499.798)"><rect id="rect2991-1-7" width="48" height="48" x="384.571" y="-547.798" fill="url(#linearGradient912)" fill-opacity="1" stroke="none" ry="1.945" transform="scale(1,-1)"/><path id="path4103" fill="#000" fill-opacity=".059" stroke="none" d="m 394.45815,509.598 0,7.20099 0,11.76728 7.20117,0 0,-11.76728 13.82422,0 7.20117,0 0,-7.20099 -7.20117,0 -10.83398,0 -2.99024,0 L 394.45815,509.598 z m 7.20508,11.76728 0,7.20099 4.11523,0 9.70508,0 0,1.64058 0,2.99016 -10.83398,0 -10.19141,0 0,7.20099 2.99023,0 18.03516,0 0.0312,0 7.16992,0 0,-2.99016 0,-16.04061 -7.19726,0 0,-0.002 -9.70899,0 -3.69726,0 L 401.66323,521.36528 Z"/><path id="path4101" fill="#000" fill-opacity=".118" stroke="none" d="m 394.45815,509.198 0,7.20099 0,11.76728 7.20117,0 0,-11.76728 13.82422,0 7.20117,0 0,-7.20099 -7.20117,0 -10.83398,0 -2.99024,0 L 394.45815,509.198 z m 7.20508,11.76728 0,7.20099 4.11523,0 9.70508,0 0,1.64058 0,2.99016 -10.83398,0 -10.19141,0 0,7.20099 2.99023,0 18.03516,0 0.0312,0 7.16992,0 0,-2.99016 0,-16.04061 -7.19726,0 0,-0.002 -9.70899,0 -3.69726,0 L 401.66323,520.96528 Z"/><path id="path4082" fill="#000" fill-opacity=".235" stroke="none" d="m 394.45815,508.798 0,7.20099 0,11.76728 7.20117,0 0,-11.76728 13.82422,0 7.20117,0 0,-7.20099 -7.20117,0 -10.83398,0 -2.99024,0 L 394.45815,508.798 z m 7.20508,11.76728 0,7.20099 4.11523,0 9.70508,0 0,1.64058 0,2.99016 -10.83398,0 -10.19141,0 0,7.20099 2.99023,0 18.03516,0 0.0312,0 7.16992,0 0,-2.99016 0,-16.04061 -7.19726,0 0,-0.002 -9.70899,0 -3.69726,0 L 401.66323,520.56528 Z"/><rect id="rect4687" width="44" height="44" x="386.571" y="-545.798" fill="url(#radialGradient4697)" fill-opacity="1" stroke="none" opacity=".24" ry="1.782" transform="scale(1,-1)"/><path id="rect846" fill="#000" fill-opacity="1" stroke="none" d="m 384.57142,544.79804 0,1.0625 c 0,1.0773 0.86022,1.9375 1.9375,1.9375 l 44.125,0 c 1.07728,0 1.9375,-0.8602 1.9375,-1.9375 l 0,-1.0625 c 0,1.0773 -0.86022,1.9375 -1.9375,1.9375 l -44.125,0 C 385.43164,546.73554 384.57142,545.87534 384.57142,544.79804 Z"/><path id="path7515" fill="#fff" fill-opacity=".537" stroke="none" d="m 387.10267,500.45434 c -0.91709,0 -1.67115,0.6395 -1.84375,1.5 0.33561,-0.2799 0.77451,-0.4375 1.25,-0.4375 l 44.125,0 c 0.47549,0 0.91439,0.1576 1.25,0.4375 -0.1726,-0.8605 -0.92666,-1.5 -1.84375,-1.5 L 387.10267,500.45434 Z"/><path id="rect4280" fill="#000" fill-opacity=".392" stroke="none" d="m 386.50892,499.79804 c -1.07728,0 -1.9375,0.8602 -1.9375,1.9375 l 0,43.0625 c 0,0.7934 0.48002,1.449 1.15625,1.75 -0.30934,-0.3333 -0.5,-0.7824 -0.5,-1.2812 l 0,-42.9375 c 0,-1.0482 0.8269,-1.875 1.875,-1.875 l 42.9375,0 c 1.0481,0 1.875,0.8268 1.875,1.875 l 0,42.9375 c 0,0.4988 -0.19066,0.9479 -0.5,1.2812 0.67623,-0.301 1.15625,-0.9566 1.15625,-1.75 l 0,-43.0625 c 0,-1.0773 -0.86022,-1.9375 -1.9375,-1.9375 L 386.50892,499.79804 Z"/><path id="path973" fill="#fff" fill-opacity="1" stroke="none" d="m 401.66298,520.16537 0,7.20131 13.82394,0 0,-7.20131 -13.40601,0 L 401.66298,520.16537 Z"/><path id="path1051" fill="#fff" fill-opacity="1" stroke="none" d="m 394.45815,508.398 0,7.20167 0,11.76701 7.20131,0 0,-11.76701 13.82394,0 7.20131,0 0,-7.20167 -7.20131,0 -10.83411,0 -2.98983,0 L 394.45815,508.398 Z"/><path id="rect4639" fill="#fff" fill-opacity="1" stroke="none" d="m 415.4834,520.16682 0,8.83953 0,2.98998 -10.83411,0 -10.19114,0 0,7.20167 2.98983,0 18.03542,0 0.0321,0 7.16916,0 0,-2.98998 L 422.68466,520.16682 Z"/><g id="g1012" transform="matrix(1.0287585,0,0,1.0287585,-9.2431565,-17.053241)"><path id="path978" fill="url(#linearGradient1180)" fill-opacity="1" stroke="none" d="m 399.41944,522.20091 0,7 13.4375,0 0,-7 -13.03125,0 L 399.41944,522.20091 Z"/><path id="path988" fill="url(#linearGradient990)" fill-opacity="1" stroke="none" d="m 412.85694,522.20091 0,7 -9.4375,0 0,-7 L 412.45069,522.20091 Z" opacity=".6"/></g></g></svg>