<svg xmlns="http://www.w3.org/2000/svg" xmlns:svg="http://www.w3.org/2000/svg" xmlns:xlink="http://www.w3.org/1999/xlink" id="svg2" width="48" height="48" version="1.1"><defs id="defs4"><linearGradient id="linearGradient4996"><stop id="stop4998" offset="0" stop-color="#d9383c" stop-opacity="1"/><stop id="stop5000" offset="1" stop-color="#d9373c" stop-opacity="1"/></linearGradient><linearGradient id="linearGradient974"><stop id="stop976" offset="0" stop-color="#161a26" stop-opacity="1"/><stop id="stop978" offset="1" stop-color="#3b4351" stop-opacity="1"/></linearGradient><linearGradient id="linearGradient1607" x1="24" x2="24" y1="-1052.362" y2="-1004.321" gradientUnits="userSpaceOnUse" xlink:href="#linearGradient974"/><linearGradient id="linearGradient137480"><stop id="stop137482" offset="0" stop-color="#5a5a5a" stop-opacity="1"/><stop id="stop137484" offset="1" stop-color="#101010" stop-opacity="1"/></linearGradient><linearGradient id="linearGradient6194" x1="0" x2="1" y1="0" y2="0" gradientTransform="matrix(13.526835,20.525875,20.525875,-13.526835,19.18986,1021.0543)" gradientUnits="userSpaceOnUse" spreadMethod="pad"><stop id="stop6196" offset="0" stop-color="#fff" stop-opacity="1"/><stop id="stop6198" offset=".168" stop-color="#29282b" stop-opacity="1"/><stop id="stop6200" offset=".264" stop-color="#868c95" stop-opacity="1"/><stop id="stop6202" offset=".396" stop-color="#92979f" stop-opacity="1"/><stop id="stop6204" offset=".542" stop-color="#737881" stop-opacity="1"/><stop id="stop6206" offset=".626" stop-color="#70757e" stop-opacity="1"/><stop id="stop6208" offset=".718" stop-color="#e4e6e8" stop-opacity="1"/><stop id="stop6210" offset=".791" stop-color="#fff" stop-opacity="1"/><stop id="stop6212" offset="1" stop-color="#1d191a" stop-opacity="1"/></linearGradient><linearGradient id="linearGradient4768" x1="1004.313" x2="1012.362" y1="-34.625" y2="-34.625" gradientTransform="translate(0.50002588,0)" gradientUnits="userSpaceOnUse" xlink:href="#linearGradient6194"/><linearGradient id="linearGradient4772" x1="1004.313" x2="1012.362" y1="-34.625" y2="-34.625" gradientTransform="translate(0.50002588,2)" gradientUnits="userSpaceOnUse" xlink:href="#linearGradient6194"/><linearGradient id="linearGradient4788" x1="1004.313" x2="1012.362" y1="-34.625" y2="-34.625" gradientTransform="translate(0.50002588,22)" gradientUnits="userSpaceOnUse" xlink:href="#linearGradient6194"/><linearGradient id="linearGradient4792" x1="1004.313" x2="1012.362" y1="-34.625" y2="-34.625" gradientTransform="translate(0.50002588,20)" gradientUnits="userSpaceOnUse" xlink:href="#linearGradient6194"/><linearGradient id="linearGradient4863" x1="1013.469" x2="1011.539" y1="-13.206" y2="-13.206" gradientTransform="matrix(1.1578948,0,0,2.6595742,-159.62034,23.577133)" gradientUnits="userSpaceOnUse" xlink:href="#linearGradient137480"/><linearGradient id="linearGradient4871" x1="1013.469" x2="1011.539" y1="-13.206" y2="-13.206" gradientTransform="matrix(1.1578948,0,0,2.6595742,-159.62034,-4.4228665)" gradientUnits="userSpaceOnUse" xlink:href="#linearGradient137480"/><linearGradient id="linearGradient5002" x1="26.44" x2="26.44" y1="14.014" y2="4.028" gradientUnits="userSpaceOnUse" xlink:href="#linearGradient4996"/></defs><metadata id="metadata7"/><g id="layer1" transform="translate(0,-1004.3622)"><rect id="rect2991-1" width="48" height="48" x="0" y="-1052.362" fill="url(#linearGradient1607)" fill-opacity="1" stroke="none" ry="1.945" transform="scale(1,-1)"/><path id="rect846" fill="#000" fill-opacity="1" stroke="none" d="m -2.5027924e-6,1049.3622 0,1.0625 c 0,1.0773 0.8602230027924,1.9375 1.9375000027924,1.9375 l 44.1250005,0 c 1.077277,0 1.937505,-0.8602 1.937505,-1.9375 l 0,-1.0625 c 0,1.0773 -0.860228,1.9375 -1.937505,1.9375 l -44.1250005,0 C 0.8602205,1051.2997 -2.5027924e-6,1050.4395 -2.5027924e-6,1049.3622 Z"/><path id="path7515" fill="#fff" fill-opacity=".537" stroke="none" d="m 2.5312475,1005.0185 c -0.917088,0 -1.671147,0.6395 -1.84375,1.5 0.335612,-0.2799 0.774512,-0.4375 1.25,-0.4375 l 44.1250005,0 c 0.475488,0 0.914388,0.1576 1.250005,0.4375 -0.172608,-0.8605 -0.926667,-1.5 -1.843755,-1.5 L 2.5312475,1005.0185 Z"/><path id="rect4280-0" fill="#000" fill-opacity=".392" stroke="none" d="m 1.9374975,1004.3622 c -1.077277,0 -1.9375000027924,0.8602 -1.9375000027924,1.9375 l 0,43.0625 c 0,0.7934 0.4800240027924,1.449 1.1562500027924,1.75 -0.309342,-0.3333 -0.5,-0.7824 -0.5,-1.2812 l 0,-42.9375 c 0,-1.0482 0.826899,-1.875 1.875,-1.875 l 42.9375005,0 c 1.048101,0 1.875005,0.8268 1.875005,1.875 l 0,42.9375 c 0,0.4988 -0.190663,0.9479 -0.500005,1.2812 0.676225,-0.301 1.156255,-0.9566 1.156255,-1.75 l 0,-43.0625 c 0,-1.0773 -0.860228,-1.9375 -1.937505,-1.9375 L 1.9374975,1004.3622 Z"/><path id="path4523" fill="#000" fill-opacity=".235" stroke="none" d="m 4.7002825,1007.3622 c -0.942615,0 -1.700284,0.7576 -1.700284,1.7002 l 0,38.5995 c 0,0.9426 0.757669,1.7003 1.700284,1.7003 l 38.5994305,0 c 0.942618,0 1.700288,-0.7577 1.700288,-1.7003 l 0,-38.5994 C 45.000001,1008.1198 44.242331,1007.3622 43.299713,1007.3622 Z"/><path id="rect839" fill="#f9f9f9" fill-opacity="1" stroke="none" d="m 5.6193165,1008.3622 c -0.897728,0 -1.619318,0.7215 -1.619318,1.6192 l 0,36.7615 c 0,0.8977 0.72159,1.6193 1.619318,1.6193 l 36.7613625,0 c 0.897728,0 1.61932,-0.7216 1.61932,-1.6193 l 0,-36.7614 C 43.999998,1009.0837 43.278407,1008.3622 42.380679,1008.3622 Z"/><path id="path4949" fill="url(#linearGradient5002)" fill-opacity="1" stroke="none" d="M 5.625,4 C 4.727272,4 4,4.7273 4,5.625 L 4,14 44,14 44,5.625 C 44,4.7272 43.272728,4 42.375,4 Z" transform="translate(0,1004.3622)"/><rect id="rect4869" width="2.2" height="5" x="1011.662" y="-40.5" fill="url(#linearGradient4871)" fill-opacity="1" stroke="none" font-family="Derivia" font-size="24" font-stretch="normal" font-style="normal" font-variant="normal" font-weight="normal" letter-spacing="-.03" ry=".26" transform="matrix(0,1,-1,0,0,0)" word-spacing="0" style="line-height:125%;-inkscape-font-specification:Derivia"/><rect id="rect4855" width="2.2" height="5" x="1011.662" y="-12.5" fill="url(#linearGradient4863)" fill-opacity="1" stroke="none" font-family="Derivia" font-size="24" font-stretch="normal" font-style="normal" font-variant="normal" font-weight="normal" letter-spacing="-.03" ry=".26" transform="matrix(0,1,-1,0,0,0)" word-spacing="0" style="line-height:125%;-inkscape-font-specification:Derivia"/><rect id="rect4833" width="5" height="1.48" x="1008.462" y="-37.74" fill="#000" fill-opacity=".235" stroke="none" font-family="Derivia" font-size="24" font-stretch="normal" font-style="normal" font-variant="normal" font-weight="normal" letter-spacing="-.03" ry=".418" transform="matrix(0,1,-1,0,0,0)" word-spacing="0" style="line-height:125%;-inkscape-font-specification:Derivia"/><rect id="rect4829" width="5" height="1.18" x="1008.162" y="-37.59" fill="#000" fill-opacity=".235" stroke="none" font-family="Derivia" font-size="24" font-stretch="normal" font-style="normal" font-variant="normal" font-weight="normal" letter-spacing="-.03" ry=".333" transform="matrix(0,1,-1,0,0,0)" word-spacing="0" style="line-height:125%;-inkscape-font-specification:Derivia"/><rect id="rect4835" width="5" height="1.48" x="1008.462" y="-39.74" fill="#000" fill-opacity=".235" stroke="none" font-family="Derivia" font-size="24" font-stretch="normal" font-style="normal" font-variant="normal" font-weight="normal" letter-spacing="-.03" ry=".418" transform="matrix(0,1,-1,0,0,0)" word-spacing="0" style="line-height:125%;-inkscape-font-specification:Derivia"/><rect id="rect4837" width="5" height="1.18" x="1008.162" y="-39.59" fill="#000" fill-opacity=".235" stroke="none" font-family="Derivia" font-size="24" font-stretch="normal" font-style="normal" font-variant="normal" font-weight="normal" letter-spacing="-.03" ry=".333" transform="matrix(0,1,-1,0,0,0)" word-spacing="0" style="line-height:125%;-inkscape-font-specification:Derivia"/><rect id="rect4847" width="5" height="1.48" x="1008.462" y="-11.74" fill="#000" fill-opacity=".235" stroke="none" font-family="Derivia" font-size="24" font-stretch="normal" font-style="normal" font-variant="normal" font-weight="normal" letter-spacing="-.03" ry=".418" transform="matrix(0,1,-1,0,0,0)" word-spacing="0" style="line-height:125%;-inkscape-font-specification:Derivia"/><rect id="rect4849" width="5" height="1.18" x="1008.162" y="-11.59" fill="#000" fill-opacity=".235" stroke="none" font-family="Derivia" font-size="24" font-stretch="normal" font-style="normal" font-variant="normal" font-weight="normal" letter-spacing="-.03" ry=".333" transform="matrix(0,1,-1,0,0,0)" word-spacing="0" style="line-height:125%;-inkscape-font-specification:Derivia"/><rect id="rect4851" width="5" height="1.48" x="1008.462" y="-9.74" fill="#000" fill-opacity=".235" stroke="none" font-family="Derivia" font-size="24" font-stretch="normal" font-style="normal" font-variant="normal" font-weight="normal" letter-spacing="-.03" ry=".418" transform="matrix(0,1,-1,0,0,0)" word-spacing="0" style="line-height:125%;-inkscape-font-specification:Derivia"/><rect id="rect4853" width="5" height="1.18" x="1008.162" y="-9.59" fill="#000" fill-opacity=".235" stroke="none" font-family="Derivia" font-size="24" font-stretch="normal" font-style="normal" font-variant="normal" font-weight="normal" letter-spacing="-.03" ry=".333" transform="matrix(0,1,-1,0,0,0)" word-spacing="0" style="line-height:125%;-inkscape-font-specification:Derivia"/><g id="g4873" transform="translate(4.3754875,1.2382812e-5)"><rect id="rect4202-7" width="5" height=".7" x="1007.862" y="-34.975" fill="url(#linearGradient4768)" fill-opacity="1" stroke="none" font-family="Derivia" font-size="24" font-stretch="normal" font-style="normal" font-variant="normal" font-weight="normal" letter-spacing="-.03" ry=".198" transform="matrix(0,1,-1,0,0,0)" word-spacing="0" style="line-height:125%;-inkscape-font-specification:Derivia"/><rect id="rect4770" width="5" height=".7" x="1007.862" y="-32.975" fill="url(#linearGradient4772)" fill-opacity="1" stroke="none" font-family="Derivia" font-size="24" font-stretch="normal" font-style="normal" font-variant="normal" font-weight="normal" letter-spacing="-.03" ry=".198" transform="matrix(0,1,-1,0,0,0)" word-spacing="0" style="line-height:125%;-inkscape-font-specification:Derivia"/></g><g id="g4865" transform="translate(-3.6245125,1.2382812e-5)"><rect id="rect4786" width="5" height=".7" x="1007.862" y="-12.975" fill="url(#linearGradient4788)" fill-opacity="1" stroke="none" font-family="Derivia" font-size="24" font-stretch="normal" font-style="normal" font-variant="normal" font-weight="normal" letter-spacing="-.03" ry=".198" transform="matrix(0,1,-1,0,0,0)" word-spacing="0" style="line-height:125%;-inkscape-font-specification:Derivia"/><rect id="rect4790" width="5" height=".7" x="1007.862" y="-14.975" fill="url(#linearGradient4792)" fill-opacity="1" stroke="none" font-family="Derivia" font-size="24" font-stretch="normal" font-style="normal" font-variant="normal" font-weight="normal" letter-spacing="-.03" ry=".198" transform="matrix(0,1,-1,0,0,0)" word-spacing="0" style="line-height:125%;-inkscape-font-specification:Derivia"/></g><path font-stretch="normal" style="line-height:125%;-inkscape-font-specification:Derivia" id="rect4814" fill="#000" fill-opacity=".235" stroke="none" d="m 36.844237,1007.8622 c -0.109453,0 -0.1875,0.078 -0.1875,0.1875 l 0,4.625 c 0,0.1094 0.07805,0.1875 0.1875,0.1875 0.109453,0 0.21875,-0.078 0.21875,-0.1875 l 0,-4.625 C 37.062987,1007.9402 36.95369,1007.8622 36.844237,1007.8622 Z" font-family="Derivia" font-size="24" font-style="normal" font-variant="normal" font-weight="normal" letter-spacing="-.03" word-spacing="0"/><path font-stretch="normal" style="line-height:125%;-inkscape-font-specification:Derivia" id="path4819" fill="#000" fill-opacity=".235" stroke="none" d="m 38.837497,1007.8622 c -0.109453,0 -0.1875,0.078 -0.1875,0.1875 l 0,4.625 c 0,0.1095 0.07805,0.1875 0.1875,0.1875 0.109453,0 0.21875,-0.078 0.21875,-0.1875 l 0,-4.625 C 39.056247,1007.9402 38.94695,1007.8622 38.837497,1007.8622 Z" font-family="Derivia" font-size="24" font-style="normal" font-variant="normal" font-weight="normal" letter-spacing="-.03" word-spacing="0"/><path font-stretch="normal" style="line-height:125%;-inkscape-font-specification:Derivia" id="path4825" fill="#000" fill-opacity=".235" stroke="none" d="m 10.837497,1007.8622 c -0.109453,0 -0.1875,0.078 -0.1875,0.1875 l 0,4.625 c 0,0.1095 0.07805,0.1875 0.1875,0.1875 0.109454,0 0.21875,-0.078 0.21875,-0.1875 l 0,-4.625 C 11.056247,1007.9402 10.946951,1007.8622 10.837497,1007.8622 Z" font-family="Derivia" font-size="24" font-style="normal" font-variant="normal" font-weight="normal" letter-spacing="-.03" word-spacing="0"/><path font-stretch="normal" style="line-height:125%;-inkscape-font-specification:Derivia" id="path4827" fill="#000" fill-opacity=".235" stroke="none" d="m 8.837497,1007.8622 c -0.109453,0 -0.1875,0.078 -0.1875,0.1875 l 0,4.625 c 0,0.1095 0.07805,0.1875 0.1875,0.1875 0.109454,0 0.21875,-0.078 0.21875,-0.1875 l 0,-4.625 C 9.056247,1007.9402 8.946951,1007.8622 8.837497,1007.8622 Z" font-family="Derivia" font-size="24" font-style="normal" font-variant="normal" font-weight="normal" letter-spacing="-.03" word-spacing="0"/><path id="path4943" fill="#000" fill-opacity=".314" stroke="none" d="m 3.9999985,1044.956 0,1.7812 c 0,0.8977 0.727272,1.625 1.625,1.625 l 36.7500005,0 c 0.897728,0 1.625,-0.7273 1.625,-1.625 l 0,-1.7812 c 0,0.8977 -0.727272,1.5937 -1.625,1.5937 l -36.7500005,0 C 4.7272705,1046.5497 3.9999985,1045.8537 3.9999985,1044.956 Z"/><path id="path4948" fill="#000" fill-opacity=".314" stroke="none" d="m 3.9999985,1046.1435 0,0.5937 c 0,0.8977 0.727272,1.625 1.625,1.625 l 36.7500005,0 c 0.897728,0 1.625,-0.7273 1.625,-1.625 l 0,-0.5937 c 0,0.8977 -0.727272,1.625 -1.625,1.625 l -36.7500005,0 C 4.7272705,1047.7685 3.9999985,1047.0412 3.9999985,1046.1435 Z"/><path font-style="normal" style="text-align:start;line-height:125%;-inkscape-font-specification:Maven Pro Medium" id="path4104" fill="#15181f" fill-opacity="1" stroke="none" d="m 30.029629,1028.0511 c 0,-2.7556 -1.777777,-5.6889 -6.725925,-5.6889 -2.192593,0 -3.940741,0.6815 -5.214815,1.4222 l 0,2.6074 c 1.007407,-0.6815 2.666667,-1.4815 4.859259,-1.4815 1.985185,0 4.385185,0.5334 4.385185,3.1704 0,3.9704 -5.837037,9.2444 -9.57037,12.0889 l 0,2.1926 12.474074,0 0,-2.7556 -7.703704,0 c 3.318519,-2.9037 7.496296,-7.3481 7.496296,-11.5555 z" font-family="Maven Pro" font-size="29.63" font-stretch="normal" font-variant="normal" font-weight="500" letter-spacing="0" text-anchor="start" word-spacing="0" writing-mode="lr-tb"/><path font-style="normal" style="text-align:start;line-height:125%;-inkscape-font-specification:Maven Pro Medium" id="path4091" fill="#fff" fill-opacity="1" stroke="none" d="m 17.211942,1013.4837 c -0.445824,0 -0.823927,0.1298 -1.032731,0.2145 -0.18623,-0.1355 -0.440181,-0.2145 -0.750564,-0.2145 -0.598195,0 -1.072235,0.2314 -1.173815,0.2822 l 0,2.5846 0.519187,0 0,-2.2912 c 0.1693,-0.045 0.383747,-0.085 0.615124,-0.085 0.575621,0 0.648984,0.2709 0.648984,0.5361 l 0,1.8397 0.519188,0 0,-1.8115 c 0,-0.1524 -0.02257,-0.2934 -0.06772,-0.4176 0.163657,-0.068 0.434537,-0.158 0.756207,-0.158 0.507901,0 0.581265,0.2765 0.581265,0.5418 l 0,1.8453 0.513544,0 0,-1.8115 c 0,-0.6603 -0.417608,-1.0553 -1.128669,-1.0553 z" font-family="Maven Pro" font-size="5.643" font-stretch="normal" font-variant="normal" font-weight="500" letter-spacing="0" text-anchor="start" word-spacing="0" writing-mode="lr-tb"/><path font-style="normal" style="text-align:start;line-height:125%;-inkscape-font-specification:Maven Pro Medium" id="path4093" fill="#fff" fill-opacity="1" stroke="none" d="m 20.331123,1013.495 c -0.603838,0 -1.326185,0.2539 -1.326185,1.4503 0,1.1964 0.722347,1.4504 1.326185,1.4504 0.603837,0 1.326185,-0.254 1.326185,-1.4504 0,-1.1964 -0.722348,-1.4503 -1.326185,-1.4503 z m 0,2.4436 c -0.423251,0 -0.806998,-0.1185 -0.806998,-0.9933 0,-0.8747 0.383747,-0.9932 0.806998,-0.9932 0.423251,0 0.806998,0.1185 0.806998,0.9932 0,0.8748 -0.383747,0.9933 -0.806998,0.9933 z" font-family="Maven Pro" font-size="5.643" font-stretch="normal" font-variant="normal" font-weight="500" letter-spacing="0" text-anchor="start" word-spacing="0" writing-mode="lr-tb"/><path font-style="normal" style="text-align:start;line-height:125%;-inkscape-font-specification:Maven Pro Medium" id="path4095" fill="#fff" fill-opacity="1" stroke="none" d="m 22.829624,1016.3505 0,-2.2855 c 0.174944,-0.057 0.406321,-0.1016 0.660271,-0.1016 0.564334,0 0.637698,0.2709 0.637698,0.5361 l 0,1.851 0.519187,0 0,-1.8171 c 0,-0.6547 -0.42325,-1.0497 -1.134311,-1.0497 -0.660271,0 -1.179459,0.2822 -1.202032,0.2935 l 0,2.5733 0.519187,0 z" font-family="Maven Pro" font-size="5.643" font-stretch="normal" font-variant="normal" font-weight="500" letter-spacing="0" text-anchor="start" word-spacing="0" writing-mode="lr-tb"/><path font-style="normal" style="text-align:start;line-height:125%;-inkscape-font-specification:Maven Pro Medium" id="path4097" fill="#fff" fill-opacity="1" stroke="none" d="m 25.355549,1014.9058 c 0,1.298 0.778781,1.4899 1.247178,1.4899 1.077878,0 1.162528,-0.6998 1.162528,-0.9142 l 0,-3.0192 -0.513544,0 0,1.1117 c -0.197517,-0.056 -0.395034,-0.085 -0.603837,-0.085 -0.586908,0 -1.292325,0.2483 -1.292325,1.4164 z m 0.513544,0 c 0,-0.8408 0.378103,-0.9593 0.778781,-0.9593 0.208803,0 0.411964,0.039 0.603837,0.1185 l 0,1.4503 c 0,0.2822 -0.22009,0.4233 -0.648984,0.4233 -0.344244,0 -0.733634,-0.1185 -0.733634,-1.0328 z" font-family="Maven Pro" font-size="5.643" font-stretch="normal" font-variant="normal" font-weight="500" letter-spacing="0" text-anchor="start" word-spacing="0" writing-mode="lr-tb"/><path font-style="normal" style="text-align:start;line-height:125%;-inkscape-font-specification:Maven Pro Medium" id="path4099" fill="#fff" fill-opacity="1" stroke="none" d="m 29.536558,1013.4894 c -0.361173,0 -0.64334,0.073 -0.852144,0.1523 l 0,0.4402 c 0.180587,-0.062 0.457111,-0.1411 0.778781,-0.1411 0.553047,0 0.756208,0.2032 0.778781,0.6659 -0.163657,-0.023 -0.332957,-0.034 -0.513544,-0.034 -0.829571,0 -1.326185,0.3329 -1.326185,0.8916 0,0.2201 0.08465,0.9312 1.190745,0.9312 1.083521,0 1.168171,-0.6998 1.168171,-0.9142 l 0,-0.8127 c 0,-0.7618 -0.44018,-1.1794 -1.224605,-1.1794 z m 0.705418,1.9864 c 0,0.3104 -0.22009,0.4628 -0.648984,0.4628 -0.445824,0 -0.677201,-0.1581 -0.677201,-0.4797 0,-0.4007 0.592551,-0.4741 0.835214,-0.4741 0.186231,0 0.355531,0.011 0.490971,0.034 l 0,0.4571 z" font-family="Maven Pro" font-size="5.643" font-stretch="normal" font-variant="normal" font-weight="500" letter-spacing="0" text-anchor="start" word-spacing="0" writing-mode="lr-tb"/><path font-style="normal" style="text-align:start;line-height:125%;-inkscape-font-specification:Maven Pro Medium" id="path4101" fill="#fff" fill-opacity="1" stroke="none" d="m 33.192121,1013.5345 -0.744921,2.1106 -0.756208,-2.1106 -0.553047,0 1.060948,2.816 c -0.10158,0.3104 -0.282167,0.649 -0.564334,0.649 -0.10158,0 -0.208804,-0.017 -0.316027,-0.045 l 0,0.4627 c 0.129797,0.028 0.265237,0.045 0.395034,0.045 0.265237,0 0.62641,-0.1411 0.874717,-0.8127 l 1.156885,-3.1151 -0.553047,0 z" font-family="Maven Pro" font-size="5.643" font-stretch="normal" font-variant="normal" font-weight="500" letter-spacing="0" text-anchor="start" word-spacing="0" writing-mode="lr-tb"/></g></svg>