<svg xmlns="http://www.w3.org/2000/svg" xmlns:svg="http://www.w3.org/2000/svg" xmlns:xlink="http://www.w3.org/1999/xlink" id="svg2" width="48" height="48" version="1.1"><defs id="defs4"><linearGradient id="linearGradient4230"><stop id="stop4232" offset="0" stop-color="#6f0" stop-opacity=".28"/><stop id="stop4234" offset="1" stop-color="#6f0" stop-opacity="0"/></linearGradient><linearGradient id="linearGradient896"><stop id="stop898" offset="0" stop-color="#1a1a1a" stop-opacity="1"/><stop id="stop900" offset="1" stop-color="#4d4d4d" stop-opacity="1"/></linearGradient><linearGradient id="linearGradient4195"><stop id="stop4197" offset="0" stop-color="#dee4e4" stop-opacity="1"/><stop id="stop4199" offset="1" stop-color="#f2f2f0" stop-opacity="1"/></linearGradient><linearGradient id="linearGradient3312" x1="417.618" x2="417.618" y1="-547.808" y2="-499.799" gradientTransform="translate(-384.57144,-504.56428)" gradientUnits="userSpaceOnUse" xlink:href="#linearGradient896"/><linearGradient id="linearGradient4182" x1="416.772" x2="416.772" y1="544.22" y2="503.299" gradientTransform="translate(-384.57143,504.56416)" gradientUnits="userSpaceOnUse" xlink:href="#linearGradient4195"/><radialGradient id="radialGradient4236" cx="24" cy="24" r="24" fx="24" fy="24" gradientTransform="matrix(1,0,0,0.98958333,0,0.24999998)" gradientUnits="userSpaceOnUse" xlink:href="#linearGradient4230"/></defs><metadata id="metadata7"/><g id="layer1" transform="translate(0,-1004.3622)"><rect id="rect2991-1-7" width="48" height="48" x="0" y="-1052.362" fill="url(#linearGradient3312)" fill-opacity="1" stroke="none" ry="1.945" transform="scale(1,-1)"/><g id="text858" fill="#83cf4f" fill-opacity=".471" stroke="none" font-family="Roboto" font-size="40" font-stretch="normal" font-style="normal" font-variant="normal" font-weight="normal" letter-spacing="0" transform="matrix(0.37587893,0,0,0.37587893,-3.4357546,1014.5645)" word-spacing="0" style="line-height:125%;-inkscape-font-specification:Roboto"><path id="path863" fill="#83cf4f" fill-opacity=".471" d="m 31.351562,7.203125 0,-0.1171875 -10.683593,-3.5546875 0,-5.9765625 17.167968,7.03125 0,5.1953125 -17.167968,7.03125 0,-5.976562 10.683593,-3.632813 z"/><path id="path865" fill="#83cf4f" fill-opacity=".471" d="m 56.683594,22.652344 -17.636719,0 0,-4.902344 17.636719,0 0,4.902344 z"/></g><path id="path7515" fill="#fff" fill-opacity=".537" stroke="none" d="m 2.53125,1005.0185 c -0.917089,0 -1.671147,0.6395 -1.84375,1.5 0.335612,-0.2799 0.774512,-0.4375 1.25,-0.4375 l 44.124999,0 c 0.475488,0 0.914388,0.1576 1.25,0.4375 -0.172603,-0.8605 -0.926662,-1.5 -1.84375,-1.5 L 2.53125,1005.0185 Z"/><path id="rect846-5" fill="#000" fill-opacity="1" stroke="none" d="m 0,1049.3622 0,1.0625 c 0,1.0773 0.860223,1.9375 1.9375,1.9375 l 44.124999,0 c 1.077277,0 1.9375,-0.8602 1.9375,-1.9375 l 0,-1.0625 c 0,1.0773 -0.860223,1.9375 -1.9375,1.9375 l -44.124999,0 C 0.860223,1051.2997 0,1050.4395 0,1049.3622 Z"/><path id="rect4280-1" fill="#000" fill-opacity=".392" stroke="none" d="m 1.9375,1004.3622 c -1.077277,0 -1.9375,0.8602 -1.9375,1.9375 l 0,43.0625 c 0,0.7934 0.480023,1.449 1.15625,1.75 -0.309342,-0.3333 -0.5,-0.7824 -0.5,-1.2812 l 0,-42.9375 c 0,-1.0482 0.826899,-1.875 1.875,-1.875 l 42.937499,0 c 1.048101,0 1.875,0.8268 1.875,1.875 l 0,42.9375 c 0,0.4988 -0.190658,0.9479 -0.5,1.2812 0.676226,-0.301 1.15625,-0.9566 1.15625,-1.75 l 0,-43.0625 c 0,-1.0773 -0.860223,-1.9375 -1.9375,-1.9375 L 1.9375,1004.3622 Z"/><path id="path4223" fill="url(#radialGradient4236)" fill-opacity="1" stroke="none" d="M 0.03125 3 C 0.0075487 3.085 0.0027497 3.1581 0 3.25 L 48 3.25 C 47.9972 3.158 47.99244 3.0848 47.96875 3 L 0.03125 3 z M 0 4.640625 L 0 4.921875 L 48 4.921875 L 48 4.640625 L 0 4.640625 z M 0 6.3105469 L 0 6.5917969 L 48 6.5917969 L 48 6.3105469 L 0 6.3105469 z M 0 7.9824219 L 0 8.2636719 L 48 8.2636719 L 48 7.9824219 L 0 7.9824219 z M 0 9.6542969 L 0 9.9355469 L 48 9.9355469 L 48 9.6542969 L 0 9.6542969 z M 0 11.326172 L 0 11.607422 L 48 11.607422 L 48 11.326172 L 0 11.326172 z M 0 12.996094 L 0 13.277344 L 48 13.277344 L 48 12.996094 L 0 12.996094 z M 0 14.667969 L 0 14.949219 L 48 14.949219 L 48 14.667969 L 0 14.667969 z M 0 16.339844 L 0 16.621094 L 48 16.621094 L 48 16.339844 L 0 16.339844 z M 0 18.009766 L 0 18.291016 L 48 18.291016 L 48 18.009766 L 0 18.009766 z M 0 19.681641 L 0 19.962891 L 48 19.962891 L 48 19.681641 L 0 19.681641 z M 0 21.353516 L 0 21.634766 L 48 21.634766 L 48 21.353516 L 0 21.353516 z M 0 23.023438 L 0 23.304688 L 48 23.304688 L 48 23.023438 L 0 23.023438 z M 0 24.695312 L 0 24.945312 L 48 24.945312 L 48 24.695312 L 0 24.695312 z M 0 26.335938 L 0 26.617188 L 48 26.617188 L 48 26.335938 L 0 26.335938 z M 0 28.007812 L 0 28.289062 L 48 28.289062 L 48 28.007812 L 0 28.007812 z M 0 29.677734 L 0 29.958984 L 48 29.958984 L 48 29.677734 L 0 29.677734 z M 0 31.349609 L 0 31.630859 L 48 31.630859 L 48 31.349609 L 0 31.349609 z M 0 33.019531 L 0 33.300781 L 48 33.300781 L 48 33.019531 L 0 33.019531 z M 0 34.691406 L 0 34.972656 L 48 34.972656 L 48 34.691406 L 0 34.691406 z M 0 36.363281 L 0 36.644531 L 48 36.644531 L 48 36.363281 L 0 36.363281 z M 0 38.035156 L 0 38.314453 L 48 38.314453 L 48 38.035156 L 0 38.035156 z M 0 39.705078 L 0 39.986328 L 48 39.986328 L 48 39.705078 L 0 39.705078 z M 0 41.376953 L 0 41.658203 L 48 41.658203 L 48 41.376953 L 0 41.376953 z M 0 43.046875 L 0 43.328125 L 48 43.328125 L 48 43.046875 L 0 43.046875 z M 0 44.71875 L 0 44.75 C 0 44.836 0.0127607 44.9197 0.03125 45 L 47.96875 45 C 47.98724 44.92 48 44.8362 48 44.75 L 48 44.71875 L 0 44.71875 z" transform="translate(0,1004.3622)"/><path id="path4207" fill="#000" fill-opacity=".059" d="m 4.7712995,1049.9485 14.8514095,-19.4178 -15.2898095,-21.3503 9.8273595,0.01 12.183271,16.7878 -18.2165105,23.9721 -3.35572,0 z m 29.0682905,0.014 -12.09917,-16.8167 18.368189,-23.9833 3.27273,0 -14.91205,19.5093 15.19781,21.2907 -9.82751,0 z"/><path id="path4205" fill="#000" fill-opacity=".118" d="m 4.7712995,1049.5485 14.8514095,-19.4178 -15.2898095,-21.3503 9.8273595,0.01 12.183271,16.7878 -18.2165105,23.9721 -3.35572,0 z m 29.0682905,0.014 -12.09917,-16.8167 18.368189,-23.9833 3.27273,0 -14.91205,19.5093 15.19781,21.2907 -9.82751,0 z"/><path id="path4201" fill="#000" fill-opacity=".235" d="m 4.7712995,1049.1485 14.8514095,-19.4178 -15.2898095,-21.3503 9.8273595,0.01 12.183271,16.7878 -18.2165105,23.9721 -3.35572,0 z m 29.0682905,0.014 -12.09917,-16.8167 18.368189,-23.9833 3.27273,0 -14.91205,19.5093 15.19781,21.2907 -9.82751,0 z"/><path id="path17" fill="url(#linearGradient4182)" fill-opacity="1" d="m 4.7712995,1048.7485 14.8514095,-19.4178 -15.2898095,-21.3503 9.8273595,0.01 12.183271,16.7878 -18.2165105,23.9721 -3.35572,0 z m 29.0682905,0.014 -12.09917,-16.8167 18.368189,-23.9833 3.27273,0 -14.91205,19.5093 15.19781,21.2907 -9.82751,0 z"/><path id="path4209" fill="#000" fill-opacity=".314" d="m 42.76953,1007.9618 -14.30078,18.709 0.294921,0.4141 14.617188,-19.1231 -0.611329,0 z m -38.4374995,0.019 14.9941405,20.9356 0.296875,-0.3867 -14.7167965,-20.5489 -0.574219,0 z m 21.7148445,16.3868 -17.9199225,23.582 -2.744141,0 -0.611328,0.7988 3.355469,0 18.2167975,-23.9707 -0.296875,-0.4101 z m -4.009766,7.1894 -0.296875,0.3887 12.099605,16.8164 9.82813,0 -0.57227,-0.8008 -9.25586,0 -11.80273,-16.4043 z"/><path id="path4214" fill="#fff" fill-opacity=".235" d="m 40.10938,1007.9618 -18.369146,23.9844 0.148437,0.2051 18.220709,-23.7891 2.964839,0 0.30664,-0.4004 -3.271479,0 z m -35.7773495,0.019 0.285156,0.3985 9.5429695,0.01 12.035156,16.584 0.148438,-0.1953 -12.183594,-16.789 -9.8281255,-0.01 z m 24.2851565,19.6973 -0.148437,0.1934 14.914059,20.8906 0.28516,0 -15.050782,-21.084 z m -9.142578,1.8457 -14.7031255,19.2246 0.306641,0 14.5449215,-19.0176 -0.148437,-0.207 z"/></g></svg>