<svg xmlns="http://www.w3.org/2000/svg" xmlns:svg="http://www.w3.org/2000/svg" xmlns:xlink="http://www.w3.org/1999/xlink" id="svg2" width="48" height="48" version="1.1"><defs id="defs4"><linearGradient id="linearGradient848"><stop id="stop850" offset="0" stop-color="#333334" stop-opacity="1"/><stop id="stop852" offset="1" stop-color="#515255" stop-opacity="1"/></linearGradient><linearGradient id="linearGradient3795-1"><stop id="stop3797-3" offset="0" stop-color="#b1b1b1" stop-opacity="1"/><stop id="stop3799-8" offset="1" stop-color="#f9f9f9" stop-opacity="1"/></linearGradient><linearGradient id="linearGradient854" x1="29.168" x2="29.168" y1="-1052.373" y2="-1004.36" gradientUnits="userSpaceOnUse" xlink:href="#linearGradient848"/><linearGradient id="linearGradient901" x1="23.204" x2="23.204" y1="1053.158" y2="1004.847" gradientTransform="matrix(0.57607764,0,0,0.41148403,10.174135,594.04533)" gradientUnits="userSpaceOnUse" xlink:href="#linearGradient3795-1"/></defs><metadata id="metadata7"/><g id="layer1" transform="translate(0,-1004.3622)"><rect id="rect2991-1" width="48" height="48" x="0" y="-1052.362" fill="url(#linearGradient854)" fill-opacity="1" stroke="none" ry="1.945" transform="scale(1,-1)"/><path id="rect4280" fill="#000" fill-opacity=".255" stroke="none" d="m 1.9375,1004.3622 c -1.077277,0 -1.9375,0.8602 -1.9375,1.9375 l 0,44.125 c 0,1.0773 0.860223,1.9375 1.9375,1.9375 l 44.125,0 c 1.077277,0 1.9375,-0.8602 1.9375,-1.9375 l 0,-44.125 c 0,-1.0773 -0.860223,-1.9375 -1.9375,-1.9375 L 1.9375,1004.3622 z m 0.59375,0.6563 42.9375,0 c 1.048101,0 1.875,0.8268 1.875,1.875 l 0,42.9375 c 0,1.0481 -0.826899,1.875 -1.875,1.875 l -42.9375,0 c -1.048101,0 -1.875,-0.8269 -1.875,-1.875 l 0,-42.9375 C 0.65625,1005.8453 1.483149,1005.0185 2.53125,1005.0185 Z"/><path id="rect1002" fill="#19191a" fill-opacity="1" stroke="none" d="m 9.0847506,1006.1486 c -0.5074062,0 -0.9106154,0.4029 -0.9106154,0.9106 l 0,16.7872 c 0,0.5072 0.4032092,0.9107 0.9106154,0.9107 l 29.8304964,0 c 0.507407,0 0.910616,-0.4035 0.910616,-0.9107 l 0,-16.7872 C 39.825863,1006.5515 39.422654,1006.1486 38.915247,1006.1486 Z"/><g id="g1435" transform="translate(45.036427,5.87528)"><path id="rect846" fill="#000" fill-opacity="1" stroke="none" d="m -45.036427,1043.4869 0,1.0625 c 0,1.0773 0.86022,1.9375 1.9375,1.9375 l 44.1250001,0 c 1.07728,0 1.9375,-0.8602 1.9375,-1.9375 l 0,-1.0625 c 0,1.0773 -0.86022,1.9375 -1.9375,1.9375 l -44.1250001,0 C -44.176207,1045.4244 -45.036427,1044.5642 -45.036427,1043.4869 Z"/><path id="path7515" fill="#fff" fill-opacity=".537" stroke="none" d="m -42.505177,999.14324 c -0.91709,0 -1.67115,0.6395 -1.84375,1.49996 0.33561,-0.2799 0.77451,-0.4375 1.25,-0.4375 l 44.1250001,0 c 0.47549,0 0.91439,0.1576 1.25,0.4375 -0.1726,-0.86046 -0.92666,-1.49996 -1.84375004,-1.49996 L -42.505177,999.14324 Z"/><path id="rect4280-7" fill="#000" fill-opacity=".392" stroke="none" d="m -43.098927,998.48694 c -1.07728,0 -1.9375,0.8602 -1.9375,1.93746 l 0,43.0625 c 0,0.7934 0.48002,1.449 1.15625,1.75 -0.30934,-0.3333 -0.5,-0.7824 -0.5,-1.2812 l 0,-42.9375 c 0,-1.04816 0.8269,-1.87496 1.875,-1.87496 l 42.93750006,0 c 1.04810004,0 1.87500004,0.8268 1.87500004,1.87496 l 0,42.9375 c 0,0.4988 -0.19066,0.9479 -0.5,1.2812 0.67623,-0.301 1.15625,-0.9566 1.15625,-1.75 l 0,-43.0625 c 0,-1.07726 -0.86022,-1.93746 -1.9375,-1.93746 L -43.098927,998.48694 Z"/></g><path id="path863" fill="#fff" fill-opacity=".392" stroke="none" d="m 8.1875,1023.8464 0,0.4375 c 0,0.5072 0.3988438,0.9375 0.90625,0.9375 l 29.8125,0 c 0.507407,0 0.90625,-0.4303 0.90625,-0.9375 l 0,-0.4375 c 0,0.5072 -0.398843,0.9063 -0.90625,0.9063 l -29.8125,0 C 8.5863438,1024.7527 8.1875,1024.3536 8.1875,1023.8464 Z"/><g id="g927" transform="translate(-0.08009911,0)"><rect id="rect906" width="33.769" height="19.607" x="7.195" y="1029.054" fill="#f2f2f2" fill-opacity="1" fill-rule="nonzero" stroke="none" stroke-width=".793" color="#000" display="inline" enable-background="accumulate" overflow="visible" ry=".747" visibility="visible" style="marker:none"/><path d="m 7.2140964,1046.1092 0,1.966 c 0,0.321 0.3336169,0.5897 0.7877042,0.5897 l 32.1566024,0 c 0.454087,0 0.787704,-0.2687 0.787704,-0.5897 l 0,-1.966 L 7.2140964,1046.1092 Z" style="marker:none" id="rect910" fill="#00aad4" fill-opacity="1" fill-rule="nonzero" stroke="none" stroke-width=".793" color="#000" display="inline" enable-background="accumulate" overflow="visible" visibility="visible"/><g id="g919" fill="#b3b3b3" transform="matrix(1.4827255,0,0,1.3510028,-585.57882,253.9296)"><rect id="rect915" width="20.715" height="1.788" x="13.388" y="28.244" fill="#b3b3b3" fill-opacity="1" fill-rule="nonzero" stroke="none" stroke-width=".869" color="#000" display="inline" enable-background="accumulate" overflow="visible" transform="translate(387.42856,548.36218)" visibility="visible" style="marker:none"/><rect id="rect917" width="20.715" height="1.788" x="400.817" y="581.927" fill="#b3b3b3" fill-opacity="1" fill-rule="nonzero" stroke="none" stroke-width=".869" color="#000" display="inline" enable-background="accumulate" overflow="visible" visibility="visible" style="marker:none"/></g></g><path id="path897" fill="url(#linearGradient901)" fill-opacity="1" stroke="none" d="m 10.969671,1007.3244 c -0.443282,0 -0.795536,0.3521 -0.795536,0.7956 l 0,14.6656 c 0,0.4432 0.352254,0.7957 0.795536,0.7957 l 26.060656,0 c 0.443283,0 0.795536,-0.3525 0.795536,-0.7957 l 0,-14.6656 C 37.825863,1007.6765 37.47361,1007.3244 37.030327,1007.3244 z m 2.715797,2.7981 3.544991,0 c 0.31094,0 0.576078,0.2376 0.576078,0.5487 l 0,9.2338 c 0,0.3113 -0.265138,0.5761 -0.576078,0.5761 l -3.544991,0 c -0.310939,0 -0.57608,-0.2648 -0.57608,-0.5761 l 0,-9.2338 C 13.109388,1010.3601 13.374529,1010.1225 13.685468,1010.1225 Z"/><path id="path909" fill="#fff" fill-opacity=".194" stroke="none" d="m 8.1875,1024.3104 0,0.4375 c 0,0.5072 0.3988438,0.9375 0.90625,0.9375 l 29.8125,0 c 0.507407,0 0.90625,-0.4303 0.90625,-0.9375 l 0,-0.4375 c 0,0.5072 -0.398843,0.9063 -0.90625,0.9063 l -29.8125,0 C 8.5863438,1025.2167 8.1875,1024.8176 8.1875,1024.3104 Z"/><path id="path911" fill="#fff" fill-opacity=".098" stroke="none" d="m 8.1875,1024.7792 0,0.4375 c 0,0.5072 0.3988438,0.9375 0.90625,0.9375 l 29.8125,0 c 0.507407,0 0.90625,-0.4303 0.90625,-0.9375 l 0,-0.4375 c 0,0.5072 -0.398843,0.9063 -0.90625,0.9063 l -29.8125,0 C 8.5863438,1025.6855 8.1875,1025.2864 8.1875,1024.7792 Z"/></g></svg>