<svg xmlns="http://www.w3.org/2000/svg" xmlns:svg="http://www.w3.org/2000/svg" xmlns:xlink="http://www.w3.org/1999/xlink" id="svg2" width="48" height="48" version="1.1" viewBox="0 0 48 48"><defs id="defs4"><linearGradient id="linearGradient4074" x1="25.5" x2="25.5" y1="-1052.362" y2="-1004.862" gradientUnits="userSpaceOnUse" xlink:href="#linearGradient868-6"/><linearGradient id="linearGradient4166" x1="29.215" x2="29.215" y1="1043.757" y2="1012.975" gradientUnits="userSpaceOnUse" xlink:href="#linearGradient4682"/><linearGradient id="linearGradient4682"><stop id="stop4684" offset="0" stop-color="#d7d2e6" stop-opacity="1"/><stop id="stop4686" offset="1" stop-color="#faf9fb" stop-opacity="1"/></linearGradient><linearGradient id="linearGradient868-6"><stop id="stop870-0" offset="0" stop-color="#5d4b8b" stop-opacity="1"/><stop id="stop872-1" offset="1" stop-color="#6d589a" stop-opacity="1"/></linearGradient><defs id="defs4922"><filter id="Adobe_OpacityMaskFilter" width="5.883" height="73.013" x="3.785" y="4.675" color-interpolation-filters="sRGB" filterUnits="userSpaceOnUse"><feColorMatrix id="feColorMatrix4925" type="matrix" values="1 0 0 0 0 0 1 0 0 0 0 0 1 0 0 0 0 0 1 0"/></filter></defs><mask id="SVGID_2_" width="5.883" height="73.013" x="3.785" y="4.675" maskUnits="userSpaceOnUse"><g id="g4928" filter="url(#Adobe_OpacityMaskFilter)"><linearGradient id="SVGID_3_" x1="3.785" x2="9.668" y1="41.181" y2="41.181" gradientUnits="userSpaceOnUse"><stop id="stop4931" offset="0" stop-color="#FFF"/><stop id="stop4933" offset=".003" stop-color="#FAFBFB"/><stop id="stop4935" offset=".076" stop-color="#BBBDBF"/><stop id="stop4937" offset=".144" stop-color="#898B8E"/><stop id="stop4939" offset=".205" stop-color="#646567"/><stop id="stop4941" offset=".259" stop-color="#444446"/><stop id="stop4943" offset=".303" stop-color="#1D1C1D"/><stop id="stop4945" offset=".331" stop-color="#000"/></linearGradient><rect id="rect4947" width="5.883" height="73.013" x="3.785" y="4.675" fill="url(#SVGID_3_)"/></g></mask></defs><metadata id="metadata7"/><g id="layer1" transform="translate(0,-1004.3622)"><rect id="rect4050" width="48" height="48" x="0" y="-1052.362" fill="url(#linearGradient4074)" fill-opacity="1" stroke="none" ry="1.945" transform="scale(1,-1)"/><path id="path4189" fill="#000" fill-opacity=".059" stroke="none" d="m 27.701726,1017.6878 c 0,1.9463 -1.583453,3.5258 -3.534492,3.5258 -1.951039,0 -3.534492,-1.5795 -3.534492,-3.5258 0,-1.9461 1.583453,-3.5256 3.534492,-3.5256 1.951039,0 3.534492,1.5795 3.534492,3.5256 z m 8.371262,4.0962 -12.073354,1.7186 -12.00833,-1.7444 c -0.633111,-0.1711 -0.746846,-0.159 -1.093698,0.01 -0.346854,0.1668 -0.574241,0.429 -0.579024,0.805 -0.0044,0.3763 0.236482,0.7005 0.579024,0.8755 l 9.409696,2.8182 -0.06436,6.8357 -3.232395,10.2376 c -0.160287,0.5725 -0.09756,1.0117 0.169436,1.3756 0.338095,0.4609 1.159917,0.2162 1.479736,-0.25 l 5.358299,-11.0506 5.257154,11.0315 c 0.28427,0.4835 0.91794,0.6514 1.415389,0.3752 0.49745,-0.2763 0.520015,-0.8923 0.34209,-1.3758 l -3.214744,-10.2816 -0.128651,-6.4354 9.541729,-3.317 c 0.385524,-0.2628 0.553008,-0.7602 0.386028,-1.188 -0.166993,-0.428 -0.492018,-0.544 -0.959837,-0.4923 -0.167539,-0.016 -0.438115,0.01 -0.584188,0.052 z"/><path id="path4187" fill="#000" fill-opacity=".118" stroke="none" d="m 27.701726,1017.2878 c 0,1.9463 -1.583453,3.5258 -3.534492,3.5258 -1.951039,0 -3.534492,-1.5795 -3.534492,-3.5258 0,-1.9461 1.583453,-3.5256 3.534492,-3.5256 1.951039,0 3.534492,1.5795 3.534492,3.5256 z m 8.371262,4.0962 -12.073354,1.7186 -12.00833,-1.7444 c -0.633111,-0.1711 -0.746846,-0.159 -1.093698,0.01 -0.346854,0.1668 -0.574241,0.429 -0.579024,0.805 -0.0044,0.3763 0.236482,0.7005 0.579024,0.8755 l 9.409696,2.8182 -0.06436,6.8357 -3.232395,10.2376 c -0.160287,0.5725 -0.09756,1.0117 0.169436,1.3756 0.338095,0.4609 1.159917,0.2162 1.479736,-0.25 l 5.358299,-11.0506 5.257154,11.0315 c 0.28427,0.4835 0.91794,0.6514 1.415389,0.3752 0.49745,-0.2763 0.520015,-0.8923 0.34209,-1.3758 l -3.214744,-10.2816 -0.128651,-6.4354 9.541729,-3.317 c 0.385524,-0.2628 0.553008,-0.7602 0.386028,-1.188 -0.166993,-0.428 -0.492018,-0.544 -0.959837,-0.4923 -0.167539,-0.016 -0.438115,0.01 -0.584188,0.052 z"/><path id="path4052" fill="#000" fill-opacity="1" stroke="none" d="m -6.0754395e-7,1049.3622 0,1.0625 c 0,1.0773 0.86022299754395,1.9375 1.93750000754395,1.9375 l 44.1249996,0 c 1.077277,0 1.9375,-0.8602 1.9375,-1.9375 l 0,-1.0625 c 0,1.0773 -0.860223,1.9375 -1.9375,1.9375 l -44.1249996,0 c -1.07727701,0 -1.93750000754395,-0.8602 -1.93750000754395,-1.9375 z"/><path id="path4054" fill="#fff" fill-opacity=".537" stroke="none" d="m 2.5312494,1005.0185 c -0.917089,0 -1.67114701,0.6395 -1.84375001,1.5 0.33561201,-0.2799 0.77451201,-0.4375 1.25000001,-0.4375 l 44.1249996,0 c 0.475488,0 0.914388,0.1576 1.25,0.4375 -0.172603,-0.8605 -0.926662,-1.5 -1.84375,-1.5 l -42.9374996,0 z"/><path id="path4056" fill="#000" fill-opacity=".392" stroke="none" d="m 1.9374994,1004.3622 c -1.07727701,0 -1.93750000754395,0.8602 -1.93750000754395,1.9375 l 0,43.0625 c 0,0.7934 0.48002399754395,1.449 1.15625000754395,1.75 -0.30934201,-0.3333 -0.50000001,-0.7824 -0.50000001,-1.2812 l 0,-42.9375 c 0,-1.0482 0.82689901,-1.875 1.87500001,-1.875 l 42.9374996,0 c 1.048101,0 1.875,0.8268 1.875,1.875 l 0,42.9375 c 0,0.4988 -0.190658,0.9479 -0.5,1.2812 0.676226,-0.301 1.15625,-0.9566 1.15625,-1.75 l 0,-43.0625 c 0,-1.0773 -0.860223,-1.9375 -1.9375,-1.9375 l -44.1249996,0 z"/><path id="path4181" fill="#000" fill-opacity=".235" stroke="none" d="m 27.701726,1016.8878 c 0,1.9463 -1.583453,3.5258 -3.534492,3.5258 -1.951039,0 -3.534492,-1.5795 -3.534492,-3.5258 0,-1.9461 1.583453,-3.5256 3.534492,-3.5256 1.951039,0 3.534492,1.5795 3.534492,3.5256 z m 8.371262,4.0962 -12.073354,1.7186 -12.00833,-1.7444 c -0.633111,-0.1711 -0.746846,-0.159 -1.093698,0.01 -0.346854,0.1668 -0.574241,0.429 -0.579024,0.805 -0.0044,0.3763 0.236482,0.7005 0.579024,0.8755 l 9.409696,2.8182 -0.06436,6.8357 -3.232395,10.2376 c -0.160287,0.5725 -0.09756,1.0117 0.169436,1.3756 0.338095,0.4609 1.159917,0.2162 1.479736,-0.25 l 5.358299,-11.0506 5.257154,11.0315 c 0.28427,0.4835 0.91794,0.6514 1.415389,0.3752 0.49745,-0.2763 0.520015,-0.8923 0.34209,-1.3758 l -3.214744,-10.2816 -0.128651,-6.4354 9.541729,-3.317 c 0.385524,-0.2628 0.553008,-0.7602 0.386028,-1.188 -0.166993,-0.428 -0.492018,-0.544 -0.959837,-0.4923 -0.167539,-0.016 -0.438115,0.01 -0.584188,0.052 z"/><path id="path4060" fill="url(#linearGradient4166)" fill-opacity="1" stroke="none" d="m 27.701726,1016.4878 c 0,1.9463 -1.583453,3.5258 -3.534492,3.5258 -1.951039,0 -3.534492,-1.5795 -3.534492,-3.5258 0,-1.9461 1.583453,-3.5256 3.534492,-3.5256 1.951039,0 3.534492,1.5795 3.534492,3.5256 z m 8.371262,4.0962 -12.073354,1.7186 -12.00833,-1.7444 c -0.633111,-0.1711 -0.746846,-0.159 -1.093698,0.01 -0.346854,0.1668 -0.574241,0.429 -0.579024,0.805 -0.0044,0.3763 0.236482,0.7005 0.579024,0.8755 l 9.409696,2.8182 -0.06436,6.8357 -3.232395,10.2376 c -0.160287,0.5725 -0.09756,1.0117 0.169436,1.3756 0.338095,0.4609 1.159917,0.2162 1.479736,-0.25 l 5.358299,-11.0506 5.257154,11.0315 c 0.28427,0.4835 0.91794,0.6514 1.415389,0.3752 0.49745,-0.2763 0.520015,-0.8923 0.34209,-1.3758 l -3.214744,-10.2816 -0.128651,-6.4354 9.541729,-3.317 c 0.385524,-0.2628 0.553008,-0.7602 0.386028,-1.188 -0.166993,-0.428 -0.492018,-0.544 -0.959837,-0.4923 -0.167539,-0.016 -0.438115,0.01 -0.584188,0.052 z"/><path id="path4174" fill="#fff" fill-opacity=".314" stroke="none" d="m 24.15625,1012.9622 c -1.951039,0 -3.53125,1.5851 -3.53125,3.5312 0,0.064 0.02789,0.1246 0.03125,0.1875 0.114376,-1.8433 1.623304,-3.3125 3.5,-3.3125 1.876457,0 3.385275,1.4695 3.5,3.3125 0.0034,-0.063 0.03125,-0.1235 0.03125,-0.1875 0,-1.9461 -1.580211,-3.5312 -3.53125,-3.5312 z m -12.8125,7.4687 c -0.150929,0 -0.264074,0.072 -0.4375,0.1563 -0.346854,0.1668 -0.588967,0.4052 -0.59375,0.7812 -0.0011,0.094 0.0039,0.1953 0.03125,0.2813 0.05147,-0.3044 0.259003,-0.5416 0.5625,-0.6875 0.346852,-0.169 0.460639,-0.1711 1.09375,0 l 12,1.75 12.0625,-1.7188 c 0.146073,-0.046 0.426211,-0.078 0.59375,-0.062 0.467819,-0.052 0.801757,0.072 0.96875,0.5 0.01536,0.039 0.02146,0.085 0.03125,0.125 0.03249,-0.1735 0.03538,-0.3605 -0.03125,-0.5312 -0.166993,-0.428 -0.500931,-0.5517 -0.96875,-0.5 -0.167539,-0.016 -0.447677,0.016 -0.59375,0.062 L 24,1022.3059 l -12,-1.75 c -0.316555,-0.085 -0.505321,-0.1277 -0.65625,-0.125 z m 8.90625,11.4688 -3.25,10.25 c -0.08014,0.2863 -0.09152,0.5232 -0.0625,0.75 0.0141,-0.1101 0.02845,-0.2221 0.0625,-0.3437 l 3.25,-10.25 0,-0.4063 z m 7.5625,0.062 0,0.4063 3.21875,10.2812 c 0.04448,0.1209 0.07862,0.2449 0.09375,0.375 0.04558,-0.249 -0.0048,-0.5395 -0.09375,-0.7812 l -3.21875,-10.2808 z"/><path id="path4108" fill="#5f4c8c" fill-opacity=".314" stroke="none" d="m 20.6875,11.71875 c -0.01547,0.133795 -0.0625,0.268341 -0.0625,0.40625 0,1.9463 1.580211,3.53125 3.53125,3.53125 1.951039,0 3.53125,-1.58495 3.53125,-3.53125 0,-0.137377 -0.0159,-0.272953 -0.03125,-0.40625 -0.202143,1.755162 -1.686687,3.125 -3.5,3.125 -1.81278,0 -3.265906,-1.370584 -3.46875,-3.125 z m 16.90625,4.875 c -0.07489,0.18343 -0.203151,0.351606 -0.375,0.46875 l -9.53125,3.3125 0,0.78125 9.53125,-3.3125 c 0.385524,-0.2628 0.57323,-0.7597 0.40625,-1.1875 -0.0099,-0.02525 -0.0203,-0.03939 -0.03125,-0.0625 z M 10.4375,16.625 c -0.06548,0.11446 -0.123103,0.225897 -0.125,0.375 -0.0044,0.3763 0.251208,0.7 0.59375,0.875 l 9.40625,2.84375 0,-0.8125 -9.40625,-2.8125 C 10.705007,16.990938 10.539443,16.811117 10.4375,16.625 Z m 13.59375,10.4375 -5.375,11.03125 c -0.319819,0.4662 -1.130655,0.7109 -1.46875,0.25 -0.101042,-0.137714 -0.177234,-0.275074 -0.21875,-0.4375 -0.115795,0.50897 -0.02741,0.914497 0.21875,1.25 0.338095,0.4609 1.148931,0.2162 1.46875,-0.25 l 5.375,-11.0625 5.25,11.03125 c 0.28427,0.4835 0.908801,0.6512 1.40625,0.375 0.455996,-0.253275 0.505721,-0.789555 0.375,-1.25 -0.06598,0.182315 -0.181642,0.361353 -0.375,0.46875 -0.497449,0.2762 -1.12198,0.1085 -1.40625,-0.375 l -5.25,-11.03125 z" transform="translate(0,1004.3622)"/></g></svg>