<svg xmlns="http://www.w3.org/2000/svg" xmlns:svg="http://www.w3.org/2000/svg" xmlns:xlink="http://www.w3.org/1999/xlink" id="svg2" width="48" height="48" version="1.1" viewBox="0 0 48 48"><defs id="defs4"><linearGradient id="linearGradient1414"><stop id="stop1416" offset="0" stop-color="#2c3e50" stop-opacity="1"/><stop id="stop1418" offset="1" stop-color="#3d5670" stop-opacity="1"/></linearGradient><linearGradient id="linearGradient1398" x1="76.279" x2="76.279" y1="-1044.013" y2="-995.982" gradientTransform="translate(-52.721087,-8.3501062)" gradientUnits="userSpaceOnUse" xlink:href="#linearGradient1414"/><linearGradient id="linearGradient4201" x1="24" x2="24" y1="15" y2="8" gradientUnits="userSpaceOnUse" xlink:href="#linearGradient2881"/><linearGradient id="linearGradient4209" x1="24" x2="24" y1="40" y2="34" gradientUnits="userSpaceOnUse" xlink:href="#linearGradient6589"/><linearGradient id="linearGradient4217" x1="15" x2="8" y1="25" y2="25" gradientUnits="userSpaceOnUse" xlink:href="#linearGradient859"/><linearGradient id="linearGradient4225" x1="33" x2="40" y1="25" y2="25" gradientUnits="userSpaceOnUse" xlink:href="#linearGradient839"/><linearGradient id="linearGradient2881"><stop id="stop2883" offset="0" stop-color="#e58721" stop-opacity="1"/><stop id="stop2885" offset="1" stop-color="#e6b32a" stop-opacity="1"/></linearGradient><defs id="defs4922"><filter id="Adobe_OpacityMaskFilter" width="5.883" height="73.013" x="3.785" y="4.675" color-interpolation-filters="sRGB" filterUnits="userSpaceOnUse"><feColorMatrix id="feColorMatrix4925" type="matrix" values="1 0 0 0 0 0 1 0 0 0 0 0 1 0 0 0 0 0 1 0"/></filter></defs><mask id="SVGID_2_" width="5.883" height="73.013" x="3.785" y="4.675" maskUnits="userSpaceOnUse"><g id="g4928" filter="url(#Adobe_OpacityMaskFilter)"><linearGradient id="SVGID_3_" x1="3.785" x2="9.668" y1="41.181" y2="41.181" gradientUnits="userSpaceOnUse"><stop id="stop4931" offset="0" stop-color="#FFF"/><stop id="stop4933" offset=".003" stop-color="#FAFBFB"/><stop id="stop4935" offset=".076" stop-color="#BBBDBF"/><stop id="stop4937" offset=".144" stop-color="#898B8E"/><stop id="stop4939" offset=".205" stop-color="#646567"/><stop id="stop4941" offset=".259" stop-color="#444446"/><stop id="stop4943" offset=".303" stop-color="#1D1C1D"/><stop id="stop4945" offset=".331" stop-color="#000"/></linearGradient><rect id="rect4947" width="5.883" height="73.013" x="3.785" y="4.675" fill="url(#SVGID_3_)"/></g></mask><linearGradient id="linearGradient859"><stop id="stop861" offset="0" stop-color="#ffae00" stop-opacity="1"/><stop id="stop863" offset="1" stop-color="#fcdb00" stop-opacity="1"/></linearGradient><linearGradient id="linearGradient839"><stop id="stop841" offset="0" stop-color="#871e82" stop-opacity="1"/><stop id="stop843" offset="1" stop-color="#d535d9" stop-opacity="1"/></linearGradient><linearGradient id="linearGradient1126"><stop id="stop1128" offset="0" stop-color="#058dfa" stop-opacity="1"/><stop id="stop1130" offset="1" stop-color="#05ccfb" stop-opacity="1"/></linearGradient><linearGradient id="linearGradient4571" x1="24" x2="24" y1="1036.362" y2="1020.362" gradientUnits="userSpaceOnUse" xlink:href="#linearGradient1126"/><linearGradient id="linearGradient6589"><stop id="stop6591" offset="0" stop-color="#88c425" stop-opacity="1"/><stop id="stop6593" offset="1" stop-color="#bef202" stop-opacity="1"/></linearGradient></defs><metadata id="metadata7"/><g id="layer1" transform="translate(0,-1004.3622)"><rect id="rect2991-1" width="48" height="48" x="0" y="-1052.362" fill="url(#linearGradient1398)" fill-opacity="1" stroke="none" ry="1.945" transform="scale(1,-1)"/><path id="path4638" fill="#000" fill-opacity=".059" stroke="none" stroke-dasharray="none" stroke-dashoffset="0" stroke-linecap="square" stroke-linejoin="miter" stroke-miterlimit="4" stroke-opacity="1" stroke-width=".095" d="m 23.999609,1014.1622 a 15.399609,15.3996 0 0 0 -10.882536,4.5175 15.399609,15.3996 0 0 0 -4.5174636,10.8825 15.399609,15.3996 0 0 0 4.6170706,10.9899 15.399609,15.3996 0 0 0 10.782929,4.4101 15.399609,15.3996 0 0 0 10.775118,-4.4179 15.399609,15.3996 0 0 0 4.624882,-10.9821 15.399609,15.3996 0 0 0 -4.517464,-10.8825 15.399609,15.3996 0 0 0 -10.882536,-4.5175 z m 0,1.9999 a 13.39966,13.399652 0 0 1 9.470463,3.9296 13.39966,13.399652 0 0 1 3.929588,9.4705 13.39966,13.399652 0 0 1 -4.031148,9.576 13.39966,13.399652 0 0 1 -9.368903,3.8241 13.39966,13.399652 0 0 1 -9.363043,-3.83 13.39966,13.399652 0 0 1 -4.037008,-9.5701 13.39966,13.399652 0 0 1 3.929589,-9.4705 13.39966,13.399652 0 0 1 9.470462,-3.9296 z m -4.999873,5.4003 0,6.9998 0,8.9998 9.999746,-7.9998 -9.999746,-7.9998 z" opacity="1"/><path id="path4636" fill="#000" fill-opacity=".118" stroke="none" stroke-dasharray="none" stroke-dashoffset="0" stroke-linecap="square" stroke-linejoin="miter" stroke-miterlimit="4" stroke-opacity="1" stroke-width=".095" d="m 23.999609,1013.7622 a 15.399609,15.3996 0 0 0 -10.882536,4.5175 15.399609,15.3996 0 0 0 -4.5174636,10.8825 15.399609,15.3996 0 0 0 4.6170706,10.9899 15.399609,15.3996 0 0 0 10.782929,4.4101 15.399609,15.3996 0 0 0 10.775118,-4.4179 15.399609,15.3996 0 0 0 4.624882,-10.9821 15.399609,15.3996 0 0 0 -4.517464,-10.8825 15.399609,15.3996 0 0 0 -10.882536,-4.5175 z m 0,1.9999 a 13.39966,13.399652 0 0 1 9.470463,3.9296 13.39966,13.399652 0 0 1 3.929588,9.4705 13.39966,13.399652 0 0 1 -4.031148,9.576 13.39966,13.399652 0 0 1 -9.368903,3.8241 13.39966,13.399652 0 0 1 -9.363043,-3.83 13.39966,13.399652 0 0 1 -4.037008,-9.5701 13.39966,13.399652 0 0 1 3.929589,-9.4705 13.39966,13.399652 0 0 1 9.470462,-3.9296 z m -4.999873,5.4003 0,6.9998 0,8.9998 9.999746,-7.9998 -9.999746,-7.9998 z" opacity="1"/><path id="path4623" fill="#000" fill-opacity=".235" stroke="none" stroke-dasharray="none" stroke-dashoffset="0" stroke-linecap="square" stroke-linejoin="miter" stroke-miterlimit="4" stroke-opacity="1" stroke-width=".095" d="m 23.999609,1013.3622 a 15.399609,15.3996 0 0 0 -10.882536,4.5175 15.399609,15.3996 0 0 0 -4.5174636,10.8825 15.399609,15.3996 0 0 0 4.6170706,10.9899 15.399609,15.3996 0 0 0 10.782929,4.4101 15.399609,15.3996 0 0 0 10.775118,-4.4179 15.399609,15.3996 0 0 0 4.624882,-10.9821 15.399609,15.3996 0 0 0 -4.517464,-10.8825 15.399609,15.3996 0 0 0 -10.882536,-4.5175 z m 0,1.9999 a 13.39966,13.399652 0 0 1 9.470463,3.9296 13.39966,13.399652 0 0 1 3.929588,9.4705 13.39966,13.399652 0 0 1 -4.031148,9.576 13.39966,13.399652 0 0 1 -9.368903,3.8241 13.39966,13.399652 0 0 1 -9.363043,-3.83 13.39966,13.399652 0 0 1 -4.037008,-9.5701 13.39966,13.399652 0 0 1 3.929589,-9.4705 13.39966,13.399652 0 0 1 9.470462,-3.9296 z m -4.999873,5.4003 0,6.9998 0,8.9998 9.999746,-7.9998 -9.999746,-7.9998 z" opacity="1"/><path id="rect846" fill="#000" fill-opacity="1" stroke="none" d="m -1.5e-6,1049.3622 0,1.0625 c 0,1.0773 0.860223,1.9375 1.9375,1.9375 l 44.1250025,0 c 1.07727,0 1.9375,-0.8602 1.9375,-1.9375 l 0,-1.0625 c 0,1.0773 -0.86023,1.9375 -1.9375,1.9375 l -44.1250025,0 c -1.077277,0 -1.9375,-0.8602 -1.9375,-1.9375 z"/><path id="path7515" fill="#fff" fill-opacity=".537" stroke="none" d="m 2.5312485,1005.0185 c -0.917088,0 -1.671147,0.6395 -1.84375,1.5 0.335612,-0.2799 0.774512,-0.4375 1.25,-0.4375 l 44.1250025,0 c 0.47549,0 0.91439,0.1576 1.25,0.4375 -0.17261,-0.8605 -0.92667,-1.5 -1.84375,-1.5 l -42.9375025,0 z"/><path id="rect4280-0" fill="#000" fill-opacity=".392" stroke="none" d="m 1.9374985,1004.3622 c -1.077277,0 -1.9375,0.8602 -1.9375,1.9375 l 0,43.0625 c 0,0.7934 0.480024,1.449 1.15625,1.75 -0.309342,-0.3333 -0.5,-0.7824 -0.5,-1.2812 l 0,-42.9375 c 0,-1.0482 0.826899,-1.875 1.875,-1.875 l 42.9375025,0 c 1.048101,0 1.875,0.8268 1.875,1.875 l 0,42.9375 c 0,0.4988 -0.190659,0.9479 -0.5,1.2812 0.67622,-0.301 1.15625,-0.9566 1.15625,-1.75 l 0,-43.0625 c 0,-1.0773 -0.86023,-1.9375 -1.9375,-1.9375 l -44.1250025,0 z"/><path id="path4193" fill="url(#linearGradient4209)" fill-opacity="1" stroke="none" stroke-dasharray="none" stroke-dashoffset="0" stroke-linecap="square" stroke-linejoin="miter" stroke-miterlimit="4" stroke-opacity="1" stroke-width=".095" d="M 34.775391 34.982422 L 33.369141 33.576172 A 13.4 13.4 0 0 1 24 37.400391 A 13.4 13.4 0 0 1 14.636719 33.570312 L 13.216797 34.990234 A 15.4 15.4 0 0 0 24 39.400391 A 15.4 15.4 0 0 0 34.775391 34.982422 z" opacity="1" transform="translate(0,1004.3622)"/><path id="path4191" fill="url(#linearGradient4225)" fill-opacity="1" stroke="none" stroke-dasharray="none" stroke-dashoffset="0" stroke-linecap="square" stroke-linejoin="miter" stroke-miterlimit="4" stroke-opacity="1" stroke-width=".095" d="M 33.470703 14.529297 A 13.4 13.4 0 0 1 37.400391 24 A 13.4 13.4 0 0 1 33.369141 33.576172 L 34.775391 34.982422 A 15.4 15.4 0 0 0 39.400391 24 A 15.4 15.4 0 0 0 34.882812 13.117188 L 33.470703 14.529297 z" opacity="1" transform="translate(0,1004.3622)"/><path id="path4189" fill="url(#linearGradient4217)" fill-opacity="1" stroke="none" stroke-dasharray="none" stroke-dashoffset="0" stroke-linecap="square" stroke-linejoin="miter" stroke-miterlimit="4" stroke-opacity="1" stroke-width=".095" d="M 13.117188 13.117188 A 15.4 15.4 0 0 0 8.5996094 24 A 15.4 15.4 0 0 0 13.216797 34.990234 L 14.636719 33.570312 A 13.4 13.4 0 0 1 10.599609 24 A 13.4 13.4 0 0 1 14.529297 14.529297 L 13.117188 13.117188 z" opacity="1" transform="translate(0,1004.3622)"/><path id="path4176" fill="url(#linearGradient4201)" fill-opacity="1" stroke="none" stroke-dasharray="none" stroke-dashoffset="0" stroke-linecap="square" stroke-linejoin="miter" stroke-miterlimit="4" stroke-opacity="1" stroke-width=".095" d="M 13.117188 13.117188 L 14.529297 14.529297 A 13.4 13.4 0 0 1 24 10.599609 A 13.4 13.4 0 0 1 33.470703 14.529297 L 34.882812 13.117188 A 15.4 15.4 0 0 0 24 8.5996094 A 15.4 15.4 0 0 0 13.117188 13.117188 z" opacity="1" transform="translate(0,1004.3622)"/><path id="path4520" fill="url(#linearGradient4571)" fill-opacity="1" fill-rule="evenodd" stroke="none" stroke-linecap="butt" stroke-linejoin="miter" stroke-opacity="1" stroke-width="1" d="m 19,1027.3622 0,-7 10,8 -10,8 0,-9 c 6.165048,0 6.165048,0 0,0 z"/><path id="path4640" fill="#1a1a1a" fill-opacity=".314" stroke="none" stroke-dasharray="none" stroke-dashoffset="0" stroke-linecap="square" stroke-linejoin="miter" stroke-miterlimit="4" stroke-opacity="1" stroke-width=".095" d="M 24 9.8007812 A 13.39966 13.399652 0 0 0 14.529297 13.730469 A 13.39966 13.399652 0 0 0 10.599609 23.199219 A 13.39966 13.399652 0 0 0 10.619141 23.609375 A 13.39966 13.39966 0 0 1 14.529297 14.529297 A 13.39966 13.39966 0 0 1 24 10.599609 A 13.39966 13.39966 0 0 1 33.470703 14.529297 A 13.39966 13.39966 0 0 1 37.380859 23.572266 A 13.39966 13.399652 0 0 0 37.400391 23.199219 A 13.39966 13.399652 0 0 0 33.470703 13.730469 A 13.39966 13.399652 0 0 0 24 9.8007812 z M 8.6191406 23.568359 A 15.399609 15.399609 0 0 0 8.5996094 24 A 15.399609 15.399609 0 0 0 13.216797 34.990234 A 15.399609 15.399609 0 0 0 24 39.400391 A 15.399609 15.399609 0 0 0 34.775391 34.982422 A 15.399609 15.399609 0 0 0 39.400391 24 A 15.399609 15.399609 0 0 0 39.380859 23.603516 A 15.399609 15.3996 0 0 1 34.775391 34.181641 A 15.399609 15.3996 0 0 1 24 38.599609 A 15.399609 15.3996 0 0 1 13.216797 34.189453 A 15.399609 15.3996 0 0 1 8.6191406 23.568359 z M 28.5 23.599609 L 19 31.199219 L 19 32 L 29 24 L 28.5 23.599609 z" opacity="1" transform="translate(0,1004.3622)"/><path id="path4656" fill="#fff" fill-opacity=".235" stroke="none" stroke-dasharray="none" stroke-dashoffset="0" stroke-linecap="square" stroke-linejoin="miter" stroke-miterlimit="4" stroke-opacity="1" stroke-width=".095" d="M 24 8.5996094 A 15.399609 15.3996 0 0 0 13.117188 13.117188 A 15.399609 15.3996 0 0 0 8.5996094 24 A 15.399609 15.3996 0 0 0 8.609375 24.183594 A 15.399609 15.3996 0 0 1 13.117188 13.517578 A 15.399609 15.3996 0 0 1 24 9 A 15.399609 15.3996 0 0 1 34.882812 13.517578 A 15.399609 15.3996 0 0 1 39.390625 24.203125 A 15.399609 15.3996 0 0 0 39.400391 24 A 15.399609 15.3996 0 0 0 34.882812 13.117188 A 15.399609 15.3996 0 0 0 24 8.5996094 z M 19 16 L 19 16.400391 L 28.75 24.199219 L 29 24 L 19 16 z M 37.390625 24.185547 A 13.39966 13.399652 0 0 1 33.369141 33.576172 A 13.39966 13.399652 0 0 1 24 37.400391 A 13.39966 13.399652 0 0 1 14.636719 33.570312 A 13.39966 13.399652 0 0 1 10.609375 24.205078 A 13.39966 13.399652 0 0 0 10.599609 24.400391 A 13.39966 13.399652 0 0 0 14.636719 33.970703 A 13.39966 13.399652 0 0 0 24 37.800781 A 13.39966 13.399652 0 0 0 33.369141 33.976562 A 13.39966 13.399652 0 0 0 37.400391 24.400391 A 13.39966 13.399652 0 0 0 37.390625 24.185547 z" opacity="1" transform="translate(0,1004.3622)"/></g></svg>