<svg xmlns="http://www.w3.org/2000/svg" xmlns:svg="http://www.w3.org/2000/svg" xmlns:xlink="http://www.w3.org/1999/xlink" id="svg6391" width="48" height="48" version="1.1"><defs id="defs6393"><linearGradient id="linearGradient4788"><stop id="stop4790" offset="0" stop-color="#000" stop-opacity="1"/><stop id="stop4792" offset="1" stop-color="#000" stop-opacity="0"/></linearGradient><linearGradient id="linearGradient4433"><stop id="stop4435" offset="0" stop-color="#2b3141" stop-opacity="1"/><stop id="stop4437" offset="1" stop-color="#394056" stop-opacity="1"/></linearGradient><linearGradient id="linearGradient4117" x1="92.143" x2="92.143" y1="-1049.092" y2="-1001.09" gradientTransform="translate(416.82086,469.86869)" gradientUnits="userSpaceOnUse" xlink:href="#linearGradient943-6"/><linearGradient id="linearGradient4439" x1="42.957" x2="42.957" y1="48" y2="33.999" gradientTransform="translate(481.7143,531.21931)" gradientUnits="userSpaceOnUse" xlink:href="#linearGradient4433"/><linearGradient id="linearGradient4786" x1="458.571" x2="472.509" y1="871.361" y2="862.361" gradientTransform="matrix(-1,0,0,-1,974.28574,1441.5807)" gradientUnits="userSpaceOnUse" xlink:href="#linearGradient4788"/><linearGradient id="linearGradient4219" x1="465.571" x2="458.571" y1="869.362" y2="862.363" gradientTransform="translate(57.14286,-297.14287)" gradientUnits="userSpaceOnUse" xlink:href="#linearGradient4266"/><linearGradient id="linearGradient4274"><stop id="stop4276" offset="0" stop-color="#b9d9ff" stop-opacity="1"/><stop id="stop4278" offset="1" stop-color="#f6fbfe" stop-opacity="1"/></linearGradient><linearGradient id="linearGradient4266"><stop id="stop4268" offset="0" stop-color="#2d8eff" stop-opacity="1"/><stop id="stop4270" offset="1" stop-color="#9cd3f4" stop-opacity="1"/></linearGradient><linearGradient id="linearGradient943-6"><stop id="stop945-0" offset="0" stop-color="#0059c1" stop-opacity="1"/><stop id="stop947-5" offset="1" stop-color="#118de7" stop-opacity="1"/></linearGradient><linearGradient id="linearGradient4231" x1="25.625" x2="25.625" y1="39" y2="9" gradientUnits="userSpaceOnUse" xlink:href="#linearGradient4274"/></defs><metadata id="metadata6396"/><g id="layer1" transform="translate(-481.71429,-531.2193)"><rect id="rect2991-1-7-3-1" width="48" height="48" x="481.714" y="-579.219" fill="url(#linearGradient4117)" fill-opacity="1" stroke="none" ry="1.945" transform="scale(1,-1)"/><path id="path4239" fill="#000" fill-opacity=".059" stroke="none" d="m 495.21429,541.4193 c -2.493,0 -4.5,2.007 -4.5,4.5 0,1.76953 1.02161,3.27777 2.5,4.01367 l 0,12.97266 c -1.47839,0.7359 -2.5,2.24414 -2.5,4.01367 0,2.493 2.007,4.5 4.5,4.5 2.493,0 4.5,-2.007 4.5,-4.5 0,-0.46408 -0.0895,-0.90168 -0.21875,-1.32227 l 15.39648,-15.39843 c 0.42075,0.12939 0.85799,0.2207 1.32227,0.2207 2.493,0 4.5,-2.007 4.5,-4.5 0,-2.493 -2.007,-4.5 -4.5,-4.5 -2.493,0 -4.5,2.007 -4.5,4.5 0,0.53692 0.11026,1.0429 0.28125,1.51953 l -14.78125,14.78125 0,-12.28711 c 1.47839,-0.7359 2.5,-2.24414 2.5,-4.01367 0,-2.493 -2.007,-4.5 -4.5,-4.5 z m 0,2 c 1.385,0 2.5,1.115 2.5,2.5 0,1.385 -1.115,2.5 -2.5,2.5 -1.385,0 -2.5,-1.115 -2.5,-2.5 0,-1.385 1.115,-2.5 2.5,-2.5 z m 21,0 c 1.385,0 2.5,1.115 2.5,2.5 0,1.385 -1.115,2.5 -2.5,2.5 -1.385,0 -2.5,-1.115 -2.5,-2.5 0,-1.385 1.115,-2.5 2.5,-2.5 z m -21,21 c 1.385,0 2.5,1.115 2.5,2.5 0,1.385 -1.115,2.5 -2.5,2.5 -1.385,0 -2.5,-1.115 -2.5,-2.5 0,-1.385 1.115,-2.5 2.5,-2.5 z"/><path id="path4237" fill="#000" fill-opacity=".118" stroke="none" d="m 495.21429,541.0193 c -2.493,0 -4.5,2.007 -4.5,4.5 0,1.76953 1.02161,3.27777 2.5,4.01367 l 0,12.97266 c -1.47839,0.7359 -2.5,2.24414 -2.5,4.01367 0,2.493 2.007,4.5 4.5,4.5 2.493,0 4.5,-2.007 4.5,-4.5 0,-0.46408 -0.0895,-0.90168 -0.21875,-1.32227 l 15.39648,-15.39843 c 0.42075,0.12939 0.85799,0.2207 1.32227,0.2207 2.493,0 4.5,-2.007 4.5,-4.5 0,-2.493 -2.007,-4.5 -4.5,-4.5 -2.493,0 -4.5,2.007 -4.5,4.5 0,0.53692 0.11026,1.0429 0.28125,1.51953 l -14.78125,14.78125 0,-12.28711 c 1.47839,-0.7359 2.5,-2.24414 2.5,-4.01367 0,-2.493 -2.007,-4.5 -4.5,-4.5 z m 0,2 c 1.385,0 2.5,1.115 2.5,2.5 0,1.385 -1.115,2.5 -2.5,2.5 -1.385,0 -2.5,-1.115 -2.5,-2.5 0,-1.385 1.115,-2.5 2.5,-2.5 z m 21,0 c 1.385,0 2.5,1.115 2.5,2.5 0,1.385 -1.115,2.5 -2.5,2.5 -1.385,0 -2.5,-1.115 -2.5,-2.5 0,-1.385 1.115,-2.5 2.5,-2.5 z m -21,21 c 1.385,0 2.5,1.115 2.5,2.5 0,1.385 -1.115,2.5 -2.5,2.5 -1.385,0 -2.5,-1.115 -2.5,-2.5 0,-1.385 1.115,-2.5 2.5,-2.5 z"/><path id="path4233" fill="#000" fill-opacity=".235" stroke="none" d="m 495.21429,540.6193 c -2.493,0 -4.5,2.007 -4.5,4.5 0,1.76953 1.02161,3.27777 2.5,4.01367 l 0,12.97266 c -1.47839,0.7359 -2.5,2.24414 -2.5,4.01367 0,2.493 2.007,4.5 4.5,4.5 2.493,0 4.5,-2.007 4.5,-4.5 0,-0.46408 -0.0895,-0.90168 -0.21875,-1.32227 l 15.39648,-15.39843 c 0.42075,0.12939 0.85799,0.2207 1.32227,0.2207 2.493,0 4.5,-2.007 4.5,-4.5 0,-2.493 -2.007,-4.5 -4.5,-4.5 -2.493,0 -4.5,2.007 -4.5,4.5 0,0.53692 0.11026,1.0429 0.28125,1.51953 l -14.78125,14.78125 0,-12.28711 c 1.47839,-0.7359 2.5,-2.24414 2.5,-4.01367 0,-2.493 -2.007,-4.5 -4.5,-4.5 z m 0,2 c 1.385,0 2.5,1.115 2.5,2.5 0,1.385 -1.115,2.5 -2.5,2.5 -1.385,0 -2.5,-1.115 -2.5,-2.5 0,-1.385 1.115,-2.5 2.5,-2.5 z m 21,0 c 1.385,0 2.5,1.115 2.5,2.5 0,1.385 -1.115,2.5 -2.5,2.5 -1.385,0 -2.5,-1.115 -2.5,-2.5 0,-1.385 1.115,-2.5 2.5,-2.5 z m -21,21 c 1.385,0 2.5,1.115 2.5,2.5 0,1.385 -1.115,2.5 -2.5,2.5 -1.385,0 -2.5,-1.115 -2.5,-2.5 0,-1.385 1.115,-2.5 2.5,-2.5 z"/><path id="path7515-3-8" fill="#fff" fill-opacity=".537" stroke="none" d="m 484.24553,531.87561 c -0.91709,0 -1.67115,0.6395 -1.84375,1.5 0.33561,-0.2799 0.77451,-0.4375 1.25,-0.4375 l 44.125,0 c 0.47549,0 0.91439,0.1576 1.25,0.4375 -0.1726,-0.8605 -0.92666,-1.5 -1.84375,-1.5 l -42.9375,0 z"/><path id="path4130" fill="url(#linearGradient4219)" fill-opacity="1" stroke="none" d="m 515.7143,565.21861 0,14.0007 14,-14 z"/><path id="path4303" fill="url(#linearGradient4439)" fill-opacity="1" stroke="none" d="m 529.7143,565.21931 -14,14 12.05469,0 c 1.07727,0 1.94531,-0.868 1.94531,-1.9453 l 0,-12.0547 z"/><path id="path4784" fill="url(#linearGradient4786)" fill-opacity="1" stroke="none" d="m 515.7143,579.21931 0,-14.0007 -14,14 z" opacity=".1"/><path id="rect846-0-6" fill="#000" fill-opacity="1" stroke="none" d="m 481.71428,576.21931 0,1.0625 c 0,1.0773 0.86022,1.9375 1.9375,1.9375 l 44.125,0 c 1.07728,0 1.9375,-0.8602 1.9375,-1.9375 l 0,-1.0625 c 0,1.0773 -0.86022,1.9375 -1.9375,1.9375 l -44.125,0 c -1.07728,0 -1.9375,-0.8602 -1.9375,-1.9375 z"/><path id="rect4280-1-4" fill="#000" fill-opacity=".392" stroke="none" d="m 483.65178,531.21931 c -1.07728,0 -1.9375,0.8602 -1.9375,1.9375 l 0,43.0625 c 0,0.7934 0.48002,1.449 1.15625,1.75 -0.30934,-0.3333 -0.5,-0.7824 -0.5,-1.2812 l 0,-42.9375 c 0,-1.0482 0.8269,-1.875 1.875,-1.875 l 42.9375,0 c 1.0481,0 1.875,0.8268 1.875,1.875 l 0,42.9375 c 0,0.4988 -0.19066,0.9479 -0.5,1.2812 0.67623,-0.301 1.15625,-0.9566 1.15625,-1.75 l 0,-43.0625 c 0,-1.0773 -0.86022,-1.9375 -1.9375,-1.9375 l -44.125,0 z"/><path id="rect4208" fill="url(#linearGradient4231)" fill-opacity="1" stroke="none" d="M 13.5 9 C 11.007 9 9 11.007 9 13.5 C 9 15.269526 10.021613 16.77777 11.5 17.513672 L 11.5 30.486328 C 10.021613 31.22223 9 32.730474 9 34.5 C 9 36.993001 11.006999 39 13.5 39 C 15.993001 39 18 36.993001 18 34.5 C 18 34.035924 17.910533 33.598316 17.78125 33.177734 L 33.177734 17.779297 C 33.598477 17.908689 34.035721 18 34.5 18 C 36.993 18 39 15.993 39 13.5 C 39 11.007 36.993 9 34.5 9 C 32.007 9 30 11.007 30 13.5 C 30 14.036915 30.11026 14.542895 30.28125 15.019531 L 15.5 29.800781 L 15.5 17.513672 C 16.978387 16.77777 18 15.269526 18 13.5 C 18 11.007 15.993 9 13.5 9 z M 13.5 11 C 14.885 11 16 12.115 16 13.5 C 16 14.885 14.885 16 13.5 16 C 12.115 16 11 14.885 11 13.5 C 11 12.115 12.115 11 13.5 11 z M 34.5 11 C 35.885 11 37 12.115 37 13.5 C 37 14.885 35.885 16 34.5 16 C 33.115 16 32 14.885 32 13.5 C 32 12.115 33.115 11 34.5 11 z M 13.5 32 C 14.885001 32 16 33.114999 16 34.5 C 16 35.885001 14.885001 37 13.5 37 C 12.114999 37 11 35.885001 11 34.5 C 11 33.114999 12.114999 32 13.5 32 z" transform="translate(481.71429,531.2193)"/><path id="path4241" fill="#025ec5" fill-opacity=".314" stroke="none" d="M 13.5 10.199219 C 12.115 10.199219 11 11.314219 11 12.699219 C 11 12.836276 11.019997 12.968659 11.041016 13.099609 C 11.232399 11.907272 12.252057 11 13.5 11 C 14.747943 11 15.767601 11.907272 15.958984 13.099609 C 15.980003 12.968659 16 12.836276 16 12.699219 C 16 11.314219 14.885 10.199219 13.5 10.199219 z M 34.5 10.199219 C 33.115 10.199219 32 11.314219 32 12.699219 C 32 12.836276 32.019997 12.968659 32.041016 13.099609 C 32.232399 11.907272 33.252057 11 34.5 11 C 35.747943 11 36.767601 11.907272 36.958984 13.099609 C 36.980003 12.968659 37 12.836276 37 12.699219 C 37 11.314219 35.885 10.199219 34.5 10.199219 z M 38.958984 13.099609 C 38.754712 15.400634 36.85589 17.199219 34.5 17.199219 C 34.03572 17.199219 33.598484 17.107906 33.177734 16.978516 L 17.78125 32.376953 C 17.845507 32.586049 17.900959 32.800863 17.939453 33.019531 L 33.177734 17.779297 C 33.598477 17.908689 34.035721 18 34.5 18 C 36.993 18 39 15.993 39 13.5 C 39 13.362598 38.970923 13.233804 38.958984 13.099609 z M 30.039062 13.107422 C 30.027587 13.239026 30 13.365319 30 13.5 C 30 13.808409 30.044049 14.104282 30.107422 14.392578 L 30.28125 14.21875 C 30.154813 13.866303 30.079063 13.492596 30.039062 13.107422 z M 9.0332031 13.166016 C 9.0248719 13.278393 9 13.385421 9 13.5 C 9 15.269526 10.021613 16.77777 11.5 17.513672 L 11.5 16.712891 C 10.154234 16.043007 9.1959168 14.730385 9.0332031 13.166016 z M 17.966797 13.166016 C 17.804083 14.730385 16.845766 16.043007 15.5 16.712891 L 15.5 17.513672 C 16.978387 16.77777 18 15.269526 18 13.5 C 18 13.385421 17.975128 13.278393 17.966797 13.166016 z M 13.5 31.199219 C 12.115 31.199219 11 32.314219 11 33.699219 C 11 33.836276 11.019997 33.968659 11.041016 34.099609 C 11.232399 32.907272 12.252056 32 13.5 32 C 14.747944 32 15.767601 32.907272 15.958984 34.099609 C 15.980003 33.968659 16 33.836276 16 33.699219 C 16 32.314219 14.885 31.199219 13.5 31.199219 z M 9.0332031 34.033203 C 9.0171678 34.187371 9 34.341258 9 34.5 C 9 36.993001 11.006999 39 13.5 39 C 15.993001 39 18 36.993001 18 34.5 C 18 34.354916 17.978862 34.216371 17.962891 34.076172 C 17.769751 36.388571 15.863968 38.199219 13.5 38.199219 C 11.121335 38.199219 9.2057997 36.366282 9.0332031 34.033203 z" transform="translate(481.71429,531.2193)"/><path id="path4246" fill="#fff" fill-opacity=".235" stroke="none" d="M 13.5 9 C 11.007 9 9 11.007 9 13.5 C 9 13.579725 9.0134822 13.655757 9.0175781 13.734375 C 9.1062827 11.320686 11.06387 9.4003906 13.5 9.4003906 C 15.93613 9.4003906 17.893717 11.320686 17.982422 13.734375 C 17.986518 13.655757 18 13.579725 18 13.5 C 18 11.007 15.993 9 13.5 9 z M 34.5 9 C 32.007 9 30 11.007 30 13.5 C 30 13.569617 30.015932 13.634544 30.019531 13.703125 C 30.124229 11.304355 32.074529 9.4003906 34.5 9.4003906 C 36.924147 9.4003906 38.873799 11.302303 38.980469 13.699219 C 38.983453 13.631645 39 13.568336 39 13.5 C 39 11.007 36.993 9 34.5 9 z M 11.019531 13.699219 C 11.014128 13.766608 11 13.831564 11 13.900391 C 11 15.285391 12.115 16.400391 13.5 16.400391 C 14.885 16.400391 16 15.285391 16 13.900391 C 16 13.831564 15.985872 13.766608 15.980469 13.699219 C 15.878064 14.988839 14.816835 16 13.5 16 C 12.183165 16 11.121936 14.988839 11.019531 13.699219 z M 32.019531 13.699219 C 32.014128 13.766608 32 13.831564 32 13.900391 C 32 15.285391 33.115 16.400391 34.5 16.400391 C 35.885 16.400391 37 15.285391 37 13.900391 C 37 13.831564 36.985872 13.766608 36.980469 13.699219 C 36.878064 14.988839 35.816835 16 34.5 16 C 33.183165 16 32.121936 14.988839 32.019531 13.699219 z M 30.193359 15.107422 L 15.5 29.800781 L 15.5 30.201172 L 30.28125 15.419922 C 30.245029 15.318957 30.223659 15.211035 30.193359 15.107422 z M 11.5 30.486328 C 10.021613 31.22223 9 32.730474 9 34.5 C 9 34.556991 9.0154986 34.609551 9.0175781 34.666016 C 9.1043919 32.999685 10.088218 31.589463 11.5 30.886719 L 11.5 30.486328 z M 17.859375 33.5 L 17.78125 33.578125 C 17.890196 33.932643 17.957801 34.30314 17.980469 34.6875 C 17.983117 34.623818 18 34.564355 18 34.5 C 18 34.151862 17.939111 33.822334 17.859375 33.5 z M 11.019531 34.699219 C 11.014128 34.766608 11 34.831564 11 34.900391 C 11 36.285391 12.115 37.400391 13.5 37.400391 C 14.885 37.400391 16 36.285391 16 34.900391 C 16 34.831564 15.985872 34.766608 15.980469 34.699219 C 15.878064 35.98884 14.816836 37 13.5 37 C 12.183164 37 11.121936 35.98884 11.019531 34.699219 z" transform="translate(481.71429,531.2193)"/></g></svg>