<svg xmlns="http://www.w3.org/2000/svg" xmlns:svg="http://www.w3.org/2000/svg" xmlns:xlink="http://www.w3.org/1999/xlink" id="svg2" width="48" height="48" version="1.1"><defs id="defs4"><linearGradient id="linearGradient4372"><stop id="stop4374" offset="0" stop-color="#f9cebf" stop-opacity="1"/><stop id="stop4376" offset="1" stop-color="#fef8f6" stop-opacity="1"/></linearGradient><style id="style874" type="text/css"><![CDATA[
    .fil0 {fill:#1F1A17}
   ]]></style><style id="style874-2" type="text/css"><![CDATA[
    .fil0 {fill:#1F1A17}
   ]]></style><linearGradient id="ButtonShadow" x1="45.448" x2="45.448" y1="92.54" y2="7.017" gradientTransform="scale(1.0058652,0.994169)" gradientUnits="userSpaceOnUse"><stop id="stop3750" offset="0" stop-color="#000" stop-opacity="1"/><stop id="stop3752" offset="1" stop-color="#000" stop-opacity=".588"/></linearGradient><linearGradient id="linearGradient3737"><stop id="stop3739" offset="0" stop-color="#fff" stop-opacity="1"/><stop id="stop3741" offset="1" stop-color="#fff" stop-opacity="0"/></linearGradient><filter id="filter3174" color-interpolation-filters="sRGB"><feGaussianBlur id="feGaussianBlur3176" stdDeviation="1.71"/></filter><filter id="filter3794" width="1.384" height="1.384" x="-.192" y="-.192" color-interpolation-filters="sRGB"><feGaussianBlur id="feGaussianBlur3796" stdDeviation="5.28"/></filter><linearGradient id="linearGradient3613" x1="48" x2="48" y1="20.221" y2="138.661" gradientUnits="userSpaceOnUse" xlink:href="#linearGradient3737"/><clipPath id="clipPath3613"><rect id="rect3615" width="84" height="84" x="6" y="6" fill="#fff" fill-opacity="1" fill-rule="nonzero" stroke="none" rx="6" ry="6"/></clipPath><linearGradient id="linearGradient1387" x1="410.377" x2="410.377" y1="-547.809" y2="-499.801" gradientTransform="translate(-384.57144,-504.56422)" gradientUnits="userSpaceOnUse" xlink:href="#linearGradient3795"/><linearGradient id="linearGradient3795"><stop id="stop3797" offset="0" stop-color="#dd4814" stop-opacity="1"/><stop id="stop3799" offset="1" stop-color="#ed632b" stop-opacity="1"/></linearGradient><linearGradient id="linearGradient4370" x1="32.467" x2="32.467" y1="33.972" y2="14.034" gradientTransform="matrix(0.94339624,0,0,0.94339624,0.79245324,1009.5542)" gradientUnits="userSpaceOnUse" xlink:href="#linearGradient4372"/><linearGradient id="linearGradient5322"><stop id="stop5324" offset="0" stop-color="#000" stop-opacity="1"/><stop id="stop5326" offset="1" stop-color="#000" stop-opacity="0"/></linearGradient><linearGradient id="linearGradient5109"><stop id="stop5111" offset="0" stop-color="#000" stop-opacity="1"/><stop id="stop5113" offset="1" stop-color="#000" stop-opacity="0"/></linearGradient><linearGradient id="linearGradient5142"><stop id="stop5144" offset="0" stop-color="#292929" stop-opacity="1"/><stop id="stop5146" offset="1" stop-color="#696969" stop-opacity="1"/></linearGradient><linearGradient id="linearGradient5336"><stop id="stop5338" offset="0" stop-color="#292929" stop-opacity="1"/><stop id="stop5340" offset="1" stop-color="#878787" stop-opacity="1"/></linearGradient><linearGradient id="linearGradient3770" x1="402.197" x2="408.923" y1="617.763" y2="611.019" gradientTransform="matrix(2,0,0,1.585687,-772.65541,33.678173)" gradientUnits="userSpaceOnUse" xlink:href="#linearGradient5336"/><linearGradient id="linearGradient3772" x1="402.197" x2="408.923" y1="617.763" y2="611.019" gradientTransform="matrix(2,0,0,1.585687,-793.95386,33.678173)" gradientUnits="userSpaceOnUse" xlink:href="#linearGradient5336"/><linearGradient id="linearGradient3774" x1="408.981" x2="408.981" y1="617.834" y2="621.194" gradientTransform="matrix(2.0525117,0,0,2.0640046,-815.07152,-261.92241)" gradientUnits="userSpaceOnUse" xlink:href="#linearGradient5142"/><linearGradient id="linearGradient3776" x1="115.403" x2="115.403" y1="49.418" y2="48.443" gradientTransform="matrix(2.0525112,0,0,2.0640046,-212.18625,912.04168)" gradientUnits="userSpaceOnUse" xlink:href="#linearGradient5109"/><linearGradient id="linearGradient3778" x1="115.403" x2="115.403" y1="49.418" y2="48.443" gradientTransform="matrix(2.0525112,0,0,2.0640046,-190.8872,912.04168)" gradientUnits="userSpaceOnUse" xlink:href="#linearGradient5109"/><linearGradient id="linearGradient3780" x1="303.674" x2="304.45" y1="578.029" y2="578.029" gradientTransform="matrix(1,0,0,0.76825749,-293.72962,565.38678)" gradientUnits="userSpaceOnUse" xlink:href="#linearGradient5109"/><linearGradient id="linearGradient3782" x1="303.674" x2="304.45" y1="578.029" y2="578.029" gradientTransform="matrix(1,0,0,0.76825749,-272.43116,565.38678)" gradientUnits="userSpaceOnUse" xlink:href="#linearGradient5109"/><linearGradient id="linearGradient3784" x1="303.674" x2="304.45" y1="578.029" y2="578.029" gradientTransform="matrix(-1,0,0,0.76825749,341.73022,565.38678)" gradientUnits="userSpaceOnUse" xlink:href="#linearGradient5109"/><linearGradient id="linearGradient3786" x1="303.674" x2="304.45" y1="578.029" y2="578.029" gradientTransform="matrix(-1,0,0,0.76825749,320.43176,565.38678)" gradientUnits="userSpaceOnUse" xlink:href="#linearGradient5109"/><radialGradient id="radialGradient3788" cx="23.999" cy="15.455" r="13.649" fx="23.999" fy="15.455" gradientTransform="matrix(1.0091579,0,0,0.33991558,-0.2189145,1009.5438)" gradientUnits="userSpaceOnUse" xlink:href="#linearGradient5322"/></defs><metadata id="metadata7"/><g id="layer1" transform="translate(0,-1004.3622)"><g id="layer2" display="none" transform="translate(-13.4256,964.36616)"><rect id="rect3745" width="86" height="85" x="5" y="7" fill="url(#ButtonShadow)" fill-opacity="1" fill-rule="nonzero" stroke="none" filter="url(#filter3174)" opacity=".9" rx="6" ry="6"/></g><g id="layer5" display="none" transform="translate(-13.4256,964.36616)"><rect id="rect3171" width="66" height="66" x="15" y="15" fill="url(#linearGradient3613)" fill-opacity="1" fill-rule="nonzero" stroke="#fff" stroke-dasharray="none" stroke-dashoffset="0" stroke-linecap="round" stroke-linejoin="miter" stroke-miterlimit="4" stroke-opacity="1" stroke-width=".5" clip-path="url(#clipPath3613)" filter="url(#filter3794)" opacity=".1" rx="12" ry="12"/></g><rect id="rect2991-1-7" width="48" height="48" x="0" y="-1052.362" fill="url(#linearGradient1387)" fill-opacity="1" stroke="none" ry="1.945" transform="scale(1,-1)"/><path id="path4390" fill="#000" fill-opacity=".059" fill-rule="nonzero" stroke="none" d="m 23.433961,1023.8938 c -5.210204,0 -9.43396,4.2238 -9.43396,9.4348 0,5.2094 4.223756,9.4336 9.43396,9.4336 5.210326,0 9.43396,-4.2242 9.43396,-9.4336 0,-5.211 -4.223634,-9.4348 -9.43396,-9.4348 z m 3.362697,2.6299 c 0.162319,0.022 0.322958,0.075 0.473537,0.1584 0.602445,0.3483 0.810297,1.1184 0.462488,1.721 -0.347634,0.6023 -1.118586,0.809 -1.720968,0.4606 -0.602254,-0.3481 -0.808331,-1.1187 -0.460634,-1.7209 0.260853,-0.4514 0.758605,-0.6795 1.245577,-0.6191 z m -3.362697,1.3317 c 0.506533,0 0.995768,0.074 1.461156,0.199 0.08237,0.5063 0.383508,0.9736 0.862331,1.2498 0.478087,0.2758 1.03024,0.3026 1.509057,0.1217 0.93144,0.9154 1.538643,2.1635 1.62699,3.55 l -1.794656,0.027 c -0.165193,-1.8786 -1.742755,-3.3525 -3.664878,-3.3525 -0.553856,0 -1.078522,0.1226 -1.549602,0.3422 l -0.875222,-1.5678 c 0.730967,-0.3622 1.553837,-0.568 2.424824,-0.568 z m -3.034709,0.9194 0.919438,1.5424 c -0.945835,0.6661 -1.564344,1.7664 -1.564344,3.0114 0,1.2441 0.618509,2.3442 1.564344,3.0102 l -0.919438,1.5424 c -1.102264,-0.7363 -1.922181,-1.8637 -2.262681,-3.1823 0.397862,-0.3244 0.650429,-0.8172 0.650429,-1.3703 0,-0.5545 -0.252568,-1.0471 -0.650429,-1.3715 0.340552,-1.3186 1.160481,-2.4448 2.262681,-3.1823 z m -3.381124,3.2935 c 0.695515,0 1.260325,0.564 1.260325,1.2603 0,0.6953 -0.56481,1.2603 -1.260325,1.2603 -0.695749,0 -1.258469,-0.565 -1.258469,-1.2603 0,-0.6965 0.56272,-1.2603 1.258469,-1.2603 z m 10.080711,1.5856 1.794656,0.027 c -0.08824,1.3878 -0.69382,2.6326 -1.625145,3.5492 -0.478875,-0.1809 -1.032869,-0.1532 -1.510902,0.1227 -0.478885,0.2773 -0.779973,0.7433 -0.862331,1.2496 -0.465439,0.1299 -0.954623,0.199 -1.461156,0.199 -0.870987,0 -1.693795,-0.2059 -2.424824,-0.568 l 0.875222,-1.5673 c 0.471134,0.219 0.995746,0.3428 1.549602,0.3428 1.922123,0 3.499685,-1.4748 3.664878,-3.3542 z m -0.613575,3.98 c 0.486953,-0.064 0.98664,0.168 1.247419,0.619 0.347809,0.6025 0.141612,1.3739 -0.460643,1.721 -0.602445,0.3482 -1.373149,0.142 -1.720959,-0.4607 -0.347761,-0.6011 -0.141801,-1.3727 0.460634,-1.7209 0.150571,-0.09 0.311223,-0.1383 0.473549,-0.1584 z"/><path id="path4388" fill="#000" fill-opacity=".118" fill-rule="nonzero" stroke="none" d="m 23.433961,1023.5166 c -5.210204,0 -9.43396,4.2238 -9.43396,9.4348 0,5.2094 4.223756,9.4336 9.43396,9.4336 5.210326,0 9.43396,-4.2242 9.43396,-9.4336 0,-5.211 -4.223634,-9.4348 -9.43396,-9.4348 z m 3.362697,2.6299 c 0.162319,0.022 0.322958,0.075 0.473537,0.1584 0.602445,0.3474 0.810297,1.1184 0.462488,1.721 -0.347634,0.6023 -1.118586,0.8078 -1.720968,0.4606 -0.602254,-0.3481 -0.808331,-1.1187 -0.460634,-1.7209 0.260853,-0.4526 0.758605,-0.6795 1.245577,-0.6191 z m -3.362697,1.3317 c 0.506533,0 0.995768,0.074 1.461156,0.199 0.08237,0.5063 0.383508,0.9736 0.862331,1.2498 0.478087,0.2758 1.03024,0.3026 1.509057,0.1217 0.93144,0.9154 1.538643,2.1636 1.62699,3.55 l -1.794656,0.027 c -0.165193,-1.8786 -1.742755,-3.3531 -3.664878,-3.3531 -0.553856,0 -1.078522,0.1232 -1.549602,0.3423 l -0.875222,-1.5673 c 0.730967,-0.3622 1.553837,-0.568 2.424824,-0.568 z m -3.034709,0.9194 0.919438,1.5424 c -0.945835,0.6661 -1.564344,1.7664 -1.564344,3.0114 0,1.2441 0.618509,2.3442 1.564344,3.0102 l -0.919438,1.5424 c -1.102264,-0.7363 -1.922181,-1.8637 -2.262681,-3.1823 0.397862,-0.3244 0.650429,-0.8172 0.650429,-1.3703 0,-0.5545 -0.252568,-1.0471 -0.650429,-1.3715 0.340552,-1.3186 1.160481,-2.446 2.262681,-3.1823 z m -3.381124,3.2935 c 0.695515,0 1.260325,0.5636 1.260325,1.2603 0,0.6953 -0.56481,1.2603 -1.260325,1.2603 -0.695749,0 -1.258469,-0.565 -1.258469,-1.2603 0,-0.6967 0.56272,-1.2603 1.258469,-1.2603 z m 10.080711,1.5856 1.794656,0.027 c -0.08824,1.3878 -0.69382,2.6326 -1.625145,3.5488 -0.478875,-0.1805 -1.032869,-0.1528 -1.510902,0.1229 -0.478885,0.2771 -0.779973,0.7435 -0.862331,1.2498 -0.465439,0.1286 -0.954623,0.199 -1.461156,0.199 -0.870987,0 -1.693795,-0.2059 -2.424824,-0.568 l 0.875222,-1.5673 c 0.471134,0.219 0.995746,0.3428 1.549602,0.3428 1.922123,0 3.499685,-1.4748 3.664878,-3.3542 z m -0.613575,3.98 c 0.486953,-0.064 0.98664,0.168 1.247419,0.619 0.347809,0.6025 0.141612,1.3739 -0.460643,1.721 -0.602445,0.3482 -1.373149,0.142 -1.720959,-0.4607 -0.347761,-0.6023 -0.141801,-1.3727 0.460634,-1.7209 0.150571,-0.09 0.311223,-0.1383 0.473549,-0.1584 z"/><path id="path4384" fill="#000" fill-opacity=".235" fill-rule="nonzero" stroke="none" d="m 23.433961,1023.1394 c -5.210204,0 -9.43396,4.2238 -9.43396,9.4336 0,5.2106 4.223756,9.4348 9.43396,9.4348 5.210326,0 9.43396,-4.2242 9.43396,-9.4348 0,-5.2098 -4.223634,-9.4336 -9.43396,-9.4336 z m 3.362697,2.6299 c 0.162319,0.022 0.322958,0.075 0.473537,0.1584 0.602445,0.3471 0.810297,1.1184 0.462488,1.721 -0.347634,0.6023 -1.118586,0.8078 -1.720968,0.4606 -0.602254,-0.3481 -0.808331,-1.1187 -0.460634,-1.7209 0.260853,-0.4526 0.758605,-0.6795 1.245577,-0.6191 z m -3.362697,1.3317 c 0.506533,0 0.995768,0.074 1.461156,0.199 0.08237,0.5063 0.383508,0.9724 0.862331,1.2498 0.478087,0.2758 1.03024,0.3025 1.509057,0.1217 0.93144,0.9154 1.538643,2.1623 1.62699,3.55 l -1.794656,0.027 c -0.165193,-1.8786 -1.742755,-3.3537 -3.664878,-3.3537 -0.553856,0 -1.078522,0.1238 -1.549602,0.3429 l -0.875222,-1.5673 c 0.730967,-0.3622 1.553837,-0.568 2.424824,-0.568 z m -3.034709,0.9194 0.919438,1.5424 c -0.945835,0.6661 -1.564344,1.7664 -1.564344,3.0102 0,1.2453 0.618509,2.3454 1.564344,3.0114 l -0.919438,1.5424 c -1.102264,-0.7363 -1.922181,-1.8637 -2.262681,-3.1823 0.397862,-0.3244 0.650429,-0.8172 0.650429,-1.3715 0,-0.5533 -0.252568,-1.0459 -0.650429,-1.3703 0.340552,-1.3186 1.160481,-2.446 2.262681,-3.1823 z m -3.381124,3.2923 c 0.695515,0 1.260325,0.5648 1.260325,1.2603 0,0.6965 -0.56481,1.2603 -1.260325,1.2603 -0.695749,0 -1.258469,-0.5638 -1.258469,-1.2603 0,-0.6955 0.56272,-1.2603 1.258469,-1.2603 z m 10.080711,1.5868 1.794656,0.027 c -0.08824,1.3866 -0.69382,2.6326 -1.625145,3.548 -0.478875,-0.1809 -1.032869,-0.152 -1.510902,0.1237 -0.478885,0.2763 -0.779973,0.7435 -0.862331,1.2498 -0.465439,0.1286 -0.954623,0.199 -1.461156,0.199 -0.870987,0 -1.693795,-0.2059 -2.424824,-0.568 l 0.875222,-1.5673 c 0.471134,0.219 0.995746,0.3416 1.549602,0.3416 1.922123,0 3.499685,-1.4736 3.664878,-3.353 z m -0.613575,3.98 c 0.486953,-0.064 0.98664,0.168 1.247419,0.619 0.347809,0.6025 0.141612,1.3738 -0.460643,1.721 -0.602445,0.3482 -1.373149,0.142 -1.720959,-0.4607 -0.347761,-0.6023 -0.141801,-1.3727 0.460634,-1.7209 0.150571,-0.089 0.311223,-0.1383 0.473549,-0.1584 z"/><path id="roundel" fill="url(#linearGradient4370)" fill-opacity="1" fill-rule="nonzero" stroke="none" d="m 23.433961,1022.7622 c -5.210204,0 -9.43396,4.2238 -9.43396,9.4336 0,5.2106 4.223756,9.4348 9.43396,9.4348 5.210326,0 9.43396,-4.2242 9.43396,-9.4348 0,-5.2098 -4.223634,-9.4336 -9.43396,-9.4336 z m 3.362697,2.6299 c 0.162319,0.022 0.322958,0.075 0.473537,0.1584 0.602445,0.3471 0.810297,1.1184 0.462488,1.721 -0.347634,0.6011 -1.118586,0.8078 -1.720968,0.4606 -0.602254,-0.3481 -0.808331,-1.1198 -0.460634,-1.7209 0.260853,-0.4526 0.758605,-0.6795 1.245577,-0.6191 z m -3.362697,1.3317 c 0.506533,0 0.995768,0.074 1.461156,0.199 0.08237,0.5063 0.383508,0.9724 0.862331,1.2495 0.478087,0.2761 1.03024,0.3017 1.509057,0.1208 0.93144,0.9166 1.538643,2.1635 1.62699,3.5512 l -1.794656,0.027 c -0.165193,-1.8789 -1.742755,-3.3537 -3.664878,-3.3537 -0.553856,0 -1.078522,0.1238 -1.549602,0.3429 l -0.875222,-1.5679 c 0.730967,-0.3616 1.553837,-0.5674 2.424824,-0.5674 z m -3.034709,0.9194 0.919438,1.5424 c -0.945835,0.6661 -1.564344,1.7664 -1.564344,3.0102 0,1.2453 0.618509,2.3454 1.564344,3.0114 l -0.919438,1.5424 c -1.102264,-0.7373 -1.922181,-1.8637 -2.262681,-3.1823 0.397862,-0.3244 0.650429,-0.8172 0.650429,-1.3715 0,-0.5533 -0.252568,-1.0459 -0.650429,-1.3703 0.340552,-1.3186 1.160481,-2.446 2.262681,-3.1823 z m -3.381124,3.2923 c 0.695515,0 1.260325,0.5648 1.260325,1.2603 0,0.6965 -0.56481,1.2603 -1.260325,1.2603 -0.695749,0 -1.258469,-0.564 -1.258469,-1.2603 0,-0.6955 0.56272,-1.2603 1.258469,-1.2603 z m 10.080711,1.5868 1.794656,0.027 c -0.08824,1.3866 -0.69382,2.6326 -1.625145,3.548 -0.478875,-0.1809 -1.032869,-0.152 -1.510902,0.1237 -0.478885,0.2763 -0.779973,0.7435 -0.862331,1.2498 -0.465439,0.1286 -0.954623,0.199 -1.461156,0.199 -0.870987,0 -1.693795,-0.2059 -2.424824,-0.568 l 0.875222,-1.5686 c 0.471134,0.2195 0.995746,0.3428 1.549602,0.3428 1.922123,0 3.499685,-1.4736 3.664878,-3.353 z m -0.613575,3.98 c 0.486953,-0.064 0.98664,0.168 1.247419,0.619 0.347809,0.6025 0.141612,1.3727 -0.460643,1.721 -0.602445,0.3482 -1.373149,0.142 -1.720959,-0.4607 -0.347761,-0.6023 -0.141801,-1.3727 0.460634,-1.7209 0.150571,-0.091 0.311223,-0.1383 0.473549,-0.1584 z"/><path id="rect846" fill="#000" fill-opacity="1" stroke="none" d="m -1e-5,1049.3622 0,1.0625 c 0,1.0773 0.86022,1.9375 1.9375,1.9375 l 44.125,0 c 1.07727,0 1.9375,-0.8602 1.9375,-1.9375 l 0,-1.0625 c 0,1.0773 -0.86023,1.9375 -1.9375,1.9375 l -44.125,0 c -1.07729,0 -1.9375,-0.8602 -1.9375,-1.9375 z"/><path id="path4392" fill="#de4b16" fill-opacity=".314" fill-rule="nonzero" stroke="none" d="m 26.796658,1024.6358 c -0.486972,-0.064 -0.984724,0.1676 -1.245577,0.619 -0.181555,0.3152 -0.204848,0.6735 -0.106873,0.9958 0.02679,-0.086 0.06208,-0.162 0.106873,-0.2395 0.260853,-0.4525 0.758605,-0.6794 1.245577,-0.619 0.162319,0.022 0.322958,0.075 0.473537,0.1583 0.287835,0.1655 0.479236,0.4308 0.569352,0.7252 0.180593,-0.5537 -0.04456,-1.1783 -0.569352,-1.4815 -0.150579,-0.087 -0.311218,-0.1375 -0.473537,-0.1583 z m -3.362697,1.3328 c -0.870987,0 -1.693858,0.2066 -2.424824,0.5688 l 0.339034,0.6085 c 0.643929,-0.2673 1.345435,-0.4221 2.08579,-0.4221 0.506533,0 0.995768,0.074 1.461156,0.199 0.08237,0.5062 0.383508,0.9724 0.862331,1.2495 0.478087,0.276 1.03024,0.3017 1.509057,0.1208 0.758955,0.7464 1.296989,1.715 1.520128,2.798 l 0.106862,0 c -0.08479,-1.3313 -0.655938,-2.5253 -1.523803,-3.4295 -0.389439,0.2771 -0.917001,0.3269 -1.357977,0.076 -0.18968,-0.1089 -0.323155,-0.2684 -0.429314,-0.4436 -0.372165,-0.281 -0.616035,-0.6821 -0.687284,-1.1203 -0.465388,-0.1293 -0.954623,-0.1991 -1.461156,-0.1991 z m -3.034709,0.9194 c -1.1022,0.7363 -1.922129,1.8636 -2.262681,3.1823 0.06811,0.058 0.125203,0.1221 0.18426,0.1872 0.407159,-1.0722 1.138561,-1.9858 2.078421,-2.6143 l 0.613575,1.0295 c 0.09775,-0.087 0.199396,-0.1677 0.305863,-0.2423 l -0.919438,-1.5424 z m -3.381124,3.2923 c -0.695749,0 -1.258469,0.5648 -1.258469,1.2603 0,0.1317 0.02685,0.2579 0.06452,0.3776 0.160906,-0.5095 0.630738,-0.8827 1.193985,-0.8827 0.563054,0 1.034414,0.3732 1.19583,0.8827 0.03778,-0.1197 0.06452,-0.2459 0.06452,-0.3776 0,-0.6955 -0.564809,-1.2603 -1.260321,-1.2603 z m 11.869843,1.612 c 6.35e-4,0.01 0.0013,0.018 0.0019,0.027 5.96e-4,-0.01 0.0033,-0.018 0.0039,-0.027 l -0.0058,0 z m -14.869543,0.027 c -0.0053,0.1265 -0.01845,0.2509 -0.01845,0.3776 0,5.2106 4.223756,9.4348 9.43396,9.4348 5.210331,0 9.43396,-4.2242 9.43396,-9.4348 0,-0.1267 -0.01339,-0.2511 -0.01845,-0.3776 -0.199601,5.0336 -4.332608,9.0561 -9.415545,9.0561 -5.082813,0 -9.215926,-4.0225 -9.415533,-9.0561 z m 4.726194,0 c -0.08604,0.3977 -0.30328,0.7451 -0.608051,0.9934 0.05019,0.1945 0.113893,0.3836 0.18426,0.5693 0.286077,-0.3137 0.466169,-0.7262 0.466169,-1.1851 0,-0.1296 -0.01586,-0.2554 -0.0424,-0.3776 z m 1.031842,0 c -0.01282,0.125 -0.02212,0.2502 -0.02212,0.3776 0,1.1048 0.488231,2.094 1.258481,2.768 l 0.305864,-0.5122 c -0.848899,-0.598 -1.431194,-1.5449 -1.542227,-2.6334 z m 7.313161,0 c -0.189925,1.8538 -1.751662,3.302 -3.655664,3.302 -0.553856,0 -1.078468,-0.1238 -1.549602,-0.3428 l -0.875222,1.5684 c 0.110147,0.058 0.226721,0.1 0.34088,0.1457 l 0.534342,-0.9589 c 0.471134,0.2192 0.995746,0.3428 1.549602,0.3428 1.922123,0 3.499685,-1.4737 3.664878,-3.3531 l 1.687794,0.025 c 0.04714,-0.2299 0.08387,-0.4633 0.101338,-0.7022 l -1.789132,0.027 c -0.0016,-0.019 -0.0078,-0.036 -0.0097,-0.054 z m 0.276385,4.1645 c -0.03481,0.038 -0.06191,0.083 -0.09765,0.1139 -0.478876,-0.1809 -1.03287,-0.1521 -1.510902,0.1236 -0.0653,0.04 -0.118282,0.091 -0.176892,0.1313 -0.186873,0.3083 -0.251711,0.6815 -0.136348,1.0354 0.08967,-0.2951 0.279695,-0.5598 0.567507,-0.7263 0.150571,-0.091 0.311223,-0.1382 0.47355,-0.1583 0.486952,-0.064 0.986639,0.168 1.247417,0.619 0.04483,0.082 0.08012,0.1575 0.106865,0.2395 0.09802,-0.3223 0.0748,-0.6805 -0.106865,-0.9947 -0.09329,-0.1617 -0.223679,-0.282 -0.366672,-0.3834 z"/><path id="path4397" fill="#fff" fill-opacity=".235" fill-rule="nonzero" stroke="none" d="m 23.433961,1022.7622 c -5.210204,0 -9.43396,4.2238 -9.43396,9.4336 0,0.067 0.0084,0.125 0.0097,0.1884 0.102017,-5.122 4.27855,-9.2444 9.424748,-9.2444 5.146317,0 9.322734,4.1224 9.424748,9.2444 0.0013,-0.067 0.0097,-0.1247 0.0097,-0.1884 0,-5.2098 -4.223638,-9.4336 -9.433962,-9.4336 z m 1.977083,4.0099 c -0.10282,0.5147 0.120846,1.0602 0.600671,1.3376 0.602382,0.3473 1.373334,0.1416 1.720968,-0.4606 0.138929,-0.2407 0.166311,-0.5066 0.138195,-0.763 -0.02606,0.1315 -0.0672,0.2622 -0.138195,0.3854 -0.347634,0.6011 -1.118586,0.8079 -1.720968,0.4606 -0.362052,-0.2095 -0.55922,-0.5743 -0.600671,-0.96 z m -4.232384,0.8247 c -0.0557,0.027 -0.114809,0.047 -0.169523,0.076 l 0.875222,1.5675 c 0.47108,-0.2191 0.995746,-0.3429 1.549602,-0.3429 1.922123,0 3.499685,1.4755 3.664878,3.3543 l 1.794656,-0.027 c -0.0086,-0.1278 -0.02564,-0.2523 -0.0424,-0.3776 l -1.752278,0.027 c -0.165193,-1.879 -1.742751,-3.3538 -3.664878,-3.3538 -0.553856,0 -1.078522,0.1238 -1.549602,0.3429 l -0.705699,-1.2623 z m -0.01295,1.7105 c -0.856724,0.6732 -1.41141,1.7144 -1.41141,2.8885 0,0.067 0.0083,0.1253 0.01104,0.1884 0.05967,-1.1661 0.65615,-2.19 1.553292,-2.821 l -0.15295,-0.2559 z m -2.940739,1.6079 c -0.03046,0.098 -0.06315,0.1902 -0.08847,0.2879 0.350856,0.2861 0.577009,0.7071 0.628323,1.1811 0.0071,-0.066 0.02212,-0.1233 0.02212,-0.1884 0,-0.5073 -0.219605,-0.9582 -0.561983,-1.2806 z m -2.44693,1.469 c -0.01005,0.066 -0.01845,0.1252 -0.01845,0.1892 0,0.6965 0.56272,1.2604 1.258472,1.2604 0.695512,0 1.260322,-0.5639 1.260322,-1.2604 0,-0.068 -0.0094,-0.1268 -0.01845,-0.1892 -0.0913,0.6064 -0.610622,1.072 -1.241892,1.072 -0.631492,0 -1.149027,-0.4656 -1.240047,-1.072 z m 13.073032,0.5418 c -0.165206,1.234 -0.737299,2.3398 -1.582769,3.1706 -0.478875,-0.1809 -1.032867,-0.1521 -1.510902,0.1236 -0.478885,0.2764 -0.779973,0.7435 -0.862329,1.2498 -0.465442,0.1287 -0.954615,0.1989 -1.461158,0.1989 -0.8058,0 -1.566502,-0.1828 -2.255301,-0.4965 l -0.169523,0.3062 c 0.731028,0.3621 1.553837,0.568 2.424824,0.568 0.506543,0 0.995716,-0.074 1.461158,-0.199 0.08237,-0.5063 0.383444,-0.9734 0.862329,-1.2498 0.478035,-0.2757 1.032027,-0.3045 1.510902,-0.1236 0.931325,-0.9154 1.536928,-2.1615 1.625156,-3.5482 l -0.0424,0 z m -10.626102,0.9281 c -0.03082,0.03 -0.05561,0.067 -0.08847,0.095 0.3405,1.3186 1.160417,2.4453 2.262681,3.1822 l 0.919445,-1.5423 c -0.05334,-0.04 -0.1017,-0.086 -0.152941,-0.1217 l -0.766504,1.2861 c -1.02054,-0.6817 -1.794166,-1.7008 -2.174235,-2.8951 z m 9.647699,4.0282 c -0.04144,0.3867 -0.238612,0.7504 -0.600676,0.96 -0.602445,0.3482 -1.373141,0.142 -1.720958,-0.4607 -0.07073,-0.1225 -0.113785,-0.2514 -0.140038,-0.3834 -0.02746,0.2561 0.0014,0.5209 0.140038,0.761 0.347817,0.6027 1.118513,0.8089 1.720958,0.4607 0.47983,-0.2769 0.703523,-0.8228 0.600676,-1.3376 z"/><path id="path3744" fill="url(#linearGradient3770)" fill-opacity="1" fill-rule="evenodd" stroke="none" d="m 31.649304,1004.3622 0,9 6,0 0,-9 -6,0 z"/><path id="path3746" fill="#000" fill-opacity=".059" fill-rule="evenodd" stroke="none" d="m 10.351076,1014.4824 2.878149,3.3419 1.43908,1.669 0.72154,0.8345 c 0.66473,0.6684 0.67244,0.8344 1.69562,0.8344 l 0.18042,0 0.79368,0 0.18042,0 1.76778,0 0.18432,0 3.71593,0 0.18452,0 3.71593,0 0.18041,0 1.76779,0 0.18431,0 0.79371,0 0.18042,0 c 1.02319,0 1.03089,-0.1659 1.69562,-0.8344 l 0.71753,-0.8345 1.43908,-1.669 2.88218,-3.3419 -27.2984,0 z"/><path id="path3748" fill="#000" fill-opacity=".118" fill-rule="evenodd" stroke="none" d="m 10.351076,1014.0824 2.878149,3.3419 1.43908,1.669 0.72154,0.8345 c 0.66473,0.6684 0.67244,0.8344 1.69562,0.8344 l 0.18042,0 0.79368,0 0.18042,0 1.76778,0 0.18432,0 3.71593,0 0.18452,0 3.71593,0 0.18041,0 1.76779,0 0.18431,0 0.79371,0 0.18042,0 c 1.02319,0 1.03089,-0.1659 1.69562,-0.8344 l 0.71753,-0.8345 1.43908,-1.669 2.88218,-3.3419 -27.2984,0 z"/><path id="path3750" fill="#000" fill-opacity=".235" fill-rule="evenodd" stroke="none" d="m 10.351076,1013.6824 2.878149,3.3419 1.43908,1.669 0.72154,0.8345 c 0.66473,0.6684 0.67244,0.8344 1.69562,0.8344 l 0.18042,0 0.79368,0 0.18042,0 1.76778,0 0.18432,0 3.71593,0 0.18452,0 3.71593,0 0.18041,0 1.76779,0 0.18431,0 0.79371,0 0.18042,0 c 1.02319,0 1.03089,-0.1659 1.69562,-0.8345 l 0.71753,-0.8344 1.43908,-1.669 2.88218,-3.3419 -27.2984,0 z"/><path id="path3752" fill="url(#linearGradient3772)" fill-opacity="1" fill-rule="evenodd" stroke="none" d="m 10.350474,1004.3622 0,9 6,0 0,-9 -6,0 z"/><path id="path3754" fill="url(#linearGradient3774)" fill-opacity="1" fill-rule="evenodd" stroke="none" d="m 10.351076,1013.2824 2.878149,3.3419 1.43908,1.669 0.72154,0.8344 c 0.66473,0.6685 0.67244,0.8345 1.69562,0.8345 l 0.18042,0 0.79368,0 0.18042,0 1.76778,0 0.18432,0 3.71593,0 0.18452,0 3.71593,0 0.18041,0 1.76779,0 0.18431,0 0.79371,0 0.18042,0 c 1.02319,0 1.03089,-0.1659 1.69562,-0.8345 l 0.71753,-0.8344 1.43908,-1.669 2.88218,-3.3419 -27.2984,0 z"/><path id="path3756" fill="url(#linearGradient3776)" fill-opacity="1" fill-rule="evenodd" stroke="none" d="m 10.350476,1012.0259 0,1.2363 6,0 0,-1.2363 -6,0 z"/><path id="path3758" fill="url(#linearGradient3778)" fill-opacity="1" fill-rule="evenodd" stroke="none" d="m 31.649526,1012.0259 0,1.2363 6,0 0,-1.2363 -6,0 z"/><path id="path3760" fill="url(#linearGradient3780)" fill-opacity="1" fill-rule="evenodd" stroke="none" d="m 10.350474,1004.3622 0,9 2,0 0,-9 -2,0 z"/><path id="path3762" fill="url(#linearGradient3782)" fill-opacity="1" fill-rule="evenodd" stroke="none" d="m 31.649304,1004.3622 0,9 2,0 0,-9 -2,0 z"/><path id="path3764" fill="url(#linearGradient3784)" fill-opacity="1" fill-rule="evenodd" stroke="none" d="m 35.649304,1004.3622 0,9 2,0 0,-9 -2,0 z"/><path id="path3766" fill="url(#linearGradient3786)" fill-opacity="1" fill-rule="evenodd" stroke="none" d="m 14.350474,1004.3622 0,9 2,0 0,-9 -2,0 z"/><path id="path3768" fill="url(#radialGradient3788)" fill-opacity="1" fill-rule="evenodd" stroke="none" d="m 10.350476,1013.2825 0.3457,0.4004 2.53711,2.9414 1.4375,1.6699 0.71875,0.834 c 0.55554,0.5587 0.684809,0.7555 1.29883,0.8086 -0.109611,-0.1091 -0.23346,-0.2423 -0.39844,-0.4082 l -0.71875,-0.8359 -1.43945,-1.668 -2.88086,-3.3418 25.49805,0 -2.88086,3.3418 -1.439461,1.668 -0.718749,0.8359 c -0.16497,0.1659 -0.28883,0.2991 -0.39843,0.4082 0.61401,-0.053 0.74329,-0.2499 1.29882,-0.8086 l 0.71875,-0.834 1.4375,-1.6699 2.537109,-2.9414 0.34571,-0.4004 -27.298829,0 z"/><path id="path7515" fill="#fff" fill-opacity=".537" stroke="none" d="m 2.53124,1005.0185 c -0.91709,0 -1.67116,0.6395 -1.84375,1.5 0.3356,-0.2799 0.77451,-0.4375 1.25,-0.4375 l 44.125,0 c 0.47548,0 0.91439,0.1576 1.25,0.4375 -0.1726,-0.8605 -0.92667,-1.5 -1.84375,-1.5 l -42.9375,0 z"/><path id="rect4280" fill="#000" fill-opacity=".392" stroke="none" d="m 1.93749,1004.3622 c -1.07728,0 -1.9375,0.8602 -1.9375,1.9375 l 0,43.0625 c 0,0.7934 0.48002,1.449 1.15625,1.75 -0.30935,-0.3333 -0.5,-0.7824 -0.5,-1.2812 l 0,-42.9375 c 0,-1.0482 0.8269,-1.875 1.875,-1.875 l 42.9375,0 c 1.04809,0 1.875,0.8268 1.875,1.875 l 0,42.9375 c 0,0.4988 -0.19066,0.9479 -0.5,1.2812 0.67622,-0.301 1.15625,-0.9566 1.15625,-1.75 l 0,-43.0625 c 0,-1.0773 -0.86023,-1.9375 -1.9375,-1.9375 l -44.125,0 z"/></g></svg>