<svg xmlns="http://www.w3.org/2000/svg" xmlns:svg="http://www.w3.org/2000/svg" xmlns:xlink="http://www.w3.org/1999/xlink" id="svg2" width="48" height="48" version="1.1"><defs id="defs4"><linearGradient id="linearGradient4194"><stop id="stop4196" offset="0" stop-color="#bae0fe" stop-opacity="1"/><stop id="stop4198" offset="1" stop-color="#f5fdff" stop-opacity="1"/></linearGradient><linearGradient id="linearGradient846" x1="-53.999" x2="-53.999" y1="-1046.438" y2="-998" gradientTransform="translate(68.750893,-6.052015)" gradientUnits="userSpaceOnUse" xlink:href="#linearGradient1126"/><linearGradient id="linearGradient1126"><stop id="stop1128" offset="0" stop-color="#058dfa" stop-opacity="1"/><stop id="stop1130" offset="1" stop-color="#05ccfb" stop-opacity="1"/></linearGradient><linearGradient id="linearGradient4192" x1="34.529" x2="34.529" y1="1043.388" y2="1012.983" gradientUnits="userSpaceOnUse" xlink:href="#linearGradient4194"/></defs><metadata id="metadata7"/><g id="layer1" transform="translate(0,-1004.3622)"><rect id="rect2991-1" width="48" height="48" x="0" y="-1052.362" fill="url(#linearGradient846)" fill-opacity="1" stroke="none" ry="1.945" transform="scale(1,-1)"/><path id="path4206" fill="#000" fill-opacity=".059" d="m 39.4,1031.7622 -2.2,0 0,-4.4 c 0,-7.2875 -5.9125,-13.2 -13.2,-13.2 -7.2875,0 -13.2,5.9125 -13.2,13.2 l 0,4.4 -2.2,0 c -1.2155,0 -2.2,0.9845 -2.2,2.2 l 0,8.8 c 0,1.2155 0.9845,2.2 2.2,2.2 l 6.6,0 0,-13.2 0,-4.4 c 0,-4.8554 3.9446,-8.8 8.8,-8.8 4.8554,0 8.8,3.9446 8.8,8.8 l 0,4.4 0,13.2 6.6,0 c 1.2155,0 2.2,-0.9845 2.2,-2.2 l 0,-8.8 c 0,-1.2155 -0.9845,-2.2 -2.2,-2.2 z"/><path id="path4204" fill="#000" fill-opacity=".118" d="m 39.4,1031.3622 -2.2,0 0,-4.4 c 0,-7.2875 -5.9125,-13.2 -13.2,-13.2 -7.2875,0 -13.2,5.9125 -13.2,13.2 l 0,4.4 -2.2,0 c -1.2155,0 -2.2,0.9845 -2.2,2.2 l 0,8.8 c 0,1.2155 0.9845,2.2 2.2,2.2 l 6.6,0 0,-13.2 0,-4.4 c 0,-4.8554 3.9446,-8.8 8.8,-8.8 4.8554,0 8.8,3.9446 8.8,8.8 l 0,4.4 0,13.2 6.6,0 c 1.2155,0 2.2,-0.9845 2.2,-2.2 l 0,-8.8 c 0,-1.2155 -0.9845,-2.2 -2.2,-2.2 z"/><path id="path4200" fill="#000" fill-opacity=".235" d="m 39.4,1030.9622 -2.2,0 0,-4.4 c 0,-7.2875 -5.9125,-13.2 -13.2,-13.2 -7.2875,0 -13.2,5.9125 -13.2,13.2 l 0,4.4 -2.2,0 c -1.2155,0 -2.2,0.9845 -2.2,2.2 l 0,8.8 c 0,1.2155 0.9845,2.2 2.2,2.2 l 6.6,0 0,-13.2 0,-4.4 c 0,-4.8554 3.9446,-8.8 8.8,-8.8 4.8554,0 8.8,3.9446 8.8,8.8 l 0,4.4 0,13.2 6.6,0 c 1.2155,0 2.2,-0.9845 2.2,-2.2 l 0,-8.8 c 0,-1.2155 -0.9845,-2.2 -2.2,-2.2 z"/><path id="rect846" fill="#000" fill-opacity="1" stroke="none" d="m -1.8041992e-7,1049.3622 0,1.0625 c 0,1.0773 0.86022300041992,1.9375 1.93749998041992,1.9375 l 44.1250002,0 c 1.077277,0 1.9375,-0.8602 1.9375,-1.9375 l 0,-1.0625 c 0,1.0773 -0.860223,1.9375 -1.9375,1.9375 l -44.1250002,0 C 0.86022282,1051.2997 -1.8041992e-7,1050.4395 -1.8041992e-7,1049.3622 Z"/><path id="path7515" fill="#fff" fill-opacity=".537" stroke="none" d="m 2.5312498,1005.0185 c -0.917088,0 -1.67114698,0.6395 -1.84374998,1.5 0.33561198,-0.2799 0.77451198,-0.4375 1.24999998,-0.4375 l 44.1250002,0 c 0.475488,0 0.914388,0.1576 1.25,0.4375 -0.172603,-0.8605 -0.926662,-1.5 -1.84375,-1.5 L 2.5312498,1005.0185 Z"/><path id="rect4280-6" fill="#000" fill-opacity=".392" stroke="none" d="m 1.9374998,1004.3622 c -1.07727698,0 -1.93749998041992,0.8602 -1.93749998041992,1.9375 l 0,43.0625 c 0,0.7934 0.48002400041992,1.449 1.15624998041992,1.75 -0.30934198,-0.3333 -0.49999998,-0.7824 -0.49999998,-1.2812 l 0,-42.9375 c 0,-1.0482 0.82689898,-1.875 1.87499998,-1.875 l 42.9375002,0 c 1.048101,0 1.875,0.8268 1.875,1.875 l 0,42.9375 c 0,0.4988 -0.190658,0.9479 -0.5,1.2812 0.676226,-0.301 1.15625,-0.9566 1.15625,-1.75 l 0,-43.0625 c 0,-1.0773 -0.860223,-1.9375 -1.9375,-1.9375 L 1.9374998,1004.3622 Z"/><path id="path4169" fill="url(#linearGradient4192)" fill-opacity="1" d="m 39.4,1030.5622 -2.2,0 0,-4.4 c 0,-7.2875 -5.9125,-13.2 -13.2,-13.2 -7.2875,0 -13.2,5.9125 -13.2,13.2 l 0,4.4 -2.2,0 c -1.2155,0 -2.2,0.9845 -2.2,2.2 l 0,8.8 c 0,1.2155 0.9845,2.2 2.2,2.2 l 6.6,0 0,-13.2 0,-4.4 c 0,-4.8554 3.9446,-8.8 8.8,-8.8 4.8554,0 8.8,3.9446 8.8,8.8 l 0,4.4 0,13.2 6.6,0 c 1.2155,0 2.2,-0.9845 2.2,-2.2 l 0,-8.8 c 0,-1.2155 -0.9845,-2.2 -2.2,-2.2 z"/><path id="path4208" fill="#058efa" fill-opacity=".314" d="M 24 12.199219 C 19.1446 12.199219 15.199219 16.1446 15.199219 21 L 15.199219 21.800781 C 15.199219 16.945381 19.1446 13 24 13 C 28.8554 13 32.800781 16.945381 32.800781 21.800781 L 32.800781 21 C 32.800781 16.1446 28.8554 12.199219 24 12.199219 z M 6.4003906 36.400391 L 6.4003906 37.199219 C 6.4003906 38.414719 7.3841094 39.400391 8.5996094 39.400391 L 15.199219 39.400391 L 15.199219 38.599609 L 8.5996094 38.599609 C 7.3841094 38.599609 6.4003906 37.615891 6.4003906 36.400391 z M 41.599609 36.400391 C 41.599609 37.615891 40.615891 38.599609 39.400391 38.599609 L 32.800781 38.599609 L 32.800781 39.400391 L 39.400391 39.400391 C 40.615891 39.400391 41.599609 38.414719 41.599609 37.199219 L 41.599609 36.400391 z" transform="translate(0,1004.3622)"/><path id="path4213" fill="#fff" fill-opacity=".235" d="M 24 8.5996094 C 16.7125 8.5996094 10.800781 14.513281 10.800781 21.800781 L 10.800781 22.199219 C 10.800781 14.911719 16.7125 9 24 9 C 31.2875 9 37.199219 14.911719 37.199219 22.199219 L 37.199219 21.800781 C 37.199219 14.513281 31.2875 8.5996094 24 8.5996094 z M 8.5996094 26.199219 C 7.3841094 26.199219 6.4003906 27.184891 6.4003906 28.400391 L 6.4003906 28.800781 C 6.4003906 27.585281 7.3841094 26.599609 8.5996094 26.599609 L 10.800781 26.599609 L 10.800781 26.199219 L 8.5996094 26.199219 z M 37.199219 26.199219 L 37.199219 26.599609 L 39.400391 26.599609 C 40.615891 26.599609 41.599609 27.585281 41.599609 28.800781 L 41.599609 28.400391 C 41.599609 27.184891 40.615891 26.199219 39.400391 26.199219 L 37.199219 26.199219 z" transform="translate(0,1004.3622)"/></g></svg>