<svg xmlns="http://www.w3.org/2000/svg" xmlns:svg="http://www.w3.org/2000/svg" xmlns:xlink="http://www.w3.org/1999/xlink" id="svg2" width="48" height="48" version="1.1" viewBox="0 0 13.547 13.547"><metadata id="metadata22"/><defs id="defs4"><linearGradient id="linearGradient4782"><stop id="stop4784" offset="0" stop-color="#f9c6bf" stop-opacity="1"/><stop id="stop4786" offset="1" stop-color="#fef7f6" stop-opacity="1"/></linearGradient><linearGradient id="linearGradient5555"><stop id="stop5557" offset="0" stop-color="#ec4d39" stop-opacity="1"/><stop id="stop5559" offset="1" stop-color="#ef6858" stop-opacity="1"/></linearGradient><linearGradient id="linearGradient5561" x1="27.224" x2="27.224" y1="-1052.384" y2="-1004.332" gradientTransform="matrix(0.28222223,0,0,0.28222223,-1.9999964e-8,283.45334)" gradientUnits="userSpaceOnUse" xlink:href="#linearGradient5555"/><linearGradient id="linearGradient4780" x1="24.482" x2="24.482" y1="39.4" y2="8.6" gradientTransform="matrix(0.28221507,0,0,0.28221507,1.7245e-4,1.711e-4)" gradientUnits="userSpaceOnUse" xlink:href="#linearGradient4782"/></defs><rect id="rect2991-1-7" width="13.547" height="13.547" x="0" y="-13.547" fill="url(#linearGradient5561)" fill-opacity="1" stroke="none" ry=".549" transform="scale(1,-1)"/><path id="path4802" fill="#000" fill-opacity=".059" stroke="none" stroke-dasharray="none" stroke-miterlimit="4" stroke-opacity=".55" stroke-width="2.8" d="m 5.3903699,2.7657769 c -1.6416447,0 -2.9632581,1.3216133 -2.9632581,2.963258 0,1.6416451 1.3216134,2.9632583 2.9632581,2.9632583 1.6416451,0 2.9632582,-1.3216132 2.9632582,-2.9632583 0,-1.6416447 -1.3216131,-2.963258 -2.9632582,-2.963258 z m 3.5177668,2.7659282 c 0.00361,0.065725 0.00992,0.1306709 0.00992,0.1973298 0,1.9543394 -1.5733491,3.5276884 -3.5276885,3.5276884 -0.066659,0 -0.1316048,-0.00631 -0.1973298,-0.00992 l 0,2.2114197 5.9265166,0 0,-5.9265163 -2.2114199,0 z" opacity="1"/><path id="path4800" fill="#000" fill-opacity=".118" stroke="none" stroke-dasharray="none" stroke-miterlimit="4" stroke-opacity=".55" stroke-width="2.8" d="m 5.3903699,2.6528882 c -1.6416447,0 -2.9632581,1.3216133 -2.9632581,2.963258 0,1.6416451 1.3216134,2.9632583 2.9632581,2.9632583 1.6416451,0 2.9632582,-1.3216132 2.9632582,-2.9632583 0,-1.6416447 -1.3216131,-2.963258 -2.9632582,-2.963258 z m 3.5177668,2.7659282 c 0.00361,0.065725 0.00992,0.1306709 0.00992,0.1973298 0,1.9543394 -1.5733491,3.5276884 -3.5276885,3.5276884 -0.066659,0 -0.1316048,-0.00631 -0.1973298,-0.00992 l 0,2.2114194 5.9265166,0 0,-5.926516 -2.2114199,0 z" opacity="1"/><path id="path4796" fill="#000" fill-opacity=".235" stroke="none" stroke-dasharray="none" stroke-miterlimit="4" stroke-opacity=".55" stroke-width="2.8" d="m 5.3903699,2.5399991 c -1.6416447,0 -2.9632581,1.3216133 -2.9632581,2.963258 0,1.6416451 1.3216134,2.9632583 2.9632581,2.9632583 1.6416451,0 2.9632582,-1.3216132 2.9632582,-2.9632583 0,-1.6416447 -1.3216131,-2.963258 -2.9632582,-2.963258 z m 3.5177668,2.7659282 c 0.00361,0.065725 0.00992,0.1306709 0.00992,0.1973298 0,1.9543394 -1.5733491,3.5276884 -3.5276885,3.5276884 -0.066659,0 -0.1316048,-0.00631 -0.1973298,-0.00992 l 0,2.2114195 5.9265166,0 0,-5.9265161 -2.2114199,0 z" opacity="1"/><path id="rect846" fill="#000" fill-opacity="1" stroke="none" d="m -1.6458887e-6,12.7 0,0.299861 c 0,0.304038 0.2427732058887,0.546806 0.5468055558887,0.546806 l 12.45305609,0 c 0.304032,0 0.546805,-0.242768 0.546805,-0.546806 l 0,-0.299861 c 0,0.304038 -0.242773,0.546806 -0.546805,0.546806 l -12.45305609,0 C 0.24277156,13.246806 -1.6458887e-6,13.004038 -1.6458887e-6,12.7 Z"/><path id="path7515" fill="#fff" fill-opacity=".537" stroke="none" d="m 0.71437336,0.18522226 c -0.25882318,0 -0.47163567,0.18048112 -0.52034722,0.42333335 0.0947166,-0.078994 0.21858393,-0.12347223 0.35277777,-0.12347223 l 12.45305609,0 c 0.134194,0 0.258061,0.0444782 0.352778,0.12347223 C 13.303926,0.36570338 13.091113,0.18522226 12.83229,0.18522226 l -12.11791664,0 z"/><path id="rect4280" fill="#000" fill-opacity=".392" stroke="none" d="M 0.54680391,-1.88294e-7 C 0.24277156,-1.88294e-7 -1.6458887e-6,0.24276737 -1.6458887e-6,0.54680538 l 0,12.15319462 c 0,0.223915 0.1354723158887,0.40894 0.3263194458887,0.493889 -0.0873026,-0.09407 -0.14111111,-0.220811 -0.14111111,-0.361583 l 0,-12.11791706 c 0,-0.29582534 0.23336955,-0.52916668 0.52916667,-0.52916668 l 12.11791664,0 c 0.295797,0 0.529167,0.23334134 0.529167,0.52916668 l 0,12.11791706 c 0,0.140772 -0.05381,0.267518 -0.141111,0.361583 0.190847,-0.08495 0.326319,-0.269974 0.326319,-0.493889 l 0,-12.15319462 C 13.546665,0.24276737 13.303892,-1.88294e-7 12.99986,-1.88294e-7 l -12.45305609,0 z"/><path id="rect4766" fill="url(#linearGradient4780)" fill-opacity="1" stroke="none" stroke-dasharray="none" stroke-miterlimit="4" stroke-opacity=".55" stroke-width="2.8" d="m 5.3903699,2.4271105 c -1.6416447,0 -2.9632581,1.3216133 -2.9632581,2.963258 0,1.6416451 1.3216134,2.9632583 2.9632581,2.9632583 1.6416451,0 2.9632582,-1.3216132 2.9632582,-2.9632583 0,-1.6416447 -1.3216131,-2.963258 -2.9632582,-2.963258 z m 3.5177668,2.7659282 c 0.00361,0.065725 0.00992,0.1306709 0.00992,0.1973298 0,1.9543394 -1.5733491,3.5276884 -3.5276885,3.5276884 -0.066659,0 -0.1316048,-0.00631 -0.1973298,-0.00992 l 0,2.2114201 5.9265166,0 0,-5.9265167 -2.2114199,0 z" opacity="1"/><path id="path4804" fill="#ec4f3c" fill-opacity=".314" stroke="none" stroke-dasharray="none" stroke-miterlimit="4" stroke-opacity=".55" stroke-width="2.8" d="M 31.564453 18.400391 C 31.56992 18.499929 31.573608 18.599999 31.580078 18.699219 C 31.583219 18.599241 31.592949 18.500961 31.59375 18.400391 L 31.564453 18.400391 z M 8.6191406 18.699219 C 8.6141221 18.833194 8.5996094 18.964363 8.5996094 19.099609 C 8.5996094 24.916462 13.282758 29.599609 19.099609 29.599609 C 24.916462 29.599609 29.599609 24.916462 29.599609 19.099609 C 29.599609 18.964363 29.585097 18.833194 29.580078 18.699219 C 29.369622 24.327788 24.78146 28.798828 19.099609 28.798828 C 13.41776 28.798828 8.8295964 24.327788 8.6191406 18.699219 z M 18.400391 38.599609 L 18.400391 39.400391 L 39.400391 39.400391 L 39.400391 38.599609 L 18.400391 38.599609 z" opacity="1" transform="scale(0.28222223,0.28222223)"/><path id="path4809" fill="#fff" fill-opacity=".235" stroke="none" stroke-dasharray="none" stroke-miterlimit="4" stroke-opacity=".55" stroke-width="2.8" d="M 19.099609 8.5996094 C 13.282758 8.5996094 8.5996094 13.282758 8.5996094 19.099609 C 8.5996094 19.167562 8.6081025 19.233144 8.609375 19.300781 C 8.7160029 13.577627 13.350052 9 19.099609 9 C 24.849168 9 29.483216 13.577627 29.589844 19.300781 C 29.591116 19.233144 29.599609 19.167562 29.599609 19.099609 C 29.599609 13.282758 24.916462 8.5996094 19.099609 8.5996094 z M 31.564453 18.400391 C 31.571777 18.533736 31.57638 18.667588 31.583984 18.800781 L 39.400391 18.800781 L 39.400391 18.400391 L 31.564453 18.400391 z M 31.589844 19.298828 C 31.482946 26.129985 25.957143 31.599609 19.099609 31.599609 C 18.863416 31.599609 18.633274 31.577244 18.400391 31.564453 L 18.400391 31.964844 C 18.633274 31.977635 18.863416 32 19.099609 32 C 26.024434 32 31.599609 26.424824 31.599609 19.5 C 31.599609 19.432051 31.592784 19.365983 31.589844 19.298828 z" opacity="1" transform="scale(0.28222223,0.28222223)"/></svg>