<svg xmlns="http://www.w3.org/2000/svg" xmlns:svg="http://www.w3.org/2000/svg" xmlns:xlink="http://www.w3.org/1999/xlink" id="svg5453" width="48" height="48" version="1.1"><defs id="defs5455"><style id="style874" type="text/css"><![CDATA[
    .fil0 {fill:#1F1A17}
   ]]></style><style id="style874-2" type="text/css"><![CDATA[
    .fil0 {fill:#1F1A17}
   ]]></style><linearGradient id="ButtonShadow" x1="45.448" x2="45.448" y1="92.54" y2="7.017" gradientTransform="scale(1.0058652,0.994169)" gradientUnits="userSpaceOnUse"><stop id="stop3750" offset="0" stop-color="#000" stop-opacity="1"/><stop id="stop3752" offset="1" stop-color="#000" stop-opacity=".588"/></linearGradient><linearGradient id="linearGradient3737"><stop id="stop3739" offset="0" stop-color="#fff" stop-opacity="1"/><stop id="stop3741" offset="1" stop-color="#fff" stop-opacity="0"/></linearGradient><filter id="filter3174" color-interpolation-filters="sRGB"><feGaussianBlur id="feGaussianBlur3176" stdDeviation="1.71"/></filter><filter id="filter3794" width="1.384" height="1.384" x="-.192" y="-.192" color-interpolation-filters="sRGB"><feGaussianBlur id="feGaussianBlur3796" stdDeviation="5.28"/></filter><linearGradient id="linearGradient3613" x1="48" x2="48" y1="20.221" y2="138.661" gradientUnits="userSpaceOnUse" xlink:href="#linearGradient3737"/><clipPath id="clipPath3613"><rect id="rect3615" width="84" height="84" x="6" y="6" fill="#fff" fill-opacity="1" fill-rule="nonzero" stroke="none" rx="6" ry="6"/></clipPath><linearGradient id="linearGradient5356"><stop id="stop5358" offset="0" stop-color="#f2f2f2" stop-opacity="1"/><stop id="stop5360" offset="1" stop-color="#fff" stop-opacity="1"/></linearGradient><linearGradient id="linearGradient5336"><stop id="stop5338" offset="0" stop-color="#292929" stop-opacity="1"/><stop id="stop5340" offset="1" stop-color="#878787" stop-opacity="1"/></linearGradient><linearGradient id="linearGradient5322"><stop id="stop5324" offset="0" stop-color="#000" stop-opacity="1"/><stop id="stop5326" offset="1" stop-color="#000" stop-opacity="0"/></linearGradient><linearGradient id="linearGradient5142"><stop id="stop5144" offset="0" stop-color="#292929" stop-opacity="1"/><stop id="stop5146" offset="1" stop-color="#696969" stop-opacity="1"/></linearGradient><linearGradient id="linearGradient5109"><stop id="stop5111" offset="0" stop-color="#000" stop-opacity="1"/><stop id="stop5113" offset="1" stop-color="#000" stop-opacity="0"/></linearGradient><linearGradient id="SVGID_4_-9" x1="159.238" x2="159.238" y1="335.717" y2="206.75" gradientTransform="matrix(0.22328079,0,0,0.22297846,276.38848,532.32026)" gradientUnits="userSpaceOnUse"><stop id="stop33-7" offset="0" stop-color="#84E9DB"/><stop id="stop35-4" offset="1" stop-color="#197491"/></linearGradient><linearGradient id="SVGID_3_-9" x1="203.46" x2="140.339" y1="261.67" y2="196.306" gradientTransform="matrix(0.22328079,0,0,0.22297846,276.38848,532.32026)" gradientUnits="userSpaceOnUse"><stop id="stop26-0" offset="0" stop-color="#E6FFAB"/><stop id="stop28-2" offset="1" stop-color="#47BEBC"/></linearGradient><linearGradient id="SVGID_2_-2" x1="203.13" x2="140.995" y1="279.738" y2="346.37" gradientTransform="matrix(0.22328079,0,0,0.22297846,276.38848,532.32026)" gradientUnits="userSpaceOnUse"><stop id="stop19-4" offset="0" stop-color="#E74047"/><stop id="stop21-0" offset="1" stop-color="#7F50A0"/></linearGradient><linearGradient id="linearGradient4080-4" x1="226.858" x2="210.54" y1="284.507" y2="252.479" gradientTransform="matrix(0.22328079,0,0,0.22297846,276.38848,532.32026)" gradientUnits="userSpaceOnUse" xlink:href="#SVGID_1_-5"/><linearGradient id="SVGID_1_-5" x1="226.858" x2="210.54" y1="284.507" y2="252.479" gradientTransform="translate(-124.695,-206.60064)" gradientUnits="userSpaceOnUse"><stop id="stop12-1" offset="0" stop-color="#FCD08F"/><stop id="stop14-8" offset="1" stop-color="#F79673"/></linearGradient><linearGradient id="linearGradient4422" x1="410.377" x2="410.377" y1="-547.809" y2="-499.801" gradientTransform="translate(-1.2211914e-5,-1.3634766e-5)" gradientUnits="userSpaceOnUse" xlink:href="#linearGradient5356"/><linearGradient id="linearGradient5140" x1="402.197" x2="408.923" y1="617.763" y2="611.019" gradientTransform="matrix(2,0,0,1.585687,-409.38331,-470.88602)" gradientUnits="userSpaceOnUse" xlink:href="#linearGradient5336"/><linearGradient id="linearGradient5176" x1="115.403" x2="115.403" y1="49.418" y2="48.443" gradientTransform="matrix(2.0525112,0,0,2.0640046,172.3843,407.47748)" gradientUnits="userSpaceOnUse" xlink:href="#linearGradient5109"/><linearGradient id="linearGradient5255" x1="408.981" x2="408.981" y1="617.834" y2="621.194" gradientTransform="matrix(2.0525117,0,0,2.0640046,-430.50097,-766.48659)" gradientUnits="userSpaceOnUse" xlink:href="#linearGradient5142"/><linearGradient id="linearGradient5275" x1="115.403" x2="115.403" y1="49.418" y2="48.443" gradientTransform="matrix(2.0525112,0,0,2.0640046,193.68335,407.47748)" gradientUnits="userSpaceOnUse" xlink:href="#linearGradient5109"/><linearGradient id="linearGradient5292" x1="303.674" x2="304.45" y1="578.029" y2="578.029" gradientTransform="matrix(1,0,0,0.76825749,90.840928,60.82258)" gradientUnits="userSpaceOnUse" xlink:href="#linearGradient5109"/><linearGradient id="linearGradient5296" x1="303.674" x2="304.45" y1="578.029" y2="578.029" gradientTransform="matrix(1,0,0,0.76825749,112.13939,60.82258)" gradientUnits="userSpaceOnUse" xlink:href="#linearGradient5109"/><linearGradient id="linearGradient5310" x1="303.674" x2="304.45" y1="578.029" y2="578.029" gradientTransform="matrix(-1,0,0,0.76825749,726.30077,60.82258)" gradientUnits="userSpaceOnUse" xlink:href="#linearGradient5109"/><linearGradient id="linearGradient5312" x1="303.674" x2="304.45" y1="578.029" y2="578.029" gradientTransform="matrix(-1,0,0,0.76825749,705.00231,60.82258)" gradientUnits="userSpaceOnUse" xlink:href="#linearGradient5109"/><radialGradient id="radialGradient5328" cx="23.999" cy="15.455" r="13.649" fx="23.999" fy="15.455" gradientTransform="matrix(1.0091579,0,0,0.33991558,384.35164,504.97958)" gradientUnits="userSpaceOnUse" xlink:href="#linearGradient5322"/><linearGradient id="linearGradient5346" x1="402.197" x2="408.923" y1="617.763" y2="611.019" gradientTransform="matrix(2,0,0,1.585687,-388.08486,-470.88602)" gradientUnits="userSpaceOnUse" xlink:href="#linearGradient5336"/></defs><metadata id="metadata5458"/><g id="layer1" transform="translate(-384.57143,-499.798)"><g id="layer2" display="none" transform="translate(371.14584,459.80195)"><rect id="rect3745" width="86" height="85" x="5" y="7" fill="url(#ButtonShadow)" fill-opacity="1" fill-rule="nonzero" stroke="none" filter="url(#filter3174)" opacity=".9" rx="6" ry="6"/></g><g id="layer5" display="none" transform="translate(371.14584,459.80195)"><rect id="rect3171" width="66" height="66" x="15" y="15" fill="url(#linearGradient3613)" fill-opacity="1" fill-rule="nonzero" stroke="#fff" stroke-dasharray="none" stroke-dashoffset="0" stroke-linecap="round" stroke-linejoin="miter" stroke-miterlimit="4" stroke-opacity="1" stroke-width=".5" clip-path="url(#clipPath3613)" filter="url(#filter3794)" opacity=".1" rx="12" ry="12"/></g><rect id="rect2991-1-7-6" width="48" height="48" x="384.571" y="-547.798" fill="url(#linearGradient4422)" fill-opacity="1" stroke="none" ry="1.945" transform="scale(1,-1)"/><path id="path4117" fill="#000" fill-opacity=".059" d="m 400.30855,519.01938 c -0.39499,0.0879 -0.7372,0.43178 -0.7372,1.1181 l 0,16.90826 c 0,0.6464 0.26634,1.10008 0.7372,1.14541 0.21574,0.0278 0.46594,-0.0281 0.76446,-0.19088 0.61799,-0.33786 7.27821,-3.96677 11.79458,-6.43604 2.27495,-1.24371 3.9919,-2.20432 4.15001,-2.29082 0.47143,-0.25777 0.96538,-0.91956 0,-1.44538 -0.31033,-0.16932 -2.0052,-1.0799 -4.17727,-2.26354 0,0 -11.10265,-6.04653 -11.76732,-6.40884 -0.25553,-0.13926 -0.51791,-0.19119 -0.76446,-0.13627 z"/><path id="path4114" fill="#000" fill-opacity=".118" d="m 400.30855,518.75262 c -0.39499,0.0879 -0.7372,0.43178 -0.7372,1.11814 l 0,16.90834 c 0,0.64629 0.26634,1.10007 0.7372,1.1454 0.21574,0.0278 0.46594,-0.0281 0.76446,-0.19097 0.61799,-0.33779 7.27821,-3.96677 11.79458,-6.43606 2.27495,-1.2437 3.9919,-2.2042 4.15001,-2.2907 0.47143,-0.25778 0.96538,-0.91968 0,-1.44549 -0.31033,-0.16924 -2.0052,-1.0798 -4.17727,-2.26353 0,0 -11.10265,-6.04651 -11.76732,-6.40875 -0.25553,-0.13924 -0.51791,-0.19119 -0.76446,-0.13638 z"/><path id="path8300-1" fill="#000" fill-opacity=".235" d="m 400.30855,518.48595 c -0.39499,0.0881 -0.7372,0.43188 -0.7372,1.11813 l 0,16.90834 c 0,0.64629 0.26634,1.10008 0.7372,1.1454 0.21574,0.0278 0.46594,-0.0281 0.76446,-0.19085 0.61799,-0.33786 7.27821,-3.96677 11.79458,-6.43604 2.27495,-1.2438 3.9919,-2.20433 4.15001,-2.29084 0.47143,-0.25777 0.96538,-0.91967 0,-1.44538 -0.31033,-0.16931 -2.0052,-1.0799 -4.17727,-2.26351 0,0 -11.10265,-6.04664 -11.76732,-6.40888 -0.25553,-0.13923 -0.51791,-0.19115 -0.76446,-0.13637 z"/><g id="g4125" transform="matrix(0.66667165,0,0,0.66667165,196.74951,132.60313)"><path id="path16-94" fill="url(#linearGradient4080-4)" d="m 324.14222,597.2344 c 3.41329,-1.86566 6.0201,-3.29071 6.25723,-3.42049 0.70735,-0.38664 1.44841,-1.37331 0,-2.16199 -0.46556,-0.25397 -3.00224,-1.63533 -6.26125,-3.4109 l -4.48236,4.51062 4.48638,4.48276 z"/><path id="path23-57" fill="url(#SVGID_2_-2)" d="m 319.65562,592.75164 -14.33641,14.42627 c 0.32375,0.041 0.71315,-0.0446 1.16106,-0.28944 0.92727,-0.50681 10.88559,-5.9504 17.66195,-9.65451 l -4.4866,-4.48232 z"/><path id="path30-8" fill="url(#SVGID_3_-9)" d="m 319.65562,592.75164 4.48236,-4.51062 c 0,0 -16.66033,-9.07724 -17.65771,-9.62063 -0.38339,-0.20894 -0.80137,-0.28184 -1.17133,-0.19957 l 14.34668,14.33082 z"/><path id="path37-4" fill="url(#SVGID_4_-9)" d="m 319.65562,592.75164 -14.34692,-14.3306 c -0.59259,0.13201 -1.07821,0.64419 -1.07821,1.67369 0,1.67233 0,23.95969 0,25.3638 0,0.9695 0.38203,1.65137 1.08848,1.71938 l 14.33665,-14.42627 z"/></g><path id="path4120-2" fill="#fff" fill-opacity=".235" d="m 400.49584,518.19792 c -0.0633,6.6e-4 -0.12587,0.008 -0.1875,0.0221 -0.39499,0.0881 -0.73699,0.43095 -0.73699,1.1172 l 0,0.26693 c 0,-0.68625 0.342,-1.03041 0.73699,-1.1185 0.24655,-0.0548 0.50879,-0.003 0.76433,0.13672 0.66467,0.36224 11.76701,6.4089 11.76701,6.4089 2.17208,1.1836 3.86809,2.09503 4.17842,2.26434 0.33502,0.18245 0.48581,0.38026 0.53125,0.57292 0.0711,-0.26768 -0.0379,-0.57118 -0.53125,-0.83985 -0.31033,-0.16931 -2.00634,-1.08073 -4.17842,-2.26434 0,0 -11.10234,-6.04666 -11.76701,-6.4089 -0.19166,-0.10442 -0.38705,-0.15953 -0.57683,-0.15755 z"/><path id="path3309" fill="#000" fill-opacity=".314" d="m 417.49857,527.46066 c -0.0997,0.20169 -0.2891,0.37452 -0.48047,0.47917 -0.15812,0.0865 -1.87613,1.04788 -4.15108,2.29168 -4.51636,2.46927 -11.17636,6.09708 -11.79435,6.43495 -0.29853,0.16272 -0.54859,0.2192 -0.76433,0.1914 -0.47087,-0.0453 -0.73699,-0.49955 -0.73699,-1.14584 l 0,0.53386 c 0,0.64629 0.26612,1.10051 0.73699,1.14584 0.21574,0.0278 0.4658,-0.0287 0.76433,-0.19141 0.61799,-0.33786 7.27799,-3.96697 11.79435,-6.43624 2.27495,-1.2438 3.99296,-2.20388 4.15108,-2.29038 0.34765,-0.1901 0.70261,-0.60008 0.48047,-1.01303 z"/><path id="rect5344" fill="url(#linearGradient5346)" fill-opacity="1" fill-rule="evenodd" stroke="none" d="m 416.21986,499.798 0,9 6,0 0,-9 -6,0 z"/><path id="path5354" fill="#000" fill-opacity=".059" fill-rule="evenodd" stroke="none" d="m 394.92163,509.9182 2.87815,3.34193 1.43908,1.66893 0.72154,0.83448 c 0.66473,0.66849 0.67244,0.83446 1.69562,0.83446 l 0.18042,0 0.79368,0 0.18042,0 1.76778,0 0.18432,0 3.71593,0 0.18452,0 3.71593,0 0.18041,0 1.76779,0 0.18431,0 0.79371,0 0.18042,0 c 1.02319,0 1.03089,-0.16595 1.69562,-0.83446 l 0.71753,-0.83448 1.43908,-1.66893 2.88218,-3.34193 -27.2984,0 z"/><path id="path5352" fill="#000" fill-opacity=".118" fill-rule="evenodd" stroke="none" d="m 394.92163,509.5182 2.87815,3.34193 1.43908,1.66893 0.72154,0.83448 c 0.66473,0.66849 0.67244,0.83446 1.69562,0.83446 l 0.18042,0 0.79368,0 0.18042,0 1.76778,0 0.18432,0 3.71593,0 0.18452,0 3.71593,0 0.18041,0 1.76779,0 0.18431,0 0.79371,0 0.18042,0 c 1.02319,0 1.03089,-0.16595 1.69562,-0.83446 l 0.71753,-0.83448 1.43908,-1.66893 2.88218,-3.34193 -27.2984,0 z"/><path id="path5348" fill="#000" fill-opacity=".235" fill-rule="evenodd" stroke="none" d="m 394.92163,509.1182 2.87815,3.34193 1.43908,1.66893 0.72154,0.83448 c 0.66473,0.66849 0.67244,0.83446 1.69562,0.83446 l 0.18042,0 0.79368,0 0.18042,0 1.76778,0 0.18432,0 3.71593,0 0.18452,0 3.71593,0 0.18041,0 1.76779,0 0.18431,0 0.79371,0 0.18042,0 c 1.02319,0 1.03089,-0.16595 1.69562,-0.83446 l 0.71753,-0.83448 1.43908,-1.66893 2.88218,-3.34193 -27.2984,0 z"/><path id="rect5127" fill="url(#linearGradient5140)" fill-opacity="1" fill-rule="evenodd" stroke="none" d="m 394.92103,499.798 0,9 6,0 0,-9 -6,0 z"/><path id="rect5131" fill="url(#linearGradient5255)" fill-opacity="1" fill-rule="evenodd" stroke="none" d="m 394.92163,508.7182 2.87815,3.34193 1.43908,1.66893 0.72154,0.83448 c 0.66473,0.66849 0.67244,0.83446 1.69562,0.83446 l 0.18042,0 0.79368,0 0.18042,0 1.76778,0 0.18432,0 3.71593,0 0.18452,0 3.71593,0 0.18041,0 1.76779,0 0.18431,0 0.79371,0 0.18042,0 c 1.02319,0 1.03089,-0.16595 1.69562,-0.83446 l 0.71753,-0.83448 1.43908,-1.66893 2.88218,-3.34193 -27.2984,0 z"/><path id="rect5160" fill="url(#linearGradient5176)" fill-opacity="1" fill-rule="evenodd" stroke="none" d="m 394.92103,507.46166 0,1.23633 6,0 0,-1.23633 -6,0 z"/><path id="path5273" fill="url(#linearGradient5275)" fill-opacity="1" fill-rule="evenodd" stroke="none" d="m 416.22008,507.46166 0,1.23633 6,0 0,-1.23633 -6,0 z"/><path id="rect5282" fill="url(#linearGradient5292)" fill-opacity="1" fill-rule="evenodd" stroke="none" d="m 394.92103,499.798 0,9 2,0 0,-9 -2,0 z"/><path id="rect5294" fill="url(#linearGradient5296)" fill-opacity="1" fill-rule="evenodd" stroke="none" d="m 416.21986,499.798 0,9 2,0 0,-9 -2,0 z"/><path id="rect5306" fill="url(#linearGradient5310)" fill-opacity="1" fill-rule="evenodd" stroke="none" d="m 420.21986,499.798 0,9 2,0 0,-9 -2,0 z"/><path id="rect5308" fill="url(#linearGradient5312)" fill-opacity="1" fill-rule="evenodd" stroke="none" d="m 398.92103,499.798 0,9 2,0 0,-9 -2,0 z"/><path id="path5314" fill="url(#radialGradient5328)" fill-opacity="1" fill-rule="evenodd" stroke="none" d="m 394.92103,508.71831 0.3457,0.40039 2.53711,2.94141 1.4375,1.66992 0.71875,0.83399 c 0.55554,0.55869 0.68481,0.75549 1.29883,0.80859 -0.10961,-0.10915 -0.23346,-0.24229 -0.39844,-0.4082 l -0.71875,-0.83594 -1.43945,-1.66797 -2.88086,-3.3418 25.49805,0 -2.88086,3.3418 -1.43946,1.66797 -0.71875,0.83594 c -0.16497,0.16591 -0.28883,0.29905 -0.39843,0.4082 0.61401,-0.0531 0.74329,-0.2499 1.29882,-0.80859 l 0.71875,-0.83399 1.4375,-1.66992 2.53711,-2.94141 0.34571,-0.40039 -27.29883,0 z"/><g id="g5277" transform="translate(90.840928,-68.989733)"><path id="path7515-8" fill="#fff" fill-opacity=".537" stroke="none" d="m 296.26174,569.44404 c -0.91709,0 -1.67116,0.6395 -1.84375,1.5 0.3356,-0.2799 0.77451,-0.4375 1.25,-0.4375 l 44.125,0 c 0.47548,0 0.91439,0.1576 1.25,0.4375 -0.1726,-0.8605 -0.92667,-1.5 -1.84375,-1.5 l -42.9375,0 z"/><path id="rect846-2" fill="#000" fill-opacity="1" stroke="none" d="m 293.73049,613.78774 0,1.0625 c 0,1.0773 0.86022,1.9375 1.9375,1.9375 l 44.125,0 c 1.07727,0 1.9375,-0.8602 1.9375,-1.9375 l 0,-1.0625 c 0,1.0773 -0.86023,1.9375 -1.9375,1.9375 l -44.125,0 c -1.07729,0 -1.9375,-0.8602 -1.9375,-1.9375 z"/><path id="rect4280-7" fill="#000" fill-opacity=".392" stroke="none" d="m 295.66799,568.78774 c -1.07728,0 -1.9375,0.8602 -1.9375,1.9375 l 0,43.0625 c 0,0.7934 0.48002,1.449 1.15625,1.75 -0.30935,-0.3333 -0.5,-0.7824 -0.5,-1.2812 l 0,-42.9375 c 0,-1.0482 0.8269,-1.875 1.875,-1.875 l 42.9375,0 c 1.04809,0 1.875,0.8268 1.875,1.875 l 0,42.9375 c 0,0.4988 -0.19066,0.9479 -0.5,1.2812 0.67622,-0.301 1.15625,-0.9566 1.15625,-1.75 l 0,-43.0625 c 0,-1.0773 -0.86023,-1.9375 -1.9375,-1.9375 l -44.125,0 z"/></g></g></svg>