<svg xmlns="http://www.w3.org/2000/svg" xmlns:svg="http://www.w3.org/2000/svg" xmlns:xlink="http://www.w3.org/1999/xlink" id="svg2" width="48" height="48" enable-background="new" version="1.1" viewBox="0 0 13.547 13.547"><metadata id="metadata84"/><defs id="defs4"><linearGradient id="linearGradient4102"><stop id="stop4104" offset="0" stop-color="#afcdf5" stop-opacity="1"/><stop id="stop4106" offset="1" stop-color="#f6f9fe" stop-opacity="1"/></linearGradient><linearGradient id="linearGradient5555"><stop id="stop5557" offset="0" stop-color="#2d7ce6" stop-opacity="1"/><stop id="stop5559" offset="1" stop-color="#4990f1" stop-opacity="1"/></linearGradient><linearGradient id="linearGradient5561-0" x1="27.224" x2="27.224" y1="-1052.384" y2="-1004.332" gradientTransform="translate(-3.1091309e-7,-8.691406e-6)" gradientUnits="userSpaceOnUse" xlink:href="#linearGradient5555"/><linearGradient id="linearGradient4066" x1="119.189" x2="119.189" y1="35.458" y2="4.661" gradientTransform="translate(-85.500385,1008.3008)" gradientUnits="userSpaceOnUse" xlink:href="#linearGradient4102"/></defs><g id="layer1" transform="matrix(0.28222223,0,0,0.28222223,-2.0000021e-8,-283.45334)"><path id="path4078" fill="#000" fill-opacity=".118" stroke="none" d="m 8.6,1014.1622 0,30.8 30.799995,0 0,-30.8 -30.799995,0 z m 3.422214,3.4222 23.955571,0 0,20.5334 -3.71968,0 -4.93951,-8.5556 -1.74452,3.0211 -5.16674,-8.9496 -8.361726,14.4841 -0.02336,0 -3.9e-5,-20.5334 z m 18.822211,1.7111 c -1.89004,0 -3.42221,1.5322 -3.42221,3.4223 0,1.8901 1.53217,3.4222 3.42221,3.4222 1.89004,0 3.42225,-1.5321 3.42225,-3.4222 0,-1.8901 -1.53221,-3.4223 -3.42225,-3.4223 z"/><rect id="rect2991-1-7-2" width="48" height="48" x="0" y="-1052.362" fill="url(#linearGradient5561-0)" fill-opacity="1" stroke="none" ry="1.945" transform="scale(1,-1)"/><path id="path4076" fill="#000" fill-opacity=".118" stroke="none" d="m 8.6,1013.7622 0,30.8 30.799995,0 0,-30.8 -30.799995,0 z m 3.422214,3.4222 23.955571,0 0,20.5334 -3.71968,0 -4.93951,-8.5556 -1.74452,3.0211 -5.16674,-8.9496 -8.361726,14.4841 -0.02336,0 -3.9e-5,-20.5334 z m 18.822211,1.7111 c -1.89004,0 -3.42221,1.5322 -3.42221,3.4223 0,1.8901 1.53217,3.4222 3.42221,3.4222 1.89004,0 3.42225,-1.5321 3.42225,-3.4222 0,-1.8901 -1.53221,-3.4223 -3.42225,-3.4223 z"/><path id="path4068" fill="#000" fill-opacity=".235" stroke="none" d="m 8.6,1013.3622 0,30.8 30.799995,0 0,-30.8 -30.799995,0 z m 3.422214,3.4222 23.955571,0 0,20.5334 -3.71968,0 -4.93951,-8.5556 -1.74452,3.0211 -5.16674,-8.9496 -8.361726,14.4841 -0.02336,0 -3.9e-5,-20.5334 z m 18.822211,1.7111 c -1.89004,0 -3.42221,1.5322 -3.42221,3.4223 0,1.8901 1.53217,3.4222 3.42221,3.4222 1.89004,0 3.42225,-1.5321 3.42225,-3.4222 0,-1.8901 -1.53221,-3.4223 -3.42225,-3.4223 z"/><path id="rect4144" fill="url(#linearGradient4066)" fill-opacity="1" stroke="none" d="m 8.6,1012.9622 0,30.8 30.799995,0 0,-30.8 -30.799995,0 z m 3.422214,3.4222 23.955571,0 0,20.5334 -3.71968,0 -4.93951,-8.5556 -1.74452,3.0211 -5.16674,-8.9496 -8.361726,14.4841 -0.02336,0 -3.9e-5,-20.5334 z m 18.822211,1.7111 c -1.89004,0 -3.42221,1.5322 -3.42221,3.4223 0,1.8901 1.53217,3.4222 3.42221,3.4222 1.89004,0 3.42225,-1.5321 3.42225,-3.4222 0,-1.8901 -1.53221,-3.4223 -3.42225,-3.4223 z"/><path id="rect846-3" fill="#000" fill-opacity="1" stroke="none" d="m -6.3109131e-6,1049.3622 0,1.0625 c 0,1.0773 0.8602200009131,1.9375 1.9375000109131,1.9375 l 44.1249993,0 c 1.07728,0 1.9375,-0.8602 1.9375,-1.9375 l 0,-1.0625 c 0,1.0773 -0.86022,1.9375 -1.9375,1.9375 l -44.1249993,0 c -1.07728001,0 -1.9375000109131,-0.8602 -1.9375000109131,-1.9375 z"/><path id="path7515-3" fill="#fff" fill-opacity=".537" stroke="none" d="m 2.5312437,1005.0185 c -0.91709,0 -1.67115001,0.6395 -1.84375001,1.5 0.33561001,-0.2799 0.77451001,-0.4375 1.25000001,-0.4375 l 44.1249993,0 c 0.47549,0 0.91439,0.1576 1.25,0.4375 -0.1726,-0.8605 -0.92666,-1.5 -1.84375,-1.5 l -42.9374993,0 z"/><path id="rect4280-2" fill="#000" fill-opacity=".392" stroke="none" d="m 1.9374937,1004.3622 c -1.07728001,0 -1.9375000109131,0.8602 -1.9375000109131,1.9375 l 0,43.0625 c 0,0.7934 0.4800200009131,1.449 1.1562500109131,1.75 -0.30934001,-0.3333 -0.50000001,-0.7824 -0.50000001,-1.2812 l 0,-42.9375 c 0,-1.0482 0.82690001,-1.875 1.87500001,-1.875 l 42.9374993,0 c 1.0481,0 1.875,0.8268 1.875,1.875 l 0,42.9375 c 0,0.4988 -0.19066,0.9479 -0.5,1.2812 0.67623,-0.301 1.15625,-0.9566 1.15625,-1.75 l 0,-43.0625 c 0,-1.0773 -0.86022,-1.9375 -1.9375,-1.9375 l -44.1249993,0 z"/><path id="path4080" fill="#2d7ce6" fill-opacity=".314" stroke="none" d="m 12.021484,11.222656 0,0.798828 23.957032,0 0,-0.798828 -23.957032,0 z m 15.441407,5.533203 c -0.0157,0.132991 -0.04102,0.263178 -0.04102,0.400391 0,1.8901 1.531835,3.421875 3.421875,3.421875 1.89004,0 3.423828,-1.531775 3.423828,-3.421875 0,-0.137213 -0.02531,-0.2674 -0.04102,-0.400391 -0.200573,1.698944 -1.62998,3.021485 -3.382812,3.021485 -1.752832,0 -3.180291,-1.322541 -3.380859,-3.021485 z m -18.8632816,21.84375 0,0.800782 30.8007816,0 0,-0.800782 -30.8007816,0 z" transform="translate(0,1004.3622)"/><path id="path4085" fill="#fff" fill-opacity=".235" stroke="none" d="m 8.5996094,8.5996094 0,0.4003906 30.8007816,0 0,-0.4003906 -30.8007816,0 z M 30.84375,13.732422 c -1.89004,0 -3.421875,1.533728 -3.421875,3.423828 0,0.06824 0.01559,0.131966 0.01953,0.199219 0.105167,-1.795473 1.580543,-3.222657 3.402344,-3.222657 1.821801,0 3.299127,1.427184 3.404297,3.222657 0.0039,-0.06725 0.01953,-0.130978 0.01953,-0.199219 0,-1.8901 -1.533788,-3.423828 -3.423828,-3.423828 z m -10.435547,4.339844 -8.363281,14.482422 -0.02344,0 0,0.40039 0.02344,0 8.363281,-14.484375 5.166016,8.951172 1.74414,-3.021484 4.939453,8.554687 3.720704,0 0,-0.40039 -3.720704,0 L 27.318359,24 l -1.74414,3.021484 -5.166016,-8.949218 z" transform="translate(0,1004.3622)"/></g></svg>