<svg xmlns="http://www.w3.org/2000/svg" xmlns:svg="http://www.w3.org/2000/svg" xmlns:xlink="http://www.w3.org/1999/xlink" id="svg2" width="48" height="48" version="1.1"><defs id="defs4"><linearGradient id="linearGradient4427"><stop id="stop4429" offset="0" stop-color="#d43526" stop-opacity="1"/><stop id="stop4431" offset="1" stop-color="#e56651" stop-opacity="1"/></linearGradient><linearGradient id="linearGradient4417"><stop id="stop4419" offset="0" stop-color="#fdb22f" stop-opacity="1"/><stop id="stop4421" offset="1" stop-color="#fdcc46" stop-opacity="1"/></linearGradient><linearGradient id="linearGradient4411"><stop id="stop4413" offset="0" stop-color="#9a2ba6" stop-opacity="1"/><stop id="stop4415" offset="1" stop-color="#d85cdf" stop-opacity="1"/></linearGradient><linearGradient id="linearGradient4390"><stop id="stop4392" offset="0" stop-color="#1866d5" stop-opacity="1"/><stop id="stop4394" offset="1" stop-color="#46a6eb" stop-opacity="1"/></linearGradient><linearGradient id="linearGradient4382"><stop id="stop4384" offset="0" stop-color="#2a6d10" stop-opacity="1"/><stop id="stop4386" offset="1" stop-color="#3d9c18" stop-opacity="1"/></linearGradient><linearGradient id="linearGradient4368"><stop id="stop4370" offset="0" stop-color="#c4cacf" stop-opacity="1"/><stop id="stop4372" offset="1" stop-color="#ecf1f6" stop-opacity="1"/></linearGradient><linearGradient id="linearGradient1620" x1="22.981" x2="22.981" y1="-1052.372" y2="-1004.412" gradientUnits="userSpaceOnUse" xlink:href="#linearGradient4252"/><linearGradient id="linearGradient4366" x1="34.5" x2="34.5" y1="1043.862" y2="1012.987" gradientUnits="userSpaceOnUse" xlink:href="#linearGradient4368"/><linearGradient id="linearGradient4388" x1="29.25" x2="29.25" y1="1041.487" y2="1034.362" gradientUnits="userSpaceOnUse" xlink:href="#linearGradient4382"/><linearGradient id="linearGradient4396" x1="11.402" x2="22.097" y1="1038.971" y2="1028.276" gradientUnits="userSpaceOnUse" xlink:href="#linearGradient4390"/><linearGradient id="linearGradient4398" x1="10.965" x2="22.341" y1="1020.799" y2="1027.367" gradientUnits="userSpaceOnUse" xlink:href="#linearGradient4411"/><linearGradient id="linearGradient4423" x1="37" x2="29.274" y1="1027.143" y2="1031.604" gradientUnits="userSpaceOnUse" xlink:href="#linearGradient4417"/><linearGradient id="linearGradient4425" x1="26.719" x2="29.306" y1="1015.331" y2="1024.988" gradientUnits="userSpaceOnUse" xlink:href="#linearGradient4427"/><linearGradient id="linearGradient4252"><stop id="stop4254" offset="0" stop-color="#e0e4eb" stop-opacity="1"/><stop id="stop4256" offset="1" stop-color="#f0f0ef" stop-opacity="1"/></linearGradient><filter id="filter3985" width="1.144" height="1.311" x="-.072" y="-.155" color-interpolation-filters="sRGB"><feGaussianBlur id="feGaussianBlur3987" stdDeviation="6.78"/></filter><filter id="filter3989" color-interpolation-filters="sRGB"><feGaussianBlur id="feGaussianBlur3991" stdDeviation="6.78"/></filter><filter id="filter3993" width="1.298" height="1.145" x="-.149" y="-.072" color-interpolation-filters="sRGB"><feGaussianBlur id="feGaussianBlur3995" stdDeviation="6.78"/></filter><filter id="filter3997" width="1.163" height="1.221" x="-.082" y="-.11" color-interpolation-filters="sRGB"><feGaussianBlur id="feGaussianBlur3999" stdDeviation="6.78"/></filter><filter id="filter4001" width="1.15" height="1.257" x="-.075" y="-.129" color-interpolation-filters="sRGB"><feGaussianBlur id="feGaussianBlur4003" stdDeviation="6.78"/></filter><filter id="filter4005" width="1.245" height="1.153" x="-.122" y="-.076" color-interpolation-filters="sRGB"><feGaussianBlur id="feGaussianBlur4007" stdDeviation="6.78"/></filter><filter id="filter4009" width="1.224" height="1.16" x="-.112" y="-.08" color-interpolation-filters="sRGB"><feGaussianBlur id="feGaussianBlur4011" stdDeviation="6.78"/></filter><filter id="filter3985-9" width="1.144" height="1.311" x="-.072" y="-.155" color-interpolation-filters="sRGB"><feGaussianBlur id="feGaussianBlur3987-0" stdDeviation="6.78"/></filter><filter id="filter3989-9" color-interpolation-filters="sRGB"><feGaussianBlur id="feGaussianBlur3991-1" stdDeviation="6.78"/></filter><filter id="filter3993-8" width="1.298" height="1.145" x="-.149" y="-.072" color-interpolation-filters="sRGB"><feGaussianBlur id="feGaussianBlur3995-4" stdDeviation="6.78"/></filter><filter id="filter3997-0" width="1.163" height="1.221" x="-.082" y="-.11" color-interpolation-filters="sRGB"><feGaussianBlur id="feGaussianBlur3999-7" stdDeviation="6.78"/></filter><filter id="filter4001-9" width="1.15" height="1.257" x="-.075" y="-.129" color-interpolation-filters="sRGB"><feGaussianBlur id="feGaussianBlur4003-7" stdDeviation="6.78"/></filter><filter id="filter4005-7" width="1.245" height="1.153" x="-.122" y="-.076" color-interpolation-filters="sRGB"><feGaussianBlur id="feGaussianBlur4007-7" stdDeviation="6.78"/></filter><filter id="filter4009-8" width="1.224" height="1.16" x="-.112" y="-.08" color-interpolation-filters="sRGB"><feGaussianBlur id="feGaussianBlur4011-6" stdDeviation="6.78"/></filter></defs><metadata id="metadata7"/><g id="layer1" transform="translate(0,-1004.3622)"><rect id="rect2991-1" width="48" height="48" x="0" y="-1052.362" fill="url(#linearGradient1620)" fill-opacity="1" stroke="none" ry="1.945" transform="scale(1,-1)"/><path id="path3544" fill="#000" stroke="none" d="M 1.945312,1004.0121 C 0.868035,1004.0121 0,1004.8801 0,1005.9574 l 0,44.1094 c 0,1.0773 0.868035,1.9453 1.945312,1.9453 l 13.988282,0 -12.863282,-48 -1.125,0 z" opacity=".02"/><path id="path3539" fill="#000" stroke="none" d="M 26.005859,1004.0121 48,1042.1078 l 0,-36.1504 c 0,-1.0773 -0.86804,-1.9453 -1.94531,-1.9453 l -20.048831,0 z" opacity=".02"/><path id="path4380" fill="#000" fill-opacity=".059" stroke="none" d="m 24,1014.1622 a 15.4,15.4 0 0 0 -15.4,15.4 15.4,15.4 0 0 0 15.4,15.4 15.4,15.4 0 0 0 15.399999,-15.4 A 15.4,15.4 0 0 0 24,1014.1622 Z m 3.37e-4,10.0997 5.572611,4.0494 -2.129036,6.5513 -6.888797,-4e-4 -2.128048,-6.5519 5.57327,-4.0484 z"/><path id="path4378" fill="#000" fill-opacity=".118" stroke="none" d="m 24,1013.7622 a 15.4,15.4 0 0 0 -15.4,15.4 15.4,15.4 0 0 0 15.4,15.4 15.4,15.4 0 0 0 15.399999,-15.4 A 15.4,15.4 0 0 0 24,1013.7622 Z m 3.37e-4,10.0997 5.572611,4.0494 -2.129036,6.5513 -6.888797,-4e-4 -2.128048,-6.5519 5.57327,-4.0484 z"/><path id="path4374" fill="#000" fill-opacity=".235" stroke="none" d="m 24,1013.3622 a 15.4,15.4 0 0 0 -15.4,15.4 15.4,15.4 0 0 0 15.4,15.4 15.4,15.4 0 0 0 15.399999,-15.4 A 15.4,15.4 0 0 0 24,1013.3622 Z m 3.37e-4,10.0997 5.572611,4.0494 -2.129036,6.5513 -6.888797,-4e-4 -2.128048,-6.5519 5.57327,-4.0484 z"/><path id="rect4280" fill="#000" fill-opacity=".392" stroke="none" d="m 1.9374998,1004.3622 c -1.07727701,0 -1.93750000510864,0.8602 -1.93750000510864,1.9375 l 0,43.0625 c 0,0.7934 0.48002399510864,1.449 1.15625000510864,1.75 -0.30934201,-0.3333 -0.50000001,-0.7824 -0.50000001,-1.2812 l 0,-42.9375 c 0,-1.0482 0.82689901,-1.875 1.87500001,-1.875 l 42.9375002,0 c 1.048101,0 1.875,0.8268 1.875,1.875 l 0,42.9375 c 0,0.4988 -0.190658,0.9479 -0.5,1.2812 0.676226,-0.301 1.15625,-0.9566 1.15625,-1.75 l 0,-43.0625 c 0,-1.0773 -0.860223,-1.9375 -1.9375,-1.9375 L 1.9374998,1004.3622 Z"/><path id="path7515" fill="#fff" fill-opacity=".537" stroke="none" d="m 2.5312498,1005.0185 c -0.917088,0 -1.67114701,0.6395 -1.84375001,1.5 0.33561201,-0.2799 0.77451201,-0.4375 1.25000001,-0.4375 l 44.1250002,0 c 0.475488,0 0.914388,0.1576 1.25,0.4375 -0.172603,-0.8605 -0.926662,-1.5 -1.84375,-1.5 L 2.5312498,1005.0185 Z"/><path id="rect846" fill="#000" fill-opacity="1" stroke="none" d="m -2.0510864e-7,1049.3622 0,1.0625 c 0,1.0773 0.86022299510864,1.9375 1.93750000510864,1.9375 l 44.1250002,0 c 1.077277,0 1.9375,-0.8602 1.9375,-1.9375 l 0,-1.0625 c 0,1.0773 -0.860223,1.9375 -1.9375,1.9375 l -44.1250002,0 C 0.86022279,1051.2997 -2.0510864e-7,1050.4395 -2.0510864e-7,1049.3622 Z"/><path id="path4281" fill="url(#linearGradient4366)" fill-opacity="1" stroke="none" d="m 24,1012.9622 a 15.4,15.4 0 0 0 -15.4,15.4 15.4,15.4 0 0 0 15.4,15.4 15.4,15.4 0 0 0 15.399999,-15.4 A 15.4,15.4 0 0 0 24,1012.9622 Z m 3.37e-4,10.0997 5.572611,4.0494 -2.129036,6.5513 -6.888797,-4e-4 -2.128048,-6.5519 5.57327,-4.0484 z"/><path id="path4310" fill="url(#linearGradient4398)" fill-opacity="1" stroke="none" d="m 16.920021,1017.4174 a 13.03726,13.03726 0 0 0 -5.957281,10.9448 13.03726,13.03726 0 0 0 0.199751,2.2612 l 10.310617,-7.5796 c 1.035196,-0.6891 0.804054,-1.4166 0.711327,-1.6913 -0.09191,-0.2372 -0.253554,-0.4505 -0.478943,-0.6072 l -4.785471,-3.3279 z"/><path id="path4314" fill="url(#linearGradient4425)" fill-opacity="1" stroke="none" d="m 24,1015.325 a 13.03726,13.03726 0 0 0 -6.180437,1.5713 l 10.560471,7.6555 c 0.971726,0.776 1.594331,0.3342 1.827761,0.1622 0.197841,-0.1598 0.351862,-0.3787 0.432466,-0.6412 l 1.747662,-5.6902 A 13.03726,13.03726 0 0 0 24,1015.325 Z"/><path id="path4302" fill="url(#linearGradient4388)" fill-opacity="1" stroke="none" d="m 22.658433,1034.2938 c -1.050806,0.032 -1.271957,0.6831 -1.354752,0.9421 -0.06665,0.2454 -0.06278,0.5131 0.02571,0.7729 l 1.821169,5.3482 a 13.03726,13.03726 0 0 0 0.849439,0.043 13.03726,13.03726 0 0 0 11.587576,-7.0899 l -12.707636,-0.014 c -0.07763,-0 -0.151453,-0 -0.221507,-0 z"/><path id="path4318" fill="url(#linearGradient4423)" fill-opacity="1" stroke="none" d="m 33.479306,1019.4235 -4.049092,11.8542 c -0.456354,1.1568 0.149021,1.6222 0.382033,1.7948 0.210856,0.1422 0.465474,0.2249 0.740004,0.2249 l 5.508006,-7e-4 a 13.03726,13.03726 0 0 0 0.977003,-4.9345 13.03726,13.03726 0 0 0 -3.557954,-8.9387 z"/><path id="path4332" fill="url(#linearGradient4396)" fill-opacity="1" stroke="none" d="m 16.863656,1027.9439 c -0.254064,0.011 -0.507887,0.096 -0.728468,0.2598 l -4.729435,3.5042 a 13.03726,13.03726 0 0 0 10.682432,9.5344 l -3.849341,-12.0834 c -0.321856,-1.2012 -1.085213,-1.215 -1.375188,-1.215 z"/><path id="path3095" fill="#dbdbdb" fill-opacity="1" fill-rule="nonzero" stroke="none" stroke-width="25" marker-mid="none" d="m 324.38759,135.62452 c -45.38059,3.2742 -125.14974,80.45343 -113.93317,80.06244 92.77726,-3.23392 150.72813,2.10512 223.11793,24.5811 10.71863,3.32799 -11.56647,-97.10992 -109.18476,-104.64354 z" display="none" enable-background="new" filter="url(#filter3985)" transform="matrix(0.08878086,0,0,0.08881664,-125.93616,1008.4792)"/><path id="path3097" fill="#dbdbdb" fill-opacity="1" fill-rule="nonzero" stroke="#000" stroke-dasharray="none" stroke-dashoffset="1" stroke-linecap="butt" stroke-linejoin="round" stroke-miterlimit="4" stroke-opacity="1" stroke-width="0" marker-mid="none" d="M 186.37822,72.150309 C 160.57833,109.62675 157.33905,256.29261 163.99898,247.2588 218.88951,172.80293 350.45207,80.852043 428.9148,43.825512 525.90264,-1.943011 243.81268,3.6410539 186.37822,72.150309 Z" display="none" enable-background="new" filter="url(#filter3989)" transform="matrix(0.08878086,0,0,0.08881664,-125.93616,1008.4792)"/><path id="path3099" fill="#dbdbdb" fill-opacity="1" fill-rule="nonzero" stroke="none" stroke-width="25" marker-mid="none" d="M 69.5521,231.67976 C 84.41923,274.68075 179.56014,331.84683 176.28962,321.11052 149.23774,232.30583 139.45061,174.93843 142.49683,99.2009 142.94789,87.986573 51.65499,135.42084 69.5521,231.67976 Z" display="none" enable-background="new" filter="url(#filter3993)" transform="matrix(0.08878086,0,0,0.08881664,-125.93616,1008.4792)"/><path id="path3101" fill="#dbdbdb" fill-opacity="1" fill-rule="nonzero" stroke="none" stroke-width="25" marker-mid="none" d="m 81.97729,372.8505 c 42.13653,17.1648 147.83895,-16.69886 137.60948,-21.31646 -84.61255,-38.1942 -134.204,-68.649 -189.1504,-120.86343 -8.1358,-7.73129 -32.64264,92.18775 51.54092,142.17989 z" display="none" enable-background="new" filter="url(#filter3997)" transform="matrix(0.08878086,0,0,0.08881664,-125.93616,1008.4792)"/><path id="path3103" fill="#dbdbdb" fill-opacity="1" fill-rule="nonzero" stroke="none" stroke-width="25" marker-mid="none" d="m 203.88504,453.62703 c 40.28664,-21.14484 82.54559,-123.77977 72.42084,-118.93689 -83.74641,40.05772 -138.99861,58.33341 -214.33707,66.67436 -11.15521,1.23503 49.42757,84.38627 141.91623,52.26253 z" display="none" enable-background="new" filter="url(#filter4001)" transform="matrix(0.08878086,0,0,0.08881664,-125.93616,1008.4792)"/><path id="path3105" fill="#dbdbdb" fill-opacity="1" fill-rule="nonzero" stroke="none" stroke-width="25" marker-mid="none" d="m 345.96158,410.03296 c 9.84126,-44.42146 -41.30053,-142.93171 -44.13379,-132.07183 -23.43513,89.82691 -45.12493,143.83025 -87.36533,206.76832 -6.25446,9.31914 96.3617,16.68976 131.49912,-74.69649 z" display="none" enable-background="new" filter="url(#filter4005)" transform="matrix(0.08878086,0,0,0.08881664,-125.93616,1008.4792)"/><path id="path3107" fill="#dbdbdb" fill-opacity="1" fill-rule="nonzero" stroke="none" stroke-width="25" marker-mid="none" d="M 401.89383,270.24178 C 374.5208,233.89852 266.4087,208.76833 272.82303,217.97814 c 53.05584,76.17847 80.01415,127.7542 100.41172,200.75689 3.02024,10.80938 75.29683,-62.40604 28.65908,-148.49325 z" display="none" enable-background="new" filter="url(#filter4009)" transform="matrix(0.08878086,0,0,0.08881664,-125.93616,1008.4792)"/><path id="path3095-7" fill="#dbdbdb" fill-opacity="1" fill-rule="nonzero" stroke="none" stroke-width="25" marker-mid="none" d="m 324.38759,135.62452 c -45.38059,3.2742 -125.14974,80.45343 -113.93317,80.06244 92.77726,-3.23392 150.72813,2.10512 223.11793,24.5811 10.71863,3.32799 -11.56647,-97.10992 -109.18476,-104.64354 z" display="none" enable-background="new" filter="url(#filter3985-9)" transform="matrix(0.08878086,0,0,0.08881664,-365.06116,985.72922)"/><path id="path3097-4" fill="#dbdbdb" fill-opacity="1" fill-rule="nonzero" stroke="#000" stroke-dasharray="none" stroke-dashoffset="1" stroke-linecap="butt" stroke-linejoin="round" stroke-miterlimit="4" stroke-opacity="1" stroke-width="0" marker-mid="none" d="M 186.37822,72.150309 C 160.57833,109.62675 157.33905,256.29261 163.99898,247.2588 218.88951,172.80293 350.45207,80.852043 428.9148,43.825512 525.90264,-1.943011 243.81268,3.6410539 186.37822,72.150309 Z" display="none" enable-background="new" filter="url(#filter3989-9)" transform="matrix(0.08878086,0,0,0.08881664,-365.06116,985.72922)"/><path id="path3099-9" fill="#dbdbdb" fill-opacity="1" fill-rule="nonzero" stroke="none" stroke-width="25" marker-mid="none" d="M 69.5521,231.67976 C 84.41923,274.68075 179.56014,331.84683 176.28962,321.11052 149.23774,232.30583 139.45061,174.93843 142.49683,99.2009 142.94789,87.986573 51.65499,135.42084 69.5521,231.67976 Z" display="none" enable-background="new" filter="url(#filter3993-8)" transform="matrix(0.08878086,0,0,0.08881664,-365.06116,985.72922)"/><path id="path3101-4" fill="#dbdbdb" fill-opacity="1" fill-rule="nonzero" stroke="none" stroke-width="25" marker-mid="none" d="m 81.97729,372.8505 c 42.13653,17.1648 147.83895,-16.69886 137.60948,-21.31646 -84.61255,-38.1942 -134.204,-68.649 -189.1504,-120.86343 -8.1358,-7.73129 -32.64264,92.18775 51.54092,142.17989 z" display="none" enable-background="new" filter="url(#filter3997-0)" transform="matrix(0.08878086,0,0,0.08881664,-365.06116,985.72922)"/><path id="path3103-3" fill="#dbdbdb" fill-opacity="1" fill-rule="nonzero" stroke="none" stroke-width="25" marker-mid="none" d="m 203.88504,453.62703 c 40.28664,-21.14484 82.54559,-123.77977 72.42084,-118.93689 -83.74641,40.05772 -138.99861,58.33341 -214.33707,66.67436 -11.15521,1.23503 49.42757,84.38627 141.91623,52.26253 z" display="none" enable-background="new" filter="url(#filter4001-9)" transform="matrix(0.08878086,0,0,0.08881664,-365.06116,985.72922)"/><path id="path3105-1" fill="#dbdbdb" fill-opacity="1" fill-rule="nonzero" stroke="none" stroke-width="25" marker-mid="none" d="m 345.96158,410.03296 c 9.84126,-44.42146 -41.30053,-142.93171 -44.13379,-132.07183 -23.43513,89.82691 -45.12493,143.83025 -87.36533,206.76832 -6.25446,9.31914 96.3617,16.68976 131.49912,-74.69649 z" display="none" enable-background="new" filter="url(#filter4005-7)" transform="matrix(0.08878086,0,0,0.08881664,-365.06116,985.72922)"/><path id="path3107-0" fill="#dbdbdb" fill-opacity="1" fill-rule="nonzero" stroke="none" stroke-width="25" marker-mid="none" d="M 401.89383,270.24178 C 374.5208,233.89852 266.4087,208.76833 272.82303,217.97814 c 53.05584,76.17847 80.01415,127.7542 100.41172,200.75689 3.02024,10.80938 75.29683,-62.40604 28.65908,-148.49325 z" display="none" enable-background="new" filter="url(#filter4009-8)" transform="matrix(0.08878086,0,0,0.08881664,-365.06116,985.72922)"/></g></svg>