<svg xmlns="http://www.w3.org/2000/svg" xmlns:svg="http://www.w3.org/2000/svg" xmlns:xlink="http://www.w3.org/1999/xlink" id="svg2" width="48" height="48" version="1.1"><defs id="defs4"><linearGradient id="linearGradient870" x1="20.25" x2="20.25" y1="-1053.362" y2="-1004.112" gradientUnits="userSpaceOnUse" xlink:href="#linearGradient3356-6"/><linearGradient id="linearGradient891" x1="23" x2="23" y1="1044.612" y2="1012.362" gradientTransform="matrix(0.9625012,0,0,0.9625012,0.8999709,38.56237)" gradientUnits="userSpaceOnUse" xlink:href="#linearGradient4216"/><linearGradient id="linearGradient4216"><stop id="stop4218" offset="0" stop-color="#fadfbe" stop-opacity="1"/><stop id="stop4220" offset="1" stop-color="#fffaf5" stop-opacity="1"/></linearGradient><linearGradient id="linearGradient3356-6"><stop id="stop3358-9" offset="0" stop-color="#ed9223" stop-opacity="1"/><stop id="stop3360-6" offset="1" stop-color="#f9a847" stop-opacity="1"/></linearGradient></defs><metadata id="metadata7"/><g id="layer1" transform="translate(0,-1004.3622)"><rect id="rect2991-1" width="48" height="48" x="0" y="-1052.362" fill="url(#linearGradient870)" fill-opacity="1" stroke="none" ry="1.945" transform="scale(1,-1)"/><path d="m 24.000005,1014.1622 c -3.398899,0 -6.129614,2.7302 -6.129614,6.1294 0,3.3993 2.730715,6.1798 6.129614,6.1798 3.398889,0 6.129604,-2.7805 6.129604,-6.1798 C 30.129609,1016.8924 27.398894,1014.1622 24.000005,1014.1622 z m -5.673692,15.1461 c -2.919155,0 -5.268428,2.35 -5.268428,5.2691 l 0,2.4309 0,1.0645 0,6.8894 21.88423,0 0,-6.8894 0,-1.0645 0,-2.4309 c 0,-2.9191 -2.349273,-5.2691 -5.268419,-5.2691 L 18.326313,1029.3083 Z" style="marker:none" id="path4060" fill="#000" fill-opacity=".059" fill-rule="nonzero" stroke="none" stroke-width="1.4" color="#000" display="inline" enable-background="accumulate" overflow="visible" visibility="visible"/><path id="path4058" fill="#000" fill-opacity=".118" fill-rule="nonzero" stroke="none" stroke-width="1.4" d="m 24.000005,1013.7622 c -3.398899,0 -6.129614,2.7302 -6.129614,6.1294 0,3.3993 2.730715,6.1798 6.129614,6.1798 3.398889,0 6.129604,-2.7805 6.129604,-6.1798 C 30.129609,1016.4924 27.398894,1013.7622 24.000005,1013.7622 z m -5.673692,15.1461 c -2.919155,0 -5.268428,2.35 -5.268428,5.2691 l 0,2.4309 0,1.0645 0,6.8894 21.88423,0 0,-6.8894 0,-1.0645 0,-2.4309 c 0,-2.9191 -2.349273,-5.2691 -5.268419,-5.2691 L 18.326313,1028.9083 Z" color="#000" display="inline" enable-background="accumulate" overflow="visible" visibility="visible" style="marker:none"/><path id="rect846" fill="#000" fill-opacity="1" stroke="none" d="m -2.3162843e-8,1049.3622 0,1.0625 c 0,1.0773 0.860222903162843,1.9375 1.937499923162843,1.9375 l 44.1250001,0 c 1.077277,0 1.9375,-0.8602 1.9375,-1.9375 l 0,-1.0625 c 0,1.0773 -0.860223,1.9375 -1.9375,1.9375 l -44.1250001,0 C 0.86022288,1051.2997 -2.3162843e-8,1050.4395 -2.3162843e-8,1049.3622 Z"/><path id="path7515" fill="#fff" fill-opacity=".537" stroke="none" d="m 2.5312499,1005.0185 c -0.9170884,0 -1.67114672,0.6395 -1.84374992,1.5 0.33561202,-0.2799 0.77451212,-0.4375 1.24999992,-0.4375 l 44.1250001,0 c 0.475488,0 0.914388,0.1576 1.25,0.4375 -0.172603,-0.8605 -0.926662,-1.5 -1.84375,-1.5 L 2.5312499,1005.0185 Z"/><path id="rect4280" fill="#000" fill-opacity=".392" stroke="none" d="m 1.9374999,1004.3622 c -1.07727692,0 -1.937499923162843,0.8602 -1.937499923162843,1.9375 l 0,43.0625 c 0,0.7934 0.480023603162843,1.449 1.156249923162843,1.75 -0.30934162,-0.3333 -0.49999992,-0.7824 -0.49999992,-1.2812 l 0,-42.9375 c 0,-1.0482 0.82689892,-1.875 1.87499992,-1.875 l 42.9375001,0 c 1.048101,0 1.875,0.8268 1.875,1.875 l 0,42.9375 c 0,0.4988 -0.190658,0.9479 -0.5,1.2812 0.676226,-0.301 1.15625,-0.9566 1.15625,-1.75 l 0,-43.0625 c 0,-1.0773 -0.860223,-1.9375 -1.9375,-1.9375 L 1.9374999,1004.3622 Z"/><path d="m 24.000005,1013.3622 c -3.398899,0 -6.129614,2.7302 -6.129614,6.1294 0,3.3993 2.730715,6.1798 6.129614,6.1798 3.398889,0 6.129604,-2.7805 6.129604,-6.1798 C 30.129609,1016.0924 27.398894,1013.3622 24.000005,1013.3622 z m -5.673692,15.1461 c -2.919155,0 -5.268428,2.35 -5.268428,5.2691 l 0,2.4309 0,1.0645 0,6.8894 21.88423,0 0,-6.8894 0,-1.0645 0,-2.4309 c 0,-2.9191 -2.349273,-5.2691 -5.268419,-5.2691 L 18.326313,1028.5083 Z" style="marker:none" id="path4056" fill="#000" fill-opacity=".235" fill-rule="nonzero" stroke="none" stroke-width="1.4" color="#000" display="inline" enable-background="accumulate" overflow="visible" visibility="visible"/><path id="rect3973" fill="url(#linearGradient891)" fill-opacity="1" fill-rule="nonzero" stroke="none" stroke-width="1.4" d="m 24.000005,1012.9622 c -3.398899,0 -6.129614,2.7302 -6.129614,6.1294 0,3.3993 2.730715,6.1798 6.129614,6.1798 3.398889,0 6.129604,-2.7805 6.129604,-6.1798 C 30.129609,1015.6924 27.398894,1012.9622 24.000005,1012.9622 z m -5.673692,15.1461 c -2.919155,0 -5.268428,2.35 -5.268428,5.2691 l 0,2.4309 0,1.0645 0,6.8894 21.88423,0 0,-6.8894 0,-1.0645 0,-2.4309 c 0,-2.9191 -2.349273,-5.2691 -5.268419,-5.2691 L 18.326313,1028.1083 Z" color="#000" display="inline" enable-background="accumulate" overflow="visible" visibility="visible" style="marker:none"/><path id="path4062" fill="#ed9324" fill-opacity=".314" fill-rule="nonzero" stroke="none" stroke-width="1.4" d="m 17.890625,1018.6899 c -0.0085,0.133 -0.01953,0.2652 -0.01953,0.4004 0,3.3993 2.730007,6.1817 6.128906,6.1817 3.398889,0 6.128906,-2.7824 6.128906,-6.1817 0,-0.1352 -0.01102,-0.2674 -0.01953,-0.4004 -0.204577,3.2144 -2.845065,5.7813 -6.109375,5.7813 C 20.73568,1024.4712 18.095202,1021.9043 17.890625,1018.6899 z m -4.832031,24.2715 0,0.8008 21.882812,0 0,-0.8008 L 13.058594,1042.9614 Z" color="#000" display="inline" enable-background="accumulate" overflow="visible" visibility="visible" style="marker:none"/><path id="path4067" fill="#fff" fill-opacity="1" fill-rule="nonzero" stroke="none" stroke-width="1.4" d="m 24,1012.9622 c -3.398899,0 -6.128906,2.7297 -6.128906,6.1289 0,0.068 0.0076,0.1339 0.0098,0.2012 0.10519,-3.3052 2.787532,-5.9297 6.119141,-5.9297 3.3316,0 6.013951,2.6245 6.119141,5.9297 0.0022,-0.067 0.0098,-0.1334 0.0098,-0.2012 C 30.128906,1015.6919 27.398889,1012.9622 24,1012.9622 z m -5.673828,15.1465 c -2.919155,0 -5.267578,2.3504 -5.267578,5.2695 l 0,0.4004 c 0,-2.9191 2.348423,-5.2695 5.267578,-5.2695 l 11.347656,0 c 2.919146,0 5.267578,2.3504 5.267578,5.2695 l 0,-0.4004 c 0,-2.9191 -2.348432,-5.2695 -5.267578,-5.2695 L 18.326172,1028.1087 Z" color="#000" display="inline" enable-background="accumulate" overflow="visible" visibility="visible" style="marker:none"/></g></svg>