<svg xmlns="http://www.w3.org/2000/svg" xmlns:svg="http://www.w3.org/2000/svg" xmlns:xlink="http://www.w3.org/1999/xlink" id="svg5453" width="48" height="48" version="1.1"><defs id="defs5455"><linearGradient id="linearGradient1520"><stop id="stop1522" offset="0" stop-color="#000" stop-opacity="1"/><stop id="stop1524" offset="1" stop-color="#000" stop-opacity="0"/></linearGradient><linearGradient id="linearGradient1500"><stop id="stop1502" offset="0" stop-color="#595959" stop-opacity="1"/><stop id="stop1504" offset="1" stop-color="#ccc" stop-opacity="1"/></linearGradient><linearGradient id="linearGradient1381"><stop id="stop1383" offset="0" stop-color="#f1ece3" stop-opacity="1"/><stop id="stop1385" offset="1" stop-color="#f8f8f6" stop-opacity="1"/></linearGradient><linearGradient id="linearGradient1387" x1="407.828" x2="407.828" y1="-547.783" y2="-499.762" gradientUnits="userSpaceOnUse" xlink:href="#linearGradient1381"/><linearGradient id="linearGradient2193" x1="26.937" x2="26.937" y1="8.69" y2="1.94" gradientUnits="userSpaceOnUse" xlink:href="#linearGradient2186"/><linearGradient id="linearGradient2186"><stop id="stop2189" offset="0" stop-color="#a00" stop-opacity="1"/><stop id="stop2191" offset="1" stop-color="#d40000" stop-opacity="1"/></linearGradient><linearGradient id="linearGradient2203" x1="26.875" x2="26.875" y1="1.659" y2="8.188" gradientUnits="userSpaceOnUse" xlink:href="#linearGradient2197"/><linearGradient id="linearGradient2197"><stop id="stop2199" offset="0" stop-color="#fff" stop-opacity="1"/><stop id="stop2201" offset="1" stop-color="#fff" stop-opacity="0"/></linearGradient><linearGradient id="linearGradient2207" x1="26.875" x2="26.875" y1="-.728" y2="8.188" gradientUnits="userSpaceOnUse" xlink:href="#linearGradient2197"/><linearGradient id="linearGradient2219" x1="26.871" x2="26.871" y1="5.335" y2="2.847" gradientTransform="matrix(0.83222789,0,0,0.26503558,1.6338769,1012.6852)" gradientUnits="userSpaceOnUse" xlink:href="#linearGradient2224"/><linearGradient id="linearGradient2224"><stop id="stop2226" offset="0" stop-color="#ed4e4e" stop-opacity="1"/><stop id="stop2228" offset="1" stop-color="#c22323" stop-opacity="0"/></linearGradient><linearGradient id="linearGradient1506" x1="369.662" x2="368.043" y1="500.599" y2="500.599" gradientTransform="matrix(1.0384994,0,0,1.0384994,25.420773,6.0708539)" gradientUnits="userSpaceOnUse" xlink:href="#linearGradient1500"/><radialGradient id="radialGradient1526" cx="24" cy="28.5" r="9.313" fx="24" fy="28.5" gradientTransform="matrix(1.1153445,0,0,1.1153445,381.80317,496.10542)" gradientUnits="userSpaceOnUse" xlink:href="#linearGradient1520"/></defs><metadata id="metadata5458"/><g id="layer1" transform="translate(-384.57143,-499.798)"><rect id="rect2991-1-7" width="48" height="48" x="384.571" y="-547.798" fill="url(#linearGradient1387)" fill-opacity="1" stroke="none" ry="1.945" transform="scale(1,-1)"/><path id="rect1389" fill="#4db844" fill-opacity="1" stroke="none" d="M 9.25 0 L 9.25 48 L 18.3125 48 L 18.3125 0 L 9.25 0 z" transform="translate(384.57143,499.798)"/><path id="rect1393" fill="#a6e288" fill-opacity="1" stroke="none" d="M 9.84375 0 L 9.84375 48 L 17.71875 48 L 17.71875 0 L 9.84375 0 z" transform="translate(384.57143,499.798)"/><path id="rect1395" fill="#d1a934" fill-opacity="1" stroke="none" d="M 0 9.375 L 0 18.46875 L 48 18.46875 L 48 9.375 L 0 9.375 z" transform="translate(384.57143,499.798)"/><path id="rect1397" fill="#ffcd51" fill-opacity="1" stroke="none" d="M 0 10 L 0 17.84375 L 48 17.84375 L 48 10 L 0 10 z" transform="translate(384.57143,499.798)"/><path id="rect1399" fill="#e4e0d7" fill-opacity="1" stroke="none" d="M 39.96875 0 L 12.25 48 L 16.34375 48 L 44.0625 0 L 39.96875 0 z" transform="translate(384.57143,499.798)"/><path id="rect1401" fill="#fff" fill-opacity="1" stroke="none" d="M 40.4375 0 L 12.75 48 L 15.8125 48 L 43.53125 0 L 40.4375 0 z" transform="translate(384.57143,499.798)"/><path id="rect1403" fill="#e4e0d7" fill-opacity="1" stroke="none" d="M 0 31.15625 L 0 34.6875 L 48 34.6875 L 48 31.15625 L 0 31.15625 z" transform="translate(384.57143,499.798)"/><path id="rect1405" fill="#fff" fill-opacity="1" stroke="none" d="M 0 31.59375 L 0 34.25 L 48 34.25 L 48 31.59375 L 0 31.59375 z" transform="translate(384.57143,499.798)"/><path id="rect1407" fill="#e4e0d7" fill-opacity="1" stroke="none" d="M 0 19.5 L 0 23 L 48 23 L 48 19.5 L 0 19.5 z" transform="translate(384.57143,499.798)"/><path id="rect1409" fill="#fff" fill-opacity="1" stroke="none" d="M 0 19.90625 L 0 22.59375 L 48 22.59375 L 48 19.90625 L 0 19.90625 z" transform="translate(384.57143,499.798)"/><path id="rect846" fill="#000" fill-opacity="1" stroke="none" d="m 384.57143,544.79799 0,1.0625 c 0,1.0773 0.86022,1.9375 1.9375,1.9375 l 44.125,0 c 1.07728,0 1.9375,-0.8602 1.9375,-1.9375 l 0,-1.0625 c 0,1.0773 -0.86022,1.9375 -1.9375,1.9375 l -44.125,0 C 385.43165,546.73549 384.57143,545.87529 384.57143,544.79799 Z"/><path id="path7515" fill="#fff" fill-opacity=".537" stroke="none" d="m 387.10268,500.45429 c -0.91709,0 -1.67115,0.6395 -1.84375,1.5 0.33561,-0.2799 0.77451,-0.4375 1.25,-0.4375 l 44.125,0 c 0.47549,0 0.91439,0.1576 1.25,0.4375 -0.1726,-0.8605 -0.92666,-1.5 -1.84375,-1.5 L 387.10268,500.45429 Z"/><path id="rect4280" fill="#000" fill-opacity=".392" stroke="none" d="m 386.50893,499.79799 c -1.07728,0 -1.9375,0.8602 -1.9375,1.9375 l 0,43.0625 c 0,0.7934 0.48002,1.449 1.15625,1.75 -0.30934,-0.3333 -0.5,-0.7824 -0.5,-1.2812 l 0,-42.9375 c 0,-1.0482 0.8269,-1.875 1.875,-1.875 l 42.9375,0 c 1.0481,0 1.875,0.8268 1.875,1.875 l 0,42.9375 c 0,0.4988 -0.19066,0.9479 -0.5,1.2812 0.67623,-0.301 1.15625,-0.9566 1.15625,-1.75 l 0,-43.0625 c 0,-1.0773 -0.86022,-1.9375 -1.9375,-1.9375 L 386.50893,499.79799 Z"/><path id="path1513" fill="#1c94eb" fill-opacity=".537" stroke="none" d="m 29.75,29.3125 a 9.3125,9.3125 0 1 1 -18.625,0 A 9.3125,9.3125 0 1 1 29.75,29.3125 Z" transform="matrix(1.1153445,0,0,1.1153445,385.77658,495.19922)"/><path id="path1515" fill="url(#radialGradient1526)" fill-opacity="1" stroke="none" d="m 408.57143,517.5061 c -5.73639,0 -10.38665,4.65026 -10.38665,10.38666 0,5.73638 4.65026,10.38663 10.38665,10.38663 5.73639,0 10.38665,-4.65025 10.38665,-10.38663 C 418.95808,522.15636 414.30782,517.5061 408.57143,517.5061 z m 0,1.11536 c 5.12041,0 9.2713,4.15089 9.2713,9.2713 0,5.12038 -4.15089,9.27127 -9.2713,9.27127 -5.12039,0 -9.2713,-4.15089 -9.2713,-9.27127 C 399.30013,522.77235 403.45104,518.62146 408.57143,518.62146 Z"/><path id="path1528" fill="#0c75e1" fill-opacity="1" stroke="none" d="m 408.57143,517.5061 c -5.73639,0 -10.38665,4.65026 -10.38665,10.38666 0,5.73638 4.65026,10.38663 10.38665,10.38663 5.73639,0 10.38665,-4.65025 10.38665,-10.38663 C 418.95808,522.15636 414.30782,517.5061 408.57143,517.5061 z m 0,1.11536 c 5.12041,0 9.2713,4.15089 9.2713,9.2713 0,5.12038 -4.15089,9.27127 -9.2713,9.27127 -5.12039,0 -9.2713,-4.15089 -9.2713,-9.27127 C 399.30013,522.77235 403.45104,518.62146 408.57143,518.62146 Z"/><rect id="rect1496" width="2.596" height="15.707" x="407.273" y="515.494" fill="#212f3c" fill-opacity=".412" stroke="none" ry="1.298"/><rect id="rect1498" width="1.91" height="15.271" x="407.617" y="515.552" fill="url(#linearGradient1506)" fill-opacity="1" stroke="none" ry=".955"/><path id="rect1508" fill="#fff" fill-opacity=".292" stroke="none" d="m 409.05822,515.69939 c 0.15418,0.16945 0.25962,0.40084 0.25962,0.64905 l 0,13.37068 c 0,0.52897 -0.41217,0.94114 -0.94114,0.94114 -0.13224,0 -0.27512,-0.0168 -0.38944,-0.0649 0.16299,0.12971 0.35872,0.22717 0.58416,0.22717 0.52897,0 0.94114,-0.41217 0.94114,-0.94114 l 0,-13.37068 C 409.51256,516.16454 409.33251,515.86678 409.05822,515.69939 Z"/><path id="path1556" fill="#000" fill-opacity=".234" stroke="none" d="m 408.57143,518.58882 c -5.12039,0 -9.25427,4.17291 -9.25427,9.2933 0,0.0933 -0.002,0.18083 0,0.27335 0.12672,-5.01 4.21373,-9.01998 9.25427,-9.01998 5.04054,0 9.12755,4.00998 9.25427,9.01998 0.002,-0.0925 0,-0.18017 0,-0.27335 C 417.8257,522.76173 413.69184,518.58882 408.57143,518.58882 z m -10.34759,10.34759 c 0.28836,5.47842 4.79734,9.83998 10.34759,9.83998 5.55025,0 10.05924,-4.36156 10.34759,-9.83998 -0.53189,5.23753 -4.96974,9.33237 -10.34759,9.33237 C 403.19358,538.26878 398.75573,534.17394 398.22384,528.93641 Z"/><path id="path1561" fill="#000" fill-opacity=".118" stroke="none" d="m 408.57143,519.09962 c -5.12039,0 -9.25427,4.17291 -9.25427,9.29331 0,0.0933 -0.002,0.18081 0,0.27334 0.12672,-5.01002 4.21373,-9.01999 9.25427,-9.01999 5.04054,0 9.12755,4.00997 9.25427,9.01999 0.002,-0.0924 0,-0.18016 0,-0.27334 C 417.8257,523.27253 413.69184,519.09962 408.57143,519.09962 z m -10.34759,10.3476 c 0.28836,5.47841 4.79734,9.83998 10.34759,9.83998 5.55025,0 10.05924,-4.36157 10.34759,-9.83998 -0.53189,5.23754 -4.96974,9.33236 -10.34759,9.33236 C 403.19358,538.77958 398.75573,534.68476 398.22384,529.44722 Z"/><path id="path1563" fill="#000" fill-opacity=".059" stroke="none" d="m 408.57143,519.61043 c -5.12039,0 -9.25427,4.17292 -9.25427,9.2933 0,0.0933 -0.002,0.18081 0,0.27333 0.12672,-5.01 4.21373,-9.01998 9.25427,-9.01998 5.04054,0 9.12755,4.00998 9.25427,9.01998 0.002,-0.0925 0,-0.18015 0,-0.27333 C 417.8257,523.78335 413.69184,519.61043 408.57143,519.61043 z m -10.34759,10.34759 c 0.28836,5.47842 4.79734,9.83998 10.34759,9.83998 5.55025,0 10.05924,-4.36156 10.34759,-9.83998 -0.53189,5.23752 -4.96974,9.33237 -10.34759,9.33237 C 403.19358,539.29039 398.75573,535.19554 398.22384,529.95802 Z"/><g id="g2262" transform="matrix(2.0818241,0,0,2.081679,358.60764,-1587.9382)"><path id="path2233" fill="#000" fill-opacity=".31" d="m 24,1007.2059 c -1.946805,0 -3.531251,1.5845 -3.531251,3.5313 0,1.9468 1.584446,3.5312 3.531251,3.5312 1.946805,0 3.531251,-1.5844 3.531251,-3.5312 C 27.531251,1008.7904 25.946805,1007.2059 24,1007.2059 z m 0,0.1562 c 1.863962,0 3.375001,1.5112 3.375001,3.3751 0,1.864 -1.511039,3.375 -3.375001,3.375 -1.863962,0 -3.375001,-1.511 -3.375001,-3.375 C 20.624999,1008.8733 22.136038,1007.3621 24,1007.3621 Z"/><path id="path1384" fill="url(#linearGradient2193)" fill-opacity="1" d="m 30.249998,5.2500019 c 0,1.8639609 -1.511039,3.3749998 -3.375,3.3749998 -1.863961,0 -3.375,-1.5110389 -3.375,-3.3749998 0,-1.8639609 1.511039,-3.3749998 3.375,-3.3749998 C 28.738959,1.8750021 30.249998,3.386041 30.249998,5.2500019 Z" transform="translate(-2.8749981,1005.4843)"/><path id="path2195" fill="url(#linearGradient2203)" fill-opacity="1" d="m 30.249998,5.2500019 c 0,1.8639609 -1.511039,3.3749998 -3.375,3.3749998 -1.863961,0 -3.375,-1.5110389 -3.375,-3.3749998 0,-1.8639609 1.511039,-3.3749998 3.375,-3.3749998 C 28.738959,1.8750021 30.249998,3.386041 30.249998,5.2500019 Z" opacity=".628" transform="matrix(0.86921993,0,0,0.75715599,0.63971609,1006.1662)"/><path id="path2205" fill="url(#linearGradient2207)" fill-opacity="1" d="m 30.249998,5.2500019 c 0,1.8639609 -1.511039,3.3749998 -3.375,3.3749998 -1.863961,0 -3.375,-1.5110389 -3.375,-3.3749998 0,-1.8639609 1.511039,-3.3749998 3.375,-3.3749998 C 28.738959,1.8750021 30.249998,3.386041 30.249998,5.2500019 Z" opacity=".62" transform="matrix(0.71306674,0,0,0.60363331,4.8363326,1006.4541)"/><path id="path2209" fill="url(#linearGradient2219)" fill-opacity="1" d="m 24,1013.206 c -0.771173,0 -1.459479,0.095 -1.968751,0.25 0.556104,0.4034 1.229198,0.6562 1.968751,0.6562 0.739553,0 1.412647,-0.2528 1.968751,-0.6562 C 25.459479,1013.3001 24.771173,1013.206 24,1013.206 Z"/><path id="path2256" fill="#000" fill-opacity=".118" d="m 24,1007.0529 c -2.029644,0 -3.681499,1.6523 -3.681499,3.6813 0,2.0291 1.651855,3.6815 3.681499,3.6815 2.029644,0 3.681499,-1.6524 3.681499,-3.6815 C 27.681499,1008.7052 26.029644,1007.0529 24,1007.0529 z m 0,0.1629 c 1.943276,0 3.518595,1.5754 3.518595,3.5184 0,1.9432 -1.575319,3.5185 -3.518595,3.5185 -1.943276,0 -3.518595,-1.5753 -3.518595,-3.5185 C 20.481405,1008.7912 22.056724,1007.2158 24,1007.2158 Z"/><path id="path2258" fill="#000" fill-opacity=".059" d="m 24,1006.9028 c -2.11234,0 -3.8315,1.7196 -3.8315,3.8314 0,2.1119 1.71916,3.8316 3.8315,3.8316 2.11234,0 3.8315,-1.7197 3.8315,-3.8316 C 27.8315,1008.6224 26.11234,1006.9028 24,1006.9028 z m 0,0.1696 c 2.022452,0 3.661958,1.6394 3.661958,3.6618 0,2.0224 -1.639506,3.6619 -3.661958,3.6619 -2.022452,0 -3.661958,-1.6395 -3.661958,-3.6619 C 20.338042,1008.7118 21.977548,1007.0724 24,1007.0724 Z"/><path id="path2260" fill="#000" fill-opacity=".024" d="m 24,1006.7528 c -2.195034,0 -3.9815,1.7868 -3.9815,3.9814 0,2.1947 1.786466,3.9816 3.9815,3.9816 2.195034,0 3.9815,-1.7869 3.9815,-3.9816 C 27.9815,1008.5396 26.195034,1006.7528 24,1006.7528 z m 0,0.1761 c 2.101628,0 3.805323,1.7037 3.805323,3.8053 0,2.1016 -1.703695,3.8053 -3.805323,3.8053 -2.101628,0 -3.805323,-1.7037 -3.805323,-3.8053 C 20.194677,1008.6326 21.898372,1006.9289 24,1006.9289 Z"/></g></g></svg>