<svg xmlns="http://www.w3.org/2000/svg" xmlns:svg="http://www.w3.org/2000/svg" xmlns:xlink="http://www.w3.org/1999/xlink" id="svg2" width="48" height="48" version="1.1"><defs id="defs4"><linearGradient id="linearGradient3700-8"><stop id="stop3702-1" offset="0" stop-color="#2e4f84" stop-opacity="1"/><stop id="stop3704-8" offset="1" stop-color="#4c77c5" stop-opacity="1"/></linearGradient><linearGradient id="linearGradient835" x1="86.75" x2="86.75" y1="-1080.12" y2="-1032.104" gradientTransform="translate(-62.749998,27.749991)" gradientUnits="userSpaceOnUse" xlink:href="#linearGradient3700-8"/><linearGradient id="linearGradient4077" x1="33.954" x2="33.954" y1="1044.369" y2="1013.275" gradientTransform="matrix(0.99113594,0,0,0.99113594,5.5933018,8.6447747)" gradientUnits="userSpaceOnUse" xlink:href="#linearGradient838"/><linearGradient id="linearGradient838"><stop id="stop840" offset="0" stop-color="#c1c8d5" stop-opacity="1"/><stop id="stop842" offset="1" stop-color="#f4f5f7" stop-opacity="1"/></linearGradient></defs><metadata id="metadata7"/><g id="layer1" transform="translate(0,-1004.3622)"><rect id="rect2991-1" width="48" height="48" x="0" y="-1052.362" fill="url(#linearGradient835)" fill-opacity="1" stroke="none" ry="1.945" transform="scale(1,-1)"/><path id="path4058" fill="#000" fill-opacity=".059" d="m 39.905181,1044.9622 -6.737079,0 0,-14.4958 -3.623528,0 0,-5.8865 3.623528,0 0,-3.1071 c 0,-4.5845 1.900223,-7.3106 7.300414,-7.3106 l 4.496149,0 0,5.6205 -2.81028,0 c -2.102538,0 -2.240929,0.7853 -2.240929,2.2514 l -0.0083,2.5458 5.091071,0 -0.595676,5.8865 L 39.905181,1030.4664 Z"/><path id="rect846" fill="#000" fill-opacity="1" stroke="none" d="m -2e-6,1049.3622 0,1.0625 c 0,1.0773 0.860223,1.9375 1.9375,1.9375 l 44.125004,0 c 1.07727,0 1.9375,-0.8602 1.9375,-1.9375 l 0,-1.0625 c 0,1.0773 -0.86023,1.9375 -1.9375,1.9375 l -44.125004,0 C 0.860221,1051.2997 -2e-6,1050.4395 -2e-6,1049.3622 Z"/><path id="path7515" fill="#fff" fill-opacity=".537" stroke="none" d="m 2.531248,1005.0185 c -0.917089,0 -1.671147,0.6395 -1.84375,1.5 0.335612,-0.2799 0.774512,-0.4375 1.25,-0.4375 l 44.125004,0 c 0.47548,0 0.91438,0.1576 1.25,0.4375 -0.17261,-0.8605 -0.92667,-1.5 -1.84375,-1.5 L 2.531248,1005.0185 Z"/><path id="rect4280-6" fill="#000" fill-opacity=".392" stroke="none" d="m 1.937498,1004.3622 c -1.077277,0 -1.9375,0.8602 -1.9375,1.9375 l 0,43.0625 c 0,0.7934 0.480023,1.449 1.15625,1.75 -0.309342,-0.3333 -0.5,-0.7824 -0.5,-1.2812 l 0,-42.9375 c 0,-1.0482 0.826899,-1.875 1.875,-1.875 l 42.937504,0 c 1.0481,0 1.875,0.8268 1.875,1.875 l 0,42.9375 c 0,0.4988 -0.19066,0.9479 -0.5,1.2812 0.67622,-0.301 1.15625,-0.9566 1.15625,-1.75 l 0,-43.0625 c 0,-1.0773 -0.86023,-1.9375 -1.9375,-1.9375 L 1.937498,1004.3622 Z"/><path id="path4056" fill="#000" fill-opacity=".118" d="m 39.905181,1044.5622 -6.737079,0 0,-14.4958 -3.623528,0 0,-5.8865 3.623528,0 0,-3.1071 c 0,-4.5845 1.900223,-7.3106 7.300414,-7.3106 l 4.496149,0 0,5.6205 -2.81028,0 c -2.102538,0 -2.240929,0.7853 -2.240929,2.2514 l -0.0083,2.5458 5.091071,0 -0.595676,5.8865 L 39.905181,1030.0664 Z"/><path id="path4052" fill="#000" fill-opacity=".235" d="m 39.905181,1044.1622 -6.737079,0 0,-14.4958 -3.623528,0 0,-5.8865 3.623528,0 0,-3.1071 c 0,-4.5845 1.900223,-7.3106 7.300414,-7.3106 l 4.496149,0 0,5.6205 -2.81028,0 c -2.102538,0 -2.240929,0.7853 -2.240929,2.2514 l -0.0083,2.5458 5.091071,0 -0.595676,5.8865 L 39.905181,1029.6664 Z"/><path id="path826" fill="url(#linearGradient4077)" fill-opacity="1" d="m 39.905181,1043.7622 -6.737079,0 0,-14.4958 -3.623528,0 0,-5.8865 3.623528,0 0,-3.1071 c 0,-4.5845 1.900223,-7.3106 7.300414,-7.3106 l 4.496149,0 0,5.6205 -2.81028,0 c -2.102538,0 -2.240929,0.7853 -2.240929,2.2514 l -0.0083,2.5458 5.091071,0 -0.595676,5.8865 L 39.905181,1029.2664 Z"/><path id="path4060" fill="#fff" fill-opacity=".314" d="m 40.463169,1012.9622 c -5.224962,0 -7.144363,2.5435 -7.26531,6.8617 0.228541,-4.0771 2.202629,-6.4581 7.26531,-6.4581 l 4.502009,0 0,-0.4036 L 40.463169,1012.9622 z m -10.929013,10.4323 0,0.3726 3.632655,0 0,-0.3726 L 29.534156,1023.3945 z m 10.370142,0 0,0.3726 5.060879,0 0.03105,-0.3726 L 39.904298,1023.3945 Z"/><path id="path4047" fill="#2e5085" fill-opacity=".314" d="m 42.154297,1017.7817 c -2.102538,0 -2.240234,0.7859 -2.240235,2.252 l -0.0098,2.5449 0.0039,0 0.0059,-1.7441 c 10e-7,-1.4661 0.137697,-2.252 2.240235,-2.252 l 2.810547,0 0,-0.8008 L 42.154297,1017.7817 z m 2.761719,5.5977 -0.515625,5.0859 -4.496094,0 0,0.8008 4.496094,0 0.595703,-5.8867 L 44.916016,1023.3794 z m -15.371094,5.0859 0,0.8008 3.623047,0 0,-0.8008 L 29.544922,1028.4653 z m 3.623047,14.4961 0,0.8008 6.736328,0 0,-0.8008 L 33.167969,1042.9614 Z"/></g></svg>