<svg xmlns="http://www.w3.org/2000/svg" xmlns:svg="http://www.w3.org/2000/svg" xmlns:xlink="http://www.w3.org/1999/xlink" id="svg2" width="48" height="48" version="1.1"><defs id="defs4"><linearGradient id="linearGradient2016"><stop id="stop2018" offset="0" stop-color="#6fa800" stop-opacity="1"/><stop id="stop2020" offset="1" stop-color="#d8ff3c" stop-opacity=".957"/></linearGradient><linearGradient id="linearGradient2006"><stop id="stop2008" offset="0" stop-color="#a81700" stop-opacity="1"/><stop id="stop2010" offset="1" stop-color="#ff3c3c" stop-opacity=".957"/></linearGradient><linearGradient id="linearGradient1996"><stop id="stop1998" offset="0" stop-color="#0080a8" stop-opacity="1"/><stop id="stop2000" offset="1" stop-color="#3cc0ff" stop-opacity=".957"/></linearGradient><linearGradient id="linearGradient1986"><stop id="stop1988" offset="0" stop-color="#1f2227" stop-opacity="1"/><stop id="stop1990" offset="1" stop-color="#787c86" stop-opacity=".293"/></linearGradient><linearGradient id="linearGradient1968"><stop id="stop1970" offset="0" stop-color="#a84400" stop-opacity="1"/><stop id="stop1972" offset="1" stop-color="#ff8a3c" stop-opacity=".957"/></linearGradient><linearGradient id="linearGradient1873"><stop id="stop1875" offset="0" stop-color="#000" stop-opacity="1"/><stop id="stop1877" offset="1" stop-color="#000" stop-opacity="0"/></linearGradient><linearGradient id="linearGradient1723"><stop id="stop1725" offset="0" stop-color="#fff" stop-opacity="1"/><stop id="stop1727" offset="1" stop-color="#fff" stop-opacity="0"/></linearGradient><linearGradient id="linearGradient1713"><stop id="stop1715" offset="0" stop-color="#7a7f86" stop-opacity="1"/><stop id="stop1717" offset="1" stop-color="#292e33" stop-opacity="1"/></linearGradient><linearGradient id="linearGradient1663"><stop id="stop1665" offset="0" stop-color="#1f2227" stop-opacity="1"/><stop id="stop1667" offset="1" stop-color="#787c86" stop-opacity="1"/></linearGradient><linearGradient id="linearGradient909"><stop id="stop911" offset="0" stop-color="#000" stop-opacity="1"/><stop id="stop913" offset="1" stop-color="#000" stop-opacity="0"/></linearGradient><linearGradient id="linearGradient1661" x1="23.158" x2="23.158" y1="-1052.018" y2="-1004.456" gradientTransform="matrix(0.87499999,0,0,0.87499999,3,-128.54528)" gradientUnits="userSpaceOnUse" xlink:href="#linearGradient1663"/><radialGradient id="radialGradient1711" cx="24.434" cy="1005.073" r="22.875" fx="24.434" fy="1005.073" gradientTransform="matrix(1,0,0,0.97540724,0,27.309807)" gradientUnits="userSpaceOnUse" xlink:href="#linearGradient1713"/><linearGradient id="linearGradient1729" x1="23.776" x2="23.776" y1="1.685" y2="18.036" gradientUnits="userSpaceOnUse" xlink:href="#linearGradient1723"/><linearGradient id="linearGradient1767" x1="-64.781" x2="-64.781" y1="1012.288" y2="1010.768" gradientTransform="matrix(1.5765766,0,0,1.5765766,125.51676,-583.14811)" gradientUnits="userSpaceOnUse" xlink:href="#linearGradient6194"/><linearGradient id="linearGradient1769" x1="-64.941" x2="-64.941" y1="1011.284" y2="1011.327" gradientTransform="matrix(1.5765766,0,0,1.5765766,125.51676,-583.14811)" gradientUnits="userSpaceOnUse" xlink:href="#linearGradient909"/><linearGradient id="linearGradient6194" x1="0" x2="1" y1="0" y2="0" gradientTransform="matrix(13.526835,20.525875,20.525875,-13.526835,19.18986,1021.0543)" gradientUnits="userSpaceOnUse" spreadMethod="pad"><stop id="stop6196" offset="0" stop-color="#fff" stop-opacity="1"/><stop id="stop6198" offset=".168" stop-color="#29282b" stop-opacity="1"/><stop id="stop6200" offset=".264" stop-color="#868c95" stop-opacity="1"/><stop id="stop6202" offset=".396" stop-color="#92979f" stop-opacity="1"/><stop id="stop6204" offset=".542" stop-color="#737881" stop-opacity="1"/><stop id="stop6206" offset=".626" stop-color="#70757e" stop-opacity="1"/><stop id="stop6208" offset=".718" stop-color="#e4e6e8" stop-opacity="1"/><stop id="stop6210" offset=".791" stop-color="#fff" stop-opacity="1"/><stop id="stop6212" offset="1" stop-color="#1d191a" stop-opacity="1"/></linearGradient><linearGradient id="linearGradient1879" x1="24.749" x2="24.749" y1="2.303" y2="4.049" gradientTransform="translate(0,1004.3622)" gradientUnits="userSpaceOnUse" xlink:href="#linearGradient1873"/><radialGradient id="radialGradient1903" cx="24.434" cy="1005.073" r="22.875" fx="24.434" fy="1005.073" gradientTransform="matrix(1,0,0,0.97540724,0,53.309807)" gradientUnits="userSpaceOnUse" xlink:href="#linearGradient1713"/><linearGradient id="linearGradient1907" x1="-64.781" x2="-64.781" y1="1012.288" y2="1010.768" gradientTransform="matrix(1.5765766,0,0,1.5765766,125.51676,-583.14811)" gradientUnits="userSpaceOnUse" xlink:href="#linearGradient6194"/><linearGradient id="linearGradient1909" x1="-64.941" x2="-64.941" y1="1011.284" y2="1011.327" gradientTransform="matrix(1.5765766,0,0,1.5765766,125.51676,-583.14811)" gradientUnits="userSpaceOnUse" xlink:href="#linearGradient909"/><linearGradient id="linearGradient1932" x1="24.496" x2="24.496" y1="27.854" y2="22.854" gradientTransform="matrix(1,0,0,1.3170014,0,996.77176)" gradientUnits="userSpaceOnUse" xlink:href="#linearGradient1986"/><linearGradient id="linearGradient1936" x1="24.13" x2="24.13" y1="1047.412" y2="1041.402" gradientTransform="matrix(1,0,0,-1.1321839,1.688738,2209.0102)" gradientUnits="userSpaceOnUse" xlink:href="#linearGradient909"/><linearGradient id="linearGradient1974" x1="10.172" x2="10.172" y1="1031.089" y2="1030.534" gradientTransform="translate(0,8.6914063e-6)" gradientUnits="userSpaceOnUse" xlink:href="#linearGradient1968"/><linearGradient id="linearGradient1984" x1="23.956" x2="23.956" y1="1036.507" y2="1032.868" gradientTransform="matrix(1,0,0,0.64305054,0,367.62737)" gradientUnits="userSpaceOnUse" xlink:href="#linearGradient1873"/><linearGradient id="linearGradient1994" x1="10.172" x2="10.172" y1="1031.089" y2="1030.534" gradientTransform="translate(1.640625,-0.68749131)" gradientUnits="userSpaceOnUse" xlink:href="#linearGradient1996"/><linearGradient id="linearGradient2004" x1="10.172" x2="10.172" y1="1031.089" y2="1030.534" gradientTransform="matrix(0.99875709,-0.04984258,0.04984258,0.99875709,-22.537046,1.2757162)" gradientUnits="userSpaceOnUse" xlink:href="#linearGradient2006"/><linearGradient id="linearGradient2014" x1="10.172" x2="10.172" y1="1031.089" y2="1030.534" gradientTransform="matrix(0.99875709,-0.04984258,0.04984258,0.99875709,-23.318296,0.29134119)" gradientUnits="userSpaceOnUse" xlink:href="#linearGradient2016"/><linearGradient id="linearGradient2024" x1="10.172" x2="10.172" y1="1031.089" y2="1030.534" gradientTransform="matrix(0.99963746,0.02692518,-0.02692518,0.99963746,29.752452,-2.0363995)" gradientUnits="userSpaceOnUse" xlink:href="#linearGradient2006"/><linearGradient id="linearGradient2028" x1="10.172" x2="10.172" y1="1031.089" y2="1030.534" gradientTransform="translate(28.422294,-2.2784816)" gradientUnits="userSpaceOnUse" xlink:href="#linearGradient1996"/><linearGradient id="linearGradient4542" x1="407.669" x2="407.669" y1="-555.928" y2="-495.714" gradientUnits="userSpaceOnUse" xlink:href="#linearGradient6390"/><linearGradient id="linearGradient6390"><stop id="stop6392" offset="0" stop-color="#fff" stop-opacity="1"/><stop id="stop6414" offset=".165" stop-color="#29282b" stop-opacity="1"/><stop id="stop6416" offset=".261" stop-color="#868c95" stop-opacity="1"/><stop id="stop6418" offset=".395" stop-color="#92979f" stop-opacity="1"/><stop id="stop6420" offset=".543" stop-color="#737881" stop-opacity="1"/><stop id="stop6422" offset=".626" stop-color="#70757e" stop-opacity="1"/><stop id="stop6424" offset=".721" stop-color="#e4e6e8" stop-opacity="1"/><stop id="stop6426" offset=".795" stop-color="#fff" stop-opacity="1"/><stop id="stop6394" offset="1" stop-color="#1d191a" stop-opacity="1"/></linearGradient><linearGradient id="linearGradient3310" x1="407.669" x2="407.669" y1="-555.928" y2="-495.714" gradientTransform="translate(-384.57145,-504.56423)" gradientUnits="userSpaceOnUse" xlink:href="#linearGradient6390"/></defs><metadata id="metadata7"/><g id="layer1" transform="translate(0,-1004.3622)"><rect id="rect2991-1-7" width="48" height="48" x="0" y="-1052.362" fill="url(#linearGradient3310)" fill-opacity="1" stroke="none" ry="1.945" transform="scale(1,-1)"/><path id="rect846-2" fill="#000" fill-opacity="1" stroke="none" d="m 0,1049.3622 0,1.0625 c 0,1.0773 0.860223,1.9375 1.9375,1.9375 l 44.125,0 c 1.077277,0 1.9375,-0.8602 1.9375,-1.9375 l 0,-1.0625 c 0,1.0773 -0.860223,1.9375 -1.9375,1.9375 l -44.125,0 C 0.860223,1051.2997 0,1050.4395 0,1049.3622 Z"/><path id="path7515-9" fill="#fff" fill-opacity=".537" stroke="none" d="m 2.53125,1005.0185 c -0.917089,0 -1.671147,0.6395 -1.84375,1.5 0.335612,-0.2799 0.774512,-0.4375 1.25,-0.4375 l 44.125,0 c 0.475488,0 0.914388,0.1576 1.25,0.4375 -0.172603,-0.8605 -0.926662,-1.5 -1.84375,-1.5 L 2.53125,1005.0185 Z"/><path id="rect4280" fill="#000" fill-opacity=".392" stroke="none" d="m 1.9375,1004.3622 c -1.077277,0 -1.9375,0.8602 -1.9375,1.9375 l 0,43.0625 c 0,0.7934 0.480024,1.449 1.15625,1.75 -0.309342,-0.3333 -0.5,-0.7824 -0.5,-1.2812 l 0,-42.9375 c 0,-1.0482 0.826899,-1.875 1.875,-1.875 l 42.9375,0 c 1.048101,0 1.875,0.8268 1.875,1.875 l 0,42.9375 c 0,0.4988 -0.190658,0.9479 -0.5,1.2812 0.676226,-0.301 1.15625,-0.9566 1.15625,-1.75 l 0,-43.0625 c 0,-1.0773 -0.860223,-1.9375 -1.9375,-1.9375 L 1.9375,1004.3622 Z"/><rect id="rect1659" width="42" height="42" x="3" y="-1049.362" fill="url(#linearGradient1661)" fill-opacity="1" stroke="none" ry="1.701" transform="scale(1,-1)"/><path id="rect1702" fill="#000" fill-opacity=".163" stroke="none" d="m 4.6875,1007.3622 c -0.942618,0 -1.6875,0.7449 -1.6875,1.6875 l 0,38.625 c 0,0.9426 0.744882,1.6875 1.6875,1.6875 l 38.625,0 c 0.942618,0 1.6875,-0.7449 1.6875,-1.6875 l 0,-38.625 c 0,-0.9426 -0.744882,-1.6875 -1.6875,-1.6875 L 4.6875,1007.3622 z m 0.28125,0.3125 38.0625,0 c 0.929152,0 1.65625,0.7271 1.65625,1.6563 l 0,38.0625 c 0,0.9291 -0.727098,1.6562 -1.65625,1.6562 l -38.0625,0 c -0.929152,0 -1.65625,-0.7271 -1.65625,-1.6562 l 0,-38.0625 C 3.3125,1008.4018 4.039598,1007.6747 4.96875,1007.6747 Z"/><path id="path1707" fill="#000" fill-opacity=".088" stroke="none" d="m 5.009375,1007.7122 c -0.926907,0 -1.659375,0.7323 -1.659375,1.6595 l 0,37.981 c 0,0.9272 0.732468,1.6595 1.659375,1.6595 l 37.981251,0 c 0.92691,0 1.659374,-0.7323 1.659374,-1.6595 l 0,-37.981 c 0,-0.9272 -0.732464,-1.6595 -1.659374,-1.6595 L 5.009375,1007.7122 z m 0.276562,0.3076 37.428125,0 c 0.913665,0 1.628646,0.7145 1.628646,1.6283 l 0,37.4282 c 0,0.9138 -0.714981,1.6283 -1.628646,1.6283 l -37.428125,0 c -0.913665,0 -1.628645,-0.7145 -1.628645,-1.6283 l 0,-37.4282 C 3.657292,1008.7343 4.372272,1008.0198 5.285937,1008.0198 Z"/><path id="path1709" fill="#000" fill-opacity=".088" stroke="none" d="m 5.331249,1008.0622 c -0.911196,0 -1.631249,0.7197 -1.631249,1.6315 l 0,37.337 c 0,0.9118 0.720053,1.6315 1.631249,1.6315 l 37.337503,0 c 0.911202,0 1.631248,-0.7197 1.631248,-1.6315 l 0,-37.337 c 0,-0.9118 -0.720046,-1.6315 -1.631248,-1.6315 L 5.331249,1008.0622 z m 0.271876,0.3027 36.79375,0 c 0.898177,0 1.601041,0.7019 1.601041,1.6003 l 0,36.794 c 0,0.8984 -0.702864,1.6003 -1.601041,1.6003 l -36.79375,0 c -0.89818,0 -1.601041,-0.7019 -1.601041,-1.6003 l 0,-36.794 C 4.002084,1009.0668 4.704945,1008.3649 5.603125,1008.3649 Z"/><g id="g2030" transform="matrix(0.95985406,0,0,0.95985406,0.963502,40.511771)"><rect id="rect1669" width="45.75" height="17.125" x="1.125" y="1009.112" fill="url(#radialGradient1711)" fill-opacity="1" fill-rule="nonzero" stroke="none" stroke-width=".2" color="#000" display="inline" enable-background="accumulate" overflow="visible" ry="1.076" visibility="visible" style="marker:none"/><path id="rect1679" fill="url(#linearGradient1729)" fill-opacity="1" fill-rule="nonzero" stroke="none" stroke-width=".2" d="M 2.1875,4.75 C 1.5911317,4.75 1.125,5.2161317 1.125,5.8125 l 0,0.34375 0,14.65625 c 0,0.596368 0.4661317,1.0625 1.0625,1.0625 l 0.375,0 C 1.9661317,21.875 1.5,21.408868 1.5,20.8125 l 0,-15 C 1.5,5.596755 1.5813944,5.4157528 1.6875,5.25 1.8403703,5.1659811 1.9971884,5.09375 2.1875,5.09375 l 43.625,0 c 0.190312,0 0.34713,0.072231 0.5,0.15625 C 46.418606,5.4157528 46.5,5.596755 46.5,5.8125 l 0,15 c 0,0.596368 -0.466132,1.0625 -1.0625,1.0625 l 0.375,0 c 0.596368,0 1.0625,-0.466132 1.0625,-1.0625 l 0,-14.65625 0,-0.34375 C 46.875,5.6634079 46.83427,5.5338141 46.78125,5.40625 46.622196,5.0235576 46.259776,4.75 45.8125,4.75 l -0.375,0 -42.875,0 L 2.1875,4.75 Z" color="#000" display="inline" enable-background="accumulate" overflow="visible" transform="translate(0,1004.3622)" visibility="visible" style="marker:none"/><path id="rect1697" fill="#000" fill-opacity="1" fill-rule="nonzero" stroke="none" stroke-width=".2" d="m 1.125,20.4375 0,0.375 c 0,0.596368 0.4661317,1.0625 1.0625,1.0625 l 43.625,0 c 0.596368,0 1.0625,-0.466132 1.0625,-1.0625 l 0,-0.375 c 0,0.596368 -0.466132,1.0625 -1.0625,1.0625 l -43.625,0 C 1.5911317,21.5 1.125,21.033868 1.125,20.4375 Z" color="#000" display="inline" enable-background="accumulate" overflow="visible" transform="translate(0,1004.3622)" visibility="visible" style="marker:none"/><g id="g1751" transform="translate(-7e-6,6.111145)"><path id="path1753" fill="#000" fill-opacity=".236" fill-rule="nonzero" stroke="none" stroke-width=".2" d="m 15.796882,1012.6228 0,0.3449 16.40625,0 0,-0.3449 L 15.796882,1012.6228 Z" color="#000" display="inline" enable-background="accumulate" opacity=".847" overflow="visible" visibility="visible" style="marker:none"/><path id="path1755" fill="#000" fill-opacity=".118" fill-rule="nonzero" stroke="none" stroke-width=".2" d="m 15.796882,1012.9678 0,0.3449 16.40625,0 0,-0.3449 L 15.796882,1012.9678 Z" color="#000" display="inline" enable-background="accumulate" opacity=".847" overflow="visible" visibility="visible" style="marker:none"/><path id="path1757" fill="#000" fill-opacity=".059" fill-rule="nonzero" stroke="none" stroke-width=".2" d="m 15.796882,1013.3127 0,0.345 16.40625,0 0,-0.345 L 15.796882,1013.3127 Z" color="#000" display="inline" enable-background="accumulate" opacity=".847" overflow="visible" visibility="visible" style="marker:none"/></g><g id="g1759" transform="translate(-7.6293945e-6,6.1112088)"><rect id="rect1761" width="16.406" height="2.119" x="15.797" y="1010.504" fill="url(#linearGradient1767)" fill-opacity="1" fill-rule="nonzero" stroke="none" stroke-width=".2" color="#000" display="inline" enable-background="accumulate" overflow="visible" ry="0" visibility="visible" style="marker:none"/><rect id="rect1763" width="16.406" height=".739" x="15.797" y="1011.194" fill="#7d7b7a" fill-opacity="1" fill-rule="nonzero" stroke="none" stroke-width=".2" color="#000" display="inline" enable-background="accumulate" overflow="visible" ry="0" visibility="visible" style="marker:none"/><rect id="rect1765" width="16.406" height=".147" x="15.797" y="1011.194" fill="url(#linearGradient1769)" fill-opacity="1" fill-rule="nonzero" stroke="none" stroke-width=".2" color="#000" display="inline" enable-background="accumulate" overflow="visible" ry="0" visibility="visible" style="marker:none"/></g></g><path id="rect1868" fill="url(#linearGradient1879)" fill-opacity="1" stroke="none" d="m 4.6875,1007.3622 c -0.942618,0 -1.6875,0.7449 -1.6875,1.6875 l 0,1 c 0,-0.9426 0.744882,-1.7187 1.6875,-1.7187 l 38.625,0 c 0.942618,0 1.6875,0.7761 1.6875,1.7187 l 0,-1 c 0,-0.9426 -0.744882,-1.6875 -1.6875,-1.6875 L 4.6875,1007.3622 Z"/><path id="path1924" fill="url(#linearGradient1932)" fill-opacity="1" stroke="none" d="m 3.996209,1033.4809 2.407717,-5.1742 34.408574,0 L 44.001769,1033.4999 Z"/><path id="path1956" fill="#ccc" fill-opacity="1" fill-rule="nonzero" stroke="none" stroke-width=".2" d="m 8.093407,1029.087 c 0.02293,2.479 0.03767,2.1454 0.08355,4.624 L 40.721953,1033.2306 40.663762,1028.6062 Z" color="#000" display="inline" enable-background="accumulate" overflow="visible" visibility="visible" style="marker:none"/><path d="m 7.778865,1028.4149 c -0.118514,2.4762 -0.08422,2.1441 -0.179103,4.6213 l 33.514817,1.4432 L 41.3198,1029.8592 Z" style="marker:none" id="path1954" fill="#999" fill-opacity="1" fill-rule="nonzero" stroke="none" stroke-width=".2" color="#000" display="inline" enable-background="accumulate" overflow="visible" visibility="visible"/><path d="m 7.076303,1031.3383 c 0.147327,2.4747 0.146092,2.1408 0.31734,4.614 L 41.301257,1033.7306 41.010336,1029.1149 Z" style="marker:none" id="path1952" fill="#f2f2f2" fill-opacity="1" fill-rule="nonzero" stroke="none" stroke-width=".2" color="#000" display="inline" enable-background="accumulate" overflow="visible" visibility="visible"/><path id="path1950" fill="#ececec" fill-opacity="1" fill-rule="nonzero" stroke="none" stroke-width=".2" d="m 7.232408,1029.9352 c -0.05651,2.4784 -0.0303,2.1455 -0.06285,4.6244 l 33.9755,0.572 L 41.234384,1030.5076 Z" color="#000" display="inline" enable-background="accumulate" overflow="visible" visibility="visible" style="marker:none"/><path d="m 6.36181,1031.4654 c 0.08594,2.4777 0.09359,2.1438 0.204261,4.6206 L 41.638333,1034.7433 41.461408,1030.1217 Z" style="marker:none" id="path1948" fill="#ccc" fill-opacity="1" fill-rule="nonzero" stroke="none" stroke-width=".2" color="#000" display="inline" enable-background="accumulate" overflow="visible" visibility="visible"/><path id="path1938" fill="#f9f9f9" fill-opacity="1" fill-rule="nonzero" stroke="none" stroke-width=".2" d="m 5.750003,1030.7919 c -0.0093,2.4792 0.01196,2.1458 0.02843,4.625 l 36.471796,0 L 42.250227,1030.7919 Z" color="#000" display="inline" enable-background="accumulate" overflow="visible" visibility="visible" style="marker:none"/><g id="g2043" transform="matrix(1.0195058,0,0,1.0195058,-0.4681392,-18.492837)"><g id="g1911" transform="translate(0,-2.8750174)"><rect id="rect1881" width="45.75" height="17.125" x="1.125" y="1035.112" fill="url(#radialGradient1903)" fill-opacity="1" fill-rule="nonzero" stroke="none" stroke-width=".2" color="#000" display="inline" enable-background="accumulate" overflow="visible" ry="1.076" visibility="visible" style="marker:none"/><path d="m 2.1875,1035.1122 c -0.5963683,0 -1.0625,0.4661 -1.0625,1.0625 l 0,0.3438 0,14.6562 c 0,0.5964 0.4661317,1.0625 1.0625,1.0625 l 0.375,0 c -0.5963683,0 -1.0625,-0.4661 -1.0625,-1.0625 l 0,-15 c 0,-0.2157 0.081394,-0.3967 0.1875,-0.5625 0.1528703,-0.084 0.3096884,-0.1562 0.5,-0.1562 l 43.625,0 c 0.190312,0 0.34713,0.072 0.5,0.1562 0.106106,0.1658 0.1875,0.3468 0.1875,0.5625 l 0,15 c 0,0.5964 -0.466132,1.0625 -1.0625,1.0625 l 0.375,0 c 0.596368,0 1.0625,-0.4661 1.0625,-1.0625 l 0,-14.6562 0,-0.3438 c 0,-0.1491 -0.04073,-0.2787 -0.09375,-0.4062 -0.159054,-0.3827 -0.521474,-0.6563 -0.96875,-0.6563 l -0.375,0 -42.875,0 L 2.1875,1035.1122 Z" style="marker:none" id="path1883" fill="#fff" fill-opacity=".397" fill-rule="nonzero" stroke="none" stroke-width=".2" color="#000" display="inline" enable-background="accumulate" overflow="visible" visibility="visible"/><path d="m 1.125,1050.7997 0,0.375 c 0,0.5964 0.4661317,1.0625 1.0625,1.0625 l 43.625,0 c 0.596368,0 1.0625,-0.4661 1.0625,-1.0625 l 0,-0.375 c 0,0.5964 -0.466132,1.0625 -1.0625,1.0625 l -43.625,0 C 1.5911317,1051.8622 1.125,1051.3961 1.125,1050.7997 Z" style="marker:none" id="path1885" fill="#000" fill-opacity="1" fill-rule="nonzero" stroke="none" stroke-width=".2" color="#000" display="inline" enable-background="accumulate" overflow="visible" visibility="visible"/><g id="g1887" transform="translate(-7e-6,32.111145)"><path id="path1889" fill="#000" fill-opacity=".236" fill-rule="nonzero" stroke="none" stroke-width=".2" d="m 15.796882,1012.6228 0,0.3449 16.40625,0 0,-0.3449 L 15.796882,1012.6228 Z" color="#000" display="inline" enable-background="accumulate" opacity=".847" overflow="visible" visibility="visible" style="marker:none"/><path id="path1891" fill="#000" fill-opacity=".118" fill-rule="nonzero" stroke="none" stroke-width=".2" d="m 15.796882,1012.9678 0,0.3449 16.40625,0 0,-0.3449 L 15.796882,1012.9678 Z" color="#000" display="inline" enable-background="accumulate" opacity=".847" overflow="visible" visibility="visible" style="marker:none"/><path id="path1893" fill="#000" fill-opacity=".059" fill-rule="nonzero" stroke="none" stroke-width=".2" d="m 15.796882,1013.3127 0,0.345 16.40625,0 0,-0.345 L 15.796882,1013.3127 Z" color="#000" display="inline" enable-background="accumulate" opacity=".847" overflow="visible" visibility="visible" style="marker:none"/></g><g id="g1895" transform="translate(-7.6293945e-6,32.111209)"><rect id="rect1897" width="16.406" height="2.119" x="15.797" y="1010.504" fill="url(#linearGradient1907)" fill-opacity="1" fill-rule="nonzero" stroke="none" stroke-width=".2" color="#000" display="inline" enable-background="accumulate" overflow="visible" ry="0" visibility="visible" style="marker:none"/><rect id="rect1899" width="16.406" height=".739" x="15.797" y="1011.194" fill="#7d7b7a" fill-opacity="1" fill-rule="nonzero" stroke="none" stroke-width=".2" color="#000" display="inline" enable-background="accumulate" overflow="visible" ry="0" visibility="visible" style="marker:none"/><rect id="rect1901" width="16.406" height=".147" x="15.797" y="1011.194" fill="url(#linearGradient1909)" fill-opacity="1" fill-rule="nonzero" stroke="none" stroke-width=".2" color="#000" display="inline" enable-background="accumulate" overflow="visible" ry="0" visibility="visible" style="marker:none"/></g></g></g><path d="m 5.750003,1030.9049 c -0.0093,1.5942 0.01196,1.3798 0.02843,2.974 l 36.471796,0 L 42.250227,1030.9049 Z" style="marker:none" id="path1976" fill="url(#linearGradient1984)" fill-opacity="1" fill-rule="nonzero" stroke="none" stroke-width=".2" color="#000" display="inline" enable-background="accumulate" overflow="visible" visibility="visible"/><path id="path1958" fill="url(#linearGradient1974)" fill-opacity="1" stroke="none" d="m 8.441087,1030.928 0,-0.3977 2.96101,0 0,0.5303 L 8.441087,1031.0606 Z"/><path id="path1992" fill="url(#linearGradient1994)" fill-opacity="1" stroke="none" d="m 10.081712,1030.2405 0,-0.3977 2.96101,0 0,0.5303 L 10.081712,1030.3731 Z"/><path id="path2002" fill="url(#linearGradient2004)" fill-opacity="1" stroke="none" d="m 37.277659,1030.5016 -0.01982,-0.3972 2.95733,-0.1476 0.02643,0.5297 L 37.284268,1030.6341 Z"/><path id="path2012" fill="url(#linearGradient2014)" fill-opacity="1" stroke="none" d="m 36.496409,1029.5172 -0.01982,-0.3972 2.95733,-0.1476 0.02643,0.5297 L 36.503018,1029.6497 Z"/><path id="path2022" fill="url(#linearGradient2024)" fill-opacity="1" stroke="none" d="m 10.432561,1028.7451 0.01071,-0.3976 2.959938,0.08 -0.01428,0.5302 L 10.428985,1028.8777 Z"/><path id="path2026" fill="url(#linearGradient2028)" fill-opacity="1" stroke="none" d="m 36.863381,1028.6495 0,-0.3977 2.96101,0 0,0.5303 L 36.863381,1028.7821 Z"/><path id="path1934" fill="url(#linearGradient1936)" fill-opacity="1" fill-rule="nonzero" stroke="none" stroke-width=".2" d="m 3.938738,1031.3028 c -0.01018,-2.8071 0.01315,-3.3495 0.03125,-6.1563 l 40.093751,0 L 44.063739,1031.3028 Z" color="#000" display="inline" enable-background="accumulate" opacity=".925" overflow="visible" visibility="visible" style="marker:none"/></g></svg>