<svg xmlns="http://www.w3.org/2000/svg" xmlns:svg="http://www.w3.org/2000/svg" xmlns:xlink="http://www.w3.org/1999/xlink" id="svg3066" width="48" height="48" version="1.1"><defs id="defs3068"><linearGradient id="linearGradient5287"><stop id="stop5289" offset="0" stop-color="#d7d7d7" stop-opacity="1"/><stop id="stop5291" offset="1" stop-color="#f9f9f9" stop-opacity="1"/></linearGradient><linearGradient id="linearGradient5277"><stop id="stop5279" offset="0" stop-color="#144786" stop-opacity="1"/><stop id="stop5281" offset="1" stop-color="#068edc" stop-opacity="1"/></linearGradient><linearGradient id="linearGradient5261"><stop id="stop5263" offset="0" stop-color="#1e6ccd" stop-opacity="1"/><stop id="stop5265" offset="1" stop-color="#2faff9" stop-opacity="1"/></linearGradient><linearGradient id="linearGradient867" x1="26.25" x2="26.25" y1="-1052.541" y2="-1004.684" gradientUnits="userSpaceOnUse" xlink:href="#linearGradient1373"/><linearGradient id="linearGradient1373"><stop id="stop1375" offset="0" stop-color="#282827" stop-opacity="1"/><stop id="stop1377" offset="1" stop-color="#292929" stop-opacity="1"/></linearGradient><linearGradient id="linearGradient5267" x1="26.39" x2="26.39" y1="1035.868" y2="1020.873" gradientTransform="translate(0,1.7382813e-5)" gradientUnits="userSpaceOnUse" xlink:href="#linearGradient5277"/><linearGradient id="linearGradient5275" x1="26.39" x2="26.39" y1="1035.868" y2="1020.873" gradientTransform="matrix(0.96874983,0,0,0.93333333,0.75000235,68.557556)" gradientUnits="userSpaceOnUse" xlink:href="#linearGradient5261"/><linearGradient id="linearGradient5285" x1="26.39" x2="26.39" y1="1035.868" y2="1020.873" gradientTransform="matrix(0.37499996,0,0,0.8,23,205.67249)" gradientUnits="userSpaceOnUse" xlink:href="#linearGradient5287"/><linearGradient id="linearGradient5301" x1="26.39" x2="26.39" y1="1035.868" y2="1020.873" gradientTransform="matrix(0.12499999,0,0,0.26666667,29,-1302.5921)" gradientUnits="userSpaceOnUse" xlink:href="#linearGradient5287"/><linearGradient id="linearGradient4080" x1="26.517" x2="26.517" y1="1043.789" y2="1012.941" gradientTransform="matrix(0.25,0,0,0.25,9.920504,771.27163)" gradientUnits="userSpaceOnUse" xlink:href="#linearGradient5287"/></defs><metadata id="metadata3071"/><g id="layer1" transform="translate(0,-1004.3622)"><rect id="rect2991-1" width="48" height="48" x="0" y="-1052.362" fill="url(#linearGradient867)" fill-opacity="1" stroke="none" ry="1.945" transform="scale(1,-1)"/><path id="rect846" fill="#000" fill-opacity="1" stroke="none" d="m -2.6e-6,1049.3622 0,1.0625 c 0,1.0773 0.860223,1.9375 1.9375,1.9375 l 44.1250006,0 c 1.077277,0 1.937505,-0.8602 1.937505,-1.9375 l 0,-1.0625 c 0,1.0773 -0.860228,1.9375 -1.937505,1.9375 l -44.1250006,0 C 0.8602204,1051.2997 -2.6e-6,1050.4395 -2.6e-6,1049.3622 Z"/><path id="path7515" fill="#fff" fill-opacity=".537" stroke="none" d="m 2.5312474,1005.0185 c -0.917088,0 -1.671147,0.6395 -1.84375,1.5 0.335612,-0.2799 0.774512,-0.4375 1.25,-0.4375 l 44.1250006,0 c 0.475488,0 0.914388,0.1576 1.250005,0.4375 -0.172608,-0.8605 -0.926667,-1.5 -1.843755,-1.5 L 2.5312474,1005.0185 Z"/><path id="rect4280-0" fill="#000" fill-opacity=".392" stroke="none" d="m 1.9374974,1004.3622 c -1.077277,0 -1.9375,0.8602 -1.9375,1.9375 l 0,43.0625 c 0,0.7934 0.480024,1.449 1.15625,1.75 -0.309342,-0.3333 -0.5,-0.7824 -0.5,-1.2812 l 0,-42.9375 c 0,-1.0482 0.826899,-1.875 1.875,-1.875 l 42.9375006,0 c 1.048101,0 1.875005,0.8268 1.875005,1.875 l 0,42.9375 c 0,0.4988 -0.190663,0.9479 -0.500005,1.2812 0.676225,-0.301 1.156255,-0.9566 1.156255,-1.75 l 0,-43.0625 c 0,-1.0773 -0.860228,-1.9375 -1.937505,-1.9375 L 1.9374974,1004.3622 Z"/><rect id="rect5259" width="32" height="15" x="8" y="1020.862" fill="url(#linearGradient5267)" fill-opacity="1" stroke="none" ry="7.5"/><rect id="rect5273" width="31" height="14" x="8.5" y="1021.362" fill="url(#linearGradient5275)" fill-opacity="1" stroke="none" ry="7"/><rect id="rect5297" width="13" height="13" x="25.5" y="1021.862" fill="#000" fill-opacity=".118" stroke="none" ry="6.5"/><rect id="rect5293" width="12.5" height="12.5" x="25.75" y="1022.112" fill="#000" fill-opacity=".235" stroke="none" ry="6.25"/><rect id="rect5283" width="12" height="12" x="26" y="1022.362" fill="url(#linearGradient5285)" fill-opacity="1" stroke="none" ry="6"/><rect id="rect5299" width="4" height="4" x="30" y="-1030.362" fill="url(#linearGradient5301)" fill-opacity="1" stroke="none" ry="2" transform="scale(1,-1)"/><path id="path5401" fill="#000" fill-opacity=".235" stroke="none" d="m 19.222656,20.159836 c -0.511766,0.123598 -0.689532,0.21633 -1.150112,0.486328 -1.21832,1.868566 -2.138934,3.474263 -2.853794,4.986836 l -1.675008,-0.989149 -0.521485,0.904297 c 1.188142,0.951967 2.125245,1.699102 3.188743,2.701852 0.802322,-2.889254 1.68987,-5.209826 3.011656,-8.090164 z" transform="translate(0,1004.3622)"/><path id="rect4062" fill="url(#linearGradient4080)" fill-opacity="1" stroke="none" d="m 18.998231,1024.5122 c -1.289647,2.6558 -2.184141,5.0856 -2.910145,7.7 -0.964319,-0.9092 -1.992786,-1.7613 -3.086316,-2.6267 l 0.325749,-0.5635 2.052559,0.7155 c 0.708538,-1.4992 1.404588,-2.966 2.896849,-5.0317 z"/></g></svg>