<svg xmlns="http://www.w3.org/2000/svg" xmlns:svg="http://www.w3.org/2000/svg" xmlns:xlink="http://www.w3.org/1999/xlink" id="svg2" width="48" height="48" version="1.1"><defs id="defs4"><linearGradient id="linearGradient4082"><stop id="stop4084" offset="0" stop-color="#c0c9dc" stop-opacity="1"/><stop id="stop4086" offset="1" stop-color="#ebeef5" stop-opacity="1"/></linearGradient><linearGradient id="linearGradient844"><stop id="stop846" offset="0" stop-color="#2a488d" stop-opacity="1"/><stop id="stop848" offset="1" stop-color="#4163b2" stop-opacity="1"/></linearGradient><linearGradient id="linearGradient850" x1="23.875" x2="23.875" y1="-1052.416" y2="-1004.612" gradientUnits="userSpaceOnUse" xlink:href="#linearGradient844"/><linearGradient id="linearGradient4080" x1="23.319" x2="23.319" y1="32.057" y2="-.014" gradientUnits="userSpaceOnUse" xlink:href="#linearGradient4082"/><linearGradient id="linearGradient4096" x1="24.143" x2="24.143" y1="16.154" y2="34.93" gradientTransform="matrix(0.8595005,0,0,0.8595005,4.1379315,2.0543)" gradientUnits="userSpaceOnUse" xlink:href="#linearGradient4082"/><linearGradient id="linearGradient4119" x1="23.319" x2="23.319" y1="32.057" y2="-.014" gradientUnits="userSpaceOnUse" xlink:href="#linearGradient4082"/><linearGradient id="linearGradient4121" x1="23.319" x2="23.319" y1="32.057" y2="-.014" gradientUnits="userSpaceOnUse" xlink:href="#linearGradient4082"/><linearGradient id="linearGradient4123" x1="23.319" x2="23.319" y1="32.057" y2="-.014" gradientUnits="userSpaceOnUse" xlink:href="#linearGradient4082"/></defs><metadata id="metadata7"/><g id="layer1" transform="translate(0,-1004.3622)"><rect id="rect2991-1" width="48" height="48" x="0" y="-1052.362" fill="url(#linearGradient850)" fill-opacity="1" stroke="none" ry="1.945" transform="scale(1,-1)"/><g id="g4150" fill="#000" fill-opacity=".059" transform="matrix(0.9625,0,0,0.9625,8.6,1014.1622)"><g id="g4154" fill="#000" fill-opacity=".059"><path id="path4156" fill="#000" fill-opacity=".059" d="m 32,17.969 0,-4 -4.781,-1.992 C 27.086,11.602 26.946,11.239 26.774,10.883 L 28.704,6.078 25.875,3.25 21.113,5.211 C 20.75,5.035 20.379,4.887 19.996,4.75 L 17.969,0 l -4,0 -1.977,4.734 c -0.398,0.141 -0.781,0.289 -1.16,0.469 L 6.078,3.293 3.25,6.121 5.188,10.832 C 5,11.219 4.848,11.613 4.703,12.02 L 0,14.031 l 0,4 4.707,1.961 c 0.145,0.406 0.301,0.801 0.488,1.188 l -1.902,4.742 2.828,2.828 4.723,-1.945 c 0.379,0.18 0.766,0.324 1.164,0.461 l 2.023,4.734 4,0 1.98,-4.758 c 0.379,-0.141 0.754,-0.289 1.113,-0.461 l 4.797,1.922 2.828,-2.828 -1.969,-4.773 c 0.168,-0.359 0.305,-0.723 0.438,-1.094 L 32,17.969 Z M 15.969,22 c -3.312,0 -6,-2.688 -6,-6 0,-3.312 2.688,-6 6,-6 3.312,0 6,2.688 6,6 C 21.969,19.312 19.281,22 15.969,22 Z"/></g></g><g id="g4142" fill="#000" fill-opacity=".118" transform="matrix(0.9625,0,0,0.9625,8.6,1013.7622)"><g id="g4146" fill="#000" fill-opacity=".118"><path id="path4148" fill="#000" fill-opacity=".118" d="m 32,17.969 0,-4 -4.781,-1.992 C 27.086,11.602 26.946,11.239 26.774,10.883 L 28.704,6.078 25.875,3.25 21.113,5.211 C 20.75,5.035 20.379,4.887 19.996,4.75 L 17.969,0 l -4,0 -1.977,4.734 c -0.398,0.141 -0.781,0.289 -1.16,0.469 L 6.078,3.293 3.25,6.121 5.188,10.832 C 5,11.219 4.848,11.613 4.703,12.02 L 0,14.031 l 0,4 4.707,1.961 c 0.145,0.406 0.301,0.801 0.488,1.188 l -1.902,4.742 2.828,2.828 4.723,-1.945 c 0.379,0.18 0.766,0.324 1.164,0.461 l 2.023,4.734 4,0 1.98,-4.758 c 0.379,-0.141 0.754,-0.289 1.113,-0.461 l 4.797,1.922 2.828,-2.828 -1.969,-4.773 c 0.168,-0.359 0.305,-0.723 0.438,-1.094 L 32,17.969 Z M 15.969,22 c -3.312,0 -6,-2.688 -6,-6 0,-3.312 2.688,-6 6,-6 3.312,0 6,2.688 6,6 C 21.969,19.312 19.281,22 15.969,22 Z"/></g></g><g id="g4126" fill="#000" fill-opacity=".235" transform="matrix(0.9625,0,0,0.9625,8.6,1013.3622)"><g id="g4130" fill="#000" fill-opacity=".235"><path id="path4132" fill="#000" fill-opacity=".235" d="m 32,17.969 0,-4 -4.781,-1.992 C 27.086,11.602 26.946,11.239 26.774,10.883 L 28.704,6.078 25.875,3.25 21.113,5.211 C 20.75,5.035 20.379,4.887 19.996,4.75 L 17.969,0 l -4,0 -1.977,4.734 c -0.398,0.141 -0.781,0.289 -1.16,0.469 L 6.078,3.293 3.25,6.121 5.188,10.832 C 5,11.219 4.848,11.613 4.703,12.02 L 0,14.031 l 0,4 4.707,1.961 c 0.145,0.406 0.301,0.801 0.488,1.188 l -1.902,4.742 2.828,2.828 4.723,-1.945 c 0.379,0.18 0.766,0.324 1.164,0.461 l 2.023,4.734 4,0 1.98,-4.758 c 0.379,-0.141 0.754,-0.289 1.113,-0.461 l 4.797,1.922 2.828,-2.828 -1.969,-4.773 c 0.168,-0.359 0.305,-0.723 0.438,-1.094 L 32,17.969 Z M 15.969,22 c -3.312,0 -6,-2.688 -6,-6 0,-3.312 2.688,-6 6,-6 3.312,0 6,2.688 6,6 C 21.969,19.312 19.281,22 15.969,22 Z"/></g></g><path id="rect846" fill="#000" fill-opacity="1" stroke="none" d="m -1.8034668e-6,1049.3622 0,1.0625 c 0,1.0773 0.8602230034668,1.9375 1.9375000034668,1.9375 l 44.1249958,0 c 1.07728,0 1.93751,-0.8602 1.93751,-1.9375 l 0,-1.0625 c 0,1.0773 -0.86023,1.9375 -1.93751,1.9375 l -44.1249958,0 C 0.8602212,1051.2997 -1.8034668e-6,1050.4395 -1.8034668e-6,1049.3622 Z"/><path id="path7515" fill="#fff" fill-opacity=".537" stroke="none" d="m 2.5312482,1005.0185 c -0.917088,0 -1.671147,0.6395 -1.84375,1.5 0.335612,-0.2799 0.774512,-0.4375 1.25,-0.4375 l 44.1249958,0 c 0.47549,0 0.91439,0.1576 1.25001,0.4375 -0.17261,-0.8605 -0.92667,-1.5 -1.843756,-1.5 L 2.5312482,1005.0185 Z"/><path id="rect4280-0" fill="#000" fill-opacity=".392" stroke="none" d="m 1.9374982,1004.3622 c -1.077277,0 -1.9375000034668,0.8602 -1.9375000034668,1.9375 l 0,43.0625 c 0,0.7934 0.4800240034668,1.449 1.1562500034668,1.75 -0.309342,-0.3333 -0.5,-0.7824 -0.5,-1.2812 l 0,-42.9375 c 0,-1.0482 0.826899,-1.875 1.875,-1.875 l 42.9374998,0 c 1.048106,0 1.875006,0.8268 1.875006,1.875 l 0,42.9375 c 0,0.4988 -0.19066,0.9479 -0.50001,1.2812 0.67623,-0.301 1.15626,-0.9566 1.15626,-1.75 l 0,-43.0625 c 0,-1.0773 -0.86023,-1.9375 -1.93751,-1.9375 L 1.9374982,1004.3622 Z"/><g id="g4075" fill="url(#linearGradient4080)" fill-opacity="1" transform="matrix(0.9625,0,0,0.9625,8.6,1012.9622)"><g id="cog" fill="url(#linearGradient4123)" fill-opacity="1"><path id="path4067" fill="url(#linearGradient4121)" fill-opacity="1" d="m 32,17.969 0,-4 -4.781,-1.992 C 27.086,11.602 26.946,11.239 26.774,10.883 L 28.704,6.078 25.875,3.25 21.113,5.211 C 20.75,5.035 20.379,4.887 19.996,4.75 L 17.969,0 l -4,0 -1.977,4.734 c -0.398,0.141 -0.781,0.289 -1.16,0.469 L 6.078,3.293 3.25,6.121 5.188,10.832 C 5,11.219 4.848,11.613 4.703,12.02 L 0,14.031 l 0,4 4.707,1.961 c 0.145,0.406 0.301,0.801 0.488,1.188 l -1.902,4.742 2.828,2.828 4.723,-1.945 c 0.379,0.18 0.766,0.324 1.164,0.461 l 2.023,4.734 4,0 1.98,-4.758 c 0.379,-0.141 0.754,-0.289 1.113,-0.461 l 4.797,1.922 2.828,-2.828 -1.969,-4.773 c 0.168,-0.359 0.305,-0.723 0.438,-1.094 L 32,17.969 Z M 15.969,22 c -3.312,0 -6,-2.688 -6,-6 0,-3.312 2.688,-6 6,-6 3.312,0 6,2.688 6,6 C 21.969,19.312 19.281,22 15.969,22 Z"/></g></g><path id="path4088" fill="url(#linearGradient4096)" fill-opacity="1" stroke="none" d="M 24 16 C 19.581722 16 16 19.581722 16 24 C 16 28.418278 19.581722 32 24 32 C 28.418278 32 32 28.418278 32 24 C 32 19.581722 28.418278 16 24 16 z M 24 18.1875 C 27.203252 18.1875 29.8125 20.796748 29.8125 24 C 29.8125 27.203252 27.203252 29.8125 24 29.8125 C 20.796748 29.8125 18.1875 27.203252 18.1875 24 C 18.1875 20.796748 20.796748 18.1875 24 18.1875 z" opacity="1" transform="translate(0,1004.3622)"/><path id="path4164" fill="#2a488e" fill-opacity=".314" d="m 36,1018.5754 -1.625,4.0625 c 0.06004,0.1242 0.103168,0.2487 0.15625,0.375 l 1.6875,-4.2188 L 36,1018.5754 z m -24.03125,0.031 -0.25,0.25 1.71875,4.125 c 0.05587,-0.1318 0.09313,-0.2763 0.15625,-0.4062 L 11.96875,1018.6066 z m 12,3.1875 c -3.1878,0 -5.78125,2.5623 -5.78125,5.7501 0,0.1364 0.02192,0.2721 0.03125,0.4062 0.208583,-2.9986 2.698694,-5.375 5.75,-5.375 3.051306,0 5.541417,2.3764 5.75,5.375 0.0093,-0.1341 0.03125,-0.2698 0.03125,-0.4062 C 29.75,1024.3564 27.15655,1021.7941 23.96875,1021.7941 z m 15.4375,7.6563 -4.59375,1.9688 c -0.128013,0.3571 -0.2758,0.7169 -0.4375,1.0625 l 0.15625,0.375 c 0.08874,-0.2172 0.201715,-0.4344 0.28125,-0.6563 l 4.59375,-1.9375 L 39.40625,1029.4504 z m -30.8125,0.062 0,0.8125 4.53125,1.875 c 0.09088,0.2545 0.207323,0.5037 0.3125,0.75 l 0.15625,-0.4062 c -0.179988,-0.3725 -0.329187,-0.7655 -0.46875,-1.1563 L 8.59375,1029.5129 z m 27.46875,7.7813 -2.5,2.5 -4.625,-1.875 c -0.345538,0.1656 -0.697712,0.333 -1.0625,0.4687 l -1.90625,4.5625 -3.875,0 -1.9375,-4.5625 c -0.383075,-0.1318 -0.760212,-0.2642 -1.125,-0.4375 l -4.53125,1.875 -2.5,-2.5 -0.21875,0.5938 2.71875,2.7187 4.53125,-1.875 c 0.364788,0.1733 0.741925,0.3057 1.125,0.4375 l 1.9375,4.5625 3.875,0 1.90625,-4.5937 c 0.364788,-0.1357 0.716962,-0.2719 1.0625,-0.4375 l 4.625,1.8437 2.71875,-2.7187 L 36.0625,1037.2942 Z"/><path id="path4189" fill="#fff" fill-opacity=".235" d="m 22.03125,1012.9622 -1.875,4.5625 c -0.383075,0.1357 -0.760212,0.2642 -1.125,0.4375 l -4.59375,-1.8125 -2.71875,2.7188 0.125,0.2812 2.59375,-2.625 4.59375,1.8438 c 0.364788,-0.1734 0.741925,-0.3018 1.125,-0.4375 l 1.875,-4.5625 3.875,0 1.9375,4.5625 c 0.368637,0.1318 0.713113,0.2681 1.0625,0.4375 l 4.59375,-1.875 2.59375,2.5937 0.125,-0.2812 -2.71875,-2.7188 -4.59375,1.9063 c -0.349387,-0.1694 -0.693863,-0.3057 -1.0625,-0.4375 l -1.9375,-4.5938 L 22.03125,1012.9622 Z M 13.5,1023.5872 c -0.140729,0.3106 -0.259387,0.6129 -0.375,0.9375 l -4.53125,1.9375 0,0.4063 4.53125,-1.9375 c 0.139562,-0.3918 0.2878,-0.7525 0.46875,-1.125 L 13.5,1023.5872 z m 20.96875,0.031 -0.09375,0.2187 c 0.16555,0.3426 0.309488,0.7015 0.4375,1.0625 l 4.59375,1.9063 0,-0.4063 -4.59375,-1.9062 C 34.70778,1024.1981 34.59566,1023.9009 34.46875,1023.6185 z m -16.28125,4.9375 c -0.0027,0.072 0,0.1455 0,0.2187 0,3.1878 2.59345,5.7813 5.78125,5.7813 3.1878,0 5.78125,-2.5935 5.78125,-5.7813 0,-0.073 0.0027,-0.1462 0,-0.2187 -0.09908,3.1011 -2.656193,5.5937 -5.78125,5.5937 C 20.843693,1034.1497 18.286585,1031.6571 18.1875,1028.556 z m 16.28125,4.9062 c -0.03116,0.072 -0.06026,0.1472 -0.09375,0.2188 l 1.78125,4.3125 0.125,-0.125 L 34.46875,1033.4622 z m -20.9375,0.094 -1.75,4.375 0.09375,0.094 1.71875,-4.2812 C 13.56464,1033.6832 13.558881,1033.6166 13.53125,1033.556 Z"/></g></svg>