<svg xmlns="http://www.w3.org/2000/svg" xmlns:svg="http://www.w3.org/2000/svg" xmlns:xlink="http://www.w3.org/1999/xlink" id="svg2" width="48" height="48" version="1.1"><defs id="defs4"><linearGradient id="linearGradient955"><stop id="stop957" offset="0" stop-color="#00468c" stop-opacity="1"/><stop id="stop959" offset="1" stop-color="#00a0d8" stop-opacity="1"/></linearGradient><linearGradient id="linearGradient945"><stop id="stop947" offset="0" stop-color="#ff8300" stop-opacity="1"/><stop id="stop949" offset="1" stop-color="#ffd200" stop-opacity="1"/></linearGradient><linearGradient id="linearGradient939"><stop id="stop941" offset="0" stop-color="#a60c0c" stop-opacity="1"/><stop id="stop943" offset="1" stop-color="#ea2b2b" stop-opacity="1"/></linearGradient><linearGradient id="linearGradient919"><stop id="stop921" offset="0" stop-color="#5d8300" stop-opacity="1"/><stop id="stop923" offset="1" stop-color="#b0d100" stop-opacity="1"/></linearGradient><linearGradient id="linearGradient913"><stop id="stop915" offset="0" stop-color="#dc406c" stop-opacity="1"/><stop id="stop917" offset="1" stop-color="#f5a4c4" stop-opacity="1"/></linearGradient><linearGradient id="linearGradient911" x1="44" x2="44" y1="48.375" y2=".375" gradientTransform="matrix(1.2,0,0,1,-9.5999985,1004.3622)" gradientUnits="userSpaceOnUse" xlink:href="#linearGradient913"/><linearGradient id="linearGradient925" x1="35.75" x2="35.75" y1="48.25" y2=".25" gradientTransform="matrix(1.2,0,0,1,-9.5999988,1004.3622)" gradientUnits="userSpaceOnUse" xlink:href="#linearGradient919"/><linearGradient id="linearGradient933" x1="35.75" x2="35.75" y1="48.25" y2=".25" gradientTransform="matrix(1.2,0,0,1,-19.199999,1004.3622)" gradientUnits="userSpaceOnUse" xlink:href="#linearGradient945"/><linearGradient id="linearGradient937" x1="35.75" x2="35.75" y1="48.25" y2=".25" gradientTransform="matrix(1.2,0,0,1,-28.8,1004.3622)" gradientUnits="userSpaceOnUse" xlink:href="#linearGradient939"/><linearGradient id="linearGradient953" x1="44" x2="44" y1="48.375" y2=".375" gradientTransform="matrix(-1.2,0,0,1,57.6,1004.3622)" gradientUnits="userSpaceOnUse" xlink:href="#linearGradient955"/></defs><metadata id="metadata7"/><g id="layer1" transform="translate(0,-1004.3622)"><g id="g961"><path id="rect874" fill="url(#linearGradient911)" fill-opacity="1" stroke="none" d="m 38.400002,1004.3622 0,48 7.275,0 c 1.292732,0 2.325,-0.8602 2.325,-1.9375 l 0,-44.125 c 0,-1.0773 -1.032268,-1.9375 -2.325,-1.9375 L 38.400002,1004.3622 Z"/><path id="rect876" fill="url(#linearGradient925)" fill-opacity="1" stroke="none" d="m 28.800001,1004.3622 0,48 9.6,0 0,-48 L 28.800001,1004.3622 Z"/><path id="path931" fill="url(#linearGradient933)" fill-opacity="1" stroke="none" d="m 19.200001,1004.3622 0,48 9.6,0 0,-48 L 19.200001,1004.3622 Z"/><path id="path935" fill="url(#linearGradient937)" fill-opacity="1" stroke="none" d="m 9.6000004,1004.3622 0,48 9.5999996,0 0,-48 L 9.6000004,1004.3622 Z"/><path id="path951" fill="url(#linearGradient953)" fill-opacity="1" stroke="none" d="m 9.6,1004.3622 0,48 -7.275,0 c -1.292732,0 -2.325,-0.8602 -2.325,-1.9375 l 0,-44.125 c 0,-1.0773 1.032268,-1.9375 2.325,-1.9375 L 9.6,1004.3622 Z"/></g><rect id="rect6284" width="8.38" height="8.363" x="49.825" y="1007.856" fill="#eeeeec" display="none" enable-background="accumulate"/><rect id="rect6592" width="5.587" height="5.575" x="51.036" y="1021.098" fill="#eeeeec" display="none" enable-background="accumulate"/><rect id="rect8104" width="4.19" height="4.182" x="50.862" y="1029.81" fill="#fff" display="none" enable-background="accumulate"/><rect id="rect6749" width="3.841" height="3.833" x="51.036" y="1029.995" fill="#eeeeec" display="none" enable-background="accumulate"/><rect id="rect6833" width="2.793" height="2.788" x="51.036" y="1037.302" fill="#eeeeec" display="none" enable-background="accumulate"/><rect id="rect3068" width="44.693" height="44.604" x=".942" y="1004.72" fill="#eeeeec" display="none" enable-background="accumulate"/><text id="context" x="1.797" y="1003.899" fill="#000" display="none" enable-background="new" font-family="Bitstream Vera Sans" font-size="3.192" transform="scale(1.0010026,0.99899842)" xml:space="preserve"><tspan id="tspan2716" x="1.797" y="1003.899">apps</tspan></text><text id="text3021" x="31.621" y="1003.899" fill="#000" display="none" enable-background="new" font-family="Droid Sans" font-size="3.192" font-weight="bold" transform="scale(1.0010026,0.99899842)" xml:space="preserve" style="line-height:125%"><tspan id="tspan3023" x="31.621" y="1003.899">preferences-color</tspan></text><path id="rect846" fill="#000" fill-opacity="1" stroke="none" d="m -2.5775146e-7,1049.3622 0,1.0625 c 0,1.0773 0.86022299775146,1.9375 1.93749995775146,1.9375 l 44.1250003,0 c 1.077277,0 1.9375,-0.8602 1.9375,-1.9375 l 0,-1.0625 c 0,1.0773 -0.860223,1.9375 -1.9375,1.9375 l -44.1250003,0 C 0.86022274,1051.2997 -2.5775146e-7,1050.4395 -2.5775146e-7,1049.3622 Z"/><path id="path7515" fill="#fff" fill-opacity=".537" stroke="none" d="m 2.5312497,1005.0185 c -0.917089,0 -1.67114696,0.6395 -1.84374996,1.5 0.33561196,-0.2799 0.77451196,-0.4375 1.24999996,-0.4375 l 44.1250003,0 c 0.475488,0 0.914388,0.1576 1.25,0.4375 -0.172603,-0.8605 -0.926662,-1.5 -1.84375,-1.5 L 2.5312497,1005.0185 Z"/><path id="rect4280" fill="#000" fill-opacity=".392" stroke="none" d="m 1.9374997,1004.3622 c -1.07727696,0 -1.93749995775146,0.8602 -1.93749995775146,1.9375 l 0,43.0625 c 0,0.7934 0.48002299775146,1.449 1.15624995775146,1.75 -0.30934196,-0.3333 -0.49999996,-0.7824 -0.49999996,-1.2812 l 0,-42.9375 c 0,-1.0482 0.82689896,-1.875 1.87499996,-1.875 l 42.9375003,0 c 1.048101,0 1.875,0.8268 1.875,1.875 l 0,42.9375 c 0,0.4988 -0.190658,0.9479 -0.5,1.2812 0.676226,-0.301 1.15625,-0.9566 1.15625,-1.75 l 0,-43.0625 c 0,-1.0773 -0.860223,-1.9375 -1.9375,-1.9375 L 1.9374997,1004.3622 Z"/></g></svg>