<svg xmlns="http://www.w3.org/2000/svg" xmlns:svg="http://www.w3.org/2000/svg" xmlns:xlink="http://www.w3.org/1999/xlink" id="svg2" width="48" height="48" version="1.1"><defs id="defs4"><linearGradient id="linearGradient1206"><stop id="stop1208" offset="0" stop-color="#fff" stop-opacity="1"/><stop id="stop1210" offset="1" stop-color="#fff" stop-opacity="0"/></linearGradient><linearGradient id="linearGradient1178"><stop id="stop1180" offset="0" stop-color="#000" stop-opacity="1"/><stop id="stop1182" offset="1" stop-color="#000" stop-opacity="0"/></linearGradient><linearGradient id="linearGradient1165"><stop id="stop1167" offset="0" stop-color="#fff" stop-opacity="1"/><stop id="stop1169" offset="1" stop-color="#fff" stop-opacity="0"/></linearGradient><linearGradient id="linearGradient1039"><stop id="stop1041" offset="0" stop-color="#fff" stop-opacity="1"/><stop id="stop1043" offset="1" stop-color="#fff" stop-opacity="0"/></linearGradient><linearGradient id="linearGradient943"><stop id="stop945" offset="0" stop-color="#000" stop-opacity="1"/><stop id="stop947" offset="1" stop-color="#333" stop-opacity="1"/></linearGradient><linearGradient id="linearGradient930"><stop id="stop932" offset="0" stop-color="#b2b5ae" stop-opacity="1"/><stop id="stop934" offset="1" stop-color="#646567" stop-opacity="1"/></linearGradient><linearGradient id="linearGradient910"><stop id="stop912" offset="0" stop-color="#9da198" stop-opacity="1"/><stop id="stop914" offset="1" stop-color="#c9ccc1" stop-opacity="1"/></linearGradient><linearGradient id="linearGradient916" x1="24.25" x2="24.25" y1="-1052.362" y2="-1005.612" gradientUnits="userSpaceOnUse" xlink:href="#linearGradient910"/><radialGradient id="radialGradient928" cx="24" cy="10.388" r="24" fx="24" fy="10.388" gradientTransform="matrix(1.4640388,0,0,1,-11.136932,0)" gradientUnits="userSpaceOnUse" xlink:href="#linearGradient930"/><linearGradient id="linearGradient941" x1="24.25" x2="24.25" y1="-1052.362" y2="-1004.4" gradientTransform="matrix(0.83333334,0,0,0.83333334,3.9999996,-171.39368)" gradientUnits="userSpaceOnUse" xlink:href="#linearGradient943"/><radialGradient id="radialGradient951" cx="24" cy="10.388" r="24" fx="24" fy="10.388" gradientTransform="matrix(1.4640388,0,0,-1,-11.136932,1052.3622)" gradientUnits="userSpaceOnUse" xlink:href="#linearGradient930"/><linearGradient id="linearGradient1045" x1="24.125" x2="24.125" y1="31.25" y2="5.25" gradientTransform="matrix(0.95238097,0,0,0.7290016,1.1428567,1006.1752)" gradientUnits="userSpaceOnUse" xlink:href="#linearGradient1039"/><linearGradient id="linearGradient1171" x1="24.875" x2="24.875" y1="6.125" y2="38.625" gradientTransform="matrix(0.95238097,0,0,0.95238097,1.1428567,1005.5051)" gradientUnits="userSpaceOnUse" xlink:href="#linearGradient1165"/><linearGradient id="linearGradient1184" x1="25.412" x2="25.412" y1="1.95" y2="4.734" gradientTransform="matrix(0.95238097,0,0,0.95238097,1.1428567,1005.5051)" gradientUnits="userSpaceOnUse" xlink:href="#linearGradient1178"/><linearGradient id="linearGradient1188" x1="25.412" x2="25.412" y1="1.95" y2="4.734" gradientTransform="matrix(0.95238097,0,0,-0.95238097,1.1428567,1051.2193)" gradientUnits="userSpaceOnUse" xlink:href="#linearGradient1178"/><linearGradient id="linearGradient1192" x1="25.412" x2="25.412" y1="1.95" y2="4.734" gradientTransform="matrix(0,-0.95238097,-0.95238097,0,46.857143,1051.2193)" gradientUnits="userSpaceOnUse" xlink:href="#linearGradient1178"/><linearGradient id="linearGradient1196" x1="25.412" x2="25.412" y1="1.95" y2="4.734" gradientTransform="matrix(0,-0.95238097,0.95238097,0,1.1428567,1051.2193)" gradientUnits="userSpaceOnUse" xlink:href="#linearGradient1178"/><linearGradient id="linearGradient1212" x1="14.672" x2="14.672" y1="1001.83" y2="1033.624" gradientTransform="matrix(0.95238097,0,0,0.95238097,1.1428567,48.969608)" gradientUnits="userSpaceOnUse" xlink:href="#linearGradient1206"/></defs><metadata id="metadata7"/><g id="layer1" transform="translate(0,-1004.3622)"><rect id="rect2991-1" width="48" height="48" x="0" y="-1052.362" fill="url(#linearGradient916)" fill-opacity="1" stroke="none" ry="1.945" transform="scale(1,-1)"/><path id="path949" fill="url(#radialGradient951)" fill-opacity="1" stroke="none" d="m 1.9375,1052.3622 c -0.6235777,0 -1.1446305,-0.2963 -1.5,-0.75 l 4.8125,-8.3438 37.5,0 4.8125,8.3438 c -0.35537,0.4537 -0.876422,0.75 -1.5,0.75 L 1.9375,1052.3622 Z" opacity=".389"/><path id="rect846" fill="#000" fill-opacity="1" stroke="none" d="m -1.62323e-7,1049.3623 0,1.0625 c 0,1.0773 0.860223002323,1.9375 1.937499962323,1.9375 l 44.1250002,0 c 1.077277,0 1.9375,-0.8602 1.9375,-1.9375 l 0,-1.0625 c 0,1.0773 -0.860223,1.9375 -1.9375,1.9375 l -44.1250002,0 C 0.86022284,1051.2998 -1.62323e-7,1050.4396 -1.62323e-7,1049.3623 Z"/><path id="rect920" fill="url(#radialGradient928)" fill-opacity="1" stroke="none" d="M 1.9375 0 C 1.3139223 0 0.7928695 0.29629709 0.4375 0.75 L 5.25 9.09375 L 42.75 9.09375 L 47.5625 0.75 C 47.20713 0.29629709 46.686078 0 46.0625 0 L 1.9375 0 z" transform="translate(0,1004.3622)"/><rect id="rect3288" width="42" height="42" x="3" y="-1049.362" fill="#000" fill-opacity=".235" stroke="none" ry="1.701" transform="scale(1,-1)"/><path id="path7515" fill="#fff" fill-opacity=".537" stroke="none" d="m 2.5312498,1005.0186 c -0.917088,0 -1.67114696,0.6395 -1.84374996,1.5 0.33561196,-0.2799 0.77451196,-0.4375 1.24999996,-0.4375 l 44.1250002,0 c 0.475488,0 0.914388,0.1576 1.25,0.4375 -0.172603,-0.8605 -0.926662,-1.5 -1.84375,-1.5 L 2.5312498,1005.0186 Z"/><path id="rect4280" fill="#000" fill-opacity=".392" stroke="none" d="m 1.9374998,1004.3623 c -1.07727696,0 -1.937499962323,0.8602 -1.937499962323,1.9375 l 0,43.0625 c 0,0.7934 0.480024002323,1.449 1.156249962323,1.75 -0.30934196,-0.3333 -0.49999996,-0.7824 -0.49999996,-1.2812 l 0,-42.9375 c 0,-1.0482 0.82689896,-1.875 1.87499996,-1.875 l 42.9375002,0 c 1.048101,0 1.875,0.8268 1.875,1.875 l 0,42.9375 c 0,0.4988 -0.190658,0.9479 -0.5,1.2812 0.676226,-0.301 1.15625,-0.9566 1.15625,-1.75 l 0,-43.0625 c 0,-1.0773 -0.860223,-1.9375 -1.9375,-1.9375 L 1.9374998,1004.3623 Z"/><rect id="rect939" width="40" height="40" x="4" y="-1048.362" fill="url(#linearGradient941)" fill-opacity="1" stroke="none" ry="1.62" transform="scale(1,-1)"/><text id="text6211-5" x="5.366" y="1012.967" fill="url(#linearGradient1212)" fill-opacity="1" stroke="none" font-family="Sans" font-size="1.667" font-style="normal" font-weight="normal" letter-spacing="0" word-spacing="0" xml:space="preserve" style="line-height:125%"><tspan id="tspan6219-5" x="5.366" y="1012.967" fill="url(#linearGradient1212)" fill-opacity="1">void setup()</tspan><tspan id="tspan6362" x="5.366" y="1015.05" fill="url(#linearGradient1212)" fill-opacity="1">{</tspan><tspan id="tspan6364" x="5.366" y="1017.133" fill="url(#linearGradient1212)" fill-opacity="1"> pinMode(ledPin, OUTPUT);</tspan><tspan id="tspan6368" x="5.366" y="1019.217" fill="url(#linearGradient1212)" fill-opacity="1">// sets the digital pin</tspan><tspan id="tspan6370" x="5.366" y="1021.3" fill="url(#linearGradient1212)" fill-opacity="1">as output</tspan><tspan id="tspan6366" x="5.366" y="1023.383" fill="url(#linearGradient1212)" fill-opacity="1">}</tspan><tspan id="tspan6391" x="5.366" y="1025.467" fill="url(#linearGradient1212)" fill-opacity="1">void loop()</tspan><tspan id="tspan6397" x="5.366" y="1027.55" fill="url(#linearGradient1212)" fill-opacity="1">{</tspan><tspan id="tspan6393" x="5.366" y="1029.633" fill="url(#linearGradient1212)" fill-opacity="1">digitalWrite(ledPin, HIGH);</tspan><tspan id="tspan6395" x="5.366" y="1031.717" fill="url(#linearGradient1212)" fill-opacity="1">digitalWrite(ledPin, LOW);</tspan><tspan id="tspan6399" x="5.366" y="1033.8" fill="url(#linearGradient1212)" fill-opacity="1">}</tspan></text><path id="rect1029" fill="url(#linearGradient1045)" fill-opacity="1" stroke="none" d="m 5.6071425,1008.3622 c -0.8977311,0 -1.6071429,0.543 -1.6071429,1.2302 l 0,9.8643 c 5.0540029,2.0106 12.1345124,3.2805 20.0000004,3.2805 7.865488,0 14.945997,-1.2699 20,-3.2805 l 0,-9.8643 c 0,-0.6872 -0.709411,-1.2302 -1.607142,-1.2302 l -36.7857155,0 z" opacity=".128"/><path id="rect1047" fill="url(#linearGradient1171)" fill-opacity="1" stroke="none" d="m 4.7142853,1008.6301 c -0.1380429,0.093 -0.2539956,0.2269 -0.3571428,0.3571 l 39.2857155,0 c -0.103148,-0.1302 -0.2191,-0.264 -0.357143,-0.3571 l -38.5714297,0 z m -0.625,0.7738 c -0.042515,0.1138 -0.043426,0.2326 -0.059524,0.3571 l 39.9404775,0 c -0.0161,-0.1245 -0.01701,-0.2433 -0.05952,-0.3571 l -39.8214297,0 z m -0.089286,0.744 0,0.3572 40.0000004,0 0,-0.3572 -40.0000004,0 z m 0,0.7738 0,0.3572 40.0000004,0 0,-0.3572 -40.0000004,0 z m 0,0.7738 0,0.3572 40.0000004,0 0,-0.3572 -40.0000004,0 z m 0,0.7738 0,0.3572 40.0000004,0 0,-0.3572 -40.0000004,0 z m 0,0.7441 0,0.3571 40.0000004,0 0,-0.3571 -40.0000004,0 z m 0,0.7738 0,0.3571 40.0000004,0 0,-0.3571 -40.0000004,0 z m 0,0.7738 0,0.3572 40.0000004,0 0,-0.3572 -40.0000004,0 z m 0,0.7738 0,0.3572 40.0000004,0 0,-0.3572 -40.0000004,0 z m 0,0.7441 0,0.3571 40.0000004,0 0,-0.3571 -40.0000004,0 z m 0,0.7738 0,0.3571 40.0000004,0 0,-0.3571 -40.0000004,0 z m 0,0.7738 0,0.3571 40.0000004,0 0,-0.3571 -40.0000004,0 z m 0,0.7738 0,0.3571 40.0000004,0 0,-0.3571 -40.0000004,0 z m 0,0.744 0,0.3572 40.0000004,0 0,-0.3572 -40.0000004,0 z m 0,0.7739 0,0.3571 40.0000004,0 0,-0.3571 -40.0000004,0 z m 0,0.7738 0,0.3571 40.0000004,0 0,-0.3571 -40.0000004,0 z m 0,0.7738 0,0.3571 40.0000004,0 0,-0.3571 -40.0000004,0 z m 0,0.7738 0,0.3571 40.0000004,0 0,-0.3571 -40.0000004,0 z m 0,0.744 0,0.3572 40.0000004,0 0,-0.3572 -40.0000004,0 z m 0,0.7738 0,0.3572 40.0000004,0 0,-0.3572 -40.0000004,0 z m 0,0.7738 0,0.3572 40.0000004,0 0,-0.3572 -40.0000004,0 z m 0,0.7739 0,0.3571 40.0000004,0 0,-0.3571 -40.0000004,0 z m 0,0.744 0,0.3571 40.0000004,0 0,-0.3571 -40.0000004,0 z m 0,0.7738 0,0.3572 40.0000004,0 0,-0.3572 -40.0000004,0 z m 0,0.7738 0,0.3572 40.0000004,0 0,-0.3572 -40.0000004,0 z m 0,0.7738 0,0.3572 40.0000004,0 0,-0.3572 -40.0000004,0 z m 0,0.7441 0,0.3571 40.0000004,0 0,-0.3571 -40.0000004,0 z m 0,0.7738 0,0.3571 40.0000004,0 0,-0.3571 -40.0000004,0 z m 0,0.7738 0,0.3571 40.0000004,0 0,-0.3571 -40.0000004,0 z m 0,0.7738 0,0.3572 40.0000004,0 0,-0.3572 -40.0000004,0 z m 0,0.7441 0,0.3571 40.0000004,0 0,-0.3571 -40.0000004,0 z m 0,0.7738 0,0.3571 40.0000004,0 0,-0.3571 -40.0000004,0 z m 0,0.7738 0,0.3571 40.0000004,0 0,-0.3571 -40.0000004,0 z m 0,0.7738 0,0.3571 40.0000004,0 0,-0.3571 -40.0000004,0 z m 0,0.744 0,0.3869 40.0000004,0 0,-0.3869 -40.0000004,0 z m 0,0.7738 0,0.3572 40.0000004,0 0,-0.3572 -40.0000004,0 z m 0,0.7739 0,0.3571 40.0000004,0 0,-0.3571 -40.0000004,0 z m 0,0.7738 0,0.3571 40.0000004,0 0,-0.3571 -40.0000004,0 z m 0,0.7738 0,0.3571 40.0000004,0 0,-0.3571 -40.0000004,0 z m 0,0.744 0,0.3572 40.0000004,0 0,-0.3572 -40.0000004,0 z m 0,0.7738 0,0.3572 40.0000004,0 0,-0.3572 -40.0000004,0 z m 0,0.7738 0,0.3572 40.0000004,0 0,-0.3572 -40.0000004,0 z m 0,0.7738 0,0.3572 40.0000004,0 0,-0.3572 -40.0000004,0 z m 0,0.7441 0,0.3571 40.0000004,0 0,-0.3571 -40.0000004,0 z m 0,0.7738 0,0.3571 40.0000004,0 0,-0.3571 -40.0000004,0 z m 0,0.7738 0,0.3572 40.0000004,0 0,-0.3572 -40.0000004,0 z m 0,0.7738 0,0.3572 40.0000004,0 0,-0.3572 -40.0000004,0 z m 0,0.7441 0,0.3571 40.0000004,0 0,-0.3571 -40.0000004,0 z m 0,0.7738 0,0.3571 40.0000004,0 0,-0.3571 -40.0000004,0 z m 0.029762,0.7738 c 0.016098,0.1245 0.017009,0.2433 0.059524,0.3571 l 39.8214297,0 c 0.04251,-0.1138 0.04342,-0.2326 0.05952,-0.3571 l -39.9404775,0 z m 0.327381,0.7738 c 0.1031472,0.1302 0.2190999,0.264 0.3571428,0.3571 l 38.5714297,0 c 0.138043,-0.093 0.253995,-0.2269 0.357143,-0.3571 l -39.2857155,0 z" opacity=".23"/><path id="rect1173" fill="url(#linearGradient1184)" fill-opacity="1" stroke="none" d="m 5.6071425,1008.3622 c -0.8977311,0 -1.6071429,0.7094 -1.6071429,1.6071 l 0,1.1905 c 0,-0.8977 0.7094118,-1.6071 1.6071429,-1.6071 l 36.7857155,0 c 0.897731,0 1.607142,0.7094 1.607142,1.6071 l 0,-1.1905 c 0,-0.8977 -0.709411,-1.6071 -1.607142,-1.6071 l -36.7857155,0 z"/><path id="path1186" fill="url(#linearGradient1188)" fill-opacity="1" stroke="none" d="m 5.6071425,1048.3622 c -0.8977311,0 -1.6071429,-0.7094 -1.6071429,-1.6071 l 0,-1.1905 c 0,0.8977 0.7094118,1.6071 1.6071429,1.6071 l 36.7857155,0 c 0.897731,0 1.607142,-0.7094 1.607142,-1.6071 l 0,1.1905 c 0,0.8977 -0.709411,1.6071 -1.607142,1.6071 l -36.7857155,0 z"/><path id="path1190" fill="url(#linearGradient1192)" fill-opacity="1" stroke="none" d="m 44,1046.7551 c 0,0.8977 -0.709428,1.6071 -1.607142,1.6071 l -1.190477,0 c 0.897715,0 1.607143,-0.7094 1.607143,-1.6071 l 0,-36.7858 c 0,-0.8978 -0.709428,-1.6071 -1.607143,-1.6071 l 1.190477,0 c 0.897714,0 1.607142,0.7093 1.607142,1.6071 l 0,36.7858 z"/><path id="path1194" fill="url(#linearGradient1196)" fill-opacity="1" stroke="none" d="m 3.9999996,1046.7551 c 0,0.8977 0.7094286,1.6071 1.6071429,1.6071 l 1.1904762,0 c -0.8977143,0 -1.6071429,-0.7094 -1.6071429,-1.6071 l 0,-36.7858 c 0,-0.8978 0.7094286,-1.6071 1.6071429,-1.6071 l -1.1904762,0 c -0.8977143,0 -1.6071429,0.7093 -1.6071429,1.6071 l 0,36.7858 z"/></g></svg>