<svg xmlns="http://www.w3.org/2000/svg" xmlns:svg="http://www.w3.org/2000/svg" xmlns:xlink="http://www.w3.org/1999/xlink" id="svg2" width="48" height="48" version="1.1"><defs id="defs4"><linearGradient id="linearGradient4887"><stop id="stop4889" offset="0" stop-color="#000" stop-opacity="0"/><stop id="stop4895" offset=".9" stop-color="#000" stop-opacity=".184"/><stop id="stop4891" offset="1" stop-color="#000" stop-opacity="0"/></linearGradient><linearGradient id="linearGradient1234"><stop id="stop1236" offset="0" stop-color="#fff" stop-opacity="1"/><stop id="stop1238" offset="1" stop-color="#fff" stop-opacity="0"/></linearGradient><linearGradient id="linearGradient1208"><stop id="stop1210" offset="0" stop-color="#fff" stop-opacity="1"/><stop id="stop1212" offset="1" stop-color="#fff" stop-opacity="0"/></linearGradient><linearGradient id="linearGradient1197"><stop id="stop1199" offset="0" stop-color="#81ddfc" stop-opacity="1"/><stop id="stop1201" offset="1" stop-color="#3ab7e3" stop-opacity="0"/></linearGradient><linearGradient id="linearGradient1185"><stop id="stop1187" offset="0" stop-color="#0e4e8e" stop-opacity="1"/><stop id="stop1189" offset="1" stop-color="#099ef7" stop-opacity="1"/></linearGradient><linearGradient id="linearGradient4164"><stop id="stop4166" offset="0" stop-color="#f66201" stop-opacity="1"/><stop id="stop4168" offset="1" stop-color="#fef2a4" stop-opacity="1"/></linearGradient><linearGradient id="linearGradient4150"><stop id="stop4152" offset="0" stop-color="#c90e0d" stop-opacity="1"/><stop id="stop4154" offset="1" stop-color="#ef6881" stop-opacity="1"/></linearGradient><linearGradient id="linearGradient4132"><stop id="stop4134" offset="0" stop-color="#128300" stop-opacity="1"/><stop id="stop4136" offset="1" stop-color="#4ed451" stop-opacity="1"/></linearGradient><linearGradient id="linearGradient1183" x1="96.075" x2="96.075" y1="53.706" y2="117.208" gradientUnits="userSpaceOnUse" xlink:href="#linearGradient1185"/><radialGradient id="radialGradient1195" cx="84.716" cy="95.128" r="31.236" fx="84.716" fy="95.128" gradientUnits="userSpaceOnUse" xlink:href="#linearGradient1197"/><linearGradient id="linearGradient1214" x1="24" x2="24" y1="36.5" y2="28" gradientTransform="matrix(1.1327435,0,0,1.1327435,-3.2389397,1001.0524)" gradientUnits="userSpaceOnUse" xlink:href="#linearGradient1208"/><linearGradient id="linearGradient1240" x1="84.551" x2="84.551" y1="116.297" y2="70.276" gradientUnits="userSpaceOnUse" xlink:href="#linearGradient1234"/><radialGradient id="radialGradient4095" cx="84.716" cy="95.128" r="31.236" fx="84.716" fy="95.128" gradientUnits="userSpaceOnUse" xlink:href="#linearGradient1197"/><linearGradient id="linearGradient4830" x1="43.487" x2="43.487" y1="47.989" y2="12.026" gradientUnits="userSpaceOnUse" xlink:href="#linearGradient4164"/><linearGradient id="linearGradient4838" x1="23.698" x2="23.698" y1="1032.408" y2="1004.412" gradientTransform="translate(0,0.0036)" gradientUnits="userSpaceOnUse" xlink:href="#linearGradient4150"/><linearGradient id="linearGradient4846" x1="12.666" x2="12.666" y1="48.019" y2="5.996" gradientUnits="userSpaceOnUse" xlink:href="#linearGradient4132"/><radialGradient id="radialGradient4893" cx="85.314" cy="85.712" r="31.236" fx="85.314" fy="85.712" gradientUnits="userSpaceOnUse" xlink:href="#linearGradient4887"/></defs><metadata id="metadata7"/><g id="layer1" transform="translate(0,-1004.3622)"><g id="g3286"><path id="path906" fill="#000"/><rect id="rect2991-1-7" width="48" height="48" x="0" y="-1052.362" fill="#fff" fill-opacity="1" stroke="none" ry="1.945" transform="scale(1,-1)"/><path id="path4711" fill="#04426c" fill-opacity="1" stroke="none" d="m 34.846974,22.832741 c 0,5.849108 -4.741639,10.590747 -10.590747,10.590747 -5.849107,0 -10.590746,-4.741639 -10.590746,-10.590747 0,-5.849108 4.741639,-10.590747 10.590746,-10.590747 5.849108,0 10.590747,4.741639 10.590747,10.590747 z" transform="matrix(0.94422056,0,0,0.94422056,1.0967722,1006.803)"/><circle id="circle1181" cx="85.314" cy="85.712" r="31.236" fill="url(#linearGradient1183)" fill-opacity="1" d="m 116.55,85.711998 c 0,17.251162 -13.98483,31.236002 -31.235997,31.236002 -17.251166,0 -31.236,-13.98484 -31.236,-31.236002 0,-17.251166 13.984834,-31.236 31.236,-31.236 17.251167,0 31.235997,13.984834 31.235997,31.236 z" transform="matrix(0.28812909,0,0,-0.28812909,-0.58144662,1053.0583)"/><circle id="circle1191" cx="85.314" cy="85.712" r="31.236" fill="url(#radialGradient1195)" fill-opacity="1" d="m 116.55,85.711998 c 0,17.251162 -13.98483,31.236002 -31.235997,31.236002 -17.251166,0 -31.236,-13.98484 -31.236,-31.236002 0,-17.251166 13.984834,-31.236 31.236,-31.236 17.251167,0 31.235997,13.984834 31.235997,31.236 z" transform="matrix(0.32014344,0,0,-0.32014344,-3.3127182,1055.8023)"/><path id="rect4784" fill="url(#linearGradient4830)" fill-opacity="1" stroke="none" d="m 23.900391,12 0,0.0059 C 23.933977,12.005542 23.966348,12 24,12 Z M 24,12 c 6.627417,0 12,5.372583 12,12 0,2.644012 -0.865703,5.079398 -2.314453,7.0625 l -0.0039,0.0059 L 24.099609,48 46.054688,48 C 47.131965,48 48,47.131965 48,46.054688 L 48,12 Z" transform="translate(0,1004.3622)"/><path id="path4789" fill="url(#linearGradient4838)" fill-opacity="1" stroke="none" d="m 1.9452876,1004.3695 c -1.07727728,0 -1.945312575,0.8758 -1.945312575,1.9531 l 0,4.0432 12.689452975,21.9785 0.002,0 c 0.007,0.02 0.0163,0.039 0.02344,0.059 -0.453453,-1.2644 -0.714844,-2.6206 -0.714844,-4.041 0,-6.4058 5.023511,-11.624 11.34375,-11.9668 0.182699,-0.018 0.368869,-0.024 0.556641,-0.027 l 0,-0.01 0.09961,0 12,0 12,0 0,-10.0432 c 0,-1.0773 -0.868035,-1.9531 -1.945312,-1.9531 z m 31.2187494,16.258 c 0.07894,0.093 0.154364,0.1895 0.230469,0.2852 -0.0761,-0.096 -0.15153,-0.1918 -0.230469,-0.2852 z m 0.664063,0.8653 c 0.06148,0.088 0.124423,0.1742 0.183594,0.2636 -0.05923,-0.089 -0.12205,-0.1758 -0.183594,-0.2636 z"/><path id="path4870" fill="#000" fill-opacity=".118" stroke="none" d="M 0 5.5996094 L 0 6 L 12.591797 27.810547 C 12.601146 27.804483 12.610731 27.798759 12.621094 27.792969 C 12.442988 27.25861 12.306894 26.706473 12.203125 26.142578 C 12.19785 26.114344 12.190623 26.086897 12.185547 26.058594 C 12.128721 25.73677 12.083088 25.410277 12.052734 25.080078 C 12.051626 25.068274 12.049901 25.056737 12.048828 25.044922 C 12.018207 24.700449 12 24.352632 12 24 C 12 23.999343 12 23.998704 12 23.998047 C 12 23.99739 12 23.996751 12 23.996094 C 12 23.987508 12.001935 23.979285 12.001953 23.970703 C 12.002858 23.598799 12.022454 23.232214 12.056641 22.869141 C 12.068074 22.746705 12.088427 22.627188 12.103516 22.505859 C 12.133119 22.269433 12.163816 22.032684 12.207031 21.800781 C 12.238569 21.630587 12.279708 21.464447 12.318359 21.296875 C 12.360151 21.116571 12.401328 20.936842 12.451172 20.759766 C 12.502609 20.576239 12.561244 20.396633 12.621094 20.216797 C 12.6693 20.072471 12.717992 19.928936 12.771484 19.787109 C 12.849662 19.57918 12.932254 19.374106 13.021484 19.171875 C 13.067183 19.068526 13.115557 18.967033 13.164062 18.865234 C 13.265005 18.652994 13.369577 18.443409 13.482422 18.238281 C 13.533036 18.14637 13.587699 18.057228 13.640625 17.966797 C 13.766585 17.751461 13.894446 17.538521 14.033203 17.332031 C 14.058514 17.294332 14.085605 17.2581 14.111328 17.220703 C 14.274978 16.983037 14.443091 16.748278 14.623047 16.523438 L 0 5.5996094 z" transform="translate(0,1004.3622)"/><path id="path4797" fill="url(#linearGradient4846)" fill-opacity="1" stroke="none" d="M 0 6 L 0 46.054688 C 0 47.131965 0.86803535 48 1.9453125 48 L 24.099609 48 L 33.685547 31.0625 C 31.502894 34.050194 27.983405 36 24 36 C 22.594686 36 21.251258 35.746613 19.998047 35.302734 C 19.996747 35.301534 19.993387 35.302242 19.992188 35.300781 C 19.986888 35.298881 19.981833 35.296822 19.976562 35.294922 C 19.564435 35.148058 19.163383 34.978313 18.773438 34.789062 C 18.758997 34.782063 18.744869 34.774638 18.730469 34.767578 C 18.334757 34.573562 17.951771 34.361787 17.582031 34.126953 C 16.080709 33.173416 14.809608 31.898154 13.859375 30.394531 C 13.621691 30.018427 13.40643 29.629371 13.210938 29.226562 C 13.015455 28.823775 12.841615 28.408825 12.691406 27.982422 L 12.689453 27.978516 L 0 6 z" transform="translate(0,1004.3622)"/><circle id="circle4883" cx="85.314" cy="85.712" r="31.236" fill="url(#radialGradient4893)" fill-opacity="1" d="m 116.55,85.711998 c 0,17.251162 -13.98483,31.236002 -31.235997,31.236002 -17.251166,0 -31.236,-13.98484 -31.236,-31.236002 0,-17.251166 13.984834,-31.236 31.236,-31.236 17.251167,0 31.235997,13.984834 31.235997,31.236 z" transform="matrix(0.4482008,0,0,-0.4482008,-14.237804,1066.7783)"/><path id="path7515-7" fill="#fff" fill-opacity=".537" stroke="none" d="m 2.5312441,1005.0185 c -0.91709,0 -1.67115,0.6395 -1.84375,1.5 0.33561,-0.2799 0.77451,-0.4375 1.25,-0.4375 l 44.1249999,0 c 0.47549,0 0.91439,0.1576 1.25,0.4375 -0.1726,-0.8605 -0.92666,-1.5 -1.84375,-1.5 L 2.5312441,1005.0185 Z"/><path id="circle1203" fill="url(#linearGradient1214)" fill-opacity="1" d="m 34,1029.1233 c -1.82421,3.6962 -5.616995,6.2655 -10.017699,6.2655 -4.386985,0 -8.151467,-2.5526 -9.982301,-6.2302 0.432934,5.15 4.720467,9.2036 9.982301,9.2036 C 29.256292,1038.3622 33.584069,1034.2902 34,1029.1233 Z" opacity=".35"/><circle id="circle1224" cx="85.314" cy="85.712" r="31.236" fill="url(#linearGradient1240)" fill-opacity="1" d="m 116.55,85.711998 c 0,17.251162 -13.98483,31.236002 -31.235997,31.236002 -17.251166,0 -31.236,-13.98484 -31.236,-31.236002 0,-17.251166 13.984834,-31.236 31.236,-31.236 17.251167,0 31.235997,13.984834 31.235997,31.236 z" opacity=".63" transform="matrix(0.24010758,0,0,-0.19208606,3.515461,1041.8263)"/><circle id="circle1218" cx="85.314" cy="85.712" r="31.236" fill="url(#radialGradient4095)" fill-opacity="1" d="m 116.55,85.711998 c 0,17.251162 -13.98483,31.236002 -31.235997,31.236002 -17.251166,0 -31.236,-13.98484 -31.236,-31.236002 0,-17.251166 13.984834,-31.236 31.236,-31.236 17.251167,0 31.235997,13.984834 31.235997,31.236 z" transform="matrix(0.32014344,0,0,-0.32014344,-3.3127182,1055.8023)"/><path id="path4850" fill="#000" fill-opacity=".118" stroke="none" d="M 33.685547 31.0625 C 31.521009 34.025397 28.040304 35.962106 24.097656 35.994141 L 24.097656 48 L 24.099609 48 L 33.685547 31.0625 z" transform="translate(0,1004.3622)"/><path id="rect4280" fill="#000" fill-opacity=".392" stroke="none" d="m 1.9374941,1004.3622 c -1.07728,0 -1.9375000010071,0.8602 -1.9375000010071,1.9375 l 0,43.0625 c 0,0.7934 0.4800200010071,1.449 1.1562500010071,1.75 -0.30934,-0.3333 -0.5,-0.7824 -0.5,-1.2812 l 0,-42.9375 c 0,-1.0482 0.8269,-1.875 1.875,-1.875 l 42.9374999,0 c 1.0481,0 1.875,0.8268 1.875,1.875 l 0,42.9375 c 0,0.4988 -0.19066,0.9479 -0.5,1.2812 0.67623,-0.301 1.15625,-0.9566 1.15625,-1.75 l 0,-43.0625 c 0,-1.0773 -0.86022,-1.9375 -1.9375,-1.9375 L 1.9374941,1004.3622 Z"/><path id="path4863" fill="#000" fill-opacity=".118" stroke="none" d="M 24.238281 12 C 24.272516 12.003689 24.305651 12.01357 24.339844 12.017578 C 28.488831 12.134083 32.103652 14.351005 34.167969 17.648438 L 48 12 L 47.998047 12 L 24.238281 12 z" transform="translate(0,1004.3622)"/><path id="path1347" fill="#fff" fill-opacity=".341" d="m 1.40625,1006.1747 c -0.267241,0.072 -0.513511,0.1726 -0.71875,0.3438 -0.02466,0.1229 -0.03125,0.2439 -0.03125,0.375 l 0,42.9375 c 0,0.4988 0.190659,0.9479 0.5,1.2812 -0.169057,-0.075 -0.328654,-0.1651 -0.46875,-0.2812 0.153821,0.759 0.740655,1.3462 1.5,1.5 l 0.03125,0 c 0.117587,0.022 0.250638,0.031 0.375,0.031 l 0.75,0 c -0.124362,0 -0.257413,-0.01 -0.375,-0.031 l -0.03125,0 c -0.769406,-0.1558 -1.355655,-0.7576 -1.5,-1.5313 -0.02582,-0.1268 -0.03125,-0.2403 -0.03125,-0.375 l 0,-44.125 C 1.40625,1006.2577 1.403728,1006.2161 1.40625,1006.1747 z m 45.1875,0 c 0.0025,0.041 0,0.083 0,0.125 l 0,44.125 c 0,0.1347 -0.0054,0.2482 -0.03125,0.375 -0.144346,0.7737 -0.730594,1.3755 -1.5,1.5313 l -0.03125,0 c -0.117587,0.021 -0.250638,0.031 -0.375,0.031 l 0.75,0 c 0.124362,0 0.257413,-0.01 0.375,-0.031 l 0.03125,0 c 0.759345,-0.1538 1.346179,-0.741 1.5,-1.5 -0.140096,0.1161 -0.299694,0.206 -0.46875,0.2812 0.309342,-0.3333 0.5,-0.7824 0.5,-1.2812 l 0,-42.9375 c 0,-0.1311 -0.0066,-0.2521 -0.03125,-0.375 C 47.107257,1006.3473 46.860989,1006.2463 46.59375,1006.1747 Z"/><path id="rect846-4" fill="#000" fill-opacity="1" stroke="none" d="m -5.9010071e-6,1049.3622 0,1.0625 c 0,1.0773 0.8602200010071,1.9375 1.9375000010071,1.9375 l 44.1249999,0 c 1.07728,0 1.9375,-0.8602 1.9375,-1.9375 l 0,-1.0625 c 0,1.0773 -0.86022,1.9375 -1.9375,1.9375 l -44.1249999,0 C 0.8602141,1051.2997 -5.9010071e-6,1050.4395 -5.9010071e-6,1049.3622 Z"/><path id="circle4906" fill="#000" fill-opacity=".059" d="M 24 10 C 16.268013 10 10 16.268013 10 24 C 10 31.731987 16.268013 38 24 38 C 31.731987 38 38 31.731987 38 24 C 38 16.268013 31.731987 10 24 10 z M 24 12 C 30.627417 12 36 17.372583 36 24 C 36 30.627417 30.627417 36 24 36 C 17.372583 36 12 30.627417 12 24 C 12 17.372583 17.372583 12 24 12 z" transform="translate(0,1004.3622)"/><path id="path4911" fill="#000" fill-opacity=".235" stroke="none" d="M 0.13867188 6.2421875 L 12.591797 27.810547 C 12.601146 27.804483 12.610731 27.798759 12.621094 27.792969 C 12.442988 27.25861 12.306894 26.706473 12.203125 26.142578 C 12.19785 26.114344 12.190623 26.086897 12.185547 26.058594 C 12.161052 25.91987 12.148915 25.7771 12.128906 25.636719 L 1.328125 6.9277344 L 0.13867188 6.2421875 z" transform="translate(0,1004.3622)"/><path id="path4916" fill="#000" fill-opacity=".235" stroke="none" d="M 24.238281 12 C 24.272516 12.003689 24.305651 12.01357 24.339844 12.017578 C 25.590907 12.052708 26.784094 12.298379 27.910156 12.6875 L 46.316406 12.6875 L 48 12 L 24.238281 12 z" transform="translate(0,1004.3622)"/><path id="path4923" fill="#000" fill-opacity=".235" stroke="none" d="M 33.685547 31.0625 C 33.200756 31.726099 32.640441 32.328129 32.033203 32.878906 L 24.097656 46.625 L 24.097656 48 L 24.197266 47.828125 L 33.685547 31.0625 z" transform="translate(0,1004.3622)"/></g></g></svg>