<svg xmlns="http://www.w3.org/2000/svg" xmlns:svg="http://www.w3.org/2000/svg" xmlns:xlink="http://www.w3.org/1999/xlink" id="svg2" width="48" height="48" version="1.1"><defs id="defs4"><linearGradient id="linearGradient1109"><stop id="stop1111" offset="0" stop-color="#42c7e6" stop-opacity="1"/><stop id="stop1113" offset="1" stop-color="#1a69bc" stop-opacity="1"/></linearGradient><linearGradient id="linearGradient1099"><stop id="stop1101" offset="0" stop-color="#1a1a1a" stop-opacity="1"/><stop id="stop1103" offset="1" stop-color="#666" stop-opacity="1"/></linearGradient><linearGradient id="linearGradient1359" x1="70.217" x2="70.217" y1="5.538" y2="12.385" gradientTransform="matrix(1.0809848,0,0,1.088837,-64.943137,1003.8066)" gradientUnits="userSpaceOnUse" xlink:href="#linearGradient1445"/><linearGradient id="linearGradient1445"><stop id="stop1447" offset="0" stop-color="#838383" stop-opacity="1"/><stop id="stop1449" offset="1" stop-color="#000" stop-opacity="1"/></linearGradient><radialGradient id="radialGradient1315" cx="63.264" cy="10.236" r="1.569" fx="63.264" fy="10.236" gradientUnits="userSpaceOnUse" xlink:href="#linearGradient1414"/><linearGradient id="linearGradient1414"><stop id="stop1416" offset="0" stop-color="#fff" stop-opacity="1"/><stop id="stop1418" offset="1" stop-color="#999" stop-opacity="1"/></linearGradient><linearGradient id="linearGradient1323" x1="62.778" x2="62.778" y1="12.335" y2="8.424" gradientUnits="userSpaceOnUse" xlink:href="#linearGradient1325"/><linearGradient id="linearGradient1325"><stop id="stop1327" offset="0" stop-color="#959595" stop-opacity="1"/><stop id="stop1329" offset="1" stop-color="#000" stop-opacity="1"/></linearGradient><linearGradient id="linearGradient1408"><stop id="stop1410" offset="0" stop-color="#ccc" stop-opacity="1"/><stop id="stop1412" offset="1" stop-color="#999" stop-opacity="1"/></linearGradient><linearGradient id="linearGradient1481" x1="69.774" x2="69.774" y1="-.977" y2="8.215" gradientTransform="matrix(1.0809848,0,0,1.088837,-64.884017,-0.6237)" gradientUnits="userSpaceOnUse" xlink:href="#linearGradient1445"/><linearGradient id="linearGradient2140" x1="361.026" x2="361.026" y1="-358.313" y2="-352.563" gradientTransform="matrix(1.0809848,0,0,1.088837,-372.79098,1396.6677)" gradientUnits="userSpaceOnUse" xlink:href="#linearGradient1414"/><linearGradient id="linearGradient2148" x1="362.236" x2="362.236" y1="-350.242" y2="-360.875" gradientTransform="matrix(1.0809848,0,0,-1.088837,-372.74031,628.93414)" gradientUnits="userSpaceOnUse" xlink:href="#linearGradient1414"/><linearGradient id="linearGradient2157" x1="361.026" x2="361.026" y1="-361.813" y2="-352.563" gradientTransform="matrix(1.0809848,0,0,1.088837,-364.75116,1396.6677)" gradientUnits="userSpaceOnUse" xlink:href="#linearGradient1445"/><linearGradient id="linearGradient2159" x1="362.236" x2="362.236" y1="-350.033" y2="-356.783" gradientTransform="matrix(1.0809848,0,0,-1.088837,-364.47892,628.93414)" gradientUnits="userSpaceOnUse" xlink:href="#linearGradient1445"/><linearGradient id="linearGradient2169" x1="361.026" x2="361.026" y1="-358.313" y2="-352.563" gradientTransform="matrix(1.0809848,0,0,1.088837,-356.62686,1396.6677)" gradientUnits="userSpaceOnUse" xlink:href="#linearGradient1414"/><linearGradient id="linearGradient2171" x1="362.236" x2="362.236" y1="-350.242" y2="-360.875" gradientTransform="matrix(1.0809848,0,0,-1.088837,-356.5762,628.93414)" gradientUnits="userSpaceOnUse" xlink:href="#linearGradient1414"/><linearGradient id="linearGradient2177" x1="361.026" x2="361.026" y1="-361.813" y2="-352.563" gradientTransform="matrix(1.0809848,0,0,1.088837,-348.49178,392.3055)" gradientUnits="userSpaceOnUse" xlink:href="#linearGradient1445"/><linearGradient id="linearGradient2179" x1="362.236" x2="362.236" y1="-350.033" y2="-356.783" gradientTransform="matrix(1.0809848,0,0,-1.088837,-348.4411,-375.42806)" gradientUnits="userSpaceOnUse" xlink:href="#linearGradient1445"/><linearGradient id="linearGradient2189" x1="361.026" x2="361.026" y1="-358.313" y2="-352.563" gradientTransform="matrix(1.0809848,0,0,1.088837,-340.34877,392.3055)" gradientUnits="userSpaceOnUse" xlink:href="#linearGradient1414"/><linearGradient id="linearGradient2191" x1="362.236" x2="362.236" y1="-350.242" y2="-360.875" gradientTransform="matrix(1.0809848,0,0,-1.088837,-340.29811,-375.42806)" gradientUnits="userSpaceOnUse" xlink:href="#linearGradient1414"/><linearGradient id="linearGradient2257" x1="24.114" x2="24.114" y1="1007.218" y2="1049.584" gradientTransform="matrix(1.0463902,0,0,1.1163425,-1.23905,-1123.074)" gradientUnits="userSpaceOnUse" xlink:href="#linearGradient1408"/><linearGradient id="linearGradient1128" x1="22.625" x2="22.625" y1="-1051.862" y2="-1004.362" gradientUnits="userSpaceOnUse" xlink:href="#linearGradient1099"/><radialGradient id="radialGradient1134" cx="24" cy="1036.612" r="21" fx="24" fy="1036.612" gradientTransform="matrix(1.3452381,-3.2415386e-8,2.3809531e-8,0.98809523,-8.2857386,12.340635)" gradientUnits="userSpaceOnUse" xlink:href="#linearGradient1109"/></defs><metadata id="metadata7"/><g id="layer1" transform="translate(0,-1004.3622)"><rect id="rect2991-1" width="48" height="48" x="0" y="-1052.362" fill="url(#linearGradient1128)" fill-opacity="1" stroke="none" ry="1.945" transform="scale(1,-1)"/><path id="rect846" fill="#000" fill-opacity="1" stroke="none" d="m -9.7813415e-8,1049.3622 0,1.0625 c 0,1.0773 0.860222897813415,1.9375 1.937499897813415,1.9375 l 44.1250002,0 c 1.077277,0 1.9375,-0.8602 1.9375,-1.9375 l 0,-1.0625 c 0,1.0773 -0.860223,1.9375 -1.9375,1.9375 l -44.1250002,0 C 0.8602228,1051.2997 -9.7813415e-8,1050.4395 -9.7813415e-8,1049.3622 Z"/><path id="path2165" fill="url(#linearGradient2169)" fill-opacity="1" stroke="none" d="m 24.419573,1005.0277 7.702018,7.7921 8.141165,0 -7.668235,-7.7921 L 24.419573,1005.0277 Z"/><path id="path2173" fill="url(#linearGradient2177)" fill-opacity="1" stroke="none" d="M 32.5625 0.65625 L 40.25 8.46875 L 47.34375 8.46875 L 47.34375 7.375 L 40.75 0.65625 L 32.5625 0.65625 z" transform="translate(0,1004.3622)"/><path id="path2185" fill="url(#linearGradient2189)" fill-opacity="1" stroke="none" d="M 40.6875 0.65625 L 47.34375 7.375 L 47.34375 2.53125 C 47.34375 1.48305 46.516851 0.65625 45.46875 0.65625 L 40.6875 0.65625 z" transform="translate(0,1004.3622)"/><path id="path1363" fill="url(#linearGradient1481)" fill-opacity="1" stroke="none" d="M 2.53125 0.65625 C 1.7713768 0.65625 1.1402667 1.0802812 0.84375 1.71875 L 7.3125 8.3125 L 7.3125 8.46875 L 15.96875 8.46875 L 8.25 0.65625 L 4.59375 0.65625 L 2.53125 0.65625 z" transform="translate(0,1004.3622)"/><path id="path2132" fill="url(#linearGradient2140)" fill-opacity="1" stroke="none" d="m 8.272362,1005.0277 7.668237,7.7921 8.141167,0 -7.668237,-7.7921 L 8.272362,1005.0277 Z"/><path id="path2153" fill="url(#linearGradient2157)" fill-opacity="1" stroke="none" d="m 16.312187,1005.0277 7.668236,7.7921 8.141168,0 -7.668237,-7.7921 L 16.312187,1005.0277 Z"/><path id="rect2246" fill="url(#linearGradient2257)" fill-opacity="1" stroke="none" d="M 0.84375 1.71875 C 0.73127814 1.9609278 0.65625 2.242995 0.65625 2.53125 L 0.65625 17.1875 L 7.3125 17.1875 L 7.3125 8.3125 L 0.84375 1.71875 z" transform="translate(0,1004.3622)"/><g id="g2250" transform="matrix(1.0809848,0,0,-1.088837,-309.4953,1727.2645)"><path id="path1222" fill="url(#linearGradient1323)" fill-opacity="1" stroke="none" d="m 64.832851,10.236078 c 0,0.866476 -0.702417,1.568893 -1.568893,1.568893 -0.866476,0 -1.568893,-0.702417 -1.568893,-1.568893 0,-0.8664755 0.702417,-1.5688929 1.568893,-1.5688929 0.866476,0 1.568893,0.7024174 1.568893,1.5688929 z" transform="translate(226.73057,644.02194)"/><path id="path1224" fill="url(#radialGradient1315)" fill-opacity="1" stroke="none" d="m 64.832851,10.236078 c 0,0.866476 -0.702417,1.568893 -1.568893,1.568893 -0.866476,0 -1.568893,-0.702417 -1.568893,-1.568893 0,-0.8664755 0.702417,-1.5688929 1.568893,-1.5688929 0.866476,0 1.568893,0.7024174 1.568893,1.5688929 z" transform="matrix(0.83098592,0,0,0.83098592,237.42307,645.75194)"/></g><path id="path2167" fill="url(#linearGradient2171)" fill-opacity="1" stroke="none" d="m 32.156084,1012.7848 -8.647879,8.7787 8.174949,0 8.614098,-8.7787 L 32.156084,1012.7848 Z"/><path id="path2175" fill="url(#linearGradient2179)" fill-opacity="1" stroke="none" d="M 40.28125 8.4375 L 31.65625 17.1875 L 39.8125 17.1875 L 47.34375 9.53125 L 47.34375 8.4375 L 40.28125 8.4375 z" transform="translate(0,1004.3622)"/><path id="path2187" fill="url(#linearGradient2191)" fill-opacity="1" stroke="none" d="M 47.34375 9.53125 L 39.78125 17.1875 L 47.34375 17.1875 L 47.34375 9.53125 z" transform="translate(0,1004.3622)"/><path id="path1231" fill="url(#linearGradient1359)" fill-opacity="1" stroke="none" d="m 7.339278,1012.8235 -0.03373,8.7448 8.68166,-8.7448 L 7.339278,1012.8235 Z"/><path id="path2146" fill="url(#linearGradient2148)" fill-opacity="1" stroke="none" d="m 15.991979,1012.7848 -8.647879,8.7787 8.174947,0 8.614098,-8.7787 L 15.991979,1012.7848 Z"/><path id="path2155" fill="url(#linearGradient2159)" fill-opacity="1" stroke="none" d="m 24.137346,1012.7848 -8.647879,8.7787 8.290958,0 L 32.394524,1012.7848 Z"/><path id="path7515" fill="#fff" fill-opacity=".537" stroke="none" d="m 2.5312498,1005.0185 c -0.9170884,0 -1.6711467,0.6395 -1.8437499,1.5 0.335612,-0.2799 0.7745121,-0.4375 1.2499999,-0.4375 l 44.1250002,0 c 0.475488,0 0.914388,0.1576 1.25,0.4375 -0.172603,-0.8605 -0.926662,-1.5 -1.84375,-1.5 L 2.5312498,1005.0185 Z"/><path id="rect4280" fill="#000" fill-opacity=".392" stroke="none" d="m 1.9374998,1004.3622 c -1.0772769,0 -1.937499897813415,0.8602 -1.937499897813415,1.9375 l 0,43.0625 c 0,0.7934 0.480023597813415,1.449 1.156249897813415,1.75 -0.3093416,-0.3333 -0.4999999,-0.7824 -0.4999999,-1.2812 l 0,-42.9375 c 0,-1.0482 0.8268989,-1.875 1.8749999,-1.875 l 42.9375002,0 c 1.048101,0 1.875,0.8268 1.875,1.875 l 0,42.9375 c 0,0.4988 -0.190658,0.9479 -0.5,1.2812 0.676226,-0.301 1.15625,-0.9566 1.15625,-1.75 l 0,-43.0625 c 0,-1.0773 -0.860223,-1.9375 -1.9375,-1.9375 L 1.9374998,1004.3622 Z"/><rect id="rect1172" width="42.9" height="26.168" x="2.55" y="1023.528" fill="#000" fill-opacity="1" stroke="none" ry="1.06"/><rect id="rect1168" width="42.5" height="25.804" x="2.75" y="1023.71" fill="#75ebf6" fill-opacity="1" stroke="none" ry="1.045"/><rect id="rect1130" width="42" height="25.5" x="3" y="1023.862" fill="url(#radialGradient1134)" fill-opacity="1" stroke="none" ry="1.033"/><path id="rect1136" fill="#fff" fill-opacity=".314" fill-rule="nonzero" stroke="none" stroke-width=".2" d="M 8.53125 19.5 L 34 45 L 39.84375 45 L 14.34375 19.5 L 8.53125 19.5 z M 3 21.09375 L 3 26.90625 L 21.09375 45 L 26.90625 45 L 3 21.09375 z M 3 34.03125 L 3 39.84375 L 8.15625 45 L 13.96875 45 L 3 34.03125 z" color="#000" display="inline" enable-background="accumulate" overflow="visible" transform="translate(0,1004.3622)" visibility="visible" style="marker:none"/><path id="rect1148" fill="#fff" fill-opacity=".314" fill-rule="nonzero" stroke="none" stroke-width=".2" d="M 21.4375 19.5 L 45 43.0625 L 45 37.21875 L 27.28125 19.5 L 21.4375 19.5 z" color="#000" display="inline" enable-background="accumulate" overflow="visible" transform="translate(0,1004.3622)" visibility="visible" style="marker:none"/><path id="rect1152" fill="#fff" fill-opacity=".314" fill-rule="nonzero" stroke="none" stroke-width=".2" d="M 34.375 19.5 L 45 30.125 L 45 24.28125 L 40.21875 19.5 L 34.375 19.5 z" color="#000" display="inline" enable-background="accumulate" overflow="visible" transform="translate(0,1004.3622)" visibility="visible" style="marker:none"/></g></svg>