<svg xmlns="http://www.w3.org/2000/svg" xmlns:svg="http://www.w3.org/2000/svg" xmlns:xlink="http://www.w3.org/1999/xlink" id="svg2" width="48" height="48" version="1.1"><defs id="defs4"><linearGradient id="linearGradient4202"><stop id="stop4204" offset="0" stop-color="#b7fb5e" stop-opacity="1"/><stop id="stop4206" offset="1" stop-color="#87d645" stop-opacity="0"/></linearGradient><linearGradient id="linearGradient4192"><stop id="stop4194" offset="0" stop-color="#257b0c" stop-opacity="1"/><stop id="stop4196" offset="1" stop-color="#93e62f" stop-opacity="1"/></linearGradient><linearGradient id="linearGradient853"><stop id="stop855" offset="0" stop-color="#36b512" stop-opacity="1"/><stop id="stop857" offset="1" stop-color="#93e62f" stop-opacity="1"/></linearGradient><linearGradient id="linearGradient851" x1="25.102" x2="25.102" y1="1046.427" y2="1007.297" gradientTransform="matrix(0.86209653,0,0,0.78576239,3.3096818,221.41476)" gradientUnits="userSpaceOnUse" xlink:href="#linearGradient845"/><linearGradient id="linearGradient845"><stop id="stop847" offset="0" stop-color="#8eda68" stop-opacity="1"/><stop id="stop4243" offset=".5" stop-color="#d5f2c4" stop-opacity="1"/><stop id="stop849" offset="1" stop-color="#f0fbe5" stop-opacity="1"/></linearGradient><linearGradient id="linearGradient907"><stop id="stop909" offset="0" stop-color="#fff" stop-opacity="1"/><stop id="stop911" offset="1" stop-color="#fff" stop-opacity="0"/></linearGradient><linearGradient id="linearGradient1166" x1="27.931" x2="27.931" y1="-1052.366" y2="-1004.358" gradientTransform="translate(-2e-6,-1.8531406e-5)" gradientUnits="userSpaceOnUse" xlink:href="#linearGradient853"/><linearGradient id="linearGradient4174" x1="24.563" x2="24.563" y1="1027.815" y2="1022.706" gradientTransform="matrix(1.1009617,0,0,1.1009617,-2.4230786,-101.86706)" gradientUnits="userSpaceOnUse" xlink:href="#linearGradient4192"/><linearGradient id="linearGradient4190" x1="14.158" x2="14.158" y1="1022.713" y2="1025.158" gradientTransform="matrix(0.73402546,0,0,0.5134106,2.7367,499.63557)" gradientUnits="userSpaceOnUse" xlink:href="#linearGradient907"/><linearGradient id="linearGradient4200" x1="14.158" x2="14.158" y1="1022.713" y2="1026.39" gradientTransform="matrix(0.73402546,0,0,-0.5134106,2.7367,1554.5287)" gradientUnits="userSpaceOnUse" xlink:href="#linearGradient4202"/><linearGradient id="linearGradient4218" x1="14.158" x2="14.158" y1="1022.713" y2="1026.39" gradientTransform="matrix(0.73402546,0,0,-0.5134106,13.67829,1554.5287)" gradientUnits="userSpaceOnUse" xlink:href="#linearGradient4202"/><linearGradient id="linearGradient4220" x1="14.158" x2="14.158" y1="1022.713" y2="1025.158" gradientTransform="matrix(0.73402546,0,0,0.5134106,13.67829,499.63557)" gradientUnits="userSpaceOnUse" xlink:href="#linearGradient907"/><linearGradient id="linearGradient4226" x1="14.158" x2="14.158" y1="1022.713" y2="1025.158" gradientTransform="matrix(0.73402546,0,0,0.5134106,24.619877,499.63557)" gradientUnits="userSpaceOnUse" xlink:href="#linearGradient907"/><linearGradient id="linearGradient4228" x1="14.158" x2="14.158" y1="1022.713" y2="1026.39" gradientTransform="matrix(0.73402546,0,0,-0.5134106,13.67829,1554.5287)" gradientUnits="userSpaceOnUse" xlink:href="#linearGradient4202"/><linearGradient id="linearGradient4234" x1="24.563" x2="24.563" y1="1027.815" y2="1022.706" gradientTransform="matrix(1.1009617,0,0,1.1009617,-2.4230786,-101.86706)" gradientUnits="userSpaceOnUse" xlink:href="#linearGradient4192"/><linearGradient id="linearGradient4236" x1="24.563" x2="24.563" y1="1027.815" y2="1022.706" gradientTransform="matrix(1.1009617,0,0,1.1009617,-2.4230786,-101.86706)" gradientUnits="userSpaceOnUse" xlink:href="#linearGradient4192"/><linearGradient id="linearGradient4114" x1="14.158" x2="14.158" y1="1022.713" y2="1026.39" gradientTransform="matrix(0.73402546,0,0,-0.5134106,24.619878,1554.5287)" gradientUnits="userSpaceOnUse" xlink:href="#linearGradient4202"/></defs><metadata id="metadata7"/><g id="layer1" transform="translate(0,-1004.3622)"><rect id="rect2991-1-8" width="48" height="48" x="0" y="-1052.362" fill="url(#linearGradient1166)" fill-opacity="1" stroke="none" ry="1.945" transform="scale(1,-1)"/><path id="path4131" fill="#000" fill-opacity=".059" stroke="none" d="m 7.5174324,1014.1622 c -1.0256337,0 -1.8743714,0.7734 -1.8743714,1.7082 l 0,24.5416 c 0,0.9347 0.8487377,1.6813 1.8743714,1.6813 l 13.2693556,0 3.213209,2.8689 3.213209,-2.8689 13.269359,0 c 1.025634,0 1.874371,-0.7466 1.874371,-1.6813 l 0,-24.5416 C 42.356936,1014.9356 41.508199,1014.1622 40.482565,1014.1622 Z"/><path id="path4129" fill="#000" fill-opacity=".118" stroke="none" d="m 7.5174324,1013.7622 c -1.0256337,0 -1.8743714,0.7734 -1.8743714,1.7082 l 0,24.5416 c 0,0.9347 0.8487377,1.6813 1.8743714,1.6813 l 13.2693556,0 3.213209,2.8689 3.213209,-2.8689 13.269359,0 c 1.025634,0 1.874371,-0.7466 1.874371,-1.6813 l 0,-24.5416 C 42.356936,1014.5356 41.508199,1013.7622 40.482565,1013.7622 Z"/><path id="path4125" fill="#000" fill-opacity=".235" stroke="none" d="m 7.5174324,1013.3622 c -1.0256337,0 -1.8743714,0.7734 -1.8743714,1.7082 l 0,24.5416 c 0,0.9347 0.8487377,1.6813 1.8743714,1.6813 l 13.2693556,0 3.213209,2.8689 3.213209,-2.8689 13.269359,0 c 1.025634,0 1.874371,-0.7466 1.874371,-1.6813 l 0,-24.5416 C 42.356936,1014.1356 41.508199,1013.3622 40.482565,1013.3622 Z"/><path id="path7515-2" fill="#fff" fill-opacity=".537" stroke="none" d="m 2.531248,1005.0185 c -0.917089,0 -1.671147,0.6395 -1.84375,1.5 0.335612,-0.2799 0.774512,-0.4375 1.25,-0.4375 l 44.125004,0 c 0.47548,0 0.91438,0.1576 1.25,0.4375 -0.17261,-0.8605 -0.92667,-1.5 -1.84375,-1.5 L 2.531248,1005.0185 Z"/><path id="rect4280" fill="#000" fill-opacity=".392" stroke="none" d="m 1.937498,1004.3622 c -1.077277,0 -1.9375,0.8602 -1.9375,1.9375 l 0,43.0625 c 0,0.7934 0.480023,1.449 1.15625,1.75 -0.309342,-0.3333 -0.5,-0.7824 -0.5,-1.2812 l 0,-42.9375 c 0,-1.0482 0.826899,-1.875 1.875,-1.875 l 42.937504,0 c 1.0481,0 1.875,0.8268 1.875,1.875 l 0,42.9375 c 0,0.4988 -0.19066,0.9479 -0.5,1.2812 0.67622,-0.301 1.15625,-0.9566 1.15625,-1.75 l 0,-43.0625 c 0,-1.0773 -0.86023,-1.9375 -1.9375,-1.9375 L 1.937498,1004.3622 Z"/><path id="rect846-5" fill="#000" fill-opacity="1" stroke="none" d="m -2e-6,1049.3622 0,1.0625 c 0,1.0773 0.860223,1.9375 1.9375,1.9375 l 44.125004,0 c 1.07727,0 1.9375,-0.8602 1.9375,-1.9375 l 0,-1.0625 c 0,1.0773 -0.86023,1.9375 -1.9375,1.9375 l -44.125004,0 C 0.860221,1051.2997 -2e-6,1050.4395 -2e-6,1049.3622 Z"/><path id="path4116" fill="#fff" fill-opacity=".235" stroke="none" d="m 13.059409,1024.547 c -1.543884,0 -2.782036,1.238 -2.782036,2.7821 0,1.5437 1.238152,2.7819 2.782036,2.7819 1.543887,0 2.782036,-1.2382 2.782036,-2.7819 C 15.841445,1025.785 14.603295,1024.547 13.059409,1024.547 z m 10.94059,0 c -1.543884,0 -2.782035,1.238 -2.782035,2.7821 0,1.5437 1.238151,2.7819 2.782035,2.7819 1.543887,0 2.782036,-1.2382 2.782036,-2.7819 C 26.782035,1025.785 25.543886,1024.547 23.999999,1024.547 z m 10.940591,0 c -1.543885,0 -2.782036,1.238 -2.782036,2.7821 0,1.5437 1.238151,2.7819 2.782036,2.7819 1.543888,0 2.782036,-1.2382 2.782036,-2.7819 C 37.722625,1025.785 36.484479,1024.547 34.94059,1024.547 Z"/><g id="g4149"><path id="rect840" fill="url(#linearGradient851)" fill-opacity="1" stroke="none" d="m 7.5174324,1012.9622 c -1.0256337,0 -1.8743714,0.7734 -1.8743714,1.7082 l 0,24.5416 c 0,0.9347 0.8487377,1.6813 1.8743714,1.6813 l 13.2693556,0 3.213209,2.8689 3.213209,-2.8689 13.269359,0 c 1.025634,0 1.874371,-0.7466 1.874371,-1.6813 l 0,-24.5416 C 42.356936,1013.7356 41.508199,1012.9622 40.482565,1012.9622 Z"/><path id="path934" fill="#38b612" fill-opacity=".314" stroke="none" d="m 5.6425268,1038.0237 0,1.1859 c 0,0.9347 0.8536921,1.6614 1.8793268,1.6614 l 13.2642284,0 3.213917,2.8912 3.213919,-2.8912 13.264227,0 c 1.025636,0 1.879328,-0.7267 1.879328,-1.6614 l 0,-1.1859 c 0,0.9346 -0.853692,1.6612 -1.879328,1.6612 l -13.264227,0 -3.213919,2.8914 -3.213918,-2.8914 -13.2642274,0 C 6.4962189,1039.6849 5.6425268,1038.9583 5.6425268,1038.0237 Z" opacity=".89"/><path id="path4158" fill="#fff" fill-opacity=".502" stroke="none" d="m 40.482565,1012.9622 -32.9651326,0 c -1.0256337,0 -1.8743704,0.7734 -1.8743704,1.7082 l 0,0.8257 c 0,-0.9348 0.8487367,-1.7082 1.8743704,-1.7082 l 32.9651326,0 c 1.025634,0 1.874371,0.7734 1.874371,1.7082 l 0,-0.8257 C 42.356936,1013.7356 41.508199,1012.9622 40.482565,1012.9622 Z"/></g><path id="path4163" fill="#000" fill-opacity=".235" stroke="none" d="m 13.05841,1024.1317 c -1.543884,0 -2.792384,1.2484 -2.792384,2.7924 0,0.072 0.01561,0.1371 0.02077,0.2064 0.107244,-1.4455 1.298464,-2.586 2.771618,-2.586 1.473156,0 2.664374,1.1405 2.771618,2.586 0.0051,-0.07 0.02077,-0.1356 0.02077,-0.2064 C 15.850796,1025.3801 14.602296,1024.1317 13.05841,1024.1317 z m 10.941587,0 c -1.543884,0 -2.792382,1.2484 -2.792382,2.7924 0,0.072 0.01561,0.1371 0.02077,0.2064 0.107245,-1.4455 1.298462,-2.586 2.771617,-2.586 1.473159,0 2.664375,1.1405 2.771619,2.586 0.0051,-0.07 0.02077,-0.1356 0.02077,-0.2064 C 26.792383,1025.3801 25.543884,1024.1317 23.999997,1024.1317 z m 10.941589,0 c -1.543885,0 -2.792383,1.2484 -2.792383,2.7924 0,0.072 0.01561,0.1371 0.02077,0.2064 0.107244,-1.4455 1.298459,-2.586 2.771616,-2.586 1.473158,0 2.664374,1.1405 2.771619,2.586 0.0051,-0.07 0.02077,-0.1356 0.02077,-0.2064 C 37.733971,1025.3801 36.485475,1024.1317 34.941586,1024.1317 Z"/><g id="g4138"><path id="path4216" fill="url(#linearGradient4174)" fill-opacity="1" stroke="none" d="m 13.05841,1024.1317 c -1.543884,0 -2.792384,1.2484 -2.792384,2.7924 0,1.5438 1.2485,2.7922 2.792384,2.7922 1.543887,0 2.792386,-1.2484 2.792386,-2.7922 C 15.850796,1025.3801 14.602296,1024.1317 13.05841,1024.1317 Z"/><path id="path4182" fill="url(#linearGradient4190)" fill-opacity="1" stroke="none" d="m 13.05841,1024.7218 c -1.029328,0 -1.861719,0.5822 -1.861719,1.3022 0,0.7199 0.832391,1.3022 1.861719,1.3022 1.029328,0 1.861721,-0.5823 1.861721,-1.3022 C 14.920131,1025.304 14.087738,1024.7218 13.05841,1024.7218 Z"/><path id="path4198" fill="url(#linearGradient4200)" fill-opacity="1" stroke="none" d="m 13.05841,1029.4427 c -1.029328,0 -1.861719,-0.5823 -1.861719,-1.3023 0,-0.7199 0.832391,-1.3022 1.861719,-1.3022 1.029328,0 1.861721,0.5823 1.861721,1.3022 C 14.920131,1028.8604 14.087738,1029.4427 13.05841,1029.4427 Z"/></g><g id="g4143"><path id="path4214" fill="url(#linearGradient4236)" fill-opacity="1" stroke="none" d="m 23.999997,1024.1317 c -1.543884,0 -2.792382,1.2484 -2.792382,2.7924 0,1.5438 1.248498,2.7922 2.792382,2.7922 1.543887,0 2.792386,-1.2484 2.792386,-2.7922 C 26.792383,1025.3801 25.543884,1024.1317 23.999997,1024.1317 Z"/><path id="path4208" fill="url(#linearGradient4220)" fill-opacity="1" stroke="none" d="m 23.999997,1024.7218 c -1.029328,0 -1.861718,0.5822 -1.861718,1.3022 0,0.7199 0.83239,1.3022 1.861718,1.3022 1.029329,0 1.86172,-0.5823 1.86172,-1.3022 C 25.861718,1025.304 25.029326,1024.7218 23.999997,1024.7218 Z"/><path id="path4210" fill="url(#linearGradient4218)" fill-opacity="1" stroke="none" d="m 23.999997,1029.4427 c -1.029328,0 -1.861718,-0.5823 -1.861718,-1.3023 0,-0.7199 0.83239,-1.3022 1.861718,-1.3022 1.029329,0 1.86172,0.5823 1.86172,1.3022 C 25.861718,1028.8604 25.029326,1029.4427 23.999997,1029.4427 Z"/><path id="path4224" fill="url(#linearGradient4228)" fill-opacity="1" stroke="none" d="m 23.999999,1029.4427 c -1.029328,0 -1.861719,-0.5823 -1.861719,-1.3023 0,-0.7199 0.832391,-1.3022 1.861719,-1.3022 1.029328,0 1.861719,0.5823 1.861719,1.3022 C 25.861718,1028.8604 25.029327,1029.4427 23.999999,1029.4427 Z"/></g><g id="g4133"><path id="path997" fill="url(#linearGradient4234)" fill-opacity="1" stroke="none" d="m 34.941586,1024.1317 c -1.543885,0 -2.792382,1.2484 -2.792382,2.7924 0,1.5438 1.248498,2.7922 2.792383,2.7922 1.543888,0 2.792385,-1.2484 2.792385,-2.7922 C 37.733971,1025.3801 36.485475,1024.1317 34.941586,1024.1317 Z"/><path id="path4222" fill="url(#linearGradient4226)" fill-opacity="1" stroke="none" d="m 34.941587,1024.7218 c -1.029329,0 -1.861719,0.5822 -1.861719,1.3022 0,0.7199 0.83239,1.3022 1.861719,1.3022 1.029329,0 1.86172,-0.5823 1.86172,-1.3022 C 36.803308,1025.304 35.970916,1024.7218 34.941587,1024.7218 Z"/><path id="path4112" fill="url(#linearGradient4114)" fill-opacity="1" stroke="none" d="m 34.941588,1029.4427 c -1.029329,0 -1.86172,-0.5823 -1.86172,-1.3023 0,-0.7199 0.832391,-1.3022 1.86172,-1.3022 1.029328,0 1.861719,0.5823 1.861719,1.3022 C 36.803307,1028.8604 35.970916,1029.4427 34.941588,1029.4427 Z"/></g></g></svg>