<svg xmlns="http://www.w3.org/2000/svg" xmlns:svg="http://www.w3.org/2000/svg" xmlns:xlink="http://www.w3.org/1999/xlink" id="svg5453" width="48" height="48" version="1.1" viewBox="0 0 48 48"><defs id="defs5455"><linearGradient id="linearGradient4742"><stop id="stop4744" offset="0" stop-color="#e8ccec" stop-opacity="1"/><stop id="stop4746" offset="1" stop-color="#fbf8fc" stop-opacity="1"/></linearGradient><linearGradient id="linearGradient4652"><stop id="stop4654" offset="0" stop-color="#582761" stop-opacity="1"/><stop id="stop4656" offset="1" stop-color="#35103b" stop-opacity="1"/></linearGradient><linearGradient id="linearGradient4638"><stop id="stop4640" offset="0" stop-color="#4a1e51" stop-opacity="1"/><stop id="stop4642" offset="1" stop-color="#673870" stop-opacity="1"/></linearGradient><linearGradient id="linearGradient4644" x1="415.793" x2="415.793" y1="-547.8" y2="-499.793" gradientUnits="userSpaceOnUse" xlink:href="#linearGradient4638"/><linearGradient id="linearGradient4650" x1="415.793" x2="415.793" y1="-547.8" y2="-499.793" gradientTransform="matrix(0.83333336,0,0,0.83333336,68.09524,-87.299717)" gradientUnits="userSpaceOnUse" xlink:href="#linearGradient4652"/><linearGradient id="linearGradient4180-0" x1="36.802" x2="36.802" y1="41.361" y2="6.936" gradientTransform="matrix(0.86809247,0,0,0.86809243,385.66775,502.73169)" gradientUnits="userSpaceOnUse" xlink:href="#linearGradient4742"/><linearGradient id="linearGradient3795-1"><stop id="stop3797-1" offset="0" stop-color="#c58624" stop-opacity="1"/><stop id="stop3799-3" offset="1" stop-color="#e09825" stop-opacity="1"/></linearGradient><linearGradient id="linearGradient9248"><stop id="stop9250" offset="0" stop-color="#3a2415" stop-opacity="1"/><stop id="stop9286" offset=".25" stop-color="#61412b" stop-opacity="1"/><stop id="stop9256" offset=".5" stop-color="#805b42" stop-opacity="1"/><stop id="stop9258" offset=".75" stop-color="#936a4f" stop-opacity="1"/><stop id="stop9260" offset="1" stop-color="#bd8e6f" stop-opacity="1"/></linearGradient><linearGradient id="linearGradient8075"><stop id="stop8077" offset="0" stop-color="#07131d" stop-opacity="1"/><stop id="stop8081" offset=".5" stop-color="#53738f" stop-opacity="1"/><stop id="stop8085" offset=".75" stop-color="#88a8c4" stop-opacity="1"/><stop id="stop8079" offset="1" stop-color="#aaceeb" stop-opacity="1"/></linearGradient><linearGradient id="linearGradient4161"><stop id="stop4163" offset="0" stop-color="#000" stop-opacity="1"/><stop id="stop4173" offset=".25" stop-color="#151515" stop-opacity="1"/><stop id="stop4165" offset=".5" stop-color="#9e9e9e" stop-opacity="1"/><stop id="stop4167" offset=".75" stop-color="#fff" stop-opacity="1"/><stop id="stop4169" offset=".875" stop-color="#fff" stop-opacity="1"/><stop id="stop4171" offset="1" stop-color="#c3c3c3" stop-opacity="1"/></linearGradient><linearGradient id="linearGradient4146"><stop id="stop4148" offset="0" stop-color="#666" stop-opacity="0"/><stop id="stop5137" offset=".5" stop-color="#666" stop-opacity="1"/><stop id="stop4154" offset="1" stop-color="#666" stop-opacity=".021"/></linearGradient></defs><metadata id="metadata5458"/><g id="layer1" transform="translate(-384.57143,-499.798)"><rect id="rect2991-1-7" width="48" height="48" x="384.571" y="-547.798" fill="url(#linearGradient4644)" fill-opacity="1" stroke="none" ry="1.945" transform="scale(1,-1)"/><rect id="rect4748" width="42" height="42" x="387.571" y="-544.798" fill="#000" fill-opacity=".235" stroke="none" ry="21" transform="scale(1,-1)"/><path id="rect846" fill="#000" fill-opacity="1" stroke="none" d="m 384.57143,544.79799 0,1.0625 c 0,1.0773 0.86022,1.9375 1.9375,1.9375 l 44.125,0 c 1.07728,0 1.9375,-0.8602 1.9375,-1.9375 l 0,-1.0625 c 0,1.0773 -0.86022,1.9375 -1.9375,1.9375 l -44.125,0 c -1.07728,0 -1.9375,-0.8602 -1.9375,-1.9375 z"/><path id="path7515" fill="#fff" fill-opacity=".537" stroke="none" d="m 387.10268,500.45429 c -0.91709,0 -1.67115,0.6395 -1.84375,1.5 0.33561,-0.2799 0.77451,-0.4375 1.25,-0.4375 l 44.125,0 c 0.47549,0 0.91439,0.1576 1.25,0.4375 -0.1726,-0.8605 -0.92666,-1.5 -1.84375,-1.5 l -42.9375,0 z"/><path id="rect4280" fill="#000" fill-opacity=".392" stroke="none" d="m 386.50893,499.79799 c -1.07728,0 -1.9375,0.8602 -1.9375,1.9375 l 0,43.0625 c 0,0.7934 0.48002,1.449 1.15625,1.75 -0.30934,-0.3333 -0.5,-0.7824 -0.5,-1.2812 l 0,-42.9375 c 0,-1.0482 0.8269,-1.875 1.875,-1.875 l 42.9375,0 c 1.0481,0 1.875,0.8268 1.875,1.875 l 0,42.9375 c 0,0.4988 -0.19066,0.9479 -0.5,1.2812 0.67623,-0.301 1.15625,-0.9566 1.15625,-1.75 l 0,-43.0625 c 0,-1.0773 -0.86022,-1.9375 -1.9375,-1.9375 l -44.125,0 z"/><rect id="rect4648" width="40" height="40" x="388.571" y="-543.798" fill="url(#linearGradient4650)" fill-opacity="1" stroke="none" ry="20" transform="scale(1,-1)"/><path id="path5606" fill="#000" fill-opacity=".059" stroke="none" d="M 408.5705,509.998 A 15.000571,15.00057 0 0 0 393.57143,524.99893 15.000571,15.00057 0 0 0 408.5705,539.998 15.000571,15.00057 0 0 0 423.57143,524.99893 15.000571,15.00057 0 0 0 408.5705,509.998 Z m -4.38329,6.72139 10.71468,8.27954 -10.71468,8.27954 0,-16.55908 z"/><path id="path5610" fill="#000" fill-opacity=".118" stroke="none" d="M 408.5705,509.598 A 15.000571,15.00057 0 0 0 393.57143,524.59893 15.000571,15.00057 0 0 0 408.5705,539.598 15.000571,15.00057 0 0 0 423.57143,524.59893 15.000571,15.00057 0 0 0 408.5705,509.598 Z m -4.38329,6.72139 10.71468,8.27954 -10.71468,8.27954 0,-16.55908 z"/><path id="path5612" fill="#000" fill-opacity=".235" stroke="none" d="M 408.5705,509.198 A 15.000571,15.00057 0 0 0 393.57143,524.19893 15.000571,15.00057 0 0 0 408.5705,539.198 15.000571,15.00057 0 0 0 423.57143,524.19893 15.000571,15.00057 0 0 0 408.5705,509.198 Z m -4.38329,6.72139 10.71468,8.27954 -10.71468,8.27954 0,-16.55908 z"/><path id="path4172-8" fill="url(#linearGradient4180-0)" fill-opacity="1" stroke="none" d="M 408.5705,508.798 A 15.000571,15.00057 0 0 0 393.57143,523.79893 15.000571,15.00057 0 0 0 408.5705,538.798 15.000571,15.00057 0 0 0 423.57143,523.79893 15.000571,15.00057 0 0 0 408.5705,508.798 Z m -4.38329,6.72139 10.71468,8.27954 -10.71468,8.27954 0,-16.55908 z"/><path id="path5614" fill="#4b1f52" fill-opacity=".314" stroke="none" d="M 19.615234 14.921875 L 19.615234 15.720703 L 29.8125 23.601562 L 30.330078 23.201172 L 19.615234 14.921875 z M 9.015625 23.53125 A 15.000571 15.00057 0 0 0 9 24 A 15.000571 15.00057 0 0 0 24 39 A 15.000571 15.00057 0 0 0 39 24 A 15.000571 15.00057 0 0 0 38.984375 23.669922 A 15.000571 15.00057 0 0 1 24 38.199219 A 15.000571 15.00057 0 0 1 9.015625 23.53125 z" transform="translate(384.57143,499.798)"/><path id="path5619" fill="#fff" fill-opacity=".235" stroke="none" d="M 24 9 A 15.000571 15.00057 0 0 0 9 24 A 15.000571 15.00057 0 0 0 9.0078125 24.166016 A 15.000571 15.00057 0 0 1 24 9.4003906 A 15.000571 15.00057 0 0 1 38.992188 24.234375 A 15.000571 15.00057 0 0 0 39 24 A 15.000571 15.00057 0 0 0 24 9 z M 30.070312 24.201172 L 19.615234 32.28125 L 19.615234 32.679688 L 30.330078 24.400391 L 30.070312 24.201172 z" transform="translate(384.57143,499.798)"/></g></svg>