<svg xmlns="http://www.w3.org/2000/svg" xmlns:svg="http://www.w3.org/2000/svg" xmlns:xlink="http://www.w3.org/1999/xlink" id="svg3139" width="48" height="48" version="1.1"><defs id="defs3141"><linearGradient id="linearGradient4294"><stop id="stop4296" offset="0" stop-color="#f2c6f0" stop-opacity="1"/><stop id="stop4298" offset="1" stop-color="#fdf7fd" stop-opacity="1"/></linearGradient><filter id="filter3174-9" color-interpolation-filters="sRGB"><feGaussianBlur id="feGaussianBlur3176-8" stdDeviation="1.71"/></filter><filter id="filter3794-9" width="1.384" height="1.384" x="-.192" y="-.192" color-interpolation-filters="sRGB"><feGaussianBlur id="feGaussianBlur3796-4" stdDeviation="5.28"/></filter><filter id="filter3174-9-7" color-interpolation-filters="sRGB"><feGaussianBlur id="feGaussianBlur3176-8-7" stdDeviation="1.71"/></filter><filter id="filter3794-9-2" width="1.384" height="1.384" x="-.192" y="-.192" color-interpolation-filters="sRGB"><feGaussianBlur id="feGaussianBlur3796-4-2" stdDeviation="5.28"/></filter><linearGradient id="linearGradient859-9" x1="23.102" x2="23.102" y1="-1052.385" y2="-1004.361" gradientTransform="translate(507.42858,304.57143)" gradientUnits="userSpaceOnUse" xlink:href="#linearGradient839"/><linearGradient id="linearGradient839"><stop id="stop841" offset="0" stop-color="#871e82" stop-opacity="1"/><stop id="stop843" offset="1" stop-color="#d535d9" stop-opacity="1"/></linearGradient><linearGradient id="linearGradient4221" x1="8.598" x2="39.397" y1="30.423" y2="30.423" gradientTransform="matrix(0,-0.99997462,0.99997403,0,507.42917,747.79014)" gradientUnits="userSpaceOnUse" xlink:href="#linearGradient4294"/></defs><metadata id="metadata3144"/><g id="layer1" transform="translate(-507.42857,-699.79074)"><g id="layer5" display="none" transform="translate(331.74661,664.49715)"><rect id="rect3171" width="66" height="66" x="15" y="15" fill="url(#linearGradient3613-6)" fill-opacity="1" fill-rule="nonzero" stroke="#fff" stroke-dasharray="none" stroke-dashoffset="0" stroke-linecap="round" stroke-linejoin="miter" stroke-miterlimit="4" stroke-opacity="1" stroke-width=".5" clip-path="url(#clipPath3613-0)" filter="url(#filter3794-9)" opacity=".1" rx="12" ry="12"/></g><g id="layer5-0" display="none" transform="translate(385.49044,663.99046)"><rect id="rect3171-6" width="66" height="66" x="15" y="15" fill="url(#linearGradient3613-6-8)" fill-opacity="1" fill-rule="nonzero" stroke="#fff" stroke-dasharray="none" stroke-dashoffset="0" stroke-linecap="round" stroke-linejoin="miter" stroke-miterlimit="4" stroke-opacity="1" stroke-width=".5" clip-path="url(#clipPath3613-0-1)" filter="url(#filter3794-9-2)" opacity=".1" rx="12" ry="12"/></g><rect id="rect2991-1-7-5" width="48" height="48" x="507.429" y="-747.791" fill="url(#linearGradient859-9)" fill-opacity="1" stroke="none" ry="1.945" transform="scale(1,-1)"/><path id="rect846" fill="#000" fill-opacity="1" stroke="none" d="m 507.42857,744.79076 0,1.0625 c 0,1.0773 0.86022,1.9375 1.9375,1.9375 l 44.125,0 c 1.07728,0 1.9375,-0.8602 1.9375,-1.9375 l 0,-1.0625 c 0,1.0773 -0.86022,1.9375 -1.9375,1.9375 l -44.125,0 c -1.07728,0 -1.9375,-0.8602 -1.9375,-1.9375 z"/><path id="path7515" fill="#fff" fill-opacity=".537" stroke="none" d="m 509.95982,700.44706 c -0.91709,0 -1.67115,0.6395 -1.84375,1.5 0.33561,-0.2799 0.77451,-0.4375 1.25,-0.4375 l 44.125,0 c 0.47549,0 0.91439,0.1576 1.25,0.4375 -0.1726,-0.8605 -0.92666,-1.5 -1.84375,-1.5 l -42.9375,0 z"/><path id="rect4280-1" fill="#000" fill-opacity=".392" stroke="none" d="m 509.36607,699.79076 c -1.07728,0 -1.9375,0.8602 -1.9375,1.9375 l 0,43.0625 c 0,0.7934 0.48002,1.449 1.15625,1.75 -0.30934,-0.3333 -0.5,-0.7824 -0.5,-1.2812 l 0,-42.9375 c 0,-1.0482 0.8269,-1.875 1.875,-1.875 l 42.9375,0 c 1.0481,0 1.875,0.8268 1.875,1.875 l 0,42.9375 c 0,0.4988 -0.19066,0.9479 -0.5,1.2812 0.67623,-0.301 1.15625,-0.9566 1.15625,-1.75 l 0,-43.0625 c 0,-1.0773 -0.86022,-1.9375 -1.9375,-1.9375 l -44.125,0 z"/><path id="path4292" fill="#000" fill-opacity=".059" d="m 516.02857,724.96927 c -10e-5,4.03729 1.6612,8.04922 4.5116,10.90402 2.8505,2.8548 6.8571,4.51756 10.8884,4.51746 4.0313,10e-5 8.0379,-1.66267 10.8884,-4.51746 2.8504,-2.8548 4.5117,-6.86673 4.5116,-10.90402 10e-5,-4.03729 -1.6612,-8.04923 -4.5116,-10.90402 -0.3478,-0.34834 -0.9661,-0.88793 -1.3886,-1.17185 -1.4797,-1.09168 -3.2376,1.02386 -1.6992,2.40033 0.2394,0.19953 0.7461,0.67345 0.9668,0.89451 2.2952,2.29869 3.6328,5.53019 3.6327,8.78103 10e-5,3.25084 -1.3375,6.48038 -3.6327,8.77907 -2.2954,2.29869 -5.5214,3.63869 -8.7674,3.63858 -3.246,1.1e-4 -6.4719,-1.33989 -8.7674,-3.63858 -2.2951,-2.29869 -3.6328,-5.52823 -3.6327,-8.77907 -10e-5,-3.25084 1.3376,-6.48234 3.6327,-8.78103 0.2208,-0.22106 0.7274,-0.69498 0.9668,-0.89451 1.5384,-1.37647 -0.2194,-3.49201 -1.6992,-2.40033 -0.4225,0.28392 -1.0408,0.82351 -1.3886,1.17185 -2.8504,2.85479 -4.5117,6.86673 -4.5116,10.90402 z m 13.9,-1.47848 c 0,0.83088 0.669,1.49996 1.5,1.49996 0.831,0 1.5,-0.66908 1.5,-1.49996 l 0,-12.40008 c 0,-0.83088 -0.669,-1.49996 -1.5,-1.49996 -0.831,0 -1.5,0.66908 -1.5,1.49996 l 0,12.40008 z"/><path id="path4290" fill="#000" fill-opacity=".118" d="m 516.02857,724.56927 c -10e-5,4.03729 1.6612,8.04922 4.5116,10.90402 2.8505,2.8548 6.8571,4.51756 10.8884,4.51746 4.0313,10e-5 8.0379,-1.66267 10.8884,-4.51746 2.8504,-2.8548 4.5117,-6.86673 4.5116,-10.90402 10e-5,-4.03729 -1.6612,-8.04923 -4.5116,-10.90402 -0.3478,-0.34834 -0.9661,-0.88793 -1.3886,-1.17185 -1.4797,-1.09168 -3.2376,1.02386 -1.6992,2.40033 0.2394,0.19953 0.7461,0.67345 0.9668,0.89451 2.2952,2.29869 3.6328,5.53019 3.6327,8.78103 10e-5,3.25084 -1.3375,6.48038 -3.6327,8.77907 -2.2954,2.29869 -5.5214,3.63869 -8.7674,3.63858 -3.246,1.1e-4 -6.4719,-1.33989 -8.7674,-3.63858 -2.2951,-2.29869 -3.6328,-5.52823 -3.6327,-8.77907 -10e-5,-3.25084 1.3376,-6.48234 3.6327,-8.78103 0.2208,-0.22106 0.7274,-0.69498 0.9668,-0.89451 1.5384,-1.37647 -0.2194,-3.49201 -1.6992,-2.40033 -0.4225,0.28392 -1.0408,0.82351 -1.3886,1.17185 -2.8504,2.85479 -4.5117,6.86673 -4.5116,10.90402 z m 13.9,-1.47848 c 0,0.83088 0.669,1.49996 1.5,1.49996 0.831,0 1.5,-0.66908 1.5,-1.49996 l 0,-12.40008 c 0,-0.83088 -0.669,-1.49996 -1.5,-1.49996 -0.831,0 -1.5,0.66908 -1.5,1.49996 l 0,12.40008 z"/><path id="path4286" fill="#000" fill-opacity=".235" d="m 516.02857,724.16927 c -10e-5,4.03729 1.6612,8.04922 4.5116,10.90402 2.8505,2.8548 6.8571,4.51756 10.8884,4.51746 4.0313,1e-4 8.0379,-1.66267 10.8884,-4.51746 2.8504,-2.8548 4.5117,-6.86673 4.5116,-10.90402 10e-5,-4.03729 -1.6612,-8.04923 -4.5116,-10.90402 -0.3478,-0.34834 -0.9661,-0.88793 -1.3886,-1.17185 -1.4797,-1.09168 -3.2376,1.02386 -1.6992,2.40033 0.2394,0.19953 0.7461,0.67345 0.9668,0.89451 2.2952,2.29869 3.6328,5.53019 3.6327,8.78103 10e-5,3.25084 -1.3375,6.48038 -3.6327,8.77907 -2.2954,2.29869 -5.5214,3.63869 -8.7674,3.63858 -3.246,1.1e-4 -6.4719,-1.33989 -8.7674,-3.63858 -2.2951,-2.29869 -3.6328,-5.52823 -3.6327,-8.77907 -10e-5,-3.25084 1.3376,-6.48234 3.6327,-8.78103 0.2208,-0.22106 0.7274,-0.69498 0.9668,-0.89451 1.5384,-1.37647 -0.2194,-3.49201 -1.6992,-2.40033 -0.4225,0.28392 -1.0408,0.82351 -1.3886,1.17185 -2.8504,2.85479 -4.5117,6.86673 -4.5116,10.90402 z m 13.9,-1.47848 c 0,0.83088 0.669,1.49996 1.5,1.49996 0.831,0 1.5,-0.66908 1.5,-1.49996 l 0,-12.40008 c 0,-0.83088 -0.669,-1.49996 -1.5,-1.49996 -0.831,0 -1.5,0.66908 -1.5,1.49996 l 0,12.40008 z"/><path id="path4136" fill="url(#linearGradient4221)" fill-opacity="1" d="m 516.02857,723.76927 c -10e-5,4.03729 1.6612,8.04922 4.5116,10.90402 2.8505,2.8548 6.8571,4.51756 10.8884,4.51746 4.0313,10e-5 8.0379,-1.66267 10.8884,-4.51746 2.8504,-2.8548 4.5117,-6.86673 4.5116,-10.90402 10e-5,-4.03729 -1.6612,-8.04923 -4.5116,-10.90402 -0.3478,-0.34834 -0.9661,-0.88793 -1.3886,-1.17185 -1.4797,-1.09168 -3.2376,1.02386 -1.6992,2.40033 0.2394,0.19953 0.7461,0.67345 0.9668,0.89451 2.2952,2.29869 3.6328,5.53019 3.6327,8.78103 10e-5,3.25084 -1.3375,6.48038 -3.6327,8.77907 -2.2954,2.29869 -5.5214,3.63869 -8.7674,3.63858 -3.246,1.1e-4 -6.4719,-1.33989 -8.7674,-3.63858 -2.2951,-2.29869 -3.6328,-5.52823 -3.6327,-8.77907 -10e-5,-3.25084 1.3376,-6.48234 3.6327,-8.78103 0.2208,-0.22106 0.7274,-0.69498 0.9668,-0.89451 1.5384,-1.37647 -0.2194,-3.49201 -1.6992,-2.40033 -0.4225,0.28392 -1.0408,0.82351 -1.3886,1.17185 -2.8504,2.85479 -4.5117,6.86673 -4.5116,10.90402 z m 13.9,-1.47848 c 0,0.83088 0.669,1.49996 1.5,1.49996 0.831,0 1.5,-0.66908 1.5,-1.49996 l 0,-12.40008 c 0,-0.83088 -0.669,-1.49996 -1.5,-1.49996 -0.831,0 -1.5,0.66908 -1.5,1.49996 l 0,12.40008 z"/><path id="path4300" fill="#671763" fill-opacity=".314" d="M 16.652344 12.501953 C 16.556194 12.709624 16.411459 12.913616 16.199219 13.103516 C 15.959819 13.303046 15.453222 13.776987 15.232422 13.998047 C 12.937322 16.296737 11.599509 19.528457 11.599609 22.779297 C 11.599603 22.979868 11.62077 23.178711 11.630859 23.378906 C 11.784074 20.333805 13.078699 17.354358 15.232422 15.197266 C 15.453222 14.976206 15.959819 14.502264 16.199219 14.302734 C 16.836325 13.732689 16.892022 13.045216 16.652344 12.501953 z M 31.347656 12.501953 C 31.107965 13.045216 31.163675 13.732689 31.800781 14.302734 C 32.040181 14.502264 32.546878 14.976206 32.767578 15.197266 C 34.921395 17.354358 36.215936 20.333805 36.369141 23.378906 C 36.37923 23.178711 36.400397 22.979868 36.400391 22.779297 C 36.400491 19.528457 35.062778 16.296737 32.767578 13.998047 C 32.546878 13.776987 32.040181 13.303046 31.800781 13.103516 C 31.588541 12.913616 31.443803 12.709624 31.347656 12.501953 z M 22.5 21.300781 L 22.5 22.5 C 22.5 23.33088 23.169 24 24 24 C 24.831 24 25.5 23.33088 25.5 22.5 L 25.5 21.300781 C 25.5 22.131661 24.831 22.800781 24 22.800781 C 23.169 22.800781 22.5 22.131661 22.5 21.300781 z M 8.6308594 23.378906 C 8.6227326 23.579075 8.5996044 23.778084 8.5996094 23.978516 C 8.5995094 28.015806 10.260928 32.028013 13.111328 34.882812 C 15.961828 37.737612 19.9687 39.400491 24 39.400391 C 28.0313 39.400491 32.038172 37.737602 34.888672 34.882812 C 37.739072 32.028013 39.400491 28.015806 39.400391 23.978516 C 39.400396 23.778084 39.377267 23.579075 39.369141 23.378906 C 39.21357 27.21072 37.597563 30.968568 34.888672 33.681641 C 32.038172 36.536431 28.0313 38.199319 24 38.199219 C 19.9687 38.199319 15.961828 36.536441 13.111328 33.681641 C 10.402437 30.968568 8.7864296 27.21072 8.6308594 23.378906 z" transform="translate(507.42857,699.79074)"/><path id="path4305" fill="#fff" fill-opacity=".235" d="M 24 8.5996094 C 23.169 8.5996094 22.5 9.2687294 22.5 10.099609 L 22.5 10.5 C 22.5 9.66912 23.169 9 24 9 C 24.831 9 25.5 9.66912 25.5 10.5 L 25.5 10.099609 C 25.5 9.2687294 24.831 8.5996094 24 8.5996094 z M 15.337891 11.601562 C 15.064442 11.606758 14.777463 11.697654 14.5 11.902344 C 14.0775 12.186264 13.459128 12.725879 13.111328 13.074219 C 10.260928 15.929009 8.5995094 19.941226 8.5996094 23.978516 C 8.5996077 24.045098 8.608475 24.111171 8.609375 24.177734 C 8.6634928 20.208728 10.308335 16.281919 13.111328 13.474609 C 13.459128 13.126269 14.0775 12.586654 14.5 12.302734 C 15.503009 11.562793 16.62992 12.29729 16.775391 13.275391 C 16.892694 12.400344 16.184691 11.585473 15.337891 11.601562 z M 32.662109 11.601562 C 31.81533 11.585473 31.107324 12.400344 31.224609 13.275391 C 31.370103 12.29729 32.497059 11.562793 33.5 12.302734 C 33.9225 12.586654 34.540872 13.126269 34.888672 13.474609 C 37.691665 16.281919 39.336507 20.208728 39.390625 24.177734 C 39.391525 24.111171 39.400392 24.045098 39.400391 23.978516 C 39.400491 19.941226 37.739072 15.929009 34.888672 13.074219 C 34.540872 12.725879 33.9225 12.186264 33.5 11.902344 C 33.222556 11.697654 32.935552 11.606758 32.662109 11.601562 z M 11.609375 24.179688 C 11.60826 24.246186 11.599607 24.312384 11.599609 24.378906 C 11.599509 27.629746 12.937322 30.859513 15.232422 33.158203 C 17.527922 35.456893 20.754 36.796985 24 36.796875 C 27.246 36.796985 30.472178 35.456893 32.767578 33.158203 C 35.062778 30.859513 36.400491 27.629746 36.400391 24.378906 C 36.400393 24.312384 36.39174 24.246186 36.390625 24.179688 C 36.336742 27.362113 35.015352 30.506621 32.767578 32.757812 C 30.472178 35.056502 27.246 36.396594 24 36.396484 C 20.754 36.396594 17.527922 35.056503 15.232422 32.757812 C 12.984746 30.506621 11.663262 27.362113 11.609375 24.179688 z" transform="translate(507.42857,699.79074)"/></g></svg>