<svg xmlns="http://www.w3.org/2000/svg" xmlns:svg="http://www.w3.org/2000/svg" xmlns:xlink="http://www.w3.org/1999/xlink" id="svg5453" width="48" height="48" version="1.1"><defs id="defs5455"><linearGradient id="linearGradient4083"><stop id="stop4085" offset="0" stop-color="#aedd63" stop-opacity="1"/><stop id="stop4087" offset="1" stop-color="#deecc2" stop-opacity="1"/></linearGradient><linearGradient id="linearGradient4592"><stop id="stop4594" offset="0" stop-color="#88b135" stop-opacity="1"/><stop id="stop4596" offset="1" stop-color="#a5cc57" stop-opacity="1"/></linearGradient><linearGradient id="linearGradient4598" x1="410.536" x2="410.536" y1="-547.803" y2="-499.791" gradientUnits="userSpaceOnUse" xlink:href="#linearGradient4592"/><linearGradient id="linearGradient853"><stop id="stop855" offset="0" stop-color="#edfbce" stop-opacity="1"/><stop id="stop857" offset="1" stop-color="#fbfff0" stop-opacity="1"/></linearGradient><linearGradient id="linearGradient859" x1="20.683" x2="20.683" y1="35.802" y2="15.65" gradientTransform="matrix(-1.2410396,0,0,1.3121304,435.54422,488.10086)" gradientUnits="userSpaceOnUse" xlink:href="#linearGradient853"/><linearGradient id="linearGradient4081" x1="411.171" x2="411.171" y1="527.939" y2="514.86" gradientTransform="translate(0,-0.0999114)" gradientUnits="userSpaceOnUse" xlink:href="#linearGradient4083"/></defs><metadata id="metadata5458"/><g id="layer1" transform="translate(-384.57143,-499.798)"><rect id="rect2991-1-7" width="48" height="48" x="384.571" y="-547.798" fill="url(#linearGradient4598)" fill-opacity="1" stroke="none" ry="1.945" transform="scale(1,-1)"/><path id="path4095" fill="#000" fill-opacity=".059" stroke="none" d="m 408.5513,509.598 c 9.32963,0 16.90979,5.96049 16.90979,13.32654 0,7.36603 -7.58016,13.36673 -16.90979,13.36673 -1.7219,0 -3.38704,-0.22586 -4.95216,-0.60393 l -8.09254,4.71066 1.97281,-7.40814 c -3.55506,-2.4451 -5.79764,-6.05046 -5.79764,-10.06532 C 391.68177,515.55849 399.22167,509.598 408.5513,509.598 Z"/><path id="path4093" fill="#000" fill-opacity=".118" stroke="none" d="m 408.5513,509.198 c 9.32963,0 16.90979,5.96049 16.90979,13.32654 0,7.36603 -7.58016,13.36673 -16.90979,13.36673 -1.7219,0 -3.38704,-0.22586 -4.95216,-0.60393 l -8.09254,4.71066 1.97281,-7.40814 c -3.55506,-2.4451 -5.79764,-6.05046 -5.79764,-10.06532 C 391.68177,515.15849 399.22167,509.198 408.5513,509.198 Z"/><path id="path4091" fill="#000" fill-opacity=".235" stroke="none" d="m 408.5513,508.798 c 9.32963,0 16.90979,5.96049 16.90979,13.32654 0,7.36603 -7.58016,13.36673 -16.90979,13.36673 -1.7219,0 -3.38704,-0.22586 -4.95216,-0.60393 l -8.09254,4.71066 1.97281,-7.40814 c -3.55506,-2.4451 -5.79764,-6.05046 -5.79764,-10.06532 C 391.68177,514.75849 399.22167,508.798 408.5513,508.798 Z"/><path id="rect846" fill="#000" fill-opacity="1" stroke="none" d="m 384.57143,544.79799 0,1.0625 c 0,1.0773 0.86022,1.9375 1.9375,1.9375 l 44.125,0 c 1.07728,0 1.9375,-0.8602 1.9375,-1.9375 l 0,-1.0625 c 0,1.0773 -0.86022,1.9375 -1.9375,1.9375 l -44.125,0 C 385.43165,546.73549 384.57143,545.87529 384.57143,544.79799 Z"/><path id="path7515" fill="#fff" fill-opacity=".537" stroke="none" d="m 387.10268,500.45429 c -0.91709,0 -1.67115,0.6395 -1.84375,1.5 0.33561,-0.2799 0.77451,-0.4375 1.25,-0.4375 l 44.125,0 c 0.47549,0 0.91439,0.1576 1.25,0.4375 -0.1726,-0.8605 -0.92666,-1.5 -1.84375,-1.5 L 387.10268,500.45429 Z"/><path id="rect4280" fill="#000" fill-opacity=".392" stroke="none" d="m 386.50893,499.79799 c -1.07728,0 -1.9375,0.8602 -1.9375,1.9375 l 0,43.0625 c 0,0.7934 0.48002,1.449 1.15625,1.75 -0.30934,-0.3333 -0.5,-0.7824 -0.5,-1.2812 l 0,-42.9375 c 0,-1.0482 0.8269,-1.875 1.875,-1.875 l 42.9375,0 c 1.0481,0 1.875,0.8268 1.875,1.875 l 0,42.9375 c 0,0.4988 -0.19066,0.9479 -0.5,1.2812 0.67623,-0.301 1.15625,-0.9566 1.15625,-1.75 l 0,-43.0625 c 0,-1.0773 -0.86022,-1.9375 -1.9375,-1.9375 L 386.50893,499.79799 Z"/><path id="path851" fill="url(#linearGradient859)" fill-opacity="1" stroke="none" d="m 408.5513,508.398 c 9.32963,0 16.90979,5.96049 16.90979,13.32654 0,7.36603 -7.58016,13.36673 -16.90979,13.36673 -1.7219,0 -3.38704,-0.22586 -4.95216,-0.60393 l -8.09254,4.71066 1.97281,-7.40814 c -3.55506,-2.4451 -5.79764,-6.05046 -5.79764,-10.06532 C 391.68177,514.35849 399.22167,508.398 408.5513,508.398 Z"/><path id="path1640" fill="#000" fill-opacity=".235" fill-rule="nonzero" stroke="none" d="m 409.78205,515.19822 c -0.95171,0 -1.72412,0.72751 -1.72412,1.62476 0,0.89699 0.77241,1.62479 1.72412,1.62479 0.95125,0 1.72412,-0.7278 1.72412,-1.62479 C 411.50617,515.92573 410.7333,515.19822 409.78205,515.19822 z m -1.42605,3.89825 c -0.43284,0.004 -0.97824,0.0778 -1.64229,0.2864 0,0 -0.82992,0.2368 -1.04616,0.61949 0,0 -0.15453,0.27471 0.22793,0.2455 0,0 1.63037,-0.13094 1.63061,0.58443 -0.003,0.0413 -0.006,0.0863 -0.006,0.12857 0,0.0554 0.002,0.1092 0.006,0.16364 0,0 -0.006,0.46382 -0.22209,1.37345 0,0 -0.78667,2.78666 -0.85914,3.31966 -0.047,0.16811 -0.0701,0.35185 -0.0701,0.53771 0,0.61645 0.27773,1.15416 0.69549,1.45527 0,0 0.0159,0.0122 0.0526,0.0349 0.0793,0.0517 0.16388,0.0947 0.25131,0.12857 0.43577,0.18562 1.34026,0.40723 2.72937,-0.0293 0,0 0.83038,-0.23684 1.04616,-0.61953 0,0 0.15429,-0.27466 -0.22794,-0.24545 0,0 -1.63037,0.13114 -1.6306,-0.58447 0.003,-0.047 0.006,-0.0982 0.006,-0.14609 0,-0.0187 4.9e-4,-0.0337 0,-0.0526 -0.002,-0.21206 0.0166,-1.01765 0.36821,-2.10985 0,0 0.57532,-1.68882 0.75393,-2.77025 0.0288,-0.13 0.0433,-0.26325 0.0468,-0.40329 0.005,-0.0753 0.004,-0.14426 0,-0.20454 -6.9e-4,-0.013 -0.002,-0.024 -0.006,-0.0349 -0.0526,-0.60641 -0.35978,-1.12259 -0.789,-1.39096 0,0 -0.0203,-0.0175 -0.0643,-0.0409 -0.0886,-0.0489 -0.18375,-0.0842 -0.28054,-0.11107 C 409.10959,519.16147 408.78884,519.09305 408.356,519.09647 Z"/><path id="path4089" fill="#fff" fill-opacity=".235" fill-rule="nonzero" stroke="none" d="m 409.7818,514.39833 c -0.95171,0 -1.72412,0.72751 -1.72412,1.62476 0,0.89699 0.77241,1.62479 1.72412,1.62479 0.95125,0 1.72412,-0.7278 1.72412,-1.62479 C 411.50592,515.12584 410.73305,514.39833 409.7818,514.39833 z m -1.42605,3.89825 c -0.43284,0.004 -0.97824,0.0778 -1.64229,0.2864 0,0 -0.82992,0.2368 -1.04616,0.61949 0,0 -0.15453,0.27471 0.22793,0.2455 0,0 1.63037,-0.13094 1.63061,0.58443 -0.003,0.0413 -0.006,0.0863 -0.006,0.12857 0,0.0554 0.002,0.1092 0.006,0.16364 0,0 -0.006,0.46382 -0.22209,1.37345 0,0 -0.78667,2.78666 -0.85914,3.31966 -0.047,0.16811 -0.0701,0.35185 -0.0701,0.53771 0,0.61645 0.27773,1.15416 0.69549,1.45527 0,0 0.0159,0.0122 0.0526,0.0349 0.0793,0.0517 0.16388,0.0947 0.25131,0.12857 0.43577,0.18562 1.34026,0.40723 2.72937,-0.0293 0,0 0.83038,-0.23684 1.04616,-0.61953 0,0 0.15429,-0.27466 -0.22794,-0.24545 0,0 -1.63037,0.13114 -1.6306,-0.58447 0.003,-0.047 0.006,-0.0982 0.006,-0.14609 0,-0.0187 4.9e-4,-0.0337 0,-0.0526 -0.002,-0.21206 0.0166,-1.01765 0.36821,-2.10985 0,0 0.57532,-1.68882 0.75393,-2.77025 0.0288,-0.13 0.0433,-0.26325 0.0468,-0.40329 0.005,-0.0753 0.004,-0.14426 0,-0.20454 -6.9e-4,-0.013 -0.002,-0.024 -0.006,-0.0349 -0.0526,-0.60641 -0.35978,-1.12259 -0.789,-1.39096 0,0 -0.0203,-0.0175 -0.0643,-0.0409 -0.0886,-0.0489 -0.18375,-0.0842 -0.28054,-0.11107 C 409.10934,518.36158 408.78859,518.29316 408.35575,518.29658 Z"/><path id="path4073" fill="url(#linearGradient4081)" fill-opacity="1" fill-rule="nonzero" stroke="none" d="m 409.78205,514.79833 c -0.95171,0 -1.72412,0.72751 -1.72412,1.62476 0,0.89699 0.77241,1.62479 1.72412,1.62479 0.95125,0 1.72412,-0.7278 1.72412,-1.62479 C 411.50617,515.52584 410.7333,514.79833 409.78205,514.79833 z m -1.42605,3.89825 c -0.43284,0.004 -0.97824,0.0778 -1.64229,0.2864 0,0 -0.82992,0.2368 -1.04616,0.61949 0,0 -0.15453,0.27471 0.22793,0.2455 0,0 1.63037,-0.13094 1.63061,0.58443 -0.003,0.0413 -0.006,0.0863 -0.006,0.12857 0,0.0554 0.002,0.1092 0.006,0.16364 0,0 -0.006,0.46382 -0.22209,1.37345 0,0 -0.78667,2.78666 -0.85914,3.31966 -0.047,0.16811 -0.0701,0.35185 -0.0701,0.53771 0,0.61645 0.27773,1.15416 0.69549,1.45527 0,0 0.0159,0.0122 0.0526,0.0349 0.0793,0.0517 0.16388,0.0947 0.25131,0.12857 0.43577,0.18562 1.34026,0.40723 2.72937,-0.0293 0,0 0.83038,-0.23684 1.04616,-0.61953 0,0 0.15429,-0.27466 -0.22794,-0.24545 0,0 -1.63037,0.13114 -1.6306,-0.58447 0.003,-0.047 0.006,-0.0982 0.006,-0.14609 0,-0.0187 4.9e-4,-0.0337 0,-0.0526 -0.002,-0.21206 0.0166,-1.01765 0.36821,-2.10985 0,0 0.57532,-1.68882 0.75393,-2.77025 0.0288,-0.13 0.0433,-0.26325 0.0468,-0.40329 0.005,-0.0753 0.004,-0.14426 0,-0.20454 -6.9e-4,-0.013 -0.002,-0.024 -0.006,-0.0349 -0.0526,-0.60641 -0.35978,-1.12259 -0.789,-1.39096 0,0 -0.0203,-0.0175 -0.0643,-0.0409 -0.0886,-0.0489 -0.18375,-0.0842 -0.28054,-0.11107 C 409.10959,518.76158 408.78884,518.69316 408.356,518.69658 Z"/><path id="path4097" fill="#88b135" fill-opacity=".314" stroke="none" d="m 425.43666,521.32495 c -0.27122,7.1801 -7.72637,12.9668 -16.88476,12.9668 -1.7219,0 -3.38801,-0.2274 -4.95313,-0.60547 l -7.83984,4.56445 -0.25195,0.94727 8.09179,-4.71094 c 1.56512,0.37807 3.23123,0.60352 4.95313,0.60352 9.32963,0 16.91016,-6.00116 16.91016,-13.36719 C 425.46206,521.58884 425.44169,521.45853 425.43666,521.32495 z m -33.73632,0.10938 c -0.003,0.0971 -0.0195,0.19142 -0.0195,0.28906 0,3.94482 2.17333,7.48964 5.62109,9.93164 l 0.17773,-0.66602 C 394.076,528.64806 391.88162,525.24348 391.70034,521.43433 Z"/><path id="path4102" fill="#fff" fill-opacity=".235" stroke="none" d="m 408.5519,508.398 c -9.32963,0 -16.87109,5.96012 -16.87109,13.32617 0,0.0858 0.008,0.17041 0.01,0.25586 0.099,-7.29853 7.59353,-13.18164 16.86133,-13.18164 9.2444,0 16.75973,5.85402 16.89648,13.12695 0.001,-0.0676 0.0137,-0.13331 0.0137,-0.20117 C 425.46206,514.35812 417.88153,508.398 408.5519,508.398 z m -11.16016,23.72461 -1.88476,7.07617 0.12695,-0.0742 1.8457,-6.93359 C 397.44867,532.16967 397.4225,532.14408 397.39174,532.12261 Z"/></g></svg>