<svg xmlns="http://www.w3.org/2000/svg" xmlns:svg="http://www.w3.org/2000/svg" xmlns:xlink="http://www.w3.org/1999/xlink" id="svg2" width="48" height="48" version="1.1"><defs id="defs4"><linearGradient id="linearGradient907"><stop id="stop909" offset="0" stop-color="#000" stop-opacity="1"/><stop id="stop911" offset="1" stop-color="#000" stop-opacity="0"/></linearGradient><linearGradient id="linearGradient1026"><stop id="stop1028" offset="0" stop-color="#030303" stop-opacity="1"/><stop id="stop1030" offset="1" stop-color="#b3b3b3" stop-opacity="0"/></linearGradient><linearGradient id="linearGradient1000"><stop id="stop1002" offset="0" stop-color="#8bc9e1" stop-opacity="1"/><stop id="stop1004" offset="1" stop-color="#3085bd" stop-opacity="1"/></linearGradient><linearGradient id="linearGradient1008" x1="81.955" x2="81.955" y1="1026.126" y2="1029.751" gradientTransform="matrix(1.0324595,0,0,1.1764248,-50.091288,-179.71455)" gradientUnits="userSpaceOnUse" xlink:href="#linearGradient1000"/><radialGradient id="radialGradient1036" cx="20.064" cy="1039.689" r="12.993" fx="20.064" fy="1039.689" gradientTransform="matrix(1.7351389,0,0,0.02813863,-10.814097,-1038.9783)" gradientUnits="userSpaceOnUse" xlink:href="#linearGradient1026"/><radialGradient id="radialGradient872" cx="20.064" cy="1039.689" r="12.993" fx="20.064" fy="1039.689" gradientTransform="matrix(1.7351389,0,0,0.02813863,-10.814097,1017.4979)" gradientUnits="userSpaceOnUse" xlink:href="#linearGradient1026"/><linearGradient id="linearGradient876" x1="81.955" x2="81.955" y1="1026.126" y2="1029.751" gradientTransform="matrix(2.6577263,0,0,2.2074234,-189.21103,-2257.8615)" gradientUnits="userSpaceOnUse" xlink:href="#linearGradient1000"/><linearGradient id="linearGradient913" x1="8.625" x2="8.625" y1="7.656" y2="8.188" gradientTransform="matrix(0.78356216,0,0,0.78356216,1.8464853,1007.0193)" gradientUnits="userSpaceOnUse" xlink:href="#linearGradient907"/><linearGradient id="linearGradient946" x1="8.625" x2="8.625" y1="7.656" y2="8.188" gradientTransform="matrix(0.78356216,0,0,0.78356216,1.8464853,1019.0193)" gradientUnits="userSpaceOnUse" xlink:href="#linearGradient907"/><linearGradient id="linearGradient956" x1="8.625" x2="8.625" y1="7.656" y2="8.188" gradientTransform="matrix(0.78356216,0,0,0.78356216,1.8464853,1031.0193)" gradientUnits="userSpaceOnUse" xlink:href="#linearGradient907"/><linearGradient id="linearGradient982" x1="8.625" x2="8.625" y1="7.656" y2="8.188" gradientTransform="matrix(0.43260803,0,0,0.43260803,23.049699,1025.2964)" gradientUnits="userSpaceOnUse" xlink:href="#linearGradient907"/><linearGradient id="linearGradient1002" x1="8.625" x2="8.625" y1="7.656" y2="8.188" gradientTransform="matrix(0.43260803,0,0,0.43260803,23.049699,1014.8194)" gradientUnits="userSpaceOnUse" xlink:href="#linearGradient907"/><linearGradient id="linearGradient1015" x1="8.625" x2="8.625" y1="7.656" y2="8.188" gradientTransform="matrix(0.43260803,0,0,0.43260803,23.049699,1034.8194)" gradientUnits="userSpaceOnUse" xlink:href="#linearGradient907"/></defs><metadata id="metadata7"/><g id="layer1" transform="translate(0,-1004.3622)"><rect id="rect2991-1" width="48" height="48" x="0" y="-1052.362" fill="#fff" fill-opacity="1" stroke="none" ry="1.945" transform="scale(1,-1)"/><path id="rect846" fill="#000" fill-opacity="1" stroke="none" d="m 9.1313471e-7,1049.3622 0,1.0625 c 0,1.0773 0.86022299686529,1.9375 1.93749998686529,1.9375 l 44.1250001,0 c 1.077277,0 1.9375,-0.8602 1.9375,-1.9375 l 0,-1.0625 c 0,1.0773 -0.860223,1.9375 -1.9375,1.9375 l -44.1250001,0 C 0.86022391,1051.2997 9.1313471e-7,1050.4395 9.1313471e-7,1049.3622 Z"/><path id="path7515" fill="#fff" fill-opacity=".537" stroke="none" d="m 2.5312509,1005.0185 c -0.917089,0 -1.67114699,0.6395 -1.84374999,1.5 0.33561199,-0.2799 0.77451199,-0.4375 1.24999999,-0.4375 l 44.1250001,0 c 0.475488,0 0.914388,0.1576 1.25,0.4375 -0.172603,-0.8605 -0.926662,-1.5 -1.84375,-1.5 L 2.5312509,1005.0185 Z"/><path id="path1032" fill="#000" fill-opacity="1" fill-rule="nonzero" stroke="none" d="M 18.207998,36.423885 16.980864,34.298426 19.435133,34.298426 Z" transform="matrix(1.6334421,0,0,-0.95122822,-5.7417109,1041.0346)"/><rect id="rect1034" width="45.09" height=".731" x="1.455" y="-1010.089" fill="url(#radialGradient1036)" fill-opacity="1" fill-rule="nonzero" stroke="none" opacity=".228" ry="0" transform="scale(1,-1)"/><path id="path868" fill="#000" fill-opacity="1" fill-rule="nonzero" stroke="none" d="M 18.207998,36.423885 16.980864,34.298426 19.435133,34.298426 Z" transform="matrix(1.6334421,0,0,0.95122822,-5.7417109,1015.4416)"/><rect id="rect870" width="45.09" height=".731" x="1.455" y="1046.387" fill="url(#radialGradient872)" fill-opacity="1" fill-rule="nonzero" stroke="none" opacity=".228" ry="0"/><g id="g1139" transform="translate(0,0.42190276)"><path id="rect874" fill="url(#linearGradient876)" fill-opacity="1" fill-rule="nonzero" stroke="none" d="m 0,7.15625 0,10.0625 48,0 L 48,7.15625 0,7.15625 Z" transform="translate(0,1004.3622)"/><g id="g895" transform="translate(1.6333342,0)"><rect id="rect945" width="23.308" height="28.541" x="21.058" y="1015.822" fill="#000" fill-opacity="1" fill-rule="nonzero" stroke="none" opacity=".152" ry="0"/><rect id="rect949" width="22.477" height="27.523" x="21.474" y="1016.33" fill="#fff" fill-opacity="1" fill-rule="nonzero" stroke="none" ry="0"/><rect id="rect1006" width="22.188" height="5.363" x="21.619" y="1027.41" fill="url(#linearGradient1008)" fill-opacity="1" fill-rule="nonzero" stroke="none" ry="0"/></g><rect id="rect936" width="7.257" height="7.257" x="4.903" y="1012.94" fill="#1e1e1e" fill-opacity=".491" fill-rule="nonzero" stroke="none" stroke-width=".2" color="#000" display="inline" enable-background="accumulate" overflow="visible" ry=".456" visibility="visible" style="marker:none"/><rect id="rect900" width="7.101" height="7.101" x="4.981" y="1013.018" fill="#fff" fill-opacity="1" fill-rule="nonzero" stroke="none" stroke-width=".2" color="#000" display="inline" enable-background="accumulate" overflow="visible" ry=".446" visibility="visible" style="marker:none"/><path id="rect902" fill="url(#linearGradient913)" fill-opacity="1" fill-rule="nonzero" stroke="none" stroke-width=".2" d="m 5.4214877,1013.0184 c -0.2472245,0 -0.4407537,0.1936 -0.4407537,0.4408 l 0,0.5142 7.101032,0 0,-0.5142 c 0,-0.2472 -0.193529,-0.4408 -0.440754,-0.4408 L 5.4214877,1013.0184 Z" color="#000" display="inline" enable-background="accumulate" opacity=".256" overflow="visible" visibility="visible" style="marker:none"/><path id="path922" fill="#000" stroke="none" d="m 10.119566,1018.3367 2.974184,-5.1053 -3.801231,2.9741 L 6.875,1016.3327 Z"/><rect id="rect938" width="7.257" height="7.257" x="4.903" y="1024.94" fill="#1e1e1e" fill-opacity=".491" fill-rule="nonzero" stroke="none" stroke-width=".2" color="#000" display="inline" enable-background="accumulate" overflow="visible" ry=".456" visibility="visible" style="marker:none"/><rect id="rect940" width="7.101" height="7.101" x="4.981" y="1025.018" fill="#fff" fill-opacity="1" fill-rule="nonzero" stroke="none" stroke-width=".2" color="#000" display="inline" enable-background="accumulate" overflow="visible" ry=".446" visibility="visible" style="marker:none"/><path id="path942" fill="url(#linearGradient946)" fill-opacity="1" fill-rule="nonzero" stroke="none" stroke-width=".2" d="m 5.4214877,1025.0184 c -0.2472245,0 -0.4407537,0.1936 -0.4407537,0.4408 l 0,0.5142 7.101032,0 0,-0.5142 c 0,-0.2472 -0.193529,-0.4408 -0.440754,-0.4408 L 5.4214877,1025.0184 Z" color="#000" display="inline" enable-background="accumulate" opacity=".256" overflow="visible" visibility="visible" style="marker:none"/><path id="path944" fill="#000" stroke="none" d="m 10.119566,1030.3367 2.974184,-5.1053 -3.801231,2.9741 L 6.875,1028.3327 Z"/><rect id="rect948" width="7.257" height="7.257" x="4.903" y="1036.94" fill="#1e1e1e" fill-opacity=".491" fill-rule="nonzero" stroke="none" stroke-width=".2" color="#000" display="inline" enable-background="accumulate" overflow="visible" ry=".456" visibility="visible" style="marker:none"/><rect id="rect950" width="7.101" height="7.101" x="4.981" y="1037.018" fill="#ccc" fill-opacity="1" fill-rule="nonzero" stroke="none" stroke-width=".2" color="#000" display="inline" enable-background="accumulate" overflow="visible" ry=".446" visibility="visible" style="marker:none"/><path id="path952" fill="url(#linearGradient956)" fill-opacity="1" fill-rule="nonzero" stroke="none" stroke-width=".2" d="m 5.4214877,1037.0184 c -0.2472245,0 -0.4407537,0.1936 -0.4407537,0.4408 l 0,0.5142 7.101032,0 0,-0.5142 c 0,-0.2472 -0.193529,-0.4408 -0.440754,-0.4408 L 5.4214877,1037.0184 Z" color="#000" display="inline" enable-background="accumulate" opacity=".256" overflow="visible" visibility="visible" style="marker:none"/><g id="g986" transform="translate(0,-0.47700953)"><rect id="rect966" width="4.007" height="4.007" x="24.737" y="1028.565" fill="#1e1e1e" fill-opacity=".491" fill-rule="nonzero" stroke="none" stroke-width=".2" color="#000" display="inline" enable-background="accumulate" overflow="visible" ry=".252" visibility="visible" style="marker:none"/><rect id="rect968" width="3.921" height="3.921" x="24.78" y="1028.609" fill="#fff" fill-opacity="1" fill-rule="nonzero" stroke="none" stroke-width=".2" color="#000" display="inline" enable-background="accumulate" overflow="visible" ry=".246" visibility="visible" style="marker:none"/><path id="path970" fill="url(#linearGradient982)" fill-opacity="1" fill-rule="nonzero" stroke="none" stroke-width=".2" d="m 25.023473,1028.6087 c -0.136495,0 -0.243343,0.1064 -0.243343,0.2436 l 0,0.2836 3.920508,0 0,-0.2836 c 0,-0.1367 -0.106854,-0.2436 -0.24334,-0.2436 L 25.023473,1028.6087 Z" color="#000" display="inline" enable-background="accumulate" opacity=".256" overflow="visible" visibility="visible" style="marker:none"/><path id="path972" fill="#000" stroke="none" d="m 27.617301,1031.545 1.642059,-2.8187 -2.098673,1.642 L 25.825963,1030.4384 Z"/></g><rect id="rect994" width="4.007" height="4.007" x="24.737" y="1018.088" fill="#1e1e1e" fill-opacity=".491" fill-rule="nonzero" stroke="none" stroke-width=".2" color="#000" display="inline" enable-background="accumulate" overflow="visible" ry=".252" visibility="visible" style="marker:none"/><rect id="rect996" width="3.921" height="3.921" x="24.78" y="1018.131" fill="#ccc" fill-opacity="1" fill-rule="nonzero" stroke="none" stroke-width=".2" color="#000" display="inline" enable-background="accumulate" overflow="visible" ry=".246" visibility="visible" style="marker:none"/><path id="path998" fill="url(#linearGradient1002)" fill-opacity="1" fill-rule="nonzero" stroke="none" stroke-width=".2" d="m 25.023473,1018.1317 c -0.136495,0 -0.243343,0.1064 -0.243343,0.2436 l 0,0.2836 3.920508,0 0,-0.2836 c 0,-0.1367 -0.106854,-0.2436 -0.24334,-0.2436 L 25.023473,1018.1317 Z" color="#000" display="inline" enable-background="accumulate" opacity=".256" overflow="visible" visibility="visible" style="marker:none"/><rect id="rect1007" width="4.007" height="4.007" x="24.737" y="1038.088" fill="#1e1e1e" fill-opacity=".491" fill-rule="nonzero" stroke="none" stroke-width=".2" color="#000" display="inline" enable-background="accumulate" overflow="visible" ry=".252" visibility="visible" style="marker:none"/><rect id="rect1009" width="3.921" height="3.921" x="24.78" y="1038.131" fill="#ccc" fill-opacity="1" fill-rule="nonzero" stroke="none" stroke-width=".2" color="#000" display="inline" enable-background="accumulate" overflow="visible" ry=".246" visibility="visible" style="marker:none"/><path id="path1011" fill="url(#linearGradient1015)" fill-opacity="1" fill-rule="nonzero" stroke="none" stroke-width=".2" d="m 25.023473,1038.1317 c -0.136495,0 -0.243343,0.1064 -0.243343,0.2436 l 0,0.2836 3.920508,0 0,-0.2836 c 0,-0.1367 -0.106854,-0.2436 -0.24334,-0.2436 L 25.023473,1038.1317 Z" color="#000" display="inline" enable-background="accumulate" opacity=".256" overflow="visible" visibility="visible" style="marker:none"/></g><path id="rect4280-5" fill="#000" fill-opacity=".392" stroke="none" d="m 1.9375009,1004.3622 c -1.07727699,0 -1.93749998686529,0.8602 -1.93749998686529,1.9375 l 0,43.0625 c 0,0.7934 0.48002299686529,1.449 1.15624998686529,1.75 -0.30934199,-0.3333 -0.49999999,-0.7824 -0.49999999,-1.2812 l 0,-42.9375 c 0,-1.0482 0.82689899,-1.875 1.87499999,-1.875 l 42.9375001,0 c 1.048101,0 1.875,0.8268 1.875,1.875 l 0,42.9375 c 0,0.4988 -0.190658,0.9479 -0.5,1.2812 0.676226,-0.301 1.15625,-0.9566 1.15625,-1.75 l 0,-43.0625 c 0,-1.0773 -0.860223,-1.9375 -1.9375,-1.9375 L 1.9375009,1004.3622 Z"/></g></svg>