<svg xmlns="http://www.w3.org/2000/svg" xmlns:svg="http://www.w3.org/2000/svg" xmlns:xlink="http://www.w3.org/1999/xlink" id="svg5453" width="48" height="48" version="1.1"><defs id="defs5455"><linearGradient id="linearGradient4137"><stop id="stop4139" offset="0" stop-color="#ba0000" stop-opacity="1"/><stop id="stop4141" offset="1" stop-color="#e80000" stop-opacity="1"/></linearGradient><linearGradient id="linearGradient4143" x1="415.932" x2="415.932" y1="-547.819" y2="-499.772" gradientUnits="userSpaceOnUse" xlink:href="#linearGradient4137"/></defs><metadata id="metadata5458"/><g id="layer1" transform="translate(-384.57143,-499.798)"><rect id="rect2991-1-7" width="48" height="48" x="384.571" y="-547.798" fill="url(#linearGradient4143)" fill-opacity="1" stroke="none" ry="1.945" transform="scale(1,-1)"/><path id="path4160" fill="#000" fill-opacity=".059" d="m 408.8392,509.598 0,0.53281 c 0,0 -0.002,0.93998 -0.002,1.75704 -0.81841,-0.9053 -2.06286,-2.28985 -2.06286,-2.28985 l -5.68202,0 0.003,28.21478 3.27329,2.58522 3.41272,-0.42773 c 0,0 0.0145,-1.48997 0.0242,-2.50102 1.12084,0.92214 2.6556,2.18141 2.6556,2.18141 l 5.58941,-0.56952 0,-26.57898 -3.03315,-2.8981 -4.17791,-0.006 z"/><path id="path4158" fill="#000" fill-opacity=".118" d="m 408.8392,509.198 0,0.53281 c 0,0 -0.002,0.93998 -0.002,1.75704 -0.81841,-0.9053 -2.06286,-2.28985 -2.06286,-2.28985 l -5.68202,0 0.003,28.21478 3.27329,2.58522 3.41272,-0.42773 c 0,0 0.0145,-1.48997 0.0242,-2.50102 1.12084,0.92214 2.6556,2.18141 2.6556,2.18141 l 5.58941,-0.56952 0,-26.57898 -3.03315,-2.8981 -4.17791,-0.006 z"/><path id="path4156" fill="#000" fill-opacity=".235" d="m 408.8392,508.798 0,0.53281 c 0,0 -0.002,0.93998 -0.002,1.75704 -0.81841,-0.9053 -2.06286,-2.28985 -2.06286,-2.28985 l -5.68202,0 0.003,28.21478 3.27329,2.58522 3.41272,-0.42773 c 0,0 0.0145,-1.48997 0.0242,-2.50102 1.12084,0.92214 2.6556,2.18141 2.6556,2.18141 l 5.58941,-0.56952 0,-26.57898 -3.03315,-2.8981 -4.17791,-0.006 z"/><path id="rect846" fill="#000" fill-opacity="1" stroke="none" d="m 384.57143,544.79799 0,1.0625 c 0,1.0773 0.86022,1.9375 1.9375,1.9375 l 44.125,0 c 1.07728,0 1.9375,-0.8602 1.9375,-1.9375 l 0,-1.0625 c 0,1.0773 -0.86022,1.9375 -1.9375,1.9375 l -44.125,0 C 385.43165,546.73549 384.57143,545.87529 384.57143,544.79799 Z"/><path id="path7515" fill="#fff" fill-opacity=".537" stroke="none" d="m 387.10268,500.45429 c -0.91709,0 -1.67115,0.6395 -1.84375,1.5 0.33561,-0.2799 0.77451,-0.4375 1.25,-0.4375 l 44.125,0 c 0.47549,0 0.91439,0.1576 1.25,0.4375 -0.1726,-0.8605 -0.92666,-1.5 -1.84375,-1.5 L 387.10268,500.45429 Z"/><path id="rect4280" fill="#000" fill-opacity=".392" stroke="none" d="m 386.50893,499.79799 c -1.07728,0 -1.9375,0.8602 -1.9375,1.9375 l 0,43.0625 c 0,0.7934 0.48002,1.449 1.15625,1.75 -0.30934,-0.3333 -0.5,-0.7824 -0.5,-1.2812 l 0,-42.9375 c 0,-1.0482 0.8269,-1.875 1.875,-1.875 l 42.9375,0 c 1.0481,0 1.875,0.8268 1.875,1.875 l 0,42.9375 c 0,0.4988 -0.19066,0.9479 -0.5,1.2812 0.67623,-0.301 1.15625,-0.9566 1.15625,-1.75 l 0,-43.0625 c 0,-1.0773 -0.86022,-1.9375 -1.9375,-1.9375 L 386.50893,499.79799 Z"/><path id="path8" d="m 408.8392,508.398 0,0.53281 c 0,0 -0.002,0.93998 -0.002,1.75704 -0.81841,-0.9053 -2.06286,-2.28985 -2.06286,-2.28985 l -5.68202,0 0.003,28.21478 3.27329,2.58522 3.41272,-0.42773 c 0,0 0.0145,-1.48997 0.0242,-2.50102 1.12084,0.92214 2.6556,2.18141 2.6556,2.18141 l 5.58941,-0.56952 0,-26.57898 -3.03315,-2.8981 -4.17791,-0.006 z"/><path id="path26" fill="#fff" d="m 409.77009,530.52964 -0.18927,0.0222 -3.26521,-21.39541 -4.34731,-0.005 0.002,26.85583 c 0,0 0.86286,-0.12428 2.69973,-0.33276 l -0.18928,-20.41332 0.18827,-0.0178 3.10623,20.11156 c 0,0 1.06157,-0.12495 4.67165,-0.48229 l 0,-25.71915 -2.77315,0 0.0963,21.37588 z"/></g></svg>