<svg xmlns="http://www.w3.org/2000/svg" xmlns:svg="http://www.w3.org/2000/svg" xmlns:xlink="http://www.w3.org/1999/xlink" id="svg2" width="48" height="48" version="1.1"><defs id="defs4"><linearGradient id="linearGradient6110" x1="269.97" x2="286.628" y1="511.966" y2="511.966" gradientTransform="matrix(1.4799472,0,0,1.4799472,-400.19494,-731.41596)" gradientUnits="userSpaceOnUse" spreadMethod="reflect" xlink:href="#linearGradient5495"/><linearGradient id="linearGradient5495"><stop id="stop5497" offset="0" stop-color="#c6c6c6" stop-opacity="1"/><stop id="stop5501" offset=".205" stop-color="#e3e3e3" stop-opacity="1"/><stop id="stop5499" offset="1" stop-color="#a5a5a8" stop-opacity="1"/></linearGradient><linearGradient id="linearGradient6112" x1="282.357" x2="286.631" y1="518.557" y2="527.335" gradientTransform="matrix(1.4799472,0,0,1.4799472,-400.19845,-768.98385)" gradientUnits="userSpaceOnUse" xlink:href="#linearGradient5466"/><linearGradient id="linearGradient5466"><stop id="stop5468" offset="0" stop-color="#e3e3e3" stop-opacity="1"/><stop id="stop5470" offset="1" stop-color="#a5a5a8" stop-opacity="1"/></linearGradient><linearGradient id="linearGradient6114" x1="308.5" x2="327.781" y1="522.612" y2="520.328" gradientTransform="matrix(1.252263,0,0,1.252263,-361.79481,360.15937)" gradientUnits="userSpaceOnUse" spreadMethod="reflect" xlink:href="#linearGradient6035"/><linearGradient id="linearGradient6035"><stop id="stop6037" offset="0" stop-color="#fff" stop-opacity="1"/><stop id="stop6039" offset="1" stop-color="#fff" stop-opacity="0"/></linearGradient><linearGradient id="linearGradient6116" x1="308.5" x2="327.781" y1="522.612" y2="520.328" gradientTransform="matrix(1.252263,0,0,1.252263,-361.79481,-630.14387)" gradientUnits="userSpaceOnUse" spreadMethod="reflect" xlink:href="#linearGradient6035"/><linearGradient id="linearGradient6118" x1="308.5" x2="327.781" y1="522.612" y2="520.328" gradientTransform="matrix(1.252263,0,0,1.252263,-361.79481,-616.96611)" gradientUnits="userSpaceOnUse" spreadMethod="reflect" xlink:href="#linearGradient6035"/></defs><metadata id="metadata7"/><g id="layer1" transform="translate(0,-1004.3622)"><path id="path5488" fill="url(#linearGradient6110)" fill-opacity="1" stroke="none" d="M 0 3.5292969 L 0 43.992188 C 1.0890878 45.544889 3.500924 46.925321 6.8144531 48 L 41.185547 48 C 44.499076 46.925321 46.910912 45.544889 48 43.992188 L 48 3.5292969 L 0 3.5292969 z" transform="translate(0,1004.3622)"/><path id="path5460" fill="url(#linearGradient6112)" fill-opacity="1" stroke="none" d="M 1.9453125 0 C 1.6171249 0 1.3116384 0.088071808 1.0410156 0.23046875 C 0.74767755 0.48038772 0.47584771 0.73496048 0.25585938 0.99609375 C 0.098136179 1.2773674 0 1.598638 0 1.9453125 L 0 5.1191406 C 2.5701666 8.7452745 12.336345 11.445312 24 11.445312 C 35.663655 11.445312 45.429833 8.7452745 48 5.1191406 L 48 1.9453125 C 48 1.598638 47.901864 1.2773674 47.744141 0.99609375 C 47.524152 0.73496048 47.252322 0.48038772 46.958984 0.23046875 C 46.688362 0.088071808 46.382875 0 46.054688 0 L 1.9453125 0 z" transform="translate(0,1004.3622)"/><path id="path6026" fill="#565656" fill-opacity="1" stroke="none" d="M 0 31.097656 L 0 32.347656 C 2.5724379 35.974107 12.352434 38.671875 24.019531 38.671875 C 35.678205 38.671875 45.426584 35.979895 48 32.357422 L 48 31.134766 C 43.426837 34.525799 34.420228 36.832031 24.019531 36.832031 C 13.598677 36.832031 4.5658044 34.500696 0 31.097656 z" transform="translate(0,1004.3622)"/><path id="path6030" fill="url(#linearGradient6114)" fill-opacity="1" stroke="none" d="m -0.67349779,1007.6967 c 0.18451517,4.4883 11.18499079,8.1005 24.69306679,8.1005 13.469686,0 24.40886,-3.5915 24.653929,-8.0612 -0.270136,0.2291 -0.551973,0.445 -0.860933,0.6653 -0.0113,0.023 -0.02706,0.026 -0.03913,0.034 -2.870363,3.4783 -12.401773,6.0268 -23.753862,6.0268 -11.423181,0 -21.0200261,-2.5934 -23.83213414,-6.1049 -0.0311821,-0.025 -0.04758,-0.056 -0.0782718,-0.081 -0.27389622,-0.2001 -0.54046497,-0.3797 -0.7826655,-0.5869 z"/><path id="path6022" fill="#565656" fill-opacity="1" stroke="none" d="M 0 17.919922 L 0 19.169922 C 2.5724379 22.796437 12.352434 25.494141 24.019531 25.494141 C 35.678205 25.494141 45.426584 22.80218 48 19.179688 L 48 17.955078 C 43.426837 21.346189 34.420228 23.654297 24.019531 23.654297 C 13.598677 23.654297 4.5658044 21.323967 0 17.919922 z" transform="translate(0,1004.3622)"/><path id="path6043" fill="url(#linearGradient6116)" fill-opacity="1" stroke="none" d="M 48 18.439453 C 45.419662 22.059049 35.67162 24.751953 24.019531 24.751953 C 12.352746 24.751953 2.5731396 22.079654 0 18.457031 L 0 19.169922 C 2.572438 22.796437 12.352434 25.494141 24.019531 25.494141 C 35.678205 25.494141 45.426584 22.80218 48 19.179688 L 48 18.439453 z" transform="translate(0,1004.3622)"/><path id="path6054" fill="url(#linearGradient6118)" fill-opacity="1" stroke="none" d="M 48 31.615234 C 45.419479 35.23469 35.671438 37.927734 24.019531 37.927734 C 12.352746 37.927734 2.5731396 35.255448 0 31.632812 L 0 32.347656 C 2.572438 35.974107 12.352434 38.671875 24.019531 38.671875 C 35.678205 38.671875 45.426584 35.979895 48 32.357422 L 48 31.615234 z" transform="translate(0,1004.3622)"/><path id="path7515" fill="#fff" fill-opacity=".537" stroke="none" d="m 2.5312499,1005.0185 c -0.9170884,0 -1.67114675,0.6395 -1.84374995,1.5 0.33561205,-0.2799 0.77451215,-0.4375 1.24999995,-0.4375 l 44.1250001,0 c 0.475488,0 0.914388,0.1576 1.25,0.4375 -0.172603,-0.8605 -0.926662,-1.5 -1.84375,-1.5 L 2.5312499,1005.0185 Z"/><path id="rect4280" fill="#000" fill-opacity=".392" stroke="none" d="m 1.9374999,1004.3622 c -1.07727695,0 -1.937499949999999,0.8602 -1.937499949999999,1.9375 l 0,43.0625 c 0,0.7934 0.480023599999999,1.449 1.156249949999999,1.75 -0.30934165,-0.3333 -0.49999995,-0.7824 -0.49999995,-1.2812 l 0,-42.9375 c 0,-1.0482 0.82689895,-1.875 1.87499995,-1.875 l 42.9375001,0 c 1.048101,0 1.875,0.8268 1.875,1.875 l 0,42.9375 c 0,0.4988 -0.190658,0.9479 -0.5,1.2812 0.676226,-0.301 1.15625,-0.9566 1.15625,-1.75 l 0,-43.0625 c 0,-1.0773 -0.860223,-1.9375 -1.9375,-1.9375 L 1.9374999,1004.3622 Z"/><path id="path6060" fill="#565656" fill-opacity="1" stroke="none" d="M 0 44.527344 L 0 45.072266 C 0.75329589 46.14758 2.1452766 47.136426 4.03125 48 L 7.3183594 48 C 4.3014288 47.062423 1.8015205 45.879084 0 44.527344 z M 48 44.601562 C 46.212818 45.924415 43.754034 47.080645 40.796875 48 L 43.966797 48 C 45.839405 47.143075 47.232123 46.16444 48 45.101562 L 48 44.601562 z" transform="translate(0,1004.3622)"/><path id="rect846" fill="#000" fill-opacity="1" stroke="none" d="m -4.9999999e-8,1049.3622 0,1.0625 c 0,1.0773 0.860222899999999,1.9375 1.937499949999999,1.9375 l 44.1250001,0 c 1.077277,0 1.9375,-0.8602 1.9375,-1.9375 l 0,-1.0625 c 0,1.0773 -0.860223,1.9375 -1.9375,1.9375 l -44.1250002,0 C 0.86022285,1051.2997 -4.9999999e-8,1050.4395 -4.9999999e-8,1049.3622 Z"/></g></svg>