<svg xmlns="http://www.w3.org/2000/svg" xmlns:svg="http://www.w3.org/2000/svg" xmlns:xlink="http://www.w3.org/1999/xlink" id="svg3066" width="48" height="48" version="1.1"><defs id="defs3068"><linearGradient id="linearGradient912"><stop id="stop914" offset="0" stop-color="#000" stop-opacity=".949"/><stop id="stop916" offset="1" stop-color="#000" stop-opacity="0"/></linearGradient><linearGradient id="linearGradient3795"><stop id="stop3797" offset="0" stop-color="#0e0f10" stop-opacity="1"/><stop id="stop3799" offset="1" stop-color="#333" stop-opacity="1"/></linearGradient><linearGradient id="linearGradient3064" x1="23.204" x2="23.204" y1="1052.362" y2="1004.362" gradientTransform="translate(0,2.9e-5)" gradientUnits="userSpaceOnUse" xlink:href="#linearGradient3795"/><linearGradient id="linearGradient942"><stop id="stop944" offset="0" stop-color="#ff2d30" stop-opacity="1"/><stop id="stop946" offset="1" stop-color="#fff" stop-opacity="0"/></linearGradient><linearGradient id="linearGradient927"><stop id="stop929" offset="0" stop-color="#000" stop-opacity="1"/><stop id="stop933" offset=".5" stop-color="#000" stop-opacity=".626"/><stop id="stop931" offset="1" stop-color="#000" stop-opacity="0"/></linearGradient><linearGradient id="linearGradient910-8"><stop id="stop912" offset="0" stop-color="#cb0000" stop-opacity="1"/><stop id="stop918" offset=".5" stop-color="#f8935f" stop-opacity="1"/><stop id="stop914-1" offset="1" stop-color="#d10003" stop-opacity="1"/></linearGradient><linearGradient id="linearGradient864"><stop id="stop866" offset="0" stop-color="#6a6a6a" stop-opacity=".791"/><stop id="stop868" offset="1" stop-color="#1b1b1b" stop-opacity=".702"/></linearGradient><linearGradient id="linearGradient854"><stop id="stop856" offset="0" stop-color="#2b2b2b" stop-opacity="1"/><stop id="stop858" offset="1" stop-color="#111113" stop-opacity="1"/></linearGradient><linearGradient id="linearGradient860" x1="70.118" x2="70.118" y1="36.314" y2="8.679" gradientTransform="translate(-94.186944,-1051.1334)" gradientUnits="userSpaceOnUse" xlink:href="#linearGradient854"/><linearGradient id="linearGradient870" x1="71.699" x2="71.699" y1="37.482" y2="7.785" gradientTransform="matrix(1.0340909,0,0,1.0340909,-96.579694,1004.8147)" gradientUnits="userSpaceOnUse" xlink:href="#linearGradient864"/><linearGradient id="linearGradient882" x1="71.424" x2="71.424" y1="10.397" y2="35.695" gradientTransform="translate(-93.843234,-1051.1334)" gradientUnits="userSpaceOnUse" xlink:href="#linearGradient912"/><linearGradient id="linearGradient899" x1="26.535" x2="26.535" y1="9.091" y2="16.103" gradientTransform="matrix(-0.99850618,0,0,-0.98002453,47.337824,1050.7432)" gradientUnits="userSpaceOnUse" xlink:href="#linearGradient912"/><linearGradient id="linearGradient916" x1="13.813" x2="32.938" y1="16.656" y2="16.656" gradientTransform="matrix(-1,0,0,-1,47.372724,1049.275)" gradientUnits="userSpaceOnUse" xlink:href="#linearGradient910-8"/><linearGradient id="linearGradient922" x1="24.396" x2="24.396" y1="15.707" y2="13.229" gradientTransform="matrix(-0.99962054,0,0,5.0148342,47.368424,954.34326)" gradientUnits="userSpaceOnUse" xlink:href="#linearGradient927"/><linearGradient id="linearGradient948" x1="25.298" x2="25.298" y1="25.04" y2="17.097" gradientTransform="matrix(-0.99850618,0,0,-0.69468972,47.337824,1046.8677)" gradientUnits="userSpaceOnUse" xlink:href="#linearGradient942"/><linearGradient id="linearGradient968" x1="13.358" x2="14.485" y1="19.782" y2="19.782" gradientTransform="matrix(-1,0,0,-1.2357023,47.372724,1057.1084)" gradientUnits="userSpaceOnUse" xlink:href="#linearGradient912"/><linearGradient id="linearGradient1054" x1="13.358" x2="14.485" y1="19.782" y2="19.782" gradientTransform="matrix(1,0,0,-1.2357023,0.62732363,1057.1084)" gradientUnits="userSpaceOnUse" xlink:href="#linearGradient912"/></defs><metadata id="metadata3071"/><g id="layer1" transform="translate(0,-1004.3622)"><path id="rect4069" fill="url(#linearGradient3064)" fill-opacity="1" stroke="none" d="m 1.9375,1004.3622 c -1.07728,0 -1.9375,0.8602 -1.9375,1.9375 l 0,44.125 c 0,1.0773 0.86022,1.9375 1.9375,1.9375 l 44.125,0 c 1.07727,0 1.9375,-0.8602 1.9375,-1.9375 l 0,-44.125 C 48,1005.2224 47.13977,1004.3622 46.0625,1004.3622 Z"/><g id="g13027" transform="translate(-384.57143,504.56421)"><path id="rect846" fill="#000" fill-opacity="1" stroke="none" d="m 384.57143,544.79799 0,1.0625 c 0,1.0773 0.86022,1.9375 1.9375,1.9375 l 44.125,0 c 1.07728,0 1.9375,-0.8602 1.9375,-1.9375 l 0,-1.0625 c 0,1.0773 -0.86022,1.9375 -1.9375,1.9375 l -44.125,0 c -1.07728,0 -1.9375,-0.8602 -1.9375,-1.9375 z"/><path id="path7515" fill="#fff" fill-opacity=".537" stroke="none" d="m 387.10268,500.45429 c -0.91709,0 -1.67115,0.6395 -1.84375,1.5 0.33561,-0.2799 0.77451,-0.4375 1.25,-0.4375 l 44.125,0 c 0.47549,0 0.91439,0.1576 1.25,0.4375 -0.1726,-0.8605 -0.92666,-1.5 -1.84375,-1.5 l -42.9375,0 z"/><path id="rect4280" fill="#000" fill-opacity=".392" stroke="none" d="m 386.50893,499.79799 c -1.07728,0 -1.9375,0.8602 -1.9375,1.9375 l 0,43.0625 c 0,0.7934 0.48002,1.449 1.15625,1.75 -0.30934,-0.3333 -0.5,-0.7824 -0.5,-1.2812 l 0,-42.9375 c 0,-1.0482 0.8269,-1.875 1.875,-1.875 l 42.9375,0 c 1.0481,0 1.875,0.8268 1.875,1.875 l 0,42.9375 c 0,0.4988 -0.19066,0.9479 -0.5,1.2812 0.67623,-0.301 1.15625,-0.9566 1.15625,-1.75 l 0,-43.0625 c 0,-1.0773 -0.86022,-1.9375 -1.9375,-1.9375 l -44.125,0 z"/></g><rect id="rect862" width="23.743" height="29.999" x="-35.872" y="1013.363" fill="url(#linearGradient870)" fill-opacity="1" fill-rule="nonzero" stroke="none" stroke-width="1.4" color="#000" display="inline" enable-background="accumulate" opacity=".933" overflow="visible" ry="1.637" transform="scale(-1,1)" visibility="visible" style="marker:none"/><rect id="rect850-5" width="22.96" height="29.01" x="-35.48" y="-1042.867" fill="#000" fill-opacity="1" fill-rule="nonzero" stroke="none" stroke-width="1.4" color="#000" display="inline" enable-background="accumulate" overflow="visible" ry="1.583" transform="scale(-1,-1)" visibility="visible" style="marker:none"/><rect id="rect852" width="21.377" height="27.01" x="-34.689" y="-1041.867" fill="url(#linearGradient860)" fill-opacity="1" fill-rule="nonzero" stroke="none" stroke-width="1.4" color="#000" display="inline" enable-background="accumulate" overflow="visible" ry="1.474" transform="scale(-1,-1)" visibility="visible" style="marker:none"/><rect id="rect872" width="19.794" height="25.01" x="-33.897" y="-1040.867" fill="url(#linearGradient882)" fill-opacity="1" fill-rule="nonzero" stroke="none" stroke-width="1.4" color="#000" display="inline" enable-background="accumulate" overflow="visible" ry="1.365" transform="scale(-1,-1)" visibility="visible" style="marker:none"/><rect id="rect884" width="19.111" height="24.146" x="-33.556" y="-1040.435" fill="#dd0001" fill-opacity="1" fill-rule="nonzero" stroke="none" stroke-width="1.4" color="#000" display="inline" enable-background="accumulate" overflow="visible" ry="1.318" transform="scale(-1,-1)" visibility="visible" style="marker:none"/><path id="rect888" fill="url(#linearGradient899)" fill-opacity="1" fill-rule="nonzero" stroke="none" stroke-width="1.4" d="m 32.235424,1040.2692 c 0.7288,0 1.3105,-0.6016 1.3105,-1.3169 l 0,-4.257 -19.0964,0 0,4.257 c 0,0.7153 0.5817,1.3169 1.3105,1.3169 l 16.4754,0 z" color="#000" display="inline" enable-background="accumulate" overflow="visible" visibility="visible" style="marker:none"/><path id="rect901" fill="url(#linearGradient916)" fill-opacity="1" fill-rule="nonzero" stroke="none" stroke-width="1.4" d="m 33.000024,1032.331 -18,0 0,0.5625 18,0 0,-0.5625 z" color="#000" display="inline" enable-background="accumulate" overflow="visible" visibility="visible" style="marker:none"/><path id="path920-2" fill="url(#linearGradient922)" fill-opacity="1" fill-rule="nonzero" stroke="none" stroke-width="1.4" d="m 33.562524,1017.6122 c 0,-0.7299 -0.5826,-1.3125 -1.3125,-1.3125 l -16.5,0 c -0.7299,0 -1.3125,0.5826 -1.3125,1.3125 l 0,9.6875 0.5312,4.9688 0.031,0.062 18,0 0.031,-0.062 0.2187,-2 0.3125,-2.9688 0,-0.094 0,-9.5938 z" color="#000" display="inline" enable-background="accumulate" opacity=".512" overflow="visible" visibility="visible" style="marker:none"/><path id="rect937" fill="url(#linearGradient948)" fill-opacity="1" fill-rule="nonzero" stroke="none" stroke-width="1.4" d="m 33.375024,1036.1122 -0.3437,-3.1562 -0.031,-0.062 -18,0 -0.031,0.062 -0.3437,3.1562 18.75,0 z" color="#000" display="inline" enable-background="accumulate" opacity=".512" overflow="visible" visibility="visible" style="marker:none"/><path id="path952" fill="url(#linearGradient968)" fill-opacity="1" fill-rule="nonzero" stroke="none" stroke-width="1.4" d="m 33.562524,1027.2997 -0.5312,4.9688 -0.031,0.055 0,0.5703 0.031,0.062 0.5312,5 0,-5 0,-0.062 0,-0.5625 0,-0.062 z" color="#000" display="inline" enable-background="accumulate" overflow="visible" visibility="visible" style="marker:none"/><path id="rect974" fill="#fff" fill-opacity=".43" fill-rule="nonzero" stroke="none" stroke-width="1.4" d="m 33.310224,1016.8935 c -0.2369,-0.3465 -0.6092,-0.5938 -1.0625,-0.5938 l -16.5,0 c -0.444,0 -0.7928,0.2279 -1.0312,0.5625 0.2236,-0.175 0.4739,-0.2812 0.7812,-0.2812 l 17,0 c 0.3162,0 0.5859,0.1281 0.8125,0.3125 z" color="#000" display="inline" enable-background="accumulate" overflow="visible" visibility="visible" style="marker:none"/><path id="path982" fill="#fff" fill-opacity=".234" fill-rule="nonzero" stroke="none" stroke-width="1.4" d="m 23.997724,1027.3736 c 1.1736,0 2.125,0.7555 2.125,1.6875 0,0.932 -0.9514,1.6875 -2.125,1.6875 -1.1736,0 -2.125,-0.7555 -2.125,-1.6875 0,-0.932 0.9514,-1.6875 2.125,-1.6875 z m 0,0.3214 c -0.95,0 -1.7202,0.6117 -1.7202,1.3661 0,0.7545 0.7702,1.3661 1.7202,1.3661 0.9501,0 1.7203,-0.6116 1.7203,-1.3661 0,-0.7544 -0.7702,-1.3661 -1.7203,-1.3661 z" color="#000" display="inline" enable-background="accumulate" overflow="visible" visibility="visible" style="marker:none"/><rect id="rect987" width=".75" height="3.5" x="-24.375" y="-1022.634" fill="#fff" fill-opacity=".557" fill-rule="nonzero" stroke="none" stroke-width="1.4" color="#000" display="inline" enable-background="accumulate" overflow="visible" ry="0" transform="scale(-1,-1)" visibility="visible" style="marker:none"/><rect id="rect871-4" width=".34" height="2.233" x="-25.65" y="-1050.633" fill="#000" fill-opacity=".536" fill-rule="nonzero" stroke="none" stroke-width="1.4" color="#000" display="inline" enable-background="accumulate" opacity=".933" overflow="visible" ry="0" transform="scale(-1,-1)" visibility="visible" style="marker:none"/><rect id="rect873" width=".34" height="2.233" x="-25.65" y="-1046.603" fill="#000" fill-opacity=".536" fill-rule="nonzero" stroke="none" stroke-width="1.4" color="#000" display="inline" enable-background="accumulate" opacity=".933" overflow="visible" ry="0" transform="scale(-1,-1)" visibility="visible" style="marker:none"/><rect id="rect875-1" width=".34" height="2.233" x="-25.65" y="-1012.354" fill="#000" fill-opacity=".536" fill-rule="nonzero" stroke="none" stroke-width="1.4" color="#000" display="inline" enable-background="accumulate" opacity=".933" overflow="visible" ry="0" transform="scale(-1,-1)" visibility="visible" style="marker:none"/><rect id="rect877" width=".34" height="2.233" x="-25.65" y="-1008.324" fill="#000" fill-opacity=".536" fill-rule="nonzero" stroke="none" stroke-width="1.4" color="#000" display="inline" enable-background="accumulate" opacity=".933" overflow="visible" ry="0" transform="scale(-1,-1)" visibility="visible" style="marker:none"/><rect id="rect914" width=".085" height="2.233" x="-25.65" y="-1050.633" fill="#000" fill-opacity=".536" fill-rule="nonzero" stroke="none" stroke-width="1.4" color="#000" display="inline" enable-background="accumulate" opacity=".933" overflow="visible" ry="0" transform="scale(-1,-1)" visibility="visible" style="marker:none"/><rect id="rect916" width=".085" height="2.233" x="-25.65" y="-1046.603" fill="#000" fill-opacity=".536" fill-rule="nonzero" stroke="none" stroke-width="1.4" color="#000" display="inline" enable-background="accumulate" opacity=".933" overflow="visible" ry="0" transform="scale(-1,-1)" visibility="visible" style="marker:none"/><rect id="rect918" width=".34" height="2.233" x="-22.691" y="-1050.633" fill="#000" fill-opacity=".536" fill-rule="nonzero" stroke="none" stroke-width="1.4" color="#000" display="inline" enable-background="accumulate" opacity=".933" overflow="visible" ry="0" transform="scale(-1,-1)" visibility="visible" style="marker:none"/><rect id="rect920" width=".34" height="2.233" x="-22.691" y="-1046.603" fill="#000" fill-opacity=".536" fill-rule="nonzero" stroke="none" stroke-width="1.4" color="#000" display="inline" enable-background="accumulate" opacity=".933" overflow="visible" ry="0" transform="scale(-1,-1)" visibility="visible" style="marker:none"/><rect id="rect922" width=".34" height="2.233" x="-22.691" y="-1012.354" fill="#000" fill-opacity=".536" fill-rule="nonzero" stroke="none" stroke-width="1.4" color="#000" display="inline" enable-background="accumulate" opacity=".933" overflow="visible" ry="0" transform="scale(-1,-1)" visibility="visible" style="marker:none"/><rect id="rect924" width=".34" height="2.233" x="-22.691" y="-1008.324" fill="#000" fill-opacity=".536" fill-rule="nonzero" stroke="none" stroke-width="1.4" color="#000" display="inline" enable-background="accumulate" opacity=".933" overflow="visible" ry="0" transform="scale(-1,-1)" visibility="visible" style="marker:none"/><rect id="rect926" width=".085" height="2.233" x="-22.691" y="-1050.633" fill="#000" fill-opacity=".536" fill-rule="nonzero" stroke="none" stroke-width="1.4" color="#000" display="inline" enable-background="accumulate" opacity=".933" overflow="visible" ry="0" transform="scale(-1,-1)" visibility="visible" style="marker:none"/><rect id="rect928" width=".085" height="2.233" x="-22.691" y="-1046.603" fill="#000" fill-opacity=".536" fill-rule="nonzero" stroke="none" stroke-width="1.4" color="#000" display="inline" enable-background="accumulate" opacity=".933" overflow="visible" ry="0" transform="scale(-1,-1)" visibility="visible" style="marker:none"/><path id="path1052" fill="url(#linearGradient1054)" fill-opacity="1" fill-rule="nonzero" stroke="none" stroke-width="1.4" d="m 14.437524,1027.2997 0.5312,4.9688 0.031,0.055 0,0.5703 -0.031,0.062 -0.5312,5 0,-5 0,-0.062 0,-0.5625 0,-0.062 z" color="#000" display="inline" enable-background="accumulate" overflow="visible" visibility="visible" style="marker:none"/></g></svg>