<svg xmlns="http://www.w3.org/2000/svg" xmlns:svg="http://www.w3.org/2000/svg" xmlns:xlink="http://www.w3.org/1999/xlink" id="svg2" width="48" height="48" version="1.1"><defs id="defs4"><linearGradient id="linearGradient4815"><stop id="stop4817" offset="0" stop-color="#fff" stop-opacity="1"/><stop id="stop4819" offset="1" stop-color="#fff" stop-opacity="0"/></linearGradient><linearGradient id="linearGradient4269"><stop id="stop4271" offset="0" stop-color="#6f0" stop-opacity="1"/><stop id="stop4273" offset="1" stop-color="#6f0" stop-opacity="0"/></linearGradient><linearGradient id="linearGradient4209"><stop id="stop4211" offset="0" stop-color="#4d4d4d" stop-opacity="1"/><stop id="stop4223" offset=".47" stop-color="#333" stop-opacity="1"/><stop id="stop4213" offset="1" stop-color="#1a1a1a" stop-opacity="1"/></linearGradient><linearGradient id="linearGradient1351"><stop id="stop1353" offset="0" stop-color="#1c1e24" stop-opacity="1"/><stop id="stop1355" offset="1" stop-color="#34363e" stop-opacity="1"/></linearGradient><linearGradient id="linearGradient7111-8"><stop id="stop7113-9" offset="0" stop-color="#fff" stop-opacity=".408"/><stop id="stop7115-9" offset="1" stop-color="#fff" stop-opacity="0"/></linearGradient><linearGradient id="linearGradient11118" x1="-457.017" x2="-247.091" y1="346.421" y2="313.136" gradientUnits="userSpaceOnUse" xlink:href="#linearGradient10141-5"/><linearGradient id="linearGradient10141-5"><stop id="stop10143-9" offset="0" stop-color="#6f0" stop-opacity="1"/><stop id="stop10145-4" offset="1" stop-color="#6f0" stop-opacity="0"/></linearGradient><linearGradient id="linearGradient1357" x1="25.102" x2="25.102" y1="-1052.393" y2="-1004.356" gradientUnits="userSpaceOnUse" xlink:href="#linearGradient1351"/><linearGradient id="linearGradient4199" x1="10.4" x2="42.959" y1="38.409" y2="5.181" gradientUnits="userSpaceOnUse" xlink:href="#linearGradient6390"/><radialGradient id="radialGradient4221" cx="26.479" cy="22.163" r="16.69" fx="26.479" fy="22.163" gradientTransform="translate(3.0260821e-6,0)" gradientUnits="userSpaceOnUse" xlink:href="#linearGradient4209"/><radialGradient id="radialGradient4275" cx="26.479" cy="22.163" r="16.69" fx="26.479" fy="22.163" gradientUnits="userSpaceOnUse" xlink:href="#linearGradient4269"/><radialGradient id="radialGradient4288" cx="26.479" cy="22.163" r="16.69" fx="26.479" fy="22.163" gradientUnits="userSpaceOnUse" xlink:href="#linearGradient4269"/><radialGradient id="radialGradient4301" cx="26.479" cy="22.163" r="16.69" fx="26.479" fy="22.163" gradientUnits="userSpaceOnUse" xlink:href="#linearGradient4269"/><radialGradient id="radialGradient4303" cx="26.479" cy="22.163" r="16.69" fx="26.479" fy="22.163" gradientUnits="userSpaceOnUse" xlink:href="#linearGradient4269"/><radialGradient id="radialGradient4315" cx="26.479" cy="22.163" r="16.69" fx="26.479" fy="22.163" gradientUnits="userSpaceOnUse" xlink:href="#linearGradient4269"/><radialGradient id="radialGradient4767" cx="26.479" cy="22.163" r="16.69" fx="26.479" fy="22.163" gradientUnits="userSpaceOnUse" xlink:href="#linearGradient4269"/><linearGradient id="linearGradient4821" x1="25.837" x2="25.837" y1=".98" y2="19.515" gradientUnits="userSpaceOnUse" xlink:href="#linearGradient4815"/><linearGradient id="linearGradient4855" x1="27.504" x2="27.504" y1="-17.775" y2="34.499" gradientUnits="userSpaceOnUse" xlink:href="#linearGradient7111-8"/><linearGradient id="linearGradient6390"><stop id="stop6392" offset="0" stop-color="#fff" stop-opacity="1"/><stop id="stop6414" offset=".165" stop-color="#29282b" stop-opacity="1"/><stop id="stop6416" offset=".261" stop-color="#868c95" stop-opacity="1"/><stop id="stop6418" offset=".395" stop-color="#92979f" stop-opacity="1"/><stop id="stop6420" offset=".543" stop-color="#737881" stop-opacity="1"/><stop id="stop6422" offset=".626" stop-color="#70757e" stop-opacity="1"/><stop id="stop6424" offset=".721" stop-color="#e4e6e8" stop-opacity="1"/><stop id="stop6426" offset=".795" stop-color="#fff" stop-opacity="1"/><stop id="stop6394" offset="1" stop-color="#1d191a" stop-opacity="1"/></linearGradient></defs><metadata id="metadata7"/><g id="layer1" transform="translate(0,-1004.3622)"><rect id="rect2991-1-7" width="48" height="48" x="0" y="-1052.362" fill="url(#linearGradient1357)" fill-opacity="1" stroke="none" ry="1.945" transform="scale(1,-1)"/><path id="rect846" fill="#000" fill-opacity="1" stroke="none" d="m -5.761023e-6,1049.3622 0,1.0625 c 0,1.0773 0.860220001023,1.9375 1.937499961023,1.9375 l 44.1249998,0 c 1.07728,0 1.9375,-0.8602 1.9375,-1.9375 l 0,-1.0625 c 0,1.0773 -0.86022,1.9375 -1.9375,1.9375 l -44.1249998,0 C 0.86021424,1051.2997 -5.761023e-6,1050.4395 -5.761023e-6,1049.3622 Z"/><path id="path7515" fill="#fff" fill-opacity=".537" stroke="none" d="m 2.5312442,1005.0185 c -0.91709,0 -1.67114996,0.6395 -1.84374996,1.5 0.33560996,-0.2799 0.77450996,-0.4375 1.24999996,-0.4375 l 44.1249998,0 c 0.47549,0 0.91439,0.1576 1.25,0.4375 -0.1726,-0.8605 -0.92666,-1.5 -1.84375,-1.5 L 2.5312442,1005.0185 Z"/><path id="rect4280" fill="#000" fill-opacity=".392" stroke="none" d="m 1.9374942,1004.3622 c -1.07727996,0 -1.937499961023,0.8602 -1.937499961023,1.9375 l 0,43.0625 c 0,0.7934 0.480020001023,1.449 1.156249961023,1.75 -0.30933996,-0.3333 -0.49999996,-0.7824 -0.49999996,-1.2812 l 0,-42.9375 c 0,-1.0482 0.82689996,-1.875 1.87499996,-1.875 l 42.9374998,0 c 1.0481,0 1.875,0.8268 1.875,1.875 l 0,42.9375 c 0,0.4988 -0.19066,0.9479 -0.5,1.2812 0.67623,-0.301 1.15625,-0.9566 1.15625,-1.75 l 0,-43.0625 c 0,-1.0773 -0.86022,-1.9375 -1.9375,-1.9375 L 1.9374942,1004.3622 Z"/><g id="g6520"><path id="path4861" fill="#000" fill-opacity=".235" stroke="none" d="m 43.168619,22.163019 a 16.689726,16.689726 0 1 1 -33.3794516,0 A 16.689726,16.689726 0 1 1 43.168619,22.163019 Z" transform="matrix(0.84258424,0,0,0.84258424,1.6893019,1011.2885)"/><path id="path4769" fill="#fff" fill-opacity=".235" stroke="none" d="m 43.168619,22.163019 a 16.689726,16.689726 0 1 1 -33.3794516,0 A 16.689726,16.689726 0 1 1 43.168619,22.163019 Z" transform="matrix(0.95867362,0,0,0.95867362,-1.3846165,1007.1151)"/><path id="path4191" fill="url(#linearGradient4199)" fill-opacity="1" stroke="none" d="m 43.168619,22.163019 a 16.689726,16.689726 0 1 1 -33.3794516,0 A 16.689726,16.689726 0 1 1 43.168619,22.163019 Z" transform="matrix(0.89875652,0,0,0.89875652,0.20192204,1008.443)"/><path id="path4857" fill="#000" fill-opacity=".235" stroke="none" d="m 43.168619,22.163019 a 16.689726,16.689726 0 1 1 -33.3794516,0 A 16.689726,16.689726 0 1 1 43.168619,22.163019 Z" transform="matrix(0.84258424,0,0,0.84258424,1.6893019,1010.0885)"/><path id="path4205" fill="url(#radialGradient4221)" fill-opacity="1" stroke="none" d="m 43.168619,22.163019 a 16.689726,16.689726 0 1 1 -33.3794516,0 A 16.689726,16.689726 0 1 1 43.168619,22.163019 Z" transform="matrix(0.84258424,0,0,0.84258424,1.6893019,1009.688)"/><path id="rect4781" fill="#6f0" fill-opacity=".235" stroke="none" d="M 23.75 9.9375 L 23.75 12 C 17.323995 12.133225 12.133227 17.32392 12 23.75 L 9.9375 23.75 C 9.9360241 23.833907 9.9375 23.915741 9.9375 24 C 9.9375 24.084259 9.9360241 24.166093 9.9375 24.25 L 12 24.25 C 12.133227 30.67608 17.323995 35.866775 23.75 36 L 23.75 38.0625 C 23.833907 38.063976 23.915741 38.0625 24 38.0625 C 24.084259 38.0625 24.166093 38.063976 24.25 38.0625 L 24.25 36 C 30.676005 35.866775 35.866773 30.67608 36 24.25 L 38.0625 24.25 C 38.063976 24.166093 38.0625 24.084259 38.0625 24 C 38.0625 23.915741 38.063976 23.833907 38.0625 23.75 L 36 23.75 C 35.866773 17.32392 30.676005 12.133225 24.25 12 L 24.25 9.9375 C 24.166093 9.9360241 24.084259 9.9375 24 9.9375 C 23.915741 9.9375 23.833907 9.9360241 23.75 9.9375 z M 23.75 12.5625 L 23.75 13.8125 L 22.5 13.8125 L 22.5 14.1875 L 23.75 14.1875 L 23.75 16 C 19.533271 16.131298 16.131299 19.533252 16 23.75 L 14.1875 23.75 L 14.1875 22.5 L 13.8125 22.5 L 13.8125 23.75 L 12.5625 23.75 C 12.695906 17.628944 17.629161 12.6959 23.75 12.5625 z M 24.25 12.5625 C 30.370839 12.6959 35.304094 17.628944 35.4375 23.75 L 34.1875 23.75 L 34.1875 22.5 L 33.8125 22.5 L 33.8125 23.75 L 32 23.75 C 31.868701 19.533252 28.466729 16.131298 24.25 16 L 24.25 14.1875 L 25.5 14.1875 L 25.5 13.8125 L 24.25 13.8125 L 24.25 12.5625 z M 23.75 16.59375 L 23.75 17.8125 L 22.5 17.8125 L 22.5 18.1875 L 23.75 18.1875 L 23.75 21.03125 C 22.300071 21.155419 21.155419 22.300071 21.03125 23.75 L 18.1875 23.75 L 18.1875 22.5 L 17.8125 22.5 L 17.8125 23.75 L 16.59375 23.75 C 16.725016 19.864572 19.864738 16.725008 23.75 16.59375 z M 24.25 16.59375 C 28.135262 16.725008 31.274984 19.864572 31.40625 23.75 L 30.1875 23.75 L 30.1875 22.5 L 29.8125 22.5 L 29.8125 23.75 L 26.96875 23.75 C 26.844581 22.300071 25.699929 21.155419 24.25 21.03125 L 24.25 18.1875 L 25.5 18.1875 L 25.5 17.8125 L 24.25 17.8125 L 24.25 16.59375 z M 23.75 21.4375 L 23.75 23.75 L 21.4375 23.75 C 21.555087 22.514721 22.514721 21.555087 23.75 21.4375 z M 24.25 21.4375 C 25.485279 21.555087 26.444913 22.514721 26.5625 23.75 L 24.25 23.75 L 24.25 21.4375 z M 12.5625 24.25 L 13.8125 24.25 L 13.8125 25.5 L 14.1875 25.5 L 14.1875 24.25 L 16 24.25 C 16.131299 28.466748 19.533271 31.868702 23.75 32 L 23.75 33.8125 L 22.5 33.8125 L 22.5 34.1875 L 23.75 34.1875 L 23.75 35.4375 C 17.629161 35.3041 12.695906 30.371056 12.5625 24.25 z M 16.59375 24.25 L 17.8125 24.25 L 17.8125 25.5 L 18.1875 25.5 L 18.1875 24.25 L 21.03125 24.25 C 21.155419 25.699929 22.300071 26.844581 23.75 26.96875 L 23.75 29.8125 L 22.5 29.8125 L 22.5 30.1875 L 23.75 30.1875 L 23.75 31.40625 C 19.864738 31.274992 16.725016 28.135428 16.59375 24.25 z M 21.4375 24.25 L 23.75 24.25 L 23.75 26.5625 C 22.514721 26.444913 21.555087 25.485279 21.4375 24.25 z M 24.25 24.25 L 26.5625 24.25 C 26.444913 25.485279 25.485279 26.444913 24.25 26.5625 L 24.25 24.25 z M 26.96875 24.25 L 29.8125 24.25 L 29.8125 25.5 L 30.1875 25.5 L 30.1875 24.25 L 31.40625 24.25 C 31.274984 28.135428 28.135262 31.274992 24.25 31.40625 L 24.25 30.1875 L 25.5 30.1875 L 25.5 29.8125 L 24.25 29.8125 L 24.25 26.96875 C 25.699929 26.844581 26.844581 25.699929 26.96875 24.25 z M 32 24.25 L 33.8125 24.25 L 33.8125 25.5 L 34.1875 25.5 L 34.1875 24.25 L 35.4375 24.25 C 35.304094 30.371056 30.370839 35.3041 24.25 35.4375 L 24.25 34.1875 L 25.5 34.1875 L 25.5 33.8125 L 24.25 33.8125 L 24.25 32 C 28.466729 31.868702 31.868701 28.466748 32 24.25 z" transform="translate(0,1004.3622)"/><path id="path4237" fill="#6f0" fill-opacity="1" stroke="none" d="m 43.168619,22.163019 a 16.689726,16.689726 0 1 1 -33.3794516,0 A 16.689726,16.689726 0 1 1 43.168619,22.163019 Z" transform="matrix(0.07239984,0,0,0.07239984,22.082931,1033.3201)"/><path id="path4267" fill="url(#radialGradient4275)" fill-opacity="1" stroke="none" d="m 43.168619,22.163019 a 16.689726,16.689726 0 1 1 -33.3794516,0 A 16.689726,16.689726 0 1 1 43.168619,22.163019 Z" transform="matrix(0.10859976,0,0,0.10859976,21.124398,1032.5178)"/><path id="path4277" fill="url(#radialGradient4767)" fill-opacity="1" stroke="none" d="m 43.168619,22.163019 a 16.689726,16.689726 0 1 1 -33.3794516,0 A 16.689726,16.689726 0 1 1 43.168619,22.163019 Z" transform="matrix(0.10859976,0,0,0.10859976,21.124398,1032.5178)"/><path id="path4282" fill="#6f0" fill-opacity="1" stroke="none" d="m 43.168619,22.163019 a 16.689726,16.689726 0 1 1 -33.3794516,0 A 16.689726,16.689726 0 1 1 43.168619,22.163019 Z" transform="matrix(0.07239984,0,0,0.07239984,12.895432,1020.3826)"/><path id="path4284" fill="url(#radialGradient4288)" fill-opacity="1" stroke="none" d="m 43.168619,22.163019 a 16.689726,16.689726 0 1 1 -33.3794516,0 A 16.689726,16.689726 0 1 1 43.168619,22.163019 Z" transform="matrix(0.10859976,0,0,0.10859976,11.936899,1019.5803)"/><path id="path4293" fill="url(#radialGradient4315)" fill-opacity="1" stroke="none" d="m 43.168619,22.163019 a 16.689726,16.689726 0 1 1 -33.3794516,0 A 16.689726,16.689726 0 1 1 43.168619,22.163019 Z" transform="matrix(0.10859976,0,0,0.10859976,11.936899,1019.5803)"/><path id="path4295" fill="#6f0" fill-opacity="1" stroke="none" d="m 43.168619,22.163019 a 16.689726,16.689726 0 1 1 -33.3794516,0 A 16.689726,16.689726 0 1 1 43.168619,22.163019 Z" transform="matrix(0.05242748,0,0,0.05242748,33.486779,1030.0127)"/><path id="path4297" fill="url(#radialGradient4301)" fill-opacity="1" stroke="none" d="m 43.168619,22.163019 a 16.689726,16.689726 0 1 1 -33.3794516,0 A 16.689726,16.689726 0 1 1 43.168619,22.163019 Z" transform="matrix(0.16851686,0,0,0.16851686,30.41286,1027.4399)"/><path id="path4299" fill="url(#radialGradient4303)" fill-opacity="1" stroke="none" d="m 43.168619,22.163019 a 16.689726,16.689726 0 1 1 -33.3794516,0 A 16.689726,16.689726 0 1 1 43.168619,22.163019 Z" transform="matrix(0.16851686,0,0,0.16851686,30.41286,1027.4399)"/><path id="path10131-6" fill="url(#linearGradient11118)" fill-opacity="1" stroke="none" d="M -154,192.36218 A 244,244 0 0 1 -566.26717,369.06011 L -398,192.36218 Z" opacity=".876" transform="matrix(0.00175491,-0.05552313,0.05552313,0.00175491,14.054784,1005.921)"/><path id="path10149-6" fill="#6f0" fill-opacity="1" stroke="none" stroke-width="3.685" d="m 24.12263,1028.4238 a 0.11156103,0.11156103 0 0 0 -0.06622,0.1912 l 9.387898,9.4257 a 0.1117097,0.1117097 0 1 0 0.158925,-0.157 l -9.389791,-9.4258 A 0.11156103,0.11156103 0 0 0 24.12263,1028.4238 Z" baseline-shift="baseline" color="#000" direction="ltr" display="inline" enable-background="accumulate" font-family="Sans" font-size="xx-small" font-stretch="normal" font-style="normal" font-variant="normal" font-weight="normal" letter-spacing="normal" overflow="visible" text-anchor="start" text-decoration="none" visibility="visible" word-spacing="normal" writing-mode="lr-tb" style="text-indent:0;text-align:start;line-height:normal;text-transform:none;block-progression:tb;marker:none;-inkscape-font-specification:Sans"/><path id="path4801" fill="url(#linearGradient4821)" fill-opacity="1" stroke="none" d="M 24 9.9375 C 18.385327 9.9375 13.535632 13.24221 11.28125 18 C 13.535632 22.75779 18.385327 26.0625 24 26.0625 C 29.614673 26.0625 34.464368 22.75779 36.71875 18 C 34.464368 13.24221 29.614673 9.9375 24 9.9375 z" transform="translate(0,1004.3622)"/><path id="path4851" fill="url(#linearGradient4855)" fill-opacity="1" stroke="none" d="m 43.168619,22.163019 a 16.689726,16.689726 0 1 1 -33.3794516,0 A 16.689726,16.689726 0 1 1 43.168619,22.163019 Z" transform="matrix(0.57816115,0,0,0.42671883,8.6909327,1011.9642)"/></g></g></svg>