<svg xmlns="http://www.w3.org/2000/svg" xmlns:svg="http://www.w3.org/2000/svg" xmlns:xlink="http://www.w3.org/1999/xlink" id="svg5453" width="48" height="48" version="1.1"><defs id="defs5455"><linearGradient id="linearGradient4230"><stop id="stop4232" offset="0" stop-color="#dbcaee" stop-opacity="1"/><stop id="stop4234" offset="1" stop-color="#faf7fd" stop-opacity="1"/></linearGradient><linearGradient id="linearGradient835-3" x1="-44.763" x2="-44.763" y1="-1052.843" y2="-1004.856" gradientTransform="translate(453.80111,505.04477)" gradientUnits="userSpaceOnUse" xlink:href="#linearGradient3843-5-9"/><linearGradient id="linearGradient3843-5-9"><stop id="stop3845-0-7" offset="0" stop-color="#5a2c8b" stop-opacity="1"/><stop id="stop3847-4-8" offset="1" stop-color="#9d59cf" stop-opacity="1"/></linearGradient><linearGradient id="linearGradient4224" x1="411.028" x2="411.028" y1="530.566" y2="516.816" gradientTransform="matrix(1.0713043,0,0,1.0713043,-29.132919,-37.349075)" gradientUnits="userSpaceOnUse" xlink:href="#linearGradient4230"/></defs><metadata id="metadata5458"/><g id="layer1" transform="translate(-384.57143,-499.798)"><rect id="rect2991-1-0" width="48" height="48" x="384.571" y="-547.798" fill="url(#linearGradient835-3)" fill-opacity="1" stroke="none" ry="1.945" transform="scale(1,-1)"/><path id="path4238" fill="#000" fill-opacity=".059" fill-rule="evenodd" d="m 406.02917,517.62578 -2.36649,11.55 2.80799,0 1.33076,-6.41736 2.21793,0 c 1.03453,0 1.03287,0.42739 0.88508,1.14035 l -1.03364,5.27701 2.95656,0 1.03364,-5.84614 c 0.29558,-1.42592 -0.59191,-2.56706 -2.95656,-2.70964 l -2.65943,0 0.59216,-2.99422 -2.808,0 z m -10.49334,2.99422 -2.3644,11.55 2.80799,0 0.59006,-2.99422 2.65943,0 c 2.51243,0.1426 5.32094,-1.85478 5.32094,-5.27701 0,-1.99629 -1.18195,-3.13619 -3.5466,-3.27877 l -5.46742,0 z m 19.41948,0 -2.3644,11.55 2.808,0 0.59005,-2.99422 2.66152,0 c 2.51243,0.1426 5.32095,-1.85478 5.32095,-5.27701 0,-1.99629 -1.18406,-3.13619 -3.5487,-3.27877 l -5.46742,0 z m -17.05508,2.13842 1.92082,0 c 1.03454,0 1.77435,0.42706 1.77435,1.28263 -0.14779,2.42407 -1.3314,2.85373 -2.66152,2.99631 l -1.77226,0 0.73861,-4.27894 z m 19.41949,0 1.92081,0 c 1.03454,0 1.77435,0.42706 1.77435,1.28263 -0.14778,2.42407 -1.33141,2.85373 -2.66152,2.99631 l -1.77226,0 0.73862,-4.27894 z"/><path id="path4236" fill="#000" fill-opacity=".235" fill-rule="evenodd" d="m 406.02917,517.32578 -2.36649,11.55 2.80799,0 1.33076,-6.41736 2.21793,0 c 1.03453,0 1.03287,0.42739 0.88508,1.14035 l -1.03364,5.27701 2.95656,0 1.03364,-5.84614 c 0.29558,-1.42592 -0.59191,-2.56706 -2.95656,-2.70964 l -2.65943,0 0.59216,-2.99422 -2.808,0 z m -10.49334,2.99422 -2.3644,11.55 2.80799,0 0.59006,-2.99422 2.65943,0 c 2.51243,0.1426 5.32094,-1.85478 5.32094,-5.27701 0,-1.99629 -1.18195,-3.13619 -3.5466,-3.27877 l -5.46742,0 z m 19.41948,0 -2.3644,11.55 2.808,0 0.59005,-2.99422 2.66152,0 c 2.51243,0.1426 5.32095,-1.85478 5.32095,-5.27701 0,-1.99629 -1.18406,-3.13619 -3.5487,-3.27877 l -5.46742,0 z m -17.05508,2.13842 1.92082,0 c 1.03454,0 1.77435,0.42706 1.77435,1.28263 -0.14779,2.42407 -1.3314,2.85373 -2.66152,2.99631 l -1.77226,0 0.73861,-4.27894 z m 19.41949,0 1.92081,0 c 1.03454,0 1.77435,0.42706 1.77435,1.28263 -0.14778,2.42407 -1.33141,2.85373 -2.66152,2.99631 l -1.77226,0 0.73862,-4.27894 z"/><path id="path4226" fill="#000" fill-opacity=".235" fill-rule="evenodd" d="m 406.02917,516.92578 -2.36649,11.55 2.80799,0 1.33076,-6.41736 2.21793,0 c 1.03453,0 1.03287,0.42739 0.88508,1.14035 l -1.03364,5.27701 2.95656,0 1.03364,-5.84614 c 0.29558,-1.42592 -0.59191,-2.56706 -2.95656,-2.70964 l -2.65943,0 0.59216,-2.99422 -2.808,0 z m -10.49334,2.99422 -2.3644,11.55 2.80799,0 0.59006,-2.99422 2.65943,0 c 2.51243,0.1426 5.32094,-1.85478 5.32094,-5.27701 0,-1.99629 -1.18195,-3.13619 -3.5466,-3.27877 l -5.46742,0 z m 19.41948,0 -2.3644,11.55 2.808,0 0.59005,-2.99422 2.66152,0 c 2.51243,0.1426 5.32095,-1.85478 5.32095,-5.27701 0,-1.99629 -1.18406,-3.13619 -3.5487,-3.27877 l -5.46742,0 z m -17.05508,2.13842 1.92082,0 c 1.03454,0 1.77435,0.42706 1.77435,1.28263 -0.14779,2.42407 -1.3314,2.85373 -2.66152,2.99631 l -1.77226,0 0.73861,-4.27894 z m 19.41949,0 1.92081,0 c 1.03454,0 1.77435,0.42706 1.77435,1.28263 -0.14778,2.42407 -1.33141,2.85373 -2.66152,2.99631 l -1.77226,0 0.73862,-4.27894 z"/><path id="rect846" fill="#000" fill-opacity="1" stroke="none" d="m 384.57143,544.79799 0,1.0625 c 0,1.0773 0.86022,1.9375 1.9375,1.9375 l 44.125,0 c 1.07728,0 1.9375,-0.8602 1.9375,-1.9375 l 0,-1.0625 c 0,1.0773 -0.86022,1.9375 -1.9375,1.9375 l -44.125,0 C 385.43165,546.73549 384.57143,545.87529 384.57143,544.79799 Z"/><path id="path7515" fill="#fff" fill-opacity=".537" stroke="none" d="m 387.10268,500.45429 c -0.91709,0 -1.67115,0.6395 -1.84375,1.5 0.33561,-0.2799 0.77451,-0.4375 1.25,-0.4375 l 44.125,0 c 0.47549,0 0.91439,0.1576 1.25,0.4375 -0.1726,-0.8605 -0.92666,-1.5 -1.84375,-1.5 L 387.10268,500.45429 Z"/><path id="rect4280" fill="#000" fill-opacity=".392" stroke="none" d="m 386.50893,499.79799 c -1.07728,0 -1.9375,0.8602 -1.9375,1.9375 l 0,43.0625 c 0,0.7934 0.48002,1.449 1.15625,1.75 -0.30934,-0.3333 -0.5,-0.7824 -0.5,-1.2812 l 0,-42.9375 c 0,-1.0482 0.8269,-1.875 1.875,-1.875 l 42.9375,0 c 1.0481,0 1.875,0.8268 1.875,1.875 l 0,42.9375 c 0,0.4988 -0.19066,0.9479 -0.5,1.2812 0.67623,-0.301 1.15625,-0.9566 1.15625,-1.75 l 0,-43.0625 c 0,-1.0773 -0.86022,-1.9375 -1.9375,-1.9375 L 386.50893,499.79799 Z"/><path id="path4175-3" fill="url(#linearGradient4224)" fill-opacity="1" fill-rule="evenodd" d="m 406.02917,516.52589 -2.36649,11.55 2.80799,0 1.33076,-6.41736 2.21793,0 c 1.03453,0 1.03287,0.42739 0.88508,1.14035 l -1.03364,5.27701 2.95656,0 1.03364,-5.84614 c 0.29558,-1.42592 -0.59191,-2.56706 -2.95656,-2.70964 l -2.65943,0 0.59216,-2.99422 -2.808,0 z m -10.49334,2.99422 -2.3644,11.55 2.80799,0 0.59006,-2.99422 2.65943,0 c 2.51243,0.1426 5.32094,-1.85478 5.32094,-5.27701 0,-1.99629 -1.18195,-3.13619 -3.5466,-3.27877 l -5.46742,0 z m 19.41948,0 -2.3644,11.55 2.808,0 0.59005,-2.99422 2.66152,0 c 2.51243,0.1426 5.32095,-1.85478 5.32095,-5.27701 0,-1.99629 -1.18406,-3.13619 -3.5487,-3.27877 l -5.46742,0 z m -17.05508,2.13842 1.92082,0 c 1.03454,0 1.77435,0.42706 1.77435,1.28263 -0.14779,2.42407 -1.3314,2.85373 -2.66152,2.99631 l -1.77226,0 0.73861,-4.27894 z m 19.41949,0 1.92081,0 c 1.03454,0 1.77435,0.42706 1.77435,1.28263 -0.14778,2.42407 -1.33141,2.85373 -2.66152,2.99631 l -1.77226,0 0.73862,-4.27894 z"/><path id="path4240" fill="#643395" fill-opacity=".314" fill-rule="evenodd" d="M 24.107422 16.728516 L 23.673828 18.921875 L 23.832031 18.921875 L 24.265625 16.728516 L 24.107422 16.728516 z M 13.328125 21.060547 L 12.589844 25.339844 L 12.728516 25.339844 L 13.328125 21.861328 L 15.25 21.861328 C 16.126994 21.861328 16.786489 22.170486 16.96875 22.785156 C 16.987858 22.639332 17.013473 22.507182 17.023438 22.34375 C 17.023438 21.48818 16.28454 21.060547 15.25 21.060547 L 13.328125 21.060547 z M 23.230469 21.060547 L 21.898438 27.478516 L 19.255859 27.478516 L 19.091797 28.277344 L 21.898438 28.277344 L 23.230469 21.861328 L 25.447266 21.861328 C 25.973832 21.861328 26.230851 21.973033 26.337891 22.175781 C 26.479731 21.479805 26.468051 21.060547 25.447266 21.060547 L 23.230469 21.060547 z M 32.748047 21.060547 L 32.009766 25.339844 L 32.148438 25.339844 L 32.748047 21.861328 L 34.669922 21.861328 C 35.546916 21.861328 36.20641 22.170486 36.388672 22.785156 C 36.40778 22.639332 36.433396 22.507182 36.443359 22.34375 C 36.443359 21.48818 35.704462 21.060547 34.669922 21.060547 L 32.748047 21.060547 z M 29.298828 21.539062 C 29.293457 21.570274 29.295592 21.599362 29.289062 21.630859 L 28.255859 27.478516 L 25.455078 27.478516 L 25.298828 28.277344 L 28.255859 28.277344 L 29.289062 22.431641 C 29.354464 22.116136 29.352453 21.818951 29.298828 21.539062 z M 19.953125 22.673828 C 19.706782 25.804447 17.051878 27.614375 14.658203 27.478516 L 11.998047 27.478516 L 11.408203 30.472656 L 8.7636719 30.472656 L 8.5996094 31.271484 L 11.408203 31.271484 L 11.998047 28.277344 L 14.658203 28.277344 C 16.607159 28.387962 18.727896 27.207201 19.583984 25.076172 L 19.96875 23.199219 C 19.970954 23.132192 19.978516 23.068162 19.978516 23 C 19.978516 22.884878 19.960987 22.783227 19.953125 22.673828 z M 39.375 22.681641 C 39.124912 25.807535 36.469842 27.614264 34.078125 27.478516 L 31.417969 27.478516 L 30.828125 30.472656 L 28.183594 30.472656 L 28.019531 31.271484 L 30.828125 31.271484 L 31.417969 28.277344 L 34.078125 28.277344 C 36.590555 28.419944 39.400391 26.42223 39.400391 23 C 39.400391 22.887643 39.382501 22.788547 39.375 22.681641 z" transform="translate(384.57143,499.798)"/><path id="path4245" fill="#fff" fill-opacity="0" fill-rule="evenodd" d="M 21.457031 16.728516 L 19.890625 24.376953 C 19.866755 24.518118 19.838433 24.655999 19.804688 24.791016 L 19.091797 28.277344 L 19.173828 28.277344 L 21.457031 17.126953 L 24.1875 17.126953 L 24.265625 16.728516 L 21.457031 16.728516 z M 10.964844 19.722656 L 8.5996094 31.271484 L 8.6816406 31.271484 L 10.964844 20.121094 L 16.431641 20.121094 C 18.728546 20.259589 19.901013 21.346959 19.966797 23.238281 C 19.969943 23.15838 19.978516 23.081528 19.978516 23 C 19.978516 21.00371 18.796291 19.865236 16.431641 19.722656 L 10.964844 19.722656 z M 23.751953 19.722656 L 23.673828 20.121094 L 26.333984 20.121094 C 28.289033 20.238976 29.218533 21.045352 29.320312 22.125 C 29.430973 20.84675 28.524236 19.854721 26.333984 19.722656 L 23.751953 19.722656 z M 30.384766 19.722656 L 28.019531 31.271484 L 28.101562 31.271484 L 30.384766 20.121094 L 35.851562 20.121094 C 38.14922 20.259635 39.32154 21.347746 39.386719 23.240234 C 39.389919 23.159659 39.400391 23.08223 39.400391 23 C 39.400391 21.00371 38.216203 19.865236 35.851562 19.722656 L 30.384766 19.722656 z M 26.378906 22.691406 C 26.366407 22.790944 26.357821 22.88501 26.333984 23 L 25.298828 28.277344 L 25.376953 28.277344 L 26.333984 23.400391 C 26.39335 23.114004 26.424386 22.876446 26.378906 22.691406 z M 17 23.332031 C 16.799117 25.575676 15.655002 26.000208 14.363281 26.138672 L 12.658203 26.138672 L 12.589844 26.539062 L 14.363281 26.539062 C 15.693401 26.396483 16.875648 25.967039 17.023438 23.542969 C 17.023438 23.467962 17.011072 23.400452 17 23.332031 z M 36.419922 23.332031 C 36.219047 25.575676 35.072961 26.000208 33.78125 26.138672 L 32.078125 26.138672 L 32.009766 26.539062 L 33.78125 26.539062 C 35.11136 26.396483 36.295579 25.967039 36.443359 23.542969 C 36.443359 23.467962 36.430994 23.400452 36.419922 23.332031 z" transform="translate(384.57143,499.798)"/></g></svg>