<svg xmlns="http://www.w3.org/2000/svg" xmlns:svg="http://www.w3.org/2000/svg" xmlns:xlink="http://www.w3.org/1999/xlink" id="svg2" width="48" height="48" version="1.1"><defs id="defs4"><linearGradient id="linearGradient1784"><stop id="stop1786" offset="0" stop-color="#fff" stop-opacity="1"/><stop id="stop1788" offset="1" stop-color="#fff" stop-opacity="0"/></linearGradient><linearGradient id="linearGradient1558"><stop id="stop1560" offset="0" stop-color="#000" stop-opacity="1"/><stop id="stop1562" offset="1" stop-color="#000" stop-opacity="0"/></linearGradient><linearGradient id="linearGradient1360"><stop id="stop1362" offset="0" stop-color="#fff" stop-opacity="1"/><stop id="stop1364" offset="1" stop-color="#fff" stop-opacity="0"/></linearGradient><linearGradient id="linearGradient1175"><stop id="stop1177" offset="0" stop-color="#fff" stop-opacity="1"/><stop id="stop1179" offset="1" stop-color="#fff" stop-opacity="0"/></linearGradient><linearGradient id="linearGradient1145"><stop id="stop1147" offset="0" stop-color="#000" stop-opacity="1"/><stop id="stop1149" offset="1" stop-color="#080808" stop-opacity="1"/></linearGradient><linearGradient id="linearGradient1074"><stop id="stop1076" offset="0" stop-color="#000" stop-opacity="1"/><stop id="stop1078" offset="1" stop-color="#000" stop-opacity="0"/></linearGradient><linearGradient id="linearGradient1038"><stop id="stop1040" offset="0" stop-color="#000" stop-opacity="1"/><stop id="stop1042" offset="1" stop-color="#333" stop-opacity="1"/></linearGradient><linearGradient id="linearGradient1032"><stop id="stop1034" offset="0" stop-color="#4d4d4d" stop-opacity="1"/><stop id="stop1036" offset="1" stop-color="#b3b3b3" stop-opacity="1"/></linearGradient><linearGradient id="linearGradient870"><stop id="stop872" offset="0" stop-color="#000" stop-opacity="1"/><stop id="stop874" offset="1" stop-color="#1a1a1a" stop-opacity="1"/></linearGradient><linearGradient id="linearGradient876" x1="27.931" x2="27.931" y1="-1052.451" y2="-1004.544" gradientUnits="userSpaceOnUse" xlink:href="#linearGradient1145"/><linearGradient id="linearGradient1030" x1="20.445" x2="20.445" y1="1020.262" y2="1012.837" gradientTransform="matrix(0.10553727,0,0,0.10553727,21.406525,903.12185)" gradientUnits="userSpaceOnUse" xlink:href="#linearGradient1032"/><linearGradient id="linearGradient1044" x1="21.567" x2="21.567" y1="-2.205" y2="26.345" gradientTransform="matrix(0.10553727,0,0,0.10553727,21.406525,1009.1196)" gradientUnits="userSpaceOnUse" xlink:href="#linearGradient1038"/><linearGradient id="linearGradient1066" x1="21.567" x2="21.567" y1="-2.205" y2="26.345" gradientUnits="userSpaceOnUse" xlink:href="#linearGradient1038"/><linearGradient id="linearGradient1068" x1="20.445" x2="20.445" y1="1020.262" y2="1012.837" gradientUnits="userSpaceOnUse" xlink:href="#linearGradient1032"/><radialGradient id="radialGradient1080" cx="24" cy="1009.956" r="1.895" fx="24" fy="1009.956" gradientTransform="matrix(0.93253688,0,0,0.93254583,1.169371,68.575435)" gradientUnits="userSpaceOnUse" xlink:href="#linearGradient1074"/><radialGradient id="radialGradient1091" cx="24" cy="1009.956" r="1.895" fx="24" fy="1009.956" gradientTransform="matrix(1.1696245,0,0,1.169636,-4.0709873,-155.38746)" gradientUnits="userSpaceOnUse" xlink:href="#linearGradient1074"/><linearGradient id="linearGradient1143" x1="18.385" x2="18.385" y1="33.177" y2=".624" gradientTransform="translate(-0.0625,0)" gradientUnits="userSpaceOnUse" xlink:href="#linearGradient870"/><linearGradient id="linearGradient1153" x1="18.385" x2="18.385" y1="33.177" y2=".624" gradientTransform="matrix(-1,0,0,1,48.0625,0)" gradientUnits="userSpaceOnUse" xlink:href="#linearGradient870"/><linearGradient id="linearGradient1181" x1="24.926" x2="24.926" y1="-4.149" y2="20.069" gradientTransform="translate(0,1004.3622)" gradientUnits="userSpaceOnUse" xlink:href="#linearGradient1175"/><linearGradient id="linearGradient1242" x1="25.633" x2="25.633" y1="-1003.395" y2="-1029.381" gradientTransform="matrix(0.98398335,0,0,-0.98398335,0.3843999,16.08652)" gradientUnits="userSpaceOnUse" xlink:href="#linearGradient1175"/><linearGradient id="linearGradient1366" x1="26.25" x2="26.25" y1="50.625" y2="5.375" gradientTransform="translate(0,1004.3622)" gradientUnits="userSpaceOnUse" xlink:href="#linearGradient1360"/><linearGradient id="linearGradient3540"><stop id="stop3542" offset="0" stop-color="#9c0c07" stop-opacity="1"/><stop id="stop3550" offset=".342" stop-color="#bf0909" stop-opacity="1"/><stop id="stop3546" offset=".5" stop-color="#6a0f08" stop-opacity="1"/><stop id="stop3544" offset="1" stop-color="#9c0c07" stop-opacity="1"/></linearGradient><linearGradient id="linearGradient3498"><stop id="stop3500" offset="0" stop-color="#9c0c07" stop-opacity="1"/><stop id="stop3529" offset=".5" stop-color="#6d0a06" stop-opacity="1"/><stop id="stop3502" offset="1" stop-color="#9c0c07" stop-opacity="1"/></linearGradient><filter id="filter4018" width="1.205" height="1.316" x="-.103" y="-.158" color-interpolation-filters="sRGB"><feGaussianBlur id="feGaussianBlur4020" stdDeviation="5.48"/></filter><linearGradient id="linearGradient2454" x1="230" x2="230" y1="232.362" y2="292.362" gradientTransform="matrix(0.05665774,0,0,0.05665774,10.968722,995.95361)" gradientUnits="userSpaceOnUse" xlink:href="#linearGradient3540"/><linearGradient id="linearGradient2471" x1="270" x2="392.15" y1="262.362" y2="262.362" gradientTransform="matrix(-0.05665774,0,0,0.05665774,37.031282,995.95013)" gradientUnits="userSpaceOnUse" xlink:href="#linearGradient3498"/><linearGradient id="linearGradient2489" x1="270" x2="392.15" y1="262.362" y2="262.362" gradientTransform="matrix(0.05665774,0,0,0.05665774,10.968722,995.95361)" gradientUnits="userSpaceOnUse" xlink:href="#linearGradient3498"/><linearGradient id="linearGradient1564" x1="51.625" x2="41.25" y1="28.5" y2="28.5" gradientUnits="userSpaceOnUse" xlink:href="#linearGradient1558"/><linearGradient id="linearGradient1568" x1="51.625" x2="41.25" y1="28.5" y2="28.5" gradientTransform="matrix(-1,0,0,1,48,1004.3622)" gradientUnits="userSpaceOnUse" xlink:href="#linearGradient1558"/><linearGradient id="linearGradient1572" x1="47.625" x2="27.75" y1="28.5" y2="28.5" gradientTransform="matrix(0,1,-1,0,48,1004.3622)" gradientUnits="userSpaceOnUse" xlink:href="#linearGradient1558"/><radialGradient id="radialGradient1604" cx="24" cy="1009.956" r="1.895" fx="24" fy="1009.956" gradientTransform="matrix(0.93253688,0,0,0.93254583,1.169371,68.575435)" gradientUnits="userSpaceOnUse" xlink:href="#linearGradient1074"/><linearGradient id="linearGradient1606" x1="21.567" x2="21.567" y1="-2.205" y2="26.345" gradientTransform="matrix(0.10553727,0,0,0.10553727,21.406525,1009.1196)" gradientUnits="userSpaceOnUse" xlink:href="#linearGradient1038"/><linearGradient id="linearGradient1608" x1="20.445" x2="20.445" y1="1020.262" y2="1012.837" gradientTransform="matrix(0.10553727,0,0,0.10553727,21.406525,903.12185)" gradientUnits="userSpaceOnUse" xlink:href="#linearGradient1032"/><linearGradient id="linearGradient1790" x1="24.313" x2="24.313" y1=".125" y2="6.75" gradientUnits="userSpaceOnUse" xlink:href="#linearGradient1784"/></defs><metadata id="metadata7"/><g id="layer1" transform="translate(0,-1004.3622)"><rect id="rect2991-1" width="48" height="48" x="0" y="-1052.362" fill="url(#linearGradient876)" fill-opacity="1" stroke="none" ry="1.945" transform="scale(1,-1)"/><path id="rect1309" fill="url(#linearGradient1366)" fill-opacity="1" stroke="none" d="m 1.9375,1004.3622 c -0.13466,0 -0.248187,0.01 -0.375,0.031 l 0,47.9375 c 0.126813,0.026 0.24034,0.031 0.375,0.031 l 0.5,0 0,-48 L 1.9375,1004.3622 z m 1.625,0 0,48 0.875,0 0,-48 L 3.5625,1004.3622 z m 2,0 0,48 0.875,0 0,-48 L 5.5625,1004.3622 z m 2,0 0,48 0.875,0 0,-48 L 7.5625,1004.3622 z m 2,0 0,48 0.875,0 0,-48 L 9.5625,1004.3622 z m 2,0 0,48 0.875,0 0,-48 L 11.5625,1004.3622 z m 2,0 0,48 0.875,0 0,-48 L 13.5625,1004.3622 z m 2,0 0,48 0.875,0 0,-48 L 15.5625,1004.3622 z m 2,0 0,48 0.875,0 0,-48 L 17.5625,1004.3622 z m 2,0 0,48 0.875,0 0,-48 L 19.5625,1004.3622 z m 2,0 0,48 0.875,0 0,-48 L 21.5625,1004.3622 z m 2,0 0,48 0.875,0 0,-48 L 23.5625,1004.3622 z m 2,0 0,48 0.875,0 0,-48 L 25.5625,1004.3622 z m 2,0 0,48 0.875,0 0,-48 L 27.5625,1004.3622 z m 2,0 0,48 0.875,0 0,-48 L 29.5625,1004.3622 z m 2,0 0,48 0.875,0 0,-48 L 31.5625,1004.3622 z m 2,0 0,48 0.875,0 0,-48 L 33.5625,1004.3622 z m 2,0 0,48 0.875,0 0,-48 L 35.5625,1004.3622 z m 2,0 0,48 0.875,0 0,-48 L 37.5625,1004.3622 z m 2,0 0,48 0.875,0 0,-48 L 39.5625,1004.3622 z m 2,0 0,48 0.875,0 0,-48 L 41.5625,1004.3622 z m 2,0 0,48 0.875,0 0,-48 L 43.5625,1004.3622 z m 2,0 0,48 0.5,0 c 0.13466,0 0.248187,-0.01 0.375,-0.031 l 0,-47.9375 c -0.126813,-0.026 -0.24034,-0.031 -0.375,-0.031 L 45.5625,1004.3622 Z" opacity=".162"/><path id="rect1238" fill="url(#linearGradient1242)" fill-opacity="1" stroke="none" d="m 2.2908676,1004.3622 c -1.0600227,0 -1.9064677,0.8464 -1.9064677,1.9065 l 0,24.4458 47.2312001,0 0,-24.4458 c 0,-1.0601 -0.846445,-1.9065 -1.906467,-1.9065 L 2.2908676,1004.3622 Z" opacity=".424"/><g id="g2271"><path id="rect1536" fill="url(#linearGradient1564)" fill-opacity="1" stroke="none" d="m 40.375,0 0,48 5.6875,0 C 47.139777,48 48,47.139777 48,46.0625 L 48,1.9375 C 48,0.86022285 47.139777,0 46.0625,0 L 40.375,0 Z" transform="translate(0,1004.3622)"/><path id="path1566" fill="url(#linearGradient1568)" fill-opacity="1" stroke="none" d="m 7.625,1004.3622 0,48 -5.6875,0 C 0.86022305,1052.3622 4.9999997e-8,1051.502 4.9999997e-8,1050.4247 l 0,-44.125 C 4.9999997e-8,1005.2224 0.86022305,1004.3622 1.9375,1004.3622 L 7.625,1004.3622 Z"/><path id="path1570" fill="url(#linearGradient1572)" fill-opacity="1" stroke="none" d="m 48,1032.7372 -48,0 0,17.6875 c 0,1.0773 0.860223,1.9375 1.9375,1.9375 l 44.125,0 C 47.139777,1052.3622 48,1051.502 48,1050.4247 Z"/></g><g id="g2383" transform="matrix(0.96655712,0,0,0.96655712,0.80262912,-68.930102)"><path id="path1197" fill="#000" fill-opacity=".027" stroke="none" d="m 3.613095,1119.4418 -0.3997433,0.369 4.4279251,4.2126 0.3997432,-0.369 L 3.613095,1119.4418 z m 40.77381,0 -4.427925,4.2126 0.399743,0.369 4.427925,-4.2126 L 44.386905,1119.4418 z m -41.1735533,9.4093 -0.3997432,0.3382 19.5566695,19.5567 0.215246,-0.5227 L 3.2133517,1128.8511 z m 41.5732963,0 -23.738598,23.7386 -0.553491,1.2915 24.691833,-24.6919 L 44.786648,1128.8511 Z"/><g id="g2023" transform="translate(0,106.06602)"><path id="path943" fill="#e6e6e6" fill-opacity="1" stroke="none" d="M 10.125,0 24,32.53125 37.875,0 31.46875,0 24,11.03125 16.53125,0 10.125,0 Z" transform="translate(0,1004.3622)"/><path id="rect957" fill="#fff" fill-opacity="1" stroke="none" d="m 20.5625,5.9375 0,18.53125 3.4375,8.0625 3.4375,-8.0625 0,-18.53125 L 24,7.731 Z" transform="translate(0,1004.3622)"/><g id="g1099" transform="matrix(0.4865351,0,0,0.4865351,12.541977,524.65082)"><path id="path1072" fill="url(#radialGradient1080)" fill-opacity="1" stroke="none" d="m 23.550252,1008.6367 c -0.975729,0 -1.769,0.7932 -1.769,1.7689 0,0.9757 0.793271,1.7691 1.769,1.7691 0.97573,0 1.769,-0.7934 1.769,-1.7691 C 25.319252,1009.4299 24.525982,1008.6367 23.550252,1008.6367 z m 0,0.4199 c 0.74038,0 1.348863,0.6083 1.348863,1.349 0,0.7409 -0.608483,1.3491 -1.348863,1.3491 -0.74038,0 -1.348863,-0.6082 -1.348863,-1.3491 C 22.201389,1009.6649 22.809872,1009.0566 23.550252,1009.0566 Z"/><path id="path1010" fill="url(#linearGradient1044)" fill-opacity="1" stroke="none" d="m 23.550252,1008.8952 c -0.834227,0 -1.510498,0.6764 -1.510498,1.5104 0,0.8342 0.676271,1.5106 1.510498,1.5106 0.834229,0 1.510498,-0.6764 1.510498,-1.5106 C 25.06075,1009.5716 24.384481,1008.8952 23.550252,1008.8952 z m -0.46502,0.7387 c 0.169844,0 0.306712,0.1367 0.306712,0.3066 0,0.1698 -0.136874,0.3071 -0.306712,0.3071 -0.169854,0 -0.30672,-0.1369 -0.30672,-0.3071 C 22.778512,1009.7706 22.915378,1009.6339 23.085232,1009.6339 z m 0.93004,0 c 0.169855,0 0.30672,0.1367 0.30672,0.3066 0,0.1698 -0.136872,0.3071 -0.30672,0.3071 -0.169844,0 -0.306712,-0.1369 -0.306712,-0.3071 C 23.70856,1009.7706 23.845428,1009.6339 24.015272,1009.6339 z m -0.93004,0.9299 c 0.169844,0 0.306712,0.1369 0.306712,0.3071 0,0.1699 -0.136874,0.3066 -0.306712,0.3066 -0.169854,0 -0.30672,-0.1367 -0.30672,-0.3066 C 22.778512,1010.7011 22.915378,1010.5638 23.085232,1010.5638 z m 0.93004,0 c 0.169855,0 0.30672,0.1369 0.30672,0.3071 0,0.1699 -0.136872,0.3066 -0.30672,0.3066 -0.169844,0 -0.306712,-0.1367 -0.306712,-0.3066 C 23.70856,1010.7011 23.845428,1010.5638 24.015272,1010.5638 Z"/><rect id="rect1022" width="1.241" height=".774" x="22.93" y="1010.019" fill="url(#linearGradient1030)" fill-opacity="1" stroke="none" ry=".205"/></g><g id="g1110" transform="matrix(0.38791238,0,0,0.38791238,14.690103,624.67731)"><path id="path1089" fill="url(#radialGradient1091)" fill-opacity="1" stroke="none" d="m 24.000002,1023.6747 c -1.223801,0 -2.21875,0.9948 -2.21875,2.2187 0,1.2239 0.994949,2.2188 2.21875,2.2188 1.223803,0 2.21875,-0.9949 2.21875,-2.2188 C 26.218752,1024.6695 25.223805,1023.6747 24.000002,1023.6747 z m 0,0.5269 c 0.92861,0 1.691798,0.7632 1.691798,1.6918 0,0.9287 -0.763187,1.6918 -1.691798,1.6918 -0.928609,0 -1.691797,-0.7631 -1.691797,-1.6918 C 22.308205,1024.9648 23.071393,1024.2016 24.000002,1024.2016 Z"/><g id="g1060" transform="matrix(0.132369,0,0,0.132369,21.311257,891.33379)"><path id="path1062" fill="url(#linearGradient1066)" fill-opacity="1" stroke="none" d="M 20.3125,-2.125 C 12.407925,-2.125 6,4.2829245 6,12.1875 6,20.092075 12.407925,26.5 20.3125,26.5 28.217075,26.5 34.625,20.092075 34.625,12.1875 34.625,4.2829245 28.217075,-2.125 20.3125,-2.125 z m -4.40625,7 c 1.609359,0 2.90625,1.29695 2.90625,2.90625 0,1.6093 -1.296891,2.90625 -2.90625,2.90625 C 14.29689,10.6875 13,9.39055 13,7.78125 13,6.17195 14.29689,4.875 15.90625,4.875 z m 8.8125,0 c 1.60936,0 2.90625,1.29695 2.90625,2.90625 0,1.6093 -1.29689,2.90625 -2.90625,2.90625 -1.609359,0 -2.90625,-1.29695 -2.90625,-2.90625 C 21.8125,6.17195 23.109391,4.875 24.71875,4.875 z m -8.8125,8.8125 c 1.609359,0 2.90625,1.29695 2.90625,2.90625 0,1.6093 -1.296891,2.90625 -2.90625,2.90625 C 14.29689,19.5 13,18.20305 13,16.59375 13,14.98445 14.29689,13.6875 15.90625,13.6875 z m 8.8125,0 c 1.60936,0 2.90625,1.29695 2.90625,2.90625 0,1.6093 -1.29689,2.90625 -2.90625,2.90625 -1.609359,0 -2.90625,-1.29695 -2.90625,-2.90625 C 21.8125,14.98445 23.109391,13.6875 24.71875,13.6875 Z" transform="translate(0,1004.3622)"/><rect id="rect1064" width="11.756" height="7.336" x="14.435" y="1012.882" fill="url(#linearGradient1068)" fill-opacity="1" stroke="none" ry="1.945"/></g></g><g id="g1576" transform="matrix(0.4865351,0,0,0.4865351,12.541977,537.42166)"><path id="path1578" fill="url(#radialGradient1604)" fill-opacity="1" stroke="none" d="m 23.550252,1008.6367 c -0.975729,0 -1.769,0.7932 -1.769,1.7689 0,0.9757 0.793271,1.7691 1.769,1.7691 0.97573,0 1.769,-0.7934 1.769,-1.7691 C 25.319252,1009.4299 24.525982,1008.6367 23.550252,1008.6367 z m 0,0.4199 c 0.74038,0 1.348863,0.6083 1.348863,1.349 0,0.7409 -0.608483,1.3491 -1.348863,1.3491 -0.74038,0 -1.348863,-0.6082 -1.348863,-1.3491 C 22.201389,1009.6649 22.809872,1009.0566 23.550252,1009.0566 Z"/><path id="path1580" fill="url(#linearGradient1606)" fill-opacity="1" stroke="none" d="m 23.550252,1008.8952 c -0.834227,0 -1.510498,0.6764 -1.510498,1.5104 0,0.8342 0.676271,1.5106 1.510498,1.5106 0.834229,0 1.510498,-0.6764 1.510498,-1.5106 C 25.06075,1009.5716 24.384481,1008.8952 23.550252,1008.8952 z m -0.46502,0.7387 c 0.169844,0 0.306712,0.1367 0.306712,0.3066 0,0.1698 -0.136874,0.3071 -0.306712,0.3071 -0.169854,0 -0.30672,-0.1369 -0.30672,-0.3071 C 22.778512,1009.7706 22.915378,1009.6339 23.085232,1009.6339 z m 0.93004,0 c 0.169855,0 0.30672,0.1367 0.30672,0.3066 0,0.1698 -0.136872,0.3071 -0.30672,0.3071 -0.169844,0 -0.306712,-0.1369 -0.306712,-0.3071 C 23.70856,1009.7706 23.845428,1009.6339 24.015272,1009.6339 z m -0.93004,0.9299 c 0.169844,0 0.306712,0.1369 0.306712,0.3071 0,0.1699 -0.136874,0.3066 -0.306712,0.3066 -0.169854,0 -0.30672,-0.1367 -0.30672,-0.3066 C 22.778512,1010.7011 22.915378,1010.5638 23.085232,1010.5638 z m 0.93004,0 c 0.169855,0 0.30672,0.1369 0.30672,0.3071 0,0.1699 -0.136872,0.3066 -0.30672,0.3066 -0.169844,0 -0.306712,-0.1367 -0.306712,-0.3066 C 23.70856,1010.7011 23.845428,1010.5638 24.015272,1010.5638 Z"/><rect id="rect1582" width="1.241" height=".774" x="22.93" y="1010.019" fill="url(#linearGradient1608)" fill-opacity="1" stroke="none" ry=".205"/></g><path id="path948" fill="#000" fill-opacity=".235" stroke="none" d="m 10.125,1004.3622 13.875,32.5313 13.875,-32.5313 -0.34375,0 L 24,1036.081 10.46875,1004.3622 10.125,1004.3622 Z"/><path id="path953" fill="#000" fill-opacity=".118" stroke="none" d="M 10.46875,0 24,31.71875 37.53125,0 37.1875,0 24,30.90625 10.8125,0 10.46875,0 Z" transform="translate(0,1004.3622)"/><path id="path955" fill="#000" fill-opacity=".059" stroke="none" d="M 10.8125,0 24,30.90625 37.1875,0 36.84375,0 24,30.09375 11.15625,0 10.8125,0 Z" transform="translate(0,1004.3622)"/><path id="rect967" fill="#d9d9da" fill-opacity="1" stroke="none" d="m 20.125,5.3125 0,18.125 0.4375,1.03125 0,-18.53125 L 20.125,5.3125 z m 7.75,0 -0.4375,0.625 0,18.53125 L 27.875,23.4375 27.875,5.3125 Z" transform="translate(0,1004.3622)"/><path id="rect975" fill="#000" fill-opacity=".085" stroke="none" d="M 10.125,0 10.21875,0.21875 10.21875,0 10.125,0 z m 1.8125,0 0,4.25 L 12.375,5.28125 12.375,0 11.9375,0 z m 2.15625,0 0,9.3125 0.4375,1.03125 L 14.53125,0 14.09375,0 z m 2.15625,0 0,14.375 0.4375,1 0,-15.15625 L 16.53125,0 16.25,0 z m 15.21875,0 -0.15625,0.21875 0,15.15625 0.4375,-1 L 31.75,0 31.46875,0 z m 2,0 0,10.34375 0.4375,-1.03125 0,-9.3125 L 33.46875,0 z m 2.15625,0 0,5.28125 L 36.0625,4.25 36.0625,0 35.625,0 z m 2.15625,0 0,0.21875 L 37.875,0 37.78125,0 z m -19.375,2.75 0,16.65625 0.4375,1.03125 0,-17.03125 L 18.40625,2.75 z m 11.1875,0 -0.4375,0.65625 0,17.03125 0.4375,-1.03125 L 29.59375,2.75 Z" transform="translate(0,1004.3622)"/><path id="path1183" fill="#000" fill-opacity=".237" stroke="none" d="m 3.28125,1011.331 -0.40625,0.375 4.5,4.2812 0.40625,-0.375 L 3.28125,1011.331 z m 41.4375,0 -4.5,4.2812 0.40625,0.375 4.5,-4.2812 L 44.71875,1011.331 z m -41.84375,9.5625 -0.40625,0.3437 19.875,19.875 0.21875,-0.5312 L 2.875,1020.8935 z m 42.25,0 -24.125,24.125 -0.5625,1.3125 25.09375,-25.0938 L 45.125,1020.8935 Z"/><path id="path1193" fill="#000" fill-opacity=".117" stroke="none" d="m 3.28125,1012.0732 -0.40625,0.375 4.5,4.2812 0.40625,-0.375 L 3.28125,1012.0732 z m 41.4375,0 -4.5,4.2812 0.40625,0.375 4.5,-4.2812 L 44.71875,1012.0732 z m -41.84375,9.5625 -0.40625,0.3437 19.875,19.875 0.21875,-0.5312 L 2.875,1021.6357 z m 42.25,0 -24.125,24.125 -0.5625,1.3125 25.09375,-25.0938 L 45.125,1021.6357 Z"/><path id="path1195" fill="#000" fill-opacity=".061" stroke="none" d="m 3.28125,1012.8154 -0.40625,0.375 4.5,4.2812 0.40625,-0.375 L 3.28125,1012.8154 z m 41.4375,0 -4.5,4.2812 0.40625,0.375 4.5,-4.2812 L 44.71875,1012.8154 z m -41.84375,9.5625 -0.40625,0.3437 19.875,19.875 0.21875,-0.5312 L 2.875,1022.3779 z m 42.25,0 -24.125,24.125 -0.5625,1.3125 25.09375,-25.0938 L 45.125,1022.3779 Z"/><path id="path1132" fill="url(#linearGradient1143)" fill-opacity="1" stroke="none" d="M 10.15625,0 2.875,6.6875 7.78125,11.34375 2.46875,16.21875 22.5625,36.3125 24,32.84375 Z" transform="translate(0,1004.3622)"/><path id="path1151" fill="url(#linearGradient1153)" fill-opacity="1" stroke="none" d="M 37.84375,0 24,32.84375 l -0.34375,0.8125 -1.09375,2.65625 -2.125,5 25.09375,-25.09375 -5.3125,-4.875 L 45.125,6.6875 37.84375,0 Z" transform="translate(0,1004.3622)"/><path id="path1165" fill="url(#linearGradient1181)" fill-opacity="1" stroke="none" d="m 10.15625,1004.3622 -7.28125,6.6875 4.90625,4.6563 -5.3125,4.875 5.96875,5.9687 11.0625,0 L 10.15625,1004.3622 z m 27.6875,0 -9.34375,22.1875 11.0625,0 5.96875,-5.9687 -5.3125,-4.875 4.90625,-4.6563 L 37.84375,1004.3622 Z" opacity=".303"/><path id="path1199" fill="#fff" fill-opacity=".239" stroke="none" d="M 10.15625,0.34375 3.0625,6.875 3.3125,7.09375 10.15625,0.8125 24,33.65625 37.84375,0.8125 44.6875,7.09375 44.9375,6.875 37.84375,0.34375 24,33.1875 z m -2.625,11.5625 -4.875,4.5 0.25,0.25 L 7.78125,12.15625 z m 32.9375,0 -0.25,0.25 4.875,4.5 L 45.34375,16.40625 Z" transform="translate(0,1004.3622)"/><path id="path1209" fill="#000" fill-opacity=".32" stroke="none" d="M 10.15625,0 2.875,6.6875 l 4.90625,4.65625 -5.3125,4.875 20.09375,20.09375 0.15625,-0.40625 -19.6875,-19.6875 5.3125,-4.875 L 3.4375,6.6875 10.3125,0.375 10.15625,0 z m 27.6875,0 -0.15625,0.375 6.875,6.3125 -4.90625,4.65625 5.3125,4.875 -19.6875,19.6875 0.15625,0.40625 20.09375,-20.09375 -5.3125,-4.875 L 45.125,6.6875 37.84375,0 Z" transform="translate(0,1004.3622)"/><path id="path1747" fill="#000" fill-opacity=".235" stroke="none" d="M 16.53125,0 24,7.831625 31.46875,0 30.71875,0 24,6.737875 17.28125,0 Z" transform="translate(0,1004.3622)"/><path id="path1752" fill="#000" fill-opacity=".117" stroke="none" d="M 17.28125,0 24,6.737875 30.71875,0 29.96875,0 24,5.644125 18.03125,0 Z" transform="translate(0,1004.3622)"/><path id="path1781" fill="url(#linearGradient1790)" fill-opacity="1" stroke="none" d="M 16.53125,0 24,7.831625 31.46875,0 Z" opacity=".541" transform="translate(0,1004.3622)"/><path id="path1754" fill="#000" fill-opacity=".059" stroke="none" d="M 18.03125,0 24,5.644125 29.96875,0 29.25,0 24,4.550375 18.75,0 Z" transform="translate(0,1004.3622)"/><path id="path1513" fill="#000" fill-opacity=".19" fill-rule="nonzero" stroke="none" d="m 14.96875,1011.8231 c 0.128394,2.4272 0.811742,4.2815 1.65625,4.2813 3.966042,-7e-4 3.701341,-2.941 5.6875,-3.4063 0,0 1.170547,-0.2812 1.6875,-0.2812 0.516953,0 1.6875,0.2812 1.6875,0.2812 1.986159,0.4652 1.721459,3.4055 5.6875,3.4063 0.844508,10e-5 1.527856,-1.8542 1.65625,-4.2813 -0.156498,2.3219 -0.836559,4.0626 -1.65625,4.0625 -3.966041,-8e-4 -3.701341,-2.9098 -5.6875,-3.375 0,0 -1.170547,-0.3125 -1.6875,-0.3125 -0.516953,0 -1.6875,0.3125 -1.6875,0.3125 -1.986159,0.4653 -1.721458,3.3743 -5.6875,3.375 C 15.805309,1015.8858 15.125248,1014.1451 14.96875,1011.8231 Z"/><path id="path1518" fill="#000" fill-opacity=".105" fill-rule="nonzero" stroke="none" d="m 14.96875,1012.0418 c 0.128394,2.4272 0.811742,4.2815 1.65625,4.2813 3.966042,-7e-4 3.701341,-2.941 5.6875,-3.4063 0,0 1.170547,-0.2812 1.6875,-0.2812 0.516953,0 1.6875,0.2812 1.6875,0.2812 1.986159,0.4652 1.721459,3.4055 5.6875,3.4063 0.844508,1e-4 1.527856,-1.8542 1.65625,-4.2813 -0.156498,2.3219 -0.836559,4.0626 -1.65625,4.0625 -3.966041,-8e-4 -3.701341,-2.9098 -5.6875,-3.375 0,0 -1.170547,-0.3125 -1.6875,-0.3125 -0.516953,0 -1.6875,0.3125 -1.6875,0.3125 -1.986159,0.4653 -1.721458,3.3743 -5.6875,3.375 C 15.805309,1016.1045 15.125248,1014.3638 14.96875,1012.0418 Z"/><path id="path1520" fill="#000" fill-opacity=".045" fill-rule="nonzero" stroke="none" d="m 14.96875,1012.2606 c 0.128394,2.4272 0.811742,4.2815 1.65625,4.2813 3.966042,-7e-4 3.701341,-2.941 5.6875,-3.4063 0,0 1.170547,-0.2812 1.6875,-0.2812 0.516953,0 1.6875,0.2812 1.6875,0.2812 1.986159,0.4652 1.721459,3.4055 5.6875,3.4063 0.844508,10e-5 1.527856,-1.8542 1.65625,-4.2813 -0.156498,2.3219 -0.836559,4.0626 -1.65625,4.0625 -3.966041,-8e-4 -3.701341,-2.9098 -5.6875,-3.375 0,0 -1.170547,-0.3125 -1.6875,-0.3125 -0.516953,0 -1.6875,0.3125 -1.6875,0.3125 -1.986159,0.4653 -1.721458,3.3743 -5.6875,3.375 C 15.805309,1016.3233 15.125248,1014.5826 14.96875,1012.2606 Z"/><path id="rect2622" fill="url(#linearGradient2454)" fill-opacity="1" fill-rule="nonzero" stroke="none" d="m 22.30027,1009.1187 c 0,0 1.182779,0.2833 1.699732,0.2833 0.516953,0 1.699732,-0.2833 1.699732,-0.2833 l 0,3.3995 c 0,0 -1.182779,-0.2833 -1.699732,-0.2833 -0.516953,0 -1.699732,0.2833 -1.699732,0.2833 L 22.30027,1009.1187 Z"/><path id="path3958" fill="#670009" fill-opacity="1" fill-rule="nonzero" stroke="none" d="m 31.365508,1005.7193 c 0.93679,10e-5 1.699733,2.2844 1.699733,5.0992 0,2.8147 -0.762943,5.0993 -1.699733,5.0992 -3.966041,-8e-4 -3.679615,-2.9343 -5.665774,-3.3995 l 0,-3.3995 C 27.685893,1008.6535 27.399467,1005.7185 31.365508,1005.7193 Z"/><path id="path3452" fill="url(#linearGradient2489)" fill-opacity="1" fill-rule="nonzero" stroke="none" d="m 31.365508,1005.7193 c 0.93679,10e-5 1.699733,2.2844 1.699733,5.0992 0,2.8147 -0.762943,5.0993 -1.699733,5.0992 -3.966041,-8e-4 -3.679615,-3.5009 -5.665774,-3.9661 l 0,-2.2663 C 27.685893,1009.2201 27.399467,1005.7185 31.365508,1005.7193 Z"/><path id="path3960" fill="#9d0d07" fill-opacity="1" fill-rule="nonzero" stroke="none" d="m 260,262.32541 c 0,8.3579 86.0018,39.91113 86.0018,39.91113 18.10723,6.85568 41.35273,-5.47062 42,-39.91113 0.65795,-35.00908 -24.64044,-45.86698 -42,-39.96323 C 346.0018,222.36218 260,253.96751 260,262.32541 Z" filter="url(#filter4018)" transform="matrix(0.05665774,0,0,0.05665774,10.968722,995.95361)"/><path id="path3531" fill="#990b06" fill-opacity="1" fill-rule="nonzero" stroke="none" d="m 26.60636,1010.8185 c 0,0.333 3.966042,1.5901 3.966042,1.5901 1.025915,0.2732 2.342952,-0.2179 2.379625,-1.5901 0.03728,-1.3949 -1.396072,-1.8275 -2.379625,-1.5923 C 30.572402,1009.2262 26.60636,1010.4855 26.60636,1010.8185 Z"/><path id="path2767" fill="#670009" fill-opacity="1" fill-rule="nonzero" stroke="none" d="m 16.634496,1005.7158 c -0.93679,2e-4 -1.699732,2.2844 -1.699732,5.0992 0,2.8147 0.762942,5.0993 1.699732,5.0992 3.966042,-7e-4 3.679615,-2.9343 5.665774,-3.3995 l 0,-3.3995 c -1.986159,-0.4652 -1.699732,-3.4001 -5.665774,-3.3994 L 16.634496,1005.7158 Z"/><path id="path2769" fill="url(#linearGradient2471)" fill-opacity="1" fill-rule="nonzero" stroke="none" d="m 16.634496,1005.7158 c -0.93679,2e-4 -1.699732,2.2844 -1.699732,5.0992 0,2.8147 0.762942,5.0993 1.699732,5.0992 3.966042,-7e-4 3.679615,-3.5008 5.665774,-3.9661 l 0,-2.2663 c -1.986159,-0.4652 -1.699732,-3.9667 -5.665774,-3.966 L 16.634496,1005.7158 Z"/><path id="path2771" fill="#9d0d07" fill-opacity="1" fill-rule="nonzero" stroke="none" d="m 260,262.32541 c 0,8.3579 86.0018,39.91113 86.0018,39.91113 18.10723,6.85568 41.35273,-5.47062 42,-39.91113 0.65795,-35.00908 -24.64044,-45.86698 -42,-39.96323 C 346.0018,222.36218 260,253.96751 260,262.32541 Z" filter="url(#filter4018)" transform="matrix(-0.05665774,0,0,0.05665774,37.031282,995.95013)"/><path id="path2773" fill="#990b06" fill-opacity="1" fill-rule="nonzero" stroke="none" d="m 21.393644,1010.815 c 0,0.333 -3.966042,1.5902 -3.966042,1.5902 -1.025914,0.2731 -2.342952,-0.218 -2.379625,-1.5902 -0.03728,-1.3949 1.396072,-1.8275 2.379625,-1.5923 C 17.427602,1009.2227 21.393644,1010.482 21.393644,1010.815 Z"/><path id="path1949" fill="#000" fill-opacity=".174" fill-rule="nonzero" stroke="none" d="m 16.625,1005.706 c -0.865779,10e-5 -1.554064,1.9516 -1.65625,4.4687 0.156498,-2.3219 0.836559,-4.0623 1.65625,-4.0625 3.966042,-7e-4 3.701341,2.9411 5.6875,3.4063 0,0 1.170547,0.2812 1.6875,0.2812 0.516953,0 1.6875,-0.2812 1.6875,-0.2812 1.986159,-0.4652 1.721459,-3.4071 5.6875,-3.4063 0.819691,10e-5 1.499752,1.7659 1.65625,4.0938 -0.102186,-2.5212 -0.790471,-4.5 -1.65625,-4.5 -3.966041,-9e-4 -3.701341,2.941 -5.6875,3.4062 0,0 -1.170547,0.2813 -1.6875,0.2813 -0.516953,0 -1.6875,-0.2813 -1.6875,-0.2813 C 20.326341,1008.647 20.591042,1005.7052 16.625,1005.706 Z"/></g></g><g id="g1774"><path id="path7515" fill="#fff" fill-opacity=".537" stroke="none" d="m 2.53125,1005.0185 c -0.917089,0 -1.67114695,0.6395 -1.84374995,1.5 C 1.023112,1006.2386 1.462012,1006.081 1.9375,1006.081 l 44.125,0 c 0.475488,0 0.914388,0.1576 1.25,0.4375 -0.172603,-0.8605 -0.926662,-1.5 -1.84375,-1.5 L 2.53125,1005.0185 Z"/><path id="rect4280" fill="#000" fill-opacity=".392" stroke="none" d="m 1.9375,1004.3622 c -1.07727695,0 -1.937500050000002,0.8602 -1.937500050000002,1.9375 l 0,43.0625 c 0,0.7934 0.480024100000002,1.449 1.156250050000002,1.75 -0.30934195,-0.3333 -0.49999995,-0.7824 -0.49999995,-1.2812 l 0,-42.9375 c 0,-1.0482 0.82689895,-1.875 1.87499995,-1.875 l 42.9375,0 c 1.048101,0 1.875,0.8268 1.875,1.875 l 0,42.9375 c 0,0.4988 -0.190658,0.9479 -0.5,1.2812 0.676226,-0.301 1.15625,-0.9566 1.15625,-1.75 l 0,-43.0625 c 0,-1.0773 -0.860223,-1.9375 -1.9375,-1.9375 L 1.9375,1004.3622 Z"/><path id="rect846" fill="#000" fill-opacity="1" stroke="none" d="m -5.0000002e-8,1049.3622 0,1.0625 c 0,1.0773 0.860223100000002,1.9375 1.937500050000002,1.9375 l 44.125,0 c 1.077277,0 1.9375,-0.8602 1.9375,-1.9375 l 0,-1.0625 c 0,1.0773 -0.860223,1.9375 -1.9375,1.9375 l -44.125,0 C 0.86022305,1051.2997 -5.0000002e-8,1050.4395 -5.0000002e-8,1049.3622 Z"/></g></g></svg>