<svg xmlns="http://www.w3.org/2000/svg" xmlns:svg="http://www.w3.org/2000/svg" xmlns:xlink="http://www.w3.org/1999/xlink" id="svg2" width="48" height="48" version="1.1"><defs id="defs4"><linearGradient id="linearGradient1159"><stop id="stop1161" offset="0" stop-color="#232628" stop-opacity="1"/><stop id="stop1165" offset=".281" stop-color="#575c60" stop-opacity="1"/><stop id="stop1167" offset=".75" stop-color="#72797e" stop-opacity="1"/><stop id="stop1163" offset="1" stop-color="#3a3e41" stop-opacity="1"/></linearGradient><linearGradient id="linearGradient1145"><stop id="stop1147" offset="0" stop-color="#0c0d0e" stop-opacity="1"/><stop id="stop1149" offset="1" stop-color="#2e3133" stop-opacity="1"/></linearGradient><linearGradient id="linearGradient1019"><stop id="stop1021" offset="0" stop-color="#fff" stop-opacity="1"/><stop id="stop1023" offset="1" stop-color="#fff" stop-opacity="0"/></linearGradient><linearGradient id="linearGradient1007"><stop id="stop1009" offset="0" stop-color="#000" stop-opacity="1"/><stop id="stop1011" offset="1" stop-color="#000" stop-opacity="0"/></linearGradient><linearGradient id="linearGradient902"><stop id="stop904" offset="0" stop-color="#2fb0e2" stop-opacity="1"/><stop id="stop906" offset="1" stop-color="#88c9e1" stop-opacity="1"/></linearGradient><linearGradient id="linearGradient888"><stop id="stop890" offset="0" stop-color="#758187" stop-opacity="1"/><stop id="stop892" offset="1" stop-color="#3c3f42" stop-opacity="1"/></linearGradient><linearGradient id="linearGradient857"><stop id="stop859" offset="0" stop-color="#17191a" stop-opacity="1"/><stop id="stop861" offset="1" stop-color="#35383b" stop-opacity="1"/></linearGradient><linearGradient id="linearGradient845"><stop id="stop847" offset="0" stop-color="#aeb5b9" stop-opacity="1"/><stop id="stop849" offset="1" stop-color="#858b91" stop-opacity="1"/></linearGradient><linearGradient id="linearGradient3795"><stop id="stop3797" offset="0" stop-color="#177ca3" stop-opacity="1"/><stop id="stop3799" offset="1" stop-color="#51b0d3" stop-opacity="1"/></linearGradient><linearGradient id="linearGradient851" x1="23.511" x2="23.511" y1="-1052.184" y2="-1004.102" gradientUnits="userSpaceOnUse" xlink:href="#linearGradient845"/><linearGradient id="linearGradient855" x1="23.511" x2="23.511" y1="-1052.184" y2="-1004.102" gradientTransform="matrix(0.87499999,0,0,0.87499999,3,-128.54527)" gradientUnits="userSpaceOnUse" xlink:href="#linearGradient857"/><linearGradient id="linearGradient882" x1="8.251" x2="8.251" y1="9.434" y2="4.418" gradientUnits="userSpaceOnUse" xlink:href="#linearGradient888"/><linearGradient id="linearGradient886" x1="8.251" x2="8.251" y1="9.434" y2="4.418" gradientUnits="userSpaceOnUse" xlink:href="#linearGradient3795"/><linearGradient id="linearGradient896" x1="8.251" x2="8.251" y1="9.434" y2="4.418" gradientUnits="userSpaceOnUse" xlink:href="#linearGradient902"/><linearGradient id="linearGradient900" x1="8.251" x2="8.251" y1="9.434" y2="4.418" gradientUnits="userSpaceOnUse" xlink:href="#linearGradient902"/><linearGradient id="linearGradient963" x1="8.251" x2="8.251" y1="9.434" y2="4.418" gradientUnits="userSpaceOnUse" xlink:href="#linearGradient888"/><linearGradient id="linearGradient965" x1="8.251" x2="8.251" y1="9.434" y2="4.418" gradientUnits="userSpaceOnUse" xlink:href="#linearGradient902"/><linearGradient id="linearGradient967" x1="8.251" x2="8.251" y1="9.434" y2="4.418" gradientUnits="userSpaceOnUse" xlink:href="#linearGradient902"/><linearGradient id="linearGradient969" x1="8.251" x2="8.251" y1="9.434" y2="4.418" gradientUnits="userSpaceOnUse" xlink:href="#linearGradient3795"/><linearGradient id="linearGradient983" x1="8.251" x2="8.251" y1="9.434" y2="4.418" gradientUnits="userSpaceOnUse" xlink:href="#linearGradient888"/><linearGradient id="linearGradient985" x1="8.251" x2="8.251" y1="9.434" y2="4.418" gradientUnits="userSpaceOnUse" xlink:href="#linearGradient902"/><linearGradient id="linearGradient987" x1="8.251" x2="8.251" y1="9.434" y2="4.418" gradientUnits="userSpaceOnUse" xlink:href="#linearGradient902"/><linearGradient id="linearGradient989" x1="8.251" x2="8.251" y1="9.434" y2="4.418" gradientUnits="userSpaceOnUse" xlink:href="#linearGradient3795"/><linearGradient id="linearGradient1001" x1="25.408" x2="25.408" y1="1043.838" y2="1042.335" gradientTransform="matrix(0.97315883,0,0,0.74134883,0.64418767,271.82478)" gradientUnits="userSpaceOnUse" xlink:href="#linearGradient902"/><linearGradient id="linearGradient1013" x1="25.313" x2="25.313" y1="1041.847" y2="1042.737" gradientTransform="matrix(0.97315883,0,0,0.74134883,0.64418767,271.82478)" gradientUnits="userSpaceOnUse" xlink:href="#linearGradient1007"/><linearGradient id="linearGradient1017" x1="25.313" x2="25.313" y1="1041.847" y2="1042.737" gradientTransform="matrix(0.97315883,0,0,0.74134883,0.64418767,-1818.5373)" gradientUnits="userSpaceOnUse" xlink:href="#linearGradient1019"/><linearGradient id="linearGradient1135" x1="17.711" x2="17.711" y1="1012.256" y2="1010.864" gradientUnits="userSpaceOnUse" xlink:href="#linearGradient1159"/><linearGradient id="linearGradient1143" x1="17.68" x2="17.68" y1="1012.505" y2="1010.615" gradientUnits="userSpaceOnUse" xlink:href="#linearGradient1145"/><linearGradient id="linearGradient1157" x1="16.471" x2="18.592" y1="1011.114" y2="1011.114" gradientUnits="userSpaceOnUse" xlink:href="#linearGradient1159"/><linearGradient id="linearGradient1177" x1="17.68" x2="17.68" y1="1012.505" y2="1010.615" gradientTransform="translate(0,9.5901357)" gradientUnits="userSpaceOnUse" xlink:href="#linearGradient1145"/><linearGradient id="linearGradient1179" x1="17.711" x2="17.711" y1="1012.256" y2="1010.864" gradientTransform="translate(0,9.5901357)" gradientUnits="userSpaceOnUse" xlink:href="#linearGradient1159"/><linearGradient id="linearGradient1181" x1="16.471" x2="18.592" y1="1011.114" y2="1011.114" gradientTransform="translate(0,9.5901357)" gradientUnits="userSpaceOnUse" xlink:href="#linearGradient1159"/><linearGradient id="linearGradient1205" x1="17.68" x2="17.68" y1="1012.505" y2="1010.615" gradientTransform="translate(0,9.5901357)" gradientUnits="userSpaceOnUse" xlink:href="#linearGradient1145"/><linearGradient id="linearGradient1207" x1="17.711" x2="17.711" y1="1012.256" y2="1010.864" gradientTransform="translate(0,9.5901357)" gradientUnits="userSpaceOnUse" xlink:href="#linearGradient1159"/><linearGradient id="linearGradient1209" x1="16.471" x2="18.592" y1="1011.114" y2="1011.114" gradientTransform="translate(0,9.5901357)" gradientUnits="userSpaceOnUse" xlink:href="#linearGradient1159"/></defs><metadata id="metadata7"/><g id="layer1" transform="translate(0,-1004.3622)"><rect id="rect2991-1" width="48" height="48" x="0" y="-1052.362" fill="url(#linearGradient851)" fill-opacity="1" stroke="none" ry="1.945" transform="scale(1,-1)"/><rect id="rect853" width="42" height="42" x="3" y="-1049.362" fill="url(#linearGradient855)" fill-opacity="1" stroke="none" ry="1.701" transform="scale(1,-1)"/><path id="path7515" fill="#fff" fill-opacity=".537" stroke="none" d="m 2.5312502,1005.0185 c -0.9170884,0 -1.67114685,0.6395 -1.84375005,1.5 0.33561215,-0.2799 0.77451225,-0.4375 1.25000005,-0.4375 l 44.1249998,0 c 0.475488,0 0.914388,0.1576 1.25,0.4375 -0.172603,-0.8605 -0.926662,-1.5 -1.84375,-1.5 L 2.5312502,1005.0185 Z"/><path id="rect846" fill="#000" fill-opacity="1" stroke="none" d="m 2.5367432e-7,1049.3622 0,1.0625 c 0,1.0773 0.86022279632568,1.9375 1.93749994632568,1.9375 l 44.1249998,0 c 1.077277,0 1.9375,-0.8602 1.9375,-1.9375 l 0,-1.0625 c 0,1.0773 -0.860223,1.9375 -1.9375,1.9375 l -44.1249998,0 C 0.86022305,1051.2997 2.5367432e-7,1050.4395 2.5367432e-7,1049.3622 Z"/><path id="rect4280" fill="#000" fill-opacity=".392" stroke="none" d="m 1.9375002,1004.3622 c -1.07727705,0 -1.93749994632568,0.8602 -1.93749994632568,1.9375 l 0,43.0625 c 0,0.7934 0.48002349632568,1.449 1.15624994632568,1.75 -0.30934175,-0.3333 -0.50000005,-0.7824 -0.50000005,-1.2812 l 0,-42.9375 c 0,-1.0482 0.82689905,-1.875 1.87500005,-1.875 l 42.9374998,0 c 1.048101,0 1.875,0.8268 1.875,1.875 l 0,42.9375 c 0,0.4988 -0.190658,0.9479 -0.5,1.2812 0.676226,-0.301 1.15625,-0.9566 1.15625,-1.75 l 0,-43.0625 c 0,-1.0773 -0.860223,-1.9375 -1.9375,-1.9375 L 1.9375002,1004.3622 Z"/><g id="g1605" transform="matrix(0.84976242,0,0,0.84976242,3.6057019,154.49863)"><g id="g1083" transform="translate(0.82607358,2.0064175)"><path id="path874" fill="url(#linearGradient882)" fill-opacity="1" fill-rule="nonzero" stroke="none" stroke-width=".2" d="m 10.5625,6.9375019 c 0,1.346194 -1.0913061,2.4374998 -2.4375,2.4374998 -1.3461939,0 -2.4374998,-1.0913058 -2.4374998,-2.4374998 0,-1.3461939 1.0913059,-2.4374998 2.4374998,-2.4374998 1.3461939,0 2.4375,1.0913059 2.4375,2.4374998 z" color="#000" display="inline" enable-background="accumulate" overflow="visible" transform="translate(0,1004.3622)" visibility="visible" style="marker:none"/><path id="path898" fill="url(#linearGradient900)" fill-opacity="1" fill-rule="nonzero" stroke="none" stroke-width=".2" d="m 10.5625,6.9375019 c 0,1.346194 -1.0913061,2.4374998 -2.4375,2.4374998 -1.3461939,0 -2.4374998,-1.0913058 -2.4374998,-2.4374998 0,-1.3461939 1.0913059,-2.4374998 2.4374998,-2.4374998 1.3461939,0 2.4375,1.0913059 2.4375,2.4374998 z" color="#000" display="inline" enable-background="accumulate" opacity=".418" overflow="visible" transform="matrix(0.89348072,0,0,0.89348072,0.86546915,1005.1012)" visibility="visible" style="marker:none"/><path id="path894" fill="url(#linearGradient896)" fill-opacity="1" fill-rule="nonzero" stroke="none" stroke-width=".2" d="m 10.5625,6.9375019 c 0,1.346194 -1.0913061,2.4374998 -2.4375,2.4374998 -1.3461939,0 -2.4374998,-1.0913058 -2.4374998,-2.4374998 0,-1.3461939 1.0913059,-2.4374998 2.4374998,-2.4374998 1.3461939,0 2.4375,1.0913059 2.4375,2.4374998 z" color="#000" display="inline" enable-background="accumulate" opacity=".502" overflow="visible" transform="matrix(0.85495246,0,0,0.85495246,1.1785113,1005.3685)" visibility="visible" style="marker:none"/><path id="path884" fill="url(#linearGradient886)" fill-opacity="1" fill-rule="nonzero" stroke="none" stroke-width=".2" d="m 10.5625,6.9375019 c 0,1.346194 -1.0913061,2.4374998 -2.4375,2.4374998 -1.3461939,0 -2.4374998,-1.0913058 -2.4374998,-2.4374998 0,-1.3461939 1.0913059,-2.4374998 2.4374998,-2.4374998 1.3461939,0 2.4375,1.0913059 2.4375,2.4374998 z" color="#000" display="inline" enable-background="accumulate" overflow="visible" transform="matrix(0.73755688,0,0,0.73755688,2.1323503,1006.1829)" visibility="visible" style="marker:none"/><path id="path940" fill="#fff" fill-opacity=".153" fill-rule="nonzero" stroke="none" stroke-width=".2" d="M 8.125,5.125 C 7.3165652,5.125 6.6324212,5.6720257 6.40625,6.40625 6.9231848,6.5963515 7.5068099,6.75 8.125,6.75 8.7431901,6.75 9.3268152,6.5963515 9.84375,6.40625 9.6175788,5.6720257 8.9334348,5.125 8.125,5.125 Z" color="#000" display="inline" enable-background="accumulate" overflow="visible" transform="translate(0,1004.3622)" visibility="visible" style="marker:none"/><path id="path947" fill="#fff" fill-opacity="0" fill-rule="nonzero" stroke="none" stroke-width=".2" d="M 8.125,5.125 C 7.3165652,5.125 6.6324212,5.6720257 6.40625,6.40625 6.9231848,6.5963515 7.5068099,6.75 8.125,6.75 8.7431901,6.75 9.3268152,6.5963515 9.84375,6.40625 9.6175788,5.6720257 8.9334348,5.125 8.125,5.125 Z" color="#000" display="inline" enable-background="accumulate" overflow="visible" transform="translate(0,1004.3622)" visibility="visible" style="marker:none"/></g><g id="g1335" transform="translate(0.82607358,2.0064192)"><path id="path951" fill="url(#linearGradient963)" fill-opacity="1" fill-rule="nonzero" stroke="none" stroke-width=".2" d="m 10.5625,6.9375019 c 0,1.346194 -1.0913061,2.4374998 -2.4375,2.4374998 -1.3461939,0 -2.4374998,-1.0913058 -2.4374998,-2.4374998 0,-1.3461939 1.0913059,-2.4374998 2.4374998,-2.4374998 1.3461939,0 2.4375,1.0913059 2.4375,2.4374998 z" color="#000" display="inline" enable-background="accumulate" overflow="visible" transform="translate(0,1014.3622)" visibility="visible" style="marker:none"/><path id="path953" fill="url(#linearGradient965)" fill-opacity="1" fill-rule="nonzero" stroke="none" stroke-width=".2" d="m 10.5625,6.9375019 c 0,1.346194 -1.0913061,2.4374998 -2.4375,2.4374998 -1.3461939,0 -2.4374998,-1.0913058 -2.4374998,-2.4374998 0,-1.3461939 1.0913059,-2.4374998 2.4374998,-2.4374998 1.3461939,0 2.4375,1.0913059 2.4375,2.4374998 z" color="#000" display="inline" enable-background="accumulate" opacity=".418" overflow="visible" transform="matrix(0.89348072,0,0,0.89348072,0.86546915,1015.1012)" visibility="visible" style="marker:none"/><path id="path955" fill="url(#linearGradient967)" fill-opacity="1" fill-rule="nonzero" stroke="none" stroke-width=".2" d="m 10.5625,6.9375019 c 0,1.346194 -1.0913061,2.4374998 -2.4375,2.4374998 -1.3461939,0 -2.4374998,-1.0913058 -2.4374998,-2.4374998 0,-1.3461939 1.0913059,-2.4374998 2.4374998,-2.4374998 1.3461939,0 2.4375,1.0913059 2.4375,2.4374998 z" color="#000" display="inline" enable-background="accumulate" opacity=".502" overflow="visible" transform="matrix(0.85495246,0,0,0.85495246,1.1785113,1015.3685)" visibility="visible" style="marker:none"/><path id="path957" fill="url(#linearGradient969)" fill-opacity="1" fill-rule="nonzero" stroke="none" stroke-width=".2" d="m 10.5625,6.9375019 c 0,1.346194 -1.0913061,2.4374998 -2.4375,2.4374998 -1.3461939,0 -2.4374998,-1.0913058 -2.4374998,-2.4374998 0,-1.3461939 1.0913059,-2.4374998 2.4374998,-2.4374998 1.3461939,0 2.4375,1.0913059 2.4375,2.4374998 z" color="#000" display="inline" enable-background="accumulate" overflow="visible" transform="matrix(0.73755688,0,0,0.73755688,2.1323503,1016.1829)" visibility="visible" style="marker:none"/><path d="m 8.125,1019.4872 c -0.8084348,0 -1.4925788,0.547 -1.71875,1.2813 0.5169348,0.1901 1.1005599,0.3437 1.71875,0.3437 0.6181901,0 1.2018152,-0.1536 1.71875,-0.3437 -0.2261712,-0.7343 -0.9103152,-1.2813 -1.71875,-1.2813 z" style="marker:none" id="path959" fill="#fff" fill-opacity=".153" fill-rule="nonzero" stroke="none" stroke-width=".2" color="#000" display="inline" enable-background="accumulate" overflow="visible" visibility="visible"/><path id="path961" fill="#fff" fill-opacity="0" fill-rule="nonzero" stroke="none" stroke-width=".2" d="m 8.125,1019.4872 c -0.8084348,0 -1.4925788,0.547 -1.71875,1.2813 0.5169348,0.1901 1.1005599,0.3437 1.71875,0.3437 0.6181901,0 1.2018152,-0.1536 1.71875,-0.3437 -0.2261712,-0.7343 -0.9103152,-1.2813 -1.71875,-1.2813 z" color="#000" display="inline" enable-background="accumulate" overflow="visible" visibility="visible" style="marker:none"/></g><g id="g1099" transform="translate(0.82607358,2.0064192)"><path id="path971" fill="url(#linearGradient983)" fill-opacity="1" fill-rule="nonzero" stroke="none" stroke-width=".2" d="m 10.5625,6.9375019 c 0,1.346194 -1.0913061,2.4374998 -2.4375,2.4374998 -1.3461939,0 -2.4374998,-1.0913058 -2.4374998,-2.4374998 0,-1.3461939 1.0913059,-2.4374998 2.4374998,-2.4374998 1.3461939,0 2.4375,1.0913059 2.4375,2.4374998 z" color="#000" display="inline" enable-background="accumulate" overflow="visible" transform="translate(0,1024.3622)" visibility="visible" style="marker:none"/><path id="path973" fill="url(#linearGradient985)" fill-opacity="1" fill-rule="nonzero" stroke="none" stroke-width=".2" d="m 10.5625,6.9375019 c 0,1.346194 -1.0913061,2.4374998 -2.4375,2.4374998 -1.3461939,0 -2.4374998,-1.0913058 -2.4374998,-2.4374998 0,-1.3461939 1.0913059,-2.4374998 2.4374998,-2.4374998 1.3461939,0 2.4375,1.0913059 2.4375,2.4374998 z" color="#000" display="inline" enable-background="accumulate" opacity=".418" overflow="visible" transform="matrix(0.89348072,0,0,0.89348072,0.86546915,1025.1012)" visibility="visible" style="marker:none"/><path id="path975" fill="url(#linearGradient987)" fill-opacity="1" fill-rule="nonzero" stroke="none" stroke-width=".2" d="m 10.5625,6.9375019 c 0,1.346194 -1.0913061,2.4374998 -2.4375,2.4374998 -1.3461939,0 -2.4374998,-1.0913058 -2.4374998,-2.4374998 0,-1.3461939 1.0913059,-2.4374998 2.4374998,-2.4374998 1.3461939,0 2.4375,1.0913059 2.4375,2.4374998 z" color="#000" display="inline" enable-background="accumulate" opacity=".502" overflow="visible" transform="matrix(0.85495246,0,0,0.85495246,1.1785113,1025.3685)" visibility="visible" style="marker:none"/><path id="path977" fill="url(#linearGradient989)" fill-opacity="1" fill-rule="nonzero" stroke="none" stroke-width=".2" d="m 10.5625,6.9375019 c 0,1.346194 -1.0913061,2.4374998 -2.4375,2.4374998 -1.3461939,0 -2.4374998,-1.0913058 -2.4374998,-2.4374998 0,-1.3461939 1.0913059,-2.4374998 2.4374998,-2.4374998 1.3461939,0 2.4375,1.0913059 2.4375,2.4374998 z" color="#000" display="inline" enable-background="accumulate" overflow="visible" transform="matrix(0.73755688,0,0,0.73755688,2.1323503,1026.1829)" visibility="visible" style="marker:none"/><path id="path979" fill="#fff" fill-opacity=".153" fill-rule="nonzero" stroke="none" stroke-width=".2" d="m 8.125,1029.4872 c -0.8084348,0 -1.4925788,0.547 -1.71875,1.2813 0.5169348,0.1901 1.1005599,0.3437 1.71875,0.3437 0.6181901,0 1.2018152,-0.1536 1.71875,-0.3437 -0.2261712,-0.7343 -0.9103152,-1.2813 -1.71875,-1.2813 z" color="#000" display="inline" enable-background="accumulate" overflow="visible" visibility="visible" style="marker:none"/><path d="m 8.125,1029.4872 c -0.8084348,0 -1.4925788,0.547 -1.71875,1.2813 0.5169348,0.1901 1.1005599,0.3437 1.71875,0.3437 0.6181901,0 1.2018152,-0.1536 1.71875,-0.3437 -0.2261712,-0.7343 -0.9103152,-1.2813 -1.71875,-1.2813 z" style="marker:none" id="path981" fill="#fff" fill-opacity="0" fill-rule="nonzero" stroke="none" stroke-width=".2" color="#000" display="inline" enable-background="accumulate" overflow="visible" visibility="visible"/></g><rect id="rect991" width="39.585" height="2.308" x="4.208" y="1044.027" fill="#000" fill-opacity=".506" fill-rule="nonzero" stroke="none" stroke-width=".2" color="#000" display="inline" enable-background="accumulate" overflow="visible" ry="0" visibility="visible" style="marker:none"/><rect id="rect993" width="38.522" height="1.433" x="4.739" y="1044.465" fill="url(#linearGradient1001)" fill-opacity="1" fill-rule="nonzero" stroke="none" stroke-width=".2" color="#000" display="inline" enable-background="accumulate" overflow="visible" ry="0" visibility="visible" style="marker:none"/><rect id="rect1003" width="38.522" height=".352" x="4.739" y="1044.465" fill="url(#linearGradient1013)" fill-opacity="1" fill-rule="nonzero" stroke="none" stroke-width=".2" color="#000" display="inline" enable-background="accumulate" overflow="visible" ry="0" visibility="visible" style="marker:none"/><rect id="rect1015" width="38.522" height=".352" x="4.739" y="-1045.898" fill="url(#linearGradient1017)" fill-opacity="1" fill-rule="nonzero" stroke="none" stroke-width=".2" color="#000" display="inline" enable-background="accumulate" overflow="visible" ry="0" transform="scale(1,-1)" visibility="visible" style="marker:none"/><rect id="rect1025" width=".972" height="5.834" x="24.514" y="1010.389" fill="#000" fill-opacity=".506" fill-rule="nonzero" stroke="none" stroke-width=".2" color="#000" display="inline" enable-background="accumulate" overflow="visible" visibility="visible" style="marker:none"/><rect id="rect1027" width=".972" height="5.834" x="26.514" y="1010.389" fill="#000" fill-opacity=".506" fill-rule="nonzero" stroke="none" stroke-width=".2" color="#000" display="inline" enable-background="accumulate" overflow="visible" visibility="visible" style="marker:none"/><rect id="rect1029" width=".972" height="5.834" x="28.514" y="1010.389" fill="#000" fill-opacity=".506" fill-rule="nonzero" stroke="none" stroke-width=".2" color="#000" display="inline" enable-background="accumulate" overflow="visible" visibility="visible" style="marker:none"/><rect id="rect1031" width=".972" height="5.834" x="30.514" y="1010.389" fill="#000" fill-opacity=".506" fill-rule="nonzero" stroke="none" stroke-width=".2" color="#000" display="inline" enable-background="accumulate" overflow="visible" visibility="visible" style="marker:none"/><rect id="rect1033" width=".972" height="5.834" x="32.514" y="1010.389" fill="#000" fill-opacity=".506" fill-rule="nonzero" stroke="none" stroke-width=".2" color="#000" display="inline" enable-background="accumulate" overflow="visible" visibility="visible" style="marker:none"/><rect id="rect1035" width=".972" height="5.834" x="34.514" y="1010.389" fill="#000" fill-opacity=".506" fill-rule="nonzero" stroke="none" stroke-width=".2" color="#000" display="inline" enable-background="accumulate" overflow="visible" visibility="visible" style="marker:none"/><rect id="rect1037" width=".972" height="5.834" x="36.514" y="1010.389" fill="#000" fill-opacity=".506" fill-rule="nonzero" stroke="none" stroke-width=".2" color="#000" display="inline" enable-background="accumulate" overflow="visible" visibility="visible" style="marker:none"/><rect id="rect1039" width=".972" height="5.834" x="38.514" y="1010.389" fill="#000" fill-opacity=".506" fill-rule="nonzero" stroke="none" stroke-width=".2" color="#000" display="inline" enable-background="accumulate" overflow="visible" visibility="visible" style="marker:none"/><rect id="rect1041" width=".972" height="5.834" x="40.514" y="1010.389" fill="#000" fill-opacity=".506" fill-rule="nonzero" stroke="none" stroke-width=".2" color="#000" display="inline" enable-background="accumulate" overflow="visible" visibility="visible" style="marker:none"/><rect id="rect1043" width=".972" height="5.834" x="40.514" y="1020.389" fill="#000" fill-opacity=".506" fill-rule="nonzero" stroke="none" stroke-width=".2" color="#000" display="inline" enable-background="accumulate" overflow="visible" visibility="visible" style="marker:none"/><rect id="rect1045" width=".972" height="5.834" x="38.514" y="1020.389" fill="#000" fill-opacity=".506" fill-rule="nonzero" stroke="none" stroke-width=".2" color="#000" display="inline" enable-background="accumulate" overflow="visible" visibility="visible" style="marker:none"/><rect id="rect1047" width=".972" height="5.834" x="36.514" y="1020.389" fill="#000" fill-opacity=".506" fill-rule="nonzero" stroke="none" stroke-width=".2" color="#000" display="inline" enable-background="accumulate" overflow="visible" visibility="visible" style="marker:none"/><rect id="rect1049" width=".972" height="5.834" x="34.514" y="1020.389" fill="#000" fill-opacity=".506" fill-rule="nonzero" stroke="none" stroke-width=".2" color="#000" display="inline" enable-background="accumulate" overflow="visible" visibility="visible" style="marker:none"/><rect id="rect1051" width=".972" height="5.834" x="32.514" y="1020.389" fill="#000" fill-opacity=".506" fill-rule="nonzero" stroke="none" stroke-width=".2" color="#000" display="inline" enable-background="accumulate" overflow="visible" visibility="visible" style="marker:none"/><rect id="rect1053" width=".972" height="5.834" x="30.514" y="1020.389" fill="#000" fill-opacity=".506" fill-rule="nonzero" stroke="none" stroke-width=".2" color="#000" display="inline" enable-background="accumulate" overflow="visible" visibility="visible" style="marker:none"/><rect id="rect1055" width=".972" height="5.834" x="28.514" y="1020.389" fill="#000" fill-opacity=".506" fill-rule="nonzero" stroke="none" stroke-width=".2" color="#000" display="inline" enable-background="accumulate" overflow="visible" visibility="visible" style="marker:none"/><rect id="rect1057" width=".972" height="5.834" x="26.514" y="1020.389" fill="#000" fill-opacity=".506" fill-rule="nonzero" stroke="none" stroke-width=".2" color="#000" display="inline" enable-background="accumulate" overflow="visible" visibility="visible" style="marker:none"/><rect id="rect1059" width=".972" height="5.834" x="24.514" y="1020.389" fill="#000" fill-opacity=".506" fill-rule="nonzero" stroke="none" stroke-width=".2" color="#000" display="inline" enable-background="accumulate" overflow="visible" visibility="visible" style="marker:none"/><rect id="rect1061" width=".972" height="5.834" x="24.514" y="1030.389" fill="#000" fill-opacity=".506" fill-rule="nonzero" stroke="none" stroke-width=".2" color="#000" display="inline" enable-background="accumulate" overflow="visible" visibility="visible" style="marker:none"/><rect id="rect1063" width=".972" height="5.834" x="26.514" y="1030.389" fill="#000" fill-opacity=".506" fill-rule="nonzero" stroke="none" stroke-width=".2" color="#000" display="inline" enable-background="accumulate" overflow="visible" visibility="visible" style="marker:none"/><rect id="rect1065" width=".972" height="5.834" x="28.514" y="1030.389" fill="#000" fill-opacity=".506" fill-rule="nonzero" stroke="none" stroke-width=".2" color="#000" display="inline" enable-background="accumulate" overflow="visible" visibility="visible" style="marker:none"/><rect id="rect1067" width=".972" height="5.834" x="30.514" y="1030.389" fill="#000" fill-opacity=".506" fill-rule="nonzero" stroke="none" stroke-width=".2" color="#000" display="inline" enable-background="accumulate" overflow="visible" visibility="visible" style="marker:none"/><rect id="rect1069" width=".972" height="5.834" x="32.514" y="1030.389" fill="#000" fill-opacity=".506" fill-rule="nonzero" stroke="none" stroke-width=".2" color="#000" display="inline" enable-background="accumulate" overflow="visible" visibility="visible" style="marker:none"/><rect id="rect1071" width=".972" height="5.834" x="34.514" y="1030.389" fill="#000" fill-opacity=".506" fill-rule="nonzero" stroke="none" stroke-width=".2" color="#000" display="inline" enable-background="accumulate" overflow="visible" visibility="visible" style="marker:none"/><rect id="rect1073" width=".972" height="5.834" x="36.514" y="1030.389" fill="#000" fill-opacity=".506" fill-rule="nonzero" stroke="none" stroke-width=".2" color="#000" display="inline" enable-background="accumulate" overflow="visible" visibility="visible" style="marker:none"/><rect id="rect1075" width=".972" height="5.834" x="38.514" y="1030.389" fill="#000" fill-opacity=".506" fill-rule="nonzero" stroke="none" stroke-width=".2" color="#000" display="inline" enable-background="accumulate" overflow="visible" visibility="visible" style="marker:none"/><rect id="rect1077" width=".972" height="5.834" x="40.514" y="1030.389" fill="#000" fill-opacity=".506" fill-rule="nonzero" stroke="none" stroke-width=".2" color="#000" display="inline" enable-background="accumulate" overflow="visible" visibility="visible" style="marker:none"/><rect id="rect1081" width="39.585" height=".402" x="4.208" y="1045.933" fill="#fff" fill-opacity=".314" fill-rule="nonzero" stroke="none" stroke-width=".2" color="#000" display="inline" enable-background="accumulate" overflow="visible" ry="0" visibility="visible" style="marker:none"/><g id="g1189" transform="translate(0.82607358,1.7405729)"><rect id="rect1118" width="3.813" height="1.843" x="15.625" y="1010.644" fill="url(#linearGradient1143)" fill-opacity="1" fill-rule="nonzero" stroke="none" stroke-width=".2" color="#000" display="inline" enable-background="accumulate" overflow="visible" visibility="visible" style="marker:none"/><path id="rect1120" fill="url(#linearGradient1135)" fill-opacity="1" fill-rule="nonzero" stroke="none" stroke-width=".2" d="m 15.82699,1010.8334 0,1.4644 3.40852,0 0,-1.4644 -0.41659,0 0,0.5555 -2.57534,0 0,-0.5555 -0.41659,0 z" color="#000" display="inline" enable-background="accumulate" overflow="visible" visibility="visible" style="marker:none"/><rect id="rect1124" width="2.575" height=".283" x="16.244" y="1011.715" fill="#000" fill-opacity="1" fill-rule="nonzero" stroke="none" stroke-width=".2" color="#000" display="inline" enable-background="accumulate" overflow="visible" visibility="visible" style="marker:none"/><rect id="rect1127" width="2.121" height=".308" x="16.471" y="1010.96" fill="url(#linearGradient1157)" fill-opacity="1" fill-rule="nonzero" stroke="none" stroke-width=".2" color="#000" display="inline" enable-background="accumulate" overflow="visible" visibility="visible" style="marker:none"/></g><g id="g1183" transform="translate(0.82607358,12.150487)"><rect id="rect1169" width="3.813" height="1.843" x="15.625" y="1020.234" fill="url(#linearGradient1177)" fill-opacity="1" fill-rule="nonzero" stroke="none" stroke-width=".2" color="#000" display="inline" enable-background="accumulate" overflow="visible" visibility="visible" style="marker:none"/><path d="m 15.82699,1020.4235 0,1.4644 3.40852,0 0,-1.4644 -0.41659,0 0,0.5555 -2.57534,0 0,-0.5555 -0.41659,0 z" style="marker:none" id="path1171" fill="url(#linearGradient1179)" fill-opacity="1" fill-rule="nonzero" stroke="none" stroke-width=".2" color="#000" display="inline" enable-background="accumulate" overflow="visible" visibility="visible"/><rect id="rect1173" width="2.575" height=".283" x="16.244" y="1021.305" fill="#000" fill-opacity="1" fill-rule="nonzero" stroke="none" stroke-width=".2" color="#000" display="inline" enable-background="accumulate" overflow="visible" visibility="visible" style="marker:none"/><rect id="rect1175" width="2.121" height=".308" x="16.471" y="1020.55" fill="url(#linearGradient1181)" fill-opacity="1" fill-rule="nonzero" stroke="none" stroke-width=".2" color="#000" display="inline" enable-background="accumulate" overflow="visible" visibility="visible" style="marker:none"/></g><g id="g1195" transform="translate(0.82607358,2.150485)"><rect id="rect1197" width="3.813" height="1.843" x="15.625" y="1020.234" fill="url(#linearGradient1205)" fill-opacity="1" fill-rule="nonzero" stroke="none" stroke-width=".2" color="#000" display="inline" enable-background="accumulate" overflow="visible" visibility="visible" style="marker:none"/><path id="path1199" fill="url(#linearGradient1207)" fill-opacity="1" fill-rule="nonzero" stroke="none" stroke-width=".2" d="m 15.82699,1020.4235 0,1.4644 3.40852,0 0,-1.4644 -0.41659,0 0,0.5555 -2.57534,0 0,-0.5555 -0.41659,0 z" color="#000" display="inline" enable-background="accumulate" overflow="visible" visibility="visible" style="marker:none"/><rect id="rect1201" width="2.575" height=".283" x="16.244" y="1021.305" fill="#000" fill-opacity="1" fill-rule="nonzero" stroke="none" stroke-width=".2" color="#000" display="inline" enable-background="accumulate" overflow="visible" visibility="visible" style="marker:none"/><rect id="rect1203" width="2.121" height=".308" x="16.471" y="1020.55" fill="url(#linearGradient1209)" fill-opacity="1" fill-rule="nonzero" stroke="none" stroke-width=".2" color="#000" display="inline" enable-background="accumulate" overflow="visible" visibility="visible" style="marker:none"/></g></g></g></svg>