<svg xmlns="http://www.w3.org/2000/svg" xmlns:svg="http://www.w3.org/2000/svg" xmlns:xlink="http://www.w3.org/1999/xlink" id="svg2" width="48" height="48" version="1.1"><defs id="defs4"><linearGradient id="linearGradient5188"><stop id="stop5190" offset="0" stop-color="#cc3f2c" stop-opacity="1"/><stop id="stop5192" offset="1" stop-color="#d0513b" stop-opacity=".998"/></linearGradient><linearGradient id="linearGradient4709"><stop id="stop4711" offset="0" stop-color="#e2e7ef" stop-opacity="1"/><stop id="stop4713" offset="1" stop-color="#eceef1" stop-opacity="1"/></linearGradient><linearGradient id="linearGradient4691"><stop id="stop4693" offset="0" stop-color="#edf0f5" stop-opacity="1"/><stop id="stop4695" offset="1" stop-color="#eceff4" stop-opacity="1"/></linearGradient><linearGradient id="linearGradient4697" x1="36.25" x2="36.25" y1="-1052.362" y2="-1004.376" gradientUnits="userSpaceOnUse" xlink:href="#linearGradient4691"/><linearGradient id="linearGradient4715" x1="25.367" x2="25.367" y1="48.088" y2="24.047" gradientUnits="userSpaceOnUse" xlink:href="#linearGradient4709"/><linearGradient id="linearGradient5169" x1="25.367" x2="25.367" y1="48.088" y2="24.047" gradientTransform="matrix(1,0,0,-1,0,1052.3622)" gradientUnits="userSpaceOnUse" xlink:href="#linearGradient4709"/><linearGradient id="linearGradient5194" x1="3.125" x2="3.125" y1="48" y2=".016" gradientUnits="userSpaceOnUse" xlink:href="#linearGradient5188"/><linearGradient id="linearGradient5198" x1="3.125" x2="3.125" y1="48" y2=".016" gradientTransform="matrix(-1,0,0,1,48,1004.3622)" gradientUnits="userSpaceOnUse" xlink:href="#linearGradient5188"/><linearGradient id="linearGradient5221" x1="24.749" x2="24.749" y1="28.201" y2="5.043" gradientUnits="userSpaceOnUse" xlink:href="#linearGradient5188"/></defs><metadata id="metadata7"/><g id="layer1" transform="translate(0,-1004.3622)"><rect id="rect2991-1-7" width="48" height="48" x="0" y="-1052.362" fill="url(#linearGradient4697)" fill-opacity="1" stroke="none" ry="1.945" transform="scale(1,-1)"/><path id="path5196" fill="url(#linearGradient5198)" fill-opacity="1" stroke="none" d="m 46.054688,1004.3622 c 1.077277,0 1.945312,0.868 1.945312,1.9453 l 0,44.1094 c 0,1.0773 -0.868035,1.9453 -1.945312,1.9453 l -3.054688,0 0,-48 L 46.054688,1004.3622 Z"/><path id="rect5183" fill="url(#linearGradient5194)" fill-opacity="1" stroke="none" d="M 1.9453125 0 C 0.86803535 0 0 0.86803535 0 1.9453125 L 0 46.054688 C 0 47.131965 0.86803535 48 1.9453125 48 L 5 48 L 5 0 L 1.9453125 0 z" transform="translate(0,1004.3622)"/><g id="g5223"><path id="path4728" fill="#000" fill-opacity=".059" stroke="none" d="m 24,1027.1622 -24,18 0,4.0547 c 0,1.0773 0.86803535,1.9453 1.9453125,1.9453 l 44.1093755,0 c 1.077277,0 1.945312,-0.868 1.945312,-1.9453 l 0,-4.0547 L 24,1027.1622 Z"/><path id="path4726" fill="#000" fill-opacity=".118" stroke="none" d="m 24,1027.5622 -24,18 0,4.0547 c 0,1.0773 0.86803535,1.9453 1.9453125,1.9453 l 44.1093755,0 c 1.077277,0 1.945312,-0.868 1.945312,-1.9453 l 0,-4.0547 L 24,1027.5622 Z"/><path id="path4722" fill="#000" fill-opacity=".235" stroke="none" d="m 24,1027.9622 -24,18 0,4.0547 c 0,1.0773 0.86803535,1.9453 1.9453125,1.9453 l 44.1093755,0 c 1.077277,0 1.945312,-0.868 1.945312,-1.9453 l 0,-4.0547 L 24,1027.9622 Z"/><path id="rect4704" fill="url(#linearGradient4715)" fill-opacity="1" stroke="none" d="M 24 24 L 0 42 L 0 46.054688 C 0 47.131965 0.86803535 48 1.9453125 48 L 46.054688 48 C 47.131965 48 48 47.131965 48 46.054688 L 48 42 L 24 24 z" transform="translate(0,1004.3622)"/><path id="path4717" fill="#fff" fill-opacity=".314" stroke="none" d="M 24 24 L 0 42 L 0 42.800781 L 24 24.800781 L 48 42.800781 L 48 42 L 24 24 z" transform="translate(0,1004.3622)"/></g><path id="path5159" fill="#000" fill-opacity=".059" stroke="none" d="m 24,1033.5622 -24,-18 0,-8.0547 c 0,-1.0773 0.86803535,-1.9453 1.9453125,-1.9453 l 44.1093755,0 c 1.077277,0 1.945312,0.868 1.945312,1.9453 L 48,1015.5622 Z"/><path id="path5161" fill="#000" fill-opacity=".118" stroke="none" d="m 24,1033.1622 -24,-18 0,-8.0547 c 0,-1.0773 0.86803535,-1.9453 1.9453125,-1.9453 l 44.1093755,0 c 1.077277,0 1.945312,0.868 1.945312,1.9453 L 48,1015.1622 Z"/><path id="path5163" fill="#000" fill-opacity=".235" stroke="none" d="m 24,1032.7622 -24,-18 0,-8.0547 c 0,-1.0773 0.86803535,-1.9453 1.9453125,-1.9453 l 44.1093755,0 c 1.077277,0 1.945312,0.868 1.945312,1.9453 L 48,1014.7622 Z"/><path id="path5165" fill="url(#linearGradient5169)" fill-opacity="1" stroke="none" d="m 24,1030.3622 -24,-18 0,-6.0547 c 0,-1.0773 0.86803535,-1.9453 1.9453125,-1.9453 l 44.1093755,0 c 1.077277,0 1.945312,0.868 1.945312,1.9453 L 48,1012.3622 Z"/><path id="path5210" fill="url(#linearGradient5221)" fill-opacity="1" stroke="none" d="M 0 5 L 0 10 L 24 28 L 48 10 L 48 5 L 24 23 L 0 5 z" transform="translate(0,1004.3622)"/><g id="g4699"><path id="rect846" fill="#000" fill-opacity="1" stroke="none" d="m -5.8102417e-6,1049.3623 0,1.0625 c 0,1.0773 0.8602200002417,1.9375 1.9375000102417,1.9375 l 44.1249998,0 c 1.07728,0 1.9375,-0.8602 1.9375,-1.9375 l 0,-1.0625 c 0,1.0773 -0.86022,1.9375 -1.9375,1.9375 l -44.1249998,0 C 0.86021419,1051.2998 -5.8102417e-6,1050.4396 -5.8102417e-6,1049.3623 Z"/><path id="path7515" fill="#fff" fill-opacity=".537" stroke="none" d="m 2.5312442,1005.0185 c -0.91709,0 -1.67115001,0.6395 -1.84375001,1.5 0.33561001,-0.2799 0.77451001,-0.4375 1.25000001,-0.4375 l 44.1249998,0 c 0.47549,0 0.91439,0.1576 1.25,0.4375 -0.1726,-0.8605 -0.92666,-1.5 -1.84375,-1.5 L 2.5312442,1005.0185 Z"/><path id="rect4280" fill="#000" fill-opacity=".392" stroke="none" d="m 1.9374942,1004.3622 c -1.07728001,0 -1.9375000102417,0.8602 -1.9375000102417,1.9375 l 0,43.0626 c 0,0.7934 0.4800200002417,1.449 1.1562500102417,1.75 -0.30934001,-0.3333 -0.50000001,-0.7824 -0.50000001,-1.2812 l 0,-42.9376 c 0,-1.0482 0.82690001,-1.875 1.87500001,-1.875 l 42.9374998,0 c 1.0481,0 1.875,0.8268 1.875,1.875 l 0,42.9376 c 0,0.4988 -0.19066,0.9479 -0.5,1.2812 0.67623,-0.301 1.15625,-0.9566 1.15625,-1.75 l 0,-43.0626 c 0,-1.0773 -0.86022,-1.9375 -1.9375,-1.9375 L 1.9374942,1004.3622 Z"/></g><path id="path5167" fill="#fff" fill-opacity=".118" stroke="none" d="m 24,1032.3622 -24,-18 0,-0.8008 24,18 24,-18 L 48,1014.3622 Z"/></g></svg>