<svg xmlns="http://www.w3.org/2000/svg" xmlns:svg="http://www.w3.org/2000/svg" xmlns:xlink="http://www.w3.org/1999/xlink" id="svg5453" width="48" height="48" version="1.1"><defs id="defs5455"><linearGradient id="linearGradient4691"><stop id="stop4693" offset="0" stop-color="#fff" stop-opacity="1"/><stop id="stop4695" offset="1" stop-color="#fff" stop-opacity="0"/></linearGradient><linearGradient id="linearGradient4675"><stop id="stop4677" offset="0" stop-color="#c0cfe7" stop-opacity="1"/><stop id="stop4679" offset="1" stop-color="#fff" stop-opacity="0"/></linearGradient><linearGradient id="linearGradient4631"><stop id="stop4633" offset="0" stop-color="#3055c2" stop-opacity="1"/><stop id="stop4635" offset="1" stop-color="#4f79e3" stop-opacity="1"/></linearGradient><linearGradient id="linearGradient4637" x1="411.071" x2="411.071" y1="-547.814" y2="-499.782" gradientUnits="userSpaceOnUse" xlink:href="#linearGradient4631"/><linearGradient id="linearGradient4681" x1="16.705" x2="24.13" y1="33.239" y2="33.239" gradientTransform="matrix(0.93023553,0,0,0.93023553,386.24578,501.34588)" gradientUnits="userSpaceOnUse" xlink:href="#linearGradient4675"/><linearGradient id="linearGradient4685" x1="16.705" x2="24.13" y1="33.239" y2="33.239" gradientTransform="matrix(-0.93023553,0,0,0.93023553,430.89469,501.34588)" gradientUnits="userSpaceOnUse" xlink:href="#linearGradient4675"/><radialGradient id="radialGradient4697" cx="408.571" cy="-523.798" r="24" fx="408.571" fy="-523.798" gradientTransform="matrix(0.91666666,0,0,0.91666666,34.047608,-43.649858)" gradientUnits="userSpaceOnUse" xlink:href="#linearGradient4691"/></defs><metadata id="metadata5458"/><g id="layer1" transform="translate(-384.57143,-499.798)"><rect id="rect2991-1-7" width="48" height="48" x="384.571" y="-547.798" fill="url(#linearGradient4637)" fill-opacity="1" stroke="none" ry="1.945" transform="scale(1,-1)"/><path id="path4077" fill="#000" fill-opacity=".059" stroke="none" d="m 394.44431,509.598 0,27.81961 0,2.98039 7.20898,0 0.002,0 0,-0.002 6.91602,-6.91584 6.91602,6.91584 0,0.002 0.002,0 0.01,0 7.19922,0 0,-2.99406 0,-27.80594 -7.21093,0 0,20.6069 0,0.11523 -6.91602,-6.88654 -6.91602,6.91583 0,-0.13085 0,-20.62057 L 394.44431,509.598 Z"/><path id="path4075" fill="#000" fill-opacity=".118" stroke="none" d="m 394.44431,509.198 0,27.81961 0,2.98039 7.20898,0 0.002,0 0,-0.002 6.91602,-6.91584 6.91602,6.91584 0,0.002 0.002,0 0.01,0 7.19922,0 0,-2.99406 0,-27.80594 -7.21093,0 0,20.6069 0,0.11523 -6.91602,-6.88654 -6.91602,6.91583 0,-0.13085 0,-20.62057 L 394.44431,509.198 Z"/><path id="path4058" fill="#000" fill-opacity=".235" stroke="none" d="m 394.44431,508.798 0,27.81961 0,2.98039 7.20898,0 0.002,0 0,-0.002 6.91602,-6.91584 6.91602,6.91584 0,0.002 0.002,0 0.01,0 7.19922,0 0,-2.99406 0,-27.80594 -7.21093,0 0,20.6069 0,0.11523 -6.91602,-6.88654 -6.91602,6.91583 0,-0.13085 0,-20.62057 L 394.44431,508.798 Z"/><rect id="rect4687" width="44" height="44" x="386.571" y="-545.798" fill="url(#radialGradient4697)" fill-opacity="1" stroke="none" opacity=".24" ry="1.782" transform="scale(1,-1)"/><path id="rect846" fill="#000" fill-opacity="1" stroke="none" d="m 384.57142,544.79802 0,1.0625 c 0,1.0773 0.86022,1.9375 1.9375,1.9375 l 44.125,0 c 1.07728,0 1.9375,-0.8602 1.9375,-1.9375 l 0,-1.0625 c 0,1.0773 -0.86022,1.9375 -1.9375,1.9375 l -44.125,0 C 385.43164,546.73552 384.57142,545.87532 384.57142,544.79802 Z"/><path id="path7515" fill="#fff" fill-opacity=".537" stroke="none" d="m 387.10267,500.45432 c -0.91709,0 -1.67115,0.6395 -1.84375,1.5 0.33561,-0.2799 0.77451,-0.4375 1.25,-0.4375 l 44.125,0 c 0.47549,0 0.91439,0.1576 1.25,0.4375 -0.1726,-0.8605 -0.92666,-1.5 -1.84375,-1.5 L 387.10267,500.45432 Z"/><path id="rect4280" fill="#000" fill-opacity=".392" stroke="none" d="m 386.50892,499.79802 c -1.07728,0 -1.9375,0.8602 -1.9375,1.9375 l 0,43.0625 c 0,0.7934 0.48002,1.449 1.15625,1.75 -0.30934,-0.3333 -0.5,-0.7824 -0.5,-1.2812 l 0,-42.9375 c 0,-1.0482 0.8269,-1.875 1.875,-1.875 l 42.9375,0 c 1.0481,0 1.875,0.8268 1.875,1.875 l 0,42.9375 c 0,0.4988 -0.19066,0.9479 -0.5,1.2812 0.67623,-0.301 1.15625,-0.9566 1.15625,-1.75 l 0,-43.0625 c 0,-1.0773 -0.86022,-1.9375 -1.9375,-1.9375 L 386.50892,499.79802 Z"/><path id="path4660" fill="#fff" fill-opacity="1" stroke="none" d="m 408.57142,522.23389 -6.91795,6.91794 0,10.04609 6.91795,-6.91796 6.91797,6.91796 0,-10.07616 L 408.57142,522.23389 Z"/><path id="rect4639" fill="#fff" fill-opacity="1" stroke="none" d="m 394.44381,508.39799 0,27.82012 0,2.97979 7.21214,0 0,-10.17873 0,-20.62118 L 394.44381,508.39799 z m 21.0431,0 0,20.60799 0,10.17873 0,0.0133 0.0132,0 7.19894,0 0,-2.99297 0,-27.80696 L 415.48691,508.39799 Z"/><g id="g834" transform="matrix(1.0346824,0,0,1.0346824,-14.170226,-18.035786)"><path id="rect4670" fill="url(#linearGradient4681)" fill-opacity="1" stroke="none" d="m 408.57143,522.1599 -6.68607,6.68606 0,9.70934 6.68607,-6.68607 L 408.57143,522.1599 Z"/><path id="path4683" fill="url(#linearGradient4685)" fill-opacity="1" stroke="none" d="m 408.57143,522.1599 0,9.70933 6.68607,6.68607 0,-9.7384 L 408.57143,522.1599 Z"/></g></g></svg>