<svg xmlns="http://www.w3.org/2000/svg" xmlns:svg="http://www.w3.org/2000/svg" id="svg2" width="24" height="24" version="1.1" viewBox="0 0 6.773 6.773"><metadata id="metadata12"/><path id="path4157" fill="#424854" fill-opacity="1" stroke="none" stroke-dasharray="none" stroke-dashoffset="0" stroke-linecap="butt" stroke-linejoin="miter" stroke-miterlimit="4" stroke-opacity="1" stroke-width="1.007" d="m 3.1849219,1.139362 a 2.2577781,2.2577781 0 0 0 -0.3026171,0.049609 2.2577781,2.2577781 0 0 0 -0.029214,0.1581988 2.2577781,2.2577778 0 0 1 0.028663,-0.15875 2.2577781,2.2577781 0 0 0 -0.1157553,0.032522 1.9755555,1.9755555 0 0 1 0.00551,-0.00606 2.257778,2.257778 0 0 0 -0.074414,0.025356 2.2577781,2.2577781 0 0 0 -0.071107,0.024805 2.257778,2.257778 0 0 0 -0.1267795,0.050161 2.2577781,2.2577781 0 0 0 -0.092604,0.041892 2.257778,2.257778 0 0 0 -0.1339453,0.068902 2.2577778,2.2577778 0 0 0 0,5.503e-4 2.2577781,2.2577781 0 0 0 -1.1437717,1.9601222 2.2577781,2.2577781 0 0 0 2.2577779,2.2577778 2.2577781,2.2577781 0 0 0 1.9551605,-1.1388107 2.2577778,2.2577778 0 0 0 0.00662,-0.00386 2.257778,2.257778 0 0 0 0.033073,-0.066146 2.2577781,2.2577781 0 0 0 0.030868,-0.060634 2.257778,2.257778 0 0 0 0.065043,-0.1466232 2.2577781,2.2577781 0 0 0 0.0226,-0.059531 2.257778,2.257778 0 0 0 0.056224,-0.1648132 1.9755555,1.9755555 0 0 1 -0.0022,0.00167 2.2577781,2.2577781 0 0 0 0.030317,-0.1141016 2.2577781,2.2577781 0 0 0 5.644e-4,0 A 2.2577781,2.2577781 0 0 0 5.6345448,3.587879 1.9755558,1.9755558 0 0 1 5.0800002,3.668889 1.9755558,1.9755558 0 0 1 3.1044445,1.6933334 1.9755558,1.9755558 0 0 1 3.1849219,1.139362 Z M 2.8382075,1.4485938 A 2.2577781,2.2577781 0 0 0 2.8222223,1.6933334 2.2577781,2.2577781 0 0 0 3.2791799,3.0504255 L 2.2577779,2.5400001 A 1.9755555,1.9755555 0 0 1 2.4826737,1.6326997 1.9755558,1.9755558 0 0 1 2.8321442,1.4921398 2.2577781,2.2577778 0 0 1 2.8382075,1.4485938 Z M 2.0659549,1.9220877 A 2.2577778,2.2577778 0 0 0 1.9755556,2.5400001 2.2577778,2.2577778 0 0 0 4.2333335,4.7977779 2.2577778,2.2577778 0 0 0 4.8495922,4.7095835 1.9755558,1.9755558 0 0 1 3.3866668,5.3622224 1.9755558,1.9755558 0 0 1 1.4111112,3.3866668 1.9755558,1.9755558 0 0 1 2.0659549,1.9220877 Z m 0.2761589,1.1823568 0.977856,0 A 2.2577781,2.2577781 0 0 0 3.6551087,3.441237 L 3.4302128,4.3424742 A 1.9755555,1.9755555 0 0 1 2.3421138,3.1044445 Z M 3.6887326,3.4671441 A 2.2577781,2.2577781 0 0 0 5.0800002,3.9511112 2.2577781,2.2577781 0 0 0 5.281745,3.9406382 1.9755558,1.9755558 0 0 1 5.1411851,4.2901087 1.9755555,1.9755555 0 0 1 4.2333335,4.5155557 1.9755555,1.9755555 0 0 1 3.945048,4.4918535 L 3.6887326,3.4671441 Z" opacity="1"/></svg>