<svg xmlns="http://www.w3.org/2000/svg" xmlns:svg="http://www.w3.org/2000/svg" id="svg2" width="24" height="24" version="1.1" viewBox="0 0 24 24"><metadata id="metadata26"/><defs id="defs24"><clipPath id="clipPath6"><rect id="rect8" width="3.825" height="6.375" x="26.85" y="220.75" fill="#bebebe" color="#bebebe"/></clipPath><clipPath id="clipPath10"><rect id="rect12" width="2.898" height="5.216" x="26.966" y="221.33" fill="#bebebe" color="#bebebe"/></clipPath><clipPath id="clipPath14"><rect id="rect16" width="1.876" height="4.874" x="26.999" y="221.5" fill="#bebebe" color="#bebebe"/></clipPath><clipPath id="clipPath3025"><rect id="rect3027" width="1.876" height="4.874" x="26.999" y="221.5" fill="#bebebe" color="#bebebe"/></clipPath><clipPath id="clipPath3021"><rect id="rect3023" width="2.898" height="5.216" x="26.966" y="221.33" fill="#bebebe" color="#bebebe"/></clipPath><clipPath id="clipPath3017"><rect id="rect3019" width="3.825" height="6.375" x="26.85" y="220.75" fill="#bebebe" color="#bebebe"/></clipPath><clipPath id="clipPath6-2"><rect id="rect8-40" width="3.825" height="6.375" x="26.85" y="220.75" fill="#bebebe" color="#bebebe"/></clipPath><clipPath id="clipPath10-42"><rect id="rect12-6" width="2.898" height="5.216" x="26.966" y="221.33" fill="#bebebe" color="#bebebe"/></clipPath><clipPath id="clipPath14-5"><rect id="rect16-5" width="1.876" height="4.874" x="26.999" y="221.5" fill="#bebebe" color="#bebebe"/></clipPath><clipPath id="clipPath3025-5"><rect id="rect3027-22" width="1.876" height="4.874" x="26.999" y="221.5" fill="#bebebe" color="#bebebe"/></clipPath><clipPath id="clipPath3021-6"><rect id="rect3023-6" width="2.898" height="5.216" x="26.966" y="221.33" fill="#bebebe" color="#bebebe"/></clipPath><clipPath id="clipPath3017-2"><rect id="rect3019-6" width="3.825" height="6.375" x="26.85" y="220.75" fill="#bebebe" color="#bebebe"/></clipPath><clipPath id="clipPath6-5"><rect id="rect8-4" width="3.825" height="6.375" x="26.85" y="220.75" fill="#bebebe" color="#bebebe"/></clipPath><clipPath id="clipPath10-4"><rect id="rect12-4" width="2.898" height="5.216" x="26.966" y="221.33" fill="#bebebe" color="#bebebe"/></clipPath><clipPath id="clipPath14-8"><rect id="rect16-3" width="1.876" height="4.874" x="26.999" y="221.5" fill="#bebebe" color="#bebebe"/></clipPath><clipPath id="clipPath3025-8"><rect id="rect3027-2" width="1.876" height="4.874" x="26.999" y="221.5" fill="#bebebe" color="#bebebe"/></clipPath><clipPath id="clipPath3021-9"><rect id="rect3023-7" width="2.898" height="5.216" x="26.966" y="221.33" fill="#bebebe" color="#bebebe"/></clipPath><clipPath id="clipPath3017-5"><rect id="rect3019-7" width="3.825" height="6.375" x="26.85" y="220.75" fill="#bebebe" color="#bebebe"/></clipPath><clipPath id="clipPath6-4"><rect id="rect8-2" width="3.825" height="6.375" x="26.85" y="220.75" fill="#bebebe" color="#bebebe"/></clipPath><clipPath id="clipPath10-3"><rect id="rect12-1" width="2.898" height="5.216" x="26.966" y="221.33" fill="#bebebe" color="#bebebe"/></clipPath><clipPath id="clipPath14-0"><rect id="rect16-8" width="1.876" height="4.874" x="26.999" y="221.5" fill="#bebebe" color="#bebebe"/></clipPath><clipPath id="clipPath3025-1"><rect id="rect3027-0" width="1.876" height="4.874" x="26.999" y="221.5" fill="#bebebe" color="#bebebe"/></clipPath><clipPath id="clipPath3021-8"><rect id="rect3023-0" width="2.898" height="5.216" x="26.966" y="221.33" fill="#bebebe" color="#bebebe"/></clipPath><clipPath id="clipPath3017-52"><rect id="rect3019-4" width="3.825" height="6.375" x="26.85" y="220.75" fill="#bebebe" color="#bebebe"/></clipPath><clipPath id="clipPath6-5-6"><rect id="rect8-4-7" width="3.825" height="6.375" x="26.85" y="220.75" fill="#bebebe" color="#bebebe"/></clipPath><clipPath id="clipPath10-4-8"><rect id="rect12-4-2" width="2.898" height="5.216" x="26.966" y="221.33" fill="#bebebe" color="#bebebe"/></clipPath><clipPath id="clipPath14-8-7"><rect id="rect16-3-2" width="1.876" height="4.874" x="26.999" y="221.5" fill="#bebebe" color="#bebebe"/></clipPath><clipPath id="clipPath3025-8-7"><rect id="rect3027-2-4" width="1.876" height="4.874" x="26.999" y="221.5" fill="#bebebe" color="#bebebe"/></clipPath><clipPath id="clipPath3021-9-0"><rect id="rect3023-7-2" width="2.898" height="5.216" x="26.966" y="221.33" fill="#bebebe" color="#bebebe"/></clipPath><clipPath id="clipPath3017-5-1"><rect id="rect3019-7-4" width="3.825" height="6.375" x="26.85" y="220.75" fill="#bebebe" color="#bebebe"/></clipPath></defs><path color="#000" style="text-decoration-line:none;text-decoration-style:solid;text-decoration-color:#000;isolation:auto;mix-blend-mode:normal;solid-color:#000;solid-opacity:1" id="rect4243" fill="#f89406" fill-opacity="1" fill-rule="nonzero" stroke="none" stroke-dasharray="none" stroke-dashoffset="0" stroke-linecap="butt" stroke-linejoin="miter" stroke-miterlimit="4" stroke-opacity="1" stroke-width="1" d="M 9.1816406,16 C 9.593201,17.164689 10.690917,18 12,18 c 1.309083,0 2.406799,-0.835311 2.818359,-2 l -5.6367184,0 z" clip-rule="nonzero" color-interpolation="sRGB" color-interpolation-filters="linearRGB" color-rendering="auto" display="inline" enable-background="accumulate" image-rendering="auto" opacity="1" overflow="visible" shape-rendering="auto" text-decoration="none" text-rendering="auto" visibility="visible"/><path color="#000" style="text-decoration-line:none;text-decoration-style:solid;text-decoration-color:#000;isolation:auto;mix-blend-mode:normal;solid-color:#000;solid-opacity:1" id="rect4193" fill="#424854" fill-opacity="1" fill-rule="nonzero" stroke="none" stroke-dasharray="none" stroke-dashoffset="0" stroke-linecap="butt" stroke-linejoin="miter" stroke-miterlimit="4" stroke-opacity="1" stroke-width="1" d="M 12,4 C 9.23,4 7,6.23 7,9 l 0,6 c 0,2.77 2.23,5 5,5 2.77,0 5,-2.23 5,-5 L 17,9 C 17,6.23 14.77,4 12,4 Z m 0,1 c 2.216,0 4,1.784 4,4 l 0,6 c 0,2.216 -1.784,4 -4,4 C 9.784,19 8,17.216 8,15 L 8,9 C 8,6.784 9.784,5 12,5 Z" clip-rule="nonzero" color-interpolation="sRGB" color-interpolation-filters="linearRGB" color-rendering="auto" display="inline" enable-background="accumulate" image-rendering="auto" opacity="1" overflow="visible" shape-rendering="auto" text-decoration="none" text-rendering="auto" visibility="visible"/><rect clip-rule="nonzero" style="text-decoration-line:none;text-decoration-style:solid;text-decoration-color:#000;isolation:auto;mix-blend-mode:normal;solid-color:#000;solid-opacity:1" id="rect4198" width="2" height="4" x="11" y="6" fill="#424854" fill-opacity="1" fill-rule="nonzero" stroke="none" stroke-dasharray="none" stroke-dashoffset="0" stroke-linecap="butt" stroke-linejoin="miter" stroke-miterlimit="4" stroke-opacity="1" stroke-width="1" color="#000" color-interpolation="sRGB" color-interpolation-filters="linearRGB" color-rendering="auto" display="inline" enable-background="accumulate" image-rendering="auto" opacity="1" overflow="visible" ry="1" shape-rendering="auto" text-decoration="none" text-rendering="auto" visibility="visible"/></svg>