<svg xmlns="http://www.w3.org/2000/svg" xmlns:svg="http://www.w3.org/2000/svg" id="svg2" width="24" height="24" version="1.1" viewBox="0 0 24 24"><metadata id="metadata12"/><path id="path4147" fill="#424854" fill-opacity="1" stroke="none" stroke-dasharray="none" stroke-dashoffset="0" stroke-linecap="butt" stroke-linejoin="miter" stroke-miterlimit="4" stroke-opacity="1" stroke-width="3.842" d="m 12,4 a 6.9999981,6.9999981 0 0 0 -7,7 6.9999981,6.9999981 0 0 0 7,7 6.9999981,6.9999981 0 0 0 1.140625,-0.0957 A 3,3 0 0 0 16,20 3,3 0 0 0 16.009766,20 3,3 0 0 1 15,17.757812 3,3 0 0 1 15.041016,17.298828 6.9999981,6.9999981 0 0 0 19,11 6.9999981,6.9999981 0 0 0 12,4 Z m 0,1 a 6,6 0 0 1 6,6 6,6 0 0 1 -6,6 6,6 0 0 1 -6,-6 6,6 0 0 1 6,-6 z m 0,1 0,1 a 4,4 0 0 1 3.326172,1.7832031 L 16.158203,8.2285156 A 5,5 0 0 0 12,6 Z" opacity="1"/></svg>