<svg xmlns="http://www.w3.org/2000/svg" xmlns:svg="http://www.w3.org/2000/svg" id="svg2" width="24" height="24" version="1.1" viewBox="0 0 24 24"><defs id="defs4"><clipPath id="clipPath6"><rect id="rect8" width="477.143" height="208.571" x="-830" y="1580.934" fill="#ff0"/></clipPath><clipPath id="clipPath10"><rect id="rect12" width="477.143" height="208.571" x="-830" y="1580.934" fill="#ff0"/></clipPath><clipPath id="clipPath14"><rect id="rect16" width="477.143" height="208.571" x="-830" y="1580.934" fill="#ff0"/></clipPath><clipPath id="clipPath18"><rect id="rect20" width="477.143" height="208.571" x="-830" y="1580.934" fill="#ff0"/></clipPath><clipPath id="clipPath22"><rect id="rect24" width="477.143" height="208.571" x="-830" y="1580.934" fill="#ff0"/></clipPath><clipPath id="clipPath26"><rect id="rect28" width="477.143" height="208.571" x="-830" y="1580.934" fill="#ff0"/></clipPath></defs><metadata id="metadata7"/><g id="layer1" transform="translate(1,-1029.3622)"><path id="path4209" fill="#424854" fill-opacity="1" stroke="none" stroke-dasharray="none" stroke-dashoffset="0" stroke-linecap="butt" stroke-linejoin="miter" stroke-miterlimit="4" stroke-opacity="1" stroke-width="3.567" d="m 10.5,3 0,2 1,0 0,-2 -1,0 z M 5.6972656,4.9902344 4.9902344,5.6972656 6.4042969,7.1113281 7.1113281,6.4042969 5.6972656,4.9902344 Z m 10.6054684,0 -1.414062,1.4140625 0.707031,0.7070312 1.414063,-1.4140625 -0.707032,-0.7070312 z M 11,6 a 5,5 0 0 0 -5,5 5,5 0 0 0 5,5 5,5 0 0 0 5,-5 5,5 0 0 0 -5,-5 z m 0,1 a 4,4 0 0 1 4,4 4,4 0 0 1 -4,4 4,4 0 0 1 -4,-4 4,4 0 0 1 4,-4 z m 0,1 a 3,3 0 0 0 -3,3 l 1,0 a 2,2 0 0 1 2,-2 l 0,-1 z m -8,2.5 0,1 2,0 0,-1 -2,0 z m 14,0 0,1 2,0 0,-1 -2,0 z M 6.4042969,14.888672 4.9902344,16.302734 5.6972656,17.009766 7.1113281,15.595703 6.4042969,14.888672 Z m 9.1914061,0 -0.707031,0.707031 1.414062,1.414063 0.707032,-0.707032 -1.414063,-1.414062 z M 10.5,17 l 0,2 1,0 0,-2 -1,0 z" opacity="1" transform="translate(0,1030.3622)"/></g></svg>