<svg xmlns="http://www.w3.org/2000/svg" xmlns:svg="http://www.w3.org/2000/svg" id="svg2" width="24" height="24" version="1.1" viewBox="0 0 24 24"><metadata id="metadata28"/><path id="path4159" fill="#424854" fill-opacity="1" stroke="none" stroke-dasharray="none" stroke-dashoffset="0" stroke-linecap="butt" stroke-linejoin="miter" stroke-miterlimit="4" stroke-opacity="1" stroke-width="3.567" d="M 11,7 A 3,3 0 0 0 8.484375,8.3691406 1.5,1.5 0 0 0 7.5,8 1.5,1.5 0 0 0 6,9.5 1.5,1.5 0 0 0 6.3691406,10.482422 3,3 0 0 0 5.1660156,12.025391 2.5,2.5 0 0 0 3,14.5 2.5,2.5 0 0 0 5.5,17 2.5,2.5 0 0 0 7.2324219,16.300781 1.5,1.5 0 0 0 8.5,17 1.5,1.5 0 0 0 9.8691406,16.109375 3,3 0 0 0 12,17 3,3 0 0 0 14,16.232422 3,3 0 0 0 16,17 3,3 0 0 0 18.130859,16.107422 1.5,1.5 0 0 0 19.5,17 1.5,1.5 0 0 0 21,15.5 1.5,1.5 0 0 0 19.5,14 1.5,1.5 0 0 0 18.996094,14.089844 3,3 0 0 0 19,14 3,3 0 0 0 16.869141,11.130859 3,3 0 0 0 14,9 3,3 0 0 0 13.828125,9.0058594 3,3 0 0 0 11,7 Z" opacity="1"/></svg>