<svg xmlns="http://www.w3.org/2000/svg" xmlns:svg="http://www.w3.org/2000/svg" id="svg2" width="24" height="24" version="1.1" viewBox="0 0 24 24"><metadata id="metadata10"/><defs id="defs8"><linearGradient id="linearGradient3257"><stop id="stop3259" offset="0" stop-color="#a50000" stop-opacity="1"/><stop id="stop3261" offset="1" stop-color="#e73800" stop-opacity="1"/></linearGradient></defs><path color="#000" style="text-decoration-line:none;text-decoration-style:solid;text-decoration-color:#000;isolation:auto;mix-blend-mode:normal;solid-color:#000;solid-opacity:1" id="rect4177" fill="#424854" fill-opacity="1" fill-rule="nonzero" stroke="none" stroke-dasharray="none" stroke-dashoffset="0" stroke-linecap="butt" stroke-linejoin="miter" stroke-miterlimit="4" stroke-opacity="1" stroke-width="1" d="M 8,4 8,4.0039062 5,7 4,8 11,8 11,7 11,4 Z m 5,0 0,4 7,0 L 16,4.0039062 16,4 14,4 Z M 8.4160156,5 10,5 10,7 6.4140625,7 Z M 14,5 15.583984,5 17.585938,7 14,7 Z m -10,4 0,1 0,3 1,0 0,-3 14,0 0,9 -7,0 0,1 8,0 0,-1 0,-9 0,-1 z" clip-rule="nonzero" color-interpolation="sRGB" color-interpolation-filters="linearRGB" color-rendering="auto" display="inline" enable-background="accumulate" image-rendering="auto" opacity="1" overflow="visible" shape-rendering="auto" text-decoration="none" text-rendering="auto" visibility="visible"/><path id="rect4147" fill="#f92d36" fill-opacity="1" stroke="none" stroke-dasharray="none" stroke-dashoffset="0" stroke-linecap="butt" stroke-linejoin="miter" stroke-miterlimit="4" stroke-opacity="1" stroke-width="3.549" d="m 7.999722,12 c -0.5482804,0 -1.0800984,0.453539 -0.9899585,1 l 0.495955,3 c 0.090135,0.546462 0.2397953,1 0.4940035,1 0.2542083,0 0.4038637,-0.453538 0.4940036,-1 l 0.495955,-3 C 9.0798206,12.453539 8.5480025,12 7.999722,12 Z m 0,6 A 0.99972182,1 0 0 0 7.0000002,19 0.99972182,1 0 0 0 7.999722,20 0.99972182,1 0 0 0 8.9994439,19 0.99972182,1 0 0 0 7.999722,18 Z" opacity="1"/></svg>