<svg xmlns="http://www.w3.org/2000/svg" xmlns:svg="http://www.w3.org/2000/svg" id="svg2" width="24" height="24" version="1.1" viewBox="0 0 24 24"><metadata id="metadata10"/><defs id="defs8"><linearGradient id="linearGradient3257"><stop id="stop3259" offset="0" stop-color="#a50000" stop-opacity="1"/><stop id="stop3261" offset="1" stop-color="#e73800" stop-opacity="1"/></linearGradient></defs><path color="#000" style="text-decoration-line:none;text-decoration-style:solid;text-decoration-color:#000;isolation:auto;mix-blend-mode:normal;solid-color:#000;solid-opacity:1" id="rect4177" fill="#424854" fill-opacity="1" fill-rule="nonzero" stroke="none" stroke-dasharray="none" stroke-dashoffset="0" stroke-linecap="butt" stroke-linejoin="miter" stroke-miterlimit="4" stroke-opacity="1" stroke-width="1" d="M 8,4 8,4.0039062 5,7 4,8 11,8 11,7 11,4 Z m 5,0 0,4 7,0 L 16,4.0039062 16,4 14,4 Z M 8.4160156,5 10,5 10,7 6.4140625,7 Z M 14,5 15.583984,5 17.585938,7 14,7 Z m -10,4 0,1 0,3 1,0 0,-3 14,0 0,9 -7,0 0,1 8,0 0,-1 0,-9 0,-1 z" clip-rule="nonzero" color-interpolation="sRGB" color-interpolation-filters="linearRGB" color-rendering="auto" display="inline" enable-background="accumulate" image-rendering="auto" opacity="1" overflow="visible" shape-rendering="auto" text-decoration="none" text-rendering="auto" visibility="visible"/><path id="path4151" fill="#424854" fill-opacity="1" stroke="none" stroke-dasharray="none" stroke-dashoffset="0" stroke-linecap="butt" stroke-linejoin="miter" stroke-miterlimit="4" stroke-opacity="1" stroke-width="3.567" d="M 9.5,13 A 1.5,1.5 0 0 0 8.0878906,14 L 4,14 4,15 8.0878906,15 A 1.5,1.5 0 0 0 9.5,16 1.5,1.5 0 0 0 10.912109,15 L 12,15 12,14 10.912109,14 A 1.5,1.5 0 0 0 9.5,13 Z m 0,1 A 0.5,0.5 0 0 1 10,14.5 0.5,0.5 0 0 1 9.5,15 0.5,0.5 0 0 1 9,14.5 0.5,0.5 0 0 1 9.5,14 Z m -3,2 A 1.5,1.5 0 0 0 5.0878906,17 L 4,17 4,18 5.0878906,18 A 1.5,1.5 0 0 0 6.5,19 1.5,1.5 0 0 0 7.9121094,18 L 12,18 12,17 7.9121094,17 A 1.5,1.5 0 0 0 6.5,16 Z m 0,1 A 0.5,0.5 0 0 1 7,17.5 0.5,0.5 0 0 1 6.5,18 0.5,0.5 0 0 1 6,17.5 0.5,0.5 0 0 1 6.5,17 Z" opacity="1"/></svg>