<svg xmlns="http://www.w3.org/2000/svg" xmlns:svg="http://www.w3.org/2000/svg" id="svg2" width="24" height="24" version="1.1" viewBox="0 0 24 24"><metadata id="metadata10"/><path id="path4151" fill="#f92d36" fill-opacity="1" stroke="none" stroke-dasharray="none" stroke-dashoffset="0" stroke-linecap="butt" stroke-linejoin="miter" stroke-miterlimit="4" stroke-opacity="1" stroke-width="3.567" d="m 11,4 c -0.554,0 -1,0.446 -1,1 l 0,9.767578 A 3,3 0 0 0 9,17 a 3,3 0 0 0 3,3 3,3 0 0 0 3,-3 3,3 0 0 0 -1,-2.230469 L 14,14 l 0,-1 -1,0 0,-1 0,-1 1,0 0,-1 -1,0 0,-1 0,-1 1,0 0,-1 -1,0 0,-1 -1,0 0,1 0,1 0,1 0,1 0,1 0,1 0,1 0,1 a 3,3 0 0 0 -1,0.175781 L 11,5 l 2,0 0,1 1,0 0,-1 C 14,4.446 13.554,4 13,4 l -2,0 z m 0.951172,11 A 2,2 0 0 1 12,15 a 2,2 0 0 1 1,0.269531 l 0,0.002 c 0.326586,0.188305 0.590641,0.462685 0.765625,0.791016 a 2,2 0 0 1 0,0.002 c 0.05429,0.10208 0.09858,0.210988 0.134766,0.322266 A 2,2 0 0 1 14,17 2,2 0 0 1 12,19 2,2 0 0 1 10,17 2,2 0 0 1 10.158203,16.220703 2,2 0 0 1 11,15.271484 2,2 0 0 1 11.951172,15 Z M 12,16 a 1,1 0 0 0 -1,1 l 1,0 0,-1 z" opacity="1"/></svg>