<svg xmlns="http://www.w3.org/2000/svg" xmlns:svg="http://www.w3.org/2000/svg" id="svg2" width="24" height="24" version="1.1" viewBox="0 0 24 24"><metadata id="metadata8"/><path color="#000" style="text-decoration-line:none;text-decoration-style:solid;text-decoration-color:#000;isolation:auto;mix-blend-mode:normal;solid-color:#000;solid-opacity:1" id="path4159" fill="#424854" fill-opacity="1" fill-rule="nonzero" stroke="none" stroke-dasharray="none" stroke-dashoffset="0" stroke-linecap="butt" stroke-linejoin="miter" stroke-miterlimit="4" stroke-opacity="1" stroke-width="1" d="m 12,4 c -4.432,0 -8,3.568 -8,8 0,2.216 0.8918906,4.216109 2.3378906,5.662109 L 7.0449219,16.955078 C 5.7796719,15.689828 5,13.939 5,12 5,8.122 8.122,5 12,5 c 3.878,0 7,3.122 7,7 0,1.939 -0.779672,3.689828 -2.044922,4.955078 l 0.707031,0.707031 C 19.108109,16.216109 20,14.216 20,12 20,7.568 16.432,4 12,4 Z" clip-rule="nonzero" color-interpolation="sRGB" color-interpolation-filters="linearRGB" color-rendering="auto" display="inline" enable-background="accumulate" image-rendering="auto" opacity=".25" overflow="visible" shape-rendering="auto" text-decoration="none" text-rendering="auto" visibility="visible"/><path color="#000" style="text-decoration-line:none;text-decoration-style:solid;text-decoration-color:#000;isolation:auto;mix-blend-mode:normal;solid-color:#000;solid-opacity:1" id="path4157" fill="#424854" fill-opacity="1" fill-rule="nonzero" stroke="none" stroke-dasharray="none" stroke-dashoffset="0" stroke-linecap="butt" stroke-linejoin="miter" stroke-miterlimit="4" stroke-opacity="1" stroke-width="1" d="m 12,6 c -3.324,0 -6,2.676 -6,6 0,1.662 0.6694063,3.161594 1.7539062,4.246094 L 8.4609375,15.539062 C 7.5571875,14.635314 7,13.385 7,12 7,9.23 9.23,7 12,7 c 2.77,0 5,2.23 5,5 0,1.385 -0.557187,2.635313 -1.460938,3.539062 l 0.707032,0.707032 C 17.330594,15.161594 18,13.662 18,12 18,8.676 15.324,6 12,6 Z" clip-rule="nonzero" color-interpolation="sRGB" color-interpolation-filters="linearRGB" color-rendering="auto" display="inline" enable-background="accumulate" image-rendering="auto" opacity=".5" overflow="visible" shape-rendering="auto" text-decoration="none" text-rendering="auto" visibility="visible"/><path color="#000" style="text-decoration-line:none;text-decoration-style:solid;text-decoration-color:#000;isolation:auto;mix-blend-mode:normal;solid-color:#000;solid-opacity:1" id="path4155" fill="#424854" fill-opacity="1" fill-rule="nonzero" stroke="none" stroke-dasharray="none" stroke-dashoffset="0" stroke-linecap="butt" stroke-linejoin="miter" stroke-miterlimit="4" stroke-opacity="1" stroke-width="1" d="m 12,8 c -2.2159996,0 -4,1.7840004 -4,4 0,1.108 0.4469218,2.107078 1.1699219,2.830078 L 9.8769531,14.123047 C 9.3347031,13.580797 9,12.831 9,12 c 0,-1.662 1.338,-3 3,-3 1.662,0 3,1.338 3,3 0,0.831 -0.334703,1.580797 -0.876953,2.123047 l 0.707031,0.707031 C 15.553078,14.107078 16,13.108 16,12 16,9.7840004 14.216,8 12,8 Z" clip-rule="nonzero" color-interpolation="sRGB" color-interpolation-filters="linearRGB" color-rendering="auto" display="inline" enable-background="accumulate" image-rendering="auto" opacity=".75" overflow="visible" shape-rendering="auto" text-decoration="none" text-rendering="auto" visibility="visible"/><path color="#000" style="text-decoration-line:none;text-decoration-style:solid;text-decoration-color:#000;isolation:auto;mix-blend-mode:normal;solid-color:#000;solid-opacity:1" id="path4153" fill="#424854" fill-opacity="1" fill-rule="nonzero" stroke="none" stroke-dasharray="none" stroke-dashoffset="0" stroke-linecap="butt" stroke-linejoin="miter" stroke-miterlimit="4" stroke-opacity="1" stroke-width="1" d="m 12,11 c -0.554,0 -1,0.446 -1,1 0,0.0249 0.0119,0.04588 0.01367,0.07031 L 8.8554688,20 9.890625,20 10,19.597656 10.023438,19.621094 12,17.644531 13.976562,19.621094 14,19.597656 14.109375,20 15.144531,20 12.986328,12.070312 C 12.9881,12.045877 13,12.024903 13,12 13,11.446 12.554,11 12,11 Z m -0.191406,1.960938 C 11.872643,12.97372 11.932082,13 12,13 c 0.06792,0 0.127357,-0.02628 0.191406,-0.03906 L 12.851562,15.378906 12,16.230469 l -0.849609,-0.84961 0.658203,-2.419921 z m 1.345703,3.529296 0.333984,1.228516 -0.78125,-0.78125 0.447266,-0.447266 z m -2.306641,0.002 0.445313,0.445312 -0.779297,0.779297 0.333984,-1.224609 z" clip-rule="nonzero" color-interpolation="sRGB" color-interpolation-filters="linearRGB" color-rendering="auto" display="inline" enable-background="accumulate" image-rendering="auto" opacity="1" overflow="visible" shape-rendering="auto" text-decoration="none" text-rendering="auto" visibility="visible"/></svg>