<svg xmlns="http://www.w3.org/2000/svg" xmlns:svg="http://www.w3.org/2000/svg" id="svg2" width="24" height="24" version="1.1" viewBox="0 0 24 24"><metadata id="metadata7"/><g id="layer1" transform="translate(1,-1029.3622)"><path id="path4201" fill="#424854" fill-opacity="1" stroke="none" d="m 18.289062,1044.0517 -3.833984,3.8789 -1.699219,-1.7207 -0.710938,0.7109 1.703125,1.7266 -0.002,0 0.707078,0.7148 0.002,0 0.002,0 0.707031,-0.7148 -0.002,0 3.837845,-3.8848 -0.710938,-0.7109 z" opacity="1"/><path id="path4159-9" fill="#424854" fill-opacity="1" stroke="none" stroke-dasharray="none" stroke-dashoffset="0" stroke-linecap="butt" stroke-linejoin="miter" stroke-miterlimit="4" stroke-opacity="1" stroke-width="3.567" d="M 10,6 A 3,3 0 0 0 7.484375,7.3691406 1.5,1.5 0 0 0 6.5,7 1.5,1.5 0 0 0 5,8.5 1.5,1.5 0 0 0 5.3691406,9.4824219 3,3 0 0 0 4.1660156,11.025391 2.5,2.5 0 0 0 2,13.5 2.5,2.5 0 0 0 4.5,16 2.5,2.5 0 0 0 6.2324219,15.300781 1.5,1.5 0 0 0 7.5,16 1.5,1.5 0 0 0 8.8691406,15.109375 3,3 0 0 0 11,16 l 2,-2 1,1 1,1 3,-3 A 3,3 0 0 0 15.869141,10.130859 3,3 0 0 0 13,8 3,3 0 0 0 12.828125,8.0097656 3,3 0 0 0 10,6 Z" opacity="1" transform="translate(0,1030.3622)"/></g></svg>