<svg xmlns="http://www.w3.org/2000/svg" xmlns:svg="http://www.w3.org/2000/svg" id="svg2" width="24" height="24" version="1.1" viewBox="0 0 24 24"><metadata id="metadata12"/><path id="rect4147" fill="#f92d36" fill-opacity="1" stroke="none" stroke-dasharray="none" stroke-dashoffset="0" stroke-linecap="butt" stroke-linejoin="miter" stroke-miterlimit="4" stroke-opacity="1" stroke-width="3.567" d="M 3,3 3,21 21,21 21,3 3,3 Z m 1,1 16,0 0,11.650391 -16,0 L 4,4 Z m 0,13 7,0 0,3 -7,0 0,-3 z m 9,0 7,0 0,3 -7,0 0,-3 z" opacity="1"/><path id="rect4162" fill="#f92d36" fill-opacity="1" stroke="none" d="M 9.7070311,7.0000001 9.0000001,7.7070313 11.292969,10 9.0000001,12.292969 9.7070311,13 12,10.707031 14.292969,13 15,12.292969 12.707031,10 15,7.7070313 14.292969,7.0000001 12,9.2929689 Z" opacity="1"/></svg>