<svg xmlns="http://www.w3.org/2000/svg" xmlns:svg="http://www.w3.org/2000/svg" id="svg2" width="24" height="24" version="1.1" viewBox="0 0 24 24"><defs id="defs4"><clipPath id="clipPath6"><rect id="rect8" width="477.143" height="208.571" x="-830" y="1580.934" fill="#ff0"/></clipPath><clipPath id="clipPath10"><rect id="rect12" width="477.143" height="208.571" x="-830" y="1580.934" fill="#ff0"/></clipPath><clipPath id="clipPath14"><rect id="rect16" width="477.143" height="208.571" x="-830" y="1580.934" fill="#ff0"/></clipPath><clipPath id="clipPath18"><rect id="rect20" width="477.143" height="208.571" x="-830" y="1580.934" fill="#ff0"/></clipPath><clipPath id="clipPath22"><rect id="rect24" width="477.143" height="208.571" x="-830" y="1580.934" fill="#ff0"/></clipPath><clipPath id="clipPath26"><rect id="rect28" width="477.143" height="208.571" x="-830" y="1580.934" fill="#ff0"/></clipPath></defs><metadata id="metadata7"/><g id="layer1" transform="translate(1,-1029.3622)"><path id="path4209" fill="#424854" fill-opacity="1" stroke="none" stroke-dasharray="none" stroke-dashoffset="0" stroke-linecap="butt" stroke-linejoin="miter" stroke-miterlimit="4" stroke-opacity="1" stroke-width="3.567" d="M 10.5,3 V 5 H 11 11.5 V 3 H 11 Z M 5.6972656,4.9902344 4.9902344,5.6972656 6.4042969,7.1113281 7.1113281,6.4042969 Z M 11,6 a 5,5 0 0 0 -5,5 5,5 0 0 0 0.4199219,2 H 7.5410156 A 4,4 0 0 1 7,11 4,4 0 0 1 11,7 Z m 0,2 a 3,3 0 0 0 -3,3 h 1 a 2,2 0 0 1 2,-2 z m 3.458984,1 A 4,4 0 0 1 15,11 4,4 0 0 1 11,15 v 1 A 5,5 0 0 0 16,11 5,5 0 0 0 15.580078,9 Z M 3,10.5 v 1 h 2 v -1 z m 14,0 v 1 h 2 v -1 z m -1.404297,4.388672 -0.707031,0.707031 1.414062,1.414063 0.707032,-0.707032 z M 10.5,17 v 2 H 11 11.5 V 17 H 11 Z" opacity="1" transform="translate(0,1030.3622)"/><path id="path4181" fill="#424854" fill-opacity="1" stroke="none" stroke-dasharray="none" stroke-dashoffset="0" stroke-linecap="butt" stroke-linejoin="miter" stroke-miterlimit="4" stroke-opacity="1" stroke-width="3.567" d="m 15.500002,1033.3622 c -0.636634,6e-4 -1.20351,0.4031 -1.414062,1.0039 -0.02862,0 -0.05727,0 -0.08594,0 -1.104569,0 -2,0.8954 -2,2 0,1.1046 0.895431,2 2,2 h 5 c 0.552285,0 1,-0.4477 1,-1 0,-0.5523 -0.447715,-1 -1,-1 h -0.08789 c 0.05749,-0.1605 0.08721,-0.3295 0.08789,-0.5 0,-0.8284 -0.671573,-1.5 -1.5,-1.5 -0.189248,0 -0.376793,0.036 -0.552734,0.1055 -0.177937,-0.6527 -0.770754,-1.1055 -1.447266,-1.1055 z" opacity="1"/><path id="path4179" fill="#424854" fill-opacity="1" stroke="none" stroke-dasharray="none" stroke-dashoffset="0" stroke-linecap="butt" stroke-linejoin="miter" stroke-miterlimit="4" stroke-opacity="1" stroke-width="3.567" d="m 5.5,1044.3583 c -0.6366342,6e-4 -1.2035091,0.4031 -1.4140625,1.0039 -0.028614,0 -0.057267,0 -0.085937,0 -1.1045695,0 -2,0.8954 -2,2 0,1.1046 0.8954305,2 2,2 h 5 c 0.552285,0 0.9999995,-0.4477 0.9999995,-1 0,-0.5523 -0.4477145,-1 -0.9999995,-1 h -0.087891 c 0.057493,-0.1605 0.087215,-0.3295 0.087891,-0.5 0,-0.8284 -0.6715729,-1.5 -1.5,-1.5 -0.1892484,0 -0.3767926,0.036 -0.5527344,0.1055 C 6.7693289,1044.8111 6.1765123,1044.3583 5.5,1044.3583 Z" opacity="1"/></g></svg>